M48
;DRILL file {KiCad 5.0.2-bee76a0~70~ubuntu18.04.1} date pon 29 jul 2019 11:14:40 CEST
;FORMAT={-:-/ absolute / metric / decimal}
FMAT,2
METRIC,TZ
T1C0.300
T2C0.600
T3C1.000
T4C1.016
%
G90
G05
T1
X1.968Y4.699
X1.968Y1.333
X2.747Y32.529
X2.984Y49.149
X3.048Y24.638
X3.048Y23.114
X3.111Y58.293
X3.607Y20.879
X3.619Y47.561
X3.746Y21.844
X3.962Y14.478
X4.Y45.847
X4.064Y15.545
X4.191Y53.467
X4.242Y26.01
X4.267Y13.513
X4.318Y58.42
X4.826Y56.007
X4.877Y33.706
X4.889Y21.082
X4.953Y45.847
X5.207Y32.893
X5.334Y52.578
X5.397Y34.353
X5.791Y17.628
X5.842Y31.686
X5.905Y21.844
X6.032Y52.578
X6.056Y34.861
X6.35Y18.732
X6.452Y39.421
X6.985Y15.176
X6.985Y13.208
X7.112Y40.335
X7.239Y58.483
X7.518Y30.175
X7.747Y36.576
X7.747Y29.337
X8.128Y55.118
X8.445Y32.194
X8.484Y19.621
X8.826Y13.843
X8.89Y54.864
X9.017Y37.529
X9.246Y32.194
X9.588Y46.99
X9.588Y28.321
X9.652Y45.657
X9.842Y11.938
X9.97Y18.542
X10.16Y10.604
X10.16Y9.461
X10.223Y24.956
X10.287Y51.117
X10.541Y42.672
X10.731Y41.91
X10.795Y15.557
X10.795Y12.827
X10.858Y33.274
X10.986Y37.529
X11.112Y34.925
X11.14Y29.789
X11.176Y32.207
X11.491Y54.733
X11.735Y19.507
X11.811Y37.163
X11.938Y50.736
X12.09Y32.207
X12.128Y45.72
X12.128Y41.91
X12.141Y28.804
X12.257Y55.04
X12.319Y46.99
X12.383Y43.243
X12.7Y35.56
X12.7Y14.224
X12.852Y19.66
X12.916Y44.069
X13.081Y13.144
X13.144Y58.42
X13.271Y16.764
X13.309Y30.965
X13.462Y25.717
X13.716Y44.069
X13.919Y19.812
X13.952Y31.615
X14.097Y22.606
X14.478Y13.144
X14.541Y33.718
X14.605Y52.133
X14.641Y44.041
X14.783Y18.644
X14.795Y10.541
X14.884Y17.577
X15.113Y28.003
X15.24Y32.512
X15.367Y51.308
X15.443Y44.069
X15.494Y38.163
X15.494Y14.732
X15.557Y13.271
X16.129Y42.862
X16.256Y37.401
X16.256Y15.494
X16.319Y51.943
X16.383Y44.767
X16.447Y46.355
X16.447Y41.656
X16.612Y11.735
X16.645Y13.056
X16.764Y28.575
X17.209Y37.402
X17.272Y54.927
X17.335Y56.959
X17.462Y30.099
X17.526Y10.541
X17.526Y9.144
X17.97Y1.714
X18.098Y4.635
T3
X1.27Y58.42
X1.27Y55.88
X1.27Y53.34
X1.27Y50.8
X1.27Y48.26
X1.27Y45.72
X1.27Y43.18
X1.27Y40.64
X1.27Y38.1
X1.27Y35.56
X1.27Y33.02
X1.27Y30.48
X1.27Y27.94
X1.27Y25.4
X1.27Y22.86
X1.27Y20.32
X1.27Y17.78
X1.27Y15.24
X1.27Y12.7
X1.27Y10.16
X19.05Y58.42
X19.05Y55.88
X19.05Y53.34
X19.05Y50.8
X19.05Y48.26
X19.05Y45.72
X19.05Y43.18
X19.05Y40.64
X19.05Y38.1
X19.05Y35.56
X19.05Y33.02
X19.05Y30.48
X19.05Y27.94
X19.05Y25.4
X19.05Y22.86
X19.05Y20.32
X19.05Y17.78
X19.05Y15.24
X19.05Y12.7
X19.05Y10.16
T4
X5.08Y5.08
X5.08Y2.54
X7.62Y5.08
X7.62Y2.54
X10.16Y5.08
X10.16Y2.54
X12.7Y5.08
X12.7Y2.54
X15.24Y5.08
X15.24Y2.54
T2
X5.84Y58.062G85X5.84Y58.862
G05
X5.84Y53.762G85X5.84Y54.862
G05
X14.48Y58.062G85X14.48Y58.862
G05
X14.48Y53.762G85X14.48Y54.862
G05
T0
M30
