G04 #@! TF.GenerationSoftware,KiCad,Pcbnew,5.1.8-db9833491~88~ubuntu20.04.1*
G04 #@! TF.CreationDate,2021-01-17T16:25:24+01:00*
G04 #@! TF.ProjectId,Pic32MxRedFox,50696333-324d-4785-9265-64466f782e6b,Rev2*
G04 #@! TF.SameCoordinates,PX5faea10PY8eeaea0*
G04 #@! TF.FileFunction,Legend,Top*
G04 #@! TF.FilePolarity,Positive*
%FSLAX46Y46*%
G04 Gerber Fmt 4.6, Leading zero omitted, Abs format (unit mm)*
G04 Created by KiCad (PCBNEW 5.1.8-db9833491~88~ubuntu20.04.1) date 2021-01-17 16:25:24*
%MOMM*%
%LPD*%
G01*
G04 APERTURE LIST*
%ADD10C,0.120000*%
%ADD11C,0.150000*%
%ADD12C,0.200000*%
G04 APERTURE END LIST*
D10*
X12217571Y19932596D02*
X12217571Y19284977D01*
X12255666Y19208786D01*
X12293761Y19170691D01*
X12369952Y19132596D01*
X12522333Y19132596D01*
X12598523Y19170691D01*
X12636619Y19208786D01*
X12674714Y19284977D01*
X12674714Y19932596D01*
X13017571Y19170691D02*
X13131857Y19132596D01*
X13322333Y19132596D01*
X13398523Y19170691D01*
X13436619Y19208786D01*
X13474714Y19284977D01*
X13474714Y19361167D01*
X13436619Y19437358D01*
X13398523Y19475453D01*
X13322333Y19513548D01*
X13169952Y19551643D01*
X13093761Y19589739D01*
X13055666Y19627834D01*
X13017571Y19704024D01*
X13017571Y19780215D01*
X13055666Y19856405D01*
X13093761Y19894500D01*
X13169952Y19932596D01*
X13360428Y19932596D01*
X13474714Y19894500D01*
X13817571Y19551643D02*
X14084238Y19551643D01*
X14198523Y19132596D02*
X13817571Y19132596D01*
X13817571Y19932596D01*
X14198523Y19932596D01*
X14998523Y19132596D02*
X14731857Y19513548D01*
X14541380Y19132596D02*
X14541380Y19932596D01*
X14846142Y19932596D01*
X14922333Y19894500D01*
X14960428Y19856405D01*
X14998523Y19780215D01*
X14998523Y19665929D01*
X14960428Y19589739D01*
X14922333Y19551643D01*
X14846142Y19513548D01*
X14541380Y19513548D01*
X5632595Y19132596D02*
X5365928Y19513548D01*
X5175452Y19132596D02*
X5175452Y19932596D01*
X5480214Y19932596D01*
X5556404Y19894500D01*
X5594500Y19856405D01*
X5632595Y19780215D01*
X5632595Y19665929D01*
X5594500Y19589739D01*
X5556404Y19551643D01*
X5480214Y19513548D01*
X5175452Y19513548D01*
X5975452Y19551643D02*
X6242119Y19551643D01*
X6356404Y19132596D02*
X5975452Y19132596D01*
X5975452Y19932596D01*
X6356404Y19932596D01*
X6661166Y19170691D02*
X6775452Y19132596D01*
X6965928Y19132596D01*
X7042119Y19170691D01*
X7080214Y19208786D01*
X7118309Y19284977D01*
X7118309Y19361167D01*
X7080214Y19437358D01*
X7042119Y19475453D01*
X6965928Y19513548D01*
X6813547Y19551643D01*
X6737357Y19589739D01*
X6699261Y19627834D01*
X6661166Y19704024D01*
X6661166Y19780215D01*
X6699261Y19856405D01*
X6737357Y19894500D01*
X6813547Y19932596D01*
X7004023Y19932596D01*
X7118309Y19894500D01*
X7461166Y19551643D02*
X7727833Y19551643D01*
X7842119Y19132596D02*
X7461166Y19132596D01*
X7461166Y19932596D01*
X7842119Y19932596D01*
X8070690Y19932596D02*
X8527833Y19932596D01*
X8299261Y19132596D02*
X8299261Y19932596D01*
D11*
X2540000Y1524000D02*
X2540000Y3556000D01*
X3556000Y2540000D02*
X2540000Y1524000D01*
X3556000Y2540000D02*
X2540000Y3556000D01*
D10*
X895515Y12903189D02*
X1461201Y12337503D01*
X579944Y11671746D02*
X660756Y12129681D01*
X256695Y11994994D02*
X822380Y12560680D01*
X1037880Y12345181D01*
X1064817Y12264368D01*
X1064817Y12210494D01*
X1037880Y12129681D01*
X957067Y12048869D01*
X876255Y12021932D01*
X822380Y12021932D01*
X741568Y12048869D01*
X526069Y12264368D01*
X1461201Y12337503D02*
X1999949Y11798755D01*
X822380Y11483184D02*
X876255Y11375434D01*
X1010942Y11240747D01*
X1091754Y11213810D01*
X1145629Y11213810D01*
X1226441Y11240747D01*
X1280316Y11294622D01*
X1307254Y11375434D01*
X1307254Y11429309D01*
X1280316Y11510121D01*
X1199504Y11644808D01*
X1172567Y11725620D01*
X1172567Y11779495D01*
X1199504Y11860307D01*
X1253379Y11914182D01*
X1334191Y11941120D01*
X1388066Y11941120D01*
X1468878Y11914182D01*
X1603565Y11779495D01*
X1657440Y11671746D01*
X1999949Y11798755D02*
X2430947Y11367757D01*
X1846002Y11537059D02*
X2169250Y11213810D01*
X1441941Y10809749D02*
X2007626Y11375434D01*
X903193Y17505993D02*
X876255Y17586805D01*
X795443Y17667617D01*
X687693Y17721492D01*
X579944Y17721492D01*
X499132Y17694555D01*
X364445Y17613742D01*
X283632Y17532930D01*
X202820Y17398243D01*
X175883Y17317431D01*
X175883Y17209681D01*
X229758Y17101932D01*
X283632Y17048057D01*
X391382Y16994182D01*
X445257Y16994182D01*
X633819Y17182744D01*
X526069Y17290494D01*
X633819Y16697871D02*
X1199504Y17263556D01*
X957067Y16374622D01*
X1522753Y16940307D01*
X1226441Y16105248D02*
X1792127Y16670933D01*
X1926814Y16536246D01*
X1980689Y16428497D01*
X1980689Y16320747D01*
X1953751Y16239935D01*
X1872939Y16105248D01*
X1792127Y16024436D01*
X1657440Y15943624D01*
X1576628Y15916686D01*
X1468878Y15916686D01*
X1361128Y15970561D01*
X1226441Y16105248D01*
X1280316Y14642744D02*
X1630502Y14292558D01*
X1226441Y14265620D01*
X1307254Y14184808D01*
X1334191Y14103996D01*
X1334191Y14050121D01*
X1307254Y13969309D01*
X1172567Y13834622D01*
X1091754Y13807685D01*
X1037880Y13807685D01*
X957067Y13834622D01*
X795443Y13996246D01*
X768506Y14077059D01*
X768506Y14130933D01*
X1792127Y14130933D02*
X1415003Y13376686D01*
X2169250Y13753810D01*
X364445Y19830494D02*
X633819Y19561120D01*
X148945Y19722744D02*
X903193Y20099868D01*
X526069Y19345620D01*
X1010942Y18860747D02*
X687693Y19183996D01*
X849318Y19022372D02*
X1415003Y19588057D01*
X1280316Y19561120D01*
X1172567Y19561120D01*
X1091754Y19588057D01*
X1926814Y19076246D02*
X1980689Y19022372D01*
X2007626Y18941559D01*
X2007626Y18887685D01*
X1980689Y18806872D01*
X1899876Y18672185D01*
X1765189Y18537498D01*
X1630502Y18456686D01*
X1549690Y18429749D01*
X1495815Y18429749D01*
X1415003Y18456686D01*
X1361128Y18510561D01*
X1334191Y18591373D01*
X1334191Y18645248D01*
X1361128Y18726060D01*
X1441941Y18860747D01*
X1576628Y18995434D01*
X1711315Y19076246D01*
X1792127Y19103184D01*
X1846002Y19103184D01*
X1926814Y19076246D01*
X903193Y21831746D02*
X1172567Y21562372D01*
X687693Y21723996D02*
X1441941Y22101120D01*
X1064817Y21346872D01*
X1765189Y21777871D02*
X2142313Y21400747D01*
X1334191Y21077498D01*
X1064817Y23994622D02*
X1010942Y23994622D01*
X903193Y24048497D01*
X849318Y24102372D01*
X795443Y24210121D01*
X795443Y24317871D01*
X822380Y24398683D01*
X903193Y24533370D01*
X984005Y24614182D01*
X1118692Y24694994D01*
X1199504Y24721932D01*
X1307254Y24721932D01*
X1415003Y24668057D01*
X1468878Y24614182D01*
X1522753Y24506433D01*
X1522753Y24452558D01*
X2088438Y23994622D02*
X1819064Y24263996D01*
X1522753Y24021559D01*
X1576628Y24021559D01*
X1657440Y23994622D01*
X1792127Y23859935D01*
X1819064Y23779123D01*
X1819064Y23725248D01*
X1792127Y23644436D01*
X1657440Y23509749D01*
X1576628Y23482811D01*
X1522753Y23482811D01*
X1441941Y23509749D01*
X1307254Y23644436D01*
X1280316Y23725248D01*
X1280316Y23779123D01*
X1280316Y27342744D02*
X1630502Y26992558D01*
X1226441Y26965620D01*
X1307254Y26884808D01*
X1334191Y26803996D01*
X1334191Y26750121D01*
X1307254Y26669309D01*
X1172567Y26534622D01*
X1091754Y26507685D01*
X1037880Y26507685D01*
X957067Y26534622D01*
X795443Y26696246D01*
X768506Y26777059D01*
X768506Y26830933D01*
X1792127Y26830933D02*
X1415003Y26076686D01*
X2169250Y26453810D01*
X1064817Y29074622D02*
X1010942Y29074622D01*
X903193Y29128497D01*
X849318Y29182372D01*
X795443Y29290121D01*
X795443Y29397871D01*
X822380Y29478683D01*
X903193Y29613370D01*
X984005Y29694182D01*
X1118692Y29774994D01*
X1199504Y29801932D01*
X1307254Y29801932D01*
X1415003Y29748057D01*
X1468878Y29694182D01*
X1522753Y29586433D01*
X1522753Y29532558D01*
X1738252Y29317059D02*
X1792127Y29317059D01*
X1872939Y29290121D01*
X2007626Y29155434D01*
X2034563Y29074622D01*
X2034563Y29020747D01*
X2007626Y28939935D01*
X1953751Y28886060D01*
X1846002Y28832185D01*
X1199504Y28832185D01*
X1549690Y28481999D01*
X1064817Y31614622D02*
X1010942Y31614622D01*
X903193Y31668497D01*
X849318Y31722372D01*
X795443Y31830121D01*
X795443Y31937871D01*
X822380Y32018683D01*
X903193Y32153370D01*
X984005Y32234182D01*
X1118692Y32314994D01*
X1199504Y32341932D01*
X1307254Y32341932D01*
X1415003Y32288057D01*
X1468878Y32234182D01*
X1522753Y32126433D01*
X1522753Y32072558D01*
X1549690Y31021999D02*
X1226441Y31345248D01*
X1388066Y31183624D02*
X1953751Y31749309D01*
X1819064Y31722372D01*
X1711315Y31722372D01*
X1630502Y31749309D01*
X1064817Y34154622D02*
X1010942Y34154622D01*
X903193Y34208497D01*
X849318Y34262372D01*
X795443Y34370121D01*
X795443Y34477871D01*
X822380Y34558683D01*
X903193Y34693370D01*
X984005Y34774182D01*
X1118692Y34854994D01*
X1199504Y34881932D01*
X1307254Y34881932D01*
X1415003Y34828057D01*
X1468878Y34774182D01*
X1522753Y34666433D01*
X1522753Y34612558D01*
X1926814Y34316246D02*
X1980689Y34262372D01*
X2007626Y34181559D01*
X2007626Y34127685D01*
X1980689Y34046872D01*
X1899876Y33912185D01*
X1765189Y33777498D01*
X1630502Y33696686D01*
X1549690Y33669749D01*
X1495815Y33669749D01*
X1415003Y33696686D01*
X1361128Y33750561D01*
X1334191Y33831373D01*
X1334191Y33885248D01*
X1361128Y33966060D01*
X1441941Y34100747D01*
X1576628Y34235434D01*
X1711315Y34316246D01*
X1792127Y34343184D01*
X1846002Y34343184D01*
X1926814Y34316246D01*
X1172567Y37071746D02*
X1226441Y36963996D01*
X1226441Y36910121D01*
X1199504Y36829309D01*
X1118692Y36748497D01*
X1037880Y36721559D01*
X984005Y36721559D01*
X903193Y36748497D01*
X687693Y36963996D01*
X1253379Y37529681D01*
X1441941Y37341120D01*
X1468878Y37260307D01*
X1468878Y37206433D01*
X1441941Y37125620D01*
X1388066Y37071746D01*
X1307254Y37044808D01*
X1253379Y37044808D01*
X1172567Y37071746D01*
X984005Y37260307D01*
X1765189Y37017871D02*
X2115376Y36667685D01*
X1711315Y36640747D01*
X1792127Y36559935D01*
X1819064Y36479123D01*
X1819064Y36425248D01*
X1792127Y36344436D01*
X1657440Y36209749D01*
X1576628Y36182811D01*
X1522753Y36182811D01*
X1441941Y36209749D01*
X1280316Y36371373D01*
X1253379Y36452185D01*
X1253379Y36506060D01*
X1172567Y39611746D02*
X1226441Y39503996D01*
X1226441Y39450121D01*
X1199504Y39369309D01*
X1118692Y39288497D01*
X1037880Y39261559D01*
X984005Y39261559D01*
X903193Y39288497D01*
X687693Y39503996D01*
X1253379Y40069681D01*
X1441941Y39881120D01*
X1468878Y39800307D01*
X1468878Y39746433D01*
X1441941Y39665620D01*
X1388066Y39611746D01*
X1307254Y39584808D01*
X1253379Y39584808D01*
X1172567Y39611746D01*
X984005Y39800307D01*
X1738252Y39477059D02*
X1792127Y39477059D01*
X1872939Y39450121D01*
X2007626Y39315434D01*
X2034563Y39234622D01*
X2034563Y39180747D01*
X2007626Y39099935D01*
X1953751Y39046060D01*
X1846002Y38992185D01*
X1199504Y38992185D01*
X1549690Y38641999D01*
X1172567Y42151746D02*
X1226441Y42043996D01*
X1226441Y41990121D01*
X1199504Y41909309D01*
X1118692Y41828497D01*
X1037880Y41801559D01*
X984005Y41801559D01*
X903193Y41828497D01*
X687693Y42043996D01*
X1253379Y42609681D01*
X1441941Y42421120D01*
X1468878Y42340307D01*
X1468878Y42286433D01*
X1441941Y42205620D01*
X1388066Y42151746D01*
X1307254Y42124808D01*
X1253379Y42124808D01*
X1172567Y42151746D01*
X984005Y42340307D01*
X1549690Y41181999D02*
X1226441Y41505248D01*
X1388066Y41343624D02*
X1953751Y41909309D01*
X1819064Y41882372D01*
X1711315Y41882372D01*
X1630502Y41909309D01*
X1172567Y44691746D02*
X1226441Y44583996D01*
X1226441Y44530121D01*
X1199504Y44449309D01*
X1118692Y44368497D01*
X1037880Y44341559D01*
X984005Y44341559D01*
X903193Y44368497D01*
X687693Y44583996D01*
X1253379Y45149681D01*
X1441941Y44961120D01*
X1468878Y44880307D01*
X1468878Y44826433D01*
X1441941Y44745620D01*
X1388066Y44691746D01*
X1307254Y44664808D01*
X1253379Y44664808D01*
X1172567Y44691746D01*
X984005Y44880307D01*
X1926814Y44476246D02*
X1980689Y44422372D01*
X2007626Y44341559D01*
X2007626Y44287685D01*
X1980689Y44206872D01*
X1899876Y44072185D01*
X1765189Y43937498D01*
X1630502Y43856686D01*
X1549690Y43829749D01*
X1495815Y43829749D01*
X1415003Y43856686D01*
X1361128Y43910561D01*
X1334191Y43991373D01*
X1334191Y44045248D01*
X1361128Y44126060D01*
X1441941Y44260747D01*
X1576628Y44395434D01*
X1711315Y44476246D01*
X1792127Y44503184D01*
X1846002Y44503184D01*
X1926814Y44476246D01*
X903193Y47231746D02*
X1172567Y46962372D01*
X687693Y47123996D02*
X1441941Y47501120D01*
X1064817Y46746872D01*
X1549690Y46261999D02*
X1226441Y46585248D01*
X1388066Y46423624D02*
X1953751Y46989309D01*
X1819064Y46962372D01*
X1711315Y46962372D01*
X1630502Y46989309D01*
X903193Y49771746D02*
X1172567Y49502372D01*
X687693Y49663996D02*
X1441941Y50041120D01*
X1064817Y49286872D01*
X1926814Y49556246D02*
X1980689Y49502372D01*
X2007626Y49421559D01*
X2007626Y49367685D01*
X1980689Y49286872D01*
X1899876Y49152185D01*
X1765189Y49017498D01*
X1630502Y48936686D01*
X1549690Y48909749D01*
X1495815Y48909749D01*
X1415003Y48936686D01*
X1361128Y48990561D01*
X1334191Y49071373D01*
X1334191Y49125248D01*
X1361128Y49206060D01*
X1441941Y49340747D01*
X1576628Y49475434D01*
X1711315Y49556246D01*
X1792127Y49583184D01*
X1846002Y49583184D01*
X1926814Y49556246D01*
X903193Y53065993D02*
X876255Y53146805D01*
X795443Y53227617D01*
X687693Y53281492D01*
X579944Y53281492D01*
X499132Y53254555D01*
X364445Y53173742D01*
X283632Y53092930D01*
X202820Y52958243D01*
X175883Y52877431D01*
X175883Y52769681D01*
X229758Y52661932D01*
X283632Y52608057D01*
X391382Y52554182D01*
X445257Y52554182D01*
X633819Y52742744D01*
X526069Y52850494D01*
X633819Y52257871D02*
X1199504Y52823556D01*
X957067Y51934622D01*
X1522753Y52500307D01*
X1226441Y51665248D02*
X1792127Y52230933D01*
X1926814Y52096246D01*
X1980689Y51988497D01*
X1980689Y51880747D01*
X1953751Y51799935D01*
X1872939Y51665248D01*
X1792127Y51584436D01*
X1657440Y51503624D01*
X1576628Y51476686D01*
X1468878Y51476686D01*
X1361128Y51530561D01*
X1226441Y51665248D01*
X903193Y55605993D02*
X876255Y55686805D01*
X795443Y55767617D01*
X687693Y55821492D01*
X579944Y55821492D01*
X499132Y55794555D01*
X364445Y55713742D01*
X283632Y55632930D01*
X202820Y55498243D01*
X175883Y55417431D01*
X175883Y55309681D01*
X229758Y55201932D01*
X283632Y55148057D01*
X391382Y55094182D01*
X445257Y55094182D01*
X633819Y55282744D01*
X526069Y55390494D01*
X633819Y54797871D02*
X1199504Y55363556D01*
X957067Y54474622D01*
X1522753Y55040307D01*
X1226441Y54205248D02*
X1792127Y54770933D01*
X1926814Y54636246D01*
X1980689Y54528497D01*
X1980689Y54420747D01*
X1953751Y54339935D01*
X1872939Y54205248D01*
X1792127Y54124436D01*
X1657440Y54043624D01*
X1576628Y54016686D01*
X1468878Y54016686D01*
X1361128Y54070561D01*
X1226441Y54205248D01*
X1280316Y57822744D02*
X1630502Y57472558D01*
X1226441Y57445620D01*
X1307254Y57364808D01*
X1334191Y57283996D01*
X1334191Y57230121D01*
X1307254Y57149309D01*
X1172567Y57014622D01*
X1091754Y56987685D01*
X1037880Y56987685D01*
X957067Y57014622D01*
X795443Y57176246D01*
X768506Y57257059D01*
X768506Y57310933D01*
X1792127Y57310933D02*
X1415003Y56556686D01*
X2169250Y56933810D01*
X645316Y59346744D02*
X995502Y58996558D01*
X591441Y58969620D01*
X672254Y58888808D01*
X699191Y58807996D01*
X699191Y58754121D01*
X672254Y58673309D01*
X537567Y58538622D01*
X456754Y58511685D01*
X402880Y58511685D01*
X322067Y58538622D01*
X160443Y58700246D01*
X133506Y58781059D01*
X133506Y58834933D01*
X1157127Y58834933D02*
X780003Y58080686D01*
X1534250Y58457810D01*
X19130120Y11106060D02*
X19130120Y11052185D01*
X19076245Y10944436D01*
X19022371Y10890561D01*
X18914621Y10836686D01*
X18806871Y10836686D01*
X18726059Y10863624D01*
X18591372Y10944436D01*
X18510560Y11025248D01*
X18429748Y11159935D01*
X18402810Y11240747D01*
X18402810Y11348497D01*
X18456685Y11456246D01*
X18510560Y11510121D01*
X18618310Y11563996D01*
X18672184Y11563996D01*
X19453369Y11321559D02*
X19561119Y11429309D01*
X19588056Y11510121D01*
X19588056Y11563996D01*
X19561119Y11698683D01*
X19480306Y11833370D01*
X19264807Y12048869D01*
X19183995Y12075807D01*
X19130120Y12075807D01*
X19049308Y12048869D01*
X18941558Y11941120D01*
X18914621Y11860307D01*
X18914621Y11806433D01*
X18941558Y11725620D01*
X19076245Y11590933D01*
X19157058Y11563996D01*
X19210932Y11563996D01*
X19291745Y11590933D01*
X19399494Y11698683D01*
X19426432Y11779495D01*
X19426432Y11833370D01*
X19399494Y11914182D01*
X19130120Y13646060D02*
X19130120Y13592185D01*
X19076245Y13484436D01*
X19022371Y13430561D01*
X18914621Y13376686D01*
X18806871Y13376686D01*
X18726059Y13403624D01*
X18591372Y13484436D01*
X18510560Y13565248D01*
X18429748Y13699935D01*
X18402810Y13780747D01*
X18402810Y13888497D01*
X18456685Y13996246D01*
X18510560Y14050121D01*
X18618310Y14103996D01*
X18672184Y14103996D01*
X19183995Y14238683D02*
X19103183Y14211746D01*
X19049308Y14211746D01*
X18968496Y14238683D01*
X18941558Y14265620D01*
X18914621Y14346433D01*
X18914621Y14400307D01*
X18941558Y14481120D01*
X19049308Y14588869D01*
X19130120Y14615807D01*
X19183995Y14615807D01*
X19264807Y14588869D01*
X19291745Y14561932D01*
X19318682Y14481120D01*
X19318682Y14427245D01*
X19291745Y14346433D01*
X19183995Y14238683D01*
X19157058Y14157871D01*
X19157058Y14103996D01*
X19183995Y14023184D01*
X19291745Y13915434D01*
X19372557Y13888497D01*
X19426432Y13888497D01*
X19507244Y13915434D01*
X19614993Y14023184D01*
X19641931Y14103996D01*
X19641931Y14157871D01*
X19614993Y14238683D01*
X19507244Y14346433D01*
X19426432Y14373370D01*
X19372557Y14373370D01*
X19291745Y14346433D01*
X18618310Y16643996D02*
X18537497Y16617059D01*
X18456685Y16536246D01*
X18402810Y16428497D01*
X18402810Y16320747D01*
X18429748Y16239935D01*
X18510560Y16105248D01*
X18591372Y16024436D01*
X18726059Y15943624D01*
X18806871Y15916686D01*
X18914621Y15916686D01*
X19022371Y15970561D01*
X19076245Y16024436D01*
X19130120Y16132185D01*
X19130120Y16186060D01*
X18941558Y16374622D01*
X18833809Y16266872D01*
X19426432Y16374622D02*
X18860746Y16940307D01*
X19749680Y16697871D01*
X19183995Y17263556D01*
X20019054Y16967245D02*
X19453369Y17532930D01*
X19588056Y17667617D01*
X19695806Y17721492D01*
X19803555Y17721492D01*
X19884367Y17694555D01*
X20019054Y17613742D01*
X20099867Y17532930D01*
X20180679Y17398243D01*
X20207616Y17317431D01*
X20207616Y17209681D01*
X20153741Y17101932D01*
X20019054Y16967245D01*
X18672184Y18483624D02*
X18941558Y18752998D01*
X18779934Y18268124D02*
X18402810Y19022372D01*
X19157058Y18645248D01*
X19103183Y19237871D02*
X19022371Y19210933D01*
X18968496Y19210933D01*
X18887684Y19237871D01*
X18860746Y19264808D01*
X18833809Y19345620D01*
X18833809Y19399495D01*
X18860746Y19480307D01*
X18968496Y19588057D01*
X19049308Y19614994D01*
X19103183Y19614994D01*
X19183995Y19588057D01*
X19210932Y19561120D01*
X19237870Y19480307D01*
X19237870Y19426433D01*
X19210932Y19345620D01*
X19103183Y19237871D01*
X19076245Y19157059D01*
X19076245Y19103184D01*
X19103183Y19022372D01*
X19210932Y18914622D01*
X19291745Y18887685D01*
X19345619Y18887685D01*
X19426432Y18914622D01*
X19534181Y19022372D01*
X19561119Y19103184D01*
X19561119Y19157059D01*
X19534181Y19237871D01*
X19426432Y19345620D01*
X19345619Y19372558D01*
X19291745Y19372558D01*
X19210932Y19345620D01*
X18672184Y21023624D02*
X18941558Y21292998D01*
X18779934Y20808124D02*
X18402810Y21562372D01*
X19157058Y21185248D01*
X19372557Y21400747D02*
X19480306Y21508497D01*
X19507244Y21589309D01*
X19507244Y21643184D01*
X19480306Y21777871D01*
X19399494Y21912558D01*
X19183995Y22128057D01*
X19103183Y22154994D01*
X19049308Y22154994D01*
X18968496Y22128057D01*
X18860746Y22020307D01*
X18833809Y21939495D01*
X18833809Y21885620D01*
X18860746Y21804808D01*
X18995433Y21670121D01*
X19076245Y21643184D01*
X19130120Y21643184D01*
X19210932Y21670121D01*
X19318682Y21777871D01*
X19345619Y21858683D01*
X19345619Y21912558D01*
X19318682Y21993370D01*
X19130120Y23806060D02*
X19130120Y23752185D01*
X19076245Y23644436D01*
X19022371Y23590561D01*
X18914621Y23536686D01*
X18806871Y23536686D01*
X18726059Y23563624D01*
X18591372Y23644436D01*
X18510560Y23725248D01*
X18429748Y23859935D01*
X18402810Y23940747D01*
X18402810Y24048497D01*
X18456685Y24156246D01*
X18510560Y24210121D01*
X18618310Y24263996D01*
X18672184Y24263996D01*
X19291745Y24614182D02*
X19668868Y24237059D01*
X18941558Y24694994D02*
X19210932Y24156246D01*
X19561119Y24506433D01*
X19130120Y26346060D02*
X19130120Y26292185D01*
X19076245Y26184436D01*
X19022371Y26130561D01*
X18914621Y26076686D01*
X18806871Y26076686D01*
X18726059Y26103624D01*
X18591372Y26184436D01*
X18510560Y26265248D01*
X18429748Y26399935D01*
X18402810Y26480747D01*
X18402810Y26588497D01*
X18456685Y26696246D01*
X18510560Y26750121D01*
X18618310Y26803996D01*
X18672184Y26803996D01*
X18806871Y27046433D02*
X19157058Y27396619D01*
X19183995Y26992558D01*
X19264807Y27073370D01*
X19345619Y27100307D01*
X19399494Y27100307D01*
X19480306Y27073370D01*
X19614993Y26938683D01*
X19641931Y26857871D01*
X19641931Y26803996D01*
X19614993Y26723184D01*
X19453369Y26561559D01*
X19372557Y26534622D01*
X19318682Y26534622D01*
X18752997Y28993810D02*
X18860746Y29047685D01*
X18914621Y29047685D01*
X18995433Y29020747D01*
X19076245Y28939935D01*
X19103183Y28859123D01*
X19103183Y28805248D01*
X19076245Y28724436D01*
X18860746Y28508937D01*
X18295061Y29074622D01*
X18483623Y29263184D01*
X18564435Y29290121D01*
X18618310Y29290121D01*
X18699122Y29263184D01*
X18752997Y29209309D01*
X18779934Y29128497D01*
X18779934Y29074622D01*
X18752997Y28993810D01*
X18564435Y28805248D01*
X19722743Y29370933D02*
X19399494Y29047685D01*
X19561119Y29209309D02*
X18995433Y29774994D01*
X19022371Y29640307D01*
X19022371Y29532558D01*
X18995433Y29451746D01*
X19668868Y30448429D02*
X19399494Y30179055D01*
X19641931Y29882744D01*
X19641931Y29936619D01*
X19668868Y30017431D01*
X19803555Y30152118D01*
X19884367Y30179055D01*
X19938242Y30179055D01*
X20019054Y30152118D01*
X20153741Y30017431D01*
X20180679Y29936619D01*
X20180679Y29882744D01*
X20153741Y29801932D01*
X20019054Y29667245D01*
X19938242Y29640307D01*
X19884367Y29640307D01*
X18752997Y31533810D02*
X18860746Y31587685D01*
X18914621Y31587685D01*
X18995433Y31560747D01*
X19076245Y31479935D01*
X19103183Y31399123D01*
X19103183Y31345248D01*
X19076245Y31264436D01*
X18860746Y31048937D01*
X18295061Y31614622D01*
X18483623Y31803184D01*
X18564435Y31830121D01*
X18618310Y31830121D01*
X18699122Y31803184D01*
X18752997Y31749309D01*
X18779934Y31668497D01*
X18779934Y31614622D01*
X18752997Y31533810D01*
X18564435Y31345248D01*
X19183995Y32018683D02*
X19103183Y31991746D01*
X19049308Y31991746D01*
X18968496Y32018683D01*
X18941558Y32045620D01*
X18914621Y32126433D01*
X18914621Y32180307D01*
X18941558Y32261120D01*
X19049308Y32368869D01*
X19130120Y32395807D01*
X19183995Y32395807D01*
X19264807Y32368869D01*
X19291745Y32341932D01*
X19318682Y32261120D01*
X19318682Y32207245D01*
X19291745Y32126433D01*
X19183995Y32018683D01*
X19157058Y31937871D01*
X19157058Y31883996D01*
X19183995Y31803184D01*
X19291745Y31695434D01*
X19372557Y31668497D01*
X19426432Y31668497D01*
X19507244Y31695434D01*
X19614993Y31803184D01*
X19641931Y31883996D01*
X19641931Y31937871D01*
X19614993Y32018683D01*
X19507244Y32126433D01*
X19426432Y32153370D01*
X19372557Y32153370D01*
X19291745Y32126433D01*
X18752997Y34073810D02*
X18860746Y34127685D01*
X18914621Y34127685D01*
X18995433Y34100747D01*
X19076245Y34019935D01*
X19103183Y33939123D01*
X19103183Y33885248D01*
X19076245Y33804436D01*
X18860746Y33588937D01*
X18295061Y34154622D01*
X18483623Y34343184D01*
X18564435Y34370121D01*
X18618310Y34370121D01*
X18699122Y34343184D01*
X18752997Y34289309D01*
X18779934Y34208497D01*
X18779934Y34154622D01*
X18752997Y34073810D01*
X18564435Y33885248D01*
X19453369Y34181559D02*
X19561119Y34289309D01*
X19588056Y34370121D01*
X19588056Y34423996D01*
X19561119Y34558683D01*
X19480306Y34693370D01*
X19264807Y34908869D01*
X19183995Y34935807D01*
X19130120Y34935807D01*
X19049308Y34908869D01*
X18941558Y34801120D01*
X18914621Y34720307D01*
X18914621Y34666433D01*
X18941558Y34585620D01*
X19076245Y34450933D01*
X19157058Y34423996D01*
X19210932Y34423996D01*
X19291745Y34450933D01*
X19399494Y34558683D01*
X19426432Y34639495D01*
X19426432Y34693370D01*
X19399494Y34774182D01*
X19130120Y36506060D02*
X19130120Y36452185D01*
X19076245Y36344436D01*
X19022371Y36290561D01*
X18914621Y36236686D01*
X18806871Y36236686D01*
X18726059Y36263624D01*
X18591372Y36344436D01*
X18510560Y36425248D01*
X18429748Y36559935D01*
X18402810Y36640747D01*
X18402810Y36748497D01*
X18456685Y36856246D01*
X18510560Y36910121D01*
X18618310Y36963996D01*
X18672184Y36963996D01*
X19103183Y37502744D02*
X18995433Y37394994D01*
X18968496Y37314182D01*
X18968496Y37260307D01*
X18995433Y37125620D01*
X19076245Y36990933D01*
X19291745Y36775434D01*
X19372557Y36748497D01*
X19426432Y36748497D01*
X19507244Y36775434D01*
X19614993Y36883184D01*
X19641931Y36963996D01*
X19641931Y37017871D01*
X19614993Y37098683D01*
X19480306Y37233370D01*
X19399494Y37260307D01*
X19345619Y37260307D01*
X19264807Y37233370D01*
X19157058Y37125620D01*
X19130120Y37044808D01*
X19130120Y36990933D01*
X19157058Y36910121D01*
X19130120Y39046060D02*
X19130120Y38992185D01*
X19076245Y38884436D01*
X19022371Y38830561D01*
X18914621Y38776686D01*
X18806871Y38776686D01*
X18726059Y38803624D01*
X18591372Y38884436D01*
X18510560Y38965248D01*
X18429748Y39099935D01*
X18402810Y39180747D01*
X18402810Y39288497D01*
X18456685Y39396246D01*
X18510560Y39450121D01*
X18618310Y39503996D01*
X18672184Y39503996D01*
X18806871Y39746433D02*
X19183995Y40123556D01*
X19507244Y39315434D01*
X18752997Y41693810D02*
X18860746Y41747685D01*
X18914621Y41747685D01*
X18995433Y41720747D01*
X19076245Y41639935D01*
X19103183Y41559123D01*
X19103183Y41505248D01*
X19076245Y41424436D01*
X18860746Y41208937D01*
X18295061Y41774622D01*
X18483623Y41963184D01*
X18564435Y41990121D01*
X18618310Y41990121D01*
X18699122Y41963184D01*
X18752997Y41909309D01*
X18779934Y41828497D01*
X18779934Y41774622D01*
X18752997Y41693810D01*
X18564435Y41505248D01*
X19722743Y42070933D02*
X19399494Y41747685D01*
X19561119Y41909309D02*
X18995433Y42474994D01*
X19022371Y42340307D01*
X19022371Y42232558D01*
X18995433Y42151746D01*
X19830493Y42932930D02*
X20207616Y42555807D01*
X19480306Y43013742D02*
X19749680Y42474994D01*
X20099867Y42825181D01*
X18752997Y44233810D02*
X18860746Y44287685D01*
X18914621Y44287685D01*
X18995433Y44260747D01*
X19076245Y44179935D01*
X19103183Y44099123D01*
X19103183Y44045248D01*
X19076245Y43964436D01*
X18860746Y43748937D01*
X18295061Y44314622D01*
X18483623Y44503184D01*
X18564435Y44530121D01*
X18618310Y44530121D01*
X18699122Y44503184D01*
X18752997Y44449309D01*
X18779934Y44368497D01*
X18779934Y44314622D01*
X18752997Y44233810D01*
X18564435Y44045248D01*
X19722743Y44610933D02*
X19399494Y44287685D01*
X19561119Y44449309D02*
X18995433Y45014994D01*
X19022371Y44880307D01*
X19022371Y44772558D01*
X18995433Y44691746D01*
X19345619Y45365181D02*
X19695806Y45715367D01*
X19722743Y45311306D01*
X19803555Y45392118D01*
X19884367Y45419055D01*
X19938242Y45419055D01*
X20019054Y45392118D01*
X20153741Y45257431D01*
X20180679Y45176619D01*
X20180679Y45122744D01*
X20153741Y45041932D01*
X19992117Y44880307D01*
X19911305Y44853370D01*
X19857430Y44853370D01*
X18752997Y46773810D02*
X18860746Y46827685D01*
X18914621Y46827685D01*
X18995433Y46800747D01*
X19076245Y46719935D01*
X19103183Y46639123D01*
X19103183Y46585248D01*
X19076245Y46504436D01*
X18860746Y46288937D01*
X18295061Y46854622D01*
X18483623Y47043184D01*
X18564435Y47070121D01*
X18618310Y47070121D01*
X18699122Y47043184D01*
X18752997Y46989309D01*
X18779934Y46908497D01*
X18779934Y46854622D01*
X18752997Y46773810D01*
X18564435Y46585248D01*
X19130120Y47689681D02*
X18860746Y47420307D01*
X19103183Y47123996D01*
X19103183Y47177871D01*
X19130120Y47258683D01*
X19264807Y47393370D01*
X19345619Y47420307D01*
X19399494Y47420307D01*
X19480306Y47393370D01*
X19614993Y47258683D01*
X19641931Y47177871D01*
X19641931Y47123996D01*
X19614993Y47043184D01*
X19480306Y46908497D01*
X19399494Y46881559D01*
X19345619Y46881559D01*
X18752997Y49313810D02*
X18860746Y49367685D01*
X18914621Y49367685D01*
X18995433Y49340747D01*
X19076245Y49259935D01*
X19103183Y49179123D01*
X19103183Y49125248D01*
X19076245Y49044436D01*
X18860746Y48828937D01*
X18295061Y49394622D01*
X18483623Y49583184D01*
X18564435Y49610121D01*
X18618310Y49610121D01*
X18699122Y49583184D01*
X18752997Y49529309D01*
X18779934Y49448497D01*
X18779934Y49394622D01*
X18752997Y49313810D01*
X18564435Y49125248D01*
X18806871Y49906433D02*
X19183995Y50283556D01*
X19507244Y49475434D01*
X18752997Y51853810D02*
X18860746Y51907685D01*
X18914621Y51907685D01*
X18995433Y51880747D01*
X19076245Y51799935D01*
X19103183Y51719123D01*
X19103183Y51665248D01*
X19076245Y51584436D01*
X18860746Y51368937D01*
X18295061Y51934622D01*
X18483623Y52123184D01*
X18564435Y52150121D01*
X18618310Y52150121D01*
X18699122Y52123184D01*
X18752997Y52069309D01*
X18779934Y51988497D01*
X18779934Y51934622D01*
X18752997Y51853810D01*
X18564435Y51665248D01*
X19722743Y52230933D02*
X19399494Y51907685D01*
X19561119Y52069309D02*
X18995433Y52634994D01*
X19022371Y52500307D01*
X19022371Y52392558D01*
X18995433Y52311746D01*
X19507244Y53146805D02*
X19561119Y53200680D01*
X19641931Y53227617D01*
X19695806Y53227617D01*
X19776618Y53200680D01*
X19911305Y53119868D01*
X20045992Y52985181D01*
X20126804Y52850494D01*
X20153741Y52769681D01*
X20153741Y52715807D01*
X20126804Y52634994D01*
X20072929Y52581120D01*
X19992117Y52554182D01*
X19938242Y52554182D01*
X19857430Y52581120D01*
X19722743Y52661932D01*
X19588056Y52796619D01*
X19507244Y52931306D01*
X19480306Y53012118D01*
X19480306Y53065993D01*
X19507244Y53146805D01*
X18752997Y54393810D02*
X18860746Y54447685D01*
X18914621Y54447685D01*
X18995433Y54420747D01*
X19076245Y54339935D01*
X19103183Y54259123D01*
X19103183Y54205248D01*
X19076245Y54124436D01*
X18860746Y53908937D01*
X18295061Y54474622D01*
X18483623Y54663184D01*
X18564435Y54690121D01*
X18618310Y54690121D01*
X18699122Y54663184D01*
X18752997Y54609309D01*
X18779934Y54528497D01*
X18779934Y54474622D01*
X18752997Y54393810D01*
X18564435Y54205248D01*
X19722743Y54770933D02*
X19399494Y54447685D01*
X19561119Y54609309D02*
X18995433Y55174994D01*
X19022371Y55040307D01*
X19022371Y54932558D01*
X18995433Y54851746D01*
X20261491Y55309681D02*
X19938242Y54986433D01*
X20099867Y55148057D02*
X19534181Y55713742D01*
X19561119Y55579055D01*
X19561119Y55471306D01*
X19534181Y55390494D01*
X18618310Y57283996D02*
X18537497Y57257059D01*
X18456685Y57176246D01*
X18402810Y57068497D01*
X18402810Y56960747D01*
X18429748Y56879935D01*
X18510560Y56745248D01*
X18591372Y56664436D01*
X18726059Y56583624D01*
X18806871Y56556686D01*
X18914621Y56556686D01*
X19022371Y56610561D01*
X19076245Y56664436D01*
X19130120Y56772185D01*
X19130120Y56826060D01*
X18941558Y57014622D01*
X18833809Y56906872D01*
X19426432Y57014622D02*
X18860746Y57580307D01*
X19749680Y57337871D01*
X19183995Y57903556D01*
X20019054Y57607245D02*
X19453369Y58172930D01*
X19588056Y58307617D01*
X19695806Y58361492D01*
X19803555Y58361492D01*
X19884367Y58334555D01*
X20019054Y58253742D01*
X20099867Y58172930D01*
X20180679Y58038243D01*
X20207616Y57957431D01*
X20207616Y57849681D01*
X20153741Y57741932D01*
X20019054Y57607245D01*
X19135935Y59061996D02*
X18866561Y58792622D01*
X19108997Y58496311D01*
X19108997Y58550185D01*
X19135935Y58630998D01*
X19270622Y58765685D01*
X19351434Y58792622D01*
X19405309Y58792622D01*
X19486121Y58765685D01*
X19620808Y58630998D01*
X19647745Y58550185D01*
X19647745Y58496311D01*
X19620808Y58415498D01*
X19486121Y58280811D01*
X19405309Y58253874D01*
X19351434Y58253874D01*
X19324497Y59250558D02*
X20078744Y58873434D01*
X19701620Y59627681D01*
D12*
X17081500Y381000D02*
X3238500Y381000D01*
D10*
X6431252Y49700000D02*
X5908748Y49700000D01*
X6431252Y51120000D02*
X5908748Y51120000D01*
X8180767Y20386000D02*
X7838233Y20386000D01*
X8180767Y21406000D02*
X7838233Y21406000D01*
X13035000Y21631000D02*
X10575000Y21631000D01*
X13035000Y20161000D02*
X13035000Y21631000D01*
X10575000Y20161000D02*
X13035000Y20161000D01*
X12270000Y17120000D02*
X14870000Y17120000D01*
X17020000Y10820000D02*
X16770000Y10820000D01*
X17020000Y17120000D02*
X17020000Y10820000D01*
X16770000Y17120000D02*
X17020000Y17120000D01*
X14870000Y10820000D02*
X12270000Y10820000D01*
X10120000Y17120000D02*
X10370000Y17120000D01*
X10120000Y10820000D02*
X10120000Y17120000D01*
X10370000Y10820000D02*
X10120000Y10820000D01*
X3550000Y10820000D02*
X3300000Y10820000D01*
X3300000Y10820000D02*
X3300000Y17120000D01*
X3300000Y17120000D02*
X3550000Y17120000D01*
X8050000Y10820000D02*
X5450000Y10820000D01*
X9950000Y17120000D02*
X10200000Y17120000D01*
X10200000Y17120000D02*
X10200000Y10820000D01*
X10200000Y10820000D02*
X9950000Y10820000D01*
X5450000Y17120000D02*
X8050000Y17120000D01*
X12016267Y47650000D02*
X11673733Y47650000D01*
X12016267Y48670000D02*
X11673733Y48670000D01*
X14566267Y50020000D02*
X14223733Y50020000D01*
X14566267Y49000000D02*
X14223733Y49000000D01*
X4085000Y21697767D02*
X4085000Y21355233D01*
X5105000Y21697767D02*
X5105000Y21355233D01*
X5305233Y24640000D02*
X5647769Y24640000D01*
X5305233Y23620000D02*
X5647769Y23620000D01*
X5305233Y25301500D02*
X5647767Y25301500D01*
X5305233Y26321500D02*
X5647767Y26321500D01*
X9870000Y48850000D02*
X12320000Y48850000D01*
X11670000Y52070000D02*
X9870000Y52070000D01*
X15245000Y23805000D02*
X13895000Y23805000D01*
X15245000Y25555000D02*
X13895000Y25555000D01*
X10170000Y27130000D02*
X9770000Y27130000D01*
X10170000Y26930000D02*
X9770000Y26930000D01*
X10170000Y23330000D02*
X9770000Y23330000D01*
X12170000Y27130000D02*
X10170000Y27130000D01*
X9770000Y25930000D02*
X9370000Y25930000D01*
X9770000Y25930000D02*
X9770000Y26930000D01*
X10170000Y26930000D02*
X12170000Y26930000D01*
X12170000Y26930000D02*
X12170000Y25930000D01*
X12170000Y24130000D02*
X12170000Y23330000D01*
X12170000Y23330000D02*
X10170000Y23330000D01*
X9770000Y23330000D02*
X9770000Y24130000D01*
X15041267Y26120000D02*
X14698733Y26120000D01*
X15041267Y27140000D02*
X14698733Y27140000D01*
X14630000Y22051267D02*
X14630000Y21708733D01*
X13610000Y22051267D02*
X13610000Y21708733D01*
X9480000Y46331267D02*
X9480000Y45988733D01*
X8460000Y46331267D02*
X8460000Y45988733D01*
X15110000Y22051267D02*
X15110000Y21708733D01*
X16130000Y22051267D02*
X16130000Y21708733D01*
X6016267Y41550000D02*
X5673733Y41550000D01*
X6016267Y42570000D02*
X5673733Y42570000D01*
X9430000Y25451267D02*
X9430000Y25108733D01*
X8410000Y25451267D02*
X8410000Y25108733D01*
X5833748Y44000000D02*
X6356252Y44000000D01*
X5833748Y45420000D02*
X6356252Y45420000D01*
X10383748Y41750000D02*
X10906252Y41750000D01*
X10383748Y43170000D02*
X10906252Y43170000D01*
X-520000Y-1115000D02*
X-520000Y1425000D01*
X-520000Y-1115000D02*
X2020000Y-1115000D01*
X-270000Y-865000D02*
X-270000Y8485000D01*
X20590000Y-865000D02*
X-270000Y-865000D01*
X20590000Y8485000D02*
X20590000Y-865000D01*
X-270000Y8485000D02*
X20590000Y8485000D01*
X3470000Y52860000D02*
X5170000Y52860000D01*
X5170000Y52860000D02*
X5170000Y56010000D01*
X3470000Y52860000D02*
X3470000Y56010000D01*
X10575000Y21685000D02*
X13035000Y21685000D01*
X13035000Y21685000D02*
X13035000Y23155000D01*
X13035000Y23155000D02*
X10575000Y23155000D01*
D11*
X14760000Y39465000D02*
X14760000Y40740000D01*
X15335000Y29115000D02*
X15335000Y29790000D01*
X4985000Y29115000D02*
X4985000Y29790000D01*
X4985000Y39465000D02*
X4985000Y38790000D01*
X15335000Y39465000D02*
X15335000Y38790000D01*
X4985000Y39465000D02*
X5660000Y39465000D01*
X4985000Y29115000D02*
X5660000Y29115000D01*
X15335000Y29115000D02*
X14660000Y29115000D01*
X15335000Y39465000D02*
X14760000Y39465000D01*
D10*
X7020000Y49170000D02*
X5220000Y49170000D01*
X5220000Y45950000D02*
X7670000Y45950001D01*
X15428500Y58019767D02*
X15428500Y57677233D01*
X16448500Y58019767D02*
X16448500Y57677233D01*
X8180767Y22930000D02*
X7838233Y22930000D01*
X8180767Y21910000D02*
X7838233Y21910000D01*
X16448500Y53867233D02*
X16448500Y54209767D01*
X15428500Y53867233D02*
X15428500Y54209767D01*
X6026166Y51530286D02*
X5988071Y51492191D01*
X5873785Y51454096D01*
X5797595Y51454096D01*
X5683309Y51492191D01*
X5607119Y51568381D01*
X5569023Y51644572D01*
X5530928Y51796953D01*
X5530928Y51911239D01*
X5569023Y52063620D01*
X5607119Y52139810D01*
X5683309Y52216000D01*
X5797595Y52254096D01*
X5873785Y52254096D01*
X5988071Y52216000D01*
X6026166Y52177905D01*
X6292833Y52254096D02*
X6788071Y52254096D01*
X6521404Y51949334D01*
X6635690Y51949334D01*
X6711880Y51911239D01*
X6749976Y51873143D01*
X6788071Y51796953D01*
X6788071Y51606477D01*
X6749976Y51530286D01*
X6711880Y51492191D01*
X6635690Y51454096D01*
X6407119Y51454096D01*
X6330928Y51492191D01*
X6292833Y51530286D01*
X5780666Y15009596D02*
X5514000Y15390548D01*
X5323523Y15009596D02*
X5323523Y15809596D01*
X5628285Y15809596D01*
X5704476Y15771500D01*
X5742571Y15733405D01*
X5780666Y15657215D01*
X5780666Y15542929D01*
X5742571Y15466739D01*
X5704476Y15428643D01*
X5628285Y15390548D01*
X5323523Y15390548D01*
X6047333Y15809596D02*
X6542571Y15809596D01*
X6275904Y15504834D01*
X6390190Y15504834D01*
X6466380Y15466739D01*
X6504476Y15428643D01*
X6542571Y15352453D01*
X6542571Y15161977D01*
X6504476Y15085786D01*
X6466380Y15047691D01*
X6390190Y15009596D01*
X6161619Y15009596D01*
X6085428Y15047691D01*
X6047333Y15085786D01*
X7482523Y15009596D02*
X7482523Y15809596D01*
X7673000Y15809596D01*
X7787285Y15771500D01*
X7863476Y15695310D01*
X7901571Y15619120D01*
X7939666Y15466739D01*
X7939666Y15352453D01*
X7901571Y15200072D01*
X7863476Y15123881D01*
X7787285Y15047691D01*
X7673000Y15009596D01*
X7482523Y15009596D01*
X8244428Y15733405D02*
X8282523Y15771500D01*
X8358714Y15809596D01*
X8549190Y15809596D01*
X8625380Y15771500D01*
X8663476Y15733405D01*
X8701571Y15657215D01*
X8701571Y15581024D01*
X8663476Y15466739D01*
X8206333Y15009596D01*
X8701571Y15009596D01*
X11245809Y12903334D02*
X11283904Y13017620D01*
X11283904Y13208096D01*
X11245809Y13284286D01*
X11207714Y13322381D01*
X11131523Y13360477D01*
X11055333Y13360477D01*
X10979142Y13322381D01*
X10941047Y13284286D01*
X10902952Y13208096D01*
X10864857Y13055715D01*
X10826761Y12979524D01*
X10788666Y12941429D01*
X10712476Y12903334D01*
X10636285Y12903334D01*
X10560095Y12941429D01*
X10522000Y12979524D01*
X10483904Y13055715D01*
X10483904Y13246191D01*
X10522000Y13360477D01*
X10483904Y13627143D02*
X11283904Y13817620D01*
X10712476Y13970000D01*
X11283904Y14122381D01*
X10483904Y14312858D01*
X11283904Y15036667D02*
X11283904Y14579524D01*
X11283904Y14808096D02*
X10483904Y14808096D01*
X10598190Y14731905D01*
X10674380Y14655715D01*
X10712476Y14579524D01*
X9848809Y12903334D02*
X9886904Y13017620D01*
X9886904Y13208096D01*
X9848809Y13284286D01*
X9810714Y13322381D01*
X9734523Y13360477D01*
X9658333Y13360477D01*
X9582142Y13322381D01*
X9544047Y13284286D01*
X9505952Y13208096D01*
X9467857Y13055715D01*
X9429761Y12979524D01*
X9391666Y12941429D01*
X9315476Y12903334D01*
X9239285Y12903334D01*
X9163095Y12941429D01*
X9125000Y12979524D01*
X9086904Y13055715D01*
X9086904Y13246191D01*
X9125000Y13360477D01*
X9086904Y13627143D02*
X9886904Y13817620D01*
X9315476Y13970000D01*
X9886904Y14122381D01*
X9086904Y14312858D01*
X9163095Y14579524D02*
X9125000Y14617620D01*
X9086904Y14693810D01*
X9086904Y14884286D01*
X9125000Y14960477D01*
X9163095Y14998572D01*
X9239285Y15036667D01*
X9315476Y15036667D01*
X9429761Y14998572D01*
X9886904Y14541429D01*
X9886904Y15036667D01*
X14090714Y47771096D02*
X13824047Y48152048D01*
X13633571Y47771096D02*
X13633571Y48571096D01*
X13938333Y48571096D01*
X14014523Y48533000D01*
X14052619Y48494905D01*
X14090714Y48418715D01*
X14090714Y48304429D01*
X14052619Y48228239D01*
X14014523Y48190143D01*
X13938333Y48152048D01*
X13633571Y48152048D01*
X14852619Y47771096D02*
X14395476Y47771096D01*
X14624047Y47771096D02*
X14624047Y48571096D01*
X14547857Y48456810D01*
X14471666Y48380620D01*
X14395476Y48342524D01*
X15347857Y48571096D02*
X15424047Y48571096D01*
X15500238Y48533000D01*
X15538333Y48494905D01*
X15576428Y48418715D01*
X15614523Y48266334D01*
X15614523Y48075858D01*
X15576428Y47923477D01*
X15538333Y47847286D01*
X15500238Y47809191D01*
X15424047Y47771096D01*
X15347857Y47771096D01*
X15271666Y47809191D01*
X15233571Y47847286D01*
X15195476Y47923477D01*
X15157380Y48075858D01*
X15157380Y48266334D01*
X15195476Y48418715D01*
X15233571Y48494905D01*
X15271666Y48533000D01*
X15347857Y48571096D01*
X14281166Y50374596D02*
X14014500Y50755548D01*
X13824023Y50374596D02*
X13824023Y51174596D01*
X14128785Y51174596D01*
X14204976Y51136500D01*
X14243071Y51098405D01*
X14281166Y51022215D01*
X14281166Y50907929D01*
X14243071Y50831739D01*
X14204976Y50793643D01*
X14128785Y50755548D01*
X13824023Y50755548D01*
X14662119Y50374596D02*
X14814500Y50374596D01*
X14890690Y50412691D01*
X14928785Y50450786D01*
X15004976Y50565072D01*
X15043071Y50717453D01*
X15043071Y51022215D01*
X15004976Y51098405D01*
X14966880Y51136500D01*
X14890690Y51174596D01*
X14738309Y51174596D01*
X14662119Y51136500D01*
X14624023Y51098405D01*
X14585928Y51022215D01*
X14585928Y50831739D01*
X14624023Y50755548D01*
X14662119Y50717453D01*
X14738309Y50679358D01*
X14890690Y50679358D01*
X14966880Y50717453D01*
X15004976Y50755548D01*
X15043071Y50831739D01*
X6226904Y21393167D02*
X5845952Y21126500D01*
X6226904Y20936024D02*
X5426904Y20936024D01*
X5426904Y21240786D01*
X5465000Y21316977D01*
X5503095Y21355072D01*
X5579285Y21393167D01*
X5693571Y21393167D01*
X5769761Y21355072D01*
X5807857Y21316977D01*
X5845952Y21240786D01*
X5845952Y20936024D01*
X5769761Y21850310D02*
X5731666Y21774120D01*
X5693571Y21736024D01*
X5617380Y21697929D01*
X5579285Y21697929D01*
X5503095Y21736024D01*
X5465000Y21774120D01*
X5426904Y21850310D01*
X5426904Y22002691D01*
X5465000Y22078881D01*
X5503095Y22116977D01*
X5579285Y22155072D01*
X5617380Y22155072D01*
X5693571Y22116977D01*
X5731666Y22078881D01*
X5769761Y22002691D01*
X5769761Y21850310D01*
X5807857Y21774120D01*
X5845952Y21736024D01*
X5922142Y21697929D01*
X6074523Y21697929D01*
X6150714Y21736024D01*
X6188809Y21774120D01*
X6226904Y21850310D01*
X6226904Y22002691D01*
X6188809Y22078881D01*
X6150714Y22116977D01*
X6074523Y22155072D01*
X5922142Y22155072D01*
X5845952Y22116977D01*
X5807857Y22078881D01*
X5769761Y22002691D01*
X4629166Y26701786D02*
X4591071Y26663691D01*
X4476785Y26625596D01*
X4400595Y26625596D01*
X4286309Y26663691D01*
X4210119Y26739881D01*
X4172023Y26816072D01*
X4133928Y26968453D01*
X4133928Y27082739D01*
X4172023Y27235120D01*
X4210119Y27311310D01*
X4286309Y27387500D01*
X4400595Y27425596D01*
X4476785Y27425596D01*
X4591071Y27387500D01*
X4629166Y27349405D01*
X5391071Y26625596D02*
X4933928Y26625596D01*
X5162500Y26625596D02*
X5162500Y27425596D01*
X5086309Y27311310D01*
X5010119Y27235120D01*
X4933928Y27197024D01*
X4629166Y27641596D02*
X4362500Y28022548D01*
X4172023Y27641596D02*
X4172023Y28441596D01*
X4476785Y28441596D01*
X4552976Y28403500D01*
X4591071Y28365405D01*
X4629166Y28289215D01*
X4629166Y28174929D01*
X4591071Y28098739D01*
X4552976Y28060643D01*
X4476785Y28022548D01*
X4172023Y28022548D01*
X4895833Y28441596D02*
X5429166Y28441596D01*
X5086309Y27641596D01*
X8070904Y49682477D02*
X8718523Y49682477D01*
X8794714Y49720572D01*
X8832809Y49758667D01*
X8870904Y49834858D01*
X8870904Y49987239D01*
X8832809Y50063429D01*
X8794714Y50101524D01*
X8718523Y50139620D01*
X8070904Y50139620D01*
X8070904Y50444381D02*
X8070904Y50939620D01*
X8375666Y50672953D01*
X8375666Y50787239D01*
X8413761Y50863429D01*
X8451857Y50901524D01*
X8528047Y50939620D01*
X8718523Y50939620D01*
X8794714Y50901524D01*
X8832809Y50863429D01*
X8870904Y50787239D01*
X8870904Y50558667D01*
X8832809Y50482477D01*
X8794714Y50444381D01*
X14414547Y15830548D02*
X14414547Y15449596D01*
X14147880Y16249596D02*
X14414547Y15830548D01*
X14681214Y16249596D01*
X14909785Y16173405D02*
X14947880Y16211500D01*
X15024071Y16249596D01*
X15214547Y16249596D01*
X15290738Y16211500D01*
X15328833Y16173405D01*
X15366928Y16097215D01*
X15366928Y16021024D01*
X15328833Y15906739D01*
X14871690Y15449596D01*
X15366928Y15449596D01*
X10668047Y16275048D02*
X10668047Y15894096D01*
X10401380Y16694096D02*
X10668047Y16275048D01*
X10934714Y16694096D01*
X11620428Y15894096D02*
X11163285Y15894096D01*
X11391857Y15894096D02*
X11391857Y16694096D01*
X11315666Y16579810D01*
X11239476Y16503620D01*
X11163285Y16465524D01*
X15551166Y27514596D02*
X15284500Y27895548D01*
X15094023Y27514596D02*
X15094023Y28314596D01*
X15398785Y28314596D01*
X15474976Y28276500D01*
X15513071Y28238405D01*
X15551166Y28162215D01*
X15551166Y28047929D01*
X15513071Y27971739D01*
X15474976Y27933643D01*
X15398785Y27895548D01*
X15094023Y27895548D01*
X16236880Y28314596D02*
X16084500Y28314596D01*
X16008309Y28276500D01*
X15970214Y28238405D01*
X15894023Y28124120D01*
X15855928Y27971739D01*
X15855928Y27666977D01*
X15894023Y27590786D01*
X15932119Y27552691D01*
X16008309Y27514596D01*
X16160690Y27514596D01*
X16236880Y27552691D01*
X16274976Y27590786D01*
X16313071Y27666977D01*
X16313071Y27857453D01*
X16274976Y27933643D01*
X16236880Y27971739D01*
X16160690Y28009834D01*
X16008309Y28009834D01*
X15932119Y27971739D01*
X15894023Y27933643D01*
X15855928Y27857453D01*
X14382714Y14245167D02*
X14420809Y14207072D01*
X14458904Y14092786D01*
X14458904Y14016596D01*
X14420809Y13902310D01*
X14344619Y13826120D01*
X14268428Y13788024D01*
X14116047Y13749929D01*
X14001761Y13749929D01*
X13849380Y13788024D01*
X13773190Y13826120D01*
X13697000Y13902310D01*
X13658904Y14016596D01*
X13658904Y14092786D01*
X13697000Y14207072D01*
X13735095Y14245167D01*
X13925571Y14930881D02*
X14458904Y14930881D01*
X13620809Y14740405D02*
X14192238Y14549929D01*
X14192238Y15045167D01*
X10572714Y45713667D02*
X10610809Y45675572D01*
X10648904Y45561286D01*
X10648904Y45485096D01*
X10610809Y45370810D01*
X10534619Y45294620D01*
X10458428Y45256524D01*
X10306047Y45218429D01*
X10191761Y45218429D01*
X10039380Y45256524D01*
X9963190Y45294620D01*
X9887000Y45370810D01*
X9848904Y45485096D01*
X9848904Y45561286D01*
X9887000Y45675572D01*
X9925095Y45713667D01*
X9848904Y46437477D02*
X9848904Y46056524D01*
X10229857Y46018429D01*
X10191761Y46056524D01*
X10153666Y46132715D01*
X10153666Y46323191D01*
X10191761Y46399381D01*
X10229857Y46437477D01*
X10306047Y46475572D01*
X10496523Y46475572D01*
X10572714Y46437477D01*
X10610809Y46399381D01*
X10648904Y46323191D01*
X10648904Y46132715D01*
X10610809Y46056524D01*
X10572714Y46018429D01*
X15844214Y14245167D02*
X15882309Y14207072D01*
X15920404Y14092786D01*
X15920404Y14016596D01*
X15882309Y13902310D01*
X15806119Y13826120D01*
X15729928Y13788024D01*
X15577547Y13749929D01*
X15463261Y13749929D01*
X15310880Y13788024D01*
X15234690Y13826120D01*
X15158500Y13902310D01*
X15120404Y14016596D01*
X15120404Y14092786D01*
X15158500Y14207072D01*
X15196595Y14245167D01*
X15120404Y14930881D02*
X15120404Y14778500D01*
X15158500Y14702310D01*
X15196595Y14664215D01*
X15310880Y14588024D01*
X15463261Y14549929D01*
X15768023Y14549929D01*
X15844214Y14588024D01*
X15882309Y14626120D01*
X15920404Y14702310D01*
X15920404Y14854691D01*
X15882309Y14930881D01*
X15844214Y14968977D01*
X15768023Y15007072D01*
X15577547Y15007072D01*
X15501357Y14968977D01*
X15463261Y14930881D01*
X15425166Y14854691D01*
X15425166Y14702310D01*
X15463261Y14626120D01*
X15501357Y14588024D01*
X15577547Y14549929D01*
X5708666Y42945086D02*
X5670571Y42906991D01*
X5556285Y42868896D01*
X5480095Y42868896D01*
X5365809Y42906991D01*
X5289619Y42983181D01*
X5251523Y43059372D01*
X5213428Y43211753D01*
X5213428Y43326039D01*
X5251523Y43478420D01*
X5289619Y43554610D01*
X5365809Y43630800D01*
X5480095Y43668896D01*
X5556285Y43668896D01*
X5670571Y43630800D01*
X5708666Y43592705D01*
X6165809Y43326039D02*
X6089619Y43364134D01*
X6051523Y43402229D01*
X6013428Y43478420D01*
X6013428Y43516515D01*
X6051523Y43592705D01*
X6089619Y43630800D01*
X6165809Y43668896D01*
X6318190Y43668896D01*
X6394380Y43630800D01*
X6432476Y43592705D01*
X6470571Y43516515D01*
X6470571Y43478420D01*
X6432476Y43402229D01*
X6394380Y43364134D01*
X6318190Y43326039D01*
X6165809Y43326039D01*
X6089619Y43287943D01*
X6051523Y43249848D01*
X6013428Y43173658D01*
X6013428Y43021277D01*
X6051523Y42945086D01*
X6089619Y42906991D01*
X6165809Y42868896D01*
X6318190Y42868896D01*
X6394380Y42906991D01*
X6432476Y42945086D01*
X6470571Y43021277D01*
X6470571Y43173658D01*
X6432476Y43249848D01*
X6394380Y43287943D01*
X6318190Y43326039D01*
X7969214Y24758715D02*
X8007309Y24720620D01*
X8045404Y24606334D01*
X8045404Y24530143D01*
X8007309Y24415858D01*
X7931119Y24339667D01*
X7854928Y24301572D01*
X7702547Y24263477D01*
X7588261Y24263477D01*
X7435880Y24301572D01*
X7359690Y24339667D01*
X7283500Y24415858D01*
X7245404Y24530143D01*
X7245404Y24606334D01*
X7283500Y24720620D01*
X7321595Y24758715D01*
X8045404Y25520620D02*
X8045404Y25063477D01*
X8045404Y25292048D02*
X7245404Y25292048D01*
X7359690Y25215858D01*
X7435880Y25139667D01*
X7473976Y25063477D01*
X7245404Y26015858D02*
X7245404Y26092048D01*
X7283500Y26168239D01*
X7321595Y26206334D01*
X7397785Y26244429D01*
X7550166Y26282524D01*
X7740642Y26282524D01*
X7893023Y26244429D01*
X7969214Y26206334D01*
X8007309Y26168239D01*
X8045404Y26092048D01*
X8045404Y26015858D01*
X8007309Y25939667D01*
X7969214Y25901572D01*
X7893023Y25863477D01*
X7740642Y25825381D01*
X7550166Y25825381D01*
X7397785Y25863477D01*
X7321595Y25901572D01*
X7283500Y25939667D01*
X7245404Y26015858D01*
X8553466Y43656286D02*
X8515371Y43618191D01*
X8401085Y43580096D01*
X8324895Y43580096D01*
X8210609Y43618191D01*
X8134419Y43694381D01*
X8096323Y43770572D01*
X8058228Y43922953D01*
X8058228Y44037239D01*
X8096323Y44189620D01*
X8134419Y44265810D01*
X8210609Y44342000D01*
X8324895Y44380096D01*
X8401085Y44380096D01*
X8515371Y44342000D01*
X8553466Y44303905D01*
X8820133Y44380096D02*
X9353466Y44380096D01*
X9010609Y43580096D01*
X10610914Y43634786D02*
X10572819Y43596691D01*
X10458533Y43558596D01*
X10382342Y43558596D01*
X10268057Y43596691D01*
X10191866Y43672881D01*
X10153771Y43749072D01*
X10115676Y43901453D01*
X10115676Y44015739D01*
X10153771Y44168120D01*
X10191866Y44244310D01*
X10268057Y44320500D01*
X10382342Y44358596D01*
X10458533Y44358596D01*
X10572819Y44320500D01*
X10610914Y44282405D01*
X11372819Y43558596D02*
X10915676Y43558596D01*
X11144247Y43558596D02*
X11144247Y44358596D01*
X11068057Y44244310D01*
X10991866Y44168120D01*
X10915676Y44130024D01*
X12134723Y43558596D02*
X11677580Y43558596D01*
X11906152Y43558596D02*
X11906152Y44358596D01*
X11829961Y44244310D01*
X11753771Y44168120D01*
X11677580Y44130024D01*
X749333Y2978096D02*
X749333Y2406667D01*
X711238Y2292381D01*
X635047Y2216191D01*
X520761Y2178096D01*
X444571Y2178096D01*
X1092190Y2901905D02*
X1130285Y2940000D01*
X1206476Y2978096D01*
X1396952Y2978096D01*
X1473142Y2940000D01*
X1511238Y2901905D01*
X1549333Y2825715D01*
X1549333Y2749524D01*
X1511238Y2635239D01*
X1054095Y2178096D01*
X1549333Y2178096D01*
X4745404Y56963524D02*
X3945404Y56963524D01*
X3945404Y57154000D01*
X3983500Y57268286D01*
X4059690Y57344477D01*
X4135880Y57382572D01*
X4288261Y57420667D01*
X4402547Y57420667D01*
X4554928Y57382572D01*
X4631119Y57344477D01*
X4707309Y57268286D01*
X4745404Y57154000D01*
X4745404Y56963524D01*
X3945404Y57687334D02*
X3945404Y58182572D01*
X4250166Y57915905D01*
X4250166Y58030191D01*
X4288261Y58106381D01*
X4326357Y58144477D01*
X4402547Y58182572D01*
X4593023Y58182572D01*
X4669214Y58144477D01*
X4707309Y58106381D01*
X4745404Y58030191D01*
X4745404Y57801620D01*
X4707309Y57725429D01*
X4669214Y57687334D01*
X9893333Y57334096D02*
X9893333Y56762667D01*
X9855238Y56648381D01*
X9779047Y56572191D01*
X9664761Y56534096D01*
X9588571Y56534096D01*
X10693333Y56534096D02*
X10236190Y56534096D01*
X10464761Y56534096D02*
X10464761Y57334096D01*
X10388571Y57219810D01*
X10312380Y57143620D01*
X10236190Y57105524D01*
X7482523Y15962096D02*
X7482523Y16762096D01*
X7673000Y16762096D01*
X7787285Y16724000D01*
X7863476Y16647810D01*
X7901571Y16571620D01*
X7939666Y16419239D01*
X7939666Y16304953D01*
X7901571Y16152572D01*
X7863476Y16076381D01*
X7787285Y16000191D01*
X7673000Y15962096D01*
X7482523Y15962096D01*
X8701571Y15962096D02*
X8244428Y15962096D01*
X8473000Y15962096D02*
X8473000Y16762096D01*
X8396809Y16647810D01*
X8320619Y16571620D01*
X8244428Y16533524D01*
X14185976Y41967096D02*
X14185976Y41319477D01*
X14224071Y41243286D01*
X14262166Y41205191D01*
X14338357Y41167096D01*
X14490738Y41167096D01*
X14566928Y41205191D01*
X14605023Y41243286D01*
X14643119Y41319477D01*
X14643119Y41967096D01*
X15366928Y41700429D02*
X15366928Y41167096D01*
X15176452Y42005191D02*
X14985976Y41433762D01*
X15481214Y41433762D01*
X3435404Y46443977D02*
X4083023Y46443977D01*
X4159214Y46482072D01*
X4197309Y46520167D01*
X4235404Y46596358D01*
X4235404Y46748739D01*
X4197309Y46824929D01*
X4159214Y46863024D01*
X4083023Y46901120D01*
X3435404Y46901120D01*
X3511595Y47243977D02*
X3473500Y47282072D01*
X3435404Y47358262D01*
X3435404Y47548739D01*
X3473500Y47624929D01*
X3511595Y47663024D01*
X3587785Y47701120D01*
X3663976Y47701120D01*
X3778261Y47663024D01*
X4235404Y47205881D01*
X4235404Y47701120D01*
X13506404Y57842167D02*
X13125452Y57575500D01*
X13506404Y57385024D02*
X12706404Y57385024D01*
X12706404Y57689786D01*
X12744500Y57765977D01*
X12782595Y57804072D01*
X12858785Y57842167D01*
X12973071Y57842167D01*
X13049261Y57804072D01*
X13087357Y57765977D01*
X13125452Y57689786D01*
X13125452Y57385024D01*
X12973071Y58527881D02*
X13506404Y58527881D01*
X12668309Y58337405D02*
X13239738Y58146929D01*
X13239738Y58642167D01*
X5780666Y15962096D02*
X5514000Y16343048D01*
X5323523Y15962096D02*
X5323523Y16762096D01*
X5628285Y16762096D01*
X5704476Y16724000D01*
X5742571Y16685905D01*
X5780666Y16609715D01*
X5780666Y16495429D01*
X5742571Y16419239D01*
X5704476Y16381143D01*
X5628285Y16343048D01*
X5323523Y16343048D01*
X6085428Y16685905D02*
X6123523Y16724000D01*
X6199714Y16762096D01*
X6390190Y16762096D01*
X6466380Y16724000D01*
X6504476Y16685905D01*
X6542571Y16609715D01*
X6542571Y16533524D01*
X6504476Y16419239D01*
X6047333Y15962096D01*
X6542571Y15962096D01*
X13506404Y55873667D02*
X13125452Y55607000D01*
X13506404Y55416524D02*
X12706404Y55416524D01*
X12706404Y55721286D01*
X12744500Y55797477D01*
X12782595Y55835572D01*
X12858785Y55873667D01*
X12973071Y55873667D01*
X13049261Y55835572D01*
X13087357Y55797477D01*
X13125452Y55721286D01*
X13125452Y55416524D01*
X12706404Y56597477D02*
X12706404Y56216524D01*
X13087357Y56178429D01*
X13049261Y56216524D01*
X13011166Y56292715D01*
X13011166Y56483191D01*
X13049261Y56559381D01*
X13087357Y56597477D01*
X13163547Y56635572D01*
X13354023Y56635572D01*
X13430214Y56597477D01*
X13468309Y56559381D01*
X13506404Y56483191D01*
X13506404Y56292715D01*
X13468309Y56216524D01*
X13430214Y56178429D01*
M02*
