G04 #@! TF.GenerationSoftware,KiCad,Pcbnew,5.0.2-bee76a0~70~ubuntu18.04.1*
G04 #@! TF.CreationDate,2019-07-29T11:14:37+02:00*
G04 #@! TF.ProjectId,Pic32MxRedFox,50696333-324d-4785-9265-64466f782e6b,rev?*
G04 #@! TF.SameCoordinates,PX5faea10PY8eeaea0*
G04 #@! TF.FileFunction,Legend,Top*
G04 #@! TF.FilePolarity,Positive*
%FSLAX46Y46*%
G04 Gerber Fmt 4.6, Leading zero omitted, Abs format (unit mm)*
G04 Created by KiCad (PCBNEW 5.0.2-bee76a0~70~ubuntu18.04.1) date pon 29 jul 2019 11:14:37 CEST*
%MOMM*%
%LPD*%
G01*
G04 APERTURE LIST*
%ADD10C,0.120000*%
%ADD11C,0.300000*%
%ADD12C,0.200000*%
%ADD13C,0.150000*%
%ADD14C,0.100000*%
G04 APERTURE END LIST*
D10*
X9486976Y7067500D02*
X9410785Y7105596D01*
X9296500Y7105596D01*
X9182214Y7067500D01*
X9106023Y6991310D01*
X9067928Y6915120D01*
X9029833Y6762739D01*
X9029833Y6648453D01*
X9067928Y6496072D01*
X9106023Y6419881D01*
X9182214Y6343691D01*
X9296500Y6305596D01*
X9372690Y6305596D01*
X9486976Y6343691D01*
X9525071Y6381786D01*
X9525071Y6648453D01*
X9372690Y6648453D01*
X9867928Y6305596D02*
X9867928Y7105596D01*
X10325071Y6305596D01*
X10325071Y7105596D01*
X10706023Y6305596D02*
X10706023Y7105596D01*
X10896500Y7105596D01*
X11010785Y7067500D01*
X11086976Y6991310D01*
X11125071Y6915120D01*
X11163166Y6762739D01*
X11163166Y6648453D01*
X11125071Y6496072D01*
X11086976Y6419881D01*
X11010785Y6343691D01*
X10896500Y6305596D01*
X10706023Y6305596D01*
X7359666Y6305596D02*
X7093000Y6686548D01*
X6902523Y6305596D02*
X6902523Y7105596D01*
X7207285Y7105596D01*
X7283476Y7067500D01*
X7321571Y7029405D01*
X7359666Y6953215D01*
X7359666Y6838929D01*
X7321571Y6762739D01*
X7283476Y6724643D01*
X7207285Y6686548D01*
X6902523Y6686548D01*
X7626333Y7105596D02*
X8159666Y6305596D01*
X8159666Y7105596D02*
X7626333Y6305596D01*
X4470476Y7105596D02*
X4927619Y7105596D01*
X4699047Y6305596D02*
X4699047Y7105596D01*
X5118095Y7105596D02*
X5651428Y6305596D01*
X5651428Y7105596D02*
X5118095Y6305596D01*
D11*
X2139071Y833715D02*
X639071Y833715D01*
X1996214Y2405143D02*
X2067642Y2333715D01*
X2139071Y2119429D01*
X2139071Y1976572D01*
X2067642Y1762286D01*
X1924785Y1619429D01*
X1781928Y1548000D01*
X1496214Y1476572D01*
X1281928Y1476572D01*
X996214Y1548000D01*
X853357Y1619429D01*
X710500Y1762286D01*
X639071Y1976572D01*
X639071Y2119429D01*
X710500Y2333715D01*
X781928Y2405143D01*
X2067642Y2976572D02*
X2139071Y3190858D01*
X2139071Y3548000D01*
X2067642Y3690858D01*
X1996214Y3762286D01*
X1853357Y3833715D01*
X1710500Y3833715D01*
X1567642Y3762286D01*
X1496214Y3690858D01*
X1424785Y3548000D01*
X1353357Y3262286D01*
X1281928Y3119429D01*
X1210500Y3048000D01*
X1067642Y2976572D01*
X924785Y2976572D01*
X781928Y3048000D01*
X710500Y3119429D01*
X639071Y3262286D01*
X639071Y3619429D01*
X710500Y3833715D01*
X2139071Y4476572D02*
X639071Y4476572D01*
X639071Y5048000D01*
X710500Y5190858D01*
X781928Y5262286D01*
X924785Y5333715D01*
X1139071Y5333715D01*
X1281928Y5262286D01*
X1353357Y5190858D01*
X1424785Y5048000D01*
X1424785Y4476572D01*
D12*
X3238500Y381000D02*
X3238500Y3810000D01*
X17081500Y381000D02*
X3238500Y381000D01*
X17081500Y3810000D02*
X17081500Y381000D01*
X3238500Y3810000D02*
X17081500Y3810000D01*
D10*
X5200785Y18091143D02*
X5315071Y18053048D01*
X5353166Y18014953D01*
X5391261Y17938762D01*
X5391261Y17824477D01*
X5353166Y17748286D01*
X5315071Y17710191D01*
X5238880Y17672096D01*
X4934119Y17672096D01*
X4934119Y18472096D01*
X5200785Y18472096D01*
X5276976Y18434000D01*
X5315071Y18395905D01*
X5353166Y18319715D01*
X5353166Y18243524D01*
X5315071Y18167334D01*
X5276976Y18129239D01*
X5200785Y18091143D01*
X4934119Y18091143D01*
X5886500Y18472096D02*
X6038880Y18472096D01*
X6115071Y18434000D01*
X6191261Y18357810D01*
X6229357Y18205429D01*
X6229357Y17938762D01*
X6191261Y17786381D01*
X6115071Y17710191D01*
X6038880Y17672096D01*
X5886500Y17672096D01*
X5810309Y17710191D01*
X5734119Y17786381D01*
X5696023Y17938762D01*
X5696023Y18205429D01*
X5734119Y18357810D01*
X5810309Y18434000D01*
X5886500Y18472096D01*
X6724595Y18472096D02*
X6876976Y18472096D01*
X6953166Y18434000D01*
X7029357Y18357810D01*
X7067452Y18205429D01*
X7067452Y17938762D01*
X7029357Y17786381D01*
X6953166Y17710191D01*
X6876976Y17672096D01*
X6724595Y17672096D01*
X6648404Y17710191D01*
X6572214Y17786381D01*
X6534119Y17938762D01*
X6534119Y18205429D01*
X6572214Y18357810D01*
X6648404Y18434000D01*
X6724595Y18472096D01*
X7296023Y18472096D02*
X7753166Y18472096D01*
X7524595Y17672096D02*
X7524595Y18472096D01*
X12598571Y18472096D02*
X12598571Y17824477D01*
X12636666Y17748286D01*
X12674761Y17710191D01*
X12750952Y17672096D01*
X12903333Y17672096D01*
X12979523Y17710191D01*
X13017619Y17748286D01*
X13055714Y17824477D01*
X13055714Y18472096D01*
X13398571Y17710191D02*
X13512857Y17672096D01*
X13703333Y17672096D01*
X13779523Y17710191D01*
X13817619Y17748286D01*
X13855714Y17824477D01*
X13855714Y17900667D01*
X13817619Y17976858D01*
X13779523Y18014953D01*
X13703333Y18053048D01*
X13550952Y18091143D01*
X13474761Y18129239D01*
X13436666Y18167334D01*
X13398571Y18243524D01*
X13398571Y18319715D01*
X13436666Y18395905D01*
X13474761Y18434000D01*
X13550952Y18472096D01*
X13741428Y18472096D01*
X13855714Y18434000D01*
X14198571Y18091143D02*
X14465238Y18091143D01*
X14579523Y17672096D02*
X14198571Y17672096D01*
X14198571Y18472096D01*
X14579523Y18472096D01*
X15379523Y17672096D02*
X15112857Y18053048D01*
X14922380Y17672096D02*
X14922380Y18472096D01*
X15227142Y18472096D01*
X15303333Y18434000D01*
X15341428Y18395905D01*
X15379523Y18319715D01*
X15379523Y18205429D01*
X15341428Y18129239D01*
X15303333Y18091143D01*
X15227142Y18053048D01*
X14922380Y18053048D01*
D12*
X3175000Y8255000D02*
X17145000Y8255000D01*
D10*
G04 #@! TO.C,R10*
X14674667Y46268100D02*
X14332133Y46268100D01*
X14674667Y45248100D02*
X14332133Y45248100D01*
G04 #@! TO.C,R9*
X17147000Y49066267D02*
X17147000Y48723733D01*
X16127000Y49066267D02*
X16127000Y48723733D01*
G04 #@! TO.C,R8*
X4527733Y20385500D02*
X4870267Y20385500D01*
X4527733Y19365500D02*
X4870267Y19365500D01*
G04 #@! TO.C,C1*
X3748500Y38895233D02*
X3748500Y39237769D01*
X2728500Y38895233D02*
X2728500Y39237769D01*
G04 #@! TO.C,R7*
X4125500Y38895233D02*
X4125500Y39237767D01*
X5145500Y38895233D02*
X5145500Y39237767D01*
G04 #@! TO.C,C9*
X15982767Y26350500D02*
X15640233Y26350500D01*
X15982767Y27370500D02*
X15640233Y27370500D01*
G04 #@! TO.C,U3*
X14870000Y50568500D02*
X13070000Y50568500D01*
X13070000Y47348500D02*
X15520000Y47348500D01*
G04 #@! TO.C,U1*
X9887000Y48900000D02*
X8627000Y48900000D01*
X3067000Y48900000D02*
X4327000Y48900000D01*
X9887000Y45140000D02*
X9887000Y48900000D01*
X3067000Y42890000D02*
X3067000Y48900000D01*
G04 #@! TO.C,Y2*
X10835000Y23735000D02*
X9485000Y23735000D01*
X10835000Y21985000D02*
X9485000Y21985000D01*
G04 #@! TO.C,Y1*
X3422800Y22177600D02*
X3422800Y22977600D01*
X5822800Y22177600D02*
X3822800Y22177600D01*
X5822800Y22977600D02*
X5822800Y22177600D01*
X5822800Y25777600D02*
X5822800Y24777600D01*
X3822800Y25777600D02*
X5822800Y25777600D01*
X3422800Y24777600D02*
X3422800Y25777600D01*
X3422800Y24777600D02*
X3022800Y24777600D01*
X5822800Y25977600D02*
X3822800Y25977600D01*
X3822800Y22177600D02*
X3422800Y22177600D01*
X3822800Y25777600D02*
X3422800Y25777600D01*
X3822800Y25977600D02*
X3422800Y25977600D01*
G04 #@! TO.C,R6*
X12507500Y23856767D02*
X12507500Y23514233D01*
X13527500Y23856767D02*
X13527500Y23514233D01*
G04 #@! TO.C,R1*
X7317200Y24199667D02*
X7317200Y23857133D01*
X6297200Y24199667D02*
X6297200Y23857133D01*
G04 #@! TO.C,SW2*
X5050000Y17120000D02*
X7650000Y17120000D01*
X9800000Y10820000D02*
X9550000Y10820000D01*
X9800000Y17120000D02*
X9800000Y10820000D01*
X9550000Y17120000D02*
X9800000Y17120000D01*
X7650000Y10820000D02*
X5050000Y10820000D01*
X2900000Y17120000D02*
X3150000Y17120000D01*
X2900000Y10820000D02*
X2900000Y17120000D01*
X3150000Y10820000D02*
X2900000Y10820000D01*
G04 #@! TO.C,SW1*
X10770000Y10820000D02*
X10520000Y10820000D01*
X10520000Y10820000D02*
X10520000Y17120000D01*
X10520000Y17120000D02*
X10770000Y17120000D01*
X15270000Y10820000D02*
X12670000Y10820000D01*
X17170000Y17120000D02*
X17420000Y17120000D01*
X17420000Y17120000D02*
X17420000Y10820000D01*
X17420000Y10820000D02*
X17170000Y10820000D01*
X12670000Y17120000D02*
X15270000Y17120000D01*
G04 #@! TO.C,C4*
X8235767Y21465000D02*
X7893233Y21465000D01*
X8235767Y20445000D02*
X7893233Y20445000D01*
G04 #@! TO.C,C5*
X11127200Y44583533D02*
X11127200Y44926067D01*
X10107200Y44583533D02*
X10107200Y44926067D01*
G04 #@! TO.C,C6*
X12274733Y21465000D02*
X12617267Y21465000D01*
X12274733Y20445000D02*
X12617267Y20445000D01*
G04 #@! TO.C,C8*
X8401233Y41273000D02*
X8743767Y41273000D01*
X8401233Y42293000D02*
X8743767Y42293000D01*
G04 #@! TO.C,C10*
X4146733Y26414000D02*
X4489267Y26414000D01*
X4146733Y27434000D02*
X4489267Y27434000D01*
G04 #@! TO.C,C3*
X10212000Y48711752D02*
X10212000Y48189248D01*
X11632000Y48711752D02*
X11632000Y48189248D01*
G04 #@! TO.C,C7*
X5277752Y40819000D02*
X4755248Y40819000D01*
X5277752Y42239000D02*
X4755248Y42239000D01*
G04 #@! TO.C,C11*
X14466500Y40378748D02*
X14466500Y40901252D01*
X15886500Y40378748D02*
X15886500Y40901252D01*
G04 #@! TO.C,J2*
X-270000Y8485000D02*
X20590000Y8485000D01*
X20590000Y8485000D02*
X20590000Y-865000D01*
X20590000Y-865000D02*
X-270000Y-865000D01*
X-270000Y-865000D02*
X-270000Y8485000D01*
X-520000Y-1115000D02*
X2020000Y-1115000D01*
X-520000Y-1115000D02*
X-520000Y1425000D01*
G04 #@! TO.C,D3*
X3341000Y51757500D02*
X3341000Y54907500D01*
X5041000Y51757500D02*
X5041000Y54907500D01*
X3341000Y51757500D02*
X5041000Y51757500D01*
G04 #@! TO.C,D2*
X14378000Y21755000D02*
X14378000Y19295000D01*
X14378000Y19295000D02*
X15848000Y19295000D01*
X15848000Y19295000D02*
X15848000Y21755000D01*
G04 #@! TO.C,D1*
X17372000Y19295000D02*
X17372000Y21755000D01*
X15902000Y19295000D02*
X17372000Y19295000D01*
X15902000Y21755000D02*
X15902000Y19295000D01*
D13*
G04 #@! TO.C,U4*
X17478555Y33020000D02*
X17071969Y33426586D01*
X10160000Y25701445D02*
X9682703Y26178742D01*
X2841445Y33020000D02*
X3318742Y32542703D01*
X10160000Y40338555D02*
X10637297Y39861258D01*
X17478555Y33020000D02*
X17001258Y32542703D01*
X10160000Y40338555D02*
X9682703Y39861258D01*
X2841445Y33020000D02*
X3318742Y33497297D01*
X10160000Y25701445D02*
X10637297Y26178742D01*
X17071969Y33426586D02*
X17973530Y34328148D01*
D10*
G04 #@! TO.C,U2*
X6466000Y45380000D02*
X8916000Y45380001D01*
X8266000Y48600000D02*
X6466000Y48600000D01*
G04 #@! TO.C,R4*
X16829500Y58019767D02*
X16829500Y57677233D01*
X15809500Y58019767D02*
X15809500Y57677233D01*
G04 #@! TO.C,R3*
X15623000Y24149233D02*
X15623000Y24491767D01*
X14603000Y24149233D02*
X14603000Y24491767D01*
G04 #@! TO.C,R2*
X16127000Y24149233D02*
X16127000Y24491767D01*
X17147000Y24149233D02*
X17147000Y24491767D01*
G04 #@! TO.C,R5*
X15809500Y53867233D02*
X15809500Y54209767D01*
X16829500Y53867233D02*
X16829500Y54209767D01*
G04 #@! TO.C,R10*
D13*
X13860542Y43875720D02*
X13527209Y44351910D01*
X13289114Y43875720D02*
X13289114Y44875720D01*
X13670066Y44875720D01*
X13765304Y44828100D01*
X13812923Y44780481D01*
X13860542Y44685243D01*
X13860542Y44542386D01*
X13812923Y44447148D01*
X13765304Y44399529D01*
X13670066Y44351910D01*
X13289114Y44351910D01*
X14812923Y43875720D02*
X14241495Y43875720D01*
X14527209Y43875720D02*
X14527209Y44875720D01*
X14431971Y44732862D01*
X14336733Y44637624D01*
X14241495Y44590005D01*
X15431971Y44875720D02*
X15527209Y44875720D01*
X15622447Y44828100D01*
X15670066Y44780481D01*
X15717685Y44685243D01*
X15765304Y44494767D01*
X15765304Y44256672D01*
X15717685Y44066196D01*
X15670066Y43970958D01*
X15622447Y43923339D01*
X15527209Y43875720D01*
X15431971Y43875720D01*
X15336733Y43923339D01*
X15289114Y43970958D01*
X15241495Y44066196D01*
X15193876Y44256672D01*
X15193876Y44494767D01*
X15241495Y44685243D01*
X15289114Y44780481D01*
X15336733Y44828100D01*
X15431971Y44875720D01*
G04 #@! TO.C,R9*
X17089380Y51077834D02*
X16613190Y50744500D01*
X17089380Y50506405D02*
X16089380Y50506405D01*
X16089380Y50887358D01*
X16137000Y50982596D01*
X16184619Y51030215D01*
X16279857Y51077834D01*
X16422714Y51077834D01*
X16517952Y51030215D01*
X16565571Y50982596D01*
X16613190Y50887358D01*
X16613190Y50506405D01*
X17089380Y51554024D02*
X17089380Y51744500D01*
X17041761Y51839739D01*
X16994142Y51887358D01*
X16851285Y51982596D01*
X16660809Y52030215D01*
X16279857Y52030215D01*
X16184619Y51982596D01*
X16137000Y51934977D01*
X16089380Y51839739D01*
X16089380Y51649262D01*
X16137000Y51554024D01*
X16184619Y51506405D01*
X16279857Y51458786D01*
X16517952Y51458786D01*
X16613190Y51506405D01*
X16660809Y51554024D01*
X16708428Y51649262D01*
X16708428Y51839739D01*
X16660809Y51934977D01*
X16613190Y51982596D01*
X16517952Y52030215D01*
G04 #@! TO.C,R8*
X4532333Y20693120D02*
X4199000Y21169310D01*
X3960904Y20693120D02*
X3960904Y21693120D01*
X4341857Y21693120D01*
X4437095Y21645500D01*
X4484714Y21597881D01*
X4532333Y21502643D01*
X4532333Y21359786D01*
X4484714Y21264548D01*
X4437095Y21216929D01*
X4341857Y21169310D01*
X3960904Y21169310D01*
X5103761Y21264548D02*
X5008523Y21312167D01*
X4960904Y21359786D01*
X4913285Y21455024D01*
X4913285Y21502643D01*
X4960904Y21597881D01*
X5008523Y21645500D01*
X5103761Y21693120D01*
X5294238Y21693120D01*
X5389476Y21645500D01*
X5437095Y21597881D01*
X5484714Y21502643D01*
X5484714Y21455024D01*
X5437095Y21359786D01*
X5389476Y21312167D01*
X5294238Y21264548D01*
X5103761Y21264548D01*
X5008523Y21216929D01*
X4960904Y21169310D01*
X4913285Y21074072D01*
X4913285Y20883596D01*
X4960904Y20788358D01*
X5008523Y20740739D01*
X5103761Y20693120D01*
X5294238Y20693120D01*
X5389476Y20740739D01*
X5437095Y20788358D01*
X5484714Y20883596D01*
X5484714Y21074072D01*
X5437095Y21169310D01*
X5389476Y21216929D01*
X5294238Y21264548D01*
G04 #@! TO.C,C1*
D14*
X3524214Y36569667D02*
X3562309Y36531572D01*
X3600404Y36417286D01*
X3600404Y36341096D01*
X3562309Y36226810D01*
X3486119Y36150620D01*
X3409928Y36112524D01*
X3257547Y36074429D01*
X3143261Y36074429D01*
X2990880Y36112524D01*
X2914690Y36150620D01*
X2838500Y36226810D01*
X2800404Y36341096D01*
X2800404Y36417286D01*
X2838500Y36531572D01*
X2876595Y36569667D01*
X3600404Y37331572D02*
X3600404Y36874429D01*
X3600404Y37103000D02*
X2800404Y37103000D01*
X2914690Y37026810D01*
X2990880Y36950620D01*
X3028976Y36874429D01*
G04 #@! TO.C,R7*
X6076904Y39109667D02*
X5695952Y38843000D01*
X6076904Y38652524D02*
X5276904Y38652524D01*
X5276904Y38957286D01*
X5315000Y39033477D01*
X5353095Y39071572D01*
X5429285Y39109667D01*
X5543571Y39109667D01*
X5619761Y39071572D01*
X5657857Y39033477D01*
X5695952Y38957286D01*
X5695952Y38652524D01*
X5276904Y39376334D02*
X5276904Y39909667D01*
X6076904Y39566810D01*
G04 #@! TO.C,C9*
X16313166Y27781286D02*
X16275071Y27743191D01*
X16160785Y27705096D01*
X16084595Y27705096D01*
X15970309Y27743191D01*
X15894119Y27819381D01*
X15856023Y27895572D01*
X15817928Y28047953D01*
X15817928Y28162239D01*
X15856023Y28314620D01*
X15894119Y28390810D01*
X15970309Y28467000D01*
X16084595Y28505096D01*
X16160785Y28505096D01*
X16275071Y28467000D01*
X16313166Y28428905D01*
X16694119Y27705096D02*
X16846500Y27705096D01*
X16922690Y27743191D01*
X16960785Y27781286D01*
X17036976Y27895572D01*
X17075071Y28047953D01*
X17075071Y28352715D01*
X17036976Y28428905D01*
X16998880Y28467000D01*
X16922690Y28505096D01*
X16770309Y28505096D01*
X16694119Y28467000D01*
X16656023Y28428905D01*
X16617928Y28352715D01*
X16617928Y28162239D01*
X16656023Y28086048D01*
X16694119Y28047953D01*
X16770309Y28009858D01*
X16922690Y28009858D01*
X16998880Y28047953D01*
X17036976Y28086048D01*
X17075071Y28162239D01*
G04 #@! TO.C,U3*
D13*
X13208095Y51792120D02*
X13208095Y50982596D01*
X13255714Y50887358D01*
X13303333Y50839739D01*
X13398571Y50792120D01*
X13589047Y50792120D01*
X13684285Y50839739D01*
X13731904Y50887358D01*
X13779523Y50982596D01*
X13779523Y51792120D01*
X14160476Y51792120D02*
X14779523Y51792120D01*
X14446190Y51411167D01*
X14589047Y51411167D01*
X14684285Y51363548D01*
X14731904Y51315929D01*
X14779523Y51220691D01*
X14779523Y50982596D01*
X14731904Y50887358D01*
X14684285Y50839739D01*
X14589047Y50792120D01*
X14303333Y50792120D01*
X14208095Y50839739D01*
X14160476Y50887358D01*
G04 #@! TO.C,U1*
X3556095Y47093120D02*
X3556095Y46283596D01*
X3603714Y46188358D01*
X3651333Y46140739D01*
X3746571Y46093120D01*
X3937047Y46093120D01*
X4032285Y46140739D01*
X4079904Y46188358D01*
X4127523Y46283596D01*
X4127523Y47093120D01*
X5127523Y46093120D02*
X4556095Y46093120D01*
X4841809Y46093120D02*
X4841809Y47093120D01*
X4746571Y46950262D01*
X4651333Y46855024D01*
X4556095Y46807405D01*
G04 #@! TO.C,Y2*
D14*
X9080547Y24339548D02*
X9080547Y23958596D01*
X8813880Y24758596D02*
X9080547Y24339548D01*
X9347214Y24758596D01*
X9575785Y24682405D02*
X9613880Y24720500D01*
X9690071Y24758596D01*
X9880547Y24758596D01*
X9956738Y24720500D01*
X9994833Y24682405D01*
X10032928Y24606215D01*
X10032928Y24530024D01*
X9994833Y24415739D01*
X9537690Y23958596D01*
X10032928Y23958596D01*
G04 #@! TO.C,Y1*
X2901952Y23431548D02*
X3282904Y23431548D01*
X2482904Y23164881D02*
X2901952Y23431548D01*
X2482904Y23698215D01*
X3282904Y24383929D02*
X3282904Y23926786D01*
X3282904Y24155358D02*
X2482904Y24155358D01*
X2597190Y24079167D01*
X2673380Y24002977D01*
X2711476Y23926786D01*
G04 #@! TO.C,R6*
X11474404Y24441167D02*
X11093452Y24174500D01*
X11474404Y23984024D02*
X10674404Y23984024D01*
X10674404Y24288786D01*
X10712500Y24364977D01*
X10750595Y24403072D01*
X10826785Y24441167D01*
X10941071Y24441167D01*
X11017261Y24403072D01*
X11055357Y24364977D01*
X11093452Y24288786D01*
X11093452Y23984024D01*
X10674404Y25126881D02*
X10674404Y24974500D01*
X10712500Y24898310D01*
X10750595Y24860215D01*
X10864880Y24784024D01*
X11017261Y24745929D01*
X11322023Y24745929D01*
X11398214Y24784024D01*
X11436309Y24822120D01*
X11474404Y24898310D01*
X11474404Y25050691D01*
X11436309Y25126881D01*
X11398214Y25164977D01*
X11322023Y25203072D01*
X11131547Y25203072D01*
X11055357Y25164977D01*
X11017261Y25126881D01*
X10979166Y25050691D01*
X10979166Y24898310D01*
X11017261Y24822120D01*
X11055357Y24784024D01*
X11131547Y24745929D01*
G04 #@! TO.C,R1*
X8362904Y24504667D02*
X7981952Y24238000D01*
X8362904Y24047524D02*
X7562904Y24047524D01*
X7562904Y24352286D01*
X7601000Y24428477D01*
X7639095Y24466572D01*
X7715285Y24504667D01*
X7829571Y24504667D01*
X7905761Y24466572D01*
X7943857Y24428477D01*
X7981952Y24352286D01*
X7981952Y24047524D01*
X8362904Y25266572D02*
X8362904Y24809429D01*
X8362904Y25038000D02*
X7562904Y25038000D01*
X7677190Y24961810D01*
X7753380Y24885620D01*
X7791476Y24809429D01*
G04 #@! TO.C,SW2*
D13*
X6056261Y12700167D02*
X6103880Y12843024D01*
X6103880Y13081120D01*
X6056261Y13176358D01*
X6008642Y13223977D01*
X5913404Y13271596D01*
X5818166Y13271596D01*
X5722928Y13223977D01*
X5675309Y13176358D01*
X5627690Y13081120D01*
X5580071Y12890643D01*
X5532452Y12795405D01*
X5484833Y12747786D01*
X5389595Y12700167D01*
X5294357Y12700167D01*
X5199119Y12747786D01*
X5151500Y12795405D01*
X5103880Y12890643D01*
X5103880Y13128739D01*
X5151500Y13271596D01*
X5103880Y13604929D02*
X6103880Y13843024D01*
X5389595Y14033500D01*
X6103880Y14223977D01*
X5103880Y14462072D01*
X5199119Y14795405D02*
X5151500Y14843024D01*
X5103880Y14938262D01*
X5103880Y15176358D01*
X5151500Y15271596D01*
X5199119Y15319215D01*
X5294357Y15366834D01*
X5389595Y15366834D01*
X5532452Y15319215D01*
X6103880Y14747786D01*
X6103880Y15366834D01*
G04 #@! TO.C,SW1*
X12152261Y12636667D02*
X12199880Y12779524D01*
X12199880Y13017620D01*
X12152261Y13112858D01*
X12104642Y13160477D01*
X12009404Y13208096D01*
X11914166Y13208096D01*
X11818928Y13160477D01*
X11771309Y13112858D01*
X11723690Y13017620D01*
X11676071Y12827143D01*
X11628452Y12731905D01*
X11580833Y12684286D01*
X11485595Y12636667D01*
X11390357Y12636667D01*
X11295119Y12684286D01*
X11247500Y12731905D01*
X11199880Y12827143D01*
X11199880Y13065239D01*
X11247500Y13208096D01*
X11199880Y13541429D02*
X12199880Y13779524D01*
X11485595Y13970000D01*
X12199880Y14160477D01*
X11199880Y14398572D01*
X12199880Y15303334D02*
X12199880Y14731905D01*
X12199880Y15017620D02*
X11199880Y15017620D01*
X11342738Y14922381D01*
X11437976Y14827143D01*
X11485595Y14731905D01*
G04 #@! TO.C,J4*
X16597380Y43291167D02*
X17311666Y43291167D01*
X17454523Y43243548D01*
X17549761Y43148310D01*
X17597380Y43005453D01*
X17597380Y42910215D01*
X16930714Y44195929D02*
X17597380Y44195929D01*
X16549761Y43957834D02*
X17264047Y43719739D01*
X17264047Y44338786D01*
G04 #@! TO.C,J3*
X3476666Y58967620D02*
X3476666Y58253334D01*
X3429047Y58110477D01*
X3333809Y58015239D01*
X3190952Y57967620D01*
X3095714Y57967620D01*
X3857619Y58967620D02*
X4476666Y58967620D01*
X4143333Y58586667D01*
X4286190Y58586667D01*
X4381428Y58539048D01*
X4429047Y58491429D01*
X4476666Y58396191D01*
X4476666Y58158096D01*
X4429047Y58062858D01*
X4381428Y58015239D01*
X4286190Y57967620D01*
X4000476Y57967620D01*
X3905238Y58015239D01*
X3857619Y58062858D01*
G04 #@! TO.C,C4*
X7897833Y19167858D02*
X7850214Y19120239D01*
X7707357Y19072620D01*
X7612119Y19072620D01*
X7469261Y19120239D01*
X7374023Y19215477D01*
X7326404Y19310715D01*
X7278785Y19501191D01*
X7278785Y19644048D01*
X7326404Y19834524D01*
X7374023Y19929762D01*
X7469261Y20025000D01*
X7612119Y20072620D01*
X7707357Y20072620D01*
X7850214Y20025000D01*
X7897833Y19977381D01*
X8754976Y19739286D02*
X8754976Y19072620D01*
X8516880Y20120239D02*
X8278785Y19405953D01*
X8897833Y19405953D01*
G04 #@! TO.C,C5*
X12295142Y44600834D02*
X12342761Y44553215D01*
X12390380Y44410358D01*
X12390380Y44315120D01*
X12342761Y44172262D01*
X12247523Y44077024D01*
X12152285Y44029405D01*
X11961809Y43981786D01*
X11818952Y43981786D01*
X11628476Y44029405D01*
X11533238Y44077024D01*
X11438000Y44172262D01*
X11390380Y44315120D01*
X11390380Y44410358D01*
X11438000Y44553215D01*
X11485619Y44600834D01*
X11390380Y45505596D02*
X11390380Y45029405D01*
X11866571Y44981786D01*
X11818952Y45029405D01*
X11771333Y45124643D01*
X11771333Y45362739D01*
X11818952Y45457977D01*
X11866571Y45505596D01*
X11961809Y45553215D01*
X12199904Y45553215D01*
X12295142Y45505596D01*
X12342761Y45457977D01*
X12390380Y45362739D01*
X12390380Y45124643D01*
X12342761Y45029405D01*
X12295142Y44981786D01*
G04 #@! TO.C,C6*
X12279333Y19200858D02*
X12231714Y19153239D01*
X12088857Y19105620D01*
X11993619Y19105620D01*
X11850761Y19153239D01*
X11755523Y19248477D01*
X11707904Y19343715D01*
X11660285Y19534191D01*
X11660285Y19677048D01*
X11707904Y19867524D01*
X11755523Y19962762D01*
X11850761Y20058000D01*
X11993619Y20105620D01*
X12088857Y20105620D01*
X12231714Y20058000D01*
X12279333Y20010381D01*
X13136476Y20105620D02*
X12946000Y20105620D01*
X12850761Y20058000D01*
X12803142Y20010381D01*
X12707904Y19867524D01*
X12660285Y19677048D01*
X12660285Y19296096D01*
X12707904Y19200858D01*
X12755523Y19153239D01*
X12850761Y19105620D01*
X13041238Y19105620D01*
X13136476Y19153239D01*
X13184095Y19200858D01*
X13231714Y19296096D01*
X13231714Y19534191D01*
X13184095Y19629429D01*
X13136476Y19677048D01*
X13041238Y19724667D01*
X12850761Y19724667D01*
X12755523Y19677048D01*
X12707904Y19629429D01*
X12660285Y19534191D01*
G04 #@! TO.C,C8*
X11009333Y41425858D02*
X10961714Y41378239D01*
X10818857Y41330620D01*
X10723619Y41330620D01*
X10580761Y41378239D01*
X10485523Y41473477D01*
X10437904Y41568715D01*
X10390285Y41759191D01*
X10390285Y41902048D01*
X10437904Y42092524D01*
X10485523Y42187762D01*
X10580761Y42283000D01*
X10723619Y42330620D01*
X10818857Y42330620D01*
X10961714Y42283000D01*
X11009333Y42235381D01*
X11580761Y41902048D02*
X11485523Y41949667D01*
X11437904Y41997286D01*
X11390285Y42092524D01*
X11390285Y42140143D01*
X11437904Y42235381D01*
X11485523Y42283000D01*
X11580761Y42330620D01*
X11771238Y42330620D01*
X11866476Y42283000D01*
X11914095Y42235381D01*
X11961714Y42140143D01*
X11961714Y42092524D01*
X11914095Y41997286D01*
X11866476Y41949667D01*
X11771238Y41902048D01*
X11580761Y41902048D01*
X11485523Y41854429D01*
X11437904Y41806810D01*
X11390285Y41711572D01*
X11390285Y41521096D01*
X11437904Y41425858D01*
X11485523Y41378239D01*
X11580761Y41330620D01*
X11771238Y41330620D01*
X11866476Y41378239D01*
X11914095Y41425858D01*
X11961714Y41521096D01*
X11961714Y41711572D01*
X11914095Y41806810D01*
X11866476Y41854429D01*
X11771238Y41902048D01*
G04 #@! TO.C,C10*
D14*
X3422714Y27844786D02*
X3384619Y27806691D01*
X3270333Y27768596D01*
X3194142Y27768596D01*
X3079857Y27806691D01*
X3003666Y27882881D01*
X2965571Y27959072D01*
X2927476Y28111453D01*
X2927476Y28225739D01*
X2965571Y28378120D01*
X3003666Y28454310D01*
X3079857Y28530500D01*
X3194142Y28568596D01*
X3270333Y28568596D01*
X3384619Y28530500D01*
X3422714Y28492405D01*
X4184619Y27768596D02*
X3727476Y27768596D01*
X3956047Y27768596D02*
X3956047Y28568596D01*
X3879857Y28454310D01*
X3803666Y28378120D01*
X3727476Y28340024D01*
X4679857Y28568596D02*
X4756047Y28568596D01*
X4832238Y28530500D01*
X4870333Y28492405D01*
X4908428Y28416215D01*
X4946523Y28263834D01*
X4946523Y28073358D01*
X4908428Y27920977D01*
X4870333Y27844786D01*
X4832238Y27806691D01*
X4756047Y27768596D01*
X4679857Y27768596D01*
X4603666Y27806691D01*
X4565571Y27844786D01*
X4527476Y27920977D01*
X4489380Y28073358D01*
X4489380Y28263834D01*
X4527476Y28416215D01*
X4565571Y28492405D01*
X4603666Y28530500D01*
X4679857Y28568596D01*
G04 #@! TO.C,C3*
D13*
X11279142Y50887334D02*
X11326761Y50839715D01*
X11374380Y50696858D01*
X11374380Y50601620D01*
X11326761Y50458762D01*
X11231523Y50363524D01*
X11136285Y50315905D01*
X10945809Y50268286D01*
X10802952Y50268286D01*
X10612476Y50315905D01*
X10517238Y50363524D01*
X10422000Y50458762D01*
X10374380Y50601620D01*
X10374380Y50696858D01*
X10422000Y50839715D01*
X10469619Y50887334D01*
X10374380Y51220667D02*
X10374380Y51839715D01*
X10755333Y51506381D01*
X10755333Y51649239D01*
X10802952Y51744477D01*
X10850571Y51792096D01*
X10945809Y51839715D01*
X11183904Y51839715D01*
X11279142Y51792096D01*
X11326761Y51744477D01*
X11374380Y51649239D01*
X11374380Y51363524D01*
X11326761Y51268286D01*
X11279142Y51220667D01*
G04 #@! TO.C,C7*
D14*
X6661166Y39973286D02*
X6623071Y39935191D01*
X6508785Y39897096D01*
X6432595Y39897096D01*
X6318309Y39935191D01*
X6242119Y40011381D01*
X6204023Y40087572D01*
X6165928Y40239953D01*
X6165928Y40354239D01*
X6204023Y40506620D01*
X6242119Y40582810D01*
X6318309Y40659000D01*
X6432595Y40697096D01*
X6508785Y40697096D01*
X6623071Y40659000D01*
X6661166Y40620905D01*
X6927833Y40697096D02*
X7461166Y40697096D01*
X7118309Y39897096D01*
G04 #@! TO.C,C11*
D13*
X14073142Y40632143D02*
X14120761Y40584524D01*
X14168380Y40441667D01*
X14168380Y40346429D01*
X14120761Y40203572D01*
X14025523Y40108334D01*
X13930285Y40060715D01*
X13739809Y40013096D01*
X13596952Y40013096D01*
X13406476Y40060715D01*
X13311238Y40108334D01*
X13216000Y40203572D01*
X13168380Y40346429D01*
X13168380Y40441667D01*
X13216000Y40584524D01*
X13263619Y40632143D01*
X14168380Y41584524D02*
X14168380Y41013096D01*
X14168380Y41298810D02*
X13168380Y41298810D01*
X13311238Y41203572D01*
X13406476Y41108334D01*
X13454095Y41013096D01*
X14168380Y42536905D02*
X14168380Y41965477D01*
X14168380Y42251191D02*
X13168380Y42251191D01*
X13311238Y42155953D01*
X13406476Y42060715D01*
X13454095Y41965477D01*
G04 #@! TO.C,J2*
X18272166Y4040120D02*
X18272166Y3325834D01*
X18224547Y3182977D01*
X18129309Y3087739D01*
X17986452Y3040120D01*
X17891214Y3040120D01*
X18700738Y3944881D02*
X18748357Y3992500D01*
X18843595Y4040120D01*
X19081690Y4040120D01*
X19176928Y3992500D01*
X19224547Y3944881D01*
X19272166Y3849643D01*
X19272166Y3754405D01*
X19224547Y3611548D01*
X18653119Y3040120D01*
X19272166Y3040120D01*
G04 #@! TO.C,D3*
X4706880Y55713405D02*
X3706880Y55713405D01*
X3706880Y55951500D01*
X3754500Y56094358D01*
X3849738Y56189596D01*
X3944976Y56237215D01*
X4135452Y56284834D01*
X4278309Y56284834D01*
X4468785Y56237215D01*
X4564023Y56189596D01*
X4659261Y56094358D01*
X4706880Y55951500D01*
X4706880Y55713405D01*
X3706880Y56618167D02*
X3706880Y57237215D01*
X4087833Y56903881D01*
X4087833Y57046739D01*
X4135452Y57141977D01*
X4183071Y57189596D01*
X4278309Y57237215D01*
X4516404Y57237215D01*
X4611642Y57189596D01*
X4659261Y57141977D01*
X4706880Y57046739D01*
X4706880Y56761024D01*
X4659261Y56665786D01*
X4611642Y56618167D01*
G04 #@! TO.C,J1*
X9826666Y57951620D02*
X9826666Y57237334D01*
X9779047Y57094477D01*
X9683809Y56999239D01*
X9540952Y56951620D01*
X9445714Y56951620D01*
X10826666Y56951620D02*
X10255238Y56951620D01*
X10540952Y56951620D02*
X10540952Y57951620D01*
X10445714Y57808762D01*
X10350476Y57713524D01*
X10255238Y57665905D01*
G04 #@! TO.C,D2*
X15501880Y11453905D02*
X14501880Y11453905D01*
X14501880Y11692000D01*
X14549500Y11834858D01*
X14644738Y11930096D01*
X14739976Y11977715D01*
X14930452Y12025334D01*
X15073309Y12025334D01*
X15263785Y11977715D01*
X15359023Y11930096D01*
X15454261Y11834858D01*
X15501880Y11692000D01*
X15501880Y11453905D01*
X14597119Y12406286D02*
X14549500Y12453905D01*
X14501880Y12549143D01*
X14501880Y12787239D01*
X14549500Y12882477D01*
X14597119Y12930096D01*
X14692357Y12977715D01*
X14787595Y12977715D01*
X14930452Y12930096D01*
X15501880Y12358667D01*
X15501880Y12977715D01*
G04 #@! TO.C,D1*
X16898880Y11453905D02*
X15898880Y11453905D01*
X15898880Y11692000D01*
X15946500Y11834858D01*
X16041738Y11930096D01*
X16136976Y11977715D01*
X16327452Y12025334D01*
X16470309Y12025334D01*
X16660785Y11977715D01*
X16756023Y11930096D01*
X16851261Y11834858D01*
X16898880Y11692000D01*
X16898880Y11453905D01*
X16898880Y12977715D02*
X16898880Y12406286D01*
X16898880Y12692000D02*
X15898880Y12692000D01*
X16041738Y12596762D01*
X16136976Y12501524D01*
X16184595Y12406286D01*
G04 #@! TO.C,U4*
X8789526Y33312978D02*
X9361946Y32740558D01*
X9462961Y32706886D01*
X9530305Y32706886D01*
X9631320Y32740558D01*
X9766007Y32875245D01*
X9799679Y32976260D01*
X9799679Y33043604D01*
X9766007Y33144619D01*
X9193587Y33717039D01*
X10069053Y34121100D02*
X10540457Y33649695D01*
X9631320Y34222115D02*
X9968038Y33548680D01*
X10405770Y33986413D01*
G04 #@! TO.C,U2*
X3556095Y48553620D02*
X3556095Y47744096D01*
X3603714Y47648858D01*
X3651333Y47601239D01*
X3746571Y47553620D01*
X3937047Y47553620D01*
X4032285Y47601239D01*
X4079904Y47648858D01*
X4127523Y47744096D01*
X4127523Y48553620D01*
X4556095Y48458381D02*
X4603714Y48506000D01*
X4698952Y48553620D01*
X4937047Y48553620D01*
X5032285Y48506000D01*
X5079904Y48458381D01*
X5127523Y48363143D01*
X5127523Y48267905D01*
X5079904Y48125048D01*
X4508476Y47553620D01*
X5127523Y47553620D01*
G04 #@! TO.C,R4*
X17978380Y57681834D02*
X17502190Y57348500D01*
X17978380Y57110405D02*
X16978380Y57110405D01*
X16978380Y57491358D01*
X17026000Y57586596D01*
X17073619Y57634215D01*
X17168857Y57681834D01*
X17311714Y57681834D01*
X17406952Y57634215D01*
X17454571Y57586596D01*
X17502190Y57491358D01*
X17502190Y57110405D01*
X17311714Y58538977D02*
X17978380Y58538977D01*
X16930761Y58300881D02*
X17645047Y58062786D01*
X17645047Y58681834D01*
G04 #@! TO.C,R3*
X15501880Y14184334D02*
X15025690Y13851000D01*
X15501880Y13612905D02*
X14501880Y13612905D01*
X14501880Y13993858D01*
X14549500Y14089096D01*
X14597119Y14136715D01*
X14692357Y14184334D01*
X14835214Y14184334D01*
X14930452Y14136715D01*
X14978071Y14089096D01*
X15025690Y13993858D01*
X15025690Y13612905D01*
X14501880Y14517667D02*
X14501880Y15136715D01*
X14882833Y14803381D01*
X14882833Y14946239D01*
X14930452Y15041477D01*
X14978071Y15089096D01*
X15073309Y15136715D01*
X15311404Y15136715D01*
X15406642Y15089096D01*
X15454261Y15041477D01*
X15501880Y14946239D01*
X15501880Y14660524D01*
X15454261Y14565286D01*
X15406642Y14517667D01*
G04 #@! TO.C,R2*
X16898880Y14184334D02*
X16422690Y13851000D01*
X16898880Y13612905D02*
X15898880Y13612905D01*
X15898880Y13993858D01*
X15946500Y14089096D01*
X15994119Y14136715D01*
X16089357Y14184334D01*
X16232214Y14184334D01*
X16327452Y14136715D01*
X16375071Y14089096D01*
X16422690Y13993858D01*
X16422690Y13612905D01*
X15994119Y14565286D02*
X15946500Y14612905D01*
X15898880Y14708143D01*
X15898880Y14946239D01*
X15946500Y15041477D01*
X15994119Y15089096D01*
X16089357Y15136715D01*
X16184595Y15136715D01*
X16327452Y15089096D01*
X16898880Y14517667D01*
X16898880Y15136715D01*
G04 #@! TO.C,R5*
X17914880Y53871834D02*
X17438690Y53538500D01*
X17914880Y53300405D02*
X16914880Y53300405D01*
X16914880Y53681358D01*
X16962500Y53776596D01*
X17010119Y53824215D01*
X17105357Y53871834D01*
X17248214Y53871834D01*
X17343452Y53824215D01*
X17391071Y53776596D01*
X17438690Y53681358D01*
X17438690Y53300405D01*
X16914880Y54776596D02*
X16914880Y54300405D01*
X17391071Y54252786D01*
X17343452Y54300405D01*
X17295833Y54395643D01*
X17295833Y54633739D01*
X17343452Y54728977D01*
X17391071Y54776596D01*
X17486309Y54824215D01*
X17724404Y54824215D01*
X17819642Y54776596D01*
X17867261Y54728977D01*
X17914880Y54633739D01*
X17914880Y54395643D01*
X17867261Y54300405D01*
X17819642Y54252786D01*
G04 #@! TD*
M02*
