G04 #@! TF.GenerationSoftware,KiCad,Pcbnew,5.0.2-bee76a0~70~ubuntu18.04.1*
G04 #@! TF.CreationDate,2019-07-29T11:14:37+02:00*
G04 #@! TF.ProjectId,Pic32MxRedFox,50696333-324d-4785-9265-64466f782e6b,rev?*
G04 #@! TF.SameCoordinates,PX5faea10PY8eeaea0*
G04 #@! TF.FileFunction,Soldermask,Bot*
G04 #@! TF.FilePolarity,Negative*
%FSLAX46Y46*%
G04 Gerber Fmt 4.6, Leading zero omitted, Abs format (unit mm)*
G04 Created by KiCad (PCBNEW 5.0.2-bee76a0~70~ubuntu18.04.1) date pon 29 jul 2019 11:14:37 CEST*
%MOMM*%
%LPD*%
G01*
G04 APERTURE LIST*
%ADD10C,0.010000*%
%ADD11C,0.100000*%
G04 APERTURE END LIST*
D10*
G04 #@! TO.C,MARK1*
G36*
X10835136Y51214781D02*
X10812871Y51186224D01*
X10786081Y51146180D01*
X10759679Y51102109D01*
X10753222Y51090427D01*
X10738923Y51064376D01*
X10715461Y51022072D01*
X10684059Y50965705D01*
X10645943Y50897465D01*
X10602336Y50819540D01*
X10554463Y50734122D01*
X10503548Y50643398D01*
X10450815Y50549560D01*
X10447325Y50543354D01*
X10186932Y50080333D01*
X9752068Y50080333D01*
X9491675Y50543354D01*
X9438866Y50637321D01*
X9387794Y50728315D01*
X9339684Y50814149D01*
X9295760Y50892631D01*
X9257246Y50961573D01*
X9225367Y51018785D01*
X9201347Y51062078D01*
X9186411Y51089261D01*
X9185778Y51090427D01*
X9160329Y51134305D01*
X9133159Y51176179D01*
X9109180Y51208591D01*
X9103865Y51214781D01*
X9067454Y51255083D01*
X8881248Y51255083D01*
X8849829Y51212361D01*
X8839015Y51194228D01*
X8820326Y51158995D01*
X8794798Y51108765D01*
X8763465Y51045637D01*
X8727361Y50971714D01*
X8687521Y50889097D01*
X8644979Y50799887D01*
X8603640Y50712298D01*
X8530423Y50556417D01*
X8465231Y50417790D01*
X8407091Y50294512D01*
X8355028Y50184676D01*
X8308070Y50086377D01*
X8265244Y49997711D01*
X8225577Y49916771D01*
X8188096Y49841653D01*
X8151827Y49770450D01*
X8115798Y49701258D01*
X8079035Y49632170D01*
X8040566Y49561282D01*
X7999417Y49486687D01*
X7954616Y49406482D01*
X7905188Y49318759D01*
X7850162Y49221614D01*
X7788564Y49113141D01*
X7772859Y49085500D01*
X7403042Y48434625D01*
X7399512Y48316648D01*
X7398432Y48261602D01*
X7399594Y48221002D01*
X7403813Y48188174D01*
X7411902Y48156445D01*
X7423067Y48123585D01*
X7468971Y48014811D01*
X7525856Y47915327D01*
X7597226Y47819573D01*
X7656484Y47753048D01*
X7672693Y47738020D01*
X7704392Y47710665D01*
X7750519Y47671849D01*
X7810012Y47622437D01*
X7881810Y47563296D01*
X7964850Y47495292D01*
X8058070Y47419289D01*
X8160408Y47336155D01*
X8270802Y47246754D01*
X8388191Y47151954D01*
X8511511Y47052618D01*
X8639701Y46949614D01*
X8771699Y46843807D01*
X8776160Y46840236D01*
X9831778Y45995167D01*
X9972077Y45995956D01*
X10112375Y45996745D01*
X11153129Y46830685D01*
X11284124Y46935728D01*
X11411278Y47037845D01*
X11533530Y47136174D01*
X11649816Y47229856D01*
X11759076Y47318029D01*
X11860248Y47399834D01*
X11952269Y47474410D01*
X12034078Y47540896D01*
X12104612Y47598432D01*
X12162811Y47646156D01*
X12207611Y47683209D01*
X12237951Y47708730D01*
X12252445Y47721542D01*
X12295900Y47767465D01*
X12342637Y47822961D01*
X12388257Y47882257D01*
X12428360Y47939583D01*
X12458544Y47989165D01*
X12463128Y47997889D01*
X12480372Y48035025D01*
X12499879Y48081631D01*
X12516025Y48123839D01*
X12528223Y48160143D01*
X12535835Y48191651D01*
X12539671Y48225031D01*
X12540542Y48266948D01*
X12540168Y48284601D01*
X12387570Y48284601D01*
X12376096Y48239350D01*
X12353706Y48184575D01*
X12322135Y48123277D01*
X12283117Y48058456D01*
X12238389Y47993114D01*
X12189684Y47930251D01*
X12138738Y47872869D01*
X12116566Y47850620D01*
X12101890Y47837728D01*
X12073084Y47813557D01*
X12031842Y47779472D01*
X11979858Y47736840D01*
X11918825Y47687026D01*
X11850437Y47631397D01*
X11776388Y47571319D01*
X11698372Y47508158D01*
X11618082Y47443280D01*
X11537211Y47378051D01*
X11457455Y47313837D01*
X11380505Y47252004D01*
X11308057Y47193919D01*
X11241804Y47140946D01*
X11183439Y47094454D01*
X11134656Y47055807D01*
X11097149Y47026371D01*
X11072611Y47007514D01*
X11062737Y47000600D01*
X11062676Y47000591D01*
X11065094Y47009985D01*
X11073251Y47035753D01*
X11085964Y47074270D01*
X11102047Y47121906D01*
X11107145Y47136829D01*
X11174990Y47319016D01*
X11255800Y47508960D01*
X11346989Y47701629D01*
X11445973Y47891988D01*
X11550166Y48075005D01*
X11656982Y48245644D01*
X11735154Y48359538D01*
X11777055Y48414097D01*
X11827455Y48473602D01*
X11882644Y48534201D01*
X11938911Y48592042D01*
X11992548Y48643271D01*
X12039844Y48684036D01*
X12066982Y48704142D01*
X12099390Y48725038D01*
X12125119Y48740253D01*
X12139043Y48746775D01*
X12139584Y48746833D01*
X12146865Y48738087D01*
X12162560Y48713936D01*
X12184866Y48677516D01*
X12211982Y48631963D01*
X12242105Y48580412D01*
X12273436Y48525997D01*
X12304171Y48471854D01*
X12332510Y48421119D01*
X12356651Y48376925D01*
X12374792Y48342409D01*
X12385133Y48320705D01*
X12386392Y48317326D01*
X12387570Y48284601D01*
X12540168Y48284601D01*
X12539488Y48316648D01*
X12535958Y48434625D01*
X12265047Y48911427D01*
X12051445Y48911427D01*
X12043768Y48901743D01*
X12021400Y48886911D01*
X11989122Y48870084D01*
X11987945Y48869532D01*
X11958510Y48853916D01*
X11928260Y48833439D01*
X11894035Y48805483D01*
X11852674Y48767429D01*
X11801017Y48716661D01*
X11789833Y48705418D01*
X11693022Y48600980D01*
X11599908Y48486114D01*
X11509019Y48358651D01*
X11418885Y48216420D01*
X11328033Y48057252D01*
X11251696Y47912042D01*
X11166341Y47739096D01*
X11093063Y47579123D01*
X11030526Y47428723D01*
X10977396Y47284493D01*
X10932335Y47143033D01*
X10894227Y47001825D01*
X10880411Y46946819D01*
X10867896Y46898743D01*
X10857739Y46861534D01*
X10851001Y46839130D01*
X10849327Y46834852D01*
X10839398Y46824871D01*
X10815385Y46803841D01*
X10779791Y46773862D01*
X10735121Y46737032D01*
X10683878Y46695449D01*
X10662708Y46678442D01*
X10598584Y46627642D01*
X10548760Y46589570D01*
X10511561Y46563072D01*
X10485309Y46546996D01*
X10468327Y46540188D01*
X10461625Y46540140D01*
X10440660Y46545804D01*
X10406911Y46554806D01*
X10371667Y46564145D01*
X10349174Y46569351D01*
X10323751Y46573475D01*
X10292791Y46576631D01*
X10253687Y46578933D01*
X10203833Y46580494D01*
X10140623Y46581427D01*
X10061448Y46581845D01*
X9964208Y46581863D01*
X9869317Y46581652D01*
X9792843Y46581198D01*
X9732035Y46580346D01*
X9684143Y46578943D01*
X9646419Y46576835D01*
X9616110Y46573866D01*
X9590469Y46569884D01*
X9566744Y46564733D01*
X9542185Y46558260D01*
X9541929Y46558189D01*
X9499809Y46547919D01*
X9466908Y46542642D01*
X9448201Y46543104D01*
X9446679Y46543890D01*
X9409206Y46573006D01*
X9364665Y46608228D01*
X9315870Y46647260D01*
X9265641Y46687803D01*
X9216792Y46727562D01*
X9172142Y46764241D01*
X9134507Y46795541D01*
X9106704Y46819168D01*
X9091550Y46832823D01*
X9089673Y46834957D01*
X9084889Y46849084D01*
X9076194Y46879853D01*
X9064647Y46923329D01*
X9051306Y46975579D01*
X9044773Y47001825D01*
X9043069Y47008136D01*
X8867514Y47008136D01*
X8866183Y47008298D01*
X8855749Y47016595D01*
X8830256Y47036941D01*
X8791173Y47068163D01*
X8739968Y47109085D01*
X8678109Y47158535D01*
X8607067Y47215338D01*
X8528309Y47278320D01*
X8443304Y47346306D01*
X8353521Y47418124D01*
X8350250Y47420741D01*
X8236630Y47511779D01*
X8138288Y47590978D01*
X8053846Y47659560D01*
X7981931Y47718754D01*
X7921167Y47769784D01*
X7870178Y47813876D01*
X7827590Y47852255D01*
X7792026Y47886147D01*
X7762111Y47916779D01*
X7736471Y47945374D01*
X7713730Y47973160D01*
X7692512Y48001362D01*
X7681634Y48016583D01*
X7642595Y48076480D01*
X7608518Y48137373D01*
X7580961Y48195634D01*
X7561478Y48247638D01*
X7551626Y48289758D01*
X7552608Y48317326D01*
X7560417Y48334841D01*
X7576536Y48366054D01*
X7599164Y48407831D01*
X7626500Y48457035D01*
X7656740Y48510533D01*
X7688085Y48565189D01*
X7718733Y48617867D01*
X7746881Y48665433D01*
X7770729Y48704751D01*
X7788474Y48732687D01*
X7798316Y48746105D01*
X7799417Y48746833D01*
X7811897Y48741334D01*
X7836687Y48726843D01*
X7868664Y48706375D01*
X7872019Y48704142D01*
X7912734Y48672903D01*
X7962365Y48628526D01*
X8017200Y48574865D01*
X8073531Y48515772D01*
X8127648Y48455098D01*
X8175842Y48396697D01*
X8203847Y48359538D01*
X8311404Y48200418D01*
X8418150Y48025232D01*
X8521504Y47839007D01*
X8618886Y47646770D01*
X8707713Y47453547D01*
X8785406Y47264366D01*
X8832298Y47135536D01*
X8848325Y47086849D01*
X8860112Y47047226D01*
X8866796Y47019908D01*
X8867514Y47008136D01*
X9043069Y47008136D01*
X9006410Y47143902D01*
X8961304Y47285368D01*
X8908119Y47429626D01*
X8845521Y47580075D01*
X8772173Y47740117D01*
X8687304Y47912042D01*
X8594758Y48086774D01*
X8504141Y48242784D01*
X8413980Y48382241D01*
X8322804Y48507315D01*
X8229143Y48620176D01*
X8149167Y48705418D01*
X8095208Y48758885D01*
X8052143Y48799142D01*
X8016810Y48828806D01*
X7986051Y48850497D01*
X7956705Y48866831D01*
X7951056Y48869532D01*
X7918532Y48886371D01*
X7895762Y48901320D01*
X7887525Y48911223D01*
X7887556Y48911427D01*
X7893137Y48922834D01*
X7908048Y48950564D01*
X7931139Y48992547D01*
X7961257Y49046715D01*
X7997254Y49111001D01*
X8037977Y49183337D01*
X8082277Y49261654D01*
X8090726Y49276552D01*
X8142669Y49368813D01*
X8190720Y49455850D01*
X8236464Y49540770D01*
X8281490Y49626683D01*
X8327385Y49716696D01*
X8375734Y49813917D01*
X8428125Y49921455D01*
X8486145Y50042417D01*
X8544332Y50165000D01*
X8593209Y50268444D01*
X8640820Y50369381D01*
X8686121Y50465588D01*
X8728071Y50554846D01*
X8765628Y50634933D01*
X8797750Y50703628D01*
X8823393Y50758710D01*
X8841517Y50797959D01*
X8847267Y50810583D01*
X8872469Y50865500D01*
X8899578Y50923134D01*
X8924593Y50975037D01*
X8937178Y51000399D01*
X8976908Y51079090D01*
X8996468Y51053316D01*
X9007803Y51035414D01*
X9026623Y51002416D01*
X9050845Y50958108D01*
X9078390Y50906276D01*
X9097891Y50868792D01*
X9125740Y50815351D01*
X9150896Y50768132D01*
X9171506Y50730529D01*
X9185721Y50705934D01*
X9190981Y50698159D01*
X9198417Y50686631D01*
X9215023Y50658607D01*
X9239660Y50616078D01*
X9271191Y50561034D01*
X9308477Y50495467D01*
X9350381Y50421367D01*
X9395763Y50340725D01*
X9419167Y50298996D01*
X9636125Y49911715D01*
X9696463Y49911358D01*
X9743237Y49914156D01*
X9794333Y49921674D01*
X9817749Y49926875D01*
X9878306Y49937402D01*
X9950177Y49941942D01*
X10024372Y49940497D01*
X10091902Y49933066D01*
X10121251Y49926875D01*
X10168266Y49917674D01*
X10219288Y49912127D01*
X10242537Y49911358D01*
X10302875Y49911715D01*
X10519833Y50298996D01*
X10566517Y50382139D01*
X10610286Y50459727D01*
X10650000Y50529767D01*
X10684522Y50590269D01*
X10712714Y50639243D01*
X10733438Y50674696D01*
X10745556Y50694639D01*
X10748019Y50698159D01*
X10756427Y50711176D01*
X10772575Y50739667D01*
X10794614Y50780238D01*
X10820690Y50829497D01*
X10841110Y50868792D01*
X10869723Y50923571D01*
X10896425Y50973392D01*
X10919133Y51014469D01*
X10935768Y51043015D01*
X10942532Y51053316D01*
X10962092Y51079090D01*
X11001822Y51000399D01*
X11023572Y50956194D01*
X11049872Y50901074D01*
X11076718Y50843489D01*
X11091733Y50810583D01*
X11105853Y50779775D01*
X11127996Y50732061D01*
X11157120Y50669661D01*
X11192182Y50594797D01*
X11232141Y50509690D01*
X11275955Y50416561D01*
X11322581Y50317631D01*
X11370976Y50215120D01*
X11394669Y50165000D01*
X11459093Y50029339D01*
X11516465Y49909892D01*
X11568370Y49803553D01*
X11616395Y49707211D01*
X11662128Y49617760D01*
X11707155Y49532092D01*
X11753063Y49447097D01*
X11801438Y49359669D01*
X11848274Y49276552D01*
X11893106Y49197359D01*
X11934574Y49123768D01*
X11971527Y49057846D01*
X12002813Y49001660D01*
X12027283Y48957280D01*
X12043786Y48926773D01*
X12051170Y48912206D01*
X12051445Y48911427D01*
X12265047Y48911427D01*
X12166141Y49085500D01*
X12102839Y49196944D01*
X12046340Y49296607D01*
X11995670Y49386396D01*
X11949858Y49468214D01*
X11907930Y49543969D01*
X11868912Y49615565D01*
X11831832Y49684908D01*
X11795717Y49753903D01*
X11759593Y49824456D01*
X11722488Y49898472D01*
X11683428Y49977856D01*
X11641441Y50064514D01*
X11595553Y50160352D01*
X11544791Y50267275D01*
X11488182Y50387188D01*
X11424753Y50521996D01*
X11353531Y50673606D01*
X11335361Y50712298D01*
X11291228Y50805775D01*
X11248828Y50894625D01*
X11209197Y50976747D01*
X11173368Y51050040D01*
X11142377Y51112402D01*
X11117257Y51161732D01*
X11099043Y51195929D01*
X11089171Y51212361D01*
X11057752Y51255083D01*
X10871547Y51255083D01*
X10835136Y51214781D01*
X10835136Y51214781D01*
G37*
X10835136Y51214781D02*
X10812871Y51186224D01*
X10786081Y51146180D01*
X10759679Y51102109D01*
X10753222Y51090427D01*
X10738923Y51064376D01*
X10715461Y51022072D01*
X10684059Y50965705D01*
X10645943Y50897465D01*
X10602336Y50819540D01*
X10554463Y50734122D01*
X10503548Y50643398D01*
X10450815Y50549560D01*
X10447325Y50543354D01*
X10186932Y50080333D01*
X9752068Y50080333D01*
X9491675Y50543354D01*
X9438866Y50637321D01*
X9387794Y50728315D01*
X9339684Y50814149D01*
X9295760Y50892631D01*
X9257246Y50961573D01*
X9225367Y51018785D01*
X9201347Y51062078D01*
X9186411Y51089261D01*
X9185778Y51090427D01*
X9160329Y51134305D01*
X9133159Y51176179D01*
X9109180Y51208591D01*
X9103865Y51214781D01*
X9067454Y51255083D01*
X8881248Y51255083D01*
X8849829Y51212361D01*
X8839015Y51194228D01*
X8820326Y51158995D01*
X8794798Y51108765D01*
X8763465Y51045637D01*
X8727361Y50971714D01*
X8687521Y50889097D01*
X8644979Y50799887D01*
X8603640Y50712298D01*
X8530423Y50556417D01*
X8465231Y50417790D01*
X8407091Y50294512D01*
X8355028Y50184676D01*
X8308070Y50086377D01*
X8265244Y49997711D01*
X8225577Y49916771D01*
X8188096Y49841653D01*
X8151827Y49770450D01*
X8115798Y49701258D01*
X8079035Y49632170D01*
X8040566Y49561282D01*
X7999417Y49486687D01*
X7954616Y49406482D01*
X7905188Y49318759D01*
X7850162Y49221614D01*
X7788564Y49113141D01*
X7772859Y49085500D01*
X7403042Y48434625D01*
X7399512Y48316648D01*
X7398432Y48261602D01*
X7399594Y48221002D01*
X7403813Y48188174D01*
X7411902Y48156445D01*
X7423067Y48123585D01*
X7468971Y48014811D01*
X7525856Y47915327D01*
X7597226Y47819573D01*
X7656484Y47753048D01*
X7672693Y47738020D01*
X7704392Y47710665D01*
X7750519Y47671849D01*
X7810012Y47622437D01*
X7881810Y47563296D01*
X7964850Y47495292D01*
X8058070Y47419289D01*
X8160408Y47336155D01*
X8270802Y47246754D01*
X8388191Y47151954D01*
X8511511Y47052618D01*
X8639701Y46949614D01*
X8771699Y46843807D01*
X8776160Y46840236D01*
X9831778Y45995167D01*
X9972077Y45995956D01*
X10112375Y45996745D01*
X11153129Y46830685D01*
X11284124Y46935728D01*
X11411278Y47037845D01*
X11533530Y47136174D01*
X11649816Y47229856D01*
X11759076Y47318029D01*
X11860248Y47399834D01*
X11952269Y47474410D01*
X12034078Y47540896D01*
X12104612Y47598432D01*
X12162811Y47646156D01*
X12207611Y47683209D01*
X12237951Y47708730D01*
X12252445Y47721542D01*
X12295900Y47767465D01*
X12342637Y47822961D01*
X12388257Y47882257D01*
X12428360Y47939583D01*
X12458544Y47989165D01*
X12463128Y47997889D01*
X12480372Y48035025D01*
X12499879Y48081631D01*
X12516025Y48123839D01*
X12528223Y48160143D01*
X12535835Y48191651D01*
X12539671Y48225031D01*
X12540542Y48266948D01*
X12540168Y48284601D01*
X12387570Y48284601D01*
X12376096Y48239350D01*
X12353706Y48184575D01*
X12322135Y48123277D01*
X12283117Y48058456D01*
X12238389Y47993114D01*
X12189684Y47930251D01*
X12138738Y47872869D01*
X12116566Y47850620D01*
X12101890Y47837728D01*
X12073084Y47813557D01*
X12031842Y47779472D01*
X11979858Y47736840D01*
X11918825Y47687026D01*
X11850437Y47631397D01*
X11776388Y47571319D01*
X11698372Y47508158D01*
X11618082Y47443280D01*
X11537211Y47378051D01*
X11457455Y47313837D01*
X11380505Y47252004D01*
X11308057Y47193919D01*
X11241804Y47140946D01*
X11183439Y47094454D01*
X11134656Y47055807D01*
X11097149Y47026371D01*
X11072611Y47007514D01*
X11062737Y47000600D01*
X11062676Y47000591D01*
X11065094Y47009985D01*
X11073251Y47035753D01*
X11085964Y47074270D01*
X11102047Y47121906D01*
X11107145Y47136829D01*
X11174990Y47319016D01*
X11255800Y47508960D01*
X11346989Y47701629D01*
X11445973Y47891988D01*
X11550166Y48075005D01*
X11656982Y48245644D01*
X11735154Y48359538D01*
X11777055Y48414097D01*
X11827455Y48473602D01*
X11882644Y48534201D01*
X11938911Y48592042D01*
X11992548Y48643271D01*
X12039844Y48684036D01*
X12066982Y48704142D01*
X12099390Y48725038D01*
X12125119Y48740253D01*
X12139043Y48746775D01*
X12139584Y48746833D01*
X12146865Y48738087D01*
X12162560Y48713936D01*
X12184866Y48677516D01*
X12211982Y48631963D01*
X12242105Y48580412D01*
X12273436Y48525997D01*
X12304171Y48471854D01*
X12332510Y48421119D01*
X12356651Y48376925D01*
X12374792Y48342409D01*
X12385133Y48320705D01*
X12386392Y48317326D01*
X12387570Y48284601D01*
X12540168Y48284601D01*
X12539488Y48316648D01*
X12535958Y48434625D01*
X12265047Y48911427D01*
X12051445Y48911427D01*
X12043768Y48901743D01*
X12021400Y48886911D01*
X11989122Y48870084D01*
X11987945Y48869532D01*
X11958510Y48853916D01*
X11928260Y48833439D01*
X11894035Y48805483D01*
X11852674Y48767429D01*
X11801017Y48716661D01*
X11789833Y48705418D01*
X11693022Y48600980D01*
X11599908Y48486114D01*
X11509019Y48358651D01*
X11418885Y48216420D01*
X11328033Y48057252D01*
X11251696Y47912042D01*
X11166341Y47739096D01*
X11093063Y47579123D01*
X11030526Y47428723D01*
X10977396Y47284493D01*
X10932335Y47143033D01*
X10894227Y47001825D01*
X10880411Y46946819D01*
X10867896Y46898743D01*
X10857739Y46861534D01*
X10851001Y46839130D01*
X10849327Y46834852D01*
X10839398Y46824871D01*
X10815385Y46803841D01*
X10779791Y46773862D01*
X10735121Y46737032D01*
X10683878Y46695449D01*
X10662708Y46678442D01*
X10598584Y46627642D01*
X10548760Y46589570D01*
X10511561Y46563072D01*
X10485309Y46546996D01*
X10468327Y46540188D01*
X10461625Y46540140D01*
X10440660Y46545804D01*
X10406911Y46554806D01*
X10371667Y46564145D01*
X10349174Y46569351D01*
X10323751Y46573475D01*
X10292791Y46576631D01*
X10253687Y46578933D01*
X10203833Y46580494D01*
X10140623Y46581427D01*
X10061448Y46581845D01*
X9964208Y46581863D01*
X9869317Y46581652D01*
X9792843Y46581198D01*
X9732035Y46580346D01*
X9684143Y46578943D01*
X9646419Y46576835D01*
X9616110Y46573866D01*
X9590469Y46569884D01*
X9566744Y46564733D01*
X9542185Y46558260D01*
X9541929Y46558189D01*
X9499809Y46547919D01*
X9466908Y46542642D01*
X9448201Y46543104D01*
X9446679Y46543890D01*
X9409206Y46573006D01*
X9364665Y46608228D01*
X9315870Y46647260D01*
X9265641Y46687803D01*
X9216792Y46727562D01*
X9172142Y46764241D01*
X9134507Y46795541D01*
X9106704Y46819168D01*
X9091550Y46832823D01*
X9089673Y46834957D01*
X9084889Y46849084D01*
X9076194Y46879853D01*
X9064647Y46923329D01*
X9051306Y46975579D01*
X9044773Y47001825D01*
X9043069Y47008136D01*
X8867514Y47008136D01*
X8866183Y47008298D01*
X8855749Y47016595D01*
X8830256Y47036941D01*
X8791173Y47068163D01*
X8739968Y47109085D01*
X8678109Y47158535D01*
X8607067Y47215338D01*
X8528309Y47278320D01*
X8443304Y47346306D01*
X8353521Y47418124D01*
X8350250Y47420741D01*
X8236630Y47511779D01*
X8138288Y47590978D01*
X8053846Y47659560D01*
X7981931Y47718754D01*
X7921167Y47769784D01*
X7870178Y47813876D01*
X7827590Y47852255D01*
X7792026Y47886147D01*
X7762111Y47916779D01*
X7736471Y47945374D01*
X7713730Y47973160D01*
X7692512Y48001362D01*
X7681634Y48016583D01*
X7642595Y48076480D01*
X7608518Y48137373D01*
X7580961Y48195634D01*
X7561478Y48247638D01*
X7551626Y48289758D01*
X7552608Y48317326D01*
X7560417Y48334841D01*
X7576536Y48366054D01*
X7599164Y48407831D01*
X7626500Y48457035D01*
X7656740Y48510533D01*
X7688085Y48565189D01*
X7718733Y48617867D01*
X7746881Y48665433D01*
X7770729Y48704751D01*
X7788474Y48732687D01*
X7798316Y48746105D01*
X7799417Y48746833D01*
X7811897Y48741334D01*
X7836687Y48726843D01*
X7868664Y48706375D01*
X7872019Y48704142D01*
X7912734Y48672903D01*
X7962365Y48628526D01*
X8017200Y48574865D01*
X8073531Y48515772D01*
X8127648Y48455098D01*
X8175842Y48396697D01*
X8203847Y48359538D01*
X8311404Y48200418D01*
X8418150Y48025232D01*
X8521504Y47839007D01*
X8618886Y47646770D01*
X8707713Y47453547D01*
X8785406Y47264366D01*
X8832298Y47135536D01*
X8848325Y47086849D01*
X8860112Y47047226D01*
X8866796Y47019908D01*
X8867514Y47008136D01*
X9043069Y47008136D01*
X9006410Y47143902D01*
X8961304Y47285368D01*
X8908119Y47429626D01*
X8845521Y47580075D01*
X8772173Y47740117D01*
X8687304Y47912042D01*
X8594758Y48086774D01*
X8504141Y48242784D01*
X8413980Y48382241D01*
X8322804Y48507315D01*
X8229143Y48620176D01*
X8149167Y48705418D01*
X8095208Y48758885D01*
X8052143Y48799142D01*
X8016810Y48828806D01*
X7986051Y48850497D01*
X7956705Y48866831D01*
X7951056Y48869532D01*
X7918532Y48886371D01*
X7895762Y48901320D01*
X7887525Y48911223D01*
X7887556Y48911427D01*
X7893137Y48922834D01*
X7908048Y48950564D01*
X7931139Y48992547D01*
X7961257Y49046715D01*
X7997254Y49111001D01*
X8037977Y49183337D01*
X8082277Y49261654D01*
X8090726Y49276552D01*
X8142669Y49368813D01*
X8190720Y49455850D01*
X8236464Y49540770D01*
X8281490Y49626683D01*
X8327385Y49716696D01*
X8375734Y49813917D01*
X8428125Y49921455D01*
X8486145Y50042417D01*
X8544332Y50165000D01*
X8593209Y50268444D01*
X8640820Y50369381D01*
X8686121Y50465588D01*
X8728071Y50554846D01*
X8765628Y50634933D01*
X8797750Y50703628D01*
X8823393Y50758710D01*
X8841517Y50797959D01*
X8847267Y50810583D01*
X8872469Y50865500D01*
X8899578Y50923134D01*
X8924593Y50975037D01*
X8937178Y51000399D01*
X8976908Y51079090D01*
X8996468Y51053316D01*
X9007803Y51035414D01*
X9026623Y51002416D01*
X9050845Y50958108D01*
X9078390Y50906276D01*
X9097891Y50868792D01*
X9125740Y50815351D01*
X9150896Y50768132D01*
X9171506Y50730529D01*
X9185721Y50705934D01*
X9190981Y50698159D01*
X9198417Y50686631D01*
X9215023Y50658607D01*
X9239660Y50616078D01*
X9271191Y50561034D01*
X9308477Y50495467D01*
X9350381Y50421367D01*
X9395763Y50340725D01*
X9419167Y50298996D01*
X9636125Y49911715D01*
X9696463Y49911358D01*
X9743237Y49914156D01*
X9794333Y49921674D01*
X9817749Y49926875D01*
X9878306Y49937402D01*
X9950177Y49941942D01*
X10024372Y49940497D01*
X10091902Y49933066D01*
X10121251Y49926875D01*
X10168266Y49917674D01*
X10219288Y49912127D01*
X10242537Y49911358D01*
X10302875Y49911715D01*
X10519833Y50298996D01*
X10566517Y50382139D01*
X10610286Y50459727D01*
X10650000Y50529767D01*
X10684522Y50590269D01*
X10712714Y50639243D01*
X10733438Y50674696D01*
X10745556Y50694639D01*
X10748019Y50698159D01*
X10756427Y50711176D01*
X10772575Y50739667D01*
X10794614Y50780238D01*
X10820690Y50829497D01*
X10841110Y50868792D01*
X10869723Y50923571D01*
X10896425Y50973392D01*
X10919133Y51014469D01*
X10935768Y51043015D01*
X10942532Y51053316D01*
X10962092Y51079090D01*
X11001822Y51000399D01*
X11023572Y50956194D01*
X11049872Y50901074D01*
X11076718Y50843489D01*
X11091733Y50810583D01*
X11105853Y50779775D01*
X11127996Y50732061D01*
X11157120Y50669661D01*
X11192182Y50594797D01*
X11232141Y50509690D01*
X11275955Y50416561D01*
X11322581Y50317631D01*
X11370976Y50215120D01*
X11394669Y50165000D01*
X11459093Y50029339D01*
X11516465Y49909892D01*
X11568370Y49803553D01*
X11616395Y49707211D01*
X11662128Y49617760D01*
X11707155Y49532092D01*
X11753063Y49447097D01*
X11801438Y49359669D01*
X11848274Y49276552D01*
X11893106Y49197359D01*
X11934574Y49123768D01*
X11971527Y49057846D01*
X12002813Y49001660D01*
X12027283Y48957280D01*
X12043786Y48926773D01*
X12051170Y48912206D01*
X12051445Y48911427D01*
X12265047Y48911427D01*
X12166141Y49085500D01*
X12102839Y49196944D01*
X12046340Y49296607D01*
X11995670Y49386396D01*
X11949858Y49468214D01*
X11907930Y49543969D01*
X11868912Y49615565D01*
X11831832Y49684908D01*
X11795717Y49753903D01*
X11759593Y49824456D01*
X11722488Y49898472D01*
X11683428Y49977856D01*
X11641441Y50064514D01*
X11595553Y50160352D01*
X11544791Y50267275D01*
X11488182Y50387188D01*
X11424753Y50521996D01*
X11353531Y50673606D01*
X11335361Y50712298D01*
X11291228Y50805775D01*
X11248828Y50894625D01*
X11209197Y50976747D01*
X11173368Y51050040D01*
X11142377Y51112402D01*
X11117257Y51161732D01*
X11099043Y51195929D01*
X11089171Y51212361D01*
X11057752Y51255083D01*
X10871547Y51255083D01*
X10835136Y51214781D01*
D11*
G36*
X15419293Y3441366D02*
X15591696Y3389068D01*
X15750583Y3304141D01*
X15889849Y3189849D01*
X16004141Y3050583D01*
X16089068Y2891696D01*
X16141366Y2719293D01*
X16159025Y2540000D01*
X16141366Y2360707D01*
X16089068Y2188304D01*
X16004141Y2029417D01*
X15889849Y1890151D01*
X15750583Y1775859D01*
X15591696Y1690932D01*
X15419293Y1638634D01*
X15284927Y1625400D01*
X15195073Y1625400D01*
X15060707Y1638634D01*
X14888304Y1690932D01*
X14729417Y1775859D01*
X14590151Y1890151D01*
X14475859Y2029417D01*
X14390932Y2188304D01*
X14338634Y2360707D01*
X14320975Y2540000D01*
X14338634Y2719293D01*
X14390932Y2891696D01*
X14475859Y3050583D01*
X14590151Y3189849D01*
X14729417Y3304141D01*
X14888304Y3389068D01*
X15060707Y3441366D01*
X15195073Y3454600D01*
X15284927Y3454600D01*
X15419293Y3441366D01*
X15419293Y3441366D01*
G37*
G36*
X12879293Y3441366D02*
X13051696Y3389068D01*
X13210583Y3304141D01*
X13349849Y3189849D01*
X13464141Y3050583D01*
X13549068Y2891696D01*
X13601366Y2719293D01*
X13619025Y2540000D01*
X13601366Y2360707D01*
X13549068Y2188304D01*
X13464141Y2029417D01*
X13349849Y1890151D01*
X13210583Y1775859D01*
X13051696Y1690932D01*
X12879293Y1638634D01*
X12744927Y1625400D01*
X12655073Y1625400D01*
X12520707Y1638634D01*
X12348304Y1690932D01*
X12189417Y1775859D01*
X12050151Y1890151D01*
X11935859Y2029417D01*
X11850932Y2188304D01*
X11798634Y2360707D01*
X11780975Y2540000D01*
X11798634Y2719293D01*
X11850932Y2891696D01*
X11935859Y3050583D01*
X12050151Y3189849D01*
X12189417Y3304141D01*
X12348304Y3389068D01*
X12520707Y3441366D01*
X12655073Y3454600D01*
X12744927Y3454600D01*
X12879293Y3441366D01*
X12879293Y3441366D01*
G37*
G36*
X10339293Y3441366D02*
X10511696Y3389068D01*
X10670583Y3304141D01*
X10809849Y3189849D01*
X10924141Y3050583D01*
X11009068Y2891696D01*
X11061366Y2719293D01*
X11079025Y2540000D01*
X11061366Y2360707D01*
X11009068Y2188304D01*
X10924141Y2029417D01*
X10809849Y1890151D01*
X10670583Y1775859D01*
X10511696Y1690932D01*
X10339293Y1638634D01*
X10204927Y1625400D01*
X10115073Y1625400D01*
X9980707Y1638634D01*
X9808304Y1690932D01*
X9649417Y1775859D01*
X9510151Y1890151D01*
X9395859Y2029417D01*
X9310932Y2188304D01*
X9258634Y2360707D01*
X9240975Y2540000D01*
X9258634Y2719293D01*
X9310932Y2891696D01*
X9395859Y3050583D01*
X9510151Y3189849D01*
X9649417Y3304141D01*
X9808304Y3389068D01*
X9980707Y3441366D01*
X10115073Y3454600D01*
X10204927Y3454600D01*
X10339293Y3441366D01*
X10339293Y3441366D01*
G37*
G36*
X5994600Y1625400D02*
X4165400Y1625400D01*
X4165400Y3454600D01*
X5994600Y3454600D01*
X5994600Y1625400D01*
X5994600Y1625400D01*
G37*
G36*
X7799293Y3441366D02*
X7971696Y3389068D01*
X8130583Y3304141D01*
X8269849Y3189849D01*
X8384141Y3050583D01*
X8469068Y2891696D01*
X8521366Y2719293D01*
X8539025Y2540000D01*
X8521366Y2360707D01*
X8469068Y2188304D01*
X8384141Y2029417D01*
X8269849Y1890151D01*
X8130583Y1775859D01*
X7971696Y1690932D01*
X7799293Y1638634D01*
X7664927Y1625400D01*
X7575073Y1625400D01*
X7440707Y1638634D01*
X7268304Y1690932D01*
X7109417Y1775859D01*
X6970151Y1890151D01*
X6855859Y2029417D01*
X6770932Y2188304D01*
X6718634Y2360707D01*
X6700975Y2540000D01*
X6718634Y2719293D01*
X6770932Y2891696D01*
X6855859Y3050583D01*
X6970151Y3189849D01*
X7109417Y3304141D01*
X7268304Y3389068D01*
X7440707Y3441366D01*
X7575073Y3454600D01*
X7664927Y3454600D01*
X7799293Y3441366D01*
X7799293Y3441366D01*
G37*
G36*
X7799293Y5981366D02*
X7971696Y5929068D01*
X8130583Y5844141D01*
X8269849Y5729849D01*
X8384141Y5590583D01*
X8469068Y5431696D01*
X8521366Y5259293D01*
X8539025Y5080000D01*
X8521366Y4900707D01*
X8469068Y4728304D01*
X8384141Y4569417D01*
X8269849Y4430151D01*
X8130583Y4315859D01*
X7971696Y4230932D01*
X7799293Y4178634D01*
X7664927Y4165400D01*
X7575073Y4165400D01*
X7440707Y4178634D01*
X7268304Y4230932D01*
X7109417Y4315859D01*
X6970151Y4430151D01*
X6855859Y4569417D01*
X6770932Y4728304D01*
X6718634Y4900707D01*
X6700975Y5080000D01*
X6718634Y5259293D01*
X6770932Y5431696D01*
X6855859Y5590583D01*
X6970151Y5729849D01*
X7109417Y5844141D01*
X7268304Y5929068D01*
X7440707Y5981366D01*
X7575073Y5994600D01*
X7664927Y5994600D01*
X7799293Y5981366D01*
X7799293Y5981366D01*
G37*
G36*
X5259293Y5981366D02*
X5431696Y5929068D01*
X5590583Y5844141D01*
X5729849Y5729849D01*
X5844141Y5590583D01*
X5929068Y5431696D01*
X5981366Y5259293D01*
X5999025Y5080000D01*
X5981366Y4900707D01*
X5929068Y4728304D01*
X5844141Y4569417D01*
X5729849Y4430151D01*
X5590583Y4315859D01*
X5431696Y4230932D01*
X5259293Y4178634D01*
X5124927Y4165400D01*
X5035073Y4165400D01*
X4900707Y4178634D01*
X4728304Y4230932D01*
X4569417Y4315859D01*
X4430151Y4430151D01*
X4315859Y4569417D01*
X4230932Y4728304D01*
X4178634Y4900707D01*
X4160975Y5080000D01*
X4178634Y5259293D01*
X4230932Y5431696D01*
X4315859Y5590583D01*
X4430151Y5729849D01*
X4569417Y5844141D01*
X4728304Y5929068D01*
X4900707Y5981366D01*
X5035073Y5994600D01*
X5124927Y5994600D01*
X5259293Y5981366D01*
X5259293Y5981366D01*
G37*
G36*
X12879293Y5981366D02*
X13051696Y5929068D01*
X13210583Y5844141D01*
X13349849Y5729849D01*
X13464141Y5590583D01*
X13549068Y5431696D01*
X13601366Y5259293D01*
X13619025Y5080000D01*
X13601366Y4900707D01*
X13549068Y4728304D01*
X13464141Y4569417D01*
X13349849Y4430151D01*
X13210583Y4315859D01*
X13051696Y4230932D01*
X12879293Y4178634D01*
X12744927Y4165400D01*
X12655073Y4165400D01*
X12520707Y4178634D01*
X12348304Y4230932D01*
X12189417Y4315859D01*
X12050151Y4430151D01*
X11935859Y4569417D01*
X11850932Y4728304D01*
X11798634Y4900707D01*
X11780975Y5080000D01*
X11798634Y5259293D01*
X11850932Y5431696D01*
X11935859Y5590583D01*
X12050151Y5729849D01*
X12189417Y5844141D01*
X12348304Y5929068D01*
X12520707Y5981366D01*
X12655073Y5994600D01*
X12744927Y5994600D01*
X12879293Y5981366D01*
X12879293Y5981366D01*
G37*
G36*
X10339293Y5981366D02*
X10511696Y5929068D01*
X10670583Y5844141D01*
X10809849Y5729849D01*
X10924141Y5590583D01*
X11009068Y5431696D01*
X11061366Y5259293D01*
X11079025Y5080000D01*
X11061366Y4900707D01*
X11009068Y4728304D01*
X10924141Y4569417D01*
X10809849Y4430151D01*
X10670583Y4315859D01*
X10511696Y4230932D01*
X10339293Y4178634D01*
X10204927Y4165400D01*
X10115073Y4165400D01*
X9980707Y4178634D01*
X9808304Y4230932D01*
X9649417Y4315859D01*
X9510151Y4430151D01*
X9395859Y4569417D01*
X9310932Y4728304D01*
X9258634Y4900707D01*
X9240975Y5080000D01*
X9258634Y5259293D01*
X9310932Y5431696D01*
X9395859Y5590583D01*
X9510151Y5729849D01*
X9649417Y5844141D01*
X9808304Y5929068D01*
X9980707Y5981366D01*
X10115073Y5994600D01*
X10204927Y5994600D01*
X10339293Y5981366D01*
X10339293Y5981366D01*
G37*
G36*
X15419293Y5981366D02*
X15591696Y5929068D01*
X15750583Y5844141D01*
X15889849Y5729849D01*
X16004141Y5590583D01*
X16089068Y5431696D01*
X16141366Y5259293D01*
X16159025Y5080000D01*
X16141366Y4900707D01*
X16089068Y4728304D01*
X16004141Y4569417D01*
X15889849Y4430151D01*
X15750583Y4315859D01*
X15591696Y4230932D01*
X15419293Y4178634D01*
X15284927Y4165400D01*
X15195073Y4165400D01*
X15060707Y4178634D01*
X14888304Y4230932D01*
X14729417Y4315859D01*
X14590151Y4430151D01*
X14475859Y4569417D01*
X14390932Y4728304D01*
X14338634Y4900707D01*
X14320975Y5080000D01*
X14338634Y5259293D01*
X14390932Y5431696D01*
X14475859Y5590583D01*
X14590151Y5729849D01*
X14729417Y5844141D01*
X14888304Y5929068D01*
X15060707Y5981366D01*
X15195073Y5994600D01*
X15284927Y5994600D01*
X15419293Y5981366D01*
X15419293Y5981366D01*
G37*
G36*
X8977795Y8544434D02*
X9032576Y8521743D01*
X9081879Y8488800D01*
X9123800Y8446879D01*
X9156743Y8397576D01*
X9179434Y8342795D01*
X9191000Y8284649D01*
X9191000Y8225351D01*
X9179434Y8167205D01*
X9156743Y8112424D01*
X9123800Y8063121D01*
X9081879Y8021200D01*
X9032576Y7988257D01*
X8977795Y7965566D01*
X8919649Y7954000D01*
X8860351Y7954000D01*
X8802205Y7965566D01*
X8747424Y7988257D01*
X8698121Y8021200D01*
X8656200Y8063121D01*
X8623257Y8112424D01*
X8600566Y8167205D01*
X8589000Y8225351D01*
X8589000Y8284649D01*
X8600566Y8342795D01*
X8623257Y8397576D01*
X8656200Y8446879D01*
X8698121Y8488800D01*
X8747424Y8521743D01*
X8802205Y8544434D01*
X8860351Y8556000D01*
X8919649Y8556000D01*
X8977795Y8544434D01*
X8977795Y8544434D01*
G37*
G36*
X3897795Y8544434D02*
X3952576Y8521743D01*
X4001879Y8488800D01*
X4043800Y8446879D01*
X4076743Y8397576D01*
X4099434Y8342795D01*
X4111000Y8284649D01*
X4111000Y8225351D01*
X4099434Y8167205D01*
X4076743Y8112424D01*
X4043800Y8063121D01*
X4001879Y8021200D01*
X3952576Y7988257D01*
X3897795Y7965566D01*
X3839649Y7954000D01*
X3780351Y7954000D01*
X3722205Y7965566D01*
X3667424Y7988257D01*
X3618121Y8021200D01*
X3576200Y8063121D01*
X3543257Y8112424D01*
X3520566Y8167205D01*
X3509000Y8225351D01*
X3509000Y8284649D01*
X3520566Y8342795D01*
X3543257Y8397576D01*
X3576200Y8446879D01*
X3618121Y8488800D01*
X3667424Y8521743D01*
X3722205Y8544434D01*
X3780351Y8556000D01*
X3839649Y8556000D01*
X3897795Y8544434D01*
X3897795Y8544434D01*
G37*
G36*
X6437795Y8544434D02*
X6492576Y8521743D01*
X6541879Y8488800D01*
X6583800Y8446879D01*
X6616743Y8397576D01*
X6639434Y8342795D01*
X6651000Y8284649D01*
X6651000Y8225351D01*
X6639434Y8167205D01*
X6616743Y8112424D01*
X6583800Y8063121D01*
X6541879Y8021200D01*
X6492576Y7988257D01*
X6437795Y7965566D01*
X6379649Y7954000D01*
X6320351Y7954000D01*
X6262205Y7965566D01*
X6207424Y7988257D01*
X6158121Y8021200D01*
X6116200Y8063121D01*
X6083257Y8112424D01*
X6060566Y8167205D01*
X6049000Y8225351D01*
X6049000Y8284649D01*
X6060566Y8342795D01*
X6083257Y8397576D01*
X6116200Y8446879D01*
X6158121Y8488800D01*
X6207424Y8521743D01*
X6262205Y8544434D01*
X6320351Y8556000D01*
X6379649Y8556000D01*
X6437795Y8544434D01*
X6437795Y8544434D01*
G37*
G36*
X11517795Y8544434D02*
X11572576Y8521743D01*
X11621879Y8488800D01*
X11663800Y8446879D01*
X11696743Y8397576D01*
X11719434Y8342795D01*
X11731000Y8284649D01*
X11731000Y8225351D01*
X11719434Y8167205D01*
X11696743Y8112424D01*
X11663800Y8063121D01*
X11621879Y8021200D01*
X11572576Y7988257D01*
X11517795Y7965566D01*
X11459649Y7954000D01*
X11400351Y7954000D01*
X11342205Y7965566D01*
X11287424Y7988257D01*
X11238121Y8021200D01*
X11196200Y8063121D01*
X11163257Y8112424D01*
X11140566Y8167205D01*
X11129000Y8225351D01*
X11129000Y8284649D01*
X11140566Y8342795D01*
X11163257Y8397576D01*
X11196200Y8446879D01*
X11238121Y8488800D01*
X11287424Y8521743D01*
X11342205Y8544434D01*
X11400351Y8556000D01*
X11459649Y8556000D01*
X11517795Y8544434D01*
X11517795Y8544434D01*
G37*
G36*
X14057795Y8544434D02*
X14112576Y8521743D01*
X14161879Y8488800D01*
X14203800Y8446879D01*
X14236743Y8397576D01*
X14259434Y8342795D01*
X14271000Y8284649D01*
X14271000Y8225351D01*
X14259434Y8167205D01*
X14236743Y8112424D01*
X14203800Y8063121D01*
X14161879Y8021200D01*
X14112576Y7988257D01*
X14057795Y7965566D01*
X13999649Y7954000D01*
X13940351Y7954000D01*
X13882205Y7965566D01*
X13827424Y7988257D01*
X13778121Y8021200D01*
X13736200Y8063121D01*
X13703257Y8112424D01*
X13680566Y8167205D01*
X13669000Y8225351D01*
X13669000Y8284649D01*
X13680566Y8342795D01*
X13703257Y8397576D01*
X13736200Y8446879D01*
X13778121Y8488800D01*
X13827424Y8521743D01*
X13882205Y8544434D01*
X13940351Y8556000D01*
X13999649Y8556000D01*
X14057795Y8544434D01*
X14057795Y8544434D01*
G37*
G36*
X16597795Y8544434D02*
X16652576Y8521743D01*
X16701879Y8488800D01*
X16743800Y8446879D01*
X16776743Y8397576D01*
X16799434Y8342795D01*
X16811000Y8284649D01*
X16811000Y8225351D01*
X16799434Y8167205D01*
X16776743Y8112424D01*
X16743800Y8063121D01*
X16701879Y8021200D01*
X16652576Y7988257D01*
X16597795Y7965566D01*
X16539649Y7954000D01*
X16480351Y7954000D01*
X16422205Y7965566D01*
X16367424Y7988257D01*
X16318121Y8021200D01*
X16276200Y8063121D01*
X16243257Y8112424D01*
X16220566Y8167205D01*
X16209000Y8225351D01*
X16209000Y8284649D01*
X16220566Y8342795D01*
X16243257Y8397576D01*
X16276200Y8446879D01*
X16318121Y8488800D01*
X16367424Y8521743D01*
X16422205Y8544434D01*
X16480351Y8556000D01*
X16539649Y8556000D01*
X16597795Y8544434D01*
X16597795Y8544434D01*
G37*
G36*
X1406916Y11051874D02*
X1446627Y11047963D01*
X1616466Y10996443D01*
X1772992Y10912778D01*
X1910186Y10800186D01*
X2022778Y10662992D01*
X2106443Y10506466D01*
X2157963Y10336627D01*
X2157963Y10336624D01*
X2175360Y10160000D01*
X2161931Y10023660D01*
X2157963Y9983373D01*
X2106443Y9813534D01*
X2022778Y9657008D01*
X1910186Y9519814D01*
X1772992Y9407222D01*
X1616466Y9323557D01*
X1446627Y9272037D01*
X1406916Y9268126D01*
X1314265Y9259000D01*
X1225735Y9259000D01*
X1133084Y9268126D01*
X1093373Y9272037D01*
X923534Y9323557D01*
X767008Y9407222D01*
X629814Y9519814D01*
X517222Y9657008D01*
X433557Y9813534D01*
X382037Y9983373D01*
X378069Y10023660D01*
X364640Y10160000D01*
X382037Y10336624D01*
X382037Y10336627D01*
X433557Y10506466D01*
X517222Y10662992D01*
X629814Y10800186D01*
X767008Y10912778D01*
X923534Y10996443D01*
X1093373Y11047963D01*
X1133084Y11051874D01*
X1225735Y11061000D01*
X1314265Y11061000D01*
X1406916Y11051874D01*
X1406916Y11051874D01*
G37*
G36*
X19186916Y11051874D02*
X19226627Y11047963D01*
X19396466Y10996443D01*
X19552992Y10912778D01*
X19690186Y10800186D01*
X19802778Y10662992D01*
X19886443Y10506466D01*
X19937963Y10336627D01*
X19937963Y10336624D01*
X19955360Y10160000D01*
X19941931Y10023660D01*
X19937963Y9983373D01*
X19886443Y9813534D01*
X19802778Y9657008D01*
X19690186Y9519814D01*
X19552992Y9407222D01*
X19396466Y9323557D01*
X19226627Y9272037D01*
X19186916Y9268126D01*
X19094265Y9259000D01*
X19005735Y9259000D01*
X18913084Y9268126D01*
X18873373Y9272037D01*
X18703534Y9323557D01*
X18547008Y9407222D01*
X18409814Y9519814D01*
X18297222Y9657008D01*
X18213557Y9813534D01*
X18162037Y9983373D01*
X18158069Y10023660D01*
X18144640Y10160000D01*
X18162037Y10336624D01*
X18162037Y10336627D01*
X18213557Y10506466D01*
X18297222Y10662992D01*
X18409814Y10800186D01*
X18547008Y10912778D01*
X18703534Y10996443D01*
X18873373Y11047963D01*
X18913084Y11051874D01*
X19005735Y11061000D01*
X19094265Y11061000D01*
X19186916Y11051874D01*
X19186916Y11051874D01*
G37*
G36*
X19186916Y13591874D02*
X19226627Y13587963D01*
X19396466Y13536443D01*
X19552992Y13452778D01*
X19690186Y13340186D01*
X19802778Y13202992D01*
X19886443Y13046466D01*
X19937963Y12876627D01*
X19937963Y12876624D01*
X19955360Y12700000D01*
X19941931Y12563660D01*
X19937963Y12523373D01*
X19886443Y12353534D01*
X19802778Y12197008D01*
X19690186Y12059814D01*
X19552992Y11947222D01*
X19396466Y11863557D01*
X19226627Y11812037D01*
X19186916Y11808126D01*
X19094265Y11799000D01*
X19005735Y11799000D01*
X18913084Y11808126D01*
X18873373Y11812037D01*
X18703534Y11863557D01*
X18547008Y11947222D01*
X18409814Y12059814D01*
X18297222Y12197008D01*
X18213557Y12353534D01*
X18162037Y12523373D01*
X18158069Y12563660D01*
X18144640Y12700000D01*
X18162037Y12876624D01*
X18162037Y12876627D01*
X18213557Y13046466D01*
X18297222Y13202992D01*
X18409814Y13340186D01*
X18547008Y13452778D01*
X18703534Y13536443D01*
X18873373Y13587963D01*
X18913084Y13591874D01*
X19005735Y13601000D01*
X19094265Y13601000D01*
X19186916Y13591874D01*
X19186916Y13591874D01*
G37*
G36*
X1406916Y13591874D02*
X1446627Y13587963D01*
X1616466Y13536443D01*
X1772992Y13452778D01*
X1910186Y13340186D01*
X2022778Y13202992D01*
X2106443Y13046466D01*
X2157963Y12876627D01*
X2157963Y12876624D01*
X2175360Y12700000D01*
X2161931Y12563660D01*
X2157963Y12523373D01*
X2106443Y12353534D01*
X2022778Y12197008D01*
X1910186Y12059814D01*
X1772992Y11947222D01*
X1616466Y11863557D01*
X1446627Y11812037D01*
X1406916Y11808126D01*
X1314265Y11799000D01*
X1225735Y11799000D01*
X1133084Y11808126D01*
X1093373Y11812037D01*
X923534Y11863557D01*
X767008Y11947222D01*
X629814Y12059814D01*
X517222Y12197008D01*
X433557Y12353534D01*
X382037Y12523373D01*
X378069Y12563660D01*
X364640Y12700000D01*
X382037Y12876624D01*
X382037Y12876627D01*
X433557Y13046466D01*
X517222Y13202992D01*
X629814Y13340186D01*
X767008Y13452778D01*
X923534Y13536443D01*
X1093373Y13587963D01*
X1133084Y13591874D01*
X1225735Y13601000D01*
X1314265Y13601000D01*
X1406916Y13591874D01*
X1406916Y13591874D01*
G37*
G36*
X1406916Y16131874D02*
X1446627Y16127963D01*
X1616466Y16076443D01*
X1772992Y15992778D01*
X1910186Y15880186D01*
X2022778Y15742992D01*
X2106443Y15586466D01*
X2157963Y15416627D01*
X2157963Y15416624D01*
X2175360Y15240000D01*
X2161931Y15103660D01*
X2157963Y15063373D01*
X2106443Y14893534D01*
X2022778Y14737008D01*
X1910186Y14599814D01*
X1772992Y14487222D01*
X1616466Y14403557D01*
X1446627Y14352037D01*
X1406916Y14348126D01*
X1314265Y14339000D01*
X1225735Y14339000D01*
X1133084Y14348126D01*
X1093373Y14352037D01*
X923534Y14403557D01*
X767008Y14487222D01*
X629814Y14599814D01*
X517222Y14737008D01*
X433557Y14893534D01*
X382037Y15063373D01*
X378069Y15103660D01*
X364640Y15240000D01*
X382037Y15416624D01*
X382037Y15416627D01*
X433557Y15586466D01*
X517222Y15742992D01*
X629814Y15880186D01*
X767008Y15992778D01*
X923534Y16076443D01*
X1093373Y16127963D01*
X1133084Y16131874D01*
X1225735Y16141000D01*
X1314265Y16141000D01*
X1406916Y16131874D01*
X1406916Y16131874D01*
G37*
G36*
X19186916Y16131874D02*
X19226627Y16127963D01*
X19396466Y16076443D01*
X19552992Y15992778D01*
X19690186Y15880186D01*
X19802778Y15742992D01*
X19886443Y15586466D01*
X19937963Y15416627D01*
X19937963Y15416624D01*
X19955360Y15240000D01*
X19941931Y15103660D01*
X19937963Y15063373D01*
X19886443Y14893534D01*
X19802778Y14737008D01*
X19690186Y14599814D01*
X19552992Y14487222D01*
X19396466Y14403557D01*
X19226627Y14352037D01*
X19186916Y14348126D01*
X19094265Y14339000D01*
X19005735Y14339000D01*
X18913084Y14348126D01*
X18873373Y14352037D01*
X18703534Y14403557D01*
X18547008Y14487222D01*
X18409814Y14599814D01*
X18297222Y14737008D01*
X18213557Y14893534D01*
X18162037Y15063373D01*
X18158069Y15103660D01*
X18144640Y15240000D01*
X18162037Y15416624D01*
X18162037Y15416627D01*
X18213557Y15586466D01*
X18297222Y15742992D01*
X18409814Y15880186D01*
X18547008Y15992778D01*
X18703534Y16076443D01*
X18873373Y16127963D01*
X18913084Y16131874D01*
X19005735Y16141000D01*
X19094265Y16141000D01*
X19186916Y16131874D01*
X19186916Y16131874D01*
G37*
G36*
X19186916Y18671874D02*
X19226627Y18667963D01*
X19396466Y18616443D01*
X19552992Y18532778D01*
X19690186Y18420186D01*
X19802778Y18282992D01*
X19886443Y18126466D01*
X19937963Y17956627D01*
X19937963Y17956624D01*
X19955360Y17780000D01*
X19941931Y17643660D01*
X19937963Y17603373D01*
X19886443Y17433534D01*
X19802778Y17277008D01*
X19690186Y17139814D01*
X19552992Y17027222D01*
X19396466Y16943557D01*
X19226627Y16892037D01*
X19186916Y16888126D01*
X19094265Y16879000D01*
X19005735Y16879000D01*
X18913084Y16888126D01*
X18873373Y16892037D01*
X18703534Y16943557D01*
X18547008Y17027222D01*
X18409814Y17139814D01*
X18297222Y17277008D01*
X18213557Y17433534D01*
X18162037Y17603373D01*
X18158069Y17643660D01*
X18144640Y17780000D01*
X18162037Y17956624D01*
X18162037Y17956627D01*
X18213557Y18126466D01*
X18297222Y18282992D01*
X18409814Y18420186D01*
X18547008Y18532778D01*
X18703534Y18616443D01*
X18873373Y18667963D01*
X18913084Y18671874D01*
X19005735Y18681000D01*
X19094265Y18681000D01*
X19186916Y18671874D01*
X19186916Y18671874D01*
G37*
G36*
X1406916Y18671874D02*
X1446627Y18667963D01*
X1616466Y18616443D01*
X1772992Y18532778D01*
X1910186Y18420186D01*
X2022778Y18282992D01*
X2106443Y18126466D01*
X2157963Y17956627D01*
X2157963Y17956624D01*
X2175360Y17780000D01*
X2161931Y17643660D01*
X2157963Y17603373D01*
X2106443Y17433534D01*
X2022778Y17277008D01*
X1910186Y17139814D01*
X1772992Y17027222D01*
X1616466Y16943557D01*
X1446627Y16892037D01*
X1406916Y16888126D01*
X1314265Y16879000D01*
X1225735Y16879000D01*
X1133084Y16888126D01*
X1093373Y16892037D01*
X923534Y16943557D01*
X767008Y17027222D01*
X629814Y17139814D01*
X517222Y17277008D01*
X433557Y17433534D01*
X382037Y17603373D01*
X378069Y17643660D01*
X364640Y17780000D01*
X382037Y17956624D01*
X382037Y17956627D01*
X433557Y18126466D01*
X517222Y18282992D01*
X629814Y18420186D01*
X767008Y18532778D01*
X923534Y18616443D01*
X1093373Y18667963D01*
X1133084Y18671874D01*
X1225735Y18681000D01*
X1314265Y18681000D01*
X1406916Y18671874D01*
X1406916Y18671874D01*
G37*
G36*
X19186916Y21211874D02*
X19226627Y21207963D01*
X19396466Y21156443D01*
X19552992Y21072778D01*
X19690186Y20960186D01*
X19802778Y20822992D01*
X19886443Y20666466D01*
X19937963Y20496627D01*
X19937963Y20496624D01*
X19955360Y20320000D01*
X19941931Y20183660D01*
X19937963Y20143373D01*
X19886443Y19973534D01*
X19802778Y19817008D01*
X19690186Y19679814D01*
X19552992Y19567222D01*
X19396466Y19483557D01*
X19226627Y19432037D01*
X19186916Y19428126D01*
X19094265Y19419000D01*
X19005735Y19419000D01*
X18913084Y19428126D01*
X18873373Y19432037D01*
X18703534Y19483557D01*
X18547008Y19567222D01*
X18409814Y19679814D01*
X18297222Y19817008D01*
X18213557Y19973534D01*
X18162037Y20143373D01*
X18158069Y20183660D01*
X18144640Y20320000D01*
X18162037Y20496624D01*
X18162037Y20496627D01*
X18213557Y20666466D01*
X18297222Y20822992D01*
X18409814Y20960186D01*
X18547008Y21072778D01*
X18703534Y21156443D01*
X18873373Y21207963D01*
X18913084Y21211874D01*
X19005735Y21221000D01*
X19094265Y21221000D01*
X19186916Y21211874D01*
X19186916Y21211874D01*
G37*
G36*
X1406916Y21211874D02*
X1446627Y21207963D01*
X1616466Y21156443D01*
X1772992Y21072778D01*
X1910186Y20960186D01*
X2022778Y20822992D01*
X2106443Y20666466D01*
X2157963Y20496627D01*
X2157963Y20496624D01*
X2175360Y20320000D01*
X2161931Y20183660D01*
X2157963Y20143373D01*
X2106443Y19973534D01*
X2022778Y19817008D01*
X1910186Y19679814D01*
X1772992Y19567222D01*
X1616466Y19483557D01*
X1446627Y19432037D01*
X1406916Y19428126D01*
X1314265Y19419000D01*
X1225735Y19419000D01*
X1133084Y19428126D01*
X1093373Y19432037D01*
X923534Y19483557D01*
X767008Y19567222D01*
X629814Y19679814D01*
X517222Y19817008D01*
X433557Y19973534D01*
X382037Y20143373D01*
X378069Y20183660D01*
X364640Y20320000D01*
X382037Y20496624D01*
X382037Y20496627D01*
X433557Y20666466D01*
X517222Y20822992D01*
X629814Y20960186D01*
X767008Y21072778D01*
X923534Y21156443D01*
X1093373Y21207963D01*
X1133084Y21211874D01*
X1225735Y21221000D01*
X1314265Y21221000D01*
X1406916Y21211874D01*
X1406916Y21211874D01*
G37*
G36*
X19186916Y23751874D02*
X19226627Y23747963D01*
X19396466Y23696443D01*
X19552992Y23612778D01*
X19690186Y23500186D01*
X19802778Y23362992D01*
X19886443Y23206466D01*
X19937963Y23036627D01*
X19937963Y23036624D01*
X19955360Y22860000D01*
X19941931Y22723660D01*
X19937963Y22683373D01*
X19886443Y22513534D01*
X19802778Y22357008D01*
X19690186Y22219814D01*
X19552992Y22107222D01*
X19396466Y22023557D01*
X19226627Y21972037D01*
X19186916Y21968126D01*
X19094265Y21959000D01*
X19005735Y21959000D01*
X18913084Y21968126D01*
X18873373Y21972037D01*
X18703534Y22023557D01*
X18547008Y22107222D01*
X18409814Y22219814D01*
X18297222Y22357008D01*
X18213557Y22513534D01*
X18162037Y22683373D01*
X18158069Y22723660D01*
X18144640Y22860000D01*
X18162037Y23036624D01*
X18162037Y23036627D01*
X18213557Y23206466D01*
X18297222Y23362992D01*
X18409814Y23500186D01*
X18547008Y23612778D01*
X18703534Y23696443D01*
X18873373Y23747963D01*
X18913084Y23751874D01*
X19005735Y23761000D01*
X19094265Y23761000D01*
X19186916Y23751874D01*
X19186916Y23751874D01*
G37*
G36*
X1406916Y23751874D02*
X1446627Y23747963D01*
X1616466Y23696443D01*
X1772992Y23612778D01*
X1910186Y23500186D01*
X2022778Y23362992D01*
X2106443Y23206466D01*
X2157963Y23036627D01*
X2157963Y23036624D01*
X2175360Y22860000D01*
X2161931Y22723660D01*
X2157963Y22683373D01*
X2106443Y22513534D01*
X2022778Y22357008D01*
X1910186Y22219814D01*
X1772992Y22107222D01*
X1616466Y22023557D01*
X1446627Y21972037D01*
X1406916Y21968126D01*
X1314265Y21959000D01*
X1225735Y21959000D01*
X1133084Y21968126D01*
X1093373Y21972037D01*
X923534Y22023557D01*
X767008Y22107222D01*
X629814Y22219814D01*
X517222Y22357008D01*
X433557Y22513534D01*
X382037Y22683373D01*
X378069Y22723660D01*
X364640Y22860000D01*
X382037Y23036624D01*
X382037Y23036627D01*
X433557Y23206466D01*
X517222Y23362992D01*
X629814Y23500186D01*
X767008Y23612778D01*
X923534Y23696443D01*
X1093373Y23747963D01*
X1133084Y23751874D01*
X1225735Y23761000D01*
X1314265Y23761000D01*
X1406916Y23751874D01*
X1406916Y23751874D01*
G37*
G36*
X19186916Y26291874D02*
X19226627Y26287963D01*
X19396466Y26236443D01*
X19552992Y26152778D01*
X19690186Y26040186D01*
X19802778Y25902992D01*
X19886443Y25746466D01*
X19937963Y25576627D01*
X19937963Y25576624D01*
X19955360Y25400000D01*
X19941931Y25263660D01*
X19937963Y25223373D01*
X19886443Y25053534D01*
X19802778Y24897008D01*
X19690186Y24759814D01*
X19552992Y24647222D01*
X19396466Y24563557D01*
X19226627Y24512037D01*
X19186916Y24508126D01*
X19094265Y24499000D01*
X19005735Y24499000D01*
X18913084Y24508126D01*
X18873373Y24512037D01*
X18703534Y24563557D01*
X18547008Y24647222D01*
X18409814Y24759814D01*
X18297222Y24897008D01*
X18213557Y25053534D01*
X18162037Y25223373D01*
X18158069Y25263660D01*
X18144640Y25400000D01*
X18162037Y25576624D01*
X18162037Y25576627D01*
X18213557Y25746466D01*
X18297222Y25902992D01*
X18409814Y26040186D01*
X18547008Y26152778D01*
X18703534Y26236443D01*
X18873373Y26287963D01*
X18913084Y26291874D01*
X19005735Y26301000D01*
X19094265Y26301000D01*
X19186916Y26291874D01*
X19186916Y26291874D01*
G37*
G36*
X1406916Y26291874D02*
X1446627Y26287963D01*
X1616466Y26236443D01*
X1772992Y26152778D01*
X1910186Y26040186D01*
X2022778Y25902992D01*
X2106443Y25746466D01*
X2157963Y25576627D01*
X2157963Y25576624D01*
X2175360Y25400000D01*
X2161931Y25263660D01*
X2157963Y25223373D01*
X2106443Y25053534D01*
X2022778Y24897008D01*
X1910186Y24759814D01*
X1772992Y24647222D01*
X1616466Y24563557D01*
X1446627Y24512037D01*
X1406916Y24508126D01*
X1314265Y24499000D01*
X1225735Y24499000D01*
X1133084Y24508126D01*
X1093373Y24512037D01*
X923534Y24563557D01*
X767008Y24647222D01*
X629814Y24759814D01*
X517222Y24897008D01*
X433557Y25053534D01*
X382037Y25223373D01*
X378069Y25263660D01*
X364640Y25400000D01*
X382037Y25576624D01*
X382037Y25576627D01*
X433557Y25746466D01*
X517222Y25902992D01*
X629814Y26040186D01*
X767008Y26152778D01*
X923534Y26236443D01*
X1093373Y26287963D01*
X1133084Y26291874D01*
X1225735Y26301000D01*
X1314265Y26301000D01*
X1406916Y26291874D01*
X1406916Y26291874D01*
G37*
G36*
X19186916Y28831874D02*
X19226627Y28827963D01*
X19396466Y28776443D01*
X19552992Y28692778D01*
X19690186Y28580186D01*
X19802778Y28442992D01*
X19886443Y28286466D01*
X19937963Y28116627D01*
X19937963Y28116624D01*
X19955360Y27940000D01*
X19941931Y27803660D01*
X19937963Y27763373D01*
X19886443Y27593534D01*
X19802778Y27437008D01*
X19690186Y27299814D01*
X19552992Y27187222D01*
X19396466Y27103557D01*
X19226627Y27052037D01*
X19186916Y27048126D01*
X19094265Y27039000D01*
X19005735Y27039000D01*
X18913084Y27048126D01*
X18873373Y27052037D01*
X18703534Y27103557D01*
X18547008Y27187222D01*
X18409814Y27299814D01*
X18297222Y27437008D01*
X18213557Y27593534D01*
X18162037Y27763373D01*
X18158069Y27803660D01*
X18144640Y27940000D01*
X18162037Y28116624D01*
X18162037Y28116627D01*
X18213557Y28286466D01*
X18297222Y28442992D01*
X18409814Y28580186D01*
X18547008Y28692778D01*
X18703534Y28776443D01*
X18873373Y28827963D01*
X18913084Y28831874D01*
X19005735Y28841000D01*
X19094265Y28841000D01*
X19186916Y28831874D01*
X19186916Y28831874D01*
G37*
G36*
X1406916Y28831874D02*
X1446627Y28827963D01*
X1616466Y28776443D01*
X1772992Y28692778D01*
X1910186Y28580186D01*
X2022778Y28442992D01*
X2106443Y28286466D01*
X2157963Y28116627D01*
X2157963Y28116624D01*
X2175360Y27940000D01*
X2161931Y27803660D01*
X2157963Y27763373D01*
X2106443Y27593534D01*
X2022778Y27437008D01*
X1910186Y27299814D01*
X1772992Y27187222D01*
X1616466Y27103557D01*
X1446627Y27052037D01*
X1406916Y27048126D01*
X1314265Y27039000D01*
X1225735Y27039000D01*
X1133084Y27048126D01*
X1093373Y27052037D01*
X923534Y27103557D01*
X767008Y27187222D01*
X629814Y27299814D01*
X517222Y27437008D01*
X433557Y27593534D01*
X382037Y27763373D01*
X378069Y27803660D01*
X364640Y27940000D01*
X382037Y28116624D01*
X382037Y28116627D01*
X433557Y28286466D01*
X517222Y28442992D01*
X629814Y28580186D01*
X767008Y28692778D01*
X923534Y28776443D01*
X1093373Y28827963D01*
X1133084Y28831874D01*
X1225735Y28841000D01*
X1314265Y28841000D01*
X1406916Y28831874D01*
X1406916Y28831874D01*
G37*
G36*
X1406916Y31371874D02*
X1446627Y31367963D01*
X1616466Y31316443D01*
X1772992Y31232778D01*
X1910186Y31120186D01*
X2022778Y30982992D01*
X2106443Y30826466D01*
X2157963Y30656627D01*
X2157963Y30656624D01*
X2175360Y30480000D01*
X2161931Y30343660D01*
X2157963Y30303373D01*
X2106443Y30133534D01*
X2022778Y29977008D01*
X1910186Y29839814D01*
X1772992Y29727222D01*
X1616466Y29643557D01*
X1446627Y29592037D01*
X1406916Y29588126D01*
X1314265Y29579000D01*
X1225735Y29579000D01*
X1133084Y29588126D01*
X1093373Y29592037D01*
X923534Y29643557D01*
X767008Y29727222D01*
X629814Y29839814D01*
X517222Y29977008D01*
X433557Y30133534D01*
X382037Y30303373D01*
X378069Y30343660D01*
X364640Y30480000D01*
X382037Y30656624D01*
X382037Y30656627D01*
X433557Y30826466D01*
X517222Y30982992D01*
X629814Y31120186D01*
X767008Y31232778D01*
X923534Y31316443D01*
X1093373Y31367963D01*
X1133084Y31371874D01*
X1225735Y31381000D01*
X1314265Y31381000D01*
X1406916Y31371874D01*
X1406916Y31371874D01*
G37*
G36*
X19186916Y31371874D02*
X19226627Y31367963D01*
X19396466Y31316443D01*
X19552992Y31232778D01*
X19690186Y31120186D01*
X19802778Y30982992D01*
X19886443Y30826466D01*
X19937963Y30656627D01*
X19937963Y30656624D01*
X19955360Y30480000D01*
X19941931Y30343660D01*
X19937963Y30303373D01*
X19886443Y30133534D01*
X19802778Y29977008D01*
X19690186Y29839814D01*
X19552992Y29727222D01*
X19396466Y29643557D01*
X19226627Y29592037D01*
X19186916Y29588126D01*
X19094265Y29579000D01*
X19005735Y29579000D01*
X18913084Y29588126D01*
X18873373Y29592037D01*
X18703534Y29643557D01*
X18547008Y29727222D01*
X18409814Y29839814D01*
X18297222Y29977008D01*
X18213557Y30133534D01*
X18162037Y30303373D01*
X18158069Y30343660D01*
X18144640Y30480000D01*
X18162037Y30656624D01*
X18162037Y30656627D01*
X18213557Y30826466D01*
X18297222Y30982992D01*
X18409814Y31120186D01*
X18547008Y31232778D01*
X18703534Y31316443D01*
X18873373Y31367963D01*
X18913084Y31371874D01*
X19005735Y31381000D01*
X19094265Y31381000D01*
X19186916Y31371874D01*
X19186916Y31371874D01*
G37*
G36*
X19186916Y33911874D02*
X19226627Y33907963D01*
X19396466Y33856443D01*
X19552992Y33772778D01*
X19690186Y33660186D01*
X19802778Y33522992D01*
X19886443Y33366466D01*
X19937963Y33196627D01*
X19937963Y33196624D01*
X19955360Y33020000D01*
X19941931Y32883660D01*
X19937963Y32843373D01*
X19886443Y32673534D01*
X19802778Y32517008D01*
X19690186Y32379814D01*
X19552992Y32267222D01*
X19396466Y32183557D01*
X19226627Y32132037D01*
X19186916Y32128126D01*
X19094265Y32119000D01*
X19005735Y32119000D01*
X18913084Y32128126D01*
X18873373Y32132037D01*
X18703534Y32183557D01*
X18547008Y32267222D01*
X18409814Y32379814D01*
X18297222Y32517008D01*
X18213557Y32673534D01*
X18162037Y32843373D01*
X18158069Y32883660D01*
X18144640Y33020000D01*
X18162037Y33196624D01*
X18162037Y33196627D01*
X18213557Y33366466D01*
X18297222Y33522992D01*
X18409814Y33660186D01*
X18547008Y33772778D01*
X18703534Y33856443D01*
X18873373Y33907963D01*
X18913084Y33911874D01*
X19005735Y33921000D01*
X19094265Y33921000D01*
X19186916Y33911874D01*
X19186916Y33911874D01*
G37*
G36*
X1406916Y33911874D02*
X1446627Y33907963D01*
X1616466Y33856443D01*
X1772992Y33772778D01*
X1910186Y33660186D01*
X2022778Y33522992D01*
X2106443Y33366466D01*
X2157963Y33196627D01*
X2157963Y33196624D01*
X2175360Y33020000D01*
X2161931Y32883660D01*
X2157963Y32843373D01*
X2106443Y32673534D01*
X2022778Y32517008D01*
X1910186Y32379814D01*
X1772992Y32267222D01*
X1616466Y32183557D01*
X1446627Y32132037D01*
X1406916Y32128126D01*
X1314265Y32119000D01*
X1225735Y32119000D01*
X1133084Y32128126D01*
X1093373Y32132037D01*
X923534Y32183557D01*
X767008Y32267222D01*
X629814Y32379814D01*
X517222Y32517008D01*
X433557Y32673534D01*
X382037Y32843373D01*
X378069Y32883660D01*
X364640Y33020000D01*
X382037Y33196624D01*
X382037Y33196627D01*
X433557Y33366466D01*
X517222Y33522992D01*
X629814Y33660186D01*
X767008Y33772778D01*
X923534Y33856443D01*
X1093373Y33907963D01*
X1133084Y33911874D01*
X1225735Y33921000D01*
X1314265Y33921000D01*
X1406916Y33911874D01*
X1406916Y33911874D01*
G37*
G36*
X1406916Y36451874D02*
X1446627Y36447963D01*
X1616466Y36396443D01*
X1772992Y36312778D01*
X1910186Y36200186D01*
X2022778Y36062992D01*
X2106443Y35906466D01*
X2157963Y35736627D01*
X2157963Y35736624D01*
X2175360Y35560000D01*
X2161931Y35423660D01*
X2157963Y35383373D01*
X2106443Y35213534D01*
X2022778Y35057008D01*
X1910186Y34919814D01*
X1772992Y34807222D01*
X1616466Y34723557D01*
X1446627Y34672037D01*
X1406916Y34668126D01*
X1314265Y34659000D01*
X1225735Y34659000D01*
X1133084Y34668126D01*
X1093373Y34672037D01*
X923534Y34723557D01*
X767008Y34807222D01*
X629814Y34919814D01*
X517222Y35057008D01*
X433557Y35213534D01*
X382037Y35383373D01*
X378069Y35423660D01*
X364640Y35560000D01*
X382037Y35736624D01*
X382037Y35736627D01*
X433557Y35906466D01*
X517222Y36062992D01*
X629814Y36200186D01*
X767008Y36312778D01*
X923534Y36396443D01*
X1093373Y36447963D01*
X1133084Y36451874D01*
X1225735Y36461000D01*
X1314265Y36461000D01*
X1406916Y36451874D01*
X1406916Y36451874D01*
G37*
G36*
X19186916Y36451874D02*
X19226627Y36447963D01*
X19396466Y36396443D01*
X19552992Y36312778D01*
X19690186Y36200186D01*
X19802778Y36062992D01*
X19886443Y35906466D01*
X19937963Y35736627D01*
X19937963Y35736624D01*
X19955360Y35560000D01*
X19941931Y35423660D01*
X19937963Y35383373D01*
X19886443Y35213534D01*
X19802778Y35057008D01*
X19690186Y34919814D01*
X19552992Y34807222D01*
X19396466Y34723557D01*
X19226627Y34672037D01*
X19186916Y34668126D01*
X19094265Y34659000D01*
X19005735Y34659000D01*
X18913084Y34668126D01*
X18873373Y34672037D01*
X18703534Y34723557D01*
X18547008Y34807222D01*
X18409814Y34919814D01*
X18297222Y35057008D01*
X18213557Y35213534D01*
X18162037Y35383373D01*
X18158069Y35423660D01*
X18144640Y35560000D01*
X18162037Y35736624D01*
X18162037Y35736627D01*
X18213557Y35906466D01*
X18297222Y36062992D01*
X18409814Y36200186D01*
X18547008Y36312778D01*
X18703534Y36396443D01*
X18873373Y36447963D01*
X18913084Y36451874D01*
X19005735Y36461000D01*
X19094265Y36461000D01*
X19186916Y36451874D01*
X19186916Y36451874D01*
G37*
G36*
X1406916Y38991874D02*
X1446627Y38987963D01*
X1616466Y38936443D01*
X1772992Y38852778D01*
X1910186Y38740186D01*
X2022778Y38602992D01*
X2106443Y38446466D01*
X2157963Y38276627D01*
X2157963Y38276624D01*
X2175360Y38100000D01*
X2161931Y37963660D01*
X2157963Y37923373D01*
X2106443Y37753534D01*
X2022778Y37597008D01*
X1910186Y37459814D01*
X1772992Y37347222D01*
X1616466Y37263557D01*
X1446627Y37212037D01*
X1406916Y37208126D01*
X1314265Y37199000D01*
X1225735Y37199000D01*
X1133084Y37208126D01*
X1093373Y37212037D01*
X923534Y37263557D01*
X767008Y37347222D01*
X629814Y37459814D01*
X517222Y37597008D01*
X433557Y37753534D01*
X382037Y37923373D01*
X378069Y37963660D01*
X364640Y38100000D01*
X382037Y38276624D01*
X382037Y38276627D01*
X433557Y38446466D01*
X517222Y38602992D01*
X629814Y38740186D01*
X767008Y38852778D01*
X923534Y38936443D01*
X1093373Y38987963D01*
X1133084Y38991874D01*
X1225735Y39001000D01*
X1314265Y39001000D01*
X1406916Y38991874D01*
X1406916Y38991874D01*
G37*
G36*
X19186916Y38991874D02*
X19226627Y38987963D01*
X19396466Y38936443D01*
X19552992Y38852778D01*
X19690186Y38740186D01*
X19802778Y38602992D01*
X19886443Y38446466D01*
X19937963Y38276627D01*
X19937963Y38276624D01*
X19955360Y38100000D01*
X19941931Y37963660D01*
X19937963Y37923373D01*
X19886443Y37753534D01*
X19802778Y37597008D01*
X19690186Y37459814D01*
X19552992Y37347222D01*
X19396466Y37263557D01*
X19226627Y37212037D01*
X19186916Y37208126D01*
X19094265Y37199000D01*
X19005735Y37199000D01*
X18913084Y37208126D01*
X18873373Y37212037D01*
X18703534Y37263557D01*
X18547008Y37347222D01*
X18409814Y37459814D01*
X18297222Y37597008D01*
X18213557Y37753534D01*
X18162037Y37923373D01*
X18158069Y37963660D01*
X18144640Y38100000D01*
X18162037Y38276624D01*
X18162037Y38276627D01*
X18213557Y38446466D01*
X18297222Y38602992D01*
X18409814Y38740186D01*
X18547008Y38852778D01*
X18703534Y38936443D01*
X18873373Y38987963D01*
X18913084Y38991874D01*
X19005735Y39001000D01*
X19094265Y39001000D01*
X19186916Y38991874D01*
X19186916Y38991874D01*
G37*
G36*
X19186916Y41531874D02*
X19226627Y41527963D01*
X19396466Y41476443D01*
X19552992Y41392778D01*
X19690186Y41280186D01*
X19802778Y41142992D01*
X19886443Y40986466D01*
X19937963Y40816627D01*
X19937963Y40816624D01*
X19955360Y40640000D01*
X19941931Y40503660D01*
X19937963Y40463373D01*
X19886443Y40293534D01*
X19802778Y40137008D01*
X19690186Y39999814D01*
X19552992Y39887222D01*
X19396466Y39803557D01*
X19226627Y39752037D01*
X19186916Y39748126D01*
X19094265Y39739000D01*
X19005735Y39739000D01*
X18913084Y39748126D01*
X18873373Y39752037D01*
X18703534Y39803557D01*
X18547008Y39887222D01*
X18409814Y39999814D01*
X18297222Y40137008D01*
X18213557Y40293534D01*
X18162037Y40463373D01*
X18158069Y40503660D01*
X18144640Y40640000D01*
X18162037Y40816624D01*
X18162037Y40816627D01*
X18213557Y40986466D01*
X18297222Y41142992D01*
X18409814Y41280186D01*
X18547008Y41392778D01*
X18703534Y41476443D01*
X18873373Y41527963D01*
X18913084Y41531874D01*
X19005735Y41541000D01*
X19094265Y41541000D01*
X19186916Y41531874D01*
X19186916Y41531874D01*
G37*
G36*
X1406916Y41531874D02*
X1446627Y41527963D01*
X1616466Y41476443D01*
X1772992Y41392778D01*
X1910186Y41280186D01*
X2022778Y41142992D01*
X2106443Y40986466D01*
X2157963Y40816627D01*
X2157963Y40816624D01*
X2175360Y40640000D01*
X2161931Y40503660D01*
X2157963Y40463373D01*
X2106443Y40293534D01*
X2022778Y40137008D01*
X1910186Y39999814D01*
X1772992Y39887222D01*
X1616466Y39803557D01*
X1446627Y39752037D01*
X1406916Y39748126D01*
X1314265Y39739000D01*
X1225735Y39739000D01*
X1133084Y39748126D01*
X1093373Y39752037D01*
X923534Y39803557D01*
X767008Y39887222D01*
X629814Y39999814D01*
X517222Y40137008D01*
X433557Y40293534D01*
X382037Y40463373D01*
X378069Y40503660D01*
X364640Y40640000D01*
X382037Y40816624D01*
X382037Y40816627D01*
X433557Y40986466D01*
X517222Y41142992D01*
X629814Y41280186D01*
X767008Y41392778D01*
X923534Y41476443D01*
X1093373Y41527963D01*
X1133084Y41531874D01*
X1225735Y41541000D01*
X1314265Y41541000D01*
X1406916Y41531874D01*
X1406916Y41531874D01*
G37*
G36*
X19186916Y44071874D02*
X19226627Y44067963D01*
X19396466Y44016443D01*
X19552992Y43932778D01*
X19690186Y43820186D01*
X19802778Y43682992D01*
X19886443Y43526466D01*
X19937963Y43356627D01*
X19937963Y43356624D01*
X19955360Y43180000D01*
X19941931Y43043660D01*
X19937963Y43003373D01*
X19886443Y42833534D01*
X19802778Y42677008D01*
X19690186Y42539814D01*
X19552992Y42427222D01*
X19396466Y42343557D01*
X19226627Y42292037D01*
X19186916Y42288126D01*
X19094265Y42279000D01*
X19005735Y42279000D01*
X18913084Y42288126D01*
X18873373Y42292037D01*
X18703534Y42343557D01*
X18547008Y42427222D01*
X18409814Y42539814D01*
X18297222Y42677008D01*
X18213557Y42833534D01*
X18162037Y43003373D01*
X18158069Y43043660D01*
X18144640Y43180000D01*
X18162037Y43356624D01*
X18162037Y43356627D01*
X18213557Y43526466D01*
X18297222Y43682992D01*
X18409814Y43820186D01*
X18547008Y43932778D01*
X18703534Y44016443D01*
X18873373Y44067963D01*
X18913084Y44071874D01*
X19005735Y44081000D01*
X19094265Y44081000D01*
X19186916Y44071874D01*
X19186916Y44071874D01*
G37*
G36*
X1406916Y44071874D02*
X1446627Y44067963D01*
X1616466Y44016443D01*
X1772992Y43932778D01*
X1910186Y43820186D01*
X2022778Y43682992D01*
X2106443Y43526466D01*
X2157963Y43356627D01*
X2157963Y43356624D01*
X2175360Y43180000D01*
X2161931Y43043660D01*
X2157963Y43003373D01*
X2106443Y42833534D01*
X2022778Y42677008D01*
X1910186Y42539814D01*
X1772992Y42427222D01*
X1616466Y42343557D01*
X1446627Y42292037D01*
X1406916Y42288126D01*
X1314265Y42279000D01*
X1225735Y42279000D01*
X1133084Y42288126D01*
X1093373Y42292037D01*
X923534Y42343557D01*
X767008Y42427222D01*
X629814Y42539814D01*
X517222Y42677008D01*
X433557Y42833534D01*
X382037Y43003373D01*
X378069Y43043660D01*
X364640Y43180000D01*
X382037Y43356624D01*
X382037Y43356627D01*
X433557Y43526466D01*
X517222Y43682992D01*
X629814Y43820186D01*
X767008Y43932778D01*
X923534Y44016443D01*
X1093373Y44067963D01*
X1133084Y44071874D01*
X1225735Y44081000D01*
X1314265Y44081000D01*
X1406916Y44071874D01*
X1406916Y44071874D01*
G37*
G36*
X1406916Y46611874D02*
X1446627Y46607963D01*
X1616466Y46556443D01*
X1772992Y46472778D01*
X1910186Y46360186D01*
X2022778Y46222992D01*
X2106443Y46066466D01*
X2157963Y45896627D01*
X2157963Y45896624D01*
X2175360Y45720000D01*
X2161931Y45583660D01*
X2157963Y45543373D01*
X2106443Y45373534D01*
X2022778Y45217008D01*
X1910186Y45079814D01*
X1772992Y44967222D01*
X1616466Y44883557D01*
X1446627Y44832037D01*
X1406916Y44828126D01*
X1314265Y44819000D01*
X1225735Y44819000D01*
X1133084Y44828126D01*
X1093373Y44832037D01*
X923534Y44883557D01*
X767008Y44967222D01*
X629814Y45079814D01*
X517222Y45217008D01*
X433557Y45373534D01*
X382037Y45543373D01*
X378069Y45583660D01*
X364640Y45720000D01*
X382037Y45896624D01*
X382037Y45896627D01*
X433557Y46066466D01*
X517222Y46222992D01*
X629814Y46360186D01*
X767008Y46472778D01*
X923534Y46556443D01*
X1093373Y46607963D01*
X1133084Y46611874D01*
X1225735Y46621000D01*
X1314265Y46621000D01*
X1406916Y46611874D01*
X1406916Y46611874D01*
G37*
G36*
X19186916Y46611874D02*
X19226627Y46607963D01*
X19396466Y46556443D01*
X19552992Y46472778D01*
X19690186Y46360186D01*
X19802778Y46222992D01*
X19886443Y46066466D01*
X19937963Y45896627D01*
X19937963Y45896624D01*
X19955360Y45720000D01*
X19941931Y45583660D01*
X19937963Y45543373D01*
X19886443Y45373534D01*
X19802778Y45217008D01*
X19690186Y45079814D01*
X19552992Y44967222D01*
X19396466Y44883557D01*
X19226627Y44832037D01*
X19186916Y44828126D01*
X19094265Y44819000D01*
X19005735Y44819000D01*
X18913084Y44828126D01*
X18873373Y44832037D01*
X18703534Y44883557D01*
X18547008Y44967222D01*
X18409814Y45079814D01*
X18297222Y45217008D01*
X18213557Y45373534D01*
X18162037Y45543373D01*
X18158069Y45583660D01*
X18144640Y45720000D01*
X18162037Y45896624D01*
X18162037Y45896627D01*
X18213557Y46066466D01*
X18297222Y46222992D01*
X18409814Y46360186D01*
X18547008Y46472778D01*
X18703534Y46556443D01*
X18873373Y46607963D01*
X18913084Y46611874D01*
X19005735Y46621000D01*
X19094265Y46621000D01*
X19186916Y46611874D01*
X19186916Y46611874D01*
G37*
G36*
X19186916Y49151874D02*
X19226627Y49147963D01*
X19396466Y49096443D01*
X19552992Y49012778D01*
X19690186Y48900186D01*
X19802778Y48762992D01*
X19886443Y48606466D01*
X19937963Y48436627D01*
X19937963Y48436624D01*
X19955360Y48260000D01*
X19941931Y48123660D01*
X19937963Y48083373D01*
X19886443Y47913534D01*
X19802778Y47757008D01*
X19690186Y47619814D01*
X19552992Y47507222D01*
X19396466Y47423557D01*
X19226627Y47372037D01*
X19186916Y47368126D01*
X19094265Y47359000D01*
X19005735Y47359000D01*
X18913084Y47368126D01*
X18873373Y47372037D01*
X18703534Y47423557D01*
X18547008Y47507222D01*
X18409814Y47619814D01*
X18297222Y47757008D01*
X18213557Y47913534D01*
X18162037Y48083373D01*
X18158069Y48123660D01*
X18144640Y48260000D01*
X18162037Y48436624D01*
X18162037Y48436627D01*
X18213557Y48606466D01*
X18297222Y48762992D01*
X18409814Y48900186D01*
X18547008Y49012778D01*
X18703534Y49096443D01*
X18873373Y49147963D01*
X18913084Y49151874D01*
X19005735Y49161000D01*
X19094265Y49161000D01*
X19186916Y49151874D01*
X19186916Y49151874D01*
G37*
G36*
X1406916Y49151874D02*
X1446627Y49147963D01*
X1616466Y49096443D01*
X1772992Y49012778D01*
X1910186Y48900186D01*
X2022778Y48762992D01*
X2106443Y48606466D01*
X2157963Y48436627D01*
X2157963Y48436624D01*
X2175360Y48260000D01*
X2161931Y48123660D01*
X2157963Y48083373D01*
X2106443Y47913534D01*
X2022778Y47757008D01*
X1910186Y47619814D01*
X1772992Y47507222D01*
X1616466Y47423557D01*
X1446627Y47372037D01*
X1406916Y47368126D01*
X1314265Y47359000D01*
X1225735Y47359000D01*
X1133084Y47368126D01*
X1093373Y47372037D01*
X923534Y47423557D01*
X767008Y47507222D01*
X629814Y47619814D01*
X517222Y47757008D01*
X433557Y47913534D01*
X382037Y48083373D01*
X378069Y48123660D01*
X364640Y48260000D01*
X382037Y48436624D01*
X382037Y48436627D01*
X433557Y48606466D01*
X517222Y48762992D01*
X629814Y48900186D01*
X767008Y49012778D01*
X923534Y49096443D01*
X1093373Y49147963D01*
X1133084Y49151874D01*
X1225735Y49161000D01*
X1314265Y49161000D01*
X1406916Y49151874D01*
X1406916Y49151874D01*
G37*
G36*
X19186916Y51691874D02*
X19226627Y51687963D01*
X19396466Y51636443D01*
X19552992Y51552778D01*
X19690186Y51440186D01*
X19802778Y51302992D01*
X19886443Y51146466D01*
X19937963Y50976627D01*
X19937963Y50976624D01*
X19955360Y50800000D01*
X19941931Y50663660D01*
X19937963Y50623373D01*
X19886443Y50453534D01*
X19802778Y50297008D01*
X19690186Y50159814D01*
X19552992Y50047222D01*
X19396466Y49963557D01*
X19226627Y49912037D01*
X19186916Y49908126D01*
X19094265Y49899000D01*
X19005735Y49899000D01*
X18913084Y49908126D01*
X18873373Y49912037D01*
X18703534Y49963557D01*
X18547008Y50047222D01*
X18409814Y50159814D01*
X18297222Y50297008D01*
X18213557Y50453534D01*
X18162037Y50623373D01*
X18158069Y50663660D01*
X18144640Y50800000D01*
X18162037Y50976624D01*
X18162037Y50976627D01*
X18213557Y51146466D01*
X18297222Y51302992D01*
X18409814Y51440186D01*
X18547008Y51552778D01*
X18703534Y51636443D01*
X18873373Y51687963D01*
X18913084Y51691874D01*
X19005735Y51701000D01*
X19094265Y51701000D01*
X19186916Y51691874D01*
X19186916Y51691874D01*
G37*
G36*
X1406916Y51691874D02*
X1446627Y51687963D01*
X1616466Y51636443D01*
X1772992Y51552778D01*
X1910186Y51440186D01*
X2022778Y51302992D01*
X2106443Y51146466D01*
X2157963Y50976627D01*
X2157963Y50976624D01*
X2175360Y50800000D01*
X2161931Y50663660D01*
X2157963Y50623373D01*
X2106443Y50453534D01*
X2022778Y50297008D01*
X1910186Y50159814D01*
X1772992Y50047222D01*
X1616466Y49963557D01*
X1446627Y49912037D01*
X1406916Y49908126D01*
X1314265Y49899000D01*
X1225735Y49899000D01*
X1133084Y49908126D01*
X1093373Y49912037D01*
X923534Y49963557D01*
X767008Y50047222D01*
X629814Y50159814D01*
X517222Y50297008D01*
X433557Y50453534D01*
X382037Y50623373D01*
X378069Y50663660D01*
X364640Y50800000D01*
X382037Y50976624D01*
X382037Y50976627D01*
X433557Y51146466D01*
X517222Y51302992D01*
X629814Y51440186D01*
X767008Y51552778D01*
X923534Y51636443D01*
X1093373Y51687963D01*
X1133084Y51691874D01*
X1225735Y51701000D01*
X1314265Y51701000D01*
X1406916Y51691874D01*
X1406916Y51691874D01*
G37*
G36*
X1406916Y54231874D02*
X1446627Y54227963D01*
X1616466Y54176443D01*
X1772992Y54092778D01*
X1910186Y53980186D01*
X2022778Y53842992D01*
X2106443Y53686466D01*
X2157963Y53516627D01*
X2157963Y53516624D01*
X2175360Y53340000D01*
X2166503Y53250080D01*
X2157963Y53163373D01*
X2106443Y52993534D01*
X2022778Y52837008D01*
X1910186Y52699814D01*
X1772992Y52587222D01*
X1616466Y52503557D01*
X1446627Y52452037D01*
X1406916Y52448126D01*
X1314265Y52439000D01*
X1225735Y52439000D01*
X1133084Y52448126D01*
X1093373Y52452037D01*
X923534Y52503557D01*
X767008Y52587222D01*
X629814Y52699814D01*
X517222Y52837008D01*
X433557Y52993534D01*
X382037Y53163373D01*
X373497Y53250080D01*
X364640Y53340000D01*
X382037Y53516624D01*
X382037Y53516627D01*
X433557Y53686466D01*
X517222Y53842992D01*
X629814Y53980186D01*
X767008Y54092778D01*
X923534Y54176443D01*
X1093373Y54227963D01*
X1133084Y54231874D01*
X1225735Y54241000D01*
X1314265Y54241000D01*
X1406916Y54231874D01*
X1406916Y54231874D01*
G37*
G36*
X19186916Y54231874D02*
X19226627Y54227963D01*
X19396466Y54176443D01*
X19552992Y54092778D01*
X19690186Y53980186D01*
X19802778Y53842992D01*
X19886443Y53686466D01*
X19937963Y53516627D01*
X19937963Y53516624D01*
X19955360Y53340000D01*
X19946503Y53250080D01*
X19937963Y53163373D01*
X19886443Y52993534D01*
X19802778Y52837008D01*
X19690186Y52699814D01*
X19552992Y52587222D01*
X19396466Y52503557D01*
X19226627Y52452037D01*
X19186916Y52448126D01*
X19094265Y52439000D01*
X19005735Y52439000D01*
X18913084Y52448126D01*
X18873373Y52452037D01*
X18703534Y52503557D01*
X18547008Y52587222D01*
X18409814Y52699814D01*
X18297222Y52837008D01*
X18213557Y52993534D01*
X18162037Y53163373D01*
X18153497Y53250080D01*
X18144640Y53340000D01*
X18162037Y53516624D01*
X18162037Y53516627D01*
X18213557Y53686466D01*
X18297222Y53842992D01*
X18409814Y53980186D01*
X18547008Y54092778D01*
X18703534Y54176443D01*
X18873373Y54227963D01*
X18913084Y54231874D01*
X19005735Y54241000D01*
X19094265Y54241000D01*
X19186916Y54231874D01*
X19186916Y54231874D01*
G37*
G36*
X14588015Y55404627D02*
X14691879Y55373121D01*
X14787600Y55321956D01*
X14871501Y55253101D01*
X14940356Y55169200D01*
X14991521Y55073479D01*
X15023027Y54969615D01*
X15031000Y54888667D01*
X15031000Y53734533D01*
X15023027Y53653585D01*
X14991521Y53549721D01*
X14940356Y53454000D01*
X14871501Y53370099D01*
X14787600Y53301244D01*
X14691878Y53250079D01*
X14588014Y53218573D01*
X14480000Y53207934D01*
X14371985Y53218573D01*
X14268121Y53250079D01*
X14172400Y53301244D01*
X14088499Y53370099D01*
X14019644Y53454000D01*
X13968479Y53549722D01*
X13936973Y53653586D01*
X13929000Y53734534D01*
X13929001Y54888667D01*
X13936974Y54969615D01*
X13968480Y55073479D01*
X14019645Y55169200D01*
X14088500Y55253101D01*
X14172401Y55321956D01*
X14268122Y55373121D01*
X14371986Y55404627D01*
X14480000Y55415266D01*
X14588015Y55404627D01*
X14588015Y55404627D01*
G37*
G36*
X5948015Y55404627D02*
X6051879Y55373121D01*
X6147600Y55321956D01*
X6231501Y55253101D01*
X6300356Y55169200D01*
X6351521Y55073479D01*
X6383027Y54969615D01*
X6391000Y54888667D01*
X6391000Y53734533D01*
X6383027Y53653585D01*
X6351521Y53549721D01*
X6300356Y53454000D01*
X6231501Y53370099D01*
X6147600Y53301244D01*
X6051878Y53250079D01*
X5948014Y53218573D01*
X5840000Y53207934D01*
X5731985Y53218573D01*
X5628121Y53250079D01*
X5532400Y53301244D01*
X5448499Y53370099D01*
X5379644Y53454000D01*
X5328479Y53549722D01*
X5296973Y53653586D01*
X5289000Y53734534D01*
X5289001Y54888667D01*
X5296974Y54969615D01*
X5328480Y55073479D01*
X5379645Y55169200D01*
X5448500Y55253101D01*
X5532401Y55321956D01*
X5628122Y55373121D01*
X5731986Y55404627D01*
X5840000Y55415266D01*
X5948015Y55404627D01*
X5948015Y55404627D01*
G37*
G36*
X13159675Y55173152D02*
X13228100Y55144809D01*
X13289689Y55103656D01*
X13342056Y55051289D01*
X13383209Y54989700D01*
X13411552Y54921275D01*
X13426000Y54848635D01*
X13426000Y54774565D01*
X13411552Y54701925D01*
X13383209Y54633500D01*
X13342056Y54571911D01*
X13289689Y54519544D01*
X13228100Y54478391D01*
X13159675Y54450048D01*
X13087035Y54435600D01*
X13012965Y54435600D01*
X12940325Y54450048D01*
X12871900Y54478391D01*
X12810311Y54519544D01*
X12757944Y54571911D01*
X12716791Y54633500D01*
X12688448Y54701925D01*
X12674000Y54774565D01*
X12674000Y54848635D01*
X12688448Y54921275D01*
X12716791Y54989700D01*
X12757944Y55051289D01*
X12810311Y55103656D01*
X12871900Y55144809D01*
X12940325Y55173152D01*
X13012965Y55187600D01*
X13087035Y55187600D01*
X13159675Y55173152D01*
X13159675Y55173152D01*
G37*
G36*
X7379675Y55173152D02*
X7448100Y55144809D01*
X7509689Y55103656D01*
X7562056Y55051289D01*
X7603209Y54989700D01*
X7631552Y54921275D01*
X7646000Y54848635D01*
X7646000Y54774565D01*
X7631552Y54701925D01*
X7603209Y54633500D01*
X7562056Y54571911D01*
X7509689Y54519544D01*
X7448100Y54478391D01*
X7379675Y54450048D01*
X7307035Y54435600D01*
X7232965Y54435600D01*
X7160325Y54450048D01*
X7091900Y54478391D01*
X7030311Y54519544D01*
X6977944Y54571911D01*
X6936791Y54633500D01*
X6908448Y54701925D01*
X6894000Y54774565D01*
X6894000Y54848635D01*
X6908448Y54921275D01*
X6936791Y54989700D01*
X6977944Y55051289D01*
X7030311Y55103656D01*
X7091900Y55144809D01*
X7160325Y55173152D01*
X7232965Y55187600D01*
X7307035Y55187600D01*
X7379675Y55173152D01*
X7379675Y55173152D01*
G37*
G36*
X1406916Y56771874D02*
X1446627Y56767963D01*
X1616466Y56716443D01*
X1772992Y56632778D01*
X1910186Y56520186D01*
X2022778Y56382992D01*
X2106443Y56226466D01*
X2157963Y56056627D01*
X2157963Y56056624D01*
X2175360Y55880000D01*
X2161931Y55743660D01*
X2157963Y55703373D01*
X2106443Y55533534D01*
X2022778Y55377008D01*
X1910186Y55239814D01*
X1772992Y55127222D01*
X1630926Y55051286D01*
X1616466Y55043557D01*
X1446627Y54992037D01*
X1406916Y54988126D01*
X1314265Y54979000D01*
X1225735Y54979000D01*
X1133084Y54988126D01*
X1093373Y54992037D01*
X923534Y55043557D01*
X909074Y55051286D01*
X767008Y55127222D01*
X629814Y55239814D01*
X517222Y55377008D01*
X433557Y55533534D01*
X382037Y55703373D01*
X378069Y55743660D01*
X364640Y55880000D01*
X382037Y56056624D01*
X382037Y56056627D01*
X433557Y56226466D01*
X517222Y56382992D01*
X629814Y56520186D01*
X767008Y56632778D01*
X923534Y56716443D01*
X1093373Y56767963D01*
X1133084Y56771874D01*
X1225735Y56781000D01*
X1314265Y56781000D01*
X1406916Y56771874D01*
X1406916Y56771874D01*
G37*
G36*
X19186916Y56771874D02*
X19226627Y56767963D01*
X19396466Y56716443D01*
X19552992Y56632778D01*
X19690186Y56520186D01*
X19802778Y56382992D01*
X19886443Y56226466D01*
X19937963Y56056627D01*
X19937963Y56056624D01*
X19955360Y55880000D01*
X19941931Y55743660D01*
X19937963Y55703373D01*
X19886443Y55533534D01*
X19802778Y55377008D01*
X19690186Y55239814D01*
X19552992Y55127222D01*
X19410926Y55051286D01*
X19396466Y55043557D01*
X19226627Y54992037D01*
X19186916Y54988126D01*
X19094265Y54979000D01*
X19005735Y54979000D01*
X18913084Y54988126D01*
X18873373Y54992037D01*
X18703534Y55043557D01*
X18689074Y55051286D01*
X18547008Y55127222D01*
X18409814Y55239814D01*
X18297222Y55377008D01*
X18213557Y55533534D01*
X18162037Y55703373D01*
X18158069Y55743660D01*
X18144640Y55880000D01*
X18162037Y56056624D01*
X18162037Y56056627D01*
X18213557Y56226466D01*
X18297222Y56382992D01*
X18409814Y56520186D01*
X18547008Y56632778D01*
X18703534Y56716443D01*
X18873373Y56767963D01*
X18913084Y56771874D01*
X19005735Y56781000D01*
X19094265Y56781000D01*
X19186916Y56771874D01*
X19186916Y56771874D01*
G37*
G36*
X5948015Y59404627D02*
X6051879Y59373121D01*
X6147600Y59321956D01*
X6231501Y59253101D01*
X6300356Y59169200D01*
X6351521Y59073479D01*
X6383027Y58969615D01*
X6391000Y58888667D01*
X6391000Y58034533D01*
X6383027Y57953585D01*
X6351521Y57849721D01*
X6300356Y57754000D01*
X6231501Y57670099D01*
X6147600Y57601244D01*
X6051878Y57550079D01*
X5948014Y57518573D01*
X5840000Y57507934D01*
X5731985Y57518573D01*
X5628121Y57550079D01*
X5532400Y57601244D01*
X5448499Y57670099D01*
X5379644Y57754000D01*
X5328479Y57849722D01*
X5296973Y57953586D01*
X5289000Y58034534D01*
X5289000Y58888667D01*
X5290296Y58901822D01*
X5296972Y58969610D01*
X5296973Y58969612D01*
X5296973Y58969615D01*
X5328480Y59073479D01*
X5379645Y59169200D01*
X5448500Y59253101D01*
X5532401Y59321956D01*
X5628122Y59373121D01*
X5731986Y59404627D01*
X5840000Y59415266D01*
X5948015Y59404627D01*
X5948015Y59404627D01*
G37*
G36*
X14588015Y59404627D02*
X14691879Y59373121D01*
X14787600Y59321956D01*
X14871501Y59253101D01*
X14940356Y59169200D01*
X14991521Y59073479D01*
X15023027Y58969615D01*
X15031000Y58888667D01*
X15031000Y58034533D01*
X15023027Y57953585D01*
X14991521Y57849721D01*
X14940356Y57754000D01*
X14871501Y57670099D01*
X14787600Y57601244D01*
X14691878Y57550079D01*
X14588014Y57518573D01*
X14480000Y57507934D01*
X14371985Y57518573D01*
X14268121Y57550079D01*
X14172400Y57601244D01*
X14088499Y57670099D01*
X14019644Y57754000D01*
X13968479Y57849722D01*
X13936973Y57953586D01*
X13929000Y58034534D01*
X13929000Y58888667D01*
X13930296Y58901822D01*
X13936972Y58969610D01*
X13936973Y58969612D01*
X13936973Y58969615D01*
X13968480Y59073479D01*
X14019645Y59169200D01*
X14088500Y59253101D01*
X14172401Y59321956D01*
X14268122Y59373121D01*
X14371986Y59404627D01*
X14480000Y59415266D01*
X14588015Y59404627D01*
X14588015Y59404627D01*
G37*
G36*
X2171000Y57519000D02*
X369000Y57519000D01*
X369000Y59321000D01*
X2171000Y59321000D01*
X2171000Y57519000D01*
X2171000Y57519000D01*
G37*
G36*
X19951000Y57519000D02*
X18149000Y57519000D01*
X18149000Y59321000D01*
X19951000Y59321000D01*
X19951000Y57519000D01*
X19951000Y57519000D01*
G37*
M02*
