G04 #@! TF.GenerationSoftware,KiCad,Pcbnew,5.0.2-bee76a0~70~ubuntu18.04.1*
G04 #@! TF.CreationDate,2019-07-29T11:14:37+02:00*
G04 #@! TF.ProjectId,Pic32MxRedFox,50696333-324d-4785-9265-64466f782e6b,rev?*
G04 #@! TF.SameCoordinates,PX5faea10PY8eeaea0*
G04 #@! TF.FileFunction,Soldermask,Top*
G04 #@! TF.FilePolarity,Negative*
%FSLAX46Y46*%
G04 Gerber Fmt 4.6, Leading zero omitted, Abs format (unit mm)*
G04 Created by KiCad (PCBNEW 5.0.2-bee76a0~70~ubuntu18.04.1) date pon 29 jul 2019 11:14:37 CEST*
%MOMM*%
%LPD*%
G01*
G04 APERTURE LIST*
%ADD10C,0.100000*%
G04 APERTURE END LIST*
D10*
G36*
X15419293Y3441366D02*
X15591696Y3389068D01*
X15750583Y3304141D01*
X15889849Y3189849D01*
X16004141Y3050583D01*
X16089068Y2891696D01*
X16141366Y2719293D01*
X16159025Y2540000D01*
X16141366Y2360707D01*
X16089068Y2188304D01*
X16004141Y2029417D01*
X15889849Y1890151D01*
X15750583Y1775859D01*
X15591696Y1690932D01*
X15419293Y1638634D01*
X15284927Y1625400D01*
X15195073Y1625400D01*
X15060707Y1638634D01*
X14888304Y1690932D01*
X14729417Y1775859D01*
X14590151Y1890151D01*
X14475859Y2029417D01*
X14390932Y2188304D01*
X14338634Y2360707D01*
X14320975Y2540000D01*
X14338634Y2719293D01*
X14390932Y2891696D01*
X14475859Y3050583D01*
X14590151Y3189849D01*
X14729417Y3304141D01*
X14888304Y3389068D01*
X15060707Y3441366D01*
X15195073Y3454600D01*
X15284927Y3454600D01*
X15419293Y3441366D01*
X15419293Y3441366D01*
G37*
G36*
X12879293Y3441366D02*
X13051696Y3389068D01*
X13210583Y3304141D01*
X13349849Y3189849D01*
X13464141Y3050583D01*
X13549068Y2891696D01*
X13601366Y2719293D01*
X13619025Y2540000D01*
X13601366Y2360707D01*
X13549068Y2188304D01*
X13464141Y2029417D01*
X13349849Y1890151D01*
X13210583Y1775859D01*
X13051696Y1690932D01*
X12879293Y1638634D01*
X12744927Y1625400D01*
X12655073Y1625400D01*
X12520707Y1638634D01*
X12348304Y1690932D01*
X12189417Y1775859D01*
X12050151Y1890151D01*
X11935859Y2029417D01*
X11850932Y2188304D01*
X11798634Y2360707D01*
X11780975Y2540000D01*
X11798634Y2719293D01*
X11850932Y2891696D01*
X11935859Y3050583D01*
X12050151Y3189849D01*
X12189417Y3304141D01*
X12348304Y3389068D01*
X12520707Y3441366D01*
X12655073Y3454600D01*
X12744927Y3454600D01*
X12879293Y3441366D01*
X12879293Y3441366D01*
G37*
G36*
X10339293Y3441366D02*
X10511696Y3389068D01*
X10670583Y3304141D01*
X10809849Y3189849D01*
X10924141Y3050583D01*
X11009068Y2891696D01*
X11061366Y2719293D01*
X11079025Y2540000D01*
X11061366Y2360707D01*
X11009068Y2188304D01*
X10924141Y2029417D01*
X10809849Y1890151D01*
X10670583Y1775859D01*
X10511696Y1690932D01*
X10339293Y1638634D01*
X10204927Y1625400D01*
X10115073Y1625400D01*
X9980707Y1638634D01*
X9808304Y1690932D01*
X9649417Y1775859D01*
X9510151Y1890151D01*
X9395859Y2029417D01*
X9310932Y2188304D01*
X9258634Y2360707D01*
X9240975Y2540000D01*
X9258634Y2719293D01*
X9310932Y2891696D01*
X9395859Y3050583D01*
X9510151Y3189849D01*
X9649417Y3304141D01*
X9808304Y3389068D01*
X9980707Y3441366D01*
X10115073Y3454600D01*
X10204927Y3454600D01*
X10339293Y3441366D01*
X10339293Y3441366D01*
G37*
G36*
X5994600Y1625400D02*
X4165400Y1625400D01*
X4165400Y3454600D01*
X5994600Y3454600D01*
X5994600Y1625400D01*
X5994600Y1625400D01*
G37*
G36*
X7799293Y3441366D02*
X7971696Y3389068D01*
X8130583Y3304141D01*
X8269849Y3189849D01*
X8384141Y3050583D01*
X8469068Y2891696D01*
X8521366Y2719293D01*
X8539025Y2540000D01*
X8521366Y2360707D01*
X8469068Y2188304D01*
X8384141Y2029417D01*
X8269849Y1890151D01*
X8130583Y1775859D01*
X7971696Y1690932D01*
X7799293Y1638634D01*
X7664927Y1625400D01*
X7575073Y1625400D01*
X7440707Y1638634D01*
X7268304Y1690932D01*
X7109417Y1775859D01*
X6970151Y1890151D01*
X6855859Y2029417D01*
X6770932Y2188304D01*
X6718634Y2360707D01*
X6700975Y2540000D01*
X6718634Y2719293D01*
X6770932Y2891696D01*
X6855859Y3050583D01*
X6970151Y3189849D01*
X7109417Y3304141D01*
X7268304Y3389068D01*
X7440707Y3441366D01*
X7575073Y3454600D01*
X7664927Y3454600D01*
X7799293Y3441366D01*
X7799293Y3441366D01*
G37*
G36*
X5259293Y5981366D02*
X5431696Y5929068D01*
X5590583Y5844141D01*
X5729849Y5729849D01*
X5844141Y5590583D01*
X5929068Y5431696D01*
X5981366Y5259293D01*
X5999025Y5080000D01*
X5981366Y4900707D01*
X5929068Y4728304D01*
X5844141Y4569417D01*
X5729849Y4430151D01*
X5590583Y4315859D01*
X5431696Y4230932D01*
X5259293Y4178634D01*
X5124927Y4165400D01*
X5035073Y4165400D01*
X4900707Y4178634D01*
X4728304Y4230932D01*
X4569417Y4315859D01*
X4430151Y4430151D01*
X4315859Y4569417D01*
X4230932Y4728304D01*
X4178634Y4900707D01*
X4160975Y5080000D01*
X4178634Y5259293D01*
X4230932Y5431696D01*
X4315859Y5590583D01*
X4430151Y5729849D01*
X4569417Y5844141D01*
X4728304Y5929068D01*
X4900707Y5981366D01*
X5035073Y5994600D01*
X5124927Y5994600D01*
X5259293Y5981366D01*
X5259293Y5981366D01*
G37*
G36*
X7799293Y5981366D02*
X7971696Y5929068D01*
X8130583Y5844141D01*
X8269849Y5729849D01*
X8384141Y5590583D01*
X8469068Y5431696D01*
X8521366Y5259293D01*
X8539025Y5080000D01*
X8521366Y4900707D01*
X8469068Y4728304D01*
X8384141Y4569417D01*
X8269849Y4430151D01*
X8130583Y4315859D01*
X7971696Y4230932D01*
X7799293Y4178634D01*
X7664927Y4165400D01*
X7575073Y4165400D01*
X7440707Y4178634D01*
X7268304Y4230932D01*
X7109417Y4315859D01*
X6970151Y4430151D01*
X6855859Y4569417D01*
X6770932Y4728304D01*
X6718634Y4900707D01*
X6700975Y5080000D01*
X6718634Y5259293D01*
X6770932Y5431696D01*
X6855859Y5590583D01*
X6970151Y5729849D01*
X7109417Y5844141D01*
X7268304Y5929068D01*
X7440707Y5981366D01*
X7575073Y5994600D01*
X7664927Y5994600D01*
X7799293Y5981366D01*
X7799293Y5981366D01*
G37*
G36*
X12879293Y5981366D02*
X13051696Y5929068D01*
X13210583Y5844141D01*
X13349849Y5729849D01*
X13464141Y5590583D01*
X13549068Y5431696D01*
X13601366Y5259293D01*
X13619025Y5080000D01*
X13601366Y4900707D01*
X13549068Y4728304D01*
X13464141Y4569417D01*
X13349849Y4430151D01*
X13210583Y4315859D01*
X13051696Y4230932D01*
X12879293Y4178634D01*
X12744927Y4165400D01*
X12655073Y4165400D01*
X12520707Y4178634D01*
X12348304Y4230932D01*
X12189417Y4315859D01*
X12050151Y4430151D01*
X11935859Y4569417D01*
X11850932Y4728304D01*
X11798634Y4900707D01*
X11780975Y5080000D01*
X11798634Y5259293D01*
X11850932Y5431696D01*
X11935859Y5590583D01*
X12050151Y5729849D01*
X12189417Y5844141D01*
X12348304Y5929068D01*
X12520707Y5981366D01*
X12655073Y5994600D01*
X12744927Y5994600D01*
X12879293Y5981366D01*
X12879293Y5981366D01*
G37*
G36*
X10339293Y5981366D02*
X10511696Y5929068D01*
X10670583Y5844141D01*
X10809849Y5729849D01*
X10924141Y5590583D01*
X11009068Y5431696D01*
X11061366Y5259293D01*
X11079025Y5080000D01*
X11061366Y4900707D01*
X11009068Y4728304D01*
X10924141Y4569417D01*
X10809849Y4430151D01*
X10670583Y4315859D01*
X10511696Y4230932D01*
X10339293Y4178634D01*
X10204927Y4165400D01*
X10115073Y4165400D01*
X9980707Y4178634D01*
X9808304Y4230932D01*
X9649417Y4315859D01*
X9510151Y4430151D01*
X9395859Y4569417D01*
X9310932Y4728304D01*
X9258634Y4900707D01*
X9240975Y5080000D01*
X9258634Y5259293D01*
X9310932Y5431696D01*
X9395859Y5590583D01*
X9510151Y5729849D01*
X9649417Y5844141D01*
X9808304Y5929068D01*
X9980707Y5981366D01*
X10115073Y5994600D01*
X10204927Y5994600D01*
X10339293Y5981366D01*
X10339293Y5981366D01*
G37*
G36*
X15419293Y5981366D02*
X15591696Y5929068D01*
X15750583Y5844141D01*
X15889849Y5729849D01*
X16004141Y5590583D01*
X16089068Y5431696D01*
X16141366Y5259293D01*
X16159025Y5080000D01*
X16141366Y4900707D01*
X16089068Y4728304D01*
X16004141Y4569417D01*
X15889849Y4430151D01*
X15750583Y4315859D01*
X15591696Y4230932D01*
X15419293Y4178634D01*
X15284927Y4165400D01*
X15195073Y4165400D01*
X15060707Y4178634D01*
X14888304Y4230932D01*
X14729417Y4315859D01*
X14590151Y4430151D01*
X14475859Y4569417D01*
X14390932Y4728304D01*
X14338634Y4900707D01*
X14320975Y5080000D01*
X14338634Y5259293D01*
X14390932Y5431696D01*
X14475859Y5590583D01*
X14590151Y5729849D01*
X14729417Y5844141D01*
X14888304Y5929068D01*
X15060707Y5981366D01*
X15195073Y5994600D01*
X15284927Y5994600D01*
X15419293Y5981366D01*
X15419293Y5981366D01*
G37*
G36*
X3897795Y8544434D02*
X3952576Y8521743D01*
X4001879Y8488800D01*
X4043800Y8446879D01*
X4076743Y8397576D01*
X4099434Y8342795D01*
X4111000Y8284649D01*
X4111000Y8225351D01*
X4099434Y8167205D01*
X4076743Y8112424D01*
X4043800Y8063121D01*
X4001879Y8021200D01*
X3952576Y7988257D01*
X3897795Y7965566D01*
X3839649Y7954000D01*
X3780351Y7954000D01*
X3722205Y7965566D01*
X3667424Y7988257D01*
X3618121Y8021200D01*
X3576200Y8063121D01*
X3543257Y8112424D01*
X3520566Y8167205D01*
X3509000Y8225351D01*
X3509000Y8284649D01*
X3520566Y8342795D01*
X3543257Y8397576D01*
X3576200Y8446879D01*
X3618121Y8488800D01*
X3667424Y8521743D01*
X3722205Y8544434D01*
X3780351Y8556000D01*
X3839649Y8556000D01*
X3897795Y8544434D01*
X3897795Y8544434D01*
G37*
G36*
X6437795Y8544434D02*
X6492576Y8521743D01*
X6541879Y8488800D01*
X6583800Y8446879D01*
X6616743Y8397576D01*
X6639434Y8342795D01*
X6651000Y8284649D01*
X6651000Y8225351D01*
X6639434Y8167205D01*
X6616743Y8112424D01*
X6583800Y8063121D01*
X6541879Y8021200D01*
X6492576Y7988257D01*
X6437795Y7965566D01*
X6379649Y7954000D01*
X6320351Y7954000D01*
X6262205Y7965566D01*
X6207424Y7988257D01*
X6158121Y8021200D01*
X6116200Y8063121D01*
X6083257Y8112424D01*
X6060566Y8167205D01*
X6049000Y8225351D01*
X6049000Y8284649D01*
X6060566Y8342795D01*
X6083257Y8397576D01*
X6116200Y8446879D01*
X6158121Y8488800D01*
X6207424Y8521743D01*
X6262205Y8544434D01*
X6320351Y8556000D01*
X6379649Y8556000D01*
X6437795Y8544434D01*
X6437795Y8544434D01*
G37*
G36*
X11517795Y8544434D02*
X11572576Y8521743D01*
X11621879Y8488800D01*
X11663800Y8446879D01*
X11696743Y8397576D01*
X11719434Y8342795D01*
X11731000Y8284649D01*
X11731000Y8225351D01*
X11719434Y8167205D01*
X11696743Y8112424D01*
X11663800Y8063121D01*
X11621879Y8021200D01*
X11572576Y7988257D01*
X11517795Y7965566D01*
X11459649Y7954000D01*
X11400351Y7954000D01*
X11342205Y7965566D01*
X11287424Y7988257D01*
X11238121Y8021200D01*
X11196200Y8063121D01*
X11163257Y8112424D01*
X11140566Y8167205D01*
X11129000Y8225351D01*
X11129000Y8284649D01*
X11140566Y8342795D01*
X11163257Y8397576D01*
X11196200Y8446879D01*
X11238121Y8488800D01*
X11287424Y8521743D01*
X11342205Y8544434D01*
X11400351Y8556000D01*
X11459649Y8556000D01*
X11517795Y8544434D01*
X11517795Y8544434D01*
G37*
G36*
X14057795Y8544434D02*
X14112576Y8521743D01*
X14161879Y8488800D01*
X14203800Y8446879D01*
X14236743Y8397576D01*
X14259434Y8342795D01*
X14271000Y8284649D01*
X14271000Y8225351D01*
X14259434Y8167205D01*
X14236743Y8112424D01*
X14203800Y8063121D01*
X14161879Y8021200D01*
X14112576Y7988257D01*
X14057795Y7965566D01*
X13999649Y7954000D01*
X13940351Y7954000D01*
X13882205Y7965566D01*
X13827424Y7988257D01*
X13778121Y8021200D01*
X13736200Y8063121D01*
X13703257Y8112424D01*
X13680566Y8167205D01*
X13669000Y8225351D01*
X13669000Y8284649D01*
X13680566Y8342795D01*
X13703257Y8397576D01*
X13736200Y8446879D01*
X13778121Y8488800D01*
X13827424Y8521743D01*
X13882205Y8544434D01*
X13940351Y8556000D01*
X13999649Y8556000D01*
X14057795Y8544434D01*
X14057795Y8544434D01*
G37*
G36*
X16597795Y8544434D02*
X16652576Y8521743D01*
X16701879Y8488800D01*
X16743800Y8446879D01*
X16776743Y8397576D01*
X16799434Y8342795D01*
X16811000Y8284649D01*
X16811000Y8225351D01*
X16799434Y8167205D01*
X16776743Y8112424D01*
X16743800Y8063121D01*
X16701879Y8021200D01*
X16652576Y7988257D01*
X16597795Y7965566D01*
X16539649Y7954000D01*
X16480351Y7954000D01*
X16422205Y7965566D01*
X16367424Y7988257D01*
X16318121Y8021200D01*
X16276200Y8063121D01*
X16243257Y8112424D01*
X16220566Y8167205D01*
X16209000Y8225351D01*
X16209000Y8284649D01*
X16220566Y8342795D01*
X16243257Y8397576D01*
X16276200Y8446879D01*
X16318121Y8488800D01*
X16367424Y8521743D01*
X16422205Y8544434D01*
X16480351Y8556000D01*
X16539649Y8556000D01*
X16597795Y8544434D01*
X16597795Y8544434D01*
G37*
G36*
X8977795Y8544434D02*
X9032576Y8521743D01*
X9081879Y8488800D01*
X9123800Y8446879D01*
X9156743Y8397576D01*
X9179434Y8342795D01*
X9191000Y8284649D01*
X9191000Y8225351D01*
X9179434Y8167205D01*
X9156743Y8112424D01*
X9123800Y8063121D01*
X9081879Y8021200D01*
X9032576Y7988257D01*
X8977795Y7965566D01*
X8919649Y7954000D01*
X8860351Y7954000D01*
X8802205Y7965566D01*
X8747424Y7988257D01*
X8698121Y8021200D01*
X8656200Y8063121D01*
X8623257Y8112424D01*
X8600566Y8167205D01*
X8589000Y8225351D01*
X8589000Y8284649D01*
X8600566Y8342795D01*
X8623257Y8397576D01*
X8656200Y8446879D01*
X8698121Y8488800D01*
X8747424Y8521743D01*
X8802205Y8544434D01*
X8860351Y8556000D01*
X8919649Y8556000D01*
X8977795Y8544434D01*
X8977795Y8544434D01*
G37*
G36*
X4801000Y9169000D02*
X3399000Y9169000D01*
X3399000Y10821000D01*
X4801000Y10821000D01*
X4801000Y9169000D01*
X4801000Y9169000D01*
G37*
G36*
X16921000Y9169000D02*
X15519000Y9169000D01*
X15519000Y10821000D01*
X16921000Y10821000D01*
X16921000Y9169000D01*
X16921000Y9169000D01*
G37*
G36*
X12421000Y9169000D02*
X11019000Y9169000D01*
X11019000Y10821000D01*
X12421000Y10821000D01*
X12421000Y9169000D01*
X12421000Y9169000D01*
G37*
G36*
X9301000Y9169000D02*
X7899000Y9169000D01*
X7899000Y10821000D01*
X9301000Y10821000D01*
X9301000Y9169000D01*
X9301000Y9169000D01*
G37*
G36*
X1406916Y11051874D02*
X1446627Y11047963D01*
X1616466Y10996443D01*
X1772992Y10912778D01*
X1910186Y10800186D01*
X2022778Y10662992D01*
X2106443Y10506466D01*
X2157963Y10336627D01*
X2157963Y10336624D01*
X2175360Y10160000D01*
X2161931Y10023660D01*
X2157963Y9983373D01*
X2106443Y9813534D01*
X2022778Y9657008D01*
X1910186Y9519814D01*
X1772992Y9407222D01*
X1616466Y9323557D01*
X1446627Y9272037D01*
X1406916Y9268126D01*
X1314265Y9259000D01*
X1225735Y9259000D01*
X1133084Y9268126D01*
X1093373Y9272037D01*
X923534Y9323557D01*
X767008Y9407222D01*
X629814Y9519814D01*
X517222Y9657008D01*
X433557Y9813534D01*
X382037Y9983373D01*
X378069Y10023660D01*
X364640Y10160000D01*
X382037Y10336624D01*
X382037Y10336627D01*
X433557Y10506466D01*
X517222Y10662992D01*
X629814Y10800186D01*
X767008Y10912778D01*
X923534Y10996443D01*
X1093373Y11047963D01*
X1133084Y11051874D01*
X1225735Y11061000D01*
X1314265Y11061000D01*
X1406916Y11051874D01*
X1406916Y11051874D01*
G37*
G36*
X19186916Y11051874D02*
X19226627Y11047963D01*
X19396466Y10996443D01*
X19552992Y10912778D01*
X19690186Y10800186D01*
X19802778Y10662992D01*
X19886443Y10506466D01*
X19937963Y10336627D01*
X19937963Y10336624D01*
X19955360Y10160000D01*
X19941931Y10023660D01*
X19937963Y9983373D01*
X19886443Y9813534D01*
X19802778Y9657008D01*
X19690186Y9519814D01*
X19552992Y9407222D01*
X19396466Y9323557D01*
X19226627Y9272037D01*
X19186916Y9268126D01*
X19094265Y9259000D01*
X19005735Y9259000D01*
X18913084Y9268126D01*
X18873373Y9272037D01*
X18703534Y9323557D01*
X18547008Y9407222D01*
X18409814Y9519814D01*
X18297222Y9657008D01*
X18213557Y9813534D01*
X18162037Y9983373D01*
X18158069Y10023660D01*
X18144640Y10160000D01*
X18162037Y10336624D01*
X18162037Y10336627D01*
X18213557Y10506466D01*
X18297222Y10662992D01*
X18409814Y10800186D01*
X18547008Y10912778D01*
X18703534Y10996443D01*
X18873373Y11047963D01*
X18913084Y11051874D01*
X19005735Y11061000D01*
X19094265Y11061000D01*
X19186916Y11051874D01*
X19186916Y11051874D01*
G37*
G36*
X19186916Y13591874D02*
X19226627Y13587963D01*
X19396466Y13536443D01*
X19552992Y13452778D01*
X19690186Y13340186D01*
X19802778Y13202992D01*
X19886443Y13046466D01*
X19937963Y12876627D01*
X19937963Y12876624D01*
X19955360Y12700000D01*
X19941931Y12563660D01*
X19937963Y12523373D01*
X19886443Y12353534D01*
X19802778Y12197008D01*
X19690186Y12059814D01*
X19552992Y11947222D01*
X19396466Y11863557D01*
X19226627Y11812037D01*
X19186916Y11808126D01*
X19094265Y11799000D01*
X19005735Y11799000D01*
X18913084Y11808126D01*
X18873373Y11812037D01*
X18703534Y11863557D01*
X18547008Y11947222D01*
X18409814Y12059814D01*
X18297222Y12197008D01*
X18213557Y12353534D01*
X18162037Y12523373D01*
X18158069Y12563660D01*
X18144640Y12700000D01*
X18162037Y12876624D01*
X18162037Y12876627D01*
X18213557Y13046466D01*
X18297222Y13202992D01*
X18409814Y13340186D01*
X18547008Y13452778D01*
X18703534Y13536443D01*
X18873373Y13587963D01*
X18913084Y13591874D01*
X19005735Y13601000D01*
X19094265Y13601000D01*
X19186916Y13591874D01*
X19186916Y13591874D01*
G37*
G36*
X1406916Y13591874D02*
X1446627Y13587963D01*
X1616466Y13536443D01*
X1772992Y13452778D01*
X1910186Y13340186D01*
X2022778Y13202992D01*
X2106443Y13046466D01*
X2157963Y12876627D01*
X2157963Y12876624D01*
X2175360Y12700000D01*
X2161931Y12563660D01*
X2157963Y12523373D01*
X2106443Y12353534D01*
X2022778Y12197008D01*
X1910186Y12059814D01*
X1772992Y11947222D01*
X1616466Y11863557D01*
X1446627Y11812037D01*
X1406916Y11808126D01*
X1314265Y11799000D01*
X1225735Y11799000D01*
X1133084Y11808126D01*
X1093373Y11812037D01*
X923534Y11863557D01*
X767008Y11947222D01*
X629814Y12059814D01*
X517222Y12197008D01*
X433557Y12353534D01*
X382037Y12523373D01*
X378069Y12563660D01*
X364640Y12700000D01*
X382037Y12876624D01*
X382037Y12876627D01*
X433557Y13046466D01*
X517222Y13202992D01*
X629814Y13340186D01*
X767008Y13452778D01*
X923534Y13536443D01*
X1093373Y13587963D01*
X1133084Y13591874D01*
X1225735Y13601000D01*
X1314265Y13601000D01*
X1406916Y13591874D01*
X1406916Y13591874D01*
G37*
G36*
X19186916Y16131874D02*
X19226627Y16127963D01*
X19396466Y16076443D01*
X19552992Y15992778D01*
X19690186Y15880186D01*
X19802778Y15742992D01*
X19886443Y15586466D01*
X19937963Y15416627D01*
X19937963Y15416624D01*
X19955360Y15240000D01*
X19941931Y15103660D01*
X19937963Y15063373D01*
X19886443Y14893534D01*
X19802778Y14737008D01*
X19690186Y14599814D01*
X19552992Y14487222D01*
X19396466Y14403557D01*
X19226627Y14352037D01*
X19186916Y14348126D01*
X19094265Y14339000D01*
X19005735Y14339000D01*
X18913084Y14348126D01*
X18873373Y14352037D01*
X18703534Y14403557D01*
X18547008Y14487222D01*
X18409814Y14599814D01*
X18297222Y14737008D01*
X18213557Y14893534D01*
X18162037Y15063373D01*
X18158069Y15103660D01*
X18144640Y15240000D01*
X18162037Y15416624D01*
X18162037Y15416627D01*
X18213557Y15586466D01*
X18297222Y15742992D01*
X18409814Y15880186D01*
X18547008Y15992778D01*
X18703534Y16076443D01*
X18873373Y16127963D01*
X18913084Y16131874D01*
X19005735Y16141000D01*
X19094265Y16141000D01*
X19186916Y16131874D01*
X19186916Y16131874D01*
G37*
G36*
X1406916Y16131874D02*
X1446627Y16127963D01*
X1616466Y16076443D01*
X1772992Y15992778D01*
X1910186Y15880186D01*
X2022778Y15742992D01*
X2106443Y15586466D01*
X2157963Y15416627D01*
X2157963Y15416624D01*
X2175360Y15240000D01*
X2161931Y15103660D01*
X2157963Y15063373D01*
X2106443Y14893534D01*
X2022778Y14737008D01*
X1910186Y14599814D01*
X1772992Y14487222D01*
X1616466Y14403557D01*
X1446627Y14352037D01*
X1406916Y14348126D01*
X1314265Y14339000D01*
X1225735Y14339000D01*
X1133084Y14348126D01*
X1093373Y14352037D01*
X923534Y14403557D01*
X767008Y14487222D01*
X629814Y14599814D01*
X517222Y14737008D01*
X433557Y14893534D01*
X382037Y15063373D01*
X378069Y15103660D01*
X364640Y15240000D01*
X382037Y15416624D01*
X382037Y15416627D01*
X433557Y15586466D01*
X517222Y15742992D01*
X629814Y15880186D01*
X767008Y15992778D01*
X923534Y16076443D01*
X1093373Y16127963D01*
X1133084Y16131874D01*
X1225735Y16141000D01*
X1314265Y16141000D01*
X1406916Y16131874D01*
X1406916Y16131874D01*
G37*
G36*
X1406916Y18671874D02*
X1446627Y18667963D01*
X1616466Y18616443D01*
X1772992Y18532778D01*
X1910186Y18420186D01*
X2022778Y18282992D01*
X2106443Y18126466D01*
X2157963Y17956627D01*
X2157963Y17956624D01*
X2175360Y17780000D01*
X2161931Y17643660D01*
X2157963Y17603373D01*
X2106443Y17433534D01*
X2022778Y17277008D01*
X1910186Y17139814D01*
X1772992Y17027222D01*
X1616466Y16943557D01*
X1446627Y16892037D01*
X1406916Y16888126D01*
X1314265Y16879000D01*
X1225735Y16879000D01*
X1133084Y16888126D01*
X1093373Y16892037D01*
X923534Y16943557D01*
X767008Y17027222D01*
X629814Y17139814D01*
X517222Y17277008D01*
X433557Y17433534D01*
X382037Y17603373D01*
X378069Y17643660D01*
X364640Y17780000D01*
X382037Y17956624D01*
X382037Y17956627D01*
X433557Y18126466D01*
X517222Y18282992D01*
X629814Y18420186D01*
X767008Y18532778D01*
X923534Y18616443D01*
X1093373Y18667963D01*
X1133084Y18671874D01*
X1225735Y18681000D01*
X1314265Y18681000D01*
X1406916Y18671874D01*
X1406916Y18671874D01*
G37*
G36*
X19186916Y18671874D02*
X19226627Y18667963D01*
X19396466Y18616443D01*
X19552992Y18532778D01*
X19690186Y18420186D01*
X19802778Y18282992D01*
X19886443Y18126466D01*
X19937963Y17956627D01*
X19937963Y17956624D01*
X19955360Y17780000D01*
X19941931Y17643660D01*
X19937963Y17603373D01*
X19886443Y17433534D01*
X19802778Y17277008D01*
X19690186Y17139814D01*
X19552992Y17027222D01*
X19396466Y16943557D01*
X19226627Y16892037D01*
X19186916Y16888126D01*
X19094265Y16879000D01*
X19005735Y16879000D01*
X18913084Y16888126D01*
X18873373Y16892037D01*
X18703534Y16943557D01*
X18547008Y17027222D01*
X18409814Y17139814D01*
X18297222Y17277008D01*
X18213557Y17433534D01*
X18162037Y17603373D01*
X18158069Y17643660D01*
X18144640Y17780000D01*
X18162037Y17956624D01*
X18162037Y17956627D01*
X18213557Y18126466D01*
X18297222Y18282992D01*
X18409814Y18420186D01*
X18547008Y18532778D01*
X18703534Y18616443D01*
X18873373Y18667963D01*
X18913084Y18671874D01*
X19005735Y18681000D01*
X19094265Y18681000D01*
X19186916Y18671874D01*
X19186916Y18671874D01*
G37*
G36*
X9301000Y17119000D02*
X7899000Y17119000D01*
X7899000Y18771000D01*
X9301000Y18771000D01*
X9301000Y17119000D01*
X9301000Y17119000D01*
G37*
G36*
X16921000Y17119000D02*
X15519000Y17119000D01*
X15519000Y18771000D01*
X16921000Y18771000D01*
X16921000Y17119000D01*
X16921000Y17119000D01*
G37*
G36*
X12421000Y17119000D02*
X11019000Y17119000D01*
X11019000Y18771000D01*
X12421000Y18771000D01*
X12421000Y17119000D01*
X12421000Y17119000D01*
G37*
G36*
X4801000Y17119000D02*
X3399000Y17119000D01*
X3399000Y18771000D01*
X4801000Y18771000D01*
X4801000Y17119000D01*
X4801000Y17119000D01*
G37*
G36*
X5954367Y20396641D02*
X5999918Y20382824D01*
X6041897Y20360385D01*
X6078690Y20330190D01*
X6108885Y20293397D01*
X6131324Y20251418D01*
X6145141Y20205867D01*
X6150000Y20156538D01*
X6150000Y19594462D01*
X6145141Y19545133D01*
X6131324Y19499582D01*
X6108885Y19457603D01*
X6078690Y19420810D01*
X6041897Y19390615D01*
X5999918Y19368176D01*
X5954367Y19354359D01*
X5905038Y19349500D01*
X5242962Y19349500D01*
X5193633Y19354359D01*
X5148082Y19368176D01*
X5106103Y19390615D01*
X5069310Y19420810D01*
X5039115Y19457603D01*
X5016676Y19499582D01*
X5002859Y19545133D01*
X4998000Y19594462D01*
X4998000Y20156538D01*
X5002859Y20205867D01*
X5016676Y20251418D01*
X5039115Y20293397D01*
X5069310Y20330190D01*
X5106103Y20360385D01*
X5148082Y20382824D01*
X5193633Y20396641D01*
X5242962Y20401500D01*
X5905038Y20401500D01*
X5954367Y20396641D01*
X5954367Y20396641D01*
G37*
G36*
X4204367Y20396641D02*
X4249918Y20382824D01*
X4291897Y20360385D01*
X4328690Y20330190D01*
X4358885Y20293397D01*
X4381324Y20251418D01*
X4395141Y20205867D01*
X4400000Y20156538D01*
X4400000Y19594462D01*
X4395141Y19545133D01*
X4381324Y19499582D01*
X4358885Y19457603D01*
X4328690Y19420810D01*
X4291897Y19390615D01*
X4249918Y19368176D01*
X4204367Y19354359D01*
X4155038Y19349500D01*
X3492962Y19349500D01*
X3443633Y19354359D01*
X3398082Y19368176D01*
X3356103Y19390615D01*
X3319310Y19420810D01*
X3289115Y19457603D01*
X3266676Y19499582D01*
X3252859Y19545133D01*
X3248000Y19594462D01*
X3248000Y20156538D01*
X3252859Y20205867D01*
X3266676Y20251418D01*
X3289115Y20293397D01*
X3319310Y20330190D01*
X3356103Y20360385D01*
X3398082Y20382824D01*
X3443633Y20396641D01*
X3492962Y20401500D01*
X4155038Y20401500D01*
X4204367Y20396641D01*
X4204367Y20396641D01*
G37*
G36*
X1406916Y21211874D02*
X1446627Y21207963D01*
X1616466Y21156443D01*
X1772992Y21072778D01*
X1910186Y20960186D01*
X2022778Y20822992D01*
X2092795Y20692000D01*
X2106443Y20666466D01*
X2157963Y20496627D01*
X2160258Y20473323D01*
X2175360Y20320000D01*
X2161931Y20183660D01*
X2157963Y20143373D01*
X2106443Y19973534D01*
X2022778Y19817008D01*
X1910186Y19679814D01*
X1772992Y19567222D01*
X1616466Y19483557D01*
X1446627Y19432037D01*
X1406916Y19428126D01*
X1314265Y19419000D01*
X1225735Y19419000D01*
X1133084Y19428126D01*
X1093373Y19432037D01*
X923534Y19483557D01*
X767008Y19567222D01*
X629814Y19679814D01*
X517222Y19817008D01*
X433557Y19973534D01*
X382037Y20143373D01*
X378069Y20183660D01*
X364640Y20320000D01*
X379742Y20473323D01*
X382037Y20496627D01*
X433557Y20666466D01*
X447205Y20692000D01*
X517222Y20822992D01*
X629814Y20960186D01*
X767008Y21072778D01*
X923534Y21156443D01*
X1093373Y21207963D01*
X1133084Y21211874D01*
X1225735Y21221000D01*
X1314265Y21221000D01*
X1406916Y21211874D01*
X1406916Y21211874D01*
G37*
G36*
X19186916Y21211874D02*
X19226627Y21207963D01*
X19396466Y21156443D01*
X19552992Y21072778D01*
X19690186Y20960186D01*
X19802778Y20822992D01*
X19872795Y20692000D01*
X19886443Y20666466D01*
X19937963Y20496627D01*
X19940258Y20473323D01*
X19955360Y20320000D01*
X19941931Y20183660D01*
X19937963Y20143373D01*
X19886443Y19973534D01*
X19802778Y19817008D01*
X19690186Y19679814D01*
X19552992Y19567222D01*
X19396466Y19483557D01*
X19226627Y19432037D01*
X19186916Y19428126D01*
X19094265Y19419000D01*
X19005735Y19419000D01*
X18913084Y19428126D01*
X18873373Y19432037D01*
X18703534Y19483557D01*
X18547008Y19567222D01*
X18409814Y19679814D01*
X18297222Y19817008D01*
X18213557Y19973534D01*
X18162037Y20143373D01*
X18158069Y20183660D01*
X18144640Y20320000D01*
X18159742Y20473323D01*
X18162037Y20496627D01*
X18213557Y20666466D01*
X18227205Y20692000D01*
X18297222Y20822992D01*
X18409814Y20960186D01*
X18547008Y21072778D01*
X18703534Y21156443D01*
X18873373Y21207963D01*
X18913084Y21211874D01*
X19005735Y21221000D01*
X19094265Y21221000D01*
X19186916Y21211874D01*
X19186916Y21211874D01*
G37*
G36*
X16967367Y20651141D02*
X17012918Y20637324D01*
X17054897Y20614885D01*
X17091690Y20584690D01*
X17121885Y20547897D01*
X17144324Y20505918D01*
X17158141Y20460367D01*
X17163000Y20411038D01*
X17163000Y19748962D01*
X17158141Y19699633D01*
X17144324Y19654082D01*
X17121885Y19612103D01*
X17091690Y19575310D01*
X17054897Y19545115D01*
X17012918Y19522676D01*
X16967367Y19508859D01*
X16918038Y19504000D01*
X16355962Y19504000D01*
X16306633Y19508859D01*
X16261082Y19522676D01*
X16219103Y19545115D01*
X16182310Y19575310D01*
X16152115Y19612103D01*
X16129676Y19654082D01*
X16115859Y19699633D01*
X16111000Y19748962D01*
X16111000Y20411038D01*
X16115859Y20460367D01*
X16129676Y20505918D01*
X16152115Y20547897D01*
X16182310Y20584690D01*
X16219103Y20614885D01*
X16261082Y20637324D01*
X16306633Y20651141D01*
X16355962Y20656000D01*
X16918038Y20656000D01*
X16967367Y20651141D01*
X16967367Y20651141D01*
G37*
G36*
X15443367Y20651141D02*
X15488918Y20637324D01*
X15530897Y20614885D01*
X15567690Y20584690D01*
X15597885Y20547897D01*
X15620324Y20505918D01*
X15634141Y20460367D01*
X15639000Y20411038D01*
X15639000Y19748962D01*
X15634141Y19699633D01*
X15620324Y19654082D01*
X15597885Y19612103D01*
X15567690Y19575310D01*
X15530897Y19545115D01*
X15488918Y19522676D01*
X15443367Y19508859D01*
X15394038Y19504000D01*
X14831962Y19504000D01*
X14782633Y19508859D01*
X14737082Y19522676D01*
X14695103Y19545115D01*
X14658310Y19575310D01*
X14628115Y19612103D01*
X14605676Y19654082D01*
X14591859Y19699633D01*
X14587000Y19748962D01*
X14587000Y20411038D01*
X14591859Y20460367D01*
X14605676Y20505918D01*
X14628115Y20547897D01*
X14658310Y20584690D01*
X14695103Y20614885D01*
X14737082Y20637324D01*
X14782633Y20651141D01*
X14831962Y20656000D01*
X15394038Y20656000D01*
X15443367Y20651141D01*
X15443367Y20651141D01*
G37*
G36*
X13701367Y21476141D02*
X13746918Y21462324D01*
X13788897Y21439885D01*
X13825690Y21409690D01*
X13855885Y21372897D01*
X13878324Y21330918D01*
X13892141Y21285367D01*
X13897000Y21236038D01*
X13897000Y20673962D01*
X13892141Y20624633D01*
X13878324Y20579082D01*
X13855885Y20537103D01*
X13825690Y20500310D01*
X13788897Y20470115D01*
X13746918Y20447676D01*
X13701367Y20433859D01*
X13652038Y20429000D01*
X12989962Y20429000D01*
X12940633Y20433859D01*
X12895082Y20447676D01*
X12853103Y20470115D01*
X12816310Y20500310D01*
X12786115Y20537103D01*
X12763676Y20579082D01*
X12749859Y20624633D01*
X12745000Y20673962D01*
X12745000Y21236038D01*
X12749859Y21285367D01*
X12763676Y21330918D01*
X12786115Y21372897D01*
X12816310Y21409690D01*
X12853103Y21439885D01*
X12895082Y21462324D01*
X12940633Y21476141D01*
X12989962Y21481000D01*
X13652038Y21481000D01*
X13701367Y21476141D01*
X13701367Y21476141D01*
G37*
G36*
X7569867Y21476141D02*
X7615418Y21462324D01*
X7657397Y21439885D01*
X7694190Y21409690D01*
X7724385Y21372897D01*
X7746824Y21330918D01*
X7760641Y21285367D01*
X7765500Y21236038D01*
X7765500Y20673962D01*
X7760641Y20624633D01*
X7746824Y20579082D01*
X7724385Y20537103D01*
X7694190Y20500310D01*
X7657397Y20470115D01*
X7615418Y20447676D01*
X7569867Y20433859D01*
X7520538Y20429000D01*
X6858462Y20429000D01*
X6809133Y20433859D01*
X6763582Y20447676D01*
X6721603Y20470115D01*
X6684810Y20500310D01*
X6654615Y20537103D01*
X6632176Y20579082D01*
X6618359Y20624633D01*
X6613500Y20673962D01*
X6613500Y21236038D01*
X6618359Y21285367D01*
X6632176Y21330918D01*
X6654615Y21372897D01*
X6684810Y21409690D01*
X6721603Y21439885D01*
X6763582Y21462324D01*
X6809133Y21476141D01*
X6858462Y21481000D01*
X7520538Y21481000D01*
X7569867Y21476141D01*
X7569867Y21476141D01*
G37*
G36*
X9319867Y21476141D02*
X9365418Y21462324D01*
X9407397Y21439885D01*
X9444190Y21409690D01*
X9474385Y21372897D01*
X9496824Y21330918D01*
X9510641Y21285367D01*
X9515500Y21236038D01*
X9515500Y20673962D01*
X9510641Y20624633D01*
X9496824Y20579082D01*
X9474385Y20537103D01*
X9444190Y20500310D01*
X9407397Y20470115D01*
X9365418Y20447676D01*
X9319867Y20433859D01*
X9270538Y20429000D01*
X8608462Y20429000D01*
X8559133Y20433859D01*
X8513582Y20447676D01*
X8471603Y20470115D01*
X8434810Y20500310D01*
X8404615Y20537103D01*
X8382176Y20579082D01*
X8368359Y20624633D01*
X8363500Y20673962D01*
X8363500Y21236038D01*
X8368359Y21285367D01*
X8382176Y21330918D01*
X8404615Y21372897D01*
X8434810Y21409690D01*
X8471603Y21439885D01*
X8513582Y21462324D01*
X8559133Y21476141D01*
X8608462Y21481000D01*
X9270538Y21481000D01*
X9319867Y21476141D01*
X9319867Y21476141D01*
G37*
G36*
X11951367Y21476141D02*
X11996918Y21462324D01*
X12038897Y21439885D01*
X12075690Y21409690D01*
X12105885Y21372897D01*
X12128324Y21330918D01*
X12142141Y21285367D01*
X12147000Y21236038D01*
X12147000Y20673962D01*
X12142141Y20624633D01*
X12128324Y20579082D01*
X12105885Y20537103D01*
X12075690Y20500310D01*
X12038897Y20470115D01*
X11996918Y20447676D01*
X11951367Y20433859D01*
X11902038Y20429000D01*
X11239962Y20429000D01*
X11190633Y20433859D01*
X11145082Y20447676D01*
X11103103Y20470115D01*
X11066310Y20500310D01*
X11036115Y20537103D01*
X11013676Y20579082D01*
X10999859Y20624633D01*
X10995000Y20673962D01*
X10995000Y21236038D01*
X10999859Y21285367D01*
X11013676Y21330918D01*
X11036115Y21372897D01*
X11066310Y21409690D01*
X11103103Y21439885D01*
X11145082Y21462324D01*
X11190633Y21476141D01*
X11239962Y21481000D01*
X11902038Y21481000D01*
X11951367Y21476141D01*
X11951367Y21476141D01*
G37*
G36*
X16967367Y22401141D02*
X17012918Y22387324D01*
X17054897Y22364885D01*
X17091690Y22334690D01*
X17121885Y22297897D01*
X17144324Y22255918D01*
X17158141Y22210367D01*
X17163000Y22161038D01*
X17163000Y21498962D01*
X17158141Y21449633D01*
X17144324Y21404082D01*
X17121885Y21362103D01*
X17091690Y21325310D01*
X17054897Y21295115D01*
X17012918Y21272676D01*
X16967367Y21258859D01*
X16918038Y21254000D01*
X16355962Y21254000D01*
X16306633Y21258859D01*
X16261082Y21272676D01*
X16219103Y21295115D01*
X16182310Y21325310D01*
X16152115Y21362103D01*
X16129676Y21404082D01*
X16115859Y21449633D01*
X16111000Y21498962D01*
X16111000Y22161038D01*
X16115859Y22210367D01*
X16129676Y22255918D01*
X16152115Y22297897D01*
X16182310Y22334690D01*
X16219103Y22364885D01*
X16261082Y22387324D01*
X16306633Y22401141D01*
X16355962Y22406000D01*
X16918038Y22406000D01*
X16967367Y22401141D01*
X16967367Y22401141D01*
G37*
G36*
X15443367Y22401141D02*
X15488918Y22387324D01*
X15530897Y22364885D01*
X15567690Y22334690D01*
X15597885Y22297897D01*
X15620324Y22255918D01*
X15634141Y22210367D01*
X15639000Y22161038D01*
X15639000Y21498962D01*
X15634141Y21449633D01*
X15620324Y21404082D01*
X15597885Y21362103D01*
X15567690Y21325310D01*
X15530897Y21295115D01*
X15488918Y21272676D01*
X15443367Y21258859D01*
X15394038Y21254000D01*
X14831962Y21254000D01*
X14782633Y21258859D01*
X14737082Y21272676D01*
X14695103Y21295115D01*
X14658310Y21325310D01*
X14628115Y21362103D01*
X14605676Y21404082D01*
X14591859Y21449633D01*
X14587000Y21498962D01*
X14587000Y22161038D01*
X14591859Y22210367D01*
X14605676Y22255918D01*
X14628115Y22297897D01*
X14658310Y22334690D01*
X14695103Y22364885D01*
X14737082Y22387324D01*
X14782633Y22401141D01*
X14831962Y22406000D01*
X15394038Y22406000D01*
X15443367Y22401141D01*
X15443367Y22401141D01*
G37*
G36*
X9461000Y21909000D02*
X8359000Y21909000D01*
X8359000Y23811000D01*
X9461000Y23811000D01*
X9461000Y21909000D01*
X9461000Y21909000D01*
G37*
G36*
X11961000Y21909000D02*
X10859000Y21909000D01*
X10859000Y23811000D01*
X11961000Y23811000D01*
X11961000Y21909000D01*
X11961000Y21909000D01*
G37*
G36*
X1406916Y23751874D02*
X1446627Y23747963D01*
X1573818Y23709380D01*
X1616466Y23696443D01*
X1772992Y23612778D01*
X1910186Y23500186D01*
X2022778Y23362992D01*
X2067995Y23278397D01*
X2106443Y23206466D01*
X2157963Y23036627D01*
X2159642Y23019582D01*
X2175360Y22860000D01*
X2166794Y22773033D01*
X2157963Y22683373D01*
X2106443Y22513534D01*
X2022778Y22357008D01*
X1910186Y22219814D01*
X1772992Y22107222D01*
X1616466Y22023557D01*
X1446627Y21972037D01*
X1406916Y21968126D01*
X1314265Y21959000D01*
X1225735Y21959000D01*
X1133084Y21968126D01*
X1093373Y21972037D01*
X923534Y22023557D01*
X767008Y22107222D01*
X629814Y22219814D01*
X517222Y22357008D01*
X433557Y22513534D01*
X382037Y22683373D01*
X373206Y22773033D01*
X364640Y22860000D01*
X380358Y23019582D01*
X382037Y23036627D01*
X433557Y23206466D01*
X472005Y23278397D01*
X517222Y23362992D01*
X629814Y23500186D01*
X767008Y23612778D01*
X923534Y23696443D01*
X966182Y23709380D01*
X1093373Y23747963D01*
X1133084Y23751874D01*
X1225735Y23761000D01*
X1314265Y23761000D01*
X1406916Y23751874D01*
X1406916Y23751874D01*
G37*
G36*
X19186916Y23751874D02*
X19226627Y23747963D01*
X19353818Y23709380D01*
X19396466Y23696443D01*
X19552992Y23612778D01*
X19690186Y23500186D01*
X19802778Y23362992D01*
X19847995Y23278397D01*
X19886443Y23206466D01*
X19937963Y23036627D01*
X19939642Y23019582D01*
X19955360Y22860000D01*
X19946794Y22773033D01*
X19937963Y22683373D01*
X19886443Y22513534D01*
X19802778Y22357008D01*
X19690186Y22219814D01*
X19552992Y22107222D01*
X19396466Y22023557D01*
X19226627Y21972037D01*
X19186916Y21968126D01*
X19094265Y21959000D01*
X19005735Y21959000D01*
X18913084Y21968126D01*
X18873373Y21972037D01*
X18703534Y22023557D01*
X18547008Y22107222D01*
X18409814Y22219814D01*
X18297222Y22357008D01*
X18213557Y22513534D01*
X18162037Y22683373D01*
X18153206Y22773033D01*
X18144640Y22860000D01*
X18160358Y23019582D01*
X18162037Y23036627D01*
X18213557Y23206466D01*
X18252005Y23278397D01*
X18297222Y23362992D01*
X18409814Y23500186D01*
X18547008Y23612778D01*
X18703534Y23696443D01*
X18746182Y23709380D01*
X18873373Y23747963D01*
X18913084Y23751874D01*
X19005735Y23761000D01*
X19094265Y23761000D01*
X19186916Y23751874D01*
X19186916Y23751874D01*
G37*
G36*
X13347867Y23381641D02*
X13393418Y23367824D01*
X13435397Y23345385D01*
X13472190Y23315190D01*
X13502385Y23278397D01*
X13524824Y23236418D01*
X13538641Y23190867D01*
X13543500Y23141538D01*
X13543500Y22479462D01*
X13538641Y22430133D01*
X13524824Y22384582D01*
X13502385Y22342603D01*
X13472190Y22305810D01*
X13435397Y22275615D01*
X13393418Y22253176D01*
X13347867Y22239359D01*
X13298538Y22234500D01*
X12736462Y22234500D01*
X12687133Y22239359D01*
X12641582Y22253176D01*
X12599603Y22275615D01*
X12562810Y22305810D01*
X12532615Y22342603D01*
X12510176Y22384582D01*
X12496359Y22430133D01*
X12491500Y22479462D01*
X12491500Y23141538D01*
X12496359Y23190867D01*
X12510176Y23236418D01*
X12532615Y23278397D01*
X12562810Y23315190D01*
X12599603Y23345385D01*
X12641582Y23367824D01*
X12687133Y23381641D01*
X12736462Y23386500D01*
X13298538Y23386500D01*
X13347867Y23381641D01*
X13347867Y23381641D01*
G37*
G36*
X5623800Y22526600D02*
X3621800Y22526600D01*
X3621800Y23028600D01*
X5623800Y23028600D01*
X5623800Y22526600D01*
X5623800Y22526600D01*
G37*
G36*
X7137567Y23724541D02*
X7183118Y23710724D01*
X7225097Y23688285D01*
X7261890Y23658090D01*
X7292085Y23621297D01*
X7314524Y23579318D01*
X7328341Y23533767D01*
X7333200Y23484438D01*
X7333200Y22822362D01*
X7328341Y22773033D01*
X7314524Y22727482D01*
X7292085Y22685503D01*
X7261890Y22648710D01*
X7225097Y22618515D01*
X7183118Y22596076D01*
X7137567Y22582259D01*
X7088238Y22577400D01*
X6526162Y22577400D01*
X6476833Y22582259D01*
X6431282Y22596076D01*
X6389303Y22618515D01*
X6352510Y22648710D01*
X6322315Y22685503D01*
X6299876Y22727482D01*
X6286059Y22773033D01*
X6281200Y22822362D01*
X6281200Y23484438D01*
X6286059Y23533767D01*
X6299876Y23579318D01*
X6322315Y23621297D01*
X6352510Y23658090D01*
X6389303Y23688285D01*
X6431282Y23710724D01*
X6476833Y23724541D01*
X6526162Y23729400D01*
X7088238Y23729400D01*
X7137567Y23724541D01*
X7137567Y23724541D01*
G37*
G36*
X16967367Y24016641D02*
X17012918Y24002824D01*
X17054897Y23980385D01*
X17091690Y23950190D01*
X17121885Y23913397D01*
X17144324Y23871418D01*
X17158141Y23825867D01*
X17163000Y23776538D01*
X17163000Y23114462D01*
X17158141Y23065133D01*
X17144324Y23019582D01*
X17121885Y22977603D01*
X17091690Y22940810D01*
X17054897Y22910615D01*
X17012918Y22888176D01*
X16967367Y22874359D01*
X16918038Y22869500D01*
X16355962Y22869500D01*
X16306633Y22874359D01*
X16261082Y22888176D01*
X16219103Y22910615D01*
X16182310Y22940810D01*
X16152115Y22977603D01*
X16129676Y23019582D01*
X16115859Y23065133D01*
X16111000Y23114462D01*
X16111000Y23776538D01*
X16115859Y23825867D01*
X16129676Y23871418D01*
X16152115Y23913397D01*
X16182310Y23950190D01*
X16219103Y23980385D01*
X16261082Y24002824D01*
X16306633Y24016641D01*
X16355962Y24021500D01*
X16918038Y24021500D01*
X16967367Y24016641D01*
X16967367Y24016641D01*
G37*
G36*
X15443367Y24016641D02*
X15488918Y24002824D01*
X15530897Y23980385D01*
X15567690Y23950190D01*
X15597885Y23913397D01*
X15620324Y23871418D01*
X15634141Y23825867D01*
X15639000Y23776538D01*
X15639000Y23114462D01*
X15634141Y23065133D01*
X15620324Y23019582D01*
X15597885Y22977603D01*
X15567690Y22940810D01*
X15530897Y22910615D01*
X15488918Y22888176D01*
X15443367Y22874359D01*
X15394038Y22869500D01*
X14831962Y22869500D01*
X14782633Y22874359D01*
X14737082Y22888176D01*
X14695103Y22910615D01*
X14658310Y22940810D01*
X14628115Y22977603D01*
X14605676Y23019582D01*
X14591859Y23065133D01*
X14587000Y23114462D01*
X14587000Y23776538D01*
X14591859Y23825867D01*
X14605676Y23871418D01*
X14628115Y23913397D01*
X14658310Y23950190D01*
X14695103Y23980385D01*
X14737082Y24002824D01*
X14782633Y24016641D01*
X14831962Y24021500D01*
X15394038Y24021500D01*
X15443367Y24016641D01*
X15443367Y24016641D01*
G37*
G36*
X5623800Y23726600D02*
X3621800Y23726600D01*
X3621800Y24228600D01*
X5623800Y24228600D01*
X5623800Y23726600D01*
X5623800Y23726600D01*
G37*
G36*
X13347867Y25131641D02*
X13393418Y25117824D01*
X13435397Y25095385D01*
X13472190Y25065190D01*
X13502385Y25028397D01*
X13524824Y24986418D01*
X13538641Y24940867D01*
X13543500Y24891538D01*
X13543500Y24229462D01*
X13538641Y24180133D01*
X13524824Y24134582D01*
X13502385Y24092603D01*
X13472190Y24055810D01*
X13435397Y24025615D01*
X13393418Y24003176D01*
X13347867Y23989359D01*
X13298538Y23984500D01*
X12736462Y23984500D01*
X12687133Y23989359D01*
X12641582Y24003176D01*
X12599603Y24025615D01*
X12562810Y24055810D01*
X12532615Y24092603D01*
X12510176Y24134582D01*
X12496359Y24180133D01*
X12491500Y24229462D01*
X12491500Y24891538D01*
X12496359Y24940867D01*
X12510176Y24986418D01*
X12532615Y25028397D01*
X12562810Y25065190D01*
X12599603Y25095385D01*
X12641582Y25117824D01*
X12687133Y25131641D01*
X12736462Y25136500D01*
X13298538Y25136500D01*
X13347867Y25131641D01*
X13347867Y25131641D01*
G37*
G36*
X7137567Y25474541D02*
X7183118Y25460724D01*
X7225097Y25438285D01*
X7261890Y25408090D01*
X7292085Y25371297D01*
X7314524Y25329318D01*
X7328341Y25283767D01*
X7333200Y25234438D01*
X7333200Y24572362D01*
X7328341Y24523033D01*
X7314524Y24477482D01*
X7292085Y24435503D01*
X7261890Y24398710D01*
X7225097Y24368515D01*
X7183118Y24346076D01*
X7137567Y24332259D01*
X7088238Y24327400D01*
X6526162Y24327400D01*
X6476833Y24332259D01*
X6431282Y24346076D01*
X6389303Y24368515D01*
X6352510Y24398710D01*
X6322315Y24435503D01*
X6299876Y24477482D01*
X6286059Y24523033D01*
X6281200Y24572362D01*
X6281200Y25234438D01*
X6286059Y25283767D01*
X6299876Y25329318D01*
X6322315Y25371297D01*
X6352510Y25408090D01*
X6389303Y25438285D01*
X6431282Y25460724D01*
X6476833Y25474541D01*
X6526162Y25479400D01*
X7088238Y25479400D01*
X7137567Y25474541D01*
X7137567Y25474541D01*
G37*
G36*
X1406916Y26291874D02*
X1446627Y26287963D01*
X1616466Y26236443D01*
X1772992Y26152778D01*
X1910186Y26040186D01*
X2022778Y25902992D01*
X2064365Y25825188D01*
X2106443Y25746466D01*
X2157963Y25576627D01*
X2157963Y25576624D01*
X2175360Y25400000D01*
X2168398Y25329318D01*
X2157963Y25223373D01*
X2125945Y25117824D01*
X2106443Y25053534D01*
X2022778Y24897008D01*
X1910186Y24759814D01*
X1772992Y24647222D01*
X1632939Y24572362D01*
X1616466Y24563557D01*
X1446627Y24512037D01*
X1406916Y24508126D01*
X1314265Y24499000D01*
X1225735Y24499000D01*
X1133084Y24508126D01*
X1093373Y24512037D01*
X923534Y24563557D01*
X907061Y24572362D01*
X767008Y24647222D01*
X629814Y24759814D01*
X517222Y24897008D01*
X433557Y25053534D01*
X414055Y25117824D01*
X382037Y25223373D01*
X371602Y25329318D01*
X364640Y25400000D01*
X382037Y25576624D01*
X382037Y25576627D01*
X433557Y25746466D01*
X475635Y25825188D01*
X517222Y25902992D01*
X629814Y26040186D01*
X767008Y26152778D01*
X923534Y26236443D01*
X1093373Y26287963D01*
X1133084Y26291874D01*
X1225735Y26301000D01*
X1314265Y26301000D01*
X1406916Y26291874D01*
X1406916Y26291874D01*
G37*
G36*
X19186916Y26291874D02*
X19226627Y26287963D01*
X19396466Y26236443D01*
X19552992Y26152778D01*
X19690186Y26040186D01*
X19802778Y25902992D01*
X19844365Y25825188D01*
X19886443Y25746466D01*
X19937963Y25576627D01*
X19937963Y25576624D01*
X19955360Y25400000D01*
X19948398Y25329318D01*
X19937963Y25223373D01*
X19905945Y25117824D01*
X19886443Y25053534D01*
X19802778Y24897008D01*
X19690186Y24759814D01*
X19552992Y24647222D01*
X19412939Y24572362D01*
X19396466Y24563557D01*
X19226627Y24512037D01*
X19186916Y24508126D01*
X19094265Y24499000D01*
X19005735Y24499000D01*
X18913084Y24508126D01*
X18873373Y24512037D01*
X18703534Y24563557D01*
X18687061Y24572362D01*
X18547008Y24647222D01*
X18409814Y24759814D01*
X18297222Y24897008D01*
X18213557Y25053534D01*
X18194055Y25117824D01*
X18162037Y25223373D01*
X18151602Y25329318D01*
X18144640Y25400000D01*
X18162037Y25576624D01*
X18162037Y25576627D01*
X18213557Y25746466D01*
X18255635Y25825188D01*
X18297222Y25902992D01*
X18409814Y26040186D01*
X18547008Y26152778D01*
X18703534Y26236443D01*
X18873373Y26287963D01*
X18913084Y26291874D01*
X19005735Y26301000D01*
X19094265Y26301000D01*
X19186916Y26291874D01*
X19186916Y26291874D01*
G37*
G36*
X15443367Y25766641D02*
X15488918Y25752824D01*
X15530897Y25730385D01*
X15567690Y25700190D01*
X15597885Y25663397D01*
X15620324Y25621418D01*
X15634141Y25575867D01*
X15639000Y25526538D01*
X15639000Y24864462D01*
X15634141Y24815133D01*
X15620324Y24769582D01*
X15597885Y24727603D01*
X15567690Y24690810D01*
X15530897Y24660615D01*
X15488918Y24638176D01*
X15443367Y24624359D01*
X15394038Y24619500D01*
X14831962Y24619500D01*
X14782633Y24624359D01*
X14737082Y24638176D01*
X14695103Y24660615D01*
X14658310Y24690810D01*
X14628115Y24727603D01*
X14605676Y24769582D01*
X14591859Y24815133D01*
X14587000Y24864462D01*
X14587000Y25526538D01*
X14591859Y25575867D01*
X14605676Y25621418D01*
X14628115Y25663397D01*
X14658310Y25700190D01*
X14695103Y25730385D01*
X14737082Y25752824D01*
X14782633Y25766641D01*
X14831962Y25771500D01*
X15394038Y25771500D01*
X15443367Y25766641D01*
X15443367Y25766641D01*
G37*
G36*
X16967367Y25766641D02*
X17012918Y25752824D01*
X17054897Y25730385D01*
X17091690Y25700190D01*
X17121885Y25663397D01*
X17144324Y25621418D01*
X17158141Y25575867D01*
X17163000Y25526538D01*
X17163000Y24864462D01*
X17158141Y24815133D01*
X17144324Y24769582D01*
X17121885Y24727603D01*
X17091690Y24690810D01*
X17054897Y24660615D01*
X17012918Y24638176D01*
X16967367Y24624359D01*
X16918038Y24619500D01*
X16355962Y24619500D01*
X16306633Y24624359D01*
X16261082Y24638176D01*
X16219103Y24660615D01*
X16182310Y24690810D01*
X16152115Y24727603D01*
X16129676Y24769582D01*
X16115859Y24815133D01*
X16111000Y24864462D01*
X16111000Y25526538D01*
X16115859Y25575867D01*
X16129676Y25621418D01*
X16152115Y25663397D01*
X16182310Y25700190D01*
X16219103Y25730385D01*
X16261082Y25752824D01*
X16306633Y25766641D01*
X16355962Y25771500D01*
X16918038Y25771500D01*
X16967367Y25766641D01*
X16967367Y25766641D01*
G37*
G36*
X5623800Y24926600D02*
X3621800Y24926600D01*
X3621800Y25428600D01*
X5623800Y25428600D01*
X5623800Y24926600D01*
X5623800Y24926600D01*
G37*
G36*
X9754828Y26496940D02*
X8622042Y25364154D01*
X8161008Y25825188D01*
X9293794Y26957974D01*
X9754828Y26496940D01*
X9754828Y26496940D01*
G37*
G36*
X12158992Y25825188D02*
X11697958Y25364154D01*
X10565172Y26496940D01*
X11026206Y26957974D01*
X12158992Y25825188D01*
X12158992Y25825188D01*
G37*
G36*
X12724677Y26390874D02*
X12263643Y25929840D01*
X11130857Y27062626D01*
X11591891Y27523660D01*
X12724677Y26390874D01*
X12724677Y26390874D01*
G37*
G36*
X9189143Y27062626D02*
X8056357Y25929840D01*
X7595323Y26390874D01*
X8728109Y27523660D01*
X9189143Y27062626D01*
X9189143Y27062626D01*
G37*
G36*
X15316867Y27381641D02*
X15362418Y27367824D01*
X15404397Y27345385D01*
X15441190Y27315190D01*
X15471385Y27278397D01*
X15493824Y27236418D01*
X15507641Y27190867D01*
X15512500Y27141538D01*
X15512500Y26579462D01*
X15507641Y26530133D01*
X15493824Y26484582D01*
X15471385Y26442603D01*
X15441190Y26405810D01*
X15404397Y26375615D01*
X15362418Y26353176D01*
X15316867Y26339359D01*
X15267538Y26334500D01*
X14605462Y26334500D01*
X14556133Y26339359D01*
X14510582Y26353176D01*
X14468603Y26375615D01*
X14431810Y26405810D01*
X14401615Y26442603D01*
X14379176Y26484582D01*
X14365359Y26530133D01*
X14360500Y26579462D01*
X14360500Y27141538D01*
X14365359Y27190867D01*
X14379176Y27236418D01*
X14401615Y27278397D01*
X14431810Y27315190D01*
X14468603Y27345385D01*
X14510582Y27367824D01*
X14556133Y27381641D01*
X14605462Y27386500D01*
X15267538Y27386500D01*
X15316867Y27381641D01*
X15316867Y27381641D01*
G37*
G36*
X17066867Y27381641D02*
X17112418Y27367824D01*
X17154397Y27345385D01*
X17191190Y27315190D01*
X17221385Y27278397D01*
X17243824Y27236418D01*
X17257641Y27190867D01*
X17262500Y27141538D01*
X17262500Y26579462D01*
X17257641Y26530133D01*
X17243824Y26484582D01*
X17221385Y26442603D01*
X17191190Y26405810D01*
X17154397Y26375615D01*
X17112418Y26353176D01*
X17066867Y26339359D01*
X17017538Y26334500D01*
X16355462Y26334500D01*
X16306133Y26339359D01*
X16260582Y26353176D01*
X16218603Y26375615D01*
X16181810Y26405810D01*
X16151615Y26442603D01*
X16129176Y26484582D01*
X16115359Y26530133D01*
X16110500Y26579462D01*
X16110500Y27141538D01*
X16115359Y27190867D01*
X16129176Y27236418D01*
X16151615Y27278397D01*
X16181810Y27315190D01*
X16218603Y27345385D01*
X16260582Y27367824D01*
X16306133Y27381641D01*
X16355462Y27386500D01*
X17017538Y27386500D01*
X17066867Y27381641D01*
X17066867Y27381641D01*
G37*
G36*
X3823367Y27445141D02*
X3868918Y27431324D01*
X3910897Y27408885D01*
X3947690Y27378690D01*
X3977885Y27341897D01*
X4000324Y27299918D01*
X4014141Y27254367D01*
X4019000Y27205038D01*
X4019000Y26642962D01*
X4014141Y26593633D01*
X4000324Y26548082D01*
X3977885Y26506103D01*
X3947690Y26469310D01*
X3910897Y26439115D01*
X3868918Y26416676D01*
X3823367Y26402859D01*
X3774038Y26398000D01*
X3111962Y26398000D01*
X3062633Y26402859D01*
X3017082Y26416676D01*
X2975103Y26439115D01*
X2938310Y26469310D01*
X2908115Y26506103D01*
X2885676Y26548082D01*
X2871859Y26593633D01*
X2867000Y26642962D01*
X2867000Y27205038D01*
X2871859Y27254367D01*
X2885676Y27299918D01*
X2908115Y27341897D01*
X2938310Y27378690D01*
X2975103Y27408885D01*
X3017082Y27431324D01*
X3062633Y27445141D01*
X3111962Y27450000D01*
X3774038Y27450000D01*
X3823367Y27445141D01*
X3823367Y27445141D01*
G37*
G36*
X5573367Y27445141D02*
X5618918Y27431324D01*
X5660897Y27408885D01*
X5697690Y27378690D01*
X5727885Y27341897D01*
X5750324Y27299918D01*
X5764141Y27254367D01*
X5769000Y27205038D01*
X5769000Y26642962D01*
X5764141Y26593633D01*
X5750324Y26548082D01*
X5727885Y26506103D01*
X5697690Y26469310D01*
X5660897Y26439115D01*
X5618918Y26416676D01*
X5573367Y26402859D01*
X5524038Y26398000D01*
X4861962Y26398000D01*
X4812633Y26402859D01*
X4767082Y26416676D01*
X4725103Y26439115D01*
X4688310Y26469310D01*
X4658115Y26506103D01*
X4635676Y26548082D01*
X4621859Y26593633D01*
X4617000Y26642962D01*
X4617000Y27205038D01*
X4621859Y27254367D01*
X4635676Y27299918D01*
X4658115Y27341897D01*
X4688310Y27378690D01*
X4725103Y27408885D01*
X4767082Y27431324D01*
X4812633Y27445141D01*
X4861962Y27450000D01*
X5524038Y27450000D01*
X5573367Y27445141D01*
X5573367Y27445141D01*
G37*
G36*
X8623458Y27628311D02*
X7490672Y26495525D01*
X7029638Y26956559D01*
X8162424Y28089345D01*
X8623458Y27628311D01*
X8623458Y27628311D01*
G37*
G36*
X13290362Y26956559D02*
X12829328Y26495525D01*
X11696542Y27628311D01*
X12157576Y28089345D01*
X13290362Y26956559D01*
X13290362Y26956559D01*
G37*
G36*
X19186916Y28831874D02*
X19226627Y28827963D01*
X19396466Y28776443D01*
X19552992Y28692778D01*
X19690186Y28580186D01*
X19802778Y28442992D01*
X19886443Y28286466D01*
X19937963Y28116627D01*
X19937963Y28116624D01*
X19955360Y27940000D01*
X19941931Y27803660D01*
X19937963Y27763373D01*
X19896563Y27626896D01*
X19886443Y27593534D01*
X19802778Y27437008D01*
X19690186Y27299814D01*
X19552992Y27187222D01*
X19396466Y27103557D01*
X19226627Y27052037D01*
X19186916Y27048126D01*
X19094265Y27039000D01*
X19005735Y27039000D01*
X18913084Y27048126D01*
X18873373Y27052037D01*
X18703534Y27103557D01*
X18547008Y27187222D01*
X18409814Y27299814D01*
X18297222Y27437008D01*
X18213557Y27593534D01*
X18203437Y27626896D01*
X18162037Y27763373D01*
X18158069Y27803660D01*
X18144640Y27940000D01*
X18162037Y28116624D01*
X18162037Y28116627D01*
X18213557Y28286466D01*
X18297222Y28442992D01*
X18409814Y28580186D01*
X18547008Y28692778D01*
X18703534Y28776443D01*
X18873373Y28827963D01*
X18913084Y28831874D01*
X19005735Y28841000D01*
X19094265Y28841000D01*
X19186916Y28831874D01*
X19186916Y28831874D01*
G37*
G36*
X1406916Y28831874D02*
X1446627Y28827963D01*
X1616466Y28776443D01*
X1772992Y28692778D01*
X1910186Y28580186D01*
X2022778Y28442992D01*
X2106443Y28286466D01*
X2157963Y28116627D01*
X2157963Y28116624D01*
X2175360Y27940000D01*
X2161931Y27803660D01*
X2157963Y27763373D01*
X2116563Y27626896D01*
X2106443Y27593534D01*
X2022778Y27437008D01*
X1910186Y27299814D01*
X1772992Y27187222D01*
X1616466Y27103557D01*
X1446627Y27052037D01*
X1406916Y27048126D01*
X1314265Y27039000D01*
X1225735Y27039000D01*
X1133084Y27048126D01*
X1093373Y27052037D01*
X923534Y27103557D01*
X767008Y27187222D01*
X629814Y27299814D01*
X517222Y27437008D01*
X433557Y27593534D01*
X423437Y27626896D01*
X382037Y27763373D01*
X378069Y27803660D01*
X364640Y27940000D01*
X382037Y28116624D01*
X382037Y28116627D01*
X433557Y28286466D01*
X517222Y28442992D01*
X629814Y28580186D01*
X767008Y28692778D01*
X923534Y28776443D01*
X1093373Y28827963D01*
X1133084Y28831874D01*
X1225735Y28841000D01*
X1314265Y28841000D01*
X1406916Y28831874D01*
X1406916Y28831874D01*
G37*
G36*
X13856048Y27522244D02*
X13395014Y27061210D01*
X12262228Y28193996D01*
X12723262Y28655030D01*
X13856048Y27522244D01*
X13856048Y27522244D01*
G37*
G36*
X8057772Y28193996D02*
X6924986Y27061210D01*
X6463952Y27522244D01*
X7596738Y28655030D01*
X8057772Y28193996D01*
X8057772Y28193996D01*
G37*
G36*
X14421733Y28087930D02*
X13960699Y27626896D01*
X12827913Y28759682D01*
X13288947Y29220716D01*
X14421733Y28087930D01*
X14421733Y28087930D01*
G37*
G36*
X7492087Y28759682D02*
X6359301Y27626896D01*
X5898267Y28087930D01*
X7031053Y29220716D01*
X7492087Y28759682D01*
X7492087Y28759682D01*
G37*
G36*
X6926401Y29325367D02*
X5793615Y28192581D01*
X5332581Y28653615D01*
X6465367Y29786401D01*
X6926401Y29325367D01*
X6926401Y29325367D01*
G37*
G36*
X14987419Y28653615D02*
X14526385Y28192581D01*
X13393599Y29325367D01*
X13854633Y29786401D01*
X14987419Y28653615D01*
X14987419Y28653615D01*
G37*
G36*
X6360716Y29891053D02*
X5227930Y28758267D01*
X4766896Y29219301D01*
X5899682Y30352087D01*
X6360716Y29891053D01*
X6360716Y29891053D01*
G37*
G36*
X15553104Y29219301D02*
X15092070Y28758267D01*
X13959284Y29891053D01*
X14420318Y30352087D01*
X15553104Y29219301D01*
X15553104Y29219301D01*
G37*
G36*
X5795030Y30456738D02*
X4662244Y29323952D01*
X4201210Y29784986D01*
X5333996Y30917772D01*
X5795030Y30456738D01*
X5795030Y30456738D01*
G37*
G36*
X16118790Y29784986D02*
X15657756Y29323952D01*
X14524970Y30456738D01*
X14986004Y30917772D01*
X16118790Y29784986D01*
X16118790Y29784986D01*
G37*
G36*
X1406916Y31371874D02*
X1446627Y31367963D01*
X1616466Y31316443D01*
X1772992Y31232778D01*
X1910186Y31120186D01*
X2022778Y30982992D01*
X2057639Y30917772D01*
X2106443Y30826466D01*
X2157963Y30656627D01*
X2157963Y30656624D01*
X2175360Y30480000D01*
X2161931Y30343660D01*
X2157963Y30303373D01*
X2106443Y30133534D01*
X2022778Y29977008D01*
X1910186Y29839814D01*
X1772992Y29727222D01*
X1616466Y29643557D01*
X1446627Y29592037D01*
X1406916Y29588126D01*
X1314265Y29579000D01*
X1225735Y29579000D01*
X1133084Y29588126D01*
X1093373Y29592037D01*
X923534Y29643557D01*
X767008Y29727222D01*
X629814Y29839814D01*
X517222Y29977008D01*
X433557Y30133534D01*
X382037Y30303373D01*
X378069Y30343660D01*
X364640Y30480000D01*
X382037Y30656624D01*
X382037Y30656627D01*
X433557Y30826466D01*
X482361Y30917772D01*
X517222Y30982992D01*
X629814Y31120186D01*
X767008Y31232778D01*
X923534Y31316443D01*
X1093373Y31367963D01*
X1133084Y31371874D01*
X1225735Y31381000D01*
X1314265Y31381000D01*
X1406916Y31371874D01*
X1406916Y31371874D01*
G37*
G36*
X19186916Y31371874D02*
X19226627Y31367963D01*
X19396466Y31316443D01*
X19552992Y31232778D01*
X19690186Y31120186D01*
X19802778Y30982992D01*
X19837639Y30917772D01*
X19886443Y30826466D01*
X19937963Y30656627D01*
X19937963Y30656624D01*
X19955360Y30480000D01*
X19941931Y30343660D01*
X19937963Y30303373D01*
X19886443Y30133534D01*
X19802778Y29977008D01*
X19690186Y29839814D01*
X19552992Y29727222D01*
X19396466Y29643557D01*
X19226627Y29592037D01*
X19186916Y29588126D01*
X19094265Y29579000D01*
X19005735Y29579000D01*
X18913084Y29588126D01*
X18873373Y29592037D01*
X18703534Y29643557D01*
X18547008Y29727222D01*
X18409814Y29839814D01*
X18297222Y29977008D01*
X18213557Y30133534D01*
X18162037Y30303373D01*
X18158069Y30343660D01*
X18144640Y30480000D01*
X18162037Y30656624D01*
X18162037Y30656627D01*
X18213557Y30826466D01*
X18262361Y30917772D01*
X18297222Y30982992D01*
X18409814Y31120186D01*
X18547008Y31232778D01*
X18703534Y31316443D01*
X18873373Y31367963D01*
X18913084Y31371874D01*
X19005735Y31381000D01*
X19094265Y31381000D01*
X19186916Y31371874D01*
X19186916Y31371874D01*
G37*
G36*
X16684475Y30350672D02*
X16223441Y29889638D01*
X15090655Y31022424D01*
X15551689Y31483458D01*
X16684475Y30350672D01*
X16684475Y30350672D01*
G37*
G36*
X5229345Y31022424D02*
X4096559Y29889638D01*
X3635525Y30350672D01*
X4768311Y31483458D01*
X5229345Y31022424D01*
X5229345Y31022424D01*
G37*
G36*
X4663660Y31588109D02*
X3530874Y30455323D01*
X3069840Y30916357D01*
X4202626Y32049143D01*
X4663660Y31588109D01*
X4663660Y31588109D01*
G37*
G36*
X17250160Y30916357D02*
X16789126Y30455323D01*
X15656340Y31588109D01*
X16117374Y32049143D01*
X17250160Y30916357D01*
X17250160Y30916357D01*
G37*
G36*
X4097974Y32153794D02*
X2965188Y31021008D01*
X2504154Y31482042D01*
X3636940Y32614828D01*
X4097974Y32153794D01*
X4097974Y32153794D01*
G37*
G36*
X17815846Y31482042D02*
X17354812Y31021008D01*
X16222026Y32153794D01*
X16683060Y32614828D01*
X17815846Y31482042D01*
X17815846Y31482042D01*
G37*
G36*
X1406916Y33911874D02*
X1446627Y33907963D01*
X1616466Y33856443D01*
X1772992Y33772778D01*
X1910186Y33660186D01*
X2022778Y33522992D01*
X2075063Y33425173D01*
X2106443Y33366466D01*
X2157963Y33196627D01*
X2157963Y33196624D01*
X2175360Y33020000D01*
X2161931Y32883660D01*
X2157963Y32843373D01*
X2106443Y32673534D01*
X2022778Y32517008D01*
X1910186Y32379814D01*
X1772992Y32267222D01*
X1616466Y32183557D01*
X1446627Y32132037D01*
X1406916Y32128126D01*
X1314265Y32119000D01*
X1225735Y32119000D01*
X1133084Y32128126D01*
X1093373Y32132037D01*
X923534Y32183557D01*
X767008Y32267222D01*
X629814Y32379814D01*
X517222Y32517008D01*
X433557Y32673534D01*
X382037Y32843373D01*
X378069Y32883660D01*
X364640Y33020000D01*
X382037Y33196624D01*
X382037Y33196627D01*
X433557Y33366466D01*
X464937Y33425173D01*
X517222Y33522992D01*
X629814Y33660186D01*
X767008Y33772778D01*
X923534Y33856443D01*
X1093373Y33907963D01*
X1133084Y33911874D01*
X1225735Y33921000D01*
X1314265Y33921000D01*
X1406916Y33911874D01*
X1406916Y33911874D01*
G37*
G36*
X19186916Y33911874D02*
X19226627Y33907963D01*
X19396466Y33856443D01*
X19552992Y33772778D01*
X19690186Y33660186D01*
X19802778Y33522992D01*
X19855063Y33425173D01*
X19886443Y33366466D01*
X19937963Y33196627D01*
X19937963Y33196624D01*
X19955360Y33020000D01*
X19941931Y32883660D01*
X19937963Y32843373D01*
X19886443Y32673534D01*
X19802778Y32517008D01*
X19690186Y32379814D01*
X19552992Y32267222D01*
X19396466Y32183557D01*
X19226627Y32132037D01*
X19186916Y32128126D01*
X19094265Y32119000D01*
X19005735Y32119000D01*
X18913084Y32128126D01*
X18873373Y32132037D01*
X18703534Y32183557D01*
X18547008Y32267222D01*
X18409814Y32379814D01*
X18297222Y32517008D01*
X18213557Y32673534D01*
X18162037Y32843373D01*
X18158069Y32883660D01*
X18144640Y33020000D01*
X18162037Y33196624D01*
X18162037Y33196627D01*
X18213557Y33366466D01*
X18244937Y33425173D01*
X18297222Y33522992D01*
X18409814Y33660186D01*
X18547008Y33772778D01*
X18703534Y33856443D01*
X18873373Y33907963D01*
X18913084Y33911874D01*
X19005735Y33921000D01*
X19094265Y33921000D01*
X19186916Y33911874D01*
X19186916Y33911874D01*
G37*
G36*
X4097974Y33886206D02*
X3636940Y33425172D01*
X2504154Y34557958D01*
X2965188Y35018992D01*
X4097974Y33886206D01*
X4097974Y33886206D01*
G37*
G36*
X17815846Y34557958D02*
X16683060Y33425172D01*
X16222026Y33886206D01*
X17354812Y35018992D01*
X17815846Y34557958D01*
X17815846Y34557958D01*
G37*
G36*
X4663660Y34451891D02*
X4202626Y33990857D01*
X3069840Y35123643D01*
X3530874Y35584677D01*
X4663660Y34451891D01*
X4663660Y34451891D01*
G37*
G36*
X17250160Y35123643D02*
X16117374Y33990857D01*
X15656340Y34451891D01*
X16789126Y35584677D01*
X17250160Y35123643D01*
X17250160Y35123643D01*
G37*
G36*
X5229345Y35017576D02*
X4768311Y34556542D01*
X3635525Y35689328D01*
X4096559Y36150362D01*
X5229345Y35017576D01*
X5229345Y35017576D01*
G37*
G36*
X16684475Y35689328D02*
X15551689Y34556542D01*
X15090655Y35017576D01*
X16223441Y36150362D01*
X16684475Y35689328D01*
X16684475Y35689328D01*
G37*
G36*
X19186916Y36451874D02*
X19226627Y36447963D01*
X19396466Y36396443D01*
X19552992Y36312778D01*
X19690186Y36200186D01*
X19802778Y36062992D01*
X19886443Y35906466D01*
X19937963Y35736627D01*
X19937963Y35736624D01*
X19955360Y35560000D01*
X19941931Y35423660D01*
X19937963Y35383373D01*
X19886443Y35213534D01*
X19802778Y35057008D01*
X19690186Y34919814D01*
X19552992Y34807222D01*
X19396466Y34723557D01*
X19226627Y34672037D01*
X19186916Y34668126D01*
X19094265Y34659000D01*
X19005735Y34659000D01*
X18913084Y34668126D01*
X18873373Y34672037D01*
X18703534Y34723557D01*
X18547008Y34807222D01*
X18409814Y34919814D01*
X18297222Y35057008D01*
X18213557Y35213534D01*
X18162037Y35383373D01*
X18158069Y35423660D01*
X18144640Y35560000D01*
X18162037Y35736624D01*
X18162037Y35736627D01*
X18213557Y35906466D01*
X18297222Y36062992D01*
X18409814Y36200186D01*
X18547008Y36312778D01*
X18703534Y36396443D01*
X18873373Y36447963D01*
X18913084Y36451874D01*
X19005735Y36461000D01*
X19094265Y36461000D01*
X19186916Y36451874D01*
X19186916Y36451874D01*
G37*
G36*
X1406916Y36451874D02*
X1446627Y36447963D01*
X1616466Y36396443D01*
X1772992Y36312778D01*
X1910186Y36200186D01*
X2022778Y36062992D01*
X2106443Y35906466D01*
X2157963Y35736627D01*
X2157963Y35736624D01*
X2175360Y35560000D01*
X2161931Y35423660D01*
X2157963Y35383373D01*
X2106443Y35213534D01*
X2022778Y35057008D01*
X1910186Y34919814D01*
X1772992Y34807222D01*
X1616466Y34723557D01*
X1446627Y34672037D01*
X1406916Y34668126D01*
X1314265Y34659000D01*
X1225735Y34659000D01*
X1133084Y34668126D01*
X1093373Y34672037D01*
X923534Y34723557D01*
X767008Y34807222D01*
X629814Y34919814D01*
X517222Y35057008D01*
X433557Y35213534D01*
X382037Y35383373D01*
X378069Y35423660D01*
X364640Y35560000D01*
X382037Y35736624D01*
X382037Y35736627D01*
X433557Y35906466D01*
X517222Y36062992D01*
X629814Y36200186D01*
X767008Y36312778D01*
X923534Y36396443D01*
X1093373Y36447963D01*
X1133084Y36451874D01*
X1225735Y36461000D01*
X1314265Y36461000D01*
X1406916Y36451874D01*
X1406916Y36451874D01*
G37*
G36*
X16118790Y36255014D02*
X14986004Y35122228D01*
X14524970Y35583262D01*
X15657756Y36716048D01*
X16118790Y36255014D01*
X16118790Y36255014D01*
G37*
G36*
X5795030Y35583262D02*
X5333996Y35122228D01*
X4201210Y36255014D01*
X4662244Y36716048D01*
X5795030Y35583262D01*
X5795030Y35583262D01*
G37*
G36*
X15553104Y36820699D02*
X14420318Y35687913D01*
X13959284Y36148947D01*
X15092070Y37281733D01*
X15553104Y36820699D01*
X15553104Y36820699D01*
G37*
G36*
X6360716Y36148947D02*
X5899682Y35687913D01*
X4766896Y36820699D01*
X5227930Y37281733D01*
X6360716Y36148947D01*
X6360716Y36148947D01*
G37*
G36*
X6926401Y36714633D02*
X6465367Y36253599D01*
X5332581Y37386385D01*
X5793615Y37847419D01*
X6926401Y36714633D01*
X6926401Y36714633D01*
G37*
G36*
X14987419Y37386385D02*
X13854633Y36253599D01*
X13393599Y36714633D01*
X14526385Y37847419D01*
X14987419Y37386385D01*
X14987419Y37386385D01*
G37*
G36*
X14421733Y37952070D02*
X13288947Y36819284D01*
X12827913Y37280318D01*
X13960699Y38413104D01*
X14421733Y37952070D01*
X14421733Y37952070D01*
G37*
G36*
X7492087Y37280318D02*
X7031053Y36819284D01*
X5898267Y37952070D01*
X6359301Y38413104D01*
X7492087Y37280318D01*
X7492087Y37280318D01*
G37*
G36*
X1406916Y38991874D02*
X1446627Y38987963D01*
X1616466Y38936443D01*
X1772992Y38852778D01*
X1910186Y38740186D01*
X2022778Y38602992D01*
X2075422Y38504502D01*
X2106443Y38446466D01*
X2157963Y38276627D01*
X2157963Y38276624D01*
X2175360Y38100000D01*
X2161931Y37963660D01*
X2157963Y37923373D01*
X2123916Y37811135D01*
X2106443Y37753534D01*
X2022778Y37597008D01*
X1910186Y37459814D01*
X1772992Y37347222D01*
X1616466Y37263557D01*
X1446627Y37212037D01*
X1406916Y37208126D01*
X1314265Y37199000D01*
X1225735Y37199000D01*
X1133084Y37208126D01*
X1093373Y37212037D01*
X923534Y37263557D01*
X767008Y37347222D01*
X629814Y37459814D01*
X517222Y37597008D01*
X433557Y37753534D01*
X416084Y37811135D01*
X382037Y37923373D01*
X378069Y37963660D01*
X364640Y38100000D01*
X382037Y38276624D01*
X382037Y38276627D01*
X433557Y38446466D01*
X464578Y38504502D01*
X517222Y38602992D01*
X629814Y38740186D01*
X767008Y38852778D01*
X923534Y38936443D01*
X1093373Y38987963D01*
X1133084Y38991874D01*
X1225735Y39001000D01*
X1314265Y39001000D01*
X1406916Y38991874D01*
X1406916Y38991874D01*
G37*
G36*
X19186916Y38991874D02*
X19226627Y38987963D01*
X19396466Y38936443D01*
X19552992Y38852778D01*
X19690186Y38740186D01*
X19802778Y38602992D01*
X19855422Y38504502D01*
X19886443Y38446466D01*
X19937963Y38276627D01*
X19937963Y38276624D01*
X19955360Y38100000D01*
X19941931Y37963660D01*
X19937963Y37923373D01*
X19903916Y37811135D01*
X19886443Y37753534D01*
X19802778Y37597008D01*
X19690186Y37459814D01*
X19552992Y37347222D01*
X19396466Y37263557D01*
X19226627Y37212037D01*
X19186916Y37208126D01*
X19094265Y37199000D01*
X19005735Y37199000D01*
X18913084Y37208126D01*
X18873373Y37212037D01*
X18703534Y37263557D01*
X18547008Y37347222D01*
X18409814Y37459814D01*
X18297222Y37597008D01*
X18213557Y37753534D01*
X18196084Y37811135D01*
X18162037Y37923373D01*
X18158069Y37963660D01*
X18144640Y38100000D01*
X18162037Y38276624D01*
X18162037Y38276627D01*
X18213557Y38446466D01*
X18244578Y38504502D01*
X18297222Y38602992D01*
X18409814Y38740186D01*
X18547008Y38852778D01*
X18703534Y38936443D01*
X18873373Y38987963D01*
X18913084Y38991874D01*
X19005735Y39001000D01*
X19094265Y39001000D01*
X19186916Y38991874D01*
X19186916Y38991874D01*
G37*
G36*
X13856048Y38517756D02*
X12723262Y37384970D01*
X12262228Y37846004D01*
X13395014Y38978790D01*
X13856048Y38517756D01*
X13856048Y38517756D01*
G37*
G36*
X8057772Y37846004D02*
X7596738Y37384970D01*
X6463952Y38517756D01*
X6924986Y38978790D01*
X8057772Y37846004D01*
X8057772Y37846004D01*
G37*
G36*
X4965867Y38762641D02*
X5011418Y38748824D01*
X5053397Y38726385D01*
X5090190Y38696190D01*
X5120385Y38659397D01*
X5142824Y38617418D01*
X5156641Y38571867D01*
X5161500Y38522538D01*
X5161500Y37860462D01*
X5156641Y37811133D01*
X5142824Y37765582D01*
X5120385Y37723603D01*
X5090190Y37686810D01*
X5053397Y37656615D01*
X5011418Y37634176D01*
X4965867Y37620359D01*
X4916538Y37615500D01*
X4354462Y37615500D01*
X4305133Y37620359D01*
X4259582Y37634176D01*
X4217603Y37656615D01*
X4180810Y37686810D01*
X4150615Y37723603D01*
X4128176Y37765582D01*
X4114359Y37811133D01*
X4109500Y37860462D01*
X4109500Y38522538D01*
X4114359Y38571867D01*
X4128176Y38617418D01*
X4150615Y38659397D01*
X4180810Y38696190D01*
X4217603Y38726385D01*
X4259582Y38748824D01*
X4305133Y38762641D01*
X4354462Y38767500D01*
X4916538Y38767500D01*
X4965867Y38762641D01*
X4965867Y38762641D01*
G37*
G36*
X3568867Y38762643D02*
X3614418Y38748826D01*
X3656397Y38726387D01*
X3693190Y38696192D01*
X3723385Y38659399D01*
X3745824Y38617420D01*
X3759641Y38571869D01*
X3764500Y38522540D01*
X3764500Y37860464D01*
X3759641Y37811135D01*
X3745824Y37765584D01*
X3723385Y37723605D01*
X3693190Y37686812D01*
X3656397Y37656617D01*
X3614418Y37634178D01*
X3568867Y37620361D01*
X3519538Y37615502D01*
X2957462Y37615502D01*
X2908133Y37620361D01*
X2862582Y37634178D01*
X2820603Y37656617D01*
X2783810Y37686812D01*
X2753615Y37723605D01*
X2731176Y37765584D01*
X2717359Y37811135D01*
X2712500Y37860464D01*
X2712500Y38522540D01*
X2717359Y38571869D01*
X2731176Y38617420D01*
X2753615Y38659399D01*
X2783810Y38696192D01*
X2820603Y38726387D01*
X2862582Y38748826D01*
X2908133Y38762643D01*
X2957462Y38767502D01*
X3519538Y38767502D01*
X3568867Y38762643D01*
X3568867Y38762643D01*
G37*
G36*
X13290362Y39083441D02*
X12157576Y37950655D01*
X11696542Y38411689D01*
X12829328Y39544475D01*
X13290362Y39083441D01*
X13290362Y39083441D01*
G37*
G36*
X8623458Y38411689D02*
X8162424Y37950655D01*
X7029638Y39083441D01*
X7490672Y39544475D01*
X8623458Y38411689D01*
X8623458Y38411689D01*
G37*
G36*
X12724677Y39649126D02*
X11591891Y38516340D01*
X11130857Y38977374D01*
X12263643Y40110160D01*
X12724677Y39649126D01*
X12724677Y39649126D01*
G37*
G36*
X9189143Y38977374D02*
X8728109Y38516340D01*
X7595323Y39649126D01*
X8056357Y40110160D01*
X9189143Y38977374D01*
X9189143Y38977374D01*
G37*
G36*
X15726581Y40236016D02*
X15773370Y40221822D01*
X15816475Y40198783D01*
X15854267Y40167767D01*
X15885283Y40129975D01*
X15908322Y40086870D01*
X15922516Y40040081D01*
X15927500Y39989475D01*
X15927500Y39240525D01*
X15922516Y39189919D01*
X15908322Y39143130D01*
X15885283Y39100025D01*
X15854267Y39062233D01*
X15816475Y39031217D01*
X15773370Y39008178D01*
X15726581Y38993984D01*
X15675975Y38989000D01*
X14677025Y38989000D01*
X14626419Y38993984D01*
X14579630Y39008178D01*
X14536525Y39031217D01*
X14498733Y39062233D01*
X14467717Y39100025D01*
X14444678Y39143130D01*
X14430484Y39189919D01*
X14425500Y39240525D01*
X14425500Y39989475D01*
X14430484Y40040081D01*
X14444678Y40086870D01*
X14467717Y40129975D01*
X14498733Y40167767D01*
X14536525Y40198783D01*
X14579630Y40221822D01*
X14626419Y40236016D01*
X14677025Y40241000D01*
X15675975Y40241000D01*
X15726581Y40236016D01*
X15726581Y40236016D01*
G37*
G36*
X12158992Y40214812D02*
X11026206Y39082026D01*
X10565172Y39543060D01*
X11697958Y40675846D01*
X12158992Y40214812D01*
X12158992Y40214812D01*
G37*
G36*
X9754828Y39543060D02*
X9293794Y39082026D01*
X8161008Y40214812D01*
X8622042Y40675846D01*
X9754828Y39543060D01*
X9754828Y39543060D01*
G37*
G36*
X3568867Y40512641D02*
X3614418Y40498824D01*
X3656397Y40476385D01*
X3693190Y40446190D01*
X3723385Y40409397D01*
X3745824Y40367418D01*
X3759641Y40321867D01*
X3764500Y40272538D01*
X3764500Y39610462D01*
X3759641Y39561133D01*
X3745824Y39515582D01*
X3723385Y39473603D01*
X3693190Y39436810D01*
X3656397Y39406615D01*
X3614418Y39384176D01*
X3568867Y39370359D01*
X3519538Y39365500D01*
X2957462Y39365500D01*
X2908133Y39370359D01*
X2862582Y39384176D01*
X2820603Y39406615D01*
X2783810Y39436810D01*
X2753615Y39473603D01*
X2731176Y39515582D01*
X2717359Y39561133D01*
X2712500Y39610462D01*
X2712500Y40272538D01*
X2717359Y40321867D01*
X2731176Y40367418D01*
X2753615Y40409397D01*
X2783810Y40446190D01*
X2820603Y40476385D01*
X2862582Y40498824D01*
X2908133Y40512641D01*
X2957462Y40517500D01*
X3519538Y40517500D01*
X3568867Y40512641D01*
X3568867Y40512641D01*
G37*
G36*
X4965867Y40512641D02*
X5011418Y40498824D01*
X5053397Y40476385D01*
X5090190Y40446190D01*
X5120385Y40409397D01*
X5142824Y40367418D01*
X5156641Y40321867D01*
X5161500Y40272538D01*
X5161500Y39610462D01*
X5156641Y39561133D01*
X5142824Y39515582D01*
X5120385Y39473603D01*
X5090190Y39436810D01*
X5053397Y39406615D01*
X5011418Y39384176D01*
X4965867Y39370359D01*
X4916538Y39365500D01*
X4354462Y39365500D01*
X4305133Y39370359D01*
X4259582Y39384176D01*
X4217603Y39406615D01*
X4180810Y39436810D01*
X4150615Y39473603D01*
X4128176Y39515582D01*
X4114359Y39561133D01*
X4109500Y39610462D01*
X4109500Y40272538D01*
X4114359Y40321867D01*
X4128176Y40367418D01*
X4150615Y40409397D01*
X4180810Y40446190D01*
X4217603Y40476385D01*
X4259582Y40498824D01*
X4305133Y40512641D01*
X4354462Y40517500D01*
X4916538Y40517500D01*
X4965867Y40512641D01*
X4965867Y40512641D01*
G37*
G36*
X1406916Y41531874D02*
X1446627Y41527963D01*
X1616466Y41476443D01*
X1772992Y41392778D01*
X1910186Y41280186D01*
X2022778Y41142992D01*
X2039219Y41112233D01*
X2106443Y40986466D01*
X2157963Y40816627D01*
X2161767Y40778000D01*
X2175360Y40640000D01*
X2163294Y40517500D01*
X2157963Y40463373D01*
X2115038Y40321867D01*
X2106443Y40293534D01*
X2022778Y40137008D01*
X1910186Y39999814D01*
X1772992Y39887222D01*
X1616466Y39803557D01*
X1446627Y39752037D01*
X1406916Y39748126D01*
X1314265Y39739000D01*
X1225735Y39739000D01*
X1133084Y39748126D01*
X1093373Y39752037D01*
X923534Y39803557D01*
X767008Y39887222D01*
X629814Y39999814D01*
X517222Y40137008D01*
X433557Y40293534D01*
X424962Y40321867D01*
X382037Y40463373D01*
X376706Y40517500D01*
X364640Y40640000D01*
X378233Y40778000D01*
X382037Y40816627D01*
X433557Y40986466D01*
X500781Y41112233D01*
X517222Y41142992D01*
X629814Y41280186D01*
X767008Y41392778D01*
X923534Y41476443D01*
X1093373Y41527963D01*
X1133084Y41531874D01*
X1225735Y41541000D01*
X1314265Y41541000D01*
X1406916Y41531874D01*
X1406916Y41531874D01*
G37*
G36*
X19186916Y41531874D02*
X19226627Y41527963D01*
X19396466Y41476443D01*
X19552992Y41392778D01*
X19690186Y41280186D01*
X19802778Y41142992D01*
X19819219Y41112233D01*
X19886443Y40986466D01*
X19937963Y40816627D01*
X19941767Y40778000D01*
X19955360Y40640000D01*
X19943294Y40517500D01*
X19937963Y40463373D01*
X19895038Y40321867D01*
X19886443Y40293534D01*
X19802778Y40137008D01*
X19690186Y39999814D01*
X19552992Y39887222D01*
X19396466Y39803557D01*
X19226627Y39752037D01*
X19186916Y39748126D01*
X19094265Y39739000D01*
X19005735Y39739000D01*
X18913084Y39748126D01*
X18873373Y39752037D01*
X18703534Y39803557D01*
X18547008Y39887222D01*
X18409814Y39999814D01*
X18297222Y40137008D01*
X18213557Y40293534D01*
X18204962Y40321867D01*
X18162037Y40463373D01*
X18156706Y40517500D01*
X18144640Y40640000D01*
X18158233Y40778000D01*
X18162037Y40816627D01*
X18213557Y40986466D01*
X18280781Y41112233D01*
X18297222Y41142992D01*
X18409814Y41280186D01*
X18547008Y41392778D01*
X18703534Y41476443D01*
X18873373Y41527963D01*
X18913084Y41531874D01*
X19005735Y41541000D01*
X19094265Y41541000D01*
X19186916Y41531874D01*
X19186916Y41531874D01*
G37*
G36*
X4416581Y42275016D02*
X4463370Y42260822D01*
X4506475Y42237783D01*
X4544267Y42206767D01*
X4575283Y42168975D01*
X4598322Y42125870D01*
X4612516Y42079081D01*
X4617500Y42028475D01*
X4617500Y41029525D01*
X4612516Y40978919D01*
X4598322Y40932130D01*
X4575283Y40889025D01*
X4544267Y40851233D01*
X4506475Y40820217D01*
X4463370Y40797178D01*
X4416581Y40782984D01*
X4365975Y40778000D01*
X3617025Y40778000D01*
X3566419Y40782984D01*
X3519630Y40797178D01*
X3476525Y40820217D01*
X3438733Y40851233D01*
X3407717Y40889025D01*
X3384678Y40932130D01*
X3370484Y40978919D01*
X3365500Y41029525D01*
X3365500Y42028475D01*
X3370484Y42079081D01*
X3384678Y42125870D01*
X3407717Y42168975D01*
X3438733Y42206767D01*
X3476525Y42237783D01*
X3519630Y42260822D01*
X3566419Y42275016D01*
X3617025Y42280000D01*
X4365975Y42280000D01*
X4416581Y42275016D01*
X4416581Y42275016D01*
G37*
G36*
X6466581Y42275016D02*
X6513370Y42260822D01*
X6556475Y42237783D01*
X6594267Y42206767D01*
X6625283Y42168975D01*
X6648322Y42125870D01*
X6662516Y42079081D01*
X6667500Y42028475D01*
X6667500Y41029525D01*
X6662516Y40978919D01*
X6648322Y40932130D01*
X6625283Y40889025D01*
X6594267Y40851233D01*
X6556475Y40820217D01*
X6513370Y40797178D01*
X6466581Y40782984D01*
X6415975Y40778000D01*
X5667025Y40778000D01*
X5616419Y40782984D01*
X5569630Y40797178D01*
X5526525Y40820217D01*
X5488733Y40851233D01*
X5457717Y40889025D01*
X5434678Y40932130D01*
X5420484Y40978919D01*
X5415500Y41029525D01*
X5415500Y42028475D01*
X5420484Y42079081D01*
X5434678Y42125870D01*
X5457717Y42168975D01*
X5488733Y42206767D01*
X5526525Y42237783D01*
X5569630Y42260822D01*
X5616419Y42275016D01*
X5667025Y42280000D01*
X6415975Y42280000D01*
X6466581Y42275016D01*
X6466581Y42275016D01*
G37*
G36*
X15726581Y42286016D02*
X15773370Y42271822D01*
X15816475Y42248783D01*
X15854267Y42217767D01*
X15885283Y42179975D01*
X15908322Y42136870D01*
X15922516Y42090081D01*
X15927500Y42039475D01*
X15927500Y41290525D01*
X15922516Y41239919D01*
X15908322Y41193130D01*
X15885283Y41150025D01*
X15854267Y41112233D01*
X15816475Y41081217D01*
X15773370Y41058178D01*
X15726581Y41043984D01*
X15675975Y41039000D01*
X14677025Y41039000D01*
X14626419Y41043984D01*
X14579630Y41058178D01*
X14536525Y41081217D01*
X14498733Y41112233D01*
X14467717Y41150025D01*
X14444678Y41193130D01*
X14430484Y41239919D01*
X14425500Y41290525D01*
X14425500Y42039475D01*
X14430484Y42090081D01*
X14444678Y42136870D01*
X14467717Y42179975D01*
X14498733Y42217767D01*
X14536525Y42248783D01*
X14579630Y42271822D01*
X14626419Y42286016D01*
X14677025Y42291000D01*
X15675975Y42291000D01*
X15726581Y42286016D01*
X15726581Y42286016D01*
G37*
G36*
X9827867Y42304141D02*
X9873418Y42290324D01*
X9915397Y42267885D01*
X9952190Y42237690D01*
X9982385Y42200897D01*
X10004824Y42158918D01*
X10018641Y42113367D01*
X10023500Y42064038D01*
X10023500Y41501962D01*
X10018641Y41452633D01*
X10004824Y41407082D01*
X9982385Y41365103D01*
X9952190Y41328310D01*
X9915397Y41298115D01*
X9873418Y41275676D01*
X9827867Y41261859D01*
X9778538Y41257000D01*
X9116462Y41257000D01*
X9067133Y41261859D01*
X9021582Y41275676D01*
X8979603Y41298115D01*
X8942810Y41328310D01*
X8912615Y41365103D01*
X8890176Y41407082D01*
X8876359Y41452633D01*
X8871500Y41501962D01*
X8871500Y42064038D01*
X8876359Y42113367D01*
X8890176Y42158918D01*
X8912615Y42200897D01*
X8942810Y42237690D01*
X8979603Y42267885D01*
X9021582Y42290324D01*
X9067133Y42304141D01*
X9116462Y42309000D01*
X9778538Y42309000D01*
X9827867Y42304141D01*
X9827867Y42304141D01*
G37*
G36*
X8077867Y42304141D02*
X8123418Y42290324D01*
X8165397Y42267885D01*
X8202190Y42237690D01*
X8232385Y42200897D01*
X8254824Y42158918D01*
X8268641Y42113367D01*
X8273500Y42064038D01*
X8273500Y41501962D01*
X8268641Y41452633D01*
X8254824Y41407082D01*
X8232385Y41365103D01*
X8202190Y41328310D01*
X8165397Y41298115D01*
X8123418Y41275676D01*
X8077867Y41261859D01*
X8028538Y41257000D01*
X7366462Y41257000D01*
X7317133Y41261859D01*
X7271582Y41275676D01*
X7229603Y41298115D01*
X7192810Y41328310D01*
X7162615Y41365103D01*
X7140176Y41407082D01*
X7126359Y41452633D01*
X7121500Y41501962D01*
X7121500Y42064038D01*
X7126359Y42113367D01*
X7140176Y42158918D01*
X7162615Y42200897D01*
X7192810Y42237690D01*
X7229603Y42267885D01*
X7271582Y42290324D01*
X7317133Y42304141D01*
X7366462Y42309000D01*
X8028538Y42309000D01*
X8077867Y42304141D01*
X8077867Y42304141D01*
G37*
G36*
X19186916Y44071874D02*
X19226627Y44067963D01*
X19396466Y44016443D01*
X19552992Y43932778D01*
X19690186Y43820186D01*
X19802778Y43682992D01*
X19886443Y43526466D01*
X19937963Y43356627D01*
X19941931Y43316340D01*
X19955360Y43180000D01*
X19941931Y43043660D01*
X19937963Y43003373D01*
X19886443Y42833534D01*
X19802778Y42677008D01*
X19690186Y42539814D01*
X19552992Y42427222D01*
X19396466Y42343557D01*
X19226627Y42292037D01*
X19195588Y42288980D01*
X19094265Y42279000D01*
X19005735Y42279000D01*
X18904412Y42288980D01*
X18873373Y42292037D01*
X18703534Y42343557D01*
X18547008Y42427222D01*
X18409814Y42539814D01*
X18297222Y42677008D01*
X18213557Y42833534D01*
X18162037Y43003373D01*
X18158069Y43043660D01*
X18144640Y43180000D01*
X18158069Y43316340D01*
X18162037Y43356627D01*
X18213557Y43526466D01*
X18297222Y43682992D01*
X18409814Y43820186D01*
X18547008Y43932778D01*
X18703534Y44016443D01*
X18873373Y44067963D01*
X18913084Y44071874D01*
X19005735Y44081000D01*
X19094265Y44081000D01*
X19186916Y44071874D01*
X19186916Y44071874D01*
G37*
G36*
X1406916Y44071874D02*
X1446627Y44067963D01*
X1616466Y44016443D01*
X1772992Y43932778D01*
X1910186Y43820186D01*
X2022778Y43682992D01*
X2106443Y43526466D01*
X2157963Y43356627D01*
X2161931Y43316340D01*
X2175360Y43180000D01*
X2161931Y43043660D01*
X2157963Y43003373D01*
X2106443Y42833534D01*
X2022778Y42677008D01*
X1910186Y42539814D01*
X1772992Y42427222D01*
X1616466Y42343557D01*
X1446627Y42292037D01*
X1415588Y42288980D01*
X1314265Y42279000D01*
X1225735Y42279000D01*
X1124412Y42288980D01*
X1093373Y42292037D01*
X923534Y42343557D01*
X767008Y42427222D01*
X629814Y42539814D01*
X517222Y42677008D01*
X433557Y42833534D01*
X382037Y43003373D01*
X378069Y43043660D01*
X364640Y43180000D01*
X378069Y43316340D01*
X382037Y43356627D01*
X433557Y43526466D01*
X517222Y43682992D01*
X629814Y43820186D01*
X767008Y43932778D01*
X923534Y44016443D01*
X1093373Y44067963D01*
X1133084Y44071874D01*
X1225735Y44081000D01*
X1314265Y44081000D01*
X1406916Y44071874D01*
X1406916Y44071874D01*
G37*
G36*
X7278000Y42789000D02*
X5676000Y42789000D01*
X5676000Y44891000D01*
X7278000Y44891000D01*
X7278000Y42789000D01*
X7278000Y42789000D01*
G37*
G36*
X4978000Y42789000D02*
X3376000Y42789000D01*
X3376000Y44891000D01*
X4978000Y44891000D01*
X4978000Y42789000D01*
X4978000Y42789000D01*
G37*
G36*
X9578000Y42789000D02*
X7976000Y42789000D01*
X7976000Y44891000D01*
X9578000Y44891000D01*
X9578000Y42789000D01*
X9578000Y42789000D01*
G37*
G36*
X10947567Y44450941D02*
X10993118Y44437124D01*
X11035097Y44414685D01*
X11071890Y44384490D01*
X11102085Y44347697D01*
X11124524Y44305718D01*
X11138341Y44260167D01*
X11143200Y44210838D01*
X11143200Y43548762D01*
X11138341Y43499433D01*
X11124524Y43453882D01*
X11102085Y43411903D01*
X11071890Y43375110D01*
X11035097Y43344915D01*
X10993118Y43322476D01*
X10947567Y43308659D01*
X10898238Y43303800D01*
X10336162Y43303800D01*
X10286833Y43308659D01*
X10241282Y43322476D01*
X10199303Y43344915D01*
X10162510Y43375110D01*
X10132315Y43411903D01*
X10109876Y43453882D01*
X10096059Y43499433D01*
X10091200Y43548762D01*
X10091200Y44210838D01*
X10096059Y44260167D01*
X10109876Y44305718D01*
X10132315Y44347697D01*
X10162510Y44384490D01*
X10199303Y44414685D01*
X10241282Y44437124D01*
X10286833Y44450941D01*
X10336162Y44455800D01*
X10898238Y44455800D01*
X10947567Y44450941D01*
X10947567Y44450941D01*
G37*
G36*
X19186916Y46611874D02*
X19226627Y46607963D01*
X19396466Y46556443D01*
X19552992Y46472778D01*
X19690186Y46360186D01*
X19802778Y46222992D01*
X19853141Y46128769D01*
X19886443Y46066466D01*
X19937963Y45896627D01*
X19937963Y45896624D01*
X19955360Y45720000D01*
X19949844Y45664000D01*
X19937963Y45543373D01*
X19907755Y45443791D01*
X19886443Y45373534D01*
X19802778Y45217008D01*
X19690186Y45079814D01*
X19552992Y44967222D01*
X19410391Y44891000D01*
X19396466Y44883557D01*
X19226627Y44832037D01*
X19186916Y44828126D01*
X19094265Y44819000D01*
X19005735Y44819000D01*
X18913084Y44828126D01*
X18873373Y44832037D01*
X18703534Y44883557D01*
X18689609Y44891000D01*
X18547008Y44967222D01*
X18409814Y45079814D01*
X18297222Y45217008D01*
X18213557Y45373534D01*
X18192245Y45443791D01*
X18162037Y45543373D01*
X18150156Y45664000D01*
X18144640Y45720000D01*
X18162037Y45896624D01*
X18162037Y45896627D01*
X18213557Y46066466D01*
X18246859Y46128769D01*
X18297222Y46222992D01*
X18409814Y46360186D01*
X18547008Y46472778D01*
X18703534Y46556443D01*
X18873373Y46607963D01*
X18913084Y46611874D01*
X19005735Y46621000D01*
X19094265Y46621000D01*
X19186916Y46611874D01*
X19186916Y46611874D01*
G37*
G36*
X1406916Y46611874D02*
X1446627Y46607963D01*
X1616466Y46556443D01*
X1772992Y46472778D01*
X1910186Y46360186D01*
X2022778Y46222992D01*
X2073141Y46128769D01*
X2106443Y46066466D01*
X2157963Y45896627D01*
X2157963Y45896624D01*
X2175360Y45720000D01*
X2169844Y45664000D01*
X2157963Y45543373D01*
X2127755Y45443791D01*
X2106443Y45373534D01*
X2022778Y45217008D01*
X1910186Y45079814D01*
X1772992Y44967222D01*
X1630391Y44891000D01*
X1616466Y44883557D01*
X1446627Y44832037D01*
X1406916Y44828126D01*
X1314265Y44819000D01*
X1225735Y44819000D01*
X1133084Y44828126D01*
X1093373Y44832037D01*
X923534Y44883557D01*
X909609Y44891000D01*
X767008Y44967222D01*
X629814Y45079814D01*
X517222Y45217008D01*
X433557Y45373534D01*
X412245Y45443791D01*
X382037Y45543373D01*
X370156Y45664000D01*
X364640Y45720000D01*
X382037Y45896624D01*
X382037Y45896627D01*
X433557Y46066466D01*
X466859Y46128769D01*
X517222Y46222992D01*
X629814Y46360186D01*
X767008Y46472778D01*
X923534Y46556443D01*
X1093373Y46607963D01*
X1133084Y46611874D01*
X1225735Y46621000D01*
X1314265Y46621000D01*
X1406916Y46611874D01*
X1406916Y46611874D01*
G37*
G36*
X10947567Y46200941D02*
X10993118Y46187124D01*
X11035097Y46164685D01*
X11071890Y46134490D01*
X11102085Y46097697D01*
X11124524Y46055718D01*
X11138341Y46010167D01*
X11143200Y45960838D01*
X11143200Y45298762D01*
X11138341Y45249433D01*
X11124524Y45203882D01*
X11102085Y45161903D01*
X11071890Y45125110D01*
X11035097Y45094915D01*
X10993118Y45072476D01*
X10947567Y45058659D01*
X10898238Y45053800D01*
X10336162Y45053800D01*
X10286833Y45058659D01*
X10241282Y45072476D01*
X10199303Y45094915D01*
X10162510Y45125110D01*
X10132315Y45161903D01*
X10109876Y45203882D01*
X10096059Y45249433D01*
X10091200Y45298762D01*
X10091200Y45960838D01*
X10096059Y46010167D01*
X10109876Y46055718D01*
X10132315Y46097697D01*
X10162510Y46134490D01*
X10199303Y46164685D01*
X10241282Y46187124D01*
X10286833Y46200941D01*
X10336162Y46205800D01*
X10898238Y46205800D01*
X10947567Y46200941D01*
X10947567Y46200941D01*
G37*
G36*
X15758767Y46279241D02*
X15804318Y46265424D01*
X15846297Y46242985D01*
X15883090Y46212790D01*
X15913285Y46175997D01*
X15935724Y46134018D01*
X15949541Y46088467D01*
X15954400Y46039138D01*
X15954400Y45477062D01*
X15949541Y45427733D01*
X15935724Y45382182D01*
X15913285Y45340203D01*
X15883090Y45303410D01*
X15846297Y45273215D01*
X15804318Y45250776D01*
X15758767Y45236959D01*
X15709438Y45232100D01*
X15047362Y45232100D01*
X14998033Y45236959D01*
X14952482Y45250776D01*
X14910503Y45273215D01*
X14873710Y45303410D01*
X14843515Y45340203D01*
X14821076Y45382182D01*
X14807259Y45427733D01*
X14802400Y45477062D01*
X14802400Y46039138D01*
X14807259Y46088467D01*
X14821076Y46134018D01*
X14843515Y46175997D01*
X14873710Y46212790D01*
X14910503Y46242985D01*
X14952482Y46265424D01*
X14998033Y46279241D01*
X15047362Y46284100D01*
X15709438Y46284100D01*
X15758767Y46279241D01*
X15758767Y46279241D01*
G37*
G36*
X14008767Y46279241D02*
X14054318Y46265424D01*
X14096297Y46242985D01*
X14133090Y46212790D01*
X14163285Y46175997D01*
X14185724Y46134018D01*
X14199541Y46088467D01*
X14204400Y46039138D01*
X14204400Y45477062D01*
X14199541Y45427733D01*
X14185724Y45382182D01*
X14163285Y45340203D01*
X14133090Y45303410D01*
X14096297Y45273215D01*
X14054318Y45250776D01*
X14008767Y45236959D01*
X13959438Y45232100D01*
X13297362Y45232100D01*
X13248033Y45236959D01*
X13202482Y45250776D01*
X13160503Y45273215D01*
X13123710Y45303410D01*
X13093515Y45340203D01*
X13071076Y45382182D01*
X13057259Y45427733D01*
X13052400Y45477062D01*
X13052400Y46039138D01*
X13057259Y46088467D01*
X13071076Y46134018D01*
X13093515Y46175997D01*
X13123710Y46212790D01*
X13160503Y46242985D01*
X13202482Y46265424D01*
X13248033Y46279241D01*
X13297362Y46284100D01*
X13959438Y46284100D01*
X14008767Y46279241D01*
X14008767Y46279241D01*
G37*
G36*
X9047000Y45664000D02*
X7885000Y45664000D01*
X7885000Y46416000D01*
X9047000Y46416000D01*
X9047000Y45664000D01*
X9047000Y45664000D01*
G37*
G36*
X6847000Y45664000D02*
X5685000Y45664000D01*
X5685000Y46416000D01*
X6847000Y46416000D01*
X6847000Y45664000D01*
X6847000Y45664000D01*
G37*
G36*
X9046999Y46614000D02*
X7884999Y46614000D01*
X7884999Y47366000D01*
X9046999Y47366000D01*
X9046999Y46614000D01*
X9046999Y46614000D01*
G37*
G36*
X11472081Y48046516D02*
X11518870Y48032322D01*
X11561975Y48009283D01*
X11599767Y47978267D01*
X11630783Y47940475D01*
X11653822Y47897370D01*
X11668016Y47850581D01*
X11673000Y47799975D01*
X11673000Y47051025D01*
X11668016Y47000419D01*
X11653822Y46953630D01*
X11630783Y46910525D01*
X11599767Y46872733D01*
X11561975Y46841717D01*
X11518870Y46818678D01*
X11472081Y46804484D01*
X11421475Y46799500D01*
X10422525Y46799500D01*
X10371919Y46804484D01*
X10325130Y46818678D01*
X10282025Y46841717D01*
X10244233Y46872733D01*
X10213217Y46910525D01*
X10190178Y46953630D01*
X10175984Y47000419D01*
X10171000Y47051025D01*
X10171000Y47799975D01*
X10175984Y47850581D01*
X10190178Y47897370D01*
X10213217Y47940475D01*
X10244233Y47978267D01*
X10282025Y48009283D01*
X10325130Y48032322D01*
X10371919Y48046516D01*
X10422525Y48051500D01*
X11421475Y48051500D01*
X11472081Y48046516D01*
X11472081Y48046516D01*
G37*
G36*
X19186916Y49151874D02*
X19226627Y49147963D01*
X19381361Y49101025D01*
X19396466Y49096443D01*
X19552992Y49012778D01*
X19690186Y48900186D01*
X19802778Y48762992D01*
X19886443Y48606466D01*
X19937963Y48436627D01*
X19941534Y48400367D01*
X19955360Y48260000D01*
X19941931Y48123660D01*
X19937963Y48083373D01*
X19904112Y47971782D01*
X19886443Y47913534D01*
X19802778Y47757008D01*
X19690186Y47619814D01*
X19552992Y47507222D01*
X19434712Y47444000D01*
X19396466Y47423557D01*
X19226627Y47372037D01*
X19186916Y47368126D01*
X19094265Y47359000D01*
X19005735Y47359000D01*
X18913084Y47368126D01*
X18873373Y47372037D01*
X18703534Y47423557D01*
X18665288Y47444000D01*
X18547008Y47507222D01*
X18409814Y47619814D01*
X18297222Y47757008D01*
X18213557Y47913534D01*
X18195888Y47971782D01*
X18162037Y48083373D01*
X18158069Y48123660D01*
X18144640Y48260000D01*
X18158466Y48400367D01*
X18162037Y48436627D01*
X18213557Y48606466D01*
X18297222Y48762992D01*
X18409814Y48900186D01*
X18547008Y49012778D01*
X18703534Y49096443D01*
X18718639Y49101025D01*
X18873373Y49147963D01*
X18913084Y49151874D01*
X19005735Y49161000D01*
X19094265Y49161000D01*
X19186916Y49151874D01*
X19186916Y49151874D01*
G37*
G36*
X1406916Y49151874D02*
X1446627Y49147963D01*
X1601361Y49101025D01*
X1616466Y49096443D01*
X1772992Y49012778D01*
X1910186Y48900186D01*
X2022778Y48762992D01*
X2106443Y48606466D01*
X2157963Y48436627D01*
X2161534Y48400367D01*
X2175360Y48260000D01*
X2161931Y48123660D01*
X2157963Y48083373D01*
X2124112Y47971782D01*
X2106443Y47913534D01*
X2022778Y47757008D01*
X1910186Y47619814D01*
X1772992Y47507222D01*
X1654712Y47444000D01*
X1616466Y47423557D01*
X1446627Y47372037D01*
X1406916Y47368126D01*
X1314265Y47359000D01*
X1225735Y47359000D01*
X1133084Y47368126D01*
X1093373Y47372037D01*
X923534Y47423557D01*
X885288Y47444000D01*
X767008Y47507222D01*
X629814Y47619814D01*
X517222Y47757008D01*
X433557Y47913534D01*
X415888Y47971782D01*
X382037Y48083373D01*
X378069Y48123660D01*
X364640Y48260000D01*
X378466Y48400367D01*
X382037Y48436627D01*
X433557Y48606466D01*
X517222Y48762992D01*
X629814Y48900186D01*
X767008Y49012778D01*
X923534Y49096443D01*
X938639Y49101025D01*
X1093373Y49147963D01*
X1133084Y49151874D01*
X1225735Y49161000D01*
X1314265Y49161000D01*
X1406916Y49151874D01*
X1406916Y49151874D01*
G37*
G36*
X16967367Y48591141D02*
X17012918Y48577324D01*
X17054897Y48554885D01*
X17091690Y48524690D01*
X17121885Y48487897D01*
X17144324Y48445918D01*
X17158141Y48400367D01*
X17163000Y48351038D01*
X17163000Y47688962D01*
X17158141Y47639633D01*
X17144324Y47594082D01*
X17121885Y47552103D01*
X17091690Y47515310D01*
X17054897Y47485115D01*
X17012918Y47462676D01*
X16967367Y47448859D01*
X16918038Y47444000D01*
X16355962Y47444000D01*
X16306633Y47448859D01*
X16261082Y47462676D01*
X16219103Y47485115D01*
X16182310Y47515310D01*
X16152115Y47552103D01*
X16129676Y47594082D01*
X16115859Y47639633D01*
X16111000Y47688962D01*
X16111000Y48351038D01*
X16115859Y48400367D01*
X16129676Y48445918D01*
X16152115Y48487897D01*
X16182310Y48524690D01*
X16219103Y48554885D01*
X16261082Y48577324D01*
X16306633Y48591141D01*
X16355962Y48596000D01*
X16918038Y48596000D01*
X16967367Y48591141D01*
X16967367Y48591141D01*
G37*
G36*
X6847000Y47564000D02*
X5685000Y47564000D01*
X5685000Y48316000D01*
X6847000Y48316000D01*
X6847000Y47564000D01*
X6847000Y47564000D01*
G37*
G36*
X9047000Y47564000D02*
X7885000Y47564000D01*
X7885000Y48316000D01*
X9047000Y48316000D01*
X9047000Y47564000D01*
X9047000Y47564000D01*
G37*
G36*
X15651000Y47632500D02*
X14489000Y47632500D01*
X14489000Y48384500D01*
X15651000Y48384500D01*
X15651000Y47632500D01*
X15651000Y47632500D01*
G37*
G36*
X13451000Y47632500D02*
X12289000Y47632500D01*
X12289000Y48384500D01*
X13451000Y48384500D01*
X13451000Y47632500D01*
X13451000Y47632500D01*
G37*
G36*
X13451000Y48582500D02*
X12289000Y48582500D01*
X12289000Y49334500D01*
X13451000Y49334500D01*
X13451000Y48582500D01*
X13451000Y48582500D01*
G37*
G36*
X15651000Y48582500D02*
X14489000Y48582500D01*
X14489000Y49334500D01*
X15651000Y49334500D01*
X15651000Y48582500D01*
X15651000Y48582500D01*
G37*
G36*
X11472081Y50096516D02*
X11518870Y50082322D01*
X11561975Y50059283D01*
X11599767Y50028267D01*
X11630783Y49990475D01*
X11653822Y49947370D01*
X11668016Y49900581D01*
X11673000Y49849975D01*
X11673000Y49101025D01*
X11668016Y49050419D01*
X11653822Y49003630D01*
X11630783Y48960525D01*
X11599767Y48922733D01*
X11561975Y48891717D01*
X11518870Y48868678D01*
X11472081Y48854484D01*
X11421475Y48849500D01*
X10422525Y48849500D01*
X10371919Y48854484D01*
X10325130Y48868678D01*
X10282025Y48891717D01*
X10244233Y48922733D01*
X10213217Y48960525D01*
X10190178Y49003630D01*
X10175984Y49050419D01*
X10171000Y49101025D01*
X10171000Y49849975D01*
X10175984Y49900581D01*
X10190178Y49947370D01*
X10213217Y49990475D01*
X10244233Y50028267D01*
X10282025Y50059283D01*
X10325130Y50082322D01*
X10371919Y50096516D01*
X10422525Y50101500D01*
X11421475Y50101500D01*
X11472081Y50096516D01*
X11472081Y50096516D01*
G37*
G36*
X8428000Y49089000D02*
X4526000Y49089000D01*
X4526000Y51191000D01*
X8428000Y51191000D01*
X8428000Y49089000D01*
X8428000Y49089000D01*
G37*
G36*
X16967367Y50341141D02*
X17012918Y50327324D01*
X17054897Y50304885D01*
X17091690Y50274690D01*
X17121885Y50237897D01*
X17144324Y50195918D01*
X17158141Y50150367D01*
X17163000Y50101038D01*
X17163000Y49438962D01*
X17158141Y49389633D01*
X17144324Y49344082D01*
X17121885Y49302103D01*
X17091690Y49265310D01*
X17054897Y49235115D01*
X17012918Y49212676D01*
X16967367Y49198859D01*
X16918038Y49194000D01*
X16355962Y49194000D01*
X16306633Y49198859D01*
X16261082Y49212676D01*
X16219103Y49235115D01*
X16182310Y49265310D01*
X16152115Y49302103D01*
X16129676Y49344082D01*
X16115859Y49389633D01*
X16111000Y49438962D01*
X16111000Y50101038D01*
X16115859Y50150367D01*
X16129676Y50195918D01*
X16152115Y50237897D01*
X16182310Y50274690D01*
X16219103Y50304885D01*
X16261082Y50327324D01*
X16306633Y50341141D01*
X16355962Y50346000D01*
X16918038Y50346000D01*
X16967367Y50341141D01*
X16967367Y50341141D01*
G37*
G36*
X13451000Y49532500D02*
X12289000Y49532500D01*
X12289000Y50284500D01*
X13451000Y50284500D01*
X13451000Y49532500D01*
X13451000Y49532500D01*
G37*
G36*
X15651000Y49532500D02*
X14489000Y49532500D01*
X14489000Y50284500D01*
X15651000Y50284500D01*
X15651000Y49532500D01*
X15651000Y49532500D01*
G37*
G36*
X1406916Y51691874D02*
X1446627Y51687963D01*
X1616466Y51636443D01*
X1772992Y51552778D01*
X1910186Y51440186D01*
X2022778Y51302992D01*
X2082639Y51191000D01*
X2106443Y51146466D01*
X2157963Y50976627D01*
X2157963Y50976624D01*
X2175360Y50800000D01*
X2161931Y50663660D01*
X2157963Y50623373D01*
X2106443Y50453534D01*
X2022778Y50297008D01*
X1910186Y50159814D01*
X1772992Y50047222D01*
X1666826Y49990475D01*
X1616466Y49963557D01*
X1446627Y49912037D01*
X1406916Y49908126D01*
X1314265Y49899000D01*
X1225735Y49899000D01*
X1133084Y49908126D01*
X1093373Y49912037D01*
X923534Y49963557D01*
X873174Y49990475D01*
X767008Y50047222D01*
X629814Y50159814D01*
X517222Y50297008D01*
X433557Y50453534D01*
X382037Y50623373D01*
X378069Y50663660D01*
X364640Y50800000D01*
X382037Y50976624D01*
X382037Y50976627D01*
X433557Y51146466D01*
X457361Y51191000D01*
X517222Y51302992D01*
X629814Y51440186D01*
X767008Y51552778D01*
X923534Y51636443D01*
X1093373Y51687963D01*
X1133084Y51691874D01*
X1225735Y51701000D01*
X1314265Y51701000D01*
X1406916Y51691874D01*
X1406916Y51691874D01*
G37*
G36*
X19186916Y51691874D02*
X19226627Y51687963D01*
X19396466Y51636443D01*
X19552992Y51552778D01*
X19690186Y51440186D01*
X19802778Y51302992D01*
X19862639Y51191000D01*
X19886443Y51146466D01*
X19937963Y50976627D01*
X19937963Y50976624D01*
X19955360Y50800000D01*
X19941931Y50663660D01*
X19937963Y50623373D01*
X19886443Y50453534D01*
X19802778Y50297008D01*
X19690186Y50159814D01*
X19552992Y50047222D01*
X19446826Y49990475D01*
X19396466Y49963557D01*
X19226627Y49912037D01*
X19186916Y49908126D01*
X19094265Y49899000D01*
X19005735Y49899000D01*
X18913084Y49908126D01*
X18873373Y49912037D01*
X18703534Y49963557D01*
X18653174Y49990475D01*
X18547008Y50047222D01*
X18409814Y50159814D01*
X18297222Y50297008D01*
X18213557Y50453534D01*
X18162037Y50623373D01*
X18158069Y50663660D01*
X18144640Y50800000D01*
X18162037Y50976624D01*
X18162037Y50976627D01*
X18213557Y51146466D01*
X18237361Y51191000D01*
X18297222Y51302992D01*
X18409814Y51440186D01*
X18547008Y51552778D01*
X18703534Y51636443D01*
X18873373Y51687963D01*
X18913084Y51691874D01*
X19005735Y51701000D01*
X19094265Y51701000D01*
X19186916Y51691874D01*
X19186916Y51691874D01*
G37*
G36*
X4742000Y51856500D02*
X3640000Y51856500D01*
X3640000Y52958500D01*
X4742000Y52958500D01*
X4742000Y51856500D01*
X4742000Y51856500D01*
G37*
G36*
X19186916Y54231874D02*
X19226627Y54227963D01*
X19396466Y54176443D01*
X19552992Y54092778D01*
X19690186Y53980186D01*
X19802778Y53842992D01*
X19868078Y53720824D01*
X19886443Y53686466D01*
X19937963Y53516627D01*
X19941915Y53476500D01*
X19955360Y53340000D01*
X19946503Y53250080D01*
X19937963Y53163373D01*
X19886443Y52993534D01*
X19802778Y52837008D01*
X19690186Y52699814D01*
X19552992Y52587222D01*
X19396466Y52503557D01*
X19226627Y52452037D01*
X19186916Y52448126D01*
X19094265Y52439000D01*
X19005735Y52439000D01*
X18913084Y52448126D01*
X18873373Y52452037D01*
X18703534Y52503557D01*
X18547008Y52587222D01*
X18409814Y52699814D01*
X18297222Y52837008D01*
X18213557Y52993534D01*
X18162037Y53163373D01*
X18153497Y53250080D01*
X18144640Y53340000D01*
X18158085Y53476500D01*
X18162037Y53516627D01*
X18213557Y53686466D01*
X18231922Y53720824D01*
X18297222Y53842992D01*
X18409814Y53980186D01*
X18547008Y54092778D01*
X18703534Y54176443D01*
X18873373Y54227963D01*
X18913084Y54231874D01*
X19005735Y54241000D01*
X19094265Y54241000D01*
X19186916Y54231874D01*
X19186916Y54231874D01*
G37*
G36*
X1406916Y54231874D02*
X1446627Y54227963D01*
X1616466Y54176443D01*
X1772992Y54092778D01*
X1910186Y53980186D01*
X2022778Y53842992D01*
X2088078Y53720824D01*
X2106443Y53686466D01*
X2157963Y53516627D01*
X2161915Y53476500D01*
X2175360Y53340000D01*
X2166503Y53250080D01*
X2157963Y53163373D01*
X2106443Y52993534D01*
X2022778Y52837008D01*
X1910186Y52699814D01*
X1772992Y52587222D01*
X1616466Y52503557D01*
X1446627Y52452037D01*
X1406916Y52448126D01*
X1314265Y52439000D01*
X1225735Y52439000D01*
X1133084Y52448126D01*
X1093373Y52452037D01*
X923534Y52503557D01*
X767008Y52587222D01*
X629814Y52699814D01*
X517222Y52837008D01*
X433557Y52993534D01*
X382037Y53163373D01*
X373497Y53250080D01*
X364640Y53340000D01*
X378085Y53476500D01*
X382037Y53516627D01*
X433557Y53686466D01*
X451922Y53720824D01*
X517222Y53842992D01*
X629814Y53980186D01*
X767008Y54092778D01*
X923534Y54176443D01*
X1093373Y54227963D01*
X1133084Y54231874D01*
X1225735Y54241000D01*
X1314265Y54241000D01*
X1406916Y54231874D01*
X1406916Y54231874D01*
G37*
G36*
X16649867Y53734641D02*
X16695418Y53720824D01*
X16737397Y53698385D01*
X16774190Y53668190D01*
X16804385Y53631397D01*
X16826824Y53589418D01*
X16840641Y53543867D01*
X16845500Y53494538D01*
X16845500Y52832462D01*
X16840641Y52783133D01*
X16826824Y52737582D01*
X16804385Y52695603D01*
X16774190Y52658810D01*
X16737397Y52628615D01*
X16695418Y52606176D01*
X16649867Y52592359D01*
X16600538Y52587500D01*
X16038462Y52587500D01*
X15989133Y52592359D01*
X15943582Y52606176D01*
X15901603Y52628615D01*
X15864810Y52658810D01*
X15834615Y52695603D01*
X15812176Y52737582D01*
X15798359Y52783133D01*
X15793500Y52832462D01*
X15793500Y53494538D01*
X15798359Y53543867D01*
X15812176Y53589418D01*
X15834615Y53631397D01*
X15864810Y53668190D01*
X15901603Y53698385D01*
X15943582Y53720824D01*
X15989133Y53734641D01*
X16038462Y53739500D01*
X16600538Y53739500D01*
X16649867Y53734641D01*
X16649867Y53734641D01*
G37*
G36*
X12111000Y52760600D02*
X11709000Y52760600D01*
X11709000Y54362600D01*
X12111000Y54362600D01*
X12111000Y52760600D01*
X12111000Y52760600D01*
G37*
G36*
X8111000Y52760600D02*
X7409000Y52760600D01*
X7409000Y54362600D01*
X8111000Y54362600D01*
X8111000Y52760600D01*
X8111000Y52760600D01*
G37*
G36*
X7379675Y55173152D02*
X7448100Y55144809D01*
X7509689Y55103656D01*
X7562056Y55051289D01*
X7603209Y54989700D01*
X7631552Y54921275D01*
X7646000Y54848635D01*
X7646000Y54774565D01*
X7631552Y54701925D01*
X7603209Y54633500D01*
X7562056Y54571911D01*
X7509689Y54519544D01*
X7448100Y54478391D01*
X7379675Y54450048D01*
X7338362Y54441831D01*
X7330858Y54439555D01*
X7323943Y54435859D01*
X7317881Y54430885D01*
X7312906Y54424823D01*
X7309210Y54417908D01*
X7306934Y54410404D01*
X7306165Y54402600D01*
X7306934Y54394797D01*
X7309210Y54387293D01*
X7311000Y54383944D01*
X7311000Y52760600D01*
X6609000Y52760600D01*
X6609000Y54362600D01*
X7193835Y54362600D01*
X7201639Y54363369D01*
X7209142Y54365645D01*
X7216058Y54369341D01*
X7222119Y54374316D01*
X7227094Y54380377D01*
X7230790Y54387293D01*
X7233066Y54394796D01*
X7233835Y54402600D01*
X7233066Y54410404D01*
X7230790Y54417907D01*
X7227094Y54424823D01*
X7222119Y54430884D01*
X7216058Y54435859D01*
X7209142Y54439555D01*
X7201638Y54441831D01*
X7160325Y54450048D01*
X7091900Y54478391D01*
X7030311Y54519544D01*
X6977944Y54571911D01*
X6936791Y54633500D01*
X6908448Y54701925D01*
X6894000Y54774565D01*
X6894000Y54848635D01*
X6908448Y54921275D01*
X6936791Y54989700D01*
X6977944Y55051289D01*
X7030311Y55103656D01*
X7091900Y55144809D01*
X7160325Y55173152D01*
X7232965Y55187600D01*
X7307035Y55187600D01*
X7379675Y55173152D01*
X7379675Y55173152D01*
G37*
G36*
X8611000Y52760600D02*
X8209000Y52760600D01*
X8209000Y54362600D01*
X8611000Y54362600D01*
X8611000Y52760600D01*
X8611000Y52760600D01*
G37*
G36*
X9111000Y52760600D02*
X8709000Y52760600D01*
X8709000Y54362600D01*
X9111000Y54362600D01*
X9111000Y52760600D01*
X9111000Y52760600D01*
G37*
G36*
X13159675Y55173152D02*
X13228100Y55144809D01*
X13289689Y55103656D01*
X13342056Y55051289D01*
X13383209Y54989700D01*
X13411552Y54921275D01*
X13426000Y54848635D01*
X13426000Y54774565D01*
X13411552Y54701925D01*
X13383209Y54633500D01*
X13342056Y54571911D01*
X13289689Y54519544D01*
X13228100Y54478391D01*
X13159675Y54450048D01*
X13118362Y54441831D01*
X13110858Y54439555D01*
X13103943Y54435859D01*
X13097881Y54430885D01*
X13092906Y54424823D01*
X13089210Y54417908D01*
X13086934Y54410404D01*
X13086165Y54402600D01*
X13086934Y54394797D01*
X13089210Y54387293D01*
X13092906Y54380378D01*
X13097880Y54374316D01*
X13103942Y54369341D01*
X13110857Y54365645D01*
X13118361Y54363369D01*
X13126165Y54362600D01*
X13711000Y54362600D01*
X13711000Y52760600D01*
X13009000Y52760600D01*
X13009000Y54383944D01*
X13010790Y54387293D01*
X13013066Y54394796D01*
X13013835Y54402600D01*
X13013066Y54410404D01*
X13010790Y54417907D01*
X13007094Y54424823D01*
X13002119Y54430884D01*
X12996058Y54435859D01*
X12989142Y54439555D01*
X12981638Y54441831D01*
X12940325Y54450048D01*
X12871900Y54478391D01*
X12810311Y54519544D01*
X12757944Y54571911D01*
X12716791Y54633500D01*
X12688448Y54701925D01*
X12674000Y54774565D01*
X12674000Y54848635D01*
X12688448Y54921275D01*
X12716791Y54989700D01*
X12757944Y55051289D01*
X12810311Y55103656D01*
X12871900Y55144809D01*
X12940325Y55173152D01*
X13012965Y55187600D01*
X13087035Y55187600D01*
X13159675Y55173152D01*
X13159675Y55173152D01*
G37*
G36*
X11611000Y52760600D02*
X11209000Y52760600D01*
X11209000Y54362600D01*
X11611000Y54362600D01*
X11611000Y52760600D01*
X11611000Y52760600D01*
G37*
G36*
X11111000Y52760600D02*
X10709000Y52760600D01*
X10709000Y54362600D01*
X11111000Y54362600D01*
X11111000Y52760600D01*
X11111000Y52760600D01*
G37*
G36*
X10611000Y52760600D02*
X10209000Y52760600D01*
X10209000Y54362600D01*
X10611000Y54362600D01*
X10611000Y52760600D01*
X10611000Y52760600D01*
G37*
G36*
X10111000Y52760600D02*
X9709000Y52760600D01*
X9709000Y54362600D01*
X10111000Y54362600D01*
X10111000Y52760600D01*
X10111000Y52760600D01*
G37*
G36*
X9611000Y52760600D02*
X9209000Y52760600D01*
X9209000Y54362600D01*
X9611000Y54362600D01*
X9611000Y52760600D01*
X9611000Y52760600D01*
G37*
G36*
X12911000Y52760600D02*
X12209000Y52760600D01*
X12209000Y54362600D01*
X12911000Y54362600D01*
X12911000Y52760600D01*
X12911000Y52760600D01*
G37*
G36*
X5948015Y55404627D02*
X6051879Y55373121D01*
X6147600Y55321956D01*
X6231501Y55253101D01*
X6300356Y55169200D01*
X6351521Y55073479D01*
X6383027Y54969615D01*
X6391000Y54888667D01*
X6391000Y53734533D01*
X6383027Y53653585D01*
X6351521Y53549721D01*
X6300356Y53454000D01*
X6231501Y53370099D01*
X6147600Y53301244D01*
X6051878Y53250079D01*
X5948014Y53218573D01*
X5840000Y53207934D01*
X5731985Y53218573D01*
X5628121Y53250079D01*
X5532400Y53301244D01*
X5448499Y53370099D01*
X5379644Y53454000D01*
X5328479Y53549722D01*
X5296973Y53653586D01*
X5289000Y53734534D01*
X5289001Y54888667D01*
X5296974Y54969615D01*
X5328480Y55073479D01*
X5379645Y55169200D01*
X5448500Y55253101D01*
X5532401Y55321956D01*
X5628122Y55373121D01*
X5731986Y55404627D01*
X5840000Y55415266D01*
X5948015Y55404627D01*
X5948015Y55404627D01*
G37*
G36*
X14588015Y55404627D02*
X14691879Y55373121D01*
X14787600Y55321956D01*
X14871501Y55253101D01*
X14940356Y55169200D01*
X14991521Y55073479D01*
X15023027Y54969615D01*
X15031000Y54888667D01*
X15031000Y53734533D01*
X15023027Y53653585D01*
X14991521Y53549721D01*
X14940356Y53454000D01*
X14871501Y53370099D01*
X14787600Y53301244D01*
X14691878Y53250079D01*
X14588014Y53218573D01*
X14480000Y53207934D01*
X14371985Y53218573D01*
X14268121Y53250079D01*
X14172400Y53301244D01*
X14088499Y53370099D01*
X14019644Y53454000D01*
X13968479Y53549722D01*
X13936973Y53653586D01*
X13929000Y53734534D01*
X13929001Y54888667D01*
X13936974Y54969615D01*
X13968480Y55073479D01*
X14019645Y55169200D01*
X14088500Y55253101D01*
X14172401Y55321956D01*
X14268122Y55373121D01*
X14371986Y55404627D01*
X14480000Y55415266D01*
X14588015Y55404627D01*
X14588015Y55404627D01*
G37*
G36*
X16649867Y55484641D02*
X16695418Y55470824D01*
X16737397Y55448385D01*
X16774190Y55418190D01*
X16804385Y55381397D01*
X16826824Y55339418D01*
X16840641Y55293867D01*
X16845500Y55244538D01*
X16845500Y54582462D01*
X16840641Y54533133D01*
X16826824Y54487582D01*
X16804385Y54445603D01*
X16774190Y54408810D01*
X16737397Y54378615D01*
X16695418Y54356176D01*
X16649867Y54342359D01*
X16600538Y54337500D01*
X16038462Y54337500D01*
X15989133Y54342359D01*
X15943582Y54356176D01*
X15901603Y54378615D01*
X15864810Y54408810D01*
X15834615Y54445603D01*
X15812176Y54487582D01*
X15798359Y54533133D01*
X15793500Y54582462D01*
X15793500Y55244538D01*
X15798359Y55293867D01*
X15812176Y55339418D01*
X15834615Y55381397D01*
X15864810Y55418190D01*
X15901603Y55448385D01*
X15943582Y55470824D01*
X15989133Y55484641D01*
X16038462Y55489500D01*
X16600538Y55489500D01*
X16649867Y55484641D01*
X16649867Y55484641D01*
G37*
G36*
X4742000Y54356500D02*
X3640000Y54356500D01*
X3640000Y55458500D01*
X4742000Y55458500D01*
X4742000Y54356500D01*
X4742000Y54356500D01*
G37*
G36*
X19186916Y56771874D02*
X19226627Y56767963D01*
X19396466Y56716443D01*
X19552992Y56632778D01*
X19690186Y56520186D01*
X19802778Y56382992D01*
X19886443Y56226466D01*
X19937963Y56056627D01*
X19937963Y56056624D01*
X19955360Y55880000D01*
X19941931Y55743660D01*
X19937963Y55703373D01*
X19886443Y55533534D01*
X19802778Y55377008D01*
X19690186Y55239814D01*
X19552992Y55127222D01*
X19410926Y55051286D01*
X19396466Y55043557D01*
X19226627Y54992037D01*
X19186916Y54988126D01*
X19094265Y54979000D01*
X19005735Y54979000D01*
X18913084Y54988126D01*
X18873373Y54992037D01*
X18703534Y55043557D01*
X18689074Y55051286D01*
X18547008Y55127222D01*
X18409814Y55239814D01*
X18297222Y55377008D01*
X18213557Y55533534D01*
X18162037Y55703373D01*
X18158069Y55743660D01*
X18144640Y55880000D01*
X18162037Y56056624D01*
X18162037Y56056627D01*
X18213557Y56226466D01*
X18297222Y56382992D01*
X18409814Y56520186D01*
X18547008Y56632778D01*
X18703534Y56716443D01*
X18873373Y56767963D01*
X18913084Y56771874D01*
X19005735Y56781000D01*
X19094265Y56781000D01*
X19186916Y56771874D01*
X19186916Y56771874D01*
G37*
G36*
X1406916Y56771874D02*
X1446627Y56767963D01*
X1616466Y56716443D01*
X1772992Y56632778D01*
X1910186Y56520186D01*
X2022778Y56382992D01*
X2106443Y56226466D01*
X2157963Y56056627D01*
X2157963Y56056624D01*
X2175360Y55880000D01*
X2161931Y55743660D01*
X2157963Y55703373D01*
X2106443Y55533534D01*
X2022778Y55377008D01*
X1910186Y55239814D01*
X1772992Y55127222D01*
X1630926Y55051286D01*
X1616466Y55043557D01*
X1446627Y54992037D01*
X1406916Y54988126D01*
X1314265Y54979000D01*
X1225735Y54979000D01*
X1133084Y54988126D01*
X1093373Y54992037D01*
X923534Y55043557D01*
X909074Y55051286D01*
X767008Y55127222D01*
X629814Y55239814D01*
X517222Y55377008D01*
X433557Y55533534D01*
X382037Y55703373D01*
X378069Y55743660D01*
X364640Y55880000D01*
X382037Y56056624D01*
X382037Y56056627D01*
X433557Y56226466D01*
X517222Y56382992D01*
X629814Y56520186D01*
X767008Y56632778D01*
X923534Y56716443D01*
X1093373Y56767963D01*
X1133084Y56771874D01*
X1225735Y56781000D01*
X1314265Y56781000D01*
X1406916Y56771874D01*
X1406916Y56771874D01*
G37*
G36*
X16649867Y57544641D02*
X16695418Y57530824D01*
X16737397Y57508385D01*
X16774190Y57478190D01*
X16804385Y57441397D01*
X16826824Y57399418D01*
X16840641Y57353867D01*
X16845500Y57304538D01*
X16845500Y56642462D01*
X16840641Y56593133D01*
X16826824Y56547582D01*
X16804385Y56505603D01*
X16774190Y56468810D01*
X16737397Y56438615D01*
X16695418Y56416176D01*
X16649867Y56402359D01*
X16600538Y56397500D01*
X16038462Y56397500D01*
X15989133Y56402359D01*
X15943582Y56416176D01*
X15901603Y56438615D01*
X15864810Y56468810D01*
X15834615Y56505603D01*
X15812176Y56547582D01*
X15798359Y56593133D01*
X15793500Y56642462D01*
X15793500Y57304538D01*
X15798359Y57353867D01*
X15812176Y57399418D01*
X15834615Y57441397D01*
X15864810Y57478190D01*
X15901603Y57508385D01*
X15943582Y57530824D01*
X15989133Y57544641D01*
X16038462Y57549500D01*
X16600538Y57549500D01*
X16649867Y57544641D01*
X16649867Y57544641D01*
G37*
G36*
X5948015Y59404627D02*
X6051879Y59373121D01*
X6147600Y59321956D01*
X6231501Y59253101D01*
X6300356Y59169200D01*
X6351521Y59073479D01*
X6383027Y58969615D01*
X6391000Y58888667D01*
X6391000Y58034533D01*
X6383027Y57953585D01*
X6351521Y57849721D01*
X6300356Y57754000D01*
X6231501Y57670099D01*
X6147600Y57601244D01*
X6051878Y57550079D01*
X5948014Y57518573D01*
X5840000Y57507934D01*
X5731985Y57518573D01*
X5628121Y57550079D01*
X5532400Y57601244D01*
X5448499Y57670099D01*
X5379644Y57754000D01*
X5328479Y57849722D01*
X5296973Y57953586D01*
X5289000Y58034534D01*
X5289000Y58888667D01*
X5290296Y58901822D01*
X5296972Y58969610D01*
X5296973Y58969612D01*
X5296973Y58969615D01*
X5328480Y59073479D01*
X5379645Y59169200D01*
X5448500Y59253101D01*
X5532401Y59321956D01*
X5628122Y59373121D01*
X5731986Y59404627D01*
X5840000Y59415266D01*
X5948015Y59404627D01*
X5948015Y59404627D01*
G37*
G36*
X14588015Y59404627D02*
X14691879Y59373121D01*
X14787600Y59321956D01*
X14871501Y59253101D01*
X14940356Y59169200D01*
X14991521Y59073479D01*
X15023027Y58969615D01*
X15031000Y58888667D01*
X15031000Y58034533D01*
X15023027Y57953585D01*
X14991521Y57849721D01*
X14940356Y57754000D01*
X14871501Y57670099D01*
X14787600Y57601244D01*
X14691878Y57550079D01*
X14588014Y57518573D01*
X14480000Y57507934D01*
X14371985Y57518573D01*
X14268121Y57550079D01*
X14172400Y57601244D01*
X14088499Y57670099D01*
X14019644Y57754000D01*
X13968479Y57849722D01*
X13936973Y57953586D01*
X13929000Y58034534D01*
X13929000Y58888667D01*
X13930296Y58901822D01*
X13936972Y58969610D01*
X13936973Y58969612D01*
X13936973Y58969615D01*
X13968480Y59073479D01*
X14019645Y59169200D01*
X14088500Y59253101D01*
X14172401Y59321956D01*
X14268122Y59373121D01*
X14371986Y59404627D01*
X14480000Y59415266D01*
X14588015Y59404627D01*
X14588015Y59404627D01*
G37*
G36*
X2171000Y57519000D02*
X369000Y57519000D01*
X369000Y59321000D01*
X2171000Y59321000D01*
X2171000Y57519000D01*
X2171000Y57519000D01*
G37*
G36*
X19951000Y57519000D02*
X18149000Y57519000D01*
X18149000Y59321000D01*
X19951000Y59321000D01*
X19951000Y57519000D01*
X19951000Y57519000D01*
G37*
G36*
X16649867Y59294641D02*
X16695418Y59280824D01*
X16737397Y59258385D01*
X16774190Y59228190D01*
X16804385Y59191397D01*
X16826824Y59149418D01*
X16840641Y59103867D01*
X16845500Y59054538D01*
X16845500Y58392462D01*
X16840641Y58343133D01*
X16826824Y58297582D01*
X16804385Y58255603D01*
X16774190Y58218810D01*
X16737397Y58188615D01*
X16695418Y58166176D01*
X16649867Y58152359D01*
X16600538Y58147500D01*
X16038462Y58147500D01*
X15989133Y58152359D01*
X15943582Y58166176D01*
X15901603Y58188615D01*
X15864810Y58218810D01*
X15834615Y58255603D01*
X15812176Y58297582D01*
X15798359Y58343133D01*
X15793500Y58392462D01*
X15793500Y59054538D01*
X15798359Y59103867D01*
X15812176Y59149418D01*
X15834615Y59191397D01*
X15864810Y59228190D01*
X15901603Y59258385D01*
X15943582Y59280824D01*
X15989133Y59294641D01*
X16038462Y59299500D01*
X16600538Y59299500D01*
X16649867Y59294641D01*
X16649867Y59294641D01*
G37*
M02*
