G04 #@! TF.GenerationSoftware,KiCad,Pcbnew,5.0.2-bee76a0~70~ubuntu18.04.1*
G04 #@! TF.CreationDate,2019-08-12T18:04:03+02:00*
G04 #@! TF.ProjectId,Pic32MxRedFox,50696333-324d-4785-9265-64466f782e6b,rev?*
G04 #@! TF.SameCoordinates,PX5faea10PY8eeaea0*
G04 #@! TF.FileFunction,Other,Fab,Top*
%FSLAX46Y46*%
G04 Gerber Fmt 4.6, Leading zero omitted, Abs format (unit mm)*
G04 Created by KiCad (PCBNEW 5.0.2-bee76a0~70~ubuntu18.04.1) date pon 12 avg 2019 18:04:03 CEST*
%MOMM*%
%LPD*%
G01*
G04 APERTURE LIST*
%ADD10C,0.300000*%
%ADD11C,0.100000*%
%ADD12C,0.150000*%
%ADD13C,0.060000*%
%ADD14C,0.075000*%
%ADD15C,0.120000*%
%ADD16C,0.080000*%
G04 APERTURE END LIST*
D10*
X3945714Y66786572D02*
X4017142Y66858000D01*
X4160000Y66929429D01*
X4517142Y66929429D01*
X4660000Y66858000D01*
X4731428Y66786572D01*
X4802857Y66643715D01*
X4802857Y66500858D01*
X4731428Y66286572D01*
X3874285Y65429429D01*
X4802857Y65429429D01*
X5731428Y66929429D02*
X5874285Y66929429D01*
X6017142Y66858000D01*
X6088571Y66786572D01*
X6160000Y66643715D01*
X6231428Y66358000D01*
X6231428Y66000858D01*
X6160000Y65715143D01*
X6088571Y65572286D01*
X6017142Y65500858D01*
X5874285Y65429429D01*
X5731428Y65429429D01*
X5588571Y65500858D01*
X5517142Y65572286D01*
X5445714Y65715143D01*
X5374285Y66000858D01*
X5374285Y66358000D01*
X5445714Y66643715D01*
X5517142Y66786572D01*
X5588571Y66858000D01*
X5731428Y66929429D01*
X6945714Y65500858D02*
X6945714Y65429429D01*
X6874285Y65286572D01*
X6802857Y65215143D01*
X7445714Y66929429D02*
X8374285Y66929429D01*
X7874285Y66358000D01*
X8088571Y66358000D01*
X8231428Y66286572D01*
X8302857Y66215143D01*
X8374285Y66072286D01*
X8374285Y65715143D01*
X8302857Y65572286D01*
X8231428Y65500858D01*
X8088571Y65429429D01*
X7660000Y65429429D01*
X7517142Y65500858D01*
X7445714Y65572286D01*
X8945714Y66786572D02*
X9017142Y66858000D01*
X9160000Y66929429D01*
X9517142Y66929429D01*
X9660000Y66858000D01*
X9731428Y66786572D01*
X9802857Y66643715D01*
X9802857Y66500858D01*
X9731428Y66286572D01*
X8874285Y65429429D01*
X9802857Y65429429D01*
X10731428Y66929429D02*
X10874285Y66929429D01*
X11017142Y66858000D01*
X11088571Y66786572D01*
X11160000Y66643715D01*
X11231428Y66358000D01*
X11231428Y66000858D01*
X11160000Y65715143D01*
X11088571Y65572286D01*
X11017142Y65500858D01*
X10874285Y65429429D01*
X10731428Y65429429D01*
X10588571Y65500858D01*
X10517142Y65572286D01*
X10445714Y65715143D01*
X10374285Y66000858D01*
X10374285Y66358000D01*
X10445714Y66643715D01*
X10517142Y66786572D01*
X10588571Y66858000D01*
X10731428Y66929429D01*
X13017142Y65429429D02*
X13017142Y66429429D01*
X13017142Y66286572D02*
X13088571Y66358000D01*
X13231428Y66429429D01*
X13445714Y66429429D01*
X13588571Y66358000D01*
X13660000Y66215143D01*
X13660000Y65429429D01*
X13660000Y66215143D02*
X13731428Y66358000D01*
X13874285Y66429429D01*
X14088571Y66429429D01*
X14231428Y66358000D01*
X14302857Y66215143D01*
X14302857Y65429429D01*
X15017142Y65429429D02*
X15017142Y66429429D01*
X15017142Y66286572D02*
X15088571Y66358000D01*
X15231428Y66429429D01*
X15445714Y66429429D01*
X15588571Y66358000D01*
X15660000Y66215143D01*
X15660000Y65429429D01*
X15660000Y66215143D02*
X15731428Y66358000D01*
X15874285Y66429429D01*
X16088571Y66429429D01*
X16231428Y66358000D01*
X16302857Y66215143D01*
X16302857Y65429429D01*
X0Y64008000D02*
X20320000Y64008000D01*
X0Y59690000D02*
X0Y64594421D01*
X20320000Y59690000D02*
X20320000Y64594421D01*
X20320000Y64008000D02*
X19193496Y63421579D01*
X20320000Y64008000D02*
X19193496Y64594421D01*
X0Y64008000D02*
X1126504Y63421579D01*
X0Y64008000D02*
X1126504Y64594421D01*
X34607928Y35273572D02*
X34607928Y35987858D01*
X33893642Y36059286D01*
X33965071Y35987858D01*
X34036500Y35845000D01*
X34036500Y35487858D01*
X33965071Y35345000D01*
X33893642Y35273572D01*
X33750785Y35202143D01*
X33393642Y35202143D01*
X33250785Y35273572D01*
X33179357Y35345000D01*
X33107928Y35487858D01*
X33107928Y35845000D01*
X33179357Y35987858D01*
X33250785Y36059286D01*
X33107928Y34487858D02*
X33107928Y34202143D01*
X33179357Y34059286D01*
X33250785Y33987858D01*
X33465071Y33845000D01*
X33750785Y33773572D01*
X34322214Y33773572D01*
X34465071Y33845000D01*
X34536500Y33916429D01*
X34607928Y34059286D01*
X34607928Y34345000D01*
X34536500Y34487858D01*
X34465071Y34559286D01*
X34322214Y34630715D01*
X33965071Y34630715D01*
X33822214Y34559286D01*
X33750785Y34487858D01*
X33679357Y34345000D01*
X33679357Y34059286D01*
X33750785Y33916429D01*
X33822214Y33845000D01*
X33965071Y33773572D01*
X33179357Y33059286D02*
X33107928Y33059286D01*
X32965071Y33130715D01*
X32893642Y33202143D01*
X34607928Y31773572D02*
X34607928Y32059286D01*
X34536500Y32202143D01*
X34465071Y32273572D01*
X34250785Y32416429D01*
X33965071Y32487858D01*
X33393642Y32487858D01*
X33250785Y32416429D01*
X33179357Y32345000D01*
X33107928Y32202143D01*
X33107928Y31916429D01*
X33179357Y31773572D01*
X33250785Y31702143D01*
X33393642Y31630715D01*
X33750785Y31630715D01*
X33893642Y31702143D01*
X33965071Y31773572D01*
X34036500Y31916429D01*
X34036500Y32202143D01*
X33965071Y32345000D01*
X33893642Y32416429D01*
X33750785Y32487858D01*
X33107928Y30916429D02*
X33107928Y30630715D01*
X33179357Y30487858D01*
X33250785Y30416429D01*
X33465071Y30273572D01*
X33750785Y30202143D01*
X34322214Y30202143D01*
X34465071Y30273572D01*
X34536500Y30345000D01*
X34607928Y30487858D01*
X34607928Y30773572D01*
X34536500Y30916429D01*
X34465071Y30987858D01*
X34322214Y31059286D01*
X33965071Y31059286D01*
X33822214Y30987858D01*
X33750785Y30916429D01*
X33679357Y30773572D01*
X33679357Y30487858D01*
X33750785Y30345000D01*
X33822214Y30273572D01*
X33965071Y30202143D01*
X34607928Y29273572D02*
X34607928Y29130715D01*
X34536500Y28987858D01*
X34465071Y28916429D01*
X34322214Y28845000D01*
X34036500Y28773572D01*
X33679357Y28773572D01*
X33393642Y28845000D01*
X33250785Y28916429D01*
X33179357Y28987858D01*
X33107928Y29130715D01*
X33107928Y29273572D01*
X33179357Y29416429D01*
X33250785Y29487858D01*
X33393642Y29559286D01*
X33679357Y29630715D01*
X34036500Y29630715D01*
X34322214Y29559286D01*
X34465071Y29487858D01*
X34536500Y29416429D01*
X34607928Y29273572D01*
X33107928Y26987858D02*
X34107928Y26987858D01*
X33965071Y26987858D02*
X34036500Y26916429D01*
X34107928Y26773572D01*
X34107928Y26559286D01*
X34036500Y26416429D01*
X33893642Y26345000D01*
X33107928Y26345000D01*
X33893642Y26345000D02*
X34036500Y26273572D01*
X34107928Y26130715D01*
X34107928Y25916429D01*
X34036500Y25773572D01*
X33893642Y25702143D01*
X33107928Y25702143D01*
X33107928Y24987858D02*
X34107928Y24987858D01*
X33965071Y24987858D02*
X34036500Y24916429D01*
X34107928Y24773572D01*
X34107928Y24559286D01*
X34036500Y24416429D01*
X33893642Y24345000D01*
X33107928Y24345000D01*
X33893642Y24345000D02*
X34036500Y24273572D01*
X34107928Y24130715D01*
X34107928Y23916429D01*
X34036500Y23773572D01*
X33893642Y23702143D01*
X33107928Y23702143D01*
X31686500Y59690000D02*
X31686500Y0D01*
X20320000Y59690000D02*
X32272921Y59690000D01*
X20320000Y0D02*
X32272921Y0D01*
X31686500Y0D02*
X31100079Y1126504D01*
X31686500Y0D02*
X32272921Y1126504D01*
X31686500Y59690000D02*
X31100079Y58563496D01*
X31686500Y59690000D02*
X32272921Y58563496D01*
X28194428Y39401072D02*
X28194428Y40115358D01*
X27480142Y40186786D01*
X27551571Y40115358D01*
X27623000Y39972500D01*
X27623000Y39615358D01*
X27551571Y39472500D01*
X27480142Y39401072D01*
X27337285Y39329643D01*
X26980142Y39329643D01*
X26837285Y39401072D01*
X26765857Y39472500D01*
X26694428Y39615358D01*
X26694428Y39972500D01*
X26765857Y40115358D01*
X26837285Y40186786D01*
X26694428Y37901072D02*
X26694428Y38758215D01*
X26694428Y38329643D02*
X28194428Y38329643D01*
X27980142Y38472500D01*
X27837285Y38615358D01*
X27765857Y38758215D01*
X26765857Y37186786D02*
X26694428Y37186786D01*
X26551571Y37258215D01*
X26480142Y37329643D01*
X27694428Y35901072D02*
X26694428Y35901072D01*
X28265857Y36258215D02*
X27194428Y36615358D01*
X27194428Y35686786D01*
X28194428Y35258215D02*
X28194428Y34329643D01*
X27623000Y34829643D01*
X27623000Y34615358D01*
X27551571Y34472500D01*
X27480142Y34401072D01*
X27337285Y34329643D01*
X26980142Y34329643D01*
X26837285Y34401072D01*
X26765857Y34472500D01*
X26694428Y34615358D01*
X26694428Y35043929D01*
X26765857Y35186786D01*
X26837285Y35258215D01*
X28194428Y32972500D02*
X28194428Y33686786D01*
X27480142Y33758215D01*
X27551571Y33686786D01*
X27623000Y33543929D01*
X27623000Y33186786D01*
X27551571Y33043929D01*
X27480142Y32972500D01*
X27337285Y32901072D01*
X26980142Y32901072D01*
X26837285Y32972500D01*
X26765857Y33043929D01*
X26694428Y33186786D01*
X26694428Y33543929D01*
X26765857Y33686786D01*
X26837285Y33758215D01*
X26694428Y31115358D02*
X27694428Y31115358D01*
X27551571Y31115358D02*
X27623000Y31043929D01*
X27694428Y30901072D01*
X27694428Y30686786D01*
X27623000Y30543929D01*
X27480142Y30472500D01*
X26694428Y30472500D01*
X27480142Y30472500D02*
X27623000Y30401072D01*
X27694428Y30258215D01*
X27694428Y30043929D01*
X27623000Y29901072D01*
X27480142Y29829643D01*
X26694428Y29829643D01*
X26694428Y29115358D02*
X27694428Y29115358D01*
X27551571Y29115358D02*
X27623000Y29043929D01*
X27694428Y28901072D01*
X27694428Y28686786D01*
X27623000Y28543929D01*
X27480142Y28472500D01*
X26694428Y28472500D01*
X27480142Y28472500D02*
X27623000Y28401072D01*
X27694428Y28258215D01*
X27694428Y28043929D01*
X27623000Y27901072D01*
X27480142Y27829643D01*
X26694428Y27829643D01*
X25273000Y59690000D02*
X25273000Y8255000D01*
X20320000Y59690000D02*
X25859421Y59690000D01*
X20320000Y8255000D02*
X25859421Y8255000D01*
X25273000Y8255000D02*
X24686579Y9381504D01*
X25273000Y8255000D02*
X25859421Y9381504D01*
X25273000Y59690000D02*
X24686579Y58563496D01*
X25273000Y59690000D02*
X25859421Y58563496D01*
D11*
G04 #@! TO.C,R10*
X13703400Y46158100D02*
X15303400Y46158100D01*
X13703400Y45358100D02*
X13703400Y46158100D01*
X15303400Y45358100D02*
X13703400Y45358100D01*
X15303400Y46158100D02*
X15303400Y45358100D01*
G04 #@! TO.C,R9*
X16237000Y49695000D02*
X17037000Y49695000D01*
X17037000Y49695000D02*
X17037000Y48095000D01*
X17037000Y48095000D02*
X16237000Y48095000D01*
X16237000Y48095000D02*
X16237000Y49695000D01*
G04 #@! TO.C,R8*
X3899000Y19475500D02*
X3899000Y20275500D01*
X3899000Y20275500D02*
X5499000Y20275500D01*
X5499000Y20275500D02*
X5499000Y19475500D01*
X5499000Y19475500D02*
X3899000Y19475500D01*
G04 #@! TO.C,C1*
X3638500Y39866501D02*
X3638500Y38266501D01*
X2838500Y39866501D02*
X3638500Y39866501D01*
X2838500Y38266501D02*
X2838500Y39866501D01*
X3638500Y38266501D02*
X2838500Y38266501D01*
G04 #@! TO.C,R7*
X5035500Y38266500D02*
X4235500Y38266500D01*
X4235500Y38266500D02*
X4235500Y39866500D01*
X4235500Y39866500D02*
X5035500Y39866500D01*
X5035500Y39866500D02*
X5035500Y38266500D01*
G04 #@! TO.C,C9*
X16611500Y27260500D02*
X16611500Y26460500D01*
X16611500Y26460500D02*
X15011500Y26460500D01*
X15011500Y26460500D02*
X15011500Y27260500D01*
X15011500Y27260500D02*
X16611500Y27260500D01*
G04 #@! TO.C,U3*
X14870000Y48058500D02*
X14220000Y47408500D01*
X13070000Y47408500D02*
X14220000Y47408500D01*
X14870000Y48058500D02*
X14870000Y50508500D01*
X13070000Y50508500D02*
X14870000Y50508500D01*
X13070000Y47408500D02*
X13070000Y50508500D01*
G04 #@! TO.C,U1*
X4127000Y45140000D02*
X3127000Y46140000D01*
X4127000Y45140000D02*
X9827000Y45140000D01*
X3127000Y46140000D02*
X3127000Y48840000D01*
X9827000Y45140000D02*
X9827000Y48840000D01*
X3127000Y48840000D02*
X9827000Y48840000D01*
G04 #@! TO.C,Y2*
X11760000Y22110000D02*
X11760000Y23610000D01*
X8560000Y22110000D02*
X8560000Y23610000D01*
X11760000Y22110000D02*
X8560000Y22110000D01*
X11760000Y23610000D02*
X8560000Y23610000D01*
G04 #@! TO.C,Y1*
X3822800Y22477600D02*
X5422800Y22477600D01*
X5422800Y22477600D02*
X5422800Y25477600D01*
X3822800Y24977600D02*
X4322800Y25477600D01*
X3822800Y24977600D02*
X3822800Y22477600D01*
X4322800Y25477600D02*
X5422800Y25477600D01*
G04 #@! TO.C,R6*
X12617500Y22885500D02*
X12617500Y24485500D01*
X13417500Y22885500D02*
X12617500Y22885500D01*
X13417500Y24485500D02*
X13417500Y22885500D01*
X12617500Y24485500D02*
X13417500Y24485500D01*
G04 #@! TO.C,R1*
X6407200Y24828400D02*
X7207200Y24828400D01*
X7207200Y24828400D02*
X7207200Y23228400D01*
X7207200Y23228400D02*
X6407200Y23228400D01*
X6407200Y23228400D02*
X6407200Y24828400D01*
G04 #@! TO.C,SW2*
X9650000Y10970000D02*
X3050000Y10970000D01*
X9650000Y16970000D02*
X9650000Y10970000D01*
X3050000Y16970000D02*
X9650000Y16970000D01*
X3050000Y10970000D02*
X3050000Y16970000D01*
X8000000Y13970000D02*
G75*
G03X8000000Y13970000I-1650000J0D01*
G01*
G04 #@! TO.C,SW1*
X15620000Y13970000D02*
G75*
G03X15620000Y13970000I-1650000J0D01*
G01*
X10670000Y10970000D02*
X10670000Y16970000D01*
X10670000Y16970000D02*
X17270000Y16970000D01*
X17270000Y16970000D02*
X17270000Y10970000D01*
X17270000Y10970000D02*
X10670000Y10970000D01*
G04 #@! TO.C,C4*
X7264500Y21355000D02*
X8864500Y21355000D01*
X7264500Y20555000D02*
X7264500Y21355000D01*
X8864500Y20555000D02*
X7264500Y20555000D01*
X8864500Y21355000D02*
X8864500Y20555000D01*
G04 #@! TO.C,C5*
X11017200Y45554800D02*
X11017200Y43954800D01*
X10217200Y45554800D02*
X11017200Y45554800D01*
X10217200Y43954800D02*
X10217200Y45554800D01*
X11017200Y43954800D02*
X10217200Y43954800D01*
G04 #@! TO.C,C6*
X11646000Y20555000D02*
X11646000Y21355000D01*
X11646000Y21355000D02*
X13246000Y21355000D01*
X13246000Y21355000D02*
X13246000Y20555000D01*
X13246000Y20555000D02*
X11646000Y20555000D01*
G04 #@! TO.C,C8*
X9372500Y41383000D02*
X7772500Y41383000D01*
X9372500Y42183000D02*
X9372500Y41383000D01*
X7772500Y42183000D02*
X9372500Y42183000D01*
X7772500Y41383000D02*
X7772500Y42183000D01*
G04 #@! TO.C,C10*
X5118000Y26524000D02*
X3518000Y26524000D01*
X5118000Y27324000D02*
X5118000Y26524000D01*
X3518000Y27324000D02*
X5118000Y27324000D01*
X3518000Y26524000D02*
X3518000Y27324000D01*
G04 #@! TO.C,C3*
X10322000Y47450500D02*
X10322000Y49450500D01*
X11522000Y47450500D02*
X10322000Y47450500D01*
X11522000Y49450500D02*
X11522000Y47450500D01*
X10322000Y49450500D02*
X11522000Y49450500D01*
G04 #@! TO.C,C7*
X6016500Y42129000D02*
X6016500Y40929000D01*
X6016500Y40929000D02*
X4016500Y40929000D01*
X4016500Y40929000D02*
X4016500Y42129000D01*
X4016500Y42129000D02*
X6016500Y42129000D01*
G04 #@! TO.C,C11*
X15776500Y39640000D02*
X14576500Y39640000D01*
X14576500Y39640000D02*
X14576500Y41640000D01*
X14576500Y41640000D02*
X15776500Y41640000D01*
X15776500Y41640000D02*
X15776500Y39640000D01*
G04 #@! TO.C,J2*
X-20000Y8235000D02*
X20340000Y8235000D01*
X520000Y7685000D02*
X19780000Y7685000D01*
X-20000Y-615000D02*
X20340000Y-615000D01*
X520000Y-65000D02*
X7910000Y-65000D01*
X12410000Y-65000D02*
X19780000Y-65000D01*
X7910000Y-65000D02*
X7910000Y-615000D01*
X12410000Y-65000D02*
X12410000Y-615000D01*
X-20000Y8235000D02*
X-20000Y-615000D01*
X520000Y7685000D02*
X520000Y-65000D01*
X20340000Y8235000D02*
X20340000Y-615000D01*
X19780000Y7685000D02*
X19780000Y-65000D01*
X-20000Y8235000D02*
X520000Y7685000D01*
X20340000Y8235000D02*
X19780000Y7685000D01*
X-20000Y-615000D02*
X520000Y-65000D01*
X20340000Y-615000D02*
X19780000Y-65000D01*
G04 #@! TO.C,D3*
X3491000Y52757500D02*
X3491000Y54557500D01*
X3491000Y54557500D02*
X4891000Y54557500D01*
X4891000Y54557500D02*
X4891000Y52757500D01*
X4891000Y52757500D02*
X3491000Y52757500D01*
X3841000Y53357500D02*
X4541000Y53357500D01*
X4191000Y53357500D02*
X4191000Y53157500D01*
X4191000Y53357500D02*
X3841000Y53857500D01*
X3841000Y53857500D02*
X4541000Y53857500D01*
X4541000Y53857500D02*
X4191000Y53357500D01*
X4191000Y53857500D02*
X4191000Y54107500D01*
D12*
G04 #@! TO.C,J1*
X14660000Y61061600D02*
X10160000Y61061600D01*
X14660000Y53461600D02*
X14660000Y61061600D01*
X5660000Y53461600D02*
X14660000Y53461600D01*
X5660000Y61061600D02*
X5660000Y53461600D01*
X10160000Y61061600D02*
X5660000Y61061600D01*
D11*
G04 #@! TO.C,D2*
X14713000Y21755000D02*
X14713000Y20455000D01*
X14713000Y20455000D02*
X15013000Y20155000D01*
X15013000Y20155000D02*
X15513000Y20155000D01*
X15513000Y20155000D02*
X15513000Y21755000D01*
X15513000Y21755000D02*
X14713000Y21755000D01*
G04 #@! TO.C,D1*
X17037000Y21755000D02*
X16237000Y21755000D01*
X17037000Y20155000D02*
X17037000Y21755000D01*
X16537000Y20155000D02*
X17037000Y20155000D01*
X16237000Y20455000D02*
X16537000Y20155000D01*
X16237000Y21755000D02*
X16237000Y20455000D01*
D12*
G04 #@! TO.C,U4*
X16523961Y32312893D02*
X10160000Y25948932D01*
X10160000Y25948932D02*
X3088932Y33020000D01*
X3088932Y33020000D02*
X10160000Y40091068D01*
X10160000Y40091068D02*
X16523961Y33727107D01*
X16523961Y33727107D02*
X16523961Y32312893D01*
D11*
G04 #@! TO.C,U2*
X6465999Y45440000D02*
X6465999Y48540000D01*
X6465999Y48540000D02*
X8266001Y48540000D01*
X8266000Y46090000D02*
X8266001Y48540000D01*
X6465999Y45440000D02*
X7616000Y45440000D01*
X8266000Y46090000D02*
X7616000Y45440000D01*
G04 #@! TO.C,R4*
X15919500Y58648500D02*
X16719500Y58648500D01*
X16719500Y58648500D02*
X16719500Y57048500D01*
X16719500Y57048500D02*
X15919500Y57048500D01*
X15919500Y57048500D02*
X15919500Y58648500D01*
G04 #@! TO.C,R3*
X15513000Y25120500D02*
X15513000Y23520500D01*
X14713000Y25120500D02*
X15513000Y25120500D01*
X14713000Y23520500D02*
X14713000Y25120500D01*
X15513000Y23520500D02*
X14713000Y23520500D01*
G04 #@! TO.C,R2*
X17037000Y23520500D02*
X16237000Y23520500D01*
X16237000Y23520500D02*
X16237000Y25120500D01*
X16237000Y25120500D02*
X17037000Y25120500D01*
X17037000Y25120500D02*
X17037000Y23520500D01*
G04 #@! TO.C,R5*
X16719500Y53238500D02*
X15919500Y53238500D01*
X15919500Y53238500D02*
X15919500Y54838500D01*
X15919500Y54838500D02*
X16719500Y54838500D01*
X16719500Y54838500D02*
X16719500Y53238500D01*
G04 #@! TD*
G04 #@! TO.C,R10*
D13*
X14246257Y45577148D02*
X14112923Y45767624D01*
X14017685Y45577148D02*
X14017685Y45977148D01*
X14170066Y45977148D01*
X14208161Y45958100D01*
X14227209Y45939053D01*
X14246257Y45900958D01*
X14246257Y45843815D01*
X14227209Y45805720D01*
X14208161Y45786672D01*
X14170066Y45767624D01*
X14017685Y45767624D01*
X14627209Y45577148D02*
X14398638Y45577148D01*
X14512923Y45577148D02*
X14512923Y45977148D01*
X14474828Y45920005D01*
X14436733Y45881910D01*
X14398638Y45862862D01*
X14874828Y45977148D02*
X14912923Y45977148D01*
X14951019Y45958100D01*
X14970066Y45939053D01*
X14989114Y45900958D01*
X15008161Y45824767D01*
X15008161Y45729529D01*
X14989114Y45653339D01*
X14970066Y45615243D01*
X14951019Y45596196D01*
X14912923Y45577148D01*
X14874828Y45577148D01*
X14836733Y45596196D01*
X14817685Y45615243D01*
X14798638Y45653339D01*
X14779590Y45729529D01*
X14779590Y45824767D01*
X14798638Y45900958D01*
X14817685Y45939053D01*
X14836733Y45958100D01*
X14874828Y45977148D01*
G04 #@! TO.C,R9*
X16817952Y48828334D02*
X16627476Y48695000D01*
X16817952Y48599762D02*
X16417952Y48599762D01*
X16417952Y48752143D01*
X16437000Y48790239D01*
X16456047Y48809286D01*
X16494142Y48828334D01*
X16551285Y48828334D01*
X16589380Y48809286D01*
X16608428Y48790239D01*
X16627476Y48752143D01*
X16627476Y48599762D01*
X16817952Y49018810D02*
X16817952Y49095000D01*
X16798904Y49133096D01*
X16779857Y49152143D01*
X16722714Y49190239D01*
X16646523Y49209286D01*
X16494142Y49209286D01*
X16456047Y49190239D01*
X16437000Y49171191D01*
X16417952Y49133096D01*
X16417952Y49056905D01*
X16437000Y49018810D01*
X16456047Y48999762D01*
X16494142Y48980715D01*
X16589380Y48980715D01*
X16627476Y48999762D01*
X16646523Y49018810D01*
X16665571Y49056905D01*
X16665571Y49133096D01*
X16646523Y49171191D01*
X16627476Y49190239D01*
X16589380Y49209286D01*
G04 #@! TO.C,R8*
X4632333Y19694548D02*
X4499000Y19885024D01*
X4403761Y19694548D02*
X4403761Y20094548D01*
X4556142Y20094548D01*
X4594238Y20075500D01*
X4613285Y20056453D01*
X4632333Y20018358D01*
X4632333Y19961215D01*
X4613285Y19923120D01*
X4594238Y19904072D01*
X4556142Y19885024D01*
X4403761Y19885024D01*
X4860904Y19923120D02*
X4822809Y19942167D01*
X4803761Y19961215D01*
X4784714Y19999310D01*
X4784714Y20018358D01*
X4803761Y20056453D01*
X4822809Y20075500D01*
X4860904Y20094548D01*
X4937095Y20094548D01*
X4975190Y20075500D01*
X4994238Y20056453D01*
X5013285Y20018358D01*
X5013285Y19999310D01*
X4994238Y19961215D01*
X4975190Y19942167D01*
X4937095Y19923120D01*
X4860904Y19923120D01*
X4822809Y19904072D01*
X4803761Y19885024D01*
X4784714Y19846929D01*
X4784714Y19770739D01*
X4803761Y19732643D01*
X4822809Y19713596D01*
X4860904Y19694548D01*
X4937095Y19694548D01*
X4975190Y19713596D01*
X4994238Y19732643D01*
X5013285Y19770739D01*
X5013285Y19846929D01*
X4994238Y19885024D01*
X4975190Y19904072D01*
X4937095Y19923120D01*
G04 #@! TO.C,C1*
X3381357Y38999835D02*
X3400404Y38980787D01*
X3419452Y38923644D01*
X3419452Y38885549D01*
X3400404Y38828406D01*
X3362309Y38790311D01*
X3324214Y38771263D01*
X3248023Y38752216D01*
X3190880Y38752216D01*
X3114690Y38771263D01*
X3076595Y38790311D01*
X3038500Y38828406D01*
X3019452Y38885549D01*
X3019452Y38923644D01*
X3038500Y38980787D01*
X3057547Y38999835D01*
X3419452Y39380787D02*
X3419452Y39152216D01*
X3419452Y39266501D02*
X3019452Y39266501D01*
X3076595Y39228406D01*
X3114690Y39190311D01*
X3133738Y39152216D01*
G04 #@! TO.C,R7*
X4816452Y38999834D02*
X4625976Y38866500D01*
X4816452Y38771262D02*
X4416452Y38771262D01*
X4416452Y38923643D01*
X4435500Y38961739D01*
X4454547Y38980786D01*
X4492642Y38999834D01*
X4549785Y38999834D01*
X4587880Y38980786D01*
X4606928Y38961739D01*
X4625976Y38923643D01*
X4625976Y38771262D01*
X4416452Y39133167D02*
X4416452Y39399834D01*
X4816452Y39228405D01*
G04 #@! TO.C,C9*
X15744833Y26717643D02*
X15725785Y26698596D01*
X15668642Y26679548D01*
X15630547Y26679548D01*
X15573404Y26698596D01*
X15535309Y26736691D01*
X15516261Y26774786D01*
X15497214Y26850977D01*
X15497214Y26908120D01*
X15516261Y26984310D01*
X15535309Y27022405D01*
X15573404Y27060500D01*
X15630547Y27079548D01*
X15668642Y27079548D01*
X15725785Y27060500D01*
X15744833Y27041453D01*
X15935309Y26679548D02*
X16011500Y26679548D01*
X16049595Y26698596D01*
X16068642Y26717643D01*
X16106738Y26774786D01*
X16125785Y26850977D01*
X16125785Y27003358D01*
X16106738Y27041453D01*
X16087690Y27060500D01*
X16049595Y27079548D01*
X15973404Y27079548D01*
X15935309Y27060500D01*
X15916261Y27041453D01*
X15897214Y27003358D01*
X15897214Y26908120D01*
X15916261Y26870024D01*
X15935309Y26850977D01*
X15973404Y26831929D01*
X16049595Y26831929D01*
X16087690Y26850977D01*
X16106738Y26870024D01*
X16125785Y26908120D01*
G04 #@! TO.C,U3*
D14*
X13696190Y48577548D02*
X14100952Y48577548D01*
X14148571Y48601358D01*
X14172380Y48625167D01*
X14196190Y48672786D01*
X14196190Y48768024D01*
X14172380Y48815643D01*
X14148571Y48839453D01*
X14100952Y48863262D01*
X13696190Y48863262D01*
X13696190Y49053739D02*
X13696190Y49363262D01*
X13886666Y49196596D01*
X13886666Y49268024D01*
X13910476Y49315643D01*
X13934285Y49339453D01*
X13981904Y49363262D01*
X14100952Y49363262D01*
X14148571Y49339453D01*
X14172380Y49315643D01*
X14196190Y49268024D01*
X14196190Y49125167D01*
X14172380Y49077548D01*
X14148571Y49053739D01*
G04 #@! TO.C,U1*
D15*
X4025976Y47491596D02*
X4025976Y46843977D01*
X4064071Y46767786D01*
X4102166Y46729691D01*
X4178357Y46691596D01*
X4330738Y46691596D01*
X4406928Y46729691D01*
X4445023Y46767786D01*
X4483119Y46843977D01*
X4483119Y47491596D01*
X5283119Y46691596D02*
X4825976Y46691596D01*
X5054547Y46691596D02*
X5054547Y47491596D01*
X4978357Y47377310D01*
X4902166Y47301120D01*
X4825976Y47263024D01*
G04 #@! TO.C,Y2*
D12*
X9683809Y22883810D02*
X9683809Y22407620D01*
X9350476Y23407620D02*
X9683809Y22883810D01*
X10017142Y23407620D01*
X10302857Y23312381D02*
X10350476Y23360000D01*
X10445714Y23407620D01*
X10683809Y23407620D01*
X10779047Y23360000D01*
X10826666Y23312381D01*
X10874285Y23217143D01*
X10874285Y23121905D01*
X10826666Y22979048D01*
X10255238Y22407620D01*
X10874285Y22407620D01*
G04 #@! TO.C,Y1*
D16*
X4658514Y23591886D02*
X4944228Y23591886D01*
X4344228Y23391886D02*
X4658514Y23591886D01*
X4344228Y23791886D01*
X4944228Y24306172D02*
X4944228Y23963315D01*
X4944228Y24134743D02*
X4344228Y24134743D01*
X4429942Y24077600D01*
X4487085Y24020458D01*
X4515657Y23963315D01*
G04 #@! TO.C,R6*
D13*
X13198452Y23618834D02*
X13007976Y23485500D01*
X13198452Y23390262D02*
X12798452Y23390262D01*
X12798452Y23542643D01*
X12817500Y23580739D01*
X12836547Y23599786D01*
X12874642Y23618834D01*
X12931785Y23618834D01*
X12969880Y23599786D01*
X12988928Y23580739D01*
X13007976Y23542643D01*
X13007976Y23390262D01*
X12798452Y23961691D02*
X12798452Y23885500D01*
X12817500Y23847405D01*
X12836547Y23828358D01*
X12893690Y23790262D01*
X12969880Y23771215D01*
X13122261Y23771215D01*
X13160357Y23790262D01*
X13179404Y23809310D01*
X13198452Y23847405D01*
X13198452Y23923596D01*
X13179404Y23961691D01*
X13160357Y23980739D01*
X13122261Y23999786D01*
X13027023Y23999786D01*
X12988928Y23980739D01*
X12969880Y23961691D01*
X12950833Y23923596D01*
X12950833Y23847405D01*
X12969880Y23809310D01*
X12988928Y23790262D01*
X13027023Y23771215D01*
G04 #@! TO.C,R1*
X6988152Y23961734D02*
X6797676Y23828400D01*
X6988152Y23733162D02*
X6588152Y23733162D01*
X6588152Y23885543D01*
X6607200Y23923639D01*
X6626247Y23942686D01*
X6664342Y23961734D01*
X6721485Y23961734D01*
X6759580Y23942686D01*
X6778628Y23923639D01*
X6797676Y23885543D01*
X6797676Y23733162D01*
X6988152Y24342686D02*
X6988152Y24114115D01*
X6988152Y24228400D02*
X6588152Y24228400D01*
X6645295Y24190305D01*
X6683390Y24152210D01*
X6702438Y24114115D01*
G04 #@! TO.C,SW2*
D12*
X5016666Y13565239D02*
X5159523Y13517620D01*
X5397619Y13517620D01*
X5492857Y13565239D01*
X5540476Y13612858D01*
X5588095Y13708096D01*
X5588095Y13803334D01*
X5540476Y13898572D01*
X5492857Y13946191D01*
X5397619Y13993810D01*
X5207142Y14041429D01*
X5111904Y14089048D01*
X5064285Y14136667D01*
X5016666Y14231905D01*
X5016666Y14327143D01*
X5064285Y14422381D01*
X5111904Y14470000D01*
X5207142Y14517620D01*
X5445238Y14517620D01*
X5588095Y14470000D01*
X5921428Y14517620D02*
X6159523Y13517620D01*
X6350000Y14231905D01*
X6540476Y13517620D01*
X6778571Y14517620D01*
X7111904Y14422381D02*
X7159523Y14470000D01*
X7254761Y14517620D01*
X7492857Y14517620D01*
X7588095Y14470000D01*
X7635714Y14422381D01*
X7683333Y14327143D01*
X7683333Y14231905D01*
X7635714Y14089048D01*
X7064285Y13517620D01*
X7683333Y13517620D01*
G04 #@! TO.C,SW1*
X12636666Y13565239D02*
X12779523Y13517620D01*
X13017619Y13517620D01*
X13112857Y13565239D01*
X13160476Y13612858D01*
X13208095Y13708096D01*
X13208095Y13803334D01*
X13160476Y13898572D01*
X13112857Y13946191D01*
X13017619Y13993810D01*
X12827142Y14041429D01*
X12731904Y14089048D01*
X12684285Y14136667D01*
X12636666Y14231905D01*
X12636666Y14327143D01*
X12684285Y14422381D01*
X12731904Y14470000D01*
X12827142Y14517620D01*
X13065238Y14517620D01*
X13208095Y14470000D01*
X13541428Y14517620D02*
X13779523Y13517620D01*
X13970000Y14231905D01*
X14160476Y13517620D01*
X14398571Y14517620D01*
X15303333Y13517620D02*
X14731904Y13517620D01*
X15017619Y13517620D02*
X15017619Y14517620D01*
X14922380Y14374762D01*
X14827142Y14279524D01*
X14731904Y14231905D01*
G04 #@! TO.C,C4*
D13*
X7997833Y20812143D02*
X7978785Y20793096D01*
X7921642Y20774048D01*
X7883547Y20774048D01*
X7826404Y20793096D01*
X7788309Y20831191D01*
X7769261Y20869286D01*
X7750214Y20945477D01*
X7750214Y21002620D01*
X7769261Y21078810D01*
X7788309Y21116905D01*
X7826404Y21155000D01*
X7883547Y21174048D01*
X7921642Y21174048D01*
X7978785Y21155000D01*
X7997833Y21135953D01*
X8340690Y21040715D02*
X8340690Y20774048D01*
X8245452Y21193096D02*
X8150214Y20907381D01*
X8397833Y20907381D01*
G04 #@! TO.C,C5*
X10760057Y44688134D02*
X10779104Y44669086D01*
X10798152Y44611943D01*
X10798152Y44573848D01*
X10779104Y44516705D01*
X10741009Y44478610D01*
X10702914Y44459562D01*
X10626723Y44440515D01*
X10569580Y44440515D01*
X10493390Y44459562D01*
X10455295Y44478610D01*
X10417200Y44516705D01*
X10398152Y44573848D01*
X10398152Y44611943D01*
X10417200Y44669086D01*
X10436247Y44688134D01*
X10398152Y45050039D02*
X10398152Y44859562D01*
X10588628Y44840515D01*
X10569580Y44859562D01*
X10550533Y44897658D01*
X10550533Y44992896D01*
X10569580Y45030991D01*
X10588628Y45050039D01*
X10626723Y45069086D01*
X10721961Y45069086D01*
X10760057Y45050039D01*
X10779104Y45030991D01*
X10798152Y44992896D01*
X10798152Y44897658D01*
X10779104Y44859562D01*
X10760057Y44840515D01*
G04 #@! TO.C,C6*
X12379333Y20812143D02*
X12360285Y20793096D01*
X12303142Y20774048D01*
X12265047Y20774048D01*
X12207904Y20793096D01*
X12169809Y20831191D01*
X12150761Y20869286D01*
X12131714Y20945477D01*
X12131714Y21002620D01*
X12150761Y21078810D01*
X12169809Y21116905D01*
X12207904Y21155000D01*
X12265047Y21174048D01*
X12303142Y21174048D01*
X12360285Y21155000D01*
X12379333Y21135953D01*
X12722190Y21174048D02*
X12646000Y21174048D01*
X12607904Y21155000D01*
X12588857Y21135953D01*
X12550761Y21078810D01*
X12531714Y21002620D01*
X12531714Y20850239D01*
X12550761Y20812143D01*
X12569809Y20793096D01*
X12607904Y20774048D01*
X12684095Y20774048D01*
X12722190Y20793096D01*
X12741238Y20812143D01*
X12760285Y20850239D01*
X12760285Y20945477D01*
X12741238Y20983572D01*
X12722190Y21002620D01*
X12684095Y21021667D01*
X12607904Y21021667D01*
X12569809Y21002620D01*
X12550761Y20983572D01*
X12531714Y20945477D01*
G04 #@! TO.C,C8*
X8505833Y41640143D02*
X8486785Y41621096D01*
X8429642Y41602048D01*
X8391547Y41602048D01*
X8334404Y41621096D01*
X8296309Y41659191D01*
X8277261Y41697286D01*
X8258214Y41773477D01*
X8258214Y41830620D01*
X8277261Y41906810D01*
X8296309Y41944905D01*
X8334404Y41983000D01*
X8391547Y42002048D01*
X8429642Y42002048D01*
X8486785Y41983000D01*
X8505833Y41963953D01*
X8734404Y41830620D02*
X8696309Y41849667D01*
X8677261Y41868715D01*
X8658214Y41906810D01*
X8658214Y41925858D01*
X8677261Y41963953D01*
X8696309Y41983000D01*
X8734404Y42002048D01*
X8810595Y42002048D01*
X8848690Y41983000D01*
X8867738Y41963953D01*
X8886785Y41925858D01*
X8886785Y41906810D01*
X8867738Y41868715D01*
X8848690Y41849667D01*
X8810595Y41830620D01*
X8734404Y41830620D01*
X8696309Y41811572D01*
X8677261Y41792524D01*
X8658214Y41754429D01*
X8658214Y41678239D01*
X8677261Y41640143D01*
X8696309Y41621096D01*
X8734404Y41602048D01*
X8810595Y41602048D01*
X8848690Y41621096D01*
X8867738Y41640143D01*
X8886785Y41678239D01*
X8886785Y41754429D01*
X8867738Y41792524D01*
X8848690Y41811572D01*
X8810595Y41830620D01*
G04 #@! TO.C,C10*
X4060857Y26781143D02*
X4041809Y26762096D01*
X3984666Y26743048D01*
X3946571Y26743048D01*
X3889428Y26762096D01*
X3851333Y26800191D01*
X3832285Y26838286D01*
X3813238Y26914477D01*
X3813238Y26971620D01*
X3832285Y27047810D01*
X3851333Y27085905D01*
X3889428Y27124000D01*
X3946571Y27143048D01*
X3984666Y27143048D01*
X4041809Y27124000D01*
X4060857Y27104953D01*
X4441809Y26743048D02*
X4213238Y26743048D01*
X4327523Y26743048D02*
X4327523Y27143048D01*
X4289428Y27085905D01*
X4251333Y27047810D01*
X4213238Y27028762D01*
X4689428Y27143048D02*
X4727523Y27143048D01*
X4765619Y27124000D01*
X4784666Y27104953D01*
X4803714Y27066858D01*
X4822761Y26990667D01*
X4822761Y26895429D01*
X4803714Y26819239D01*
X4784666Y26781143D01*
X4765619Y26762096D01*
X4727523Y26743048D01*
X4689428Y26743048D01*
X4651333Y26762096D01*
X4632285Y26781143D01*
X4613238Y26819239D01*
X4594190Y26895429D01*
X4594190Y26990667D01*
X4613238Y27066858D01*
X4632285Y27104953D01*
X4651333Y27124000D01*
X4689428Y27143048D01*
G04 #@! TO.C,C3*
D16*
X11100571Y48367167D02*
X11124380Y48343358D01*
X11148190Y48271929D01*
X11148190Y48224310D01*
X11124380Y48152881D01*
X11076761Y48105262D01*
X11029142Y48081453D01*
X10933904Y48057643D01*
X10862476Y48057643D01*
X10767238Y48081453D01*
X10719619Y48105262D01*
X10672000Y48152881D01*
X10648190Y48224310D01*
X10648190Y48271929D01*
X10672000Y48343358D01*
X10695809Y48367167D01*
X10648190Y48533834D02*
X10648190Y48843358D01*
X10838666Y48676691D01*
X10838666Y48748120D01*
X10862476Y48795739D01*
X10886285Y48819548D01*
X10933904Y48843358D01*
X11052952Y48843358D01*
X11100571Y48819548D01*
X11124380Y48795739D01*
X11148190Y48748120D01*
X11148190Y48605262D01*
X11124380Y48557643D01*
X11100571Y48533834D01*
G04 #@! TO.C,C7*
X4933166Y41350429D02*
X4909357Y41326620D01*
X4837928Y41302810D01*
X4790309Y41302810D01*
X4718880Y41326620D01*
X4671261Y41374239D01*
X4647452Y41421858D01*
X4623642Y41517096D01*
X4623642Y41588524D01*
X4647452Y41683762D01*
X4671261Y41731381D01*
X4718880Y41779000D01*
X4790309Y41802810D01*
X4837928Y41802810D01*
X4909357Y41779000D01*
X4933166Y41755191D01*
X5099833Y41802810D02*
X5433166Y41802810D01*
X5218880Y41302810D01*
G04 #@! TO.C,C11*
X15355071Y40318572D02*
X15378880Y40294762D01*
X15402690Y40223334D01*
X15402690Y40175715D01*
X15378880Y40104286D01*
X15331261Y40056667D01*
X15283642Y40032858D01*
X15188404Y40009048D01*
X15116976Y40009048D01*
X15021738Y40032858D01*
X14974119Y40056667D01*
X14926500Y40104286D01*
X14902690Y40175715D01*
X14902690Y40223334D01*
X14926500Y40294762D01*
X14950309Y40318572D01*
X15402690Y40794762D02*
X15402690Y40509048D01*
X15402690Y40651905D02*
X14902690Y40651905D01*
X14974119Y40604286D01*
X15021738Y40556667D01*
X15045547Y40509048D01*
X15402690Y41270953D02*
X15402690Y40985239D01*
X15402690Y41128096D02*
X14902690Y41128096D01*
X14974119Y41080477D01*
X15021738Y41032858D01*
X15045547Y40985239D01*
G04 #@! TO.C,J2*
D12*
X9826666Y7469120D02*
X9826666Y6754834D01*
X9779047Y6611977D01*
X9683809Y6516739D01*
X9540952Y6469120D01*
X9445714Y6469120D01*
X10255238Y7373881D02*
X10302857Y7421500D01*
X10398095Y7469120D01*
X10636190Y7469120D01*
X10731428Y7421500D01*
X10779047Y7373881D01*
X10826666Y7278643D01*
X10826666Y7183405D01*
X10779047Y7040548D01*
X10207619Y6469120D01*
X10826666Y6469120D01*
G04 #@! TO.C,D3*
X3246380Y52919405D02*
X2246380Y52919405D01*
X2246380Y53157500D01*
X2294000Y53300358D01*
X2389238Y53395596D01*
X2484476Y53443215D01*
X2674952Y53490834D01*
X2817809Y53490834D01*
X3008285Y53443215D01*
X3103523Y53395596D01*
X3198761Y53300358D01*
X3246380Y53157500D01*
X3246380Y52919405D01*
X2246380Y53824167D02*
X2246380Y54443215D01*
X2627333Y54109881D01*
X2627333Y54252739D01*
X2674952Y54347977D01*
X2722571Y54395596D01*
X2817809Y54443215D01*
X3055904Y54443215D01*
X3151142Y54395596D01*
X3198761Y54347977D01*
X3246380Y54252739D01*
X3246380Y53967024D01*
X3198761Y53871786D01*
X3151142Y53824167D01*
G04 #@! TO.C,D2*
D13*
X15293952Y20659762D02*
X14893952Y20659762D01*
X14893952Y20755000D01*
X14913000Y20812143D01*
X14951095Y20850239D01*
X14989190Y20869286D01*
X15065380Y20888334D01*
X15122523Y20888334D01*
X15198714Y20869286D01*
X15236809Y20850239D01*
X15274904Y20812143D01*
X15293952Y20755000D01*
X15293952Y20659762D01*
X14932047Y21040715D02*
X14913000Y21059762D01*
X14893952Y21097858D01*
X14893952Y21193096D01*
X14913000Y21231191D01*
X14932047Y21250239D01*
X14970142Y21269286D01*
X15008238Y21269286D01*
X15065380Y21250239D01*
X15293952Y21021667D01*
X15293952Y21269286D01*
G04 #@! TO.C,D1*
X16817952Y20659762D02*
X16417952Y20659762D01*
X16417952Y20755000D01*
X16437000Y20812143D01*
X16475095Y20850239D01*
X16513190Y20869286D01*
X16589380Y20888334D01*
X16646523Y20888334D01*
X16722714Y20869286D01*
X16760809Y20850239D01*
X16798904Y20812143D01*
X16817952Y20755000D01*
X16817952Y20659762D01*
X16817952Y21269286D02*
X16817952Y21040715D01*
X16817952Y21155000D02*
X16417952Y21155000D01*
X16475095Y21116905D01*
X16513190Y21078810D01*
X16532238Y21040715D01*
G04 #@! TO.C,U4*
D12*
X9234026Y32868478D02*
X9806446Y32296058D01*
X9907461Y32262386D01*
X9974805Y32262386D01*
X10075820Y32296058D01*
X10210507Y32430745D01*
X10244179Y32531760D01*
X10244179Y32599104D01*
X10210507Y32700119D01*
X9638087Y33272539D01*
X10513553Y33676600D02*
X10984957Y33205195D01*
X10075820Y33777615D02*
X10412538Y33104180D01*
X10850270Y33541913D01*
G04 #@! TO.C,U2*
D14*
X7092190Y46609048D02*
X7496952Y46609048D01*
X7544571Y46632858D01*
X7568380Y46656667D01*
X7592190Y46704286D01*
X7592190Y46799524D01*
X7568380Y46847143D01*
X7544571Y46870953D01*
X7496952Y46894762D01*
X7092190Y46894762D01*
X7139809Y47109048D02*
X7116000Y47132858D01*
X7092190Y47180477D01*
X7092190Y47299524D01*
X7116000Y47347143D01*
X7139809Y47370953D01*
X7187428Y47394762D01*
X7235047Y47394762D01*
X7306476Y47370953D01*
X7592190Y47085239D01*
X7592190Y47394762D01*
G04 #@! TO.C,R4*
D13*
X16500452Y57781834D02*
X16309976Y57648500D01*
X16500452Y57553262D02*
X16100452Y57553262D01*
X16100452Y57705643D01*
X16119500Y57743739D01*
X16138547Y57762786D01*
X16176642Y57781834D01*
X16233785Y57781834D01*
X16271880Y57762786D01*
X16290928Y57743739D01*
X16309976Y57705643D01*
X16309976Y57553262D01*
X16233785Y58124691D02*
X16500452Y58124691D01*
X16081404Y58029453D02*
X16367119Y57934215D01*
X16367119Y58181834D01*
G04 #@! TO.C,R3*
X15293952Y24253834D02*
X15103476Y24120500D01*
X15293952Y24025262D02*
X14893952Y24025262D01*
X14893952Y24177643D01*
X14913000Y24215739D01*
X14932047Y24234786D01*
X14970142Y24253834D01*
X15027285Y24253834D01*
X15065380Y24234786D01*
X15084428Y24215739D01*
X15103476Y24177643D01*
X15103476Y24025262D01*
X14893952Y24387167D02*
X14893952Y24634786D01*
X15046333Y24501453D01*
X15046333Y24558596D01*
X15065380Y24596691D01*
X15084428Y24615739D01*
X15122523Y24634786D01*
X15217761Y24634786D01*
X15255857Y24615739D01*
X15274904Y24596691D01*
X15293952Y24558596D01*
X15293952Y24444310D01*
X15274904Y24406215D01*
X15255857Y24387167D01*
G04 #@! TO.C,R2*
X16817952Y24253834D02*
X16627476Y24120500D01*
X16817952Y24025262D02*
X16417952Y24025262D01*
X16417952Y24177643D01*
X16437000Y24215739D01*
X16456047Y24234786D01*
X16494142Y24253834D01*
X16551285Y24253834D01*
X16589380Y24234786D01*
X16608428Y24215739D01*
X16627476Y24177643D01*
X16627476Y24025262D01*
X16456047Y24406215D02*
X16437000Y24425262D01*
X16417952Y24463358D01*
X16417952Y24558596D01*
X16437000Y24596691D01*
X16456047Y24615739D01*
X16494142Y24634786D01*
X16532238Y24634786D01*
X16589380Y24615739D01*
X16817952Y24387167D01*
X16817952Y24634786D01*
G04 #@! TO.C,R5*
X16500452Y53971834D02*
X16309976Y53838500D01*
X16500452Y53743262D02*
X16100452Y53743262D01*
X16100452Y53895643D01*
X16119500Y53933739D01*
X16138547Y53952786D01*
X16176642Y53971834D01*
X16233785Y53971834D01*
X16271880Y53952786D01*
X16290928Y53933739D01*
X16309976Y53895643D01*
X16309976Y53743262D01*
X16100452Y54333739D02*
X16100452Y54143262D01*
X16290928Y54124215D01*
X16271880Y54143262D01*
X16252833Y54181358D01*
X16252833Y54276596D01*
X16271880Y54314691D01*
X16290928Y54333739D01*
X16329023Y54352786D01*
X16424261Y54352786D01*
X16462357Y54333739D01*
X16481404Y54314691D01*
X16500452Y54276596D01*
X16500452Y54181358D01*
X16481404Y54143262D01*
X16462357Y54124215D01*
G04 #@! TD*
M02*
