M48
; DRILL file {KiCad 5.1.8-db9833491~88~ubuntu20.04.1} date Sun Jan 17 16:25:29 2021
; FORMAT={-:-/ absolute / metric / decimal}
; #@! TF.CreationDate,2021-01-17T16:25:29+01:00
; #@! TF.GenerationSoftware,Kicad,Pcbnew,5.1.8-db9833491~88~ubuntu20.04.1
FMAT,2
METRIC
T1C0.300
T2C0.600
T3C1.000
T4C1.016
T5C0.500
T6C0.650
%
G90
G05
T1
X0.675Y9.2
X0.686Y0.686
X0.711Y40.31
X0.737Y56.413
X0.737Y48.463
X0.737Y5.461
X0.762Y43.231
X0.787Y45.999
X1.12Y26.635
X1.143Y27.686
X1.52Y32.135
X1.538Y28.988
X3.429Y24.13
X3.531Y52.07
X3.937Y50.013
X3.995Y26.66
X4.14Y40.335
X4.32Y54.61
X4.343Y58.953
X4.645Y39.285
X4.72Y28.335
X4.953Y7.429
X5.025Y16.1
X5.17Y56.01
X5.232Y52.476
X5.461Y24.955
X5.763Y9.779
X5.845Y30.61
X5.92Y35.06
X6.096Y22.924
X6.12Y48.435
X6.12Y46.91
X6.145Y31.385
X6.413Y37.91
X6.413Y13.208
X6.667Y36.957
X6.695Y35.085
X6.794Y14.668
X6.82Y31.91
X6.85Y16.1
X6.934Y52.07
X7.02Y43.335
X7.063Y9.779
X7.145Y30.035
X7.625Y14.355
X7.625Y13.155
X7.67Y32.71
X7.683Y17.907
X7.747Y58.953
X7.845Y24.61
X7.874Y51.562
X7.874Y7.429
X7.92Y25.335
X8.001Y23.368
X8.001Y21.653
X8.128Y55.118
X8.179Y52.273
X8.27Y31.11
X8.275Y16.475
X8.275Y15.225
X8.382Y19.939
X8.509Y13.081
X8.585Y49.632
X8.927Y55.082
X9.042Y48.666
X9.12Y34.31
X9.12Y38.36
X9.525Y11.493
X9.652Y23.304
X9.715Y19.939
X9.734Y30.618
X9.779Y36.893
X9.825Y33.325
X9.875Y32.3
X10.095Y38.56
X10.15Y16.5
X10.16Y7.417
X10.2Y15.0
X10.27Y45.635
X10.395Y55.385
X10.427Y46.735
X10.43Y27.125
X10.445Y30.985
X10.57Y41.41
X10.604Y36.639
X10.62Y35.635
X10.625Y37.5
X10.72Y33.835
X11.227Y35.052
X11.27Y19.908
X11.327Y46.735
X11.42Y54.91
X11.65Y29.975
X11.913Y52.299
X12.152Y46.735
X12.257Y55.04
X12.344Y13.868
X12.383Y11.493
X12.548Y58.979
X12.548Y16.916
X12.55Y30.375
X12.7Y43.917
X12.77Y17.935
X12.952Y46.735
X13.132Y50.622
X13.157Y51.511
X13.17Y32.785
X13.195Y19.908
X13.411Y36.83
X13.5Y41.904
X13.7Y31.425
X13.767Y33.985
X13.919Y47.396
X13.97Y44.374
X14.034Y52.324
X14.045Y12.21
X14.065Y37.49
X14.12Y13.135
X14.145Y18.46
X14.249Y42.393
X14.345Y35.91
X14.478Y34.341
X14.495Y33.485
X14.533Y30.298
X14.57Y31.11
X14.57Y17.16
X14.595Y32.085
X14.859Y19.875
X15.24Y42.393
X15.27Y40.01
X15.4Y55.95
X15.494Y28.702
X15.494Y27.749
X15.723Y51.943
X16.002Y47.193
X16.22Y41.435
X16.4Y55.95
X16.447Y13.906
X16.637Y44.399
X16.891Y3.15
X17.195Y36.835
X18.995Y21.635
X19.228Y18.009
X19.27Y49.41
X19.304Y31.902
X19.355Y0.635
X19.38Y15.24
X19.431Y9.08
X19.482Y48.031
X19.558Y5.359
X19.57Y33.135
X19.595Y58.51
X19.634Y35.484
T3
X17.78Y58.42
X17.78Y55.88
X17.78Y53.34
X17.78Y50.8
X17.78Y48.26
X17.78Y45.72
X17.78Y43.18
X17.78Y40.64
X17.78Y38.1
X17.78Y35.56
X17.78Y33.02
X17.78Y30.48
X17.78Y27.94
X17.78Y25.4
X17.78Y22.86
X17.78Y20.32
X17.78Y17.78
X17.78Y15.24
X17.78Y12.7
X17.78Y10.16
X2.54Y58.42
X2.54Y55.88
X2.54Y53.34
X2.54Y50.8
X2.54Y48.26
X2.54Y45.72
X2.54Y43.18
X2.54Y40.64
X2.54Y38.1
X2.54Y35.56
X2.54Y33.02
X2.54Y30.48
X2.54Y27.94
X2.54Y25.4
X2.54Y22.86
X2.54Y20.32
X2.54Y17.78
X2.54Y15.24
X2.54Y12.7
X2.54Y10.16
T4
X5.08Y5.08
X5.08Y2.54
X7.62Y5.08
X7.62Y2.54
X10.16Y5.08
X10.16Y2.54
X12.7Y5.08
X12.7Y2.54
X15.24Y5.08
X15.24Y2.54
T5
X14.66Y8.255
X10.16Y8.255
X13.16Y8.255
X5.66Y8.255
X7.16Y8.255
X11.66Y8.255
X8.66Y8.255
X4.16Y8.255
X16.16Y8.255
T6
X7.27Y54.812
X13.05Y54.812
T2
G00X5.84Y58.062
M15
G01X5.84Y58.862
M16
G05
G00X5.84Y53.762
M15
G01X5.84Y54.862
M16
G05
G00X14.48Y58.062
M15
G01X14.48Y58.862
M16
G05
G00X14.48Y53.762
M15
G01X14.48Y54.862
M16
G05
T0
M30
