G04 #@! TF.GenerationSoftware,KiCad,Pcbnew,5.0.2-bee76a0~70~ubuntu18.04.1*
G04 #@! TF.CreationDate,2019-07-29T11:14:37+02:00*
G04 #@! TF.ProjectId,Pic32MxRedFox,50696333-324d-4785-9265-64466f782e6b,rev?*
G04 #@! TF.SameCoordinates,PX5faea10PY8eeaea0*
G04 #@! TF.FileFunction,Legend,Bot*
G04 #@! TF.FilePolarity,Positive*
%FSLAX46Y46*%
G04 Gerber Fmt 4.6, Leading zero omitted, Abs format (unit mm)*
G04 Created by KiCad (PCBNEW 5.0.2-bee76a0~70~ubuntu18.04.1) date pon 29 jul 2019 11:14:37 CEST*
%MOMM*%
%LPD*%
G01*
G04 APERTURE LIST*
%ADD10C,0.120000*%
%ADD11C,0.150000*%
%ADD12C,0.300000*%
%ADD13C,0.010000*%
G04 APERTURE END LIST*
D10*
X11009190Y57904120D02*
X11342523Y58380310D01*
X11580619Y57904120D02*
X11580619Y58904120D01*
X11199666Y58904120D01*
X11104428Y58856500D01*
X11056809Y58808881D01*
X11009190Y58713643D01*
X11009190Y58570786D01*
X11056809Y58475548D01*
X11104428Y58427929D01*
X11199666Y58380310D01*
X11580619Y58380310D01*
X10199666Y57951739D02*
X10294904Y57904120D01*
X10485380Y57904120D01*
X10580619Y57951739D01*
X10628238Y58046977D01*
X10628238Y58427929D01*
X10580619Y58523167D01*
X10485380Y58570786D01*
X10294904Y58570786D01*
X10199666Y58523167D01*
X10152047Y58427929D01*
X10152047Y58332691D01*
X10628238Y58237453D01*
X9818714Y58570786D02*
X9580619Y57904120D01*
X9342523Y58570786D01*
X8437761Y57904120D02*
X9009190Y57904120D01*
X8723476Y57904120D02*
X8723476Y58904120D01*
X8818714Y58761262D01*
X8913952Y58666024D01*
X9009190Y58618405D01*
D11*
X10286928Y53331620D02*
X10620261Y53807810D01*
X10858357Y53331620D02*
X10858357Y54331620D01*
X10477404Y54331620D01*
X10382166Y54284000D01*
X10334547Y54236381D01*
X10286928Y54141143D01*
X10286928Y53998286D01*
X10334547Y53903048D01*
X10382166Y53855429D01*
X10477404Y53807810D01*
X10858357Y53807810D01*
X9477404Y53379239D02*
X9572642Y53331620D01*
X9763119Y53331620D01*
X9858357Y53379239D01*
X9905976Y53474477D01*
X9905976Y53855429D01*
X9858357Y53950667D01*
X9763119Y53998286D01*
X9572642Y53998286D01*
X9477404Y53950667D01*
X9429785Y53855429D01*
X9429785Y53760191D01*
X9905976Y53664953D01*
X8572642Y53331620D02*
X8572642Y54331620D01*
X8572642Y53379239D02*
X8667880Y53331620D01*
X8858357Y53331620D01*
X8953595Y53379239D01*
X9001214Y53426858D01*
X9048833Y53522096D01*
X9048833Y53807810D01*
X9001214Y53903048D01*
X8953595Y53950667D01*
X8858357Y53998286D01*
X8667880Y53998286D01*
X8572642Y53950667D01*
X10429785Y52205429D02*
X10763119Y52205429D01*
X10763119Y51681620D02*
X10763119Y52681620D01*
X10286928Y52681620D01*
X9763119Y51681620D02*
X9858357Y51729239D01*
X9905976Y51776858D01*
X9953595Y51872096D01*
X9953595Y52157810D01*
X9905976Y52253048D01*
X9858357Y52300667D01*
X9763119Y52348286D01*
X9620261Y52348286D01*
X9525023Y52300667D01*
X9477404Y52253048D01*
X9429785Y52157810D01*
X9429785Y51872096D01*
X9477404Y51776858D01*
X9525023Y51729239D01*
X9620261Y51681620D01*
X9763119Y51681620D01*
X9096452Y51681620D02*
X8572642Y52348286D01*
X9096452Y52348286D02*
X8572642Y51681620D01*
D12*
X16450071Y59336429D02*
X17164357Y59336429D01*
X17235785Y58622143D01*
X17164357Y58693572D01*
X17021500Y58765000D01*
X16664357Y58765000D01*
X16521500Y58693572D01*
X16450071Y58622143D01*
X16378642Y58479286D01*
X16378642Y58122143D01*
X16450071Y57979286D01*
X16521500Y57907858D01*
X16664357Y57836429D01*
X17021500Y57836429D01*
X17164357Y57907858D01*
X17235785Y57979286D01*
X15878642Y58836429D02*
X15521500Y57836429D01*
X15164357Y58836429D01*
X16378642Y56715000D02*
X16521500Y56786429D01*
X16735785Y56786429D01*
X16950071Y56715000D01*
X17092928Y56572143D01*
X17164357Y56429286D01*
X17235785Y56143572D01*
X17235785Y55929286D01*
X17164357Y55643572D01*
X17092928Y55500715D01*
X16950071Y55357858D01*
X16735785Y55286429D01*
X16592928Y55286429D01*
X16378642Y55357858D01*
X16307214Y55429286D01*
X16307214Y55929286D01*
X16592928Y55929286D01*
X15664357Y55286429D02*
X15664357Y56786429D01*
X14807214Y55286429D01*
X14807214Y56786429D01*
X14092928Y55286429D02*
X14092928Y56786429D01*
X13735785Y56786429D01*
X13521500Y56715000D01*
X13378642Y56572143D01*
X13307214Y56429286D01*
X13235785Y56143572D01*
X13235785Y55929286D01*
X13307214Y55643572D01*
X13378642Y55500715D01*
X13521500Y55357858D01*
X13735785Y55286429D01*
X14092928Y55286429D01*
X16307214Y52736429D02*
X16807214Y53450715D01*
X17164357Y52736429D02*
X17164357Y54236429D01*
X16592928Y54236429D01*
X16450071Y54165000D01*
X16378642Y54093572D01*
X16307214Y53950715D01*
X16307214Y53736429D01*
X16378642Y53593572D01*
X16450071Y53522143D01*
X16592928Y53450715D01*
X17164357Y53450715D01*
X15164357Y53522143D02*
X14950071Y53450715D01*
X14878642Y53379286D01*
X14807214Y53236429D01*
X14807214Y53022143D01*
X14878642Y52879286D01*
X14950071Y52807858D01*
X15092928Y52736429D01*
X15664357Y52736429D01*
X15664357Y54236429D01*
X15164357Y54236429D01*
X15021500Y54165000D01*
X14950071Y54093572D01*
X14878642Y53950715D01*
X14878642Y53807858D01*
X14950071Y53665000D01*
X15021500Y53593572D01*
X15164357Y53522143D01*
X15664357Y53522143D01*
X13378642Y52736429D02*
X14235785Y52736429D01*
X13807214Y52736429D02*
X13807214Y54236429D01*
X13950071Y54022143D01*
X14092928Y53879286D01*
X14235785Y53807858D01*
X11950071Y52736429D02*
X12807214Y52736429D01*
X12378642Y52736429D02*
X12378642Y54236429D01*
X12521500Y54022143D01*
X12664357Y53879286D01*
X12807214Y53807858D01*
X16307214Y50186429D02*
X16807214Y50900715D01*
X17164357Y50186429D02*
X17164357Y51686429D01*
X16592928Y51686429D01*
X16450071Y51615000D01*
X16378642Y51543572D01*
X16307214Y51400715D01*
X16307214Y51186429D01*
X16378642Y51043572D01*
X16450071Y50972143D01*
X16592928Y50900715D01*
X17164357Y50900715D01*
X15164357Y50972143D02*
X14950071Y50900715D01*
X14878642Y50829286D01*
X14807214Y50686429D01*
X14807214Y50472143D01*
X14878642Y50329286D01*
X14950071Y50257858D01*
X15092928Y50186429D01*
X15664357Y50186429D01*
X15664357Y51686429D01*
X15164357Y51686429D01*
X15021500Y51615000D01*
X14950071Y51543572D01*
X14878642Y51400715D01*
X14878642Y51257858D01*
X14950071Y51115000D01*
X15021500Y51043572D01*
X15164357Y50972143D01*
X15664357Y50972143D01*
X13378642Y50186429D02*
X14235785Y50186429D01*
X13807214Y50186429D02*
X13807214Y51686429D01*
X13950071Y51472143D01*
X14092928Y51329286D01*
X14235785Y51257858D01*
X12450071Y51686429D02*
X12307214Y51686429D01*
X12164357Y51615000D01*
X12092928Y51543572D01*
X12021500Y51400715D01*
X11950071Y51115000D01*
X11950071Y50757858D01*
X12021500Y50472143D01*
X12092928Y50329286D01*
X12164357Y50257858D01*
X12307214Y50186429D01*
X12450071Y50186429D01*
X12592928Y50257858D01*
X12664357Y50329286D01*
X12735785Y50472143D01*
X12807214Y50757858D01*
X12807214Y51115000D01*
X12735785Y51400715D01*
X12664357Y51543572D01*
X12592928Y51615000D01*
X12450071Y51686429D01*
X16307214Y47636429D02*
X16807214Y48350715D01*
X17164357Y47636429D02*
X17164357Y49136429D01*
X16592928Y49136429D01*
X16450071Y49065000D01*
X16378642Y48993572D01*
X16307214Y48850715D01*
X16307214Y48636429D01*
X16378642Y48493572D01*
X16450071Y48422143D01*
X16592928Y48350715D01*
X17164357Y48350715D01*
X15164357Y48422143D02*
X14950071Y48350715D01*
X14878642Y48279286D01*
X14807214Y48136429D01*
X14807214Y47922143D01*
X14878642Y47779286D01*
X14950071Y47707858D01*
X15092928Y47636429D01*
X15664357Y47636429D01*
X15664357Y49136429D01*
X15164357Y49136429D01*
X15021500Y49065000D01*
X14950071Y48993572D01*
X14878642Y48850715D01*
X14878642Y48707858D01*
X14950071Y48565000D01*
X15021500Y48493572D01*
X15164357Y48422143D01*
X15664357Y48422143D01*
X14307214Y49136429D02*
X13307214Y49136429D01*
X13950071Y47636429D01*
X17235785Y45157858D02*
X17021500Y45086429D01*
X16664357Y45086429D01*
X16521500Y45157858D01*
X16450071Y45229286D01*
X16378642Y45372143D01*
X16378642Y45515000D01*
X16450071Y45657858D01*
X16521500Y45729286D01*
X16664357Y45800715D01*
X16950071Y45872143D01*
X17092928Y45943572D01*
X17164357Y46015000D01*
X17235785Y46157858D01*
X17235785Y46300715D01*
X17164357Y46443572D01*
X17092928Y46515000D01*
X16950071Y46586429D01*
X16592928Y46586429D01*
X16378642Y46515000D01*
X15735785Y45086429D02*
X15735785Y46586429D01*
X15378642Y46586429D01*
X15164357Y46515000D01*
X15021500Y46372143D01*
X14950071Y46229286D01*
X14878642Y45943572D01*
X14878642Y45729286D01*
X14950071Y45443572D01*
X15021500Y45300715D01*
X15164357Y45157858D01*
X15378642Y45086429D01*
X15735785Y45086429D01*
X14235785Y45086429D02*
X14235785Y46586429D01*
X12735785Y45086429D02*
X13592928Y45086429D01*
X13164357Y45086429D02*
X13164357Y46586429D01*
X13307214Y46372143D01*
X13450071Y46229286D01*
X13592928Y46157858D01*
X17235785Y42607858D02*
X17021500Y42536429D01*
X16664357Y42536429D01*
X16521500Y42607858D01*
X16450071Y42679286D01*
X16378642Y42822143D01*
X16378642Y42965000D01*
X16450071Y43107858D01*
X16521500Y43179286D01*
X16664357Y43250715D01*
X16950071Y43322143D01*
X17092928Y43393572D01*
X17164357Y43465000D01*
X17235785Y43607858D01*
X17235785Y43750715D01*
X17164357Y43893572D01*
X17092928Y43965000D01*
X16950071Y44036429D01*
X16592928Y44036429D01*
X16378642Y43965000D01*
X15735785Y42536429D02*
X15735785Y44036429D01*
X15378642Y44036429D01*
X15164357Y43965000D01*
X15021500Y43822143D01*
X14950071Y43679286D01*
X14878642Y43393572D01*
X14878642Y43179286D01*
X14950071Y42893572D01*
X15021500Y42750715D01*
X15164357Y42607858D01*
X15378642Y42536429D01*
X15735785Y42536429D01*
X13950071Y44036429D02*
X13664357Y44036429D01*
X13521500Y43965000D01*
X13378642Y43822143D01*
X13307214Y43536429D01*
X13307214Y43036429D01*
X13378642Y42750715D01*
X13521500Y42607858D01*
X13664357Y42536429D01*
X13950071Y42536429D01*
X14092928Y42607858D01*
X14235785Y42750715D01*
X14307214Y43036429D01*
X14307214Y43536429D01*
X14235785Y43822143D01*
X14092928Y43965000D01*
X13950071Y44036429D01*
X11878642Y42536429D02*
X12735785Y42536429D01*
X12307214Y42536429D02*
X12307214Y44036429D01*
X12450071Y43822143D01*
X12592928Y43679286D01*
X12735785Y43607858D01*
X17235785Y40057858D02*
X17021500Y39986429D01*
X16664357Y39986429D01*
X16521500Y40057858D01*
X16450071Y40129286D01*
X16378642Y40272143D01*
X16378642Y40415000D01*
X16450071Y40557858D01*
X16521500Y40629286D01*
X16664357Y40700715D01*
X16950071Y40772143D01*
X17092928Y40843572D01*
X17164357Y40915000D01*
X17235785Y41057858D01*
X17235785Y41200715D01*
X17164357Y41343572D01*
X17092928Y41415000D01*
X16950071Y41486429D01*
X16592928Y41486429D01*
X16378642Y41415000D01*
X14878642Y40129286D02*
X14950071Y40057858D01*
X15164357Y39986429D01*
X15307214Y39986429D01*
X15521500Y40057858D01*
X15664357Y40200715D01*
X15735785Y40343572D01*
X15807214Y40629286D01*
X15807214Y40843572D01*
X15735785Y41129286D01*
X15664357Y41272143D01*
X15521500Y41415000D01*
X15307214Y41486429D01*
X15164357Y41486429D01*
X14950071Y41415000D01*
X14878642Y41343572D01*
X14235785Y39986429D02*
X14235785Y41486429D01*
X13378642Y39986429D02*
X14021500Y40843572D01*
X13378642Y41486429D02*
X14235785Y40629286D01*
X11950071Y39986429D02*
X12807214Y39986429D01*
X12378642Y39986429D02*
X12378642Y41486429D01*
X12521500Y41272143D01*
X12664357Y41129286D01*
X12807214Y41057858D01*
X17164357Y38936429D02*
X17164357Y37722143D01*
X17092928Y37579286D01*
X17021500Y37507858D01*
X16878642Y37436429D01*
X16592928Y37436429D01*
X16450071Y37507858D01*
X16378642Y37579286D01*
X16307214Y37722143D01*
X16307214Y38936429D01*
X15664357Y37865000D02*
X14950071Y37865000D01*
X15807214Y37436429D02*
X15307214Y38936429D01*
X14807214Y37436429D01*
X13521500Y37436429D02*
X14378642Y37436429D01*
X13950071Y37436429D02*
X13950071Y38936429D01*
X14092928Y38722143D01*
X14235785Y38579286D01*
X14378642Y38507858D01*
X13235785Y37293572D02*
X12092928Y37293572D01*
X11950071Y38936429D02*
X11092928Y38936429D01*
X11521500Y37436429D02*
X11521500Y38936429D01*
X17164357Y36386429D02*
X17164357Y35172143D01*
X17092928Y35029286D01*
X17021500Y34957858D01*
X16878642Y34886429D01*
X16592928Y34886429D01*
X16450071Y34957858D01*
X16378642Y35029286D01*
X16307214Y35172143D01*
X16307214Y36386429D01*
X15664357Y35315000D02*
X14950071Y35315000D01*
X15807214Y34886429D02*
X15307214Y36386429D01*
X14807214Y34886429D01*
X13521500Y34886429D02*
X14378642Y34886429D01*
X13950071Y34886429D02*
X13950071Y36386429D01*
X14092928Y36172143D01*
X14235785Y36029286D01*
X14378642Y35957858D01*
X13235785Y34743572D02*
X12092928Y34743572D01*
X10878642Y34886429D02*
X11378642Y35600715D01*
X11735785Y34886429D02*
X11735785Y36386429D01*
X11164357Y36386429D01*
X11021500Y36315000D01*
X10950071Y36243572D01*
X10878642Y36100715D01*
X10878642Y35886429D01*
X10950071Y35743572D01*
X11021500Y35672143D01*
X11164357Y35600715D01*
X11735785Y35600715D01*
X17235785Y32407858D02*
X17021500Y32336429D01*
X16664357Y32336429D01*
X16521500Y32407858D01*
X16450071Y32479286D01*
X16378642Y32622143D01*
X16378642Y32765000D01*
X16450071Y32907858D01*
X16521500Y32979286D01*
X16664357Y33050715D01*
X16950071Y33122143D01*
X17092928Y33193572D01*
X17164357Y33265000D01*
X17235785Y33407858D01*
X17235785Y33550715D01*
X17164357Y33693572D01*
X17092928Y33765000D01*
X16950071Y33836429D01*
X16592928Y33836429D01*
X16378642Y33765000D01*
X15735785Y32336429D02*
X15735785Y33836429D01*
X15378642Y33836429D01*
X15164357Y33765000D01*
X15021500Y33622143D01*
X14950071Y33479286D01*
X14878642Y33193572D01*
X14878642Y32979286D01*
X14950071Y32693572D01*
X15021500Y32550715D01*
X15164357Y32407858D01*
X15378642Y32336429D01*
X15735785Y32336429D01*
X14307214Y32765000D02*
X13592928Y32765000D01*
X14450071Y32336429D02*
X13950071Y33836429D01*
X13450071Y32336429D01*
X12164357Y32336429D02*
X13021500Y32336429D01*
X12592928Y32336429D02*
X12592928Y33836429D01*
X12735785Y33622143D01*
X12878642Y33479286D01*
X13021500Y33407858D01*
X17235785Y29857858D02*
X17021500Y29786429D01*
X16664357Y29786429D01*
X16521500Y29857858D01*
X16450071Y29929286D01*
X16378642Y30072143D01*
X16378642Y30215000D01*
X16450071Y30357858D01*
X16521500Y30429286D01*
X16664357Y30500715D01*
X16950071Y30572143D01*
X17092928Y30643572D01*
X17164357Y30715000D01*
X17235785Y30857858D01*
X17235785Y31000715D01*
X17164357Y31143572D01*
X17092928Y31215000D01*
X16950071Y31286429D01*
X16592928Y31286429D01*
X16378642Y31215000D01*
X14878642Y29929286D02*
X14950071Y29857858D01*
X15164357Y29786429D01*
X15307214Y29786429D01*
X15521500Y29857858D01*
X15664357Y30000715D01*
X15735785Y30143572D01*
X15807214Y30429286D01*
X15807214Y30643572D01*
X15735785Y30929286D01*
X15664357Y31072143D01*
X15521500Y31215000D01*
X15307214Y31286429D01*
X15164357Y31286429D01*
X14950071Y31215000D01*
X14878642Y31143572D01*
X13521500Y29786429D02*
X14235785Y29786429D01*
X14235785Y31286429D01*
X12235785Y29786429D02*
X13092928Y29786429D01*
X12664357Y29786429D02*
X12664357Y31286429D01*
X12807214Y31072143D01*
X12950071Y30929286D01*
X13092928Y30857858D01*
X17235785Y27665000D02*
X16521500Y27665000D01*
X17378642Y27236429D02*
X16878642Y28736429D01*
X16378642Y27236429D01*
X15878642Y27236429D02*
X15878642Y28736429D01*
X15021500Y27236429D01*
X15021500Y28736429D01*
X14235785Y27236429D02*
X13950071Y27236429D01*
X13807214Y27307858D01*
X13735785Y27379286D01*
X13592928Y27593572D01*
X13521500Y27879286D01*
X13521500Y28450715D01*
X13592928Y28593572D01*
X13664357Y28665000D01*
X13807214Y28736429D01*
X14092928Y28736429D01*
X14235785Y28665000D01*
X14307214Y28593572D01*
X14378642Y28450715D01*
X14378642Y28093572D01*
X14307214Y27950715D01*
X14235785Y27879286D01*
X14092928Y27807858D01*
X13807214Y27807858D01*
X13664357Y27879286D01*
X13592928Y27950715D01*
X13521500Y28093572D01*
X17235785Y25115000D02*
X16521500Y25115000D01*
X17378642Y24686429D02*
X16878642Y26186429D01*
X16378642Y24686429D01*
X15878642Y24686429D02*
X15878642Y26186429D01*
X15021500Y24686429D01*
X15021500Y26186429D01*
X13521500Y24686429D02*
X14378642Y24686429D01*
X13950071Y24686429D02*
X13950071Y26186429D01*
X14092928Y25972143D01*
X14235785Y25829286D01*
X14378642Y25757858D01*
X12950071Y26043572D02*
X12878642Y26115000D01*
X12735785Y26186429D01*
X12378642Y26186429D01*
X12235785Y26115000D01*
X12164357Y26043572D01*
X12092928Y25900715D01*
X12092928Y25757858D01*
X12164357Y25543572D01*
X13021500Y24686429D01*
X12092928Y24686429D01*
X16450071Y22136429D02*
X17164357Y22136429D01*
X17164357Y23636429D01*
X15950071Y22922143D02*
X15450071Y22922143D01*
X15235785Y22136429D02*
X15950071Y22136429D01*
X15950071Y23636429D01*
X15235785Y23636429D01*
X14592928Y22136429D02*
X14592928Y23636429D01*
X14235785Y23636429D01*
X14021500Y23565000D01*
X13878642Y23422143D01*
X13807214Y23279286D01*
X13735785Y22993572D01*
X13735785Y22779286D01*
X13807214Y22493572D01*
X13878642Y22350715D01*
X14021500Y22207858D01*
X14235785Y22136429D01*
X14592928Y22136429D01*
X13450071Y21993572D02*
X12307214Y21993572D01*
X11950071Y23636429D02*
X11950071Y22422143D01*
X11878642Y22279286D01*
X11807214Y22207858D01*
X11664357Y22136429D01*
X11378642Y22136429D01*
X11235785Y22207858D01*
X11164357Y22279286D01*
X11092928Y22422143D01*
X11092928Y23636429D01*
X17378642Y21086429D02*
X16521500Y21086429D01*
X16950071Y19586429D02*
X16950071Y21086429D01*
X16021500Y19586429D02*
X16021500Y21086429D01*
X15664357Y21086429D01*
X15450071Y21015000D01*
X15307214Y20872143D01*
X15235785Y20729286D01*
X15164357Y20443572D01*
X15164357Y20229286D01*
X15235785Y19943572D01*
X15307214Y19800715D01*
X15450071Y19657858D01*
X15664357Y19586429D01*
X16021500Y19586429D01*
X14521500Y19586429D02*
X14521500Y21086429D01*
X17378642Y18536429D02*
X16521500Y18536429D01*
X16950071Y17036429D02*
X16950071Y18536429D01*
X16021500Y17036429D02*
X16021500Y18536429D01*
X15664357Y18536429D01*
X15450071Y18465000D01*
X15307214Y18322143D01*
X15235785Y18179286D01*
X15164357Y17893572D01*
X15164357Y17679286D01*
X15235785Y17393572D01*
X15307214Y17250715D01*
X15450071Y17107858D01*
X15664357Y17036429D01*
X16021500Y17036429D01*
X14235785Y18536429D02*
X13950071Y18536429D01*
X13807214Y18465000D01*
X13664357Y18322143D01*
X13592928Y18036429D01*
X13592928Y17536429D01*
X13664357Y17250715D01*
X13807214Y17107858D01*
X13950071Y17036429D01*
X14235785Y17036429D01*
X14378642Y17107858D01*
X14521500Y17250715D01*
X14592928Y17536429D01*
X14592928Y18036429D01*
X14521500Y18322143D01*
X14378642Y18465000D01*
X14235785Y18536429D01*
X16378642Y15915000D02*
X16521500Y15986429D01*
X16735785Y15986429D01*
X16950071Y15915000D01*
X17092928Y15772143D01*
X17164357Y15629286D01*
X17235785Y15343572D01*
X17235785Y15129286D01*
X17164357Y14843572D01*
X17092928Y14700715D01*
X16950071Y14557858D01*
X16735785Y14486429D01*
X16592928Y14486429D01*
X16378642Y14557858D01*
X16307214Y14629286D01*
X16307214Y15129286D01*
X16592928Y15129286D01*
X15664357Y14486429D02*
X15664357Y15986429D01*
X14807214Y14486429D01*
X14807214Y15986429D01*
X14092928Y14486429D02*
X14092928Y15986429D01*
X13735785Y15986429D01*
X13521500Y15915000D01*
X13378642Y15772143D01*
X13307214Y15629286D01*
X13235785Y15343572D01*
X13235785Y15129286D01*
X13307214Y14843572D01*
X13378642Y14700715D01*
X13521500Y14557858D01*
X13735785Y14486429D01*
X14092928Y14486429D01*
X17164357Y13436429D02*
X17164357Y12222143D01*
X17092928Y12079286D01*
X17021500Y12007858D01*
X16878642Y11936429D01*
X16592928Y11936429D01*
X16450071Y12007858D01*
X16378642Y12079286D01*
X16307214Y12222143D01*
X16307214Y13436429D01*
X15664357Y12365000D02*
X14950071Y12365000D01*
X15807214Y11936429D02*
X15307214Y13436429D01*
X14807214Y11936429D01*
X14378642Y13293572D02*
X14307214Y13365000D01*
X14164357Y13436429D01*
X13807214Y13436429D01*
X13664357Y13365000D01*
X13592928Y13293572D01*
X13521500Y13150715D01*
X13521500Y13007858D01*
X13592928Y12793572D01*
X14450071Y11936429D01*
X13521500Y11936429D01*
X13235785Y11793572D02*
X12092928Y11793572D01*
X10878642Y11936429D02*
X11378642Y12650715D01*
X11735785Y11936429D02*
X11735785Y13436429D01*
X11164357Y13436429D01*
X11021500Y13365000D01*
X10950071Y13293572D01*
X10878642Y13150715D01*
X10878642Y12936429D01*
X10950071Y12793572D01*
X11021500Y12722143D01*
X11164357Y12650715D01*
X11735785Y12650715D01*
X17164357Y10886429D02*
X17164357Y9672143D01*
X17092928Y9529286D01*
X17021500Y9457858D01*
X16878642Y9386429D01*
X16592928Y9386429D01*
X16450071Y9457858D01*
X16378642Y9529286D01*
X16307214Y9672143D01*
X16307214Y10886429D01*
X15664357Y9815000D02*
X14950071Y9815000D01*
X15807214Y9386429D02*
X15307214Y10886429D01*
X14807214Y9386429D01*
X14378642Y10743572D02*
X14307214Y10815000D01*
X14164357Y10886429D01*
X13807214Y10886429D01*
X13664357Y10815000D01*
X13592928Y10743572D01*
X13521500Y10600715D01*
X13521500Y10457858D01*
X13592928Y10243572D01*
X14450071Y9386429D01*
X13521500Y9386429D01*
X13235785Y9243572D02*
X12092928Y9243572D01*
X11950071Y10886429D02*
X11092928Y10886429D01*
X11521500Y9386429D02*
X11521500Y10886429D01*
X5028642Y59336429D02*
X4100071Y59336429D01*
X4600071Y58765000D01*
X4385785Y58765000D01*
X4242928Y58693572D01*
X4171500Y58622143D01*
X4100071Y58479286D01*
X4100071Y58122143D01*
X4171500Y57979286D01*
X4242928Y57907858D01*
X4385785Y57836429D01*
X4814357Y57836429D01*
X4957214Y57907858D01*
X5028642Y57979286D01*
X3600071Y58836429D02*
X3242928Y57836429D01*
X2885785Y58836429D01*
X5028642Y56786429D02*
X4100071Y56786429D01*
X4600071Y56215000D01*
X4385785Y56215000D01*
X4242928Y56143572D01*
X4171500Y56072143D01*
X4100071Y55929286D01*
X4100071Y55572143D01*
X4171500Y55429286D01*
X4242928Y55357858D01*
X4385785Y55286429D01*
X4814357Y55286429D01*
X4957214Y55357858D01*
X5028642Y55429286D01*
X3600071Y56286429D02*
X3242928Y55286429D01*
X2885785Y56286429D01*
X3028642Y54165000D02*
X3171500Y54236429D01*
X3385785Y54236429D01*
X3600071Y54165000D01*
X3742928Y54022143D01*
X3814357Y53879286D01*
X3885785Y53593572D01*
X3885785Y53379286D01*
X3814357Y53093572D01*
X3742928Y52950715D01*
X3600071Y52807858D01*
X3385785Y52736429D01*
X3242928Y52736429D01*
X3028642Y52807858D01*
X2957214Y52879286D01*
X2957214Y53379286D01*
X3242928Y53379286D01*
X6100071Y51615000D02*
X6242928Y51686429D01*
X6457214Y51686429D01*
X6671500Y51615000D01*
X6814357Y51472143D01*
X6885785Y51329286D01*
X6957214Y51043572D01*
X6957214Y50829286D01*
X6885785Y50543572D01*
X6814357Y50400715D01*
X6671500Y50257858D01*
X6457214Y50186429D01*
X6314357Y50186429D01*
X6100071Y50257858D01*
X6028642Y50329286D01*
X6028642Y50829286D01*
X6314357Y50829286D01*
X5385785Y50186429D02*
X5385785Y51686429D01*
X4528642Y50186429D01*
X4528642Y51686429D01*
X3814357Y50186429D02*
X3814357Y51686429D01*
X3457214Y51686429D01*
X3242928Y51615000D01*
X3100071Y51472143D01*
X3028642Y51329286D01*
X2957214Y51043572D01*
X2957214Y50829286D01*
X3028642Y50543572D01*
X3100071Y50400715D01*
X3242928Y50257858D01*
X3457214Y50186429D01*
X3814357Y50186429D01*
X6671500Y48065000D02*
X5957214Y48065000D01*
X6814357Y47636429D02*
X6314357Y49136429D01*
X5814357Y47636429D01*
X5314357Y47636429D02*
X5314357Y49136429D01*
X4457214Y47636429D01*
X4457214Y49136429D01*
X3457214Y49136429D02*
X3314357Y49136429D01*
X3171500Y49065000D01*
X3100071Y48993572D01*
X3028642Y48850715D01*
X2957214Y48565000D01*
X2957214Y48207858D01*
X3028642Y47922143D01*
X3100071Y47779286D01*
X3171500Y47707858D01*
X3314357Y47636429D01*
X3457214Y47636429D01*
X3600071Y47707858D01*
X3671500Y47779286D01*
X3742928Y47922143D01*
X3814357Y48207858D01*
X3814357Y48565000D01*
X3742928Y48850715D01*
X3671500Y48993572D01*
X3600071Y49065000D01*
X3457214Y49136429D01*
X6671500Y45515000D02*
X5957214Y45515000D01*
X6814357Y45086429D02*
X6314357Y46586429D01*
X5814357Y45086429D01*
X5314357Y45086429D02*
X5314357Y46586429D01*
X4457214Y45086429D01*
X4457214Y46586429D01*
X2957214Y45086429D02*
X3814357Y45086429D01*
X3385785Y45086429D02*
X3385785Y46586429D01*
X3528642Y46372143D01*
X3671500Y46229286D01*
X3814357Y46157858D01*
X6671500Y42965000D02*
X5957214Y42965000D01*
X6814357Y42536429D02*
X6314357Y44036429D01*
X5814357Y42536429D01*
X5314357Y42536429D02*
X5314357Y44036429D01*
X4457214Y42536429D01*
X4457214Y44036429D01*
X3814357Y43893572D02*
X3742928Y43965000D01*
X3600071Y44036429D01*
X3242928Y44036429D01*
X3100071Y43965000D01*
X3028642Y43893572D01*
X2957214Y43750715D01*
X2957214Y43607858D01*
X3028642Y43393572D01*
X3885785Y42536429D01*
X2957214Y42536429D01*
X6742928Y40415000D02*
X6028642Y40415000D01*
X6885785Y39986429D02*
X6385785Y41486429D01*
X5885785Y39986429D01*
X5385785Y39986429D02*
X5385785Y41486429D01*
X4528642Y39986429D01*
X4528642Y41486429D01*
X3885785Y40986429D02*
X2814357Y40986429D01*
X3457214Y41629286D02*
X3885785Y39700715D01*
X2957214Y40343572D02*
X4028642Y40343572D01*
X3385785Y39700715D02*
X2957214Y41629286D01*
X6671500Y37865000D02*
X5957214Y37865000D01*
X6814357Y37436429D02*
X6314357Y38936429D01*
X5814357Y37436429D01*
X5314357Y37436429D02*
X5314357Y38936429D01*
X4457214Y37436429D01*
X4457214Y38936429D01*
X3100071Y38436429D02*
X3100071Y37436429D01*
X3457214Y39007858D02*
X3814357Y37936429D01*
X2885785Y37936429D01*
X6671500Y35315000D02*
X5957214Y35315000D01*
X6814357Y34886429D02*
X6314357Y36386429D01*
X5814357Y34886429D01*
X5314357Y34886429D02*
X5314357Y36386429D01*
X4457214Y34886429D01*
X4457214Y36386429D01*
X3028642Y36386429D02*
X3742928Y36386429D01*
X3814357Y35672143D01*
X3742928Y35743572D01*
X3600071Y35815000D01*
X3242928Y35815000D01*
X3100071Y35743572D01*
X3028642Y35672143D01*
X2957214Y35529286D01*
X2957214Y35172143D01*
X3028642Y35029286D01*
X3100071Y34957858D01*
X3242928Y34886429D01*
X3600071Y34886429D01*
X3742928Y34957858D01*
X3814357Y35029286D01*
X6671500Y32765000D02*
X5957214Y32765000D01*
X6814357Y32336429D02*
X6314357Y33836429D01*
X5814357Y32336429D01*
X5314357Y32336429D02*
X5314357Y33836429D01*
X4457214Y32336429D01*
X4457214Y33836429D01*
X3100071Y33836429D02*
X3385785Y33836429D01*
X3528642Y33765000D01*
X3600071Y33693572D01*
X3742928Y33479286D01*
X3814357Y33193572D01*
X3814357Y32622143D01*
X3742928Y32479286D01*
X3671500Y32407858D01*
X3528642Y32336429D01*
X3242928Y32336429D01*
X3100071Y32407858D01*
X3028642Y32479286D01*
X2957214Y32622143D01*
X2957214Y32979286D01*
X3028642Y33122143D01*
X3100071Y33193572D01*
X3242928Y33265000D01*
X3528642Y33265000D01*
X3671500Y33193572D01*
X3742928Y33122143D01*
X3814357Y32979286D01*
X6671500Y30215000D02*
X5957214Y30215000D01*
X6814357Y29786429D02*
X6314357Y31286429D01*
X5814357Y29786429D01*
X5314357Y29786429D02*
X5314357Y31286429D01*
X4457214Y29786429D01*
X4457214Y31286429D01*
X3885785Y31286429D02*
X2885785Y31286429D01*
X3528642Y29786429D01*
X6671500Y27665000D02*
X5957214Y27665000D01*
X6814357Y27236429D02*
X6314357Y28736429D01*
X5814357Y27236429D01*
X5314357Y27236429D02*
X5314357Y28736429D01*
X4457214Y27236429D01*
X4457214Y28736429D01*
X3528642Y28093572D02*
X3671500Y28165000D01*
X3742928Y28236429D01*
X3814357Y28379286D01*
X3814357Y28450715D01*
X3742928Y28593572D01*
X3671500Y28665000D01*
X3528642Y28736429D01*
X3242928Y28736429D01*
X3100071Y28665000D01*
X3028642Y28593572D01*
X2957214Y28450715D01*
X2957214Y28379286D01*
X3028642Y28236429D01*
X3100071Y28165000D01*
X3242928Y28093572D01*
X3528642Y28093572D01*
X3671500Y28022143D01*
X3742928Y27950715D01*
X3814357Y27807858D01*
X3814357Y27522143D01*
X3742928Y27379286D01*
X3671500Y27307858D01*
X3528642Y27236429D01*
X3242928Y27236429D01*
X3100071Y27307858D01*
X3028642Y27379286D01*
X2957214Y27522143D01*
X2957214Y27807858D01*
X3028642Y27950715D01*
X3100071Y28022143D01*
X3242928Y28093572D01*
X5028642Y26186429D02*
X4100071Y26186429D01*
X4600071Y25615000D01*
X4385785Y25615000D01*
X4242928Y25543572D01*
X4171500Y25472143D01*
X4100071Y25329286D01*
X4100071Y24972143D01*
X4171500Y24829286D01*
X4242928Y24757858D01*
X4385785Y24686429D01*
X4814357Y24686429D01*
X4957214Y24757858D01*
X5028642Y24829286D01*
X3600071Y25686429D02*
X3242928Y24686429D01*
X2885785Y25686429D01*
X8742928Y22922143D02*
X8528642Y22850715D01*
X8457214Y22779286D01*
X8385785Y22636429D01*
X8385785Y22422143D01*
X8457214Y22279286D01*
X8528642Y22207858D01*
X8671500Y22136429D01*
X9242928Y22136429D01*
X9242928Y23636429D01*
X8742928Y23636429D01*
X8600071Y23565000D01*
X8528642Y23493572D01*
X8457214Y23350715D01*
X8457214Y23207858D01*
X8528642Y23065000D01*
X8600071Y22993572D01*
X8742928Y22922143D01*
X9242928Y22922143D01*
X7957214Y23636429D02*
X7100071Y23636429D01*
X7528642Y22136429D02*
X7528642Y23636429D01*
X6600071Y22136429D02*
X6600071Y23636429D01*
X5742928Y22136429D01*
X5742928Y23636429D01*
X5385785Y21993572D02*
X4242928Y21993572D01*
X3885785Y23636429D02*
X3885785Y22422143D01*
X3814357Y22279286D01*
X3742928Y22207858D01*
X3600071Y22136429D01*
X3314357Y22136429D01*
X3171500Y22207858D01*
X3100071Y22279286D01*
X3028642Y22422143D01*
X3028642Y23636429D01*
X9600071Y19586429D02*
X9600071Y21086429D01*
X9028642Y21086429D01*
X8885785Y21015000D01*
X8814357Y20943572D01*
X8742928Y20800715D01*
X8742928Y20586429D01*
X8814357Y20443572D01*
X8885785Y20372143D01*
X9028642Y20300715D01*
X9600071Y20300715D01*
X7314357Y21015000D02*
X7457214Y21086429D01*
X7671500Y21086429D01*
X7885785Y21015000D01*
X8028642Y20872143D01*
X8100071Y20729286D01*
X8171500Y20443572D01*
X8171500Y20229286D01*
X8100071Y19943572D01*
X8028642Y19800715D01*
X7885785Y19657858D01*
X7671500Y19586429D01*
X7528642Y19586429D01*
X7314357Y19657858D01*
X7242928Y19729286D01*
X7242928Y20229286D01*
X7528642Y20229286D01*
X6600071Y20372143D02*
X6100071Y20372143D01*
X5885785Y19586429D02*
X6600071Y19586429D01*
X6600071Y21086429D01*
X5885785Y21086429D01*
X4385785Y19729286D02*
X4457214Y19657858D01*
X4671500Y19586429D01*
X4814357Y19586429D01*
X5028642Y19657858D01*
X5171500Y19800715D01*
X5242928Y19943572D01*
X5314357Y20229286D01*
X5314357Y20443572D01*
X5242928Y20729286D01*
X5171500Y20872143D01*
X5028642Y21015000D01*
X4814357Y21086429D01*
X4671500Y21086429D01*
X4457214Y21015000D01*
X4385785Y20943572D01*
X3100071Y20586429D02*
X3100071Y19586429D01*
X3457214Y21157858D02*
X3814357Y20086429D01*
X2885785Y20086429D01*
X9600071Y17036429D02*
X9600071Y18536429D01*
X9028642Y18536429D01*
X8885785Y18465000D01*
X8814357Y18393572D01*
X8742928Y18250715D01*
X8742928Y18036429D01*
X8814357Y17893572D01*
X8885785Y17822143D01*
X9028642Y17750715D01*
X9600071Y17750715D01*
X7314357Y18465000D02*
X7457214Y18536429D01*
X7671500Y18536429D01*
X7885785Y18465000D01*
X8028642Y18322143D01*
X8100071Y18179286D01*
X8171500Y17893572D01*
X8171500Y17679286D01*
X8100071Y17393572D01*
X8028642Y17250715D01*
X7885785Y17107858D01*
X7671500Y17036429D01*
X7528642Y17036429D01*
X7314357Y17107858D01*
X7242928Y17179286D01*
X7242928Y17679286D01*
X7528642Y17679286D01*
X6600071Y17822143D02*
X6100071Y17822143D01*
X5885785Y17036429D02*
X6600071Y17036429D01*
X6600071Y18536429D01*
X5885785Y18536429D01*
X5242928Y17036429D02*
X5242928Y18536429D01*
X4885785Y18536429D01*
X4671500Y18465000D01*
X4528642Y18322143D01*
X4457214Y18179286D01*
X4385785Y17893572D01*
X4385785Y17679286D01*
X4457214Y17393572D01*
X4528642Y17250715D01*
X4671500Y17107858D01*
X4885785Y17036429D01*
X5242928Y17036429D01*
X3100071Y18036429D02*
X3100071Y17036429D01*
X3457214Y18607858D02*
X3814357Y17536429D01*
X2885785Y17536429D01*
X6100071Y15915000D02*
X6242928Y15986429D01*
X6457214Y15986429D01*
X6671500Y15915000D01*
X6814357Y15772143D01*
X6885785Y15629286D01*
X6957214Y15343572D01*
X6957214Y15129286D01*
X6885785Y14843572D01*
X6814357Y14700715D01*
X6671500Y14557858D01*
X6457214Y14486429D01*
X6314357Y14486429D01*
X6100071Y14557858D01*
X6028642Y14629286D01*
X6028642Y15129286D01*
X6314357Y15129286D01*
X5385785Y14486429D02*
X5385785Y15986429D01*
X4528642Y14486429D01*
X4528642Y15986429D01*
X3814357Y14486429D02*
X3814357Y15986429D01*
X3457214Y15986429D01*
X3242928Y15915000D01*
X3100071Y15772143D01*
X3028642Y15629286D01*
X2957214Y15343572D01*
X2957214Y15129286D01*
X3028642Y14843572D01*
X3100071Y14700715D01*
X3242928Y14557858D01*
X3457214Y14486429D01*
X3814357Y14486429D01*
X5028642Y13436429D02*
X4100071Y13436429D01*
X4600071Y12865000D01*
X4385785Y12865000D01*
X4242928Y12793572D01*
X4171500Y12722143D01*
X4100071Y12579286D01*
X4100071Y12222143D01*
X4171500Y12079286D01*
X4242928Y12007858D01*
X4385785Y11936429D01*
X4814357Y11936429D01*
X4957214Y12007858D01*
X5028642Y12079286D01*
X3600071Y12936429D02*
X3242928Y11936429D01*
X2885785Y12936429D01*
X8600071Y11535000D02*
X6885785Y11535000D01*
X8242928Y9386429D02*
X8242928Y10886429D01*
X7742928Y9815000D01*
X7242928Y10886429D01*
X7242928Y9386429D01*
X6885785Y11535000D02*
X5385785Y11535000D01*
X5671500Y9529286D02*
X5742928Y9457858D01*
X5957214Y9386429D01*
X6100071Y9386429D01*
X6314357Y9457858D01*
X6457214Y9600715D01*
X6528642Y9743572D01*
X6600071Y10029286D01*
X6600071Y10243572D01*
X6528642Y10529286D01*
X6457214Y10672143D01*
X6314357Y10815000D01*
X6100071Y10886429D01*
X5957214Y10886429D01*
X5742928Y10815000D01*
X5671500Y10743572D01*
X5385785Y11535000D02*
X4171500Y11535000D01*
X4314357Y9386429D02*
X5028642Y9386429D01*
X5028642Y10886429D01*
X4171500Y11535000D02*
X2671500Y11535000D01*
X2957214Y9386429D02*
X3457214Y10100715D01*
X3814357Y9386429D02*
X3814357Y10886429D01*
X3242928Y10886429D01*
X3100071Y10815000D01*
X3028642Y10743572D01*
X2957214Y10600715D01*
X2957214Y10386429D01*
X3028642Y10243572D01*
X3100071Y10172143D01*
X3242928Y10100715D01*
X3814357Y10100715D01*
D10*
G04 #@! TO.C,J4*
X20380000Y59750000D02*
X19050000Y59750000D01*
X20380000Y58420000D02*
X20380000Y59750000D01*
X20380000Y57150000D02*
X17720000Y57150000D01*
X17720000Y57150000D02*
X17720000Y8830000D01*
X20380000Y57150000D02*
X20380000Y8830000D01*
X20380000Y8830000D02*
X17720000Y8830000D01*
G04 #@! TO.C,J3*
X2600000Y8830000D02*
X-60000Y8830000D01*
X2600000Y57150000D02*
X2600000Y8830000D01*
X-60000Y57150000D02*
X-60000Y8830000D01*
X2600000Y57150000D02*
X-60000Y57150000D01*
X2600000Y58420000D02*
X2600000Y59750000D01*
X2600000Y59750000D02*
X1270000Y59750000D01*
D13*
G04 #@! TO.C,REF\002A\002A*
G36*
X7806741Y28583684D02*
X7833253Y28596782D01*
X7865947Y28619606D01*
X7889775Y28644496D01*
X7906094Y28675749D01*
X7916260Y28717666D01*
X7921628Y28774544D01*
X7923556Y28850684D01*
X7923669Y28883417D01*
X7923339Y28955156D01*
X7921973Y29006427D01*
X7919000Y29041904D01*
X7913851Y29066263D01*
X7905957Y29084180D01*
X7897743Y29096402D01*
X7845313Y29148405D01*
X7783570Y29179684D01*
X7716964Y29189092D01*
X7649942Y29175480D01*
X7628708Y29165854D01*
X7577876Y29139359D01*
X7577876Y29554552D01*
X7614975Y29535368D01*
X7663857Y29520525D01*
X7723939Y29516722D01*
X7783936Y29523743D01*
X7829244Y29539513D01*
X7866825Y29569547D01*
X7898936Y29612524D01*
X7901350Y29616936D01*
X7911533Y29637721D01*
X7918970Y29658670D01*
X7924089Y29684048D01*
X7927319Y29718118D01*
X7929087Y29765141D01*
X7929823Y29829382D01*
X7929956Y29901676D01*
X7929956Y30132322D01*
X7791639Y30132322D01*
X7791639Y29707033D01*
X7752951Y29674479D01*
X7712762Y29648440D01*
X7674703Y29643705D01*
X7636434Y29655889D01*
X7616038Y29667820D01*
X7600858Y29684813D01*
X7590062Y29710495D01*
X7582817Y29748491D01*
X7578292Y29802426D01*
X7575656Y29875925D01*
X7574728Y29924847D01*
X7571589Y30126035D01*
X7505574Y30129836D01*
X7439560Y30133636D01*
X7439560Y28885150D01*
X7577876Y28885150D01*
X7581403Y28954754D01*
X7593285Y29003069D01*
X7615480Y29033131D01*
X7649941Y29047971D01*
X7684758Y29050936D01*
X7724171Y29047528D01*
X7750329Y29034117D01*
X7766686Y29016396D01*
X7779563Y28997335D01*
X7787228Y28976101D01*
X7790639Y28946349D01*
X7790751Y28901736D01*
X7789603Y28864380D01*
X7786968Y28808104D01*
X7783044Y28771158D01*
X7776437Y28747723D01*
X7765751Y28731980D01*
X7755667Y28722880D01*
X7713530Y28703037D01*
X7663660Y28699832D01*
X7635024Y28706668D01*
X7606672Y28730964D01*
X7587891Y28778228D01*
X7578788Y28848124D01*
X7577876Y28885150D01*
X7439560Y28885150D01*
X7439560Y28573114D01*
X7508718Y28573114D01*
X7550240Y28574756D01*
X7571662Y28580587D01*
X7577874Y28591961D01*
X7577876Y28592298D01*
X7580758Y28603438D01*
X7593470Y28602173D01*
X7618743Y28589933D01*
X7677631Y28571207D01*
X7743885Y28569239D01*
X7806741Y28583684D01*
X7806741Y28583684D01*
G37*
X7806741Y28583684D02*
X7833253Y28596782D01*
X7865947Y28619606D01*
X7889775Y28644496D01*
X7906094Y28675749D01*
X7916260Y28717666D01*
X7921628Y28774544D01*
X7923556Y28850684D01*
X7923669Y28883417D01*
X7923339Y28955156D01*
X7921973Y29006427D01*
X7919000Y29041904D01*
X7913851Y29066263D01*
X7905957Y29084180D01*
X7897743Y29096402D01*
X7845313Y29148405D01*
X7783570Y29179684D01*
X7716964Y29189092D01*
X7649942Y29175480D01*
X7628708Y29165854D01*
X7577876Y29139359D01*
X7577876Y29554552D01*
X7614975Y29535368D01*
X7663857Y29520525D01*
X7723939Y29516722D01*
X7783936Y29523743D01*
X7829244Y29539513D01*
X7866825Y29569547D01*
X7898936Y29612524D01*
X7901350Y29616936D01*
X7911533Y29637721D01*
X7918970Y29658670D01*
X7924089Y29684048D01*
X7927319Y29718118D01*
X7929087Y29765141D01*
X7929823Y29829382D01*
X7929956Y29901676D01*
X7929956Y30132322D01*
X7791639Y30132322D01*
X7791639Y29707033D01*
X7752951Y29674479D01*
X7712762Y29648440D01*
X7674703Y29643705D01*
X7636434Y29655889D01*
X7616038Y29667820D01*
X7600858Y29684813D01*
X7590062Y29710495D01*
X7582817Y29748491D01*
X7578292Y29802426D01*
X7575656Y29875925D01*
X7574728Y29924847D01*
X7571589Y30126035D01*
X7505574Y30129836D01*
X7439560Y30133636D01*
X7439560Y28885150D01*
X7577876Y28885150D01*
X7581403Y28954754D01*
X7593285Y29003069D01*
X7615480Y29033131D01*
X7649941Y29047971D01*
X7684758Y29050936D01*
X7724171Y29047528D01*
X7750329Y29034117D01*
X7766686Y29016396D01*
X7779563Y28997335D01*
X7787228Y28976101D01*
X7790639Y28946349D01*
X7790751Y28901736D01*
X7789603Y28864380D01*
X7786968Y28808104D01*
X7783044Y28771158D01*
X7776437Y28747723D01*
X7765751Y28731980D01*
X7755667Y28722880D01*
X7713530Y28703037D01*
X7663660Y28699832D01*
X7635024Y28706668D01*
X7606672Y28730964D01*
X7587891Y28778228D01*
X7578788Y28848124D01*
X7577876Y28885150D01*
X7439560Y28885150D01*
X7439560Y28573114D01*
X7508718Y28573114D01*
X7550240Y28574756D01*
X7571662Y28580587D01*
X7577874Y28591961D01*
X7577876Y28592298D01*
X7580758Y28603438D01*
X7593470Y28602173D01*
X7618743Y28589933D01*
X7677631Y28571207D01*
X7743885Y28569239D01*
X7806741Y28583684D01*
G36*
X8331290Y29521055D02*
X8390445Y29536839D01*
X8435477Y29565448D01*
X8467254Y29602919D01*
X8477134Y29618911D01*
X8484427Y29635663D01*
X8489526Y29657092D01*
X8492821Y29687116D01*
X8494703Y29729654D01*
X8495563Y29788622D01*
X8495793Y29867940D01*
X8495797Y29888984D01*
X8495797Y30132322D01*
X8435441Y30132322D01*
X8396943Y30129626D01*
X8368477Y30122795D01*
X8361345Y30118583D01*
X8341848Y30111313D01*
X8321934Y30118583D01*
X8289147Y30127660D01*
X8241522Y30131313D01*
X8188736Y30129728D01*
X8140464Y30123089D01*
X8112282Y30114572D01*
X8057747Y30079563D01*
X8023665Y30030979D01*
X8008343Y29966382D01*
X8008201Y29964723D01*
X8009545Y29936066D01*
X8131144Y29936066D01*
X8141774Y29968661D01*
X8159090Y29987005D01*
X8193848Y30000879D01*
X8239727Y30006417D01*
X8286512Y30003691D01*
X8323986Y29992774D01*
X8334485Y29985769D01*
X8352832Y29953404D01*
X8357480Y29916611D01*
X8357480Y29868263D01*
X8287918Y29868263D01*
X8221833Y29873350D01*
X8171736Y29887763D01*
X8140571Y29910229D01*
X8131144Y29936066D01*
X8009545Y29936066D01*
X8011513Y29894147D01*
X8034790Y29838345D01*
X8078552Y29796147D01*
X8084601Y29792308D01*
X8110593Y29779809D01*
X8142765Y29772240D01*
X8187740Y29768561D01*
X8241169Y29767716D01*
X8357480Y29767669D01*
X8357480Y29718911D01*
X8352547Y29681081D01*
X8339957Y29655736D01*
X8338483Y29654387D01*
X8310466Y29643300D01*
X8268174Y29639003D01*
X8221436Y29641115D01*
X8180082Y29649256D01*
X8155543Y29661465D01*
X8142247Y29671246D01*
X8128206Y29673113D01*
X8108829Y29665100D01*
X8079524Y29645239D01*
X8035697Y29611563D01*
X8031675Y29608409D01*
X8033736Y29596736D01*
X8050932Y29577322D01*
X8077067Y29555748D01*
X8105948Y29537596D01*
X8115022Y29533309D01*
X8148120Y29524756D01*
X8196620Y29518655D01*
X8250805Y29516208D01*
X8253339Y29516203D01*
X8331290Y29521055D01*
X8331290Y29521055D01*
G37*
X8331290Y29521055D02*
X8390445Y29536839D01*
X8435477Y29565448D01*
X8467254Y29602919D01*
X8477134Y29618911D01*
X8484427Y29635663D01*
X8489526Y29657092D01*
X8492821Y29687116D01*
X8494703Y29729654D01*
X8495563Y29788622D01*
X8495793Y29867940D01*
X8495797Y29888984D01*
X8495797Y30132322D01*
X8435441Y30132322D01*
X8396943Y30129626D01*
X8368477Y30122795D01*
X8361345Y30118583D01*
X8341848Y30111313D01*
X8321934Y30118583D01*
X8289147Y30127660D01*
X8241522Y30131313D01*
X8188736Y30129728D01*
X8140464Y30123089D01*
X8112282Y30114572D01*
X8057747Y30079563D01*
X8023665Y30030979D01*
X8008343Y29966382D01*
X8008201Y29964723D01*
X8009545Y29936066D01*
X8131144Y29936066D01*
X8141774Y29968661D01*
X8159090Y29987005D01*
X8193848Y30000879D01*
X8239727Y30006417D01*
X8286512Y30003691D01*
X8323986Y29992774D01*
X8334485Y29985769D01*
X8352832Y29953404D01*
X8357480Y29916611D01*
X8357480Y29868263D01*
X8287918Y29868263D01*
X8221833Y29873350D01*
X8171736Y29887763D01*
X8140571Y29910229D01*
X8131144Y29936066D01*
X8009545Y29936066D01*
X8011513Y29894147D01*
X8034790Y29838345D01*
X8078552Y29796147D01*
X8084601Y29792308D01*
X8110593Y29779809D01*
X8142765Y29772240D01*
X8187740Y29768561D01*
X8241169Y29767716D01*
X8357480Y29767669D01*
X8357480Y29718911D01*
X8352547Y29681081D01*
X8339957Y29655736D01*
X8338483Y29654387D01*
X8310466Y29643300D01*
X8268174Y29639003D01*
X8221436Y29641115D01*
X8180082Y29649256D01*
X8155543Y29661465D01*
X8142247Y29671246D01*
X8128206Y29673113D01*
X8108829Y29665100D01*
X8079524Y29645239D01*
X8035697Y29611563D01*
X8031675Y29608409D01*
X8033736Y29596736D01*
X8050932Y29577322D01*
X8077067Y29555748D01*
X8105948Y29537596D01*
X8115022Y29533309D01*
X8148120Y29524756D01*
X8196620Y29518655D01*
X8250805Y29516208D01*
X8253339Y29516203D01*
X8331290Y29521055D01*
G36*
X8722144Y29517520D02*
X8740961Y29523160D01*
X8747027Y29535553D01*
X8747282Y29541147D01*
X8748371Y29556730D01*
X8755868Y29559176D01*
X8776119Y29548493D01*
X8788149Y29541194D01*
X8826100Y29525563D01*
X8871428Y29517834D01*
X8918956Y29517240D01*
X8963505Y29523013D01*
X8999898Y29534384D01*
X9022957Y29550588D01*
X9027504Y29570855D01*
X9025209Y29576343D01*
X9008480Y29599126D01*
X8982537Y29627147D01*
X8977845Y29631677D01*
X8953117Y29652505D01*
X8931782Y29659235D01*
X8901945Y29654538D01*
X8889992Y29651417D01*
X8852795Y29643921D01*
X8826641Y29647292D01*
X8804554Y29659181D01*
X8784322Y29675135D01*
X8769421Y29695200D01*
X8759066Y29723202D01*
X8752471Y29762967D01*
X8748851Y29818323D01*
X8747422Y29893094D01*
X8747282Y29938240D01*
X8747282Y30132322D01*
X8621540Y30132322D01*
X8621540Y29516183D01*
X8684411Y29516183D01*
X8722144Y29517520D01*
X8722144Y29517520D01*
G37*
X8722144Y29517520D02*
X8740961Y29523160D01*
X8747027Y29535553D01*
X8747282Y29541147D01*
X8748371Y29556730D01*
X8755868Y29559176D01*
X8776119Y29548493D01*
X8788149Y29541194D01*
X8826100Y29525563D01*
X8871428Y29517834D01*
X8918956Y29517240D01*
X8963505Y29523013D01*
X8999898Y29534384D01*
X9022957Y29550588D01*
X9027504Y29570855D01*
X9025209Y29576343D01*
X9008480Y29599126D01*
X8982537Y29627147D01*
X8977845Y29631677D01*
X8953117Y29652505D01*
X8931782Y29659235D01*
X8901945Y29654538D01*
X8889992Y29651417D01*
X8852795Y29643921D01*
X8826641Y29647292D01*
X8804554Y29659181D01*
X8784322Y29675135D01*
X8769421Y29695200D01*
X8759066Y29723202D01*
X8752471Y29762967D01*
X8748851Y29818323D01*
X8747422Y29893094D01*
X8747282Y29938240D01*
X8747282Y30132322D01*
X8621540Y30132322D01*
X8621540Y29516183D01*
X8684411Y29516183D01*
X8722144Y29517520D01*
G36*
X9514312Y30132322D02*
X9445154Y30132322D01*
X9405012Y30131145D01*
X9384106Y30126272D01*
X9376578Y30115686D01*
X9375995Y30108529D01*
X9374726Y30094176D01*
X9366721Y30091423D01*
X9345685Y30100271D01*
X9329327Y30108529D01*
X9266523Y30128097D01*
X9198252Y30129229D01*
X9142748Y30114635D01*
X9091062Y30079377D01*
X9051662Y30027335D01*
X9030087Y29965950D01*
X9029538Y29962518D01*
X9026333Y29925071D01*
X9024739Y29871313D01*
X9024867Y29830655D01*
X9162221Y29830655D01*
X9165403Y29884694D01*
X9172641Y29929235D01*
X9182440Y29954388D01*
X9219511Y29988760D01*
X9263526Y30001082D01*
X9308916Y29991118D01*
X9347703Y29961395D01*
X9362392Y29941405D01*
X9370981Y29917550D01*
X9375004Y29882730D01*
X9375995Y29830430D01*
X9374222Y29778639D01*
X9369537Y29733134D01*
X9362897Y29702681D01*
X9361790Y29699952D01*
X9335009Y29667500D01*
X9295921Y29649683D01*
X9252185Y29646806D01*
X9211462Y29659174D01*
X9181413Y29687093D01*
X9178296Y29692648D01*
X9168539Y29726522D01*
X9163223Y29775228D01*
X9162221Y29830655D01*
X9024867Y29830655D01*
X9024932Y29810040D01*
X9025836Y29777063D01*
X9031986Y29695481D01*
X9044767Y29634230D01*
X9066029Y29588949D01*
X9097622Y29555279D01*
X9128293Y29535514D01*
X9171146Y29521620D01*
X9224444Y29516854D01*
X9279020Y29520736D01*
X9325708Y29532782D01*
X9350376Y29547193D01*
X9375995Y29570378D01*
X9375995Y29277273D01*
X9514312Y29277273D01*
X9514312Y30132322D01*
X9514312Y30132322D01*
G37*
X9514312Y30132322D02*
X9445154Y30132322D01*
X9405012Y30131145D01*
X9384106Y30126272D01*
X9376578Y30115686D01*
X9375995Y30108529D01*
X9374726Y30094176D01*
X9366721Y30091423D01*
X9345685Y30100271D01*
X9329327Y30108529D01*
X9266523Y30128097D01*
X9198252Y30129229D01*
X9142748Y30114635D01*
X9091062Y30079377D01*
X9051662Y30027335D01*
X9030087Y29965950D01*
X9029538Y29962518D01*
X9026333Y29925071D01*
X9024739Y29871313D01*
X9024867Y29830655D01*
X9162221Y29830655D01*
X9165403Y29884694D01*
X9172641Y29929235D01*
X9182440Y29954388D01*
X9219511Y29988760D01*
X9263526Y30001082D01*
X9308916Y29991118D01*
X9347703Y29961395D01*
X9362392Y29941405D01*
X9370981Y29917550D01*
X9375004Y29882730D01*
X9375995Y29830430D01*
X9374222Y29778639D01*
X9369537Y29733134D01*
X9362897Y29702681D01*
X9361790Y29699952D01*
X9335009Y29667500D01*
X9295921Y29649683D01*
X9252185Y29646806D01*
X9211462Y29659174D01*
X9181413Y29687093D01*
X9178296Y29692648D01*
X9168539Y29726522D01*
X9163223Y29775228D01*
X9162221Y29830655D01*
X9024867Y29830655D01*
X9024932Y29810040D01*
X9025836Y29777063D01*
X9031986Y29695481D01*
X9044767Y29634230D01*
X9066029Y29588949D01*
X9097622Y29555279D01*
X9128293Y29535514D01*
X9171146Y29521620D01*
X9224444Y29516854D01*
X9279020Y29520736D01*
X9325708Y29532782D01*
X9350376Y29547193D01*
X9375995Y29570378D01*
X9375995Y29277273D01*
X9514312Y29277273D01*
X9514312Y30132322D01*
G36*
X9997024Y29518737D02*
X10046755Y29522471D01*
X10176791Y29912273D01*
X10197178Y29843114D01*
X10209446Y29800374D01*
X10225585Y29742615D01*
X10243012Y29679125D01*
X10252226Y29645070D01*
X10286888Y29516183D01*
X10429891Y29516183D01*
X10387146Y29651357D01*
X10366096Y29717842D01*
X10340667Y29798039D01*
X10314110Y29881693D01*
X10290402Y29956282D01*
X10236402Y30126035D01*
X10178098Y30129828D01*
X10119795Y30133622D01*
X10088179Y30029234D01*
X10068682Y29964389D01*
X10047404Y29892900D01*
X10028808Y29829763D01*
X10028074Y29827250D01*
X10014184Y29784469D01*
X10001929Y29755279D01*
X9993346Y29744241D01*
X9991582Y29745518D01*
X9985391Y29762630D01*
X9973628Y29799287D01*
X9957725Y29850878D01*
X9939114Y29912794D01*
X9929043Y29946852D01*
X9874507Y30132322D01*
X9758764Y30132322D01*
X9666237Y29839971D01*
X9640244Y29757962D01*
X9616566Y29683487D01*
X9596320Y29620044D01*
X9580626Y29571132D01*
X9570602Y29540249D01*
X9567555Y29531226D01*
X9569967Y29521987D01*
X9588908Y29517941D01*
X9628323Y29518346D01*
X9634493Y29518652D01*
X9707586Y29522471D01*
X9755457Y29698510D01*
X9773053Y29762711D01*
X9788777Y29819149D01*
X9801246Y29862922D01*
X9809074Y29889130D01*
X9810520Y29893403D01*
X9816514Y29888490D01*
X9828601Y29863032D01*
X9845393Y29820497D01*
X9865503Y29764350D01*
X9882503Y29713630D01*
X9947294Y29515004D01*
X9997024Y29518737D01*
X9997024Y29518737D01*
G37*
X9997024Y29518737D02*
X10046755Y29522471D01*
X10176791Y29912273D01*
X10197178Y29843114D01*
X10209446Y29800374D01*
X10225585Y29742615D01*
X10243012Y29679125D01*
X10252226Y29645070D01*
X10286888Y29516183D01*
X10429891Y29516183D01*
X10387146Y29651357D01*
X10366096Y29717842D01*
X10340667Y29798039D01*
X10314110Y29881693D01*
X10290402Y29956282D01*
X10236402Y30126035D01*
X10178098Y30129828D01*
X10119795Y30133622D01*
X10088179Y30029234D01*
X10068682Y29964389D01*
X10047404Y29892900D01*
X10028808Y29829763D01*
X10028074Y29827250D01*
X10014184Y29784469D01*
X10001929Y29755279D01*
X9993346Y29744241D01*
X9991582Y29745518D01*
X9985391Y29762630D01*
X9973628Y29799287D01*
X9957725Y29850878D01*
X9939114Y29912794D01*
X9929043Y29946852D01*
X9874507Y30132322D01*
X9758764Y30132322D01*
X9666237Y29839971D01*
X9640244Y29757962D01*
X9616566Y29683487D01*
X9596320Y29620044D01*
X9580626Y29571132D01*
X9570602Y29540249D01*
X9567555Y29531226D01*
X9569967Y29521987D01*
X9588908Y29517941D01*
X9628323Y29518346D01*
X9634493Y29518652D01*
X9707586Y29522471D01*
X9755457Y29698510D01*
X9773053Y29762711D01*
X9788777Y29819149D01*
X9801246Y29862922D01*
X9809074Y29889130D01*
X9810520Y29893403D01*
X9816514Y29888490D01*
X9828601Y29863032D01*
X9845393Y29820497D01*
X9865503Y29764350D01*
X9882503Y29713630D01*
X9947294Y29515004D01*
X9997024Y29518737D01*
G36*
X10753911Y29519917D02*
X10806911Y29532790D01*
X10822231Y29539610D01*
X10851928Y29557474D01*
X10874720Y29577593D01*
X10891583Y29603462D01*
X10903498Y29638573D01*
X10911442Y29686420D01*
X10916394Y29750496D01*
X10919331Y29834294D01*
X10920447Y29890268D01*
X10924552Y30132322D01*
X10854432Y30132322D01*
X10811893Y30130538D01*
X10789976Y30124442D01*
X10784312Y30114206D01*
X10781321Y30103137D01*
X10767951Y30105254D01*
X10749733Y30114129D01*
X10704124Y30127733D01*
X10645507Y30131399D01*
X10583854Y30125403D01*
X10529138Y30110021D01*
X10524230Y30107886D01*
X10474223Y30072755D01*
X10441256Y30023919D01*
X10426087Y29966833D01*
X10427246Y29946324D01*
X10551008Y29946324D01*
X10561913Y29973925D01*
X10594245Y29993704D01*
X10646410Y30004319D01*
X10674287Y30005728D01*
X10720747Y30002120D01*
X10751629Y29988097D01*
X10759164Y29981431D01*
X10779576Y29945166D01*
X10784312Y29912273D01*
X10784312Y29868263D01*
X10723013Y29868263D01*
X10651756Y29871895D01*
X10601776Y29883318D01*
X10570196Y29903324D01*
X10563126Y29912243D01*
X10551008Y29946324D01*
X10427246Y29946324D01*
X10429471Y29906956D01*
X10452163Y29849744D01*
X10483124Y29811080D01*
X10501876Y29794364D01*
X10520233Y29783378D01*
X10544119Y29776680D01*
X10579457Y29772826D01*
X10632169Y29770373D01*
X10653077Y29769668D01*
X10784312Y29765379D01*
X10784120Y29725658D01*
X10779037Y29683905D01*
X10760662Y29658658D01*
X10723539Y29642530D01*
X10722543Y29642242D01*
X10669910Y29635900D01*
X10618406Y29644184D01*
X10580130Y29664327D01*
X10564772Y29674273D01*
X10548230Y29672897D01*
X10522775Y29658487D01*
X10507828Y29648317D01*
X10478591Y29626588D01*
X10460480Y29610300D01*
X10457574Y29605637D01*
X10469540Y29581505D01*
X10504896Y29552685D01*
X10520253Y29542961D01*
X10564401Y29526214D01*
X10623898Y29516727D01*
X10689987Y29514595D01*
X10753911Y29519917D01*
X10753911Y29519917D01*
G37*
X10753911Y29519917D02*
X10806911Y29532790D01*
X10822231Y29539610D01*
X10851928Y29557474D01*
X10874720Y29577593D01*
X10891583Y29603462D01*
X10903498Y29638573D01*
X10911442Y29686420D01*
X10916394Y29750496D01*
X10919331Y29834294D01*
X10920447Y29890268D01*
X10924552Y30132322D01*
X10854432Y30132322D01*
X10811893Y30130538D01*
X10789976Y30124442D01*
X10784312Y30114206D01*
X10781321Y30103137D01*
X10767951Y30105254D01*
X10749733Y30114129D01*
X10704124Y30127733D01*
X10645507Y30131399D01*
X10583854Y30125403D01*
X10529138Y30110021D01*
X10524230Y30107886D01*
X10474223Y30072755D01*
X10441256Y30023919D01*
X10426087Y29966833D01*
X10427246Y29946324D01*
X10551008Y29946324D01*
X10561913Y29973925D01*
X10594245Y29993704D01*
X10646410Y30004319D01*
X10674287Y30005728D01*
X10720747Y30002120D01*
X10751629Y29988097D01*
X10759164Y29981431D01*
X10779576Y29945166D01*
X10784312Y29912273D01*
X10784312Y29868263D01*
X10723013Y29868263D01*
X10651756Y29871895D01*
X10601776Y29883318D01*
X10570196Y29903324D01*
X10563126Y29912243D01*
X10551008Y29946324D01*
X10427246Y29946324D01*
X10429471Y29906956D01*
X10452163Y29849744D01*
X10483124Y29811080D01*
X10501876Y29794364D01*
X10520233Y29783378D01*
X10544119Y29776680D01*
X10579457Y29772826D01*
X10632169Y29770373D01*
X10653077Y29769668D01*
X10784312Y29765379D01*
X10784120Y29725658D01*
X10779037Y29683905D01*
X10760662Y29658658D01*
X10723539Y29642530D01*
X10722543Y29642242D01*
X10669910Y29635900D01*
X10618406Y29644184D01*
X10580130Y29664327D01*
X10564772Y29674273D01*
X10548230Y29672897D01*
X10522775Y29658487D01*
X10507828Y29648317D01*
X10478591Y29626588D01*
X10460480Y29610300D01*
X10457574Y29605637D01*
X10469540Y29581505D01*
X10504896Y29552685D01*
X10520253Y29542961D01*
X10564401Y29526214D01*
X10623898Y29516727D01*
X10689987Y29514595D01*
X10753911Y29519917D01*
G36*
X11350755Y29515986D02*
X11399095Y29525515D01*
X11426614Y29539625D01*
X11455564Y29563068D01*
X11414376Y29615071D01*
X11388982Y29646564D01*
X11371738Y29661928D01*
X11354602Y29664276D01*
X11329527Y29656717D01*
X11317757Y29652441D01*
X11269770Y29646131D01*
X11225824Y29659656D01*
X11193560Y29690210D01*
X11188319Y29699952D01*
X11182612Y29725758D01*
X11178206Y29773317D01*
X11175311Y29839258D01*
X11174131Y29920210D01*
X11174114Y29931726D01*
X11174114Y30132322D01*
X11035797Y30132322D01*
X11035797Y29516183D01*
X11104956Y29516183D01*
X11144833Y29517225D01*
X11165607Y29521858D01*
X11173289Y29532349D01*
X11174114Y29542245D01*
X11174114Y29568306D01*
X11207245Y29542245D01*
X11245235Y29524465D01*
X11296270Y29515674D01*
X11350755Y29515986D01*
X11350755Y29515986D01*
G37*
X11350755Y29515986D02*
X11399095Y29525515D01*
X11426614Y29539625D01*
X11455564Y29563068D01*
X11414376Y29615071D01*
X11388982Y29646564D01*
X11371738Y29661928D01*
X11354602Y29664276D01*
X11329527Y29656717D01*
X11317757Y29652441D01*
X11269770Y29646131D01*
X11225824Y29659656D01*
X11193560Y29690210D01*
X11188319Y29699952D01*
X11182612Y29725758D01*
X11178206Y29773317D01*
X11175311Y29839258D01*
X11174131Y29920210D01*
X11174114Y29931726D01*
X11174114Y30132322D01*
X11035797Y30132322D01*
X11035797Y29516183D01*
X11104956Y29516183D01*
X11144833Y29517225D01*
X11165607Y29521858D01*
X11173289Y29532349D01*
X11174114Y29542245D01*
X11174114Y29568306D01*
X11207245Y29542245D01*
X11245235Y29524465D01*
X11296270Y29515674D01*
X11350755Y29515986D01*
G36*
X11748081Y29519470D02*
X11808185Y29535097D01*
X11858521Y29567348D01*
X11882893Y29591440D01*
X11922845Y29648395D01*
X11945742Y29714465D01*
X11953608Y29795682D01*
X11953648Y29802248D01*
X11953718Y29868263D01*
X11573764Y29868263D01*
X11581863Y29902842D01*
X11596487Y29934159D01*
X11622081Y29966791D01*
X11627435Y29972000D01*
X11673443Y30000194D01*
X11725910Y30004975D01*
X11786303Y29986426D01*
X11796540Y29981431D01*
X11827939Y29966245D01*
X11848970Y29957594D01*
X11852639Y29956793D01*
X11865448Y29964563D01*
X11889878Y29983572D01*
X11902279Y29993960D01*
X11927976Y30017821D01*
X11936415Y30033577D01*
X11930558Y30048071D01*
X11927428Y30052034D01*
X11906225Y30069379D01*
X11871238Y30090459D01*
X11846837Y30102765D01*
X11777572Y30124446D01*
X11700888Y30131471D01*
X11628265Y30123147D01*
X11607926Y30117186D01*
X11544976Y30083452D01*
X11498315Y30031545D01*
X11467673Y29960959D01*
X11452782Y29871192D01*
X11451147Y29824253D01*
X11455921Y29755913D01*
X11576490Y29755913D01*
X11588152Y29760965D01*
X11619498Y29764929D01*
X11665071Y29767268D01*
X11695946Y29767669D01*
X11751481Y29767283D01*
X11786533Y29765475D01*
X11805762Y29761273D01*
X11813830Y29753703D01*
X11815401Y29742718D01*
X11804621Y29708881D01*
X11777480Y29675440D01*
X11741777Y29649772D01*
X11706060Y29639272D01*
X11657548Y29648586D01*
X11615553Y29675513D01*
X11586436Y29714327D01*
X11576490Y29755913D01*
X11455921Y29755913D01*
X11458099Y29724736D01*
X11479555Y29645449D01*
X11515970Y29585763D01*
X11567797Y29545049D01*
X11635490Y29522679D01*
X11672162Y29518371D01*
X11748081Y29519470D01*
X11748081Y29519470D01*
G37*
X11748081Y29519470D02*
X11808185Y29535097D01*
X11858521Y29567348D01*
X11882893Y29591440D01*
X11922845Y29648395D01*
X11945742Y29714465D01*
X11953608Y29795682D01*
X11953648Y29802248D01*
X11953718Y29868263D01*
X11573764Y29868263D01*
X11581863Y29902842D01*
X11596487Y29934159D01*
X11622081Y29966791D01*
X11627435Y29972000D01*
X11673443Y30000194D01*
X11725910Y30004975D01*
X11786303Y29986426D01*
X11796540Y29981431D01*
X11827939Y29966245D01*
X11848970Y29957594D01*
X11852639Y29956793D01*
X11865448Y29964563D01*
X11889878Y29983572D01*
X11902279Y29993960D01*
X11927976Y30017821D01*
X11936415Y30033577D01*
X11930558Y30048071D01*
X11927428Y30052034D01*
X11906225Y30069379D01*
X11871238Y30090459D01*
X11846837Y30102765D01*
X11777572Y30124446D01*
X11700888Y30131471D01*
X11628265Y30123147D01*
X11607926Y30117186D01*
X11544976Y30083452D01*
X11498315Y30031545D01*
X11467673Y29960959D01*
X11452782Y29871192D01*
X11451147Y29824253D01*
X11455921Y29755913D01*
X11576490Y29755913D01*
X11588152Y29760965D01*
X11619498Y29764929D01*
X11665071Y29767268D01*
X11695946Y29767669D01*
X11751481Y29767283D01*
X11786533Y29765475D01*
X11805762Y29761273D01*
X11813830Y29753703D01*
X11815401Y29742718D01*
X11804621Y29708881D01*
X11777480Y29675440D01*
X11741777Y29649772D01*
X11706060Y29639272D01*
X11657548Y29648586D01*
X11615553Y29675513D01*
X11586436Y29714327D01*
X11576490Y29755913D01*
X11455921Y29755913D01*
X11458099Y29724736D01*
X11479555Y29645449D01*
X11515970Y29585763D01*
X11567797Y29545049D01*
X11635490Y29522679D01*
X11672162Y29518371D01*
X11748081Y29519470D01*
G36*
X7177239Y28579648D02*
X7243021Y28608731D01*
X7292960Y28657293D01*
X7327126Y28725408D01*
X7345593Y28813151D01*
X7346917Y28826851D01*
X7347954Y28923439D01*
X7334507Y29008102D01*
X7307392Y29076721D01*
X7292873Y29098794D01*
X7242299Y29145511D01*
X7177891Y29175768D01*
X7105834Y29188324D01*
X7032315Y29181939D01*
X6976428Y29162272D01*
X6928368Y29129129D01*
X6889088Y29085675D01*
X6888408Y29084658D01*
X6872456Y29057838D01*
X6862090Y29030868D01*
X6855812Y28996832D01*
X6852127Y28948810D01*
X6850503Y28909431D01*
X6849828Y28873719D01*
X6975545Y28873719D01*
X6976774Y28909270D01*
X6981234Y28956594D01*
X6989103Y28986965D01*
X7003293Y29008572D01*
X7016583Y29021194D01*
X7063698Y29047622D01*
X7112995Y29051153D01*
X7158907Y29032139D01*
X7181862Y29010831D01*
X7198404Y28989359D01*
X7208079Y28968813D01*
X7212326Y28942074D01*
X7212580Y28902023D01*
X7211272Y28865138D01*
X7208457Y28812447D01*
X7203995Y28778272D01*
X7195952Y28755980D01*
X7182397Y28738942D01*
X7171655Y28729203D01*
X7126723Y28703623D01*
X7078251Y28702347D01*
X7037606Y28717499D01*
X7002933Y28749142D01*
X6982276Y28801120D01*
X6975545Y28873719D01*
X6849828Y28873719D01*
X6849021Y28831121D01*
X6851552Y28772556D01*
X6859138Y28728507D01*
X6872819Y28693748D01*
X6893635Y28663051D01*
X6901353Y28653936D01*
X6949611Y28608521D01*
X7001372Y28581993D01*
X7064672Y28570879D01*
X7095539Y28569971D01*
X7177239Y28579648D01*
X7177239Y28579648D01*
G37*
X7177239Y28579648D02*
X7243021Y28608731D01*
X7292960Y28657293D01*
X7327126Y28725408D01*
X7345593Y28813151D01*
X7346917Y28826851D01*
X7347954Y28923439D01*
X7334507Y29008102D01*
X7307392Y29076721D01*
X7292873Y29098794D01*
X7242299Y29145511D01*
X7177891Y29175768D01*
X7105834Y29188324D01*
X7032315Y29181939D01*
X6976428Y29162272D01*
X6928368Y29129129D01*
X6889088Y29085675D01*
X6888408Y29084658D01*
X6872456Y29057838D01*
X6862090Y29030868D01*
X6855812Y28996832D01*
X6852127Y28948810D01*
X6850503Y28909431D01*
X6849828Y28873719D01*
X6975545Y28873719D01*
X6976774Y28909270D01*
X6981234Y28956594D01*
X6989103Y28986965D01*
X7003293Y29008572D01*
X7016583Y29021194D01*
X7063698Y29047622D01*
X7112995Y29051153D01*
X7158907Y29032139D01*
X7181862Y29010831D01*
X7198404Y28989359D01*
X7208079Y28968813D01*
X7212326Y28942074D01*
X7212580Y28902023D01*
X7211272Y28865138D01*
X7208457Y28812447D01*
X7203995Y28778272D01*
X7195952Y28755980D01*
X7182397Y28738942D01*
X7171655Y28729203D01*
X7126723Y28703623D01*
X7078251Y28702347D01*
X7037606Y28717499D01*
X7002933Y28749142D01*
X6982276Y28801120D01*
X6975545Y28873719D01*
X6849828Y28873719D01*
X6849021Y28831121D01*
X6851552Y28772556D01*
X6859138Y28728507D01*
X6872819Y28693748D01*
X6893635Y28663051D01*
X6901353Y28653936D01*
X6949611Y28608521D01*
X7001372Y28581993D01*
X7064672Y28570879D01*
X7095539Y28569971D01*
X7177239Y28579648D01*
G36*
X8358801Y28587114D02*
X8371332Y28593014D01*
X8414701Y28624783D01*
X8455710Y28671146D01*
X8486332Y28722196D01*
X8495041Y28745666D01*
X8502988Y28787591D01*
X8507726Y28838257D01*
X8508301Y28859179D01*
X8508371Y28925193D01*
X8128417Y28925193D01*
X8136517Y28959773D01*
X8156396Y29000670D01*
X8191153Y29036014D01*
X8232502Y29058782D01*
X8258851Y29063510D01*
X8294584Y29057773D01*
X8337218Y29043382D01*
X8351701Y29036762D01*
X8405260Y29010013D01*
X8450967Y29044876D01*
X8477342Y29068455D01*
X8491376Y29087917D01*
X8492086Y29093629D01*
X8479549Y29107473D01*
X8452072Y29128512D01*
X8427134Y29144925D01*
X8359836Y29174430D01*
X8284390Y29187784D01*
X8209612Y29184312D01*
X8150005Y29166163D01*
X8088559Y29127284D01*
X8044892Y29076095D01*
X8017574Y29009867D01*
X8005178Y28925871D01*
X8004079Y28887436D01*
X8008478Y28799361D01*
X8009018Y28796799D01*
X8134918Y28796799D01*
X8138385Y28805058D01*
X8152637Y28809613D01*
X8182030Y28811565D01*
X8230925Y28812017D01*
X8249752Y28812025D01*
X8307033Y28811343D01*
X8343359Y28808864D01*
X8362896Y28803943D01*
X8369810Y28795934D01*
X8370055Y28793362D01*
X8362164Y28772923D01*
X8342415Y28744289D01*
X8333925Y28734263D01*
X8302406Y28705908D01*
X8269551Y28694759D01*
X8251849Y28693827D01*
X8203961Y28705481D01*
X8163801Y28736785D01*
X8138327Y28782252D01*
X8137875Y28783733D01*
X8134918Y28796799D01*
X8009018Y28796799D01*
X8023108Y28730010D01*
X8049462Y28674525D01*
X8081693Y28635139D01*
X8141283Y28592431D01*
X8211332Y28569609D01*
X8285839Y28567546D01*
X8358801Y28587114D01*
X8358801Y28587114D01*
G37*
X8358801Y28587114D02*
X8371332Y28593014D01*
X8414701Y28624783D01*
X8455710Y28671146D01*
X8486332Y28722196D01*
X8495041Y28745666D01*
X8502988Y28787591D01*
X8507726Y28838257D01*
X8508301Y28859179D01*
X8508371Y28925193D01*
X8128417Y28925193D01*
X8136517Y28959773D01*
X8156396Y29000670D01*
X8191153Y29036014D01*
X8232502Y29058782D01*
X8258851Y29063510D01*
X8294584Y29057773D01*
X8337218Y29043382D01*
X8351701Y29036762D01*
X8405260Y29010013D01*
X8450967Y29044876D01*
X8477342Y29068455D01*
X8491376Y29087917D01*
X8492086Y29093629D01*
X8479549Y29107473D01*
X8452072Y29128512D01*
X8427134Y29144925D01*
X8359836Y29174430D01*
X8284390Y29187784D01*
X8209612Y29184312D01*
X8150005Y29166163D01*
X8088559Y29127284D01*
X8044892Y29076095D01*
X8017574Y29009867D01*
X8005178Y28925871D01*
X8004079Y28887436D01*
X8008478Y28799361D01*
X8009018Y28796799D01*
X8134918Y28796799D01*
X8138385Y28805058D01*
X8152637Y28809613D01*
X8182030Y28811565D01*
X8230925Y28812017D01*
X8249752Y28812025D01*
X8307033Y28811343D01*
X8343359Y28808864D01*
X8362896Y28803943D01*
X8369810Y28795934D01*
X8370055Y28793362D01*
X8362164Y28772923D01*
X8342415Y28744289D01*
X8333925Y28734263D01*
X8302406Y28705908D01*
X8269551Y28694759D01*
X8251849Y28693827D01*
X8203961Y28705481D01*
X8163801Y28736785D01*
X8138327Y28782252D01*
X8137875Y28783733D01*
X8134918Y28796799D01*
X8009018Y28796799D01*
X8023108Y28730010D01*
X8049462Y28674525D01*
X8081693Y28635139D01*
X8141283Y28592431D01*
X8211332Y28569609D01*
X8285839Y28567546D01*
X8358801Y28587114D01*
G36*
X9729517Y28570952D02*
X9777134Y28579982D01*
X9826534Y28598870D01*
X9831812Y28601277D01*
X9869274Y28620976D01*
X9895217Y28639281D01*
X9903603Y28651008D01*
X9895617Y28670132D01*
X9876220Y28698350D01*
X9867610Y28708884D01*
X9832128Y28750347D01*
X9786385Y28723358D01*
X9742850Y28705378D01*
X9692550Y28695767D01*
X9644312Y28695160D01*
X9606967Y28704191D01*
X9598005Y28709827D01*
X9580937Y28735671D01*
X9578863Y28765441D01*
X9591634Y28788697D01*
X9599188Y28793208D01*
X9621825Y28798809D01*
X9661615Y28805392D01*
X9710666Y28811683D01*
X9719715Y28812670D01*
X9798496Y28826298D01*
X9855636Y28849446D01*
X9893530Y28884252D01*
X9914579Y28932854D01*
X9921135Y28992218D01*
X9912077Y29059698D01*
X9882664Y29112688D01*
X9832778Y29151283D01*
X9762300Y29175581D01*
X9684065Y29185167D01*
X9620266Y29185052D01*
X9568516Y29176345D01*
X9533173Y29164325D01*
X9488517Y29143380D01*
X9447247Y29119074D01*
X9432579Y29108376D01*
X9394857Y29077584D01*
X9440352Y29031549D01*
X9485847Y28985513D01*
X9537572Y29019743D01*
X9589452Y29045452D01*
X9644851Y29058899D01*
X9698105Y29060318D01*
X9743549Y29049943D01*
X9775516Y29028007D01*
X9785838Y29009498D01*
X9784289Y28979814D01*
X9758640Y28957115D01*
X9708960Y28941440D01*
X9654531Y28934195D01*
X9570764Y28920373D01*
X9508533Y28894296D01*
X9467007Y28855199D01*
X9445353Y28802320D01*
X9442353Y28739626D01*
X9457171Y28674142D01*
X9490954Y28624644D01*
X9544005Y28590908D01*
X9616626Y28572707D01*
X9670428Y28569139D01*
X9729517Y28570952D01*
X9729517Y28570952D01*
G37*
X9729517Y28570952D02*
X9777134Y28579982D01*
X9826534Y28598870D01*
X9831812Y28601277D01*
X9869274Y28620976D01*
X9895217Y28639281D01*
X9903603Y28651008D01*
X9895617Y28670132D01*
X9876220Y28698350D01*
X9867610Y28708884D01*
X9832128Y28750347D01*
X9786385Y28723358D01*
X9742850Y28705378D01*
X9692550Y28695767D01*
X9644312Y28695160D01*
X9606967Y28704191D01*
X9598005Y28709827D01*
X9580937Y28735671D01*
X9578863Y28765441D01*
X9591634Y28788697D01*
X9599188Y28793208D01*
X9621825Y28798809D01*
X9661615Y28805392D01*
X9710666Y28811683D01*
X9719715Y28812670D01*
X9798496Y28826298D01*
X9855636Y28849446D01*
X9893530Y28884252D01*
X9914579Y28932854D01*
X9921135Y28992218D01*
X9912077Y29059698D01*
X9882664Y29112688D01*
X9832778Y29151283D01*
X9762300Y29175581D01*
X9684065Y29185167D01*
X9620266Y29185052D01*
X9568516Y29176345D01*
X9533173Y29164325D01*
X9488517Y29143380D01*
X9447247Y29119074D01*
X9432579Y29108376D01*
X9394857Y29077584D01*
X9440352Y29031549D01*
X9485847Y28985513D01*
X9537572Y29019743D01*
X9589452Y29045452D01*
X9644851Y29058899D01*
X9698105Y29060318D01*
X9743549Y29049943D01*
X9775516Y29028007D01*
X9785838Y29009498D01*
X9784289Y28979814D01*
X9758640Y28957115D01*
X9708960Y28941440D01*
X9654531Y28934195D01*
X9570764Y28920373D01*
X9508533Y28894296D01*
X9467007Y28855199D01*
X9445353Y28802320D01*
X9442353Y28739626D01*
X9457171Y28674142D01*
X9490954Y28624644D01*
X9544005Y28590908D01*
X9616626Y28572707D01*
X9670428Y28569139D01*
X9729517Y28570952D01*
G36*
X10326262Y28580555D02*
X10389863Y28615192D01*
X10439623Y28669872D01*
X10463068Y28714342D01*
X10473134Y28753621D01*
X10479656Y28809616D01*
X10482451Y28874121D01*
X10481336Y28938929D01*
X10476126Y28995834D01*
X10470041Y29026227D01*
X10449514Y29067806D01*
X10413963Y29111968D01*
X10371119Y29150587D01*
X10328711Y29175534D01*
X10327677Y29175930D01*
X10275053Y29186831D01*
X10212688Y29187101D01*
X10153424Y29177176D01*
X10130540Y29169222D01*
X10071602Y29135800D01*
X10029390Y29092011D01*
X10001656Y29034038D01*
X9986151Y28958065D01*
X9982643Y28918271D01*
X9983090Y28868266D01*
X10117876Y28868266D01*
X10122417Y28941232D01*
X10135486Y28996834D01*
X10156256Y29032361D01*
X10171052Y29042520D01*
X10208964Y29049604D01*
X10254027Y29047507D01*
X10292987Y29037312D01*
X10303204Y29031704D01*
X10330159Y28999038D01*
X10347951Y28949045D01*
X10355524Y28888205D01*
X10351825Y28822997D01*
X10343557Y28783753D01*
X10319820Y28738305D01*
X10282349Y28709896D01*
X10237220Y28700073D01*
X10190511Y28710387D01*
X10154632Y28735612D01*
X10135777Y28756425D01*
X10124772Y28776939D01*
X10119526Y28804703D01*
X10117949Y28847262D01*
X10117876Y28868266D01*
X9983090Y28868266D01*
X9983594Y28812080D01*
X10000888Y28725001D01*
X10034529Y28657030D01*
X10084518Y28608164D01*
X10150856Y28578399D01*
X10165101Y28574948D01*
X10250710Y28566845D01*
X10326262Y28580555D01*
X10326262Y28580555D01*
G37*
X10326262Y28580555D02*
X10389863Y28615192D01*
X10439623Y28669872D01*
X10463068Y28714342D01*
X10473134Y28753621D01*
X10479656Y28809616D01*
X10482451Y28874121D01*
X10481336Y28938929D01*
X10476126Y28995834D01*
X10470041Y29026227D01*
X10449514Y29067806D01*
X10413963Y29111968D01*
X10371119Y29150587D01*
X10328711Y29175534D01*
X10327677Y29175930D01*
X10275053Y29186831D01*
X10212688Y29187101D01*
X10153424Y29177176D01*
X10130540Y29169222D01*
X10071602Y29135800D01*
X10029390Y29092011D01*
X10001656Y29034038D01*
X9986151Y28958065D01*
X9982643Y28918271D01*
X9983090Y28868266D01*
X10117876Y28868266D01*
X10122417Y28941232D01*
X10135486Y28996834D01*
X10156256Y29032361D01*
X10171052Y29042520D01*
X10208964Y29049604D01*
X10254027Y29047507D01*
X10292987Y29037312D01*
X10303204Y29031704D01*
X10330159Y28999038D01*
X10347951Y28949045D01*
X10355524Y28888205D01*
X10351825Y28822997D01*
X10343557Y28783753D01*
X10319820Y28738305D01*
X10282349Y28709896D01*
X10237220Y28700073D01*
X10190511Y28710387D01*
X10154632Y28735612D01*
X10135777Y28756425D01*
X10124772Y28776939D01*
X10119526Y28804703D01*
X10117949Y28847262D01*
X10117876Y28868266D01*
X9983090Y28868266D01*
X9983594Y28812080D01*
X10000888Y28725001D01*
X10034529Y28657030D01*
X10084518Y28608164D01*
X10150856Y28578399D01*
X10165101Y28574948D01*
X10250710Y28566845D01*
X10326262Y28580555D01*
G36*
X10708867Y28768842D02*
X10710055Y28861063D01*
X10714397Y28931110D01*
X10723058Y28981881D01*
X10737204Y29016272D01*
X10758000Y29037179D01*
X10786610Y29047500D01*
X10822035Y29050136D01*
X10859136Y29047182D01*
X10887318Y29036389D01*
X10907743Y29014860D01*
X10921579Y28979699D01*
X10929991Y28928010D01*
X10934143Y28856894D01*
X10935203Y28768842D01*
X10935203Y28573114D01*
X11073520Y28573114D01*
X11073520Y29176679D01*
X11004362Y29176679D01*
X10962670Y29174989D01*
X10941201Y29169056D01*
X10935203Y29157793D01*
X10931591Y29147761D01*
X10917214Y29149883D01*
X10888236Y29164080D01*
X10821819Y29185980D01*
X10751375Y29184428D01*
X10683877Y29160647D01*
X10651733Y29141862D01*
X10627215Y29121522D01*
X10609304Y29096073D01*
X10596979Y29061958D01*
X10589223Y29015621D01*
X10585016Y28953507D01*
X10583340Y28872061D01*
X10583124Y28809078D01*
X10583124Y28573114D01*
X10708867Y28573114D01*
X10708867Y28768842D01*
X10708867Y28768842D01*
G37*
X10708867Y28768842D02*
X10710055Y28861063D01*
X10714397Y28931110D01*
X10723058Y28981881D01*
X10737204Y29016272D01*
X10758000Y29037179D01*
X10786610Y29047500D01*
X10822035Y29050136D01*
X10859136Y29047182D01*
X10887318Y29036389D01*
X10907743Y29014860D01*
X10921579Y28979699D01*
X10929991Y28928010D01*
X10934143Y28856894D01*
X10935203Y28768842D01*
X10935203Y28573114D01*
X11073520Y28573114D01*
X11073520Y29176679D01*
X11004362Y29176679D01*
X10962670Y29174989D01*
X10941201Y29169056D01*
X10935203Y29157793D01*
X10931591Y29147761D01*
X10917214Y29149883D01*
X10888236Y29164080D01*
X10821819Y29185980D01*
X10751375Y29184428D01*
X10683877Y29160647D01*
X10651733Y29141862D01*
X10627215Y29121522D01*
X10609304Y29096073D01*
X10596979Y29061958D01*
X10589223Y29015621D01*
X10585016Y28953507D01*
X10583340Y28872061D01*
X10583124Y28809078D01*
X10583124Y28573114D01*
X10708867Y28573114D01*
X10708867Y28768842D01*
G36*
X11932726Y28578380D02*
X12005580Y28609330D01*
X12028527Y28624395D01*
X12057854Y28647548D01*
X12076264Y28665753D01*
X12079461Y28671683D01*
X12070435Y28684840D01*
X12047337Y28707167D01*
X12028844Y28722750D01*
X11978228Y28763426D01*
X11938260Y28729795D01*
X11907374Y28708084D01*
X11877259Y28700590D01*
X11842792Y28702420D01*
X11788061Y28716028D01*
X11750386Y28744272D01*
X11727491Y28789933D01*
X11717097Y28855789D01*
X11717095Y28855831D01*
X11717994Y28929439D01*
X11731963Y28983446D01*
X11759828Y29020216D01*
X11778825Y29032668D01*
X11829276Y29048173D01*
X11883163Y29048183D01*
X11930046Y29033138D01*
X11941144Y29025787D01*
X11968976Y29007011D01*
X11990736Y29003934D01*
X12014204Y29017909D01*
X12040149Y29043010D01*
X12081216Y29085380D01*
X12035621Y29122964D01*
X11965174Y29165382D01*
X11885733Y29186285D01*
X11802715Y29184772D01*
X11748194Y29170911D01*
X11684470Y29136635D01*
X11633505Y29082712D01*
X11610351Y29044649D01*
X11591599Y28990036D01*
X11582215Y28920869D01*
X11582143Y28845907D01*
X11591324Y28773909D01*
X11609699Y28713637D01*
X11612593Y28707458D01*
X11655452Y28646851D01*
X11713479Y28602724D01*
X11782091Y28575993D01*
X11856701Y28567573D01*
X11932726Y28578380D01*
X11932726Y28578380D01*
G37*
X11932726Y28578380D02*
X12005580Y28609330D01*
X12028527Y28624395D01*
X12057854Y28647548D01*
X12076264Y28665753D01*
X12079461Y28671683D01*
X12070435Y28684840D01*
X12047337Y28707167D01*
X12028844Y28722750D01*
X11978228Y28763426D01*
X11938260Y28729795D01*
X11907374Y28708084D01*
X11877259Y28700590D01*
X11842792Y28702420D01*
X11788061Y28716028D01*
X11750386Y28744272D01*
X11727491Y28789933D01*
X11717097Y28855789D01*
X11717095Y28855831D01*
X11717994Y28929439D01*
X11731963Y28983446D01*
X11759828Y29020216D01*
X11778825Y29032668D01*
X11829276Y29048173D01*
X11883163Y29048183D01*
X11930046Y29033138D01*
X11941144Y29025787D01*
X11968976Y29007011D01*
X11990736Y29003934D01*
X12014204Y29017909D01*
X12040149Y29043010D01*
X12081216Y29085380D01*
X12035621Y29122964D01*
X11965174Y29165382D01*
X11885733Y29186285D01*
X11802715Y29184772D01*
X11748194Y29170911D01*
X11684470Y29136635D01*
X11633505Y29082712D01*
X11610351Y29044649D01*
X11591599Y28990036D01*
X11582215Y28920869D01*
X11582143Y28845907D01*
X11591324Y28773909D01*
X11609699Y28713637D01*
X11612593Y28707458D01*
X11655452Y28646851D01*
X11713479Y28602724D01*
X11782091Y28575993D01*
X11856701Y28567573D01*
X11932726Y28578380D01*
G36*
X12393398Y28570957D02*
X12425596Y28578779D01*
X12487325Y28607421D01*
X12540110Y28651167D01*
X12576641Y28703617D01*
X12581660Y28715393D01*
X12588545Y28746240D01*
X12593364Y28791871D01*
X12595005Y28837992D01*
X12595005Y28925193D01*
X12412678Y28925193D01*
X12337479Y28925478D01*
X12284503Y28927204D01*
X12250825Y28931681D01*
X12233520Y28940220D01*
X12229663Y28954130D01*
X12236329Y28974722D01*
X12248270Y28998815D01*
X12281580Y29039025D01*
X12327868Y29059058D01*
X12384444Y29058405D01*
X12448531Y29036601D01*
X12503917Y29009693D01*
X12549875Y29046032D01*
X12595833Y29082372D01*
X12552596Y29122319D01*
X12494874Y29160063D01*
X12423886Y29182820D01*
X12347529Y29189188D01*
X12273699Y29177768D01*
X12261787Y29173893D01*
X12196899Y29140006D01*
X12148630Y29089486D01*
X12115965Y29020825D01*
X12097885Y28932514D01*
X12097675Y28930621D01*
X12096056Y28834378D01*
X12102600Y28800042D01*
X12230352Y28800042D01*
X12242084Y28805322D01*
X12273938Y28809367D01*
X12320897Y28811676D01*
X12350654Y28812025D01*
X12406148Y28811806D01*
X12440846Y28810416D01*
X12459101Y28806751D01*
X12465266Y28799710D01*
X12463695Y28788190D01*
X12462378Y28783733D01*
X12439882Y28741855D01*
X12404503Y28708104D01*
X12373280Y28693273D01*
X12331801Y28694168D01*
X12289769Y28712664D01*
X12254512Y28743286D01*
X12233354Y28780562D01*
X12230352Y28800042D01*
X12102600Y28800042D01*
X12112190Y28749729D01*
X12144198Y28678691D01*
X12190201Y28623279D01*
X12248321Y28585509D01*
X12316680Y28567396D01*
X12393398Y28570957D01*
X12393398Y28570957D01*
G37*
X12393398Y28570957D02*
X12425596Y28578779D01*
X12487325Y28607421D01*
X12540110Y28651167D01*
X12576641Y28703617D01*
X12581660Y28715393D01*
X12588545Y28746240D01*
X12593364Y28791871D01*
X12595005Y28837992D01*
X12595005Y28925193D01*
X12412678Y28925193D01*
X12337479Y28925478D01*
X12284503Y28927204D01*
X12250825Y28931681D01*
X12233520Y28940220D01*
X12229663Y28954130D01*
X12236329Y28974722D01*
X12248270Y28998815D01*
X12281580Y29039025D01*
X12327868Y29059058D01*
X12384444Y29058405D01*
X12448531Y29036601D01*
X12503917Y29009693D01*
X12549875Y29046032D01*
X12595833Y29082372D01*
X12552596Y29122319D01*
X12494874Y29160063D01*
X12423886Y29182820D01*
X12347529Y29189188D01*
X12273699Y29177768D01*
X12261787Y29173893D01*
X12196899Y29140006D01*
X12148630Y29089486D01*
X12115965Y29020825D01*
X12097885Y28932514D01*
X12097675Y28930621D01*
X12096056Y28834378D01*
X12102600Y28800042D01*
X12230352Y28800042D01*
X12242084Y28805322D01*
X12273938Y28809367D01*
X12320897Y28811676D01*
X12350654Y28812025D01*
X12406148Y28811806D01*
X12440846Y28810416D01*
X12459101Y28806751D01*
X12465266Y28799710D01*
X12463695Y28788190D01*
X12462378Y28783733D01*
X12439882Y28741855D01*
X12404503Y28708104D01*
X12373280Y28693273D01*
X12331801Y28694168D01*
X12289769Y28712664D01*
X12254512Y28743286D01*
X12233354Y28780562D01*
X12230352Y28800042D01*
X12102600Y28800042D01*
X12112190Y28749729D01*
X12144198Y28678691D01*
X12190201Y28623279D01*
X12248321Y28585509D01*
X12316680Y28567396D01*
X12393398Y28570957D01*
G36*
X8961488Y28583502D02*
X8992783Y28598450D01*
X9023091Y28620041D01*
X9046182Y28644891D01*
X9063000Y28676587D01*
X9074494Y28718714D01*
X9081609Y28774858D01*
X9085293Y28848606D01*
X9086492Y28943544D01*
X9086511Y28953485D01*
X9086787Y29176679D01*
X8948470Y29176679D01*
X8948470Y28970918D01*
X8948372Y28894689D01*
X8947691Y28839439D01*
X8945849Y28801001D01*
X8942267Y28775206D01*
X8936368Y28757884D01*
X8927573Y28744868D01*
X8915320Y28732007D01*
X8872453Y28704373D01*
X8825657Y28699245D01*
X8781076Y28716717D01*
X8765572Y28729721D01*
X8754190Y28741947D01*
X8746019Y28755040D01*
X8740526Y28773115D01*
X8737180Y28800287D01*
X8735449Y28840670D01*
X8734803Y28898379D01*
X8734708Y28968632D01*
X8734708Y29176679D01*
X8596391Y29176679D01*
X8596391Y28573114D01*
X8665550Y28573114D01*
X8707072Y28574756D01*
X8728494Y28580587D01*
X8734705Y28591961D01*
X8734708Y28592298D01*
X8737590Y28603438D01*
X8750301Y28602174D01*
X8775574Y28589934D01*
X8832895Y28571924D01*
X8898463Y28569921D01*
X8961488Y28583502D01*
X8961488Y28583502D01*
G37*
X8961488Y28583502D02*
X8992783Y28598450D01*
X9023091Y28620041D01*
X9046182Y28644891D01*
X9063000Y28676587D01*
X9074494Y28718714D01*
X9081609Y28774858D01*
X9085293Y28848606D01*
X9086492Y28943544D01*
X9086511Y28953485D01*
X9086787Y29176679D01*
X8948470Y29176679D01*
X8948470Y28970918D01*
X8948372Y28894689D01*
X8947691Y28839439D01*
X8945849Y28801001D01*
X8942267Y28775206D01*
X8936368Y28757884D01*
X8927573Y28744868D01*
X8915320Y28732007D01*
X8872453Y28704373D01*
X8825657Y28699245D01*
X8781076Y28716717D01*
X8765572Y28729721D01*
X8754190Y28741947D01*
X8746019Y28755040D01*
X8740526Y28773115D01*
X8737180Y28800287D01*
X8735449Y28840670D01*
X8734803Y28898379D01*
X8734708Y28968632D01*
X8734708Y29176679D01*
X8596391Y29176679D01*
X8596391Y28573114D01*
X8665550Y28573114D01*
X8707072Y28574756D01*
X8728494Y28580587D01*
X8734705Y28591961D01*
X8734708Y28592298D01*
X8737590Y28603438D01*
X8750301Y28602174D01*
X8775574Y28589934D01*
X8832895Y28571924D01*
X8898463Y28569921D01*
X8961488Y28583502D01*
G36*
X11514960Y28572530D02*
X11558211Y28585745D01*
X11586058Y28602441D01*
X11595129Y28615645D01*
X11592632Y28631297D01*
X11576431Y28655885D01*
X11562732Y28673300D01*
X11534492Y28704783D01*
X11513275Y28718029D01*
X11495188Y28717164D01*
X11441535Y28703510D01*
X11402130Y28704130D01*
X11370132Y28719604D01*
X11359390Y28728661D01*
X11325005Y28760527D01*
X11325005Y29176679D01*
X11186688Y29176679D01*
X11186688Y28573114D01*
X11255847Y28573114D01*
X11297369Y28574756D01*
X11318791Y28580587D01*
X11325002Y28591961D01*
X11325005Y28592298D01*
X11327939Y28604213D01*
X11341204Y28602659D01*
X11359584Y28594063D01*
X11397546Y28578068D01*
X11428372Y28568445D01*
X11468036Y28565978D01*
X11514960Y28572530D01*
X11514960Y28572530D01*
G37*
X11514960Y28572530D02*
X11558211Y28585745D01*
X11586058Y28602441D01*
X11595129Y28615645D01*
X11592632Y28631297D01*
X11576431Y28655885D01*
X11562732Y28673300D01*
X11534492Y28704783D01*
X11513275Y28718029D01*
X11495188Y28717164D01*
X11441535Y28703510D01*
X11402130Y28704130D01*
X11370132Y28719604D01*
X11359390Y28728661D01*
X11325005Y28760527D01*
X11325005Y29176679D01*
X11186688Y29176679D01*
X11186688Y28573114D01*
X11255847Y28573114D01*
X11297369Y28574756D01*
X11318791Y28580587D01*
X11325002Y28591961D01*
X11325005Y28592298D01*
X11327939Y28604213D01*
X11341204Y28602659D01*
X11359584Y28594063D01*
X11397546Y28578068D01*
X11428372Y28568445D01*
X11468036Y28565978D01*
X11514960Y28572530D01*
G36*
X10092464Y24404518D02*
X10149312Y24706070D01*
X10568838Y24879012D01*
X10820484Y24707895D01*
X10890958Y24660250D01*
X10954663Y24617710D01*
X11008626Y24582215D01*
X11049873Y24555710D01*
X11075434Y24540136D01*
X11082395Y24536778D01*
X11094935Y24545414D01*
X11121731Y24569292D01*
X11159780Y24605359D01*
X11206079Y24650567D01*
X11257623Y24701864D01*
X11311409Y24756201D01*
X11364435Y24810528D01*
X11413695Y24861795D01*
X11456187Y24906951D01*
X11488907Y24942946D01*
X11508851Y24966730D01*
X11513619Y24974690D01*
X11506757Y24989365D01*
X11487520Y25021514D01*
X11457930Y25067992D01*
X11420010Y25125656D01*
X11375782Y25191360D01*
X11350154Y25228836D01*
X11303441Y25297268D01*
X11261932Y25359020D01*
X11227640Y25411019D01*
X11202580Y25450192D01*
X11188764Y25473465D01*
X11186688Y25478355D01*
X11191395Y25492255D01*
X11204223Y25524650D01*
X11223238Y25570985D01*
X11246503Y25626706D01*
X11272084Y25687258D01*
X11298045Y25748086D01*
X11322450Y25804636D01*
X11343363Y25852352D01*
X11358849Y25886681D01*
X11366972Y25903068D01*
X11367452Y25903712D01*
X11380207Y25906841D01*
X11414177Y25913821D01*
X11465840Y25923967D01*
X11531676Y25936592D01*
X11608164Y25951009D01*
X11652790Y25959323D01*
X11734521Y25974884D01*
X11808343Y25989692D01*
X11870521Y26002936D01*
X11917322Y26013805D01*
X11945009Y26021489D01*
X11950574Y26023927D01*
X11956026Y26040430D01*
X11960424Y26077700D01*
X11963772Y26131380D01*
X11966074Y26197112D01*
X11967332Y26270537D01*
X11967548Y26347296D01*
X11966727Y26423032D01*
X11964871Y26493386D01*
X11961982Y26554000D01*
X11958065Y26600516D01*
X11953122Y26628575D01*
X11950157Y26634416D01*
X11932434Y26641417D01*
X11894881Y26651427D01*
X11842464Y26663269D01*
X11780152Y26675767D01*
X11758400Y26679810D01*
X11653524Y26699020D01*
X11570680Y26714491D01*
X11507130Y26726837D01*
X11460137Y26736673D01*
X11426963Y26744614D01*
X11404871Y26751276D01*
X11391124Y26757273D01*
X11382984Y26763219D01*
X11381845Y26764394D01*
X11370477Y26783326D01*
X11353135Y26820169D01*
X11331550Y26870413D01*
X11307454Y26929546D01*
X11282579Y26993056D01*
X11258657Y27056432D01*
X11237419Y27115162D01*
X11220597Y27164735D01*
X11209922Y27200639D01*
X11207127Y27218362D01*
X11207360Y27218983D01*
X11216831Y27233470D01*
X11238318Y27265344D01*
X11269563Y27311289D01*
X11308307Y27367985D01*
X11352293Y27432117D01*
X11364819Y27450342D01*
X11409484Y27516414D01*
X11448788Y27576700D01*
X11480588Y27627735D01*
X11502745Y27666060D01*
X11513117Y27688211D01*
X11513619Y27690932D01*
X11504905Y27705236D01*
X11480825Y27733572D01*
X11444476Y27772896D01*
X11398953Y27820161D01*
X11347352Y27872323D01*
X11292767Y27926335D01*
X11238294Y27979153D01*
X11187029Y28027731D01*
X11142067Y28069023D01*
X11106504Y28099985D01*
X11083435Y28117570D01*
X11077054Y28120441D01*
X11062199Y28113678D01*
X11031786Y28095439D01*
X10990768Y28068797D01*
X10959209Y28047352D01*
X10902025Y28008003D01*
X10834306Y27961671D01*
X10766380Y27915413D01*
X10729861Y27890655D01*
X10606252Y27807047D01*
X10502491Y27863150D01*
X10455220Y27887728D01*
X10415023Y27906831D01*
X10387826Y27917727D01*
X10380902Y27919243D01*
X10372577Y27908049D01*
X10356154Y27876417D01*
X10332857Y27827265D01*
X10303914Y27763510D01*
X10270550Y27688071D01*
X10233991Y27603864D01*
X10195464Y27513808D01*
X10156194Y27420821D01*
X10117408Y27327820D01*
X10080330Y27237723D01*
X10046189Y27153448D01*
X10016208Y27077913D01*
X9991616Y27014034D01*
X9973636Y26964731D01*
X9963497Y26932921D01*
X9961866Y26921996D01*
X9974791Y26908061D01*
X10003089Y26885440D01*
X10040846Y26858833D01*
X10044015Y26856728D01*
X10141600Y26778614D01*
X10220286Y26687482D01*
X10279391Y26586245D01*
X10318232Y26477818D01*
X10336128Y26365114D01*
X10332397Y26251048D01*
X10306357Y26138534D01*
X10257325Y26030485D01*
X10242900Y26006845D01*
X10167869Y25911387D01*
X10079230Y25834732D01*
X9980049Y25777280D01*
X9873395Y25739429D01*
X9762336Y25721578D01*
X9649939Y25724125D01*
X9539273Y25747470D01*
X9433406Y25792010D01*
X9335405Y25858145D01*
X9305090Y25884987D01*
X9227938Y25969012D01*
X9171718Y26057466D01*
X9133153Y26156615D01*
X9111674Y26254803D01*
X9106372Y26365197D01*
X9124052Y26476140D01*
X9162919Y26583881D01*
X9221177Y26684669D01*
X9297031Y26774756D01*
X9388683Y26850392D01*
X9400728Y26858364D01*
X9438889Y26884474D01*
X9467899Y26907095D01*
X9481768Y26921539D01*
X9481969Y26921996D01*
X9478992Y26937621D01*
X9467189Y26973082D01*
X9447786Y27025462D01*
X9422012Y27091845D01*
X9391091Y27169314D01*
X9356251Y27254950D01*
X9318717Y27345837D01*
X9279717Y27439059D01*
X9240477Y27531697D01*
X9202224Y27620835D01*
X9166183Y27703555D01*
X9133583Y27776941D01*
X9105648Y27838075D01*
X9083605Y27884041D01*
X9068682Y27911921D01*
X9062672Y27919243D01*
X9044309Y27913541D01*
X9009948Y27898249D01*
X8965516Y27876099D01*
X8941083Y27863150D01*
X8837322Y27807047D01*
X8713713Y27890655D01*
X8650614Y27933487D01*
X8581530Y27980622D01*
X8516793Y28025003D01*
X8484366Y28047352D01*
X8438759Y28077977D01*
X8400140Y28102247D01*
X8373548Y28117087D01*
X8364910Y28120224D01*
X8352339Y28111761D01*
X8324516Y28088136D01*
X8284139Y28051802D01*
X8233905Y28005211D01*
X8176512Y27950817D01*
X8140214Y27915892D01*
X8076710Y27853496D01*
X8021827Y27797688D01*
X7977786Y27750854D01*
X7946805Y27715382D01*
X7931102Y27693661D01*
X7929595Y27689252D01*
X7936586Y27672485D01*
X7955906Y27638582D01*
X7985409Y27590976D01*
X8022955Y27533099D01*
X8066400Y27468384D01*
X8078755Y27450342D01*
X8123773Y27384767D01*
X8164160Y27325728D01*
X8197660Y27276542D01*
X8222014Y27240528D01*
X8234964Y27221002D01*
X8236215Y27218983D01*
X8234344Y27203422D01*
X8224413Y27169209D01*
X8208153Y27120855D01*
X8187295Y27062871D01*
X8163573Y26999770D01*
X8138716Y26936063D01*
X8114458Y26876261D01*
X8092529Y26824876D01*
X8074662Y26786419D01*
X8062587Y26765402D01*
X8061729Y26764394D01*
X8054346Y26758388D01*
X8041875Y26752448D01*
X8021580Y26745960D01*
X7990722Y26738309D01*
X7946566Y26728880D01*
X7886374Y26717059D01*
X7807407Y26702229D01*
X7706930Y26683777D01*
X7685175Y26679810D01*
X7620698Y26667353D01*
X7564489Y26655166D01*
X7521513Y26644426D01*
X7496740Y26636309D01*
X7493418Y26634416D01*
X7487944Y26617638D01*
X7483494Y26580145D01*
X7480072Y26526294D01*
X7477681Y26460444D01*
X7476323Y26386953D01*
X7476001Y26310180D01*
X7476719Y26234483D01*
X7478479Y26164220D01*
X7481284Y26103750D01*
X7485138Y26057430D01*
X7490043Y26029619D01*
X7493000Y26023927D01*
X7509463Y26018186D01*
X7546949Y26008845D01*
X7601725Y25996715D01*
X7670055Y25982607D01*
X7748206Y25967330D01*
X7790784Y25959323D01*
X7871571Y25944221D01*
X7943613Y25930540D01*
X8003389Y25918967D01*
X8047379Y25910187D01*
X8072061Y25904887D01*
X8076123Y25903712D01*
X8082989Y25890465D01*
X8097502Y25858557D01*
X8117729Y25812547D01*
X8141734Y25756992D01*
X8167582Y25696453D01*
X8193340Y25635486D01*
X8217073Y25578651D01*
X8236846Y25530506D01*
X8250724Y25495610D01*
X8256774Y25478521D01*
X8256886Y25477774D01*
X8250028Y25464293D01*
X8230802Y25433270D01*
X8201228Y25387789D01*
X8163327Y25330932D01*
X8119120Y25265783D01*
X8093421Y25228362D01*
X8046593Y25159747D01*
X8005001Y25097452D01*
X7970675Y25044629D01*
X7945643Y25004427D01*
X7931935Y24980000D01*
X7929956Y24974524D01*
X7938466Y24961778D01*
X7961993Y24934563D01*
X7997532Y24895928D01*
X8042077Y24848923D01*
X8092623Y24796595D01*
X8146164Y24741995D01*
X8199695Y24688170D01*
X8250211Y24638170D01*
X8294706Y24595043D01*
X8330175Y24561839D01*
X8353613Y24541606D01*
X8361454Y24536778D01*
X8374220Y24543567D01*
X8404756Y24562642D01*
X8450090Y24592061D01*
X8507256Y24629881D01*
X8573284Y24674161D01*
X8623090Y24707895D01*
X8874736Y24879012D01*
X9084499Y24792541D01*
X9294263Y24706070D01*
X9351111Y24404518D01*
X9407960Y24102966D01*
X10035615Y24102966D01*
X10092464Y24404518D01*
X10092464Y24404518D01*
G37*
X10092464Y24404518D02*
X10149312Y24706070D01*
X10568838Y24879012D01*
X10820484Y24707895D01*
X10890958Y24660250D01*
X10954663Y24617710D01*
X11008626Y24582215D01*
X11049873Y24555710D01*
X11075434Y24540136D01*
X11082395Y24536778D01*
X11094935Y24545414D01*
X11121731Y24569292D01*
X11159780Y24605359D01*
X11206079Y24650567D01*
X11257623Y24701864D01*
X11311409Y24756201D01*
X11364435Y24810528D01*
X11413695Y24861795D01*
X11456187Y24906951D01*
X11488907Y24942946D01*
X11508851Y24966730D01*
X11513619Y24974690D01*
X11506757Y24989365D01*
X11487520Y25021514D01*
X11457930Y25067992D01*
X11420010Y25125656D01*
X11375782Y25191360D01*
X11350154Y25228836D01*
X11303441Y25297268D01*
X11261932Y25359020D01*
X11227640Y25411019D01*
X11202580Y25450192D01*
X11188764Y25473465D01*
X11186688Y25478355D01*
X11191395Y25492255D01*
X11204223Y25524650D01*
X11223238Y25570985D01*
X11246503Y25626706D01*
X11272084Y25687258D01*
X11298045Y25748086D01*
X11322450Y25804636D01*
X11343363Y25852352D01*
X11358849Y25886681D01*
X11366972Y25903068D01*
X11367452Y25903712D01*
X11380207Y25906841D01*
X11414177Y25913821D01*
X11465840Y25923967D01*
X11531676Y25936592D01*
X11608164Y25951009D01*
X11652790Y25959323D01*
X11734521Y25974884D01*
X11808343Y25989692D01*
X11870521Y26002936D01*
X11917322Y26013805D01*
X11945009Y26021489D01*
X11950574Y26023927D01*
X11956026Y26040430D01*
X11960424Y26077700D01*
X11963772Y26131380D01*
X11966074Y26197112D01*
X11967332Y26270537D01*
X11967548Y26347296D01*
X11966727Y26423032D01*
X11964871Y26493386D01*
X11961982Y26554000D01*
X11958065Y26600516D01*
X11953122Y26628575D01*
X11950157Y26634416D01*
X11932434Y26641417D01*
X11894881Y26651427D01*
X11842464Y26663269D01*
X11780152Y26675767D01*
X11758400Y26679810D01*
X11653524Y26699020D01*
X11570680Y26714491D01*
X11507130Y26726837D01*
X11460137Y26736673D01*
X11426963Y26744614D01*
X11404871Y26751276D01*
X11391124Y26757273D01*
X11382984Y26763219D01*
X11381845Y26764394D01*
X11370477Y26783326D01*
X11353135Y26820169D01*
X11331550Y26870413D01*
X11307454Y26929546D01*
X11282579Y26993056D01*
X11258657Y27056432D01*
X11237419Y27115162D01*
X11220597Y27164735D01*
X11209922Y27200639D01*
X11207127Y27218362D01*
X11207360Y27218983D01*
X11216831Y27233470D01*
X11238318Y27265344D01*
X11269563Y27311289D01*
X11308307Y27367985D01*
X11352293Y27432117D01*
X11364819Y27450342D01*
X11409484Y27516414D01*
X11448788Y27576700D01*
X11480588Y27627735D01*
X11502745Y27666060D01*
X11513117Y27688211D01*
X11513619Y27690932D01*
X11504905Y27705236D01*
X11480825Y27733572D01*
X11444476Y27772896D01*
X11398953Y27820161D01*
X11347352Y27872323D01*
X11292767Y27926335D01*
X11238294Y27979153D01*
X11187029Y28027731D01*
X11142067Y28069023D01*
X11106504Y28099985D01*
X11083435Y28117570D01*
X11077054Y28120441D01*
X11062199Y28113678D01*
X11031786Y28095439D01*
X10990768Y28068797D01*
X10959209Y28047352D01*
X10902025Y28008003D01*
X10834306Y27961671D01*
X10766380Y27915413D01*
X10729861Y27890655D01*
X10606252Y27807047D01*
X10502491Y27863150D01*
X10455220Y27887728D01*
X10415023Y27906831D01*
X10387826Y27917727D01*
X10380902Y27919243D01*
X10372577Y27908049D01*
X10356154Y27876417D01*
X10332857Y27827265D01*
X10303914Y27763510D01*
X10270550Y27688071D01*
X10233991Y27603864D01*
X10195464Y27513808D01*
X10156194Y27420821D01*
X10117408Y27327820D01*
X10080330Y27237723D01*
X10046189Y27153448D01*
X10016208Y27077913D01*
X9991616Y27014034D01*
X9973636Y26964731D01*
X9963497Y26932921D01*
X9961866Y26921996D01*
X9974791Y26908061D01*
X10003089Y26885440D01*
X10040846Y26858833D01*
X10044015Y26856728D01*
X10141600Y26778614D01*
X10220286Y26687482D01*
X10279391Y26586245D01*
X10318232Y26477818D01*
X10336128Y26365114D01*
X10332397Y26251048D01*
X10306357Y26138534D01*
X10257325Y26030485D01*
X10242900Y26006845D01*
X10167869Y25911387D01*
X10079230Y25834732D01*
X9980049Y25777280D01*
X9873395Y25739429D01*
X9762336Y25721578D01*
X9649939Y25724125D01*
X9539273Y25747470D01*
X9433406Y25792010D01*
X9335405Y25858145D01*
X9305090Y25884987D01*
X9227938Y25969012D01*
X9171718Y26057466D01*
X9133153Y26156615D01*
X9111674Y26254803D01*
X9106372Y26365197D01*
X9124052Y26476140D01*
X9162919Y26583881D01*
X9221177Y26684669D01*
X9297031Y26774756D01*
X9388683Y26850392D01*
X9400728Y26858364D01*
X9438889Y26884474D01*
X9467899Y26907095D01*
X9481768Y26921539D01*
X9481969Y26921996D01*
X9478992Y26937621D01*
X9467189Y26973082D01*
X9447786Y27025462D01*
X9422012Y27091845D01*
X9391091Y27169314D01*
X9356251Y27254950D01*
X9318717Y27345837D01*
X9279717Y27439059D01*
X9240477Y27531697D01*
X9202224Y27620835D01*
X9166183Y27703555D01*
X9133583Y27776941D01*
X9105648Y27838075D01*
X9083605Y27884041D01*
X9068682Y27911921D01*
X9062672Y27919243D01*
X9044309Y27913541D01*
X9009948Y27898249D01*
X8965516Y27876099D01*
X8941083Y27863150D01*
X8837322Y27807047D01*
X8713713Y27890655D01*
X8650614Y27933487D01*
X8581530Y27980622D01*
X8516793Y28025003D01*
X8484366Y28047352D01*
X8438759Y28077977D01*
X8400140Y28102247D01*
X8373548Y28117087D01*
X8364910Y28120224D01*
X8352339Y28111761D01*
X8324516Y28088136D01*
X8284139Y28051802D01*
X8233905Y28005211D01*
X8176512Y27950817D01*
X8140214Y27915892D01*
X8076710Y27853496D01*
X8021827Y27797688D01*
X7977786Y27750854D01*
X7946805Y27715382D01*
X7931102Y27693661D01*
X7929595Y27689252D01*
X7936586Y27672485D01*
X7955906Y27638582D01*
X7985409Y27590976D01*
X8022955Y27533099D01*
X8066400Y27468384D01*
X8078755Y27450342D01*
X8123773Y27384767D01*
X8164160Y27325728D01*
X8197660Y27276542D01*
X8222014Y27240528D01*
X8234964Y27221002D01*
X8236215Y27218983D01*
X8234344Y27203422D01*
X8224413Y27169209D01*
X8208153Y27120855D01*
X8187295Y27062871D01*
X8163573Y26999770D01*
X8138716Y26936063D01*
X8114458Y26876261D01*
X8092529Y26824876D01*
X8074662Y26786419D01*
X8062587Y26765402D01*
X8061729Y26764394D01*
X8054346Y26758388D01*
X8041875Y26752448D01*
X8021580Y26745960D01*
X7990722Y26738309D01*
X7946566Y26728880D01*
X7886374Y26717059D01*
X7807407Y26702229D01*
X7706930Y26683777D01*
X7685175Y26679810D01*
X7620698Y26667353D01*
X7564489Y26655166D01*
X7521513Y26644426D01*
X7496740Y26636309D01*
X7493418Y26634416D01*
X7487944Y26617638D01*
X7483494Y26580145D01*
X7480072Y26526294D01*
X7477681Y26460444D01*
X7476323Y26386953D01*
X7476001Y26310180D01*
X7476719Y26234483D01*
X7478479Y26164220D01*
X7481284Y26103750D01*
X7485138Y26057430D01*
X7490043Y26029619D01*
X7493000Y26023927D01*
X7509463Y26018186D01*
X7546949Y26008845D01*
X7601725Y25996715D01*
X7670055Y25982607D01*
X7748206Y25967330D01*
X7790784Y25959323D01*
X7871571Y25944221D01*
X7943613Y25930540D01*
X8003389Y25918967D01*
X8047379Y25910187D01*
X8072061Y25904887D01*
X8076123Y25903712D01*
X8082989Y25890465D01*
X8097502Y25858557D01*
X8117729Y25812547D01*
X8141734Y25756992D01*
X8167582Y25696453D01*
X8193340Y25635486D01*
X8217073Y25578651D01*
X8236846Y25530506D01*
X8250724Y25495610D01*
X8256774Y25478521D01*
X8256886Y25477774D01*
X8250028Y25464293D01*
X8230802Y25433270D01*
X8201228Y25387789D01*
X8163327Y25330932D01*
X8119120Y25265783D01*
X8093421Y25228362D01*
X8046593Y25159747D01*
X8005001Y25097452D01*
X7970675Y25044629D01*
X7945643Y25004427D01*
X7931935Y24980000D01*
X7929956Y24974524D01*
X7938466Y24961778D01*
X7961993Y24934563D01*
X7997532Y24895928D01*
X8042077Y24848923D01*
X8092623Y24796595D01*
X8146164Y24741995D01*
X8199695Y24688170D01*
X8250211Y24638170D01*
X8294706Y24595043D01*
X8330175Y24561839D01*
X8353613Y24541606D01*
X8361454Y24536778D01*
X8374220Y24543567D01*
X8404756Y24562642D01*
X8450090Y24592061D01*
X8507256Y24629881D01*
X8573284Y24674161D01*
X8623090Y24707895D01*
X8874736Y24879012D01*
X9084499Y24792541D01*
X9294263Y24706070D01*
X9351111Y24404518D01*
X9407960Y24102966D01*
X10035615Y24102966D01*
X10092464Y24404518D01*
G04 #@! TD*
M02*
