G04 #@! TF.GenerationSoftware,KiCad,Pcbnew,5.1.8-db9833491~88~ubuntu20.04.1*
G04 #@! TF.CreationDate,2021-01-17T16:25:24+01:00*
G04 #@! TF.ProjectId,Pic32MxRedFox,50696333-324d-4785-9265-64466f782e6b,Rev2*
G04 #@! TF.SameCoordinates,PX5faea10PY8eeaea0*
G04 #@! TF.FileFunction,Copper,L2,Bot*
G04 #@! TF.FilePolarity,Positive*
%FSLAX46Y46*%
G04 Gerber Fmt 4.6, Leading zero omitted, Abs format (unit mm)*
G04 Created by KiCad (PCBNEW 5.1.8-db9833491~88~ubuntu20.04.1) date 2021-01-17 16:25:24*
%MOMM*%
%LPD*%
G01*
G04 APERTURE LIST*
G04 #@! TA.AperFunction,ComponentPad*
%ADD10O,1.700000X1.700000*%
G04 #@! TD*
G04 #@! TA.AperFunction,ComponentPad*
%ADD11R,1.700000X1.700000*%
G04 #@! TD*
G04 #@! TA.AperFunction,ComponentPad*
%ADD12R,1.727200X1.727200*%
G04 #@! TD*
G04 #@! TA.AperFunction,ComponentPad*
%ADD13O,1.727200X1.727200*%
G04 #@! TD*
G04 #@! TA.AperFunction,ComponentPad*
%ADD14O,1.000000X1.800000*%
G04 #@! TD*
G04 #@! TA.AperFunction,ComponentPad*
%ADD15O,1.000000X2.100000*%
G04 #@! TD*
G04 #@! TA.AperFunction,ViaPad*
%ADD16C,0.600000*%
G04 #@! TD*
G04 #@! TA.AperFunction,Conductor*
%ADD17C,0.200000*%
G04 #@! TD*
G04 #@! TA.AperFunction,Conductor*
%ADD18C,0.300000*%
G04 #@! TD*
G04 #@! TA.AperFunction,Conductor*
%ADD19C,0.800000*%
G04 #@! TD*
G04 #@! TA.AperFunction,Conductor*
%ADD20C,0.400000*%
G04 #@! TD*
G04 #@! TA.AperFunction,Conductor*
%ADD21C,0.500000*%
G04 #@! TD*
G04 #@! TA.AperFunction,Conductor*
%ADD22C,0.100000*%
G04 #@! TD*
G04 APERTURE END LIST*
D10*
X17780000Y10160000D03*
X17780000Y12700000D03*
X17780000Y15240000D03*
X17780000Y17780000D03*
X17780000Y20320000D03*
X17780000Y22860000D03*
X17780000Y25400000D03*
X17780000Y27940000D03*
X17780000Y30480000D03*
X17780000Y33020000D03*
X17780000Y35560000D03*
X17780000Y38100000D03*
X17780000Y40640000D03*
X17780000Y43180000D03*
X17780000Y45720000D03*
X17780000Y48260000D03*
X17780000Y50800000D03*
X17780000Y53340000D03*
X17780000Y55880000D03*
D11*
X17780000Y58420000D03*
X2540000Y58420000D03*
D10*
X2540000Y55880000D03*
X2540000Y53340000D03*
X2540000Y50800000D03*
X2540000Y48260000D03*
X2540000Y45720000D03*
X2540000Y43180000D03*
X2540000Y40640000D03*
X2540000Y38100000D03*
X2540000Y35560000D03*
X2540000Y33020000D03*
X2540000Y30480000D03*
X2540000Y27940000D03*
X2540000Y25400000D03*
X2540000Y22860000D03*
X2540000Y20320000D03*
X2540000Y17780000D03*
X2540000Y15240000D03*
X2540000Y12700000D03*
X2540000Y10160000D03*
D12*
X5080000Y2540000D03*
D13*
X5080000Y5080000D03*
X7620000Y2540000D03*
X7620000Y5080000D03*
X10160000Y2540000D03*
X10160000Y5080000D03*
X12700000Y2540000D03*
X12700000Y5080000D03*
X15240000Y2540000D03*
X15240000Y5080000D03*
D14*
X5840000Y58461600D03*
X14480000Y58461600D03*
D15*
X5840000Y54311600D03*
X14480000Y54311600D03*
D16*
X10395000Y55385000D03*
X10270000Y45635000D03*
X7020000Y43335000D03*
X8585200Y49631600D03*
X9042400Y48666400D03*
X6120000Y48435000D03*
X6120000Y46910000D03*
X13195000Y19908000D03*
X11270000Y19908000D03*
X10095000Y38560000D03*
X10570000Y41410000D03*
X5920000Y35060000D03*
X6695000Y35085000D03*
X13766800Y33985200D03*
X6096000Y22923500D03*
X7920000Y25335000D03*
X7845000Y24610000D03*
X14145000Y18460000D03*
X19270000Y49410000D03*
X19595000Y58510000D03*
X18995000Y21635000D03*
X675000Y9200000D03*
X10200000Y15000000D03*
X10150000Y16500000D03*
X12547600Y16916400D03*
X8509000Y13081000D03*
X8275000Y16475000D03*
X8275000Y15225000D03*
X9875000Y32300000D03*
X9825000Y33325000D03*
X10430000Y27125000D03*
X11650000Y29975000D03*
X13700000Y31425000D03*
X12550000Y30375000D03*
X10160000Y7416800D03*
X7874000Y7429500D03*
X4953000Y7429500D03*
X9715500Y19939000D03*
X8382000Y19939000D03*
X8001000Y21653500D03*
X8001000Y23368000D03*
X9652000Y23304500D03*
X14859000Y19875500D03*
X6413500Y37909500D03*
X6667500Y36957000D03*
X9779000Y36893500D03*
X10604500Y36639500D03*
X14478000Y34340800D03*
X13411200Y36830000D03*
X13131800Y50622200D03*
X13157200Y51511200D03*
X14033500Y52324000D03*
X15722600Y51943000D03*
X11912600Y52298600D03*
X6934200Y52070000D03*
X8178800Y52273200D03*
X7874000Y51562000D03*
X5232400Y52476400D03*
X3530600Y52070000D03*
X3937000Y50012600D03*
X12700000Y43916600D03*
X13970000Y44373800D03*
X19304000Y31902400D03*
X16637000Y44399200D03*
X19481800Y48031400D03*
X762000Y43230800D03*
X787400Y45999400D03*
X736600Y48463200D03*
X736600Y56413400D03*
X4343400Y58953400D03*
X12547600Y58978800D03*
X7747000Y58953400D03*
X14249400Y42392600D03*
X15240000Y42392600D03*
X4140200Y40335200D03*
X736600Y5461000D03*
X685800Y685800D03*
X19354800Y635000D03*
X19558000Y5359400D03*
X16891000Y3149600D03*
X7683500Y17907000D03*
X15494000Y27749500D03*
X3429000Y24130000D03*
X1143000Y27686000D03*
X9525000Y11493500D03*
X12382500Y11493500D03*
X19431000Y9080500D03*
X16446500Y13906500D03*
X6413500Y13208000D03*
X6794500Y14668500D03*
X13919200Y47396400D03*
X16002000Y47193200D03*
X11226800Y35052000D03*
X19227800Y18008600D03*
X19380200Y15240000D03*
X19634200Y35483800D03*
X711200Y40309800D03*
X12344400Y13868400D03*
X8927212Y55082456D03*
X15400000Y55950000D03*
X3995000Y26660000D03*
X8270000Y31110002D03*
X7625000Y13155000D03*
X7625000Y14355000D03*
X5763500Y9779000D03*
X7063500Y9779000D03*
X9120010Y38360000D03*
X9120000Y34310000D03*
X5461000Y24955500D03*
X14595000Y32084989D03*
X11420000Y54910000D03*
X16400000Y55950000D03*
X10427000Y46735000D03*
X12152400Y46735000D03*
X12952400Y46735000D03*
X11327000Y46735000D03*
X4320000Y54610000D03*
X17195000Y36835000D03*
X15270000Y40010000D03*
X16220000Y41435000D03*
X14120000Y13135000D03*
X10444996Y30985000D03*
X14045000Y12210000D03*
X9734318Y30617661D03*
X13500172Y41904414D03*
X10625000Y37500000D03*
X1119990Y26635000D03*
X4645000Y39285000D03*
X10620000Y35635000D03*
X10719998Y33835002D03*
X15494000Y28702000D03*
X7670000Y32710004D03*
X6820000Y31910000D03*
X6145000Y31385000D03*
X5845000Y30610000D03*
X4720000Y28335000D03*
X1537904Y28987904D03*
X7145000Y30035000D03*
X1520000Y32135000D03*
X14533235Y30298235D03*
X14570000Y17160000D03*
X14570000Y31110000D03*
X12770000Y17935000D03*
X19570000Y33135000D03*
X14495000Y33485000D03*
X14345000Y35910000D03*
X14064988Y37490012D03*
X13170000Y32785000D03*
X12257094Y55039521D03*
X8128000Y55118000D03*
X5170000Y56010006D03*
X6850000Y16100000D03*
X5024979Y16100000D03*
D17*
X8927212Y55082456D02*
X9919756Y56075000D01*
X15275000Y56075000D02*
X15400000Y55950000D01*
X9919756Y56075000D02*
X15275000Y56075000D01*
X3995000Y26660000D02*
X5645000Y26660000D01*
X5645000Y26660000D02*
X8270000Y29285000D01*
X8270000Y29285000D02*
X8270000Y31110002D01*
D18*
X7625000Y13155000D02*
X7625000Y14355000D01*
X5763500Y9779000D02*
X7063500Y9779000D01*
D19*
X2540000Y58420000D02*
X2540000Y55880000D01*
D18*
X5016500Y25400000D02*
X2540000Y25400000D01*
X5461000Y24955500D02*
X5016500Y25400000D01*
X8991600Y34438400D02*
X9120000Y34310000D01*
X8991600Y38231590D02*
X8991600Y34438400D01*
X9120010Y38360000D02*
X8991600Y38231590D01*
D20*
X1475000Y12700000D02*
X2540000Y12700000D01*
X1092200Y13082800D02*
X1475000Y12700000D01*
X1092200Y23952200D02*
X1092200Y13082800D01*
X2540000Y25400000D02*
X1092200Y23952200D01*
D18*
X8833601Y3753601D02*
X7620000Y2540000D01*
X8833601Y6357101D02*
X8833601Y3753601D01*
X9398000Y6921500D02*
X8833601Y6357101D01*
X8264500Y10985500D02*
X9398000Y9852000D01*
X5439500Y10985500D02*
X8264500Y10985500D01*
X9398000Y9852000D02*
X9398000Y6921500D01*
X3725000Y12700000D02*
X5439500Y10985500D01*
X2540000Y12700000D02*
X3725000Y12700000D01*
D17*
X17467997Y29090001D02*
X14595000Y31962998D01*
X18382599Y29090001D02*
X17467997Y29090001D01*
X18948400Y28524200D02*
X18382599Y29090001D01*
X18948400Y23288400D02*
X18948400Y28524200D01*
X18520000Y22860000D02*
X18948400Y23288400D01*
X14595000Y31962998D02*
X14595000Y32084989D01*
X17780000Y22860000D02*
X18520000Y22860000D01*
X15799991Y55349991D02*
X16400000Y55950000D01*
X15150009Y55349991D02*
X15799991Y55349991D01*
X14838390Y55661610D02*
X15150009Y55349991D01*
X11747346Y55661610D02*
X14838390Y55661610D01*
X11420000Y55334264D02*
X11747346Y55661610D01*
X11420000Y54910000D02*
X11420000Y55334264D01*
X10421990Y46909990D02*
X10421990Y46711546D01*
X11027001Y47335001D02*
X10427000Y46735000D01*
X11618399Y47335001D02*
X11027001Y47335001D01*
X12152400Y46801000D02*
X11618399Y47335001D01*
X12152400Y46735000D02*
X12152400Y46801000D01*
X12462400Y46135000D02*
X12952400Y46625000D01*
X11822000Y46135000D02*
X12437000Y46135000D01*
X12952400Y46625000D02*
X12952400Y46735000D01*
X11327000Y46630000D02*
X11822000Y46135000D01*
X11327000Y46735000D02*
X11327000Y46630000D01*
D20*
X16530000Y58420000D02*
X17780000Y58420000D01*
X4320000Y56196008D02*
X4858992Y56735000D01*
X4320000Y54610000D02*
X4320000Y56196008D01*
X4858992Y56735000D02*
X14845000Y56735000D01*
X14845000Y56735000D02*
X16530000Y58420000D01*
D17*
X19380200Y50698198D02*
X19380200Y56974800D01*
X18332001Y49649999D02*
X19380200Y50698198D01*
X17467997Y49649999D02*
X18332001Y49649999D01*
X17935000Y58420000D02*
X17780000Y58420000D01*
X19380200Y56974800D02*
X17935000Y58420000D01*
X17201200Y47010000D02*
X16560800Y47650400D01*
X19380011Y45821991D02*
X18192002Y47010000D01*
X19380011Y37924009D02*
X19380011Y45821991D01*
X16560800Y48742802D02*
X17467997Y49649999D01*
X16560800Y47650400D02*
X16560800Y48742802D01*
X18192002Y47010000D02*
X17201200Y47010000D01*
X18291002Y36835000D02*
X19380011Y37924009D01*
X17195000Y36835000D02*
X18291002Y36835000D01*
X16220000Y40960000D02*
X15270000Y40010000D01*
X16220000Y41435000D02*
X16220000Y40960000D01*
X10990000Y13135000D02*
X14120000Y13135000D01*
X9377500Y17877500D02*
X9377500Y14747500D01*
X7302500Y24193200D02*
X7302500Y19952500D01*
X9377500Y14747500D02*
X10990000Y13135000D01*
X7302500Y19952500D02*
X9377500Y17877500D01*
X10444996Y30985000D02*
X10444996Y29284996D01*
X10444996Y29284996D02*
X7075011Y25915011D01*
X7075011Y25915011D02*
X7075011Y24420689D01*
X7075011Y24420689D02*
X7302500Y24193200D01*
D18*
X6406399Y3866399D02*
X7620000Y5080000D01*
X6406399Y1698601D02*
X6406399Y3866399D01*
X17819990Y5002890D02*
X17819990Y1592110D01*
X17819990Y1592110D02*
X17177900Y950020D01*
X15392400Y9105900D02*
X15392400Y7430480D01*
X15392400Y7430480D02*
X17819990Y5002890D01*
X7154980Y950020D02*
X6406399Y1698601D01*
X16429991Y11349991D02*
X16429991Y10143491D01*
X17177900Y950020D02*
X7154980Y950020D01*
X16429991Y10143491D02*
X15392400Y9105900D01*
X17780000Y12700000D02*
X16429991Y11349991D01*
X16930001Y7849501D02*
X17780000Y8699500D01*
X18320000Y5210000D02*
X16930001Y6599999D01*
X17385010Y450010D02*
X18320000Y1385000D01*
X16930001Y6599999D02*
X16930001Y7849501D01*
X4629990Y450010D02*
X17385010Y450010D01*
X17780000Y8699500D02*
X17780000Y10160000D01*
X3505200Y1574800D02*
X4629990Y450010D01*
X18320000Y1385000D02*
X18320000Y5210000D01*
X3505200Y3505200D02*
X3505200Y1574800D01*
X5080000Y5080000D02*
X3505200Y3505200D01*
D17*
X10044986Y30306993D02*
X9734318Y30617661D01*
X10007600Y29438600D02*
X10044986Y29475986D01*
X9998600Y29438600D02*
X10007600Y29438600D01*
X10044986Y29475986D02*
X10044986Y30306993D01*
X6675000Y26115000D02*
X9998600Y29438600D01*
X6902489Y24027511D02*
X6675000Y24255000D01*
X8940000Y17730000D02*
X6902489Y19767511D01*
X6675000Y24255000D02*
X6675000Y26115000D01*
X6902489Y19767511D02*
X6902489Y24027511D01*
X10824311Y12734990D02*
X8940000Y14619301D01*
X8940000Y14619301D02*
X8940000Y17730000D01*
X13520010Y12734990D02*
X10824311Y12734990D01*
X14045000Y12210000D02*
X13520010Y12734990D01*
X13500172Y41904414D02*
X13500172Y40375172D01*
X13500172Y40375172D02*
X10625000Y37500000D01*
D18*
X10922000Y7097798D02*
X11486399Y6533399D01*
X11486399Y3753601D02*
X12700000Y2540000D01*
X10922000Y11112500D02*
X10922000Y7097798D01*
X11486399Y6533399D02*
X11486399Y3753601D01*
X9787000Y12247500D02*
X10922000Y11112500D01*
X5877500Y12247500D02*
X9787000Y12247500D01*
X3937000Y14188000D02*
X5877500Y12247500D01*
X3937000Y16383000D02*
X3937000Y14188000D01*
X2540000Y17780000D02*
X3937000Y16383000D01*
D17*
X3530600Y36830000D02*
X4645000Y37944400D01*
X4645000Y37944400D02*
X4645000Y39285000D01*
X1524000Y36830000D02*
X3530600Y36830000D01*
X482600Y35788600D02*
X1524000Y36830000D01*
X482600Y27272390D02*
X482600Y35788600D01*
X1119990Y26635000D02*
X482600Y27272390D01*
X13770000Y38785000D02*
X10620000Y35635000D01*
X15925000Y38785000D02*
X13770000Y38785000D01*
X17780000Y40640000D02*
X15925000Y38785000D01*
X10719998Y33262942D02*
X15280940Y28702000D01*
X10719998Y33835002D02*
X10719998Y33262942D01*
X15280940Y28702000D02*
X15494000Y28702000D01*
X4970000Y45830000D02*
X2540000Y48260000D01*
X4970000Y43685000D02*
X4970000Y45830000D01*
X8520000Y33560000D02*
X8520000Y40135000D01*
X8520000Y40135000D02*
X4970000Y43685000D01*
X7670000Y32710000D02*
X8520000Y33560000D01*
X3535000Y45720000D02*
X2540000Y45720000D01*
X4569990Y43519311D02*
X4569990Y44685010D01*
X8119990Y39969312D02*
X4569990Y43519311D01*
X4569990Y44685010D02*
X3535000Y45720000D01*
X8119990Y34047996D02*
X8119990Y39969312D01*
X6820000Y32748006D02*
X8119990Y34047996D01*
X6820000Y31910000D02*
X6820000Y32748006D01*
X2540000Y43180000D02*
X4343603Y43180000D01*
X7719980Y34213684D02*
X6145000Y32638704D01*
X6145000Y32638704D02*
X6145000Y31385000D01*
X7719980Y39803623D02*
X7719980Y34213684D01*
X4343603Y43180000D02*
X7719980Y39803623D01*
X5520001Y30934999D02*
X5845000Y30610000D01*
X5520001Y32579405D02*
X5520001Y30934999D01*
X7319969Y34379373D02*
X5520001Y32579405D01*
X7319969Y39637934D02*
X7319969Y34379373D01*
X5860703Y41097200D02*
X7319969Y39637934D01*
X2997200Y41097200D02*
X5860703Y41097200D01*
X2540000Y40640000D02*
X2997200Y41097200D01*
X1879726Y29329726D02*
X1537904Y28987904D01*
X4720000Y28335000D02*
X3725274Y29329726D01*
X3725274Y29329726D02*
X1879726Y29329726D01*
X5637002Y29085000D02*
X2887001Y31835001D01*
X6445000Y29085000D02*
X5637002Y29085000D01*
X7220000Y29860000D02*
X6445000Y29085000D01*
X1819999Y31835001D02*
X1520000Y32135000D01*
X2887001Y31835001D02*
X1819999Y31835001D01*
D18*
X13913601Y3866399D02*
X12700000Y5080000D01*
X14569832Y7223368D02*
X14892390Y7223368D01*
X15740010Y15740010D02*
X15740010Y10850510D01*
X16670000Y4713870D02*
X15822529Y3866399D01*
X13919200Y7874000D02*
X14569832Y7223368D01*
X14892390Y7223368D02*
X16670000Y5445758D01*
X13919200Y9029700D02*
X13919200Y7874000D01*
X15822529Y3866399D02*
X13913601Y3866399D01*
X17780000Y17780000D02*
X15740010Y15740010D01*
X16670000Y5445758D02*
X16670000Y4713870D01*
X15740010Y10850510D02*
X13919200Y9029700D01*
D17*
X14570000Y17746410D02*
X14570000Y17160000D01*
X16220000Y19396410D02*
X14570000Y17746410D01*
X16220000Y28865000D02*
X16220000Y19396410D01*
X14786765Y30298235D02*
X16220000Y28865000D01*
X14533235Y30298235D02*
X14786765Y30298235D01*
X14570000Y31110000D02*
X16620011Y29059989D01*
X16620011Y29059989D02*
X16620011Y21479989D01*
X16620011Y21479989D02*
X17780000Y20320000D01*
D18*
X15240000Y17780000D02*
X17780000Y20320000D01*
X15240000Y11176000D02*
X15240000Y17780000D01*
X13779500Y9715500D02*
X15240000Y11176000D01*
X12827000Y9715500D02*
X13779500Y9715500D01*
X12382500Y9271000D02*
X12827000Y9715500D01*
X12382500Y7429500D02*
X12382500Y9271000D01*
X12700000Y7112000D02*
X12382500Y7429500D01*
X13208000Y7112000D02*
X12700000Y7112000D01*
X15240000Y5080000D02*
X13208000Y7112000D01*
D17*
X17227999Y31869999D02*
X16045000Y33052998D01*
X18304999Y31869999D02*
X17227999Y31869999D01*
X19570000Y33135000D02*
X18304999Y31869999D01*
X15612998Y33485000D02*
X14495000Y33485000D01*
X16045000Y33052998D02*
X15612998Y33485000D01*
X18694400Y45720000D02*
X17780000Y45720000D01*
X18980001Y45434399D02*
X18694400Y45720000D01*
X18249999Y39439999D02*
X18980001Y40170001D01*
X18980001Y40170001D02*
X18980001Y45434399D01*
X17343997Y39439999D02*
X18249999Y39439999D01*
X15195001Y37291003D02*
X17343997Y39439999D01*
X15195001Y36760001D02*
X15195001Y37291003D01*
X14345000Y35910000D02*
X15195001Y36760001D01*
X19869990Y46170010D02*
X17780000Y48260000D01*
X19869990Y37610210D02*
X19869990Y46170010D01*
X18930001Y34933999D02*
X18930001Y36670221D01*
X18356001Y34359999D02*
X18930001Y34933999D01*
X17265501Y34359999D02*
X18356001Y34359999D01*
X16319500Y35306000D02*
X17265501Y34359999D01*
X18930001Y36670221D02*
X19869990Y37610210D01*
X14060998Y35306000D02*
X16319500Y35306000D01*
X13744999Y35621999D02*
X14060998Y35306000D01*
X14064988Y36518588D02*
X13744999Y36198599D01*
X13744999Y36198599D02*
X13744999Y35621999D01*
X14064988Y37490012D02*
X14064988Y36518588D01*
X17780000Y30480000D02*
X15475000Y32785000D01*
X15475000Y32785000D02*
X13170000Y32785000D01*
D18*
X8572500Y54038500D02*
X8128000Y54483000D01*
X12257094Y55039521D02*
X12257094Y54537050D01*
X8128000Y54483000D02*
X8128000Y55118000D01*
X11758544Y54038500D02*
X8572500Y54038500D01*
X12257094Y54537050D02*
X11758544Y54038500D01*
D21*
X8128000Y55118000D02*
X7235994Y56010006D01*
X7235994Y56010006D02*
X5170000Y56010006D01*
D18*
X6850000Y16100000D02*
X5024979Y16100000D01*
D17*
X18375966Y5824909D02*
X18375970Y5824909D01*
X18395353Y5823000D01*
X19920001Y5823000D01*
X19920000Y400000D01*
X17971395Y400000D01*
X18622573Y1051177D01*
X18639737Y1065263D01*
X18653824Y1082428D01*
X18653828Y1082432D01*
X18695971Y1133783D01*
X18737757Y1211959D01*
X18748212Y1246424D01*
X18763489Y1296785D01*
X18770000Y1362895D01*
X18770000Y1362906D01*
X18772176Y1385000D01*
X18770000Y1407094D01*
X18770000Y5187909D01*
X18772176Y5210001D01*
X18770000Y5232093D01*
X18770000Y5232105D01*
X18763489Y5298215D01*
X18737757Y5383041D01*
X18698775Y5455971D01*
X18695971Y5461217D01*
X18653828Y5512568D01*
X18653824Y5512572D01*
X18639737Y5529737D01*
X18622572Y5543824D01*
X18337738Y5828657D01*
X18375966Y5824909D01*
G04 #@! TA.AperFunction,Conductor*
D22*
G36*
X18375966Y5824909D02*
G01*
X18375970Y5824909D01*
X18395353Y5823000D01*
X19920001Y5823000D01*
X19920000Y400000D01*
X17971395Y400000D01*
X18622573Y1051177D01*
X18639737Y1065263D01*
X18653824Y1082428D01*
X18653828Y1082432D01*
X18695971Y1133783D01*
X18737757Y1211959D01*
X18748212Y1246424D01*
X18763489Y1296785D01*
X18770000Y1362895D01*
X18770000Y1362906D01*
X18772176Y1385000D01*
X18770000Y1407094D01*
X18770000Y5187909D01*
X18772176Y5210001D01*
X18770000Y5232093D01*
X18770000Y5232105D01*
X18763489Y5298215D01*
X18737757Y5383041D01*
X18698775Y5455971D01*
X18695971Y5461217D01*
X18653828Y5512568D01*
X18653824Y5512572D01*
X18639737Y5529737D01*
X18622572Y5543824D01*
X18337738Y5828657D01*
X18375966Y5824909D01*
G37*
G04 #@! TD.AperFunction*
D17*
X1388549Y59270000D02*
X1388549Y57570000D01*
X1394341Y57511190D01*
X1411496Y57454640D01*
X1439353Y57402523D01*
X1476842Y57356842D01*
X1522523Y57319353D01*
X1574640Y57291496D01*
X1631190Y57274341D01*
X1690000Y57268549D01*
X1840000Y57268549D01*
X1840001Y56795368D01*
X1806918Y56773263D01*
X1646737Y56613082D01*
X1520884Y56424729D01*
X1434194Y56215443D01*
X1390000Y55993265D01*
X1390000Y55766735D01*
X1434194Y55544557D01*
X1520884Y55335271D01*
X1646737Y55146918D01*
X1806918Y54986737D01*
X1995271Y54860884D01*
X2204557Y54774194D01*
X2426735Y54730000D01*
X2653265Y54730000D01*
X2875443Y54774194D01*
X3084729Y54860884D01*
X3273082Y54986737D01*
X3433263Y55146918D01*
X3559116Y55335271D01*
X3645806Y55544557D01*
X3690000Y55766735D01*
X3690000Y55993265D01*
X3645806Y56215443D01*
X3559116Y56424729D01*
X3433263Y56613082D01*
X3273082Y56773263D01*
X3240000Y56795368D01*
X3240000Y57268549D01*
X3390000Y57268549D01*
X3448810Y57274341D01*
X3505360Y57291496D01*
X3557477Y57319353D01*
X3603158Y57356842D01*
X3640647Y57402523D01*
X3668504Y57454640D01*
X3685659Y57511190D01*
X3691451Y57570000D01*
X3691451Y59270000D01*
X3689481Y59290000D01*
X5038270Y59290000D01*
X4987337Y59188222D01*
X4940000Y59015600D01*
X4940000Y58615600D01*
X5686000Y58615600D01*
X5686000Y58635600D01*
X5994000Y58635600D01*
X5994000Y58615600D01*
X6740000Y58615600D01*
X6740000Y59015600D01*
X6692663Y59188222D01*
X6641730Y59290000D01*
X13678270Y59290000D01*
X13627337Y59188222D01*
X13580000Y59015600D01*
X13580000Y58615600D01*
X14326000Y58615600D01*
X14326000Y58635600D01*
X14634000Y58635600D01*
X14634000Y58615600D01*
X15380000Y58615600D01*
X15380000Y59015600D01*
X15332663Y59188222D01*
X15281730Y59290000D01*
X16630519Y59290000D01*
X16628549Y59270000D01*
X16628549Y58920000D01*
X16554560Y58920000D01*
X16530000Y58922419D01*
X16505440Y58920000D01*
X16431983Y58912765D01*
X16337733Y58884175D01*
X16250871Y58837746D01*
X16174736Y58775264D01*
X16159080Y58756187D01*
X15380000Y57977106D01*
X15380000Y58307600D01*
X14634000Y58307600D01*
X14634000Y58287600D01*
X14326000Y58287600D01*
X14326000Y58307600D01*
X13580000Y58307600D01*
X13580000Y57907600D01*
X13627337Y57734978D01*
X13707441Y57574908D01*
X13817234Y57433541D01*
X13952497Y57316310D01*
X14095251Y57235000D01*
X6224749Y57235000D01*
X6367503Y57316310D01*
X6502766Y57433541D01*
X6612559Y57574908D01*
X6692663Y57734978D01*
X6740000Y57907600D01*
X6740000Y58307600D01*
X5994000Y58307600D01*
X5994000Y58287600D01*
X5686000Y58287600D01*
X5686000Y58307600D01*
X4940000Y58307600D01*
X4940000Y57907600D01*
X4987337Y57734978D01*
X5067441Y57574908D01*
X5177234Y57433541D01*
X5312497Y57316310D01*
X5455251Y57235000D01*
X4883552Y57235000D01*
X4858992Y57237419D01*
X4834432Y57235000D01*
X4760975Y57227765D01*
X4666725Y57199175D01*
X4579863Y57152746D01*
X4503728Y57090264D01*
X4488071Y57071186D01*
X3983819Y56566932D01*
X3964737Y56551272D01*
X3902255Y56475137D01*
X3891958Y56455872D01*
X3855826Y56388275D01*
X3827235Y56294025D01*
X3817581Y56196008D01*
X3820001Y56171438D01*
X3820000Y54941669D01*
X3788287Y54894207D01*
X3743058Y54785014D01*
X3720000Y54669095D01*
X3720000Y54550905D01*
X3743058Y54434986D01*
X3788287Y54325793D01*
X3853950Y54227522D01*
X3937522Y54143950D01*
X4035793Y54078287D01*
X4144986Y54033058D01*
X4260905Y54010000D01*
X4379095Y54010000D01*
X4495014Y54033058D01*
X4604207Y54078287D01*
X4702478Y54143950D01*
X4716128Y54157600D01*
X4940000Y54157600D01*
X4940000Y53607600D01*
X4987337Y53434978D01*
X5067441Y53274908D01*
X5177234Y53133541D01*
X5312497Y53016310D01*
X5468032Y52927720D01*
X5549181Y52909881D01*
X5686000Y52976562D01*
X5686000Y54157600D01*
X5994000Y54157600D01*
X5994000Y52976562D01*
X6130819Y52909881D01*
X6211968Y52927720D01*
X6367503Y53016310D01*
X6502766Y53133541D01*
X6612559Y53274908D01*
X6692663Y53434978D01*
X6740000Y53607600D01*
X6740000Y54157600D01*
X5994000Y54157600D01*
X5686000Y54157600D01*
X4940000Y54157600D01*
X4716128Y54157600D01*
X4786050Y54227522D01*
X4851713Y54325793D01*
X4896942Y54434986D01*
X4920000Y54550905D01*
X4920000Y54669095D01*
X4896942Y54785014D01*
X4851713Y54894207D01*
X4820000Y54941669D01*
X4820000Y55522255D01*
X4885793Y55478293D01*
X4994986Y55433064D01*
X5110905Y55410006D01*
X5115371Y55410006D01*
X5067441Y55348292D01*
X4987337Y55188222D01*
X4940000Y55015600D01*
X4940000Y54465600D01*
X5686000Y54465600D01*
X5686000Y54485600D01*
X5994000Y54485600D01*
X5994000Y54465600D01*
X6740000Y54465600D01*
X6740000Y54479831D01*
X6784531Y54413186D01*
X6871586Y54326131D01*
X6973952Y54257732D01*
X7087694Y54210619D01*
X7208443Y54186600D01*
X7331557Y54186600D01*
X7452306Y54210619D01*
X7566048Y54257732D01*
X7668414Y54326131D01*
X7696744Y54354461D01*
X7700807Y54341067D01*
X7710243Y54309960D01*
X7752029Y54231784D01*
X7768643Y54211540D01*
X7808263Y54163263D01*
X7825433Y54149172D01*
X8238676Y53735928D01*
X8252763Y53718763D01*
X8269928Y53704676D01*
X8269932Y53704672D01*
X8321283Y53662529D01*
X8399459Y53620743D01*
X8484285Y53595011D01*
X8550395Y53588500D01*
X8550405Y53588500D01*
X8572500Y53586324D01*
X8594594Y53588500D01*
X11736450Y53588500D01*
X11758544Y53586324D01*
X11780638Y53588500D01*
X11780649Y53588500D01*
X11846759Y53595011D01*
X11931585Y53620743D01*
X12009760Y53662529D01*
X12078281Y53718763D01*
X12092372Y53735933D01*
X12514039Y54157600D01*
X13580000Y54157600D01*
X13580000Y53607600D01*
X13627337Y53434978D01*
X13707441Y53274908D01*
X13817234Y53133541D01*
X13952497Y53016310D01*
X14108032Y52927720D01*
X14189181Y52909881D01*
X14326000Y52976562D01*
X14326000Y54157600D01*
X14634000Y54157600D01*
X14634000Y52976562D01*
X14770819Y52909881D01*
X14851968Y52927720D01*
X15007503Y53016310D01*
X15142766Y53133541D01*
X15252559Y53274908D01*
X15332663Y53434978D01*
X15337677Y53453265D01*
X16630000Y53453265D01*
X16630000Y53226735D01*
X16674194Y53004557D01*
X16760884Y52795271D01*
X16886737Y52606918D01*
X17046918Y52446737D01*
X17235271Y52320884D01*
X17444557Y52234194D01*
X17666735Y52190000D01*
X17893265Y52190000D01*
X18115443Y52234194D01*
X18324729Y52320884D01*
X18513082Y52446737D01*
X18673263Y52606918D01*
X18799116Y52795271D01*
X18885806Y53004557D01*
X18930000Y53226735D01*
X18930000Y53453265D01*
X18885806Y53675443D01*
X18799116Y53884729D01*
X18673263Y54073082D01*
X18513082Y54233263D01*
X18324729Y54359116D01*
X18115443Y54445806D01*
X17893265Y54490000D01*
X17666735Y54490000D01*
X17444557Y54445806D01*
X17235271Y54359116D01*
X17046918Y54233263D01*
X16886737Y54073082D01*
X16760884Y53884729D01*
X16674194Y53675443D01*
X16630000Y53453265D01*
X15337677Y53453265D01*
X15380000Y53607600D01*
X15380000Y54157600D01*
X14634000Y54157600D01*
X14326000Y54157600D01*
X13580000Y54157600D01*
X12514039Y54157600D01*
X12559666Y54203226D01*
X12576831Y54217313D01*
X12590918Y54234478D01*
X12590922Y54234482D01*
X12633065Y54285833D01*
X12653810Y54324645D01*
X12753952Y54257732D01*
X12867694Y54210619D01*
X12988443Y54186600D01*
X13111557Y54186600D01*
X13232306Y54210619D01*
X13346048Y54257732D01*
X13448414Y54326131D01*
X13535469Y54413186D01*
X13580000Y54479831D01*
X13580000Y54465600D01*
X14326000Y54465600D01*
X14326000Y54485600D01*
X14634000Y54485600D01*
X14634000Y54465600D01*
X15380000Y54465600D01*
X15380000Y54949991D01*
X15780345Y54949991D01*
X15799991Y54948056D01*
X15819637Y54949991D01*
X15819638Y54949991D01*
X15878405Y54955779D01*
X15953805Y54978651D01*
X16023294Y55015794D01*
X16084202Y55065780D01*
X16096728Y55081043D01*
X16365685Y55350000D01*
X16459095Y55350000D01*
X16575014Y55373058D01*
X16633452Y55397264D01*
X16685909Y55275450D01*
X16824873Y55073620D01*
X17000542Y54902778D01*
X17206166Y54769490D01*
X17433842Y54678879D01*
X17626000Y54739516D01*
X17626000Y55726000D01*
X17606000Y55726000D01*
X17606000Y56034000D01*
X17626000Y56034000D01*
X17626000Y57020484D01*
X17433842Y57081121D01*
X17206166Y56990510D01*
X17000542Y56857222D01*
X16824873Y56686380D01*
X16685909Y56484550D01*
X16684580Y56481464D01*
X16684207Y56481713D01*
X16575014Y56526942D01*
X16459095Y56550000D01*
X16340905Y56550000D01*
X16224986Y56526942D01*
X16115793Y56481713D01*
X16017522Y56416050D01*
X15933950Y56332478D01*
X15900000Y56281669D01*
X15866050Y56332478D01*
X15782478Y56416050D01*
X15684207Y56481713D01*
X15575014Y56526942D01*
X15459095Y56550000D01*
X15367105Y56550000D01*
X16628549Y57811442D01*
X16628549Y57570000D01*
X16634341Y57511190D01*
X16651496Y57454640D01*
X16679353Y57402523D01*
X16716842Y57356842D01*
X16762523Y57319353D01*
X16814640Y57291496D01*
X16871190Y57274341D01*
X16930000Y57268549D01*
X18520766Y57268549D01*
X18980201Y56809114D01*
X18980201Y56229169D01*
X18971010Y56259487D01*
X18874091Y56484550D01*
X18735127Y56686380D01*
X18559458Y56857222D01*
X18353834Y56990510D01*
X18126158Y57081121D01*
X17934000Y57020484D01*
X17934000Y56034000D01*
X17954000Y56034000D01*
X17954000Y55726000D01*
X17934000Y55726000D01*
X17934000Y54739516D01*
X18126158Y54678879D01*
X18353834Y54769490D01*
X18559458Y54902778D01*
X18735127Y55073620D01*
X18874091Y55275450D01*
X18971010Y55500513D01*
X18980201Y55530831D01*
X18980200Y50863884D01*
X18930000Y50813684D01*
X18930000Y50913265D01*
X18885806Y51135443D01*
X18799116Y51344729D01*
X18673263Y51533082D01*
X18513082Y51693263D01*
X18324729Y51819116D01*
X18115443Y51905806D01*
X17893265Y51950000D01*
X17666735Y51950000D01*
X17444557Y51905806D01*
X17235271Y51819116D01*
X17046918Y51693263D01*
X16886737Y51533082D01*
X16760884Y51344729D01*
X16674194Y51135443D01*
X16630000Y50913265D01*
X16630000Y50686735D01*
X16674194Y50464557D01*
X16760884Y50255271D01*
X16886737Y50066918D01*
X17046918Y49906737D01*
X17114136Y49861824D01*
X16291848Y49039535D01*
X16276590Y49027013D01*
X16264068Y49011755D01*
X16264065Y49011752D01*
X16226603Y48966104D01*
X16189461Y48896616D01*
X16166588Y48821215D01*
X16158865Y48742802D01*
X16160801Y48723146D01*
X16160800Y47670047D01*
X16158865Y47650400D01*
X16160800Y47630754D01*
X16166588Y47571987D01*
X16189460Y47496587D01*
X16226603Y47427098D01*
X16276589Y47366189D01*
X16291852Y47353663D01*
X16904463Y46741052D01*
X16916989Y46725789D01*
X16977897Y46675803D01*
X17047386Y46638660D01*
X17073206Y46630828D01*
X17046918Y46613263D01*
X16886737Y46453082D01*
X16760884Y46264729D01*
X16674194Y46055443D01*
X16630000Y45833265D01*
X16630000Y45606735D01*
X16674194Y45384557D01*
X16760884Y45175271D01*
X16886737Y44986918D01*
X17046918Y44826737D01*
X17235271Y44700884D01*
X17444557Y44614194D01*
X17666735Y44570000D01*
X17893265Y44570000D01*
X18115443Y44614194D01*
X18324729Y44700884D01*
X18513082Y44826737D01*
X18580002Y44893657D01*
X18580002Y44006343D01*
X18513082Y44073263D01*
X18324729Y44199116D01*
X18115443Y44285806D01*
X17893265Y44330000D01*
X17666735Y44330000D01*
X17444557Y44285806D01*
X17235271Y44199116D01*
X17046918Y44073263D01*
X16886737Y43913082D01*
X16760884Y43724729D01*
X16674194Y43515443D01*
X16630000Y43293265D01*
X16630000Y43066735D01*
X16674194Y42844557D01*
X16760884Y42635271D01*
X16886737Y42446918D01*
X17046918Y42286737D01*
X17235271Y42160884D01*
X17444557Y42074194D01*
X17666735Y42030000D01*
X17893265Y42030000D01*
X18115443Y42074194D01*
X18324729Y42160884D01*
X18513082Y42286737D01*
X18580001Y42353656D01*
X18580001Y41466344D01*
X18513082Y41533263D01*
X18324729Y41659116D01*
X18115443Y41745806D01*
X17893265Y41790000D01*
X17666735Y41790000D01*
X17444557Y41745806D01*
X17235271Y41659116D01*
X17046918Y41533263D01*
X16886737Y41373082D01*
X16773738Y41203967D01*
X16796942Y41259986D01*
X16820000Y41375905D01*
X16820000Y41494095D01*
X16796942Y41610014D01*
X16751713Y41719207D01*
X16686050Y41817478D01*
X16602478Y41901050D01*
X16504207Y41966713D01*
X16395014Y42011942D01*
X16279095Y42035000D01*
X16160905Y42035000D01*
X16044986Y42011942D01*
X15935793Y41966713D01*
X15837522Y41901050D01*
X15753950Y41817478D01*
X15688287Y41719207D01*
X15643058Y41610014D01*
X15620000Y41494095D01*
X15620000Y41375905D01*
X15643058Y41259986D01*
X15688287Y41150793D01*
X15751101Y41056786D01*
X15304315Y40610000D01*
X15210905Y40610000D01*
X15094986Y40586942D01*
X14985793Y40541713D01*
X14887522Y40476050D01*
X14803950Y40392478D01*
X14738287Y40294207D01*
X14693058Y40185014D01*
X14670000Y40069095D01*
X14670000Y39950905D01*
X14693058Y39834986D01*
X14738287Y39725793D01*
X14803950Y39627522D01*
X14887522Y39543950D01*
X14985793Y39478287D01*
X15094986Y39433058D01*
X15210905Y39410000D01*
X15329095Y39410000D01*
X15445014Y39433058D01*
X15554207Y39478287D01*
X15652478Y39543950D01*
X15736050Y39627522D01*
X15801713Y39725793D01*
X15846942Y39834986D01*
X15870000Y39950905D01*
X15870000Y40044315D01*
X16488953Y40663267D01*
X16504211Y40675789D01*
X16554197Y40736697D01*
X16571668Y40769383D01*
X16591340Y40806185D01*
X16614212Y40881586D01*
X16621935Y40960000D01*
X16620000Y40979646D01*
X16620000Y40986472D01*
X16686050Y41052522D01*
X16738858Y41131555D01*
X16674194Y40975443D01*
X16630000Y40753265D01*
X16630000Y40526735D01*
X16674194Y40304557D01*
X16734143Y40159829D01*
X15759315Y39185000D01*
X13789647Y39185000D01*
X13770000Y39186935D01*
X13750353Y39185000D01*
X13691586Y39179212D01*
X13616186Y39156340D01*
X13546697Y39119197D01*
X13485789Y39069211D01*
X13473265Y39053950D01*
X10654315Y36235000D01*
X10560905Y36235000D01*
X10444986Y36211942D01*
X10335793Y36166713D01*
X10237522Y36101050D01*
X10153950Y36017478D01*
X10088287Y35919207D01*
X10043058Y35810014D01*
X10020000Y35694095D01*
X10020000Y35575905D01*
X10043058Y35459986D01*
X10088287Y35350793D01*
X10153950Y35252522D01*
X10237522Y35168950D01*
X10335793Y35103287D01*
X10444986Y35058058D01*
X10560905Y35035000D01*
X10679095Y35035000D01*
X10795014Y35058058D01*
X10904207Y35103287D01*
X11002478Y35168950D01*
X11086050Y35252522D01*
X11151713Y35350793D01*
X11196942Y35459986D01*
X11220000Y35575905D01*
X11220000Y35669315D01*
X13935685Y38385000D01*
X15723313Y38385000D01*
X14926049Y37587736D01*
X14910791Y37575214D01*
X14898269Y37559956D01*
X14898266Y37559953D01*
X14860804Y37514305D01*
X14823662Y37444817D01*
X14800789Y37369416D01*
X14793066Y37291003D01*
X14795002Y37271347D01*
X14795001Y36925687D01*
X14464988Y36595673D01*
X14464988Y37041484D01*
X14531038Y37107534D01*
X14596701Y37205805D01*
X14641930Y37314998D01*
X14664988Y37430917D01*
X14664988Y37549107D01*
X14641930Y37665026D01*
X14596701Y37774219D01*
X14531038Y37872490D01*
X14447466Y37956062D01*
X14349195Y38021725D01*
X14240002Y38066954D01*
X14124083Y38090012D01*
X14005893Y38090012D01*
X13889974Y38066954D01*
X13780781Y38021725D01*
X13682510Y37956062D01*
X13598938Y37872490D01*
X13533275Y37774219D01*
X13488046Y37665026D01*
X13464988Y37549107D01*
X13464988Y37430917D01*
X13488046Y37314998D01*
X13533275Y37205805D01*
X13598938Y37107534D01*
X13664988Y37041484D01*
X13664989Y36684274D01*
X13476051Y36495336D01*
X13460788Y36482810D01*
X13410802Y36421901D01*
X13373659Y36352412D01*
X13350787Y36277013D01*
X13350787Y36277012D01*
X13343064Y36198599D01*
X13344999Y36178952D01*
X13345000Y35641655D01*
X13343064Y35621999D01*
X13350787Y35543586D01*
X13373660Y35468185D01*
X13410802Y35398697D01*
X13448264Y35353049D01*
X13448267Y35353046D01*
X13460789Y35337788D01*
X13476046Y35325267D01*
X13764265Y35037047D01*
X13776787Y35021789D01*
X13792045Y35009267D01*
X13792047Y35009265D01*
X13805493Y34998231D01*
X13837695Y34971803D01*
X13907184Y34934660D01*
X13982584Y34911788D01*
X14041351Y34906000D01*
X14041353Y34906000D01*
X14060997Y34904065D01*
X14080641Y34906000D01*
X16153815Y34906000D01*
X16968764Y34091051D01*
X16981290Y34075788D01*
X17042198Y34025802D01*
X17111687Y33988659D01*
X17144748Y33978630D01*
X17046918Y33913263D01*
X16886737Y33753082D01*
X16760884Y33564729D01*
X16674194Y33355443D01*
X16630000Y33133265D01*
X16630000Y33033683D01*
X16341739Y33321944D01*
X16341735Y33321949D01*
X15909735Y33753948D01*
X15897209Y33769211D01*
X15836301Y33819197D01*
X15766812Y33856340D01*
X15691412Y33879212D01*
X15632645Y33885000D01*
X15632644Y33885000D01*
X15612998Y33886935D01*
X15593352Y33885000D01*
X14943528Y33885000D01*
X14877478Y33951050D01*
X14779207Y34016713D01*
X14670014Y34061942D01*
X14554095Y34085000D01*
X14435905Y34085000D01*
X14319986Y34061942D01*
X14210793Y34016713D01*
X14112522Y33951050D01*
X14028950Y33867478D01*
X13963287Y33769207D01*
X13918058Y33660014D01*
X13895000Y33544095D01*
X13895000Y33425905D01*
X13918058Y33309986D01*
X13963287Y33200793D01*
X13973840Y33185000D01*
X13618528Y33185000D01*
X13552478Y33251050D01*
X13454207Y33316713D01*
X13345014Y33361942D01*
X13229095Y33385000D01*
X13110905Y33385000D01*
X12994986Y33361942D01*
X12885793Y33316713D01*
X12787522Y33251050D01*
X12703950Y33167478D01*
X12638287Y33069207D01*
X12593058Y32960014D01*
X12570000Y32844095D01*
X12570000Y32725905D01*
X12593058Y32609986D01*
X12638287Y32500793D01*
X12703950Y32402522D01*
X12787522Y32318950D01*
X12885793Y32253287D01*
X12994986Y32208058D01*
X13110905Y32185000D01*
X13229095Y32185000D01*
X13345014Y32208058D01*
X13454207Y32253287D01*
X13552478Y32318950D01*
X13618528Y32385000D01*
X14073847Y32385000D01*
X14063287Y32369196D01*
X14018058Y32260003D01*
X13995000Y32144084D01*
X13995000Y32025894D01*
X14018058Y31909975D01*
X14063287Y31800782D01*
X14128950Y31702511D01*
X14212522Y31618939D01*
X14232116Y31605847D01*
X14187522Y31576050D01*
X14103950Y31492478D01*
X14038287Y31394207D01*
X13993058Y31285014D01*
X13970000Y31169095D01*
X13970000Y31050905D01*
X13993058Y30934986D01*
X14038287Y30825793D01*
X14103950Y30727522D01*
X14108972Y30722500D01*
X14067185Y30680713D01*
X14001522Y30582442D01*
X13991172Y30557454D01*
X11141075Y33407551D01*
X11186048Y33452524D01*
X11251711Y33550795D01*
X11296940Y33659988D01*
X11319998Y33775907D01*
X11319998Y33894097D01*
X11296940Y34010016D01*
X11251711Y34119209D01*
X11186048Y34217480D01*
X11102476Y34301052D01*
X11004205Y34366715D01*
X10895012Y34411944D01*
X10779093Y34435002D01*
X10660903Y34435002D01*
X10544984Y34411944D01*
X10435791Y34366715D01*
X10337520Y34301052D01*
X10253948Y34217480D01*
X10188285Y34119209D01*
X10143056Y34010016D01*
X10119998Y33894097D01*
X10119998Y33775907D01*
X10143056Y33659988D01*
X10188285Y33550795D01*
X10253948Y33452524D01*
X10319999Y33386473D01*
X10319999Y33282598D01*
X10318063Y33262942D01*
X10325786Y33184529D01*
X10348659Y33109128D01*
X10385801Y33039640D01*
X10423263Y32993992D01*
X10423266Y32993989D01*
X10435788Y32978731D01*
X10451046Y32966209D01*
X14936001Y28481253D01*
X14962287Y28417793D01*
X15027950Y28319522D01*
X15111522Y28235950D01*
X15209793Y28170287D01*
X15318986Y28125058D01*
X15434905Y28102000D01*
X15553095Y28102000D01*
X15669014Y28125058D01*
X15778207Y28170287D01*
X15820000Y28198212D01*
X15820001Y19562096D01*
X14301052Y18043147D01*
X14285789Y18030621D01*
X14235803Y17969712D01*
X14198660Y17900223D01*
X14188951Y17868215D01*
X14175788Y17824823D01*
X14168065Y17746410D01*
X14170000Y17726763D01*
X14170000Y17608528D01*
X14103950Y17542478D01*
X14038287Y17444207D01*
X13993058Y17335014D01*
X13970000Y17219095D01*
X13970000Y17100905D01*
X13993058Y16984986D01*
X14038287Y16875793D01*
X14103950Y16777522D01*
X14187522Y16693950D01*
X14285793Y16628287D01*
X14394986Y16583058D01*
X14510905Y16560000D01*
X14629095Y16560000D01*
X14745014Y16583058D01*
X14790001Y16601692D01*
X14790000Y11362396D01*
X13593105Y10165500D01*
X12849094Y10165500D01*
X12827000Y10167676D01*
X12804905Y10165500D01*
X12804895Y10165500D01*
X12738785Y10158989D01*
X12653959Y10133257D01*
X12575783Y10091471D01*
X12524432Y10049328D01*
X12524428Y10049324D01*
X12507263Y10035237D01*
X12493176Y10018072D01*
X12079929Y9604824D01*
X12062764Y9590737D01*
X12048677Y9573572D01*
X12048672Y9573567D01*
X12006529Y9522216D01*
X11964743Y9444040D01*
X11950329Y9396522D01*
X11939012Y9359215D01*
X11934456Y9312950D01*
X11930324Y9271000D01*
X11932501Y9248896D01*
X11932501Y8734400D01*
X11920523Y8742403D01*
X11820429Y8783864D01*
X11714170Y8805000D01*
X11605830Y8805000D01*
X11499571Y8783864D01*
X11399477Y8742403D01*
X11372000Y8724044D01*
X11372000Y11090409D01*
X11374176Y11112501D01*
X11372000Y11134593D01*
X11372000Y11134605D01*
X11365489Y11200715D01*
X11339757Y11285541D01*
X11305816Y11349040D01*
X11297971Y11363717D01*
X11255828Y11415068D01*
X11255824Y11415072D01*
X11241737Y11432237D01*
X11224573Y11446323D01*
X10120827Y12550068D01*
X10106737Y12567237D01*
X10038216Y12623471D01*
X9960041Y12665257D01*
X9875215Y12690989D01*
X9809105Y12697500D01*
X9809094Y12697500D01*
X9787000Y12699676D01*
X9764906Y12697500D01*
X8016028Y12697500D01*
X8091050Y12772522D01*
X8156713Y12870793D01*
X8201942Y12979986D01*
X8225000Y13095905D01*
X8225000Y13214095D01*
X8201942Y13330014D01*
X8156713Y13439207D01*
X8091050Y13537478D01*
X8075000Y13553528D01*
X8075000Y13956472D01*
X8091050Y13972522D01*
X8156713Y14070793D01*
X8201942Y14179986D01*
X8225000Y14295905D01*
X8225000Y14414095D01*
X8201942Y14530014D01*
X8156713Y14639207D01*
X8091050Y14737478D01*
X8007478Y14821050D01*
X7909207Y14886713D01*
X7800014Y14931942D01*
X7684095Y14955000D01*
X7565905Y14955000D01*
X7449986Y14931942D01*
X7340793Y14886713D01*
X7242522Y14821050D01*
X7158950Y14737478D01*
X7093287Y14639207D01*
X7048058Y14530014D01*
X7025000Y14414095D01*
X7025000Y14295905D01*
X7048058Y14179986D01*
X7093287Y14070793D01*
X7158950Y13972522D01*
X7175001Y13956471D01*
X7175000Y13553528D01*
X7158950Y13537478D01*
X7093287Y13439207D01*
X7048058Y13330014D01*
X7025000Y13214095D01*
X7025000Y13095905D01*
X7048058Y12979986D01*
X7093287Y12870793D01*
X7158950Y12772522D01*
X7233972Y12697500D01*
X6063896Y12697500D01*
X4387000Y14374395D01*
X4387000Y16159095D01*
X4424979Y16159095D01*
X4424979Y16040905D01*
X4448037Y15924986D01*
X4493266Y15815793D01*
X4558929Y15717522D01*
X4642501Y15633950D01*
X4740772Y15568287D01*
X4849965Y15523058D01*
X4965884Y15500000D01*
X5084074Y15500000D01*
X5199993Y15523058D01*
X5309186Y15568287D01*
X5407457Y15633950D01*
X5423507Y15650000D01*
X6451472Y15650000D01*
X6467522Y15633950D01*
X6565793Y15568287D01*
X6674986Y15523058D01*
X6790905Y15500000D01*
X6909095Y15500000D01*
X7025014Y15523058D01*
X7134207Y15568287D01*
X7232478Y15633950D01*
X7316050Y15717522D01*
X7381713Y15815793D01*
X7426942Y15924986D01*
X7450000Y16040905D01*
X7450000Y16159095D01*
X7426942Y16275014D01*
X7381713Y16384207D01*
X7316050Y16482478D01*
X7232478Y16566050D01*
X7134207Y16631713D01*
X7025014Y16676942D01*
X6909095Y16700000D01*
X6790905Y16700000D01*
X6674986Y16676942D01*
X6565793Y16631713D01*
X6467522Y16566050D01*
X6451472Y16550000D01*
X5423507Y16550000D01*
X5407457Y16566050D01*
X5309186Y16631713D01*
X5199993Y16676942D01*
X5084074Y16700000D01*
X4965884Y16700000D01*
X4849965Y16676942D01*
X4740772Y16631713D01*
X4642501Y16566050D01*
X4558929Y16482478D01*
X4493266Y16384207D01*
X4448037Y16275014D01*
X4424979Y16159095D01*
X4387000Y16159095D01*
X4387000Y16360909D01*
X4389176Y16383001D01*
X4387000Y16405093D01*
X4387000Y16405105D01*
X4380489Y16471215D01*
X4354757Y16556041D01*
X4340316Y16583058D01*
X4312971Y16634217D01*
X4270828Y16685568D01*
X4270824Y16685572D01*
X4256737Y16702737D01*
X4239573Y16716823D01*
X3606568Y17349828D01*
X3645806Y17444557D01*
X3690000Y17666735D01*
X3690000Y17893265D01*
X3645806Y18115443D01*
X3559116Y18324729D01*
X3433263Y18513082D01*
X3273082Y18673263D01*
X3084729Y18799116D01*
X2875443Y18885806D01*
X2653265Y18930000D01*
X2426735Y18930000D01*
X2204557Y18885806D01*
X1995271Y18799116D01*
X1806918Y18673263D01*
X1646737Y18513082D01*
X1592200Y18431461D01*
X1592200Y19668539D01*
X1646737Y19586918D01*
X1806918Y19426737D01*
X1995271Y19300884D01*
X2204557Y19214194D01*
X2426735Y19170000D01*
X2653265Y19170000D01*
X2875443Y19214194D01*
X3084729Y19300884D01*
X3273082Y19426737D01*
X3433263Y19586918D01*
X3559116Y19775271D01*
X3645806Y19984557D01*
X3690000Y20206735D01*
X3690000Y20433265D01*
X3645806Y20655443D01*
X3559116Y20864729D01*
X3433263Y21053082D01*
X3273082Y21213263D01*
X3084729Y21339116D01*
X2875443Y21425806D01*
X2653265Y21470000D01*
X2426735Y21470000D01*
X2204557Y21425806D01*
X1995271Y21339116D01*
X1806918Y21213263D01*
X1646737Y21053082D01*
X1592200Y20971461D01*
X1592200Y22208539D01*
X1646737Y22126918D01*
X1806918Y21966737D01*
X1995271Y21840884D01*
X2204557Y21754194D01*
X2426735Y21710000D01*
X2653265Y21710000D01*
X2875443Y21754194D01*
X3084729Y21840884D01*
X3273082Y21966737D01*
X3433263Y22126918D01*
X3559116Y22315271D01*
X3645806Y22524557D01*
X3690000Y22746735D01*
X3690000Y22973265D01*
X3645806Y23195443D01*
X3559116Y23404729D01*
X3433263Y23593082D01*
X3273082Y23753263D01*
X3084729Y23879116D01*
X2875443Y23965806D01*
X2653265Y24010000D01*
X2426735Y24010000D01*
X2204557Y23965806D01*
X1995271Y23879116D01*
X1806918Y23753263D01*
X1646737Y23593082D01*
X1592200Y23511461D01*
X1592200Y23745095D01*
X2159828Y24312722D01*
X2204557Y24294194D01*
X2426735Y24250000D01*
X2653265Y24250000D01*
X2875443Y24294194D01*
X3084729Y24380884D01*
X3273082Y24506737D01*
X3433263Y24666918D01*
X3559116Y24855271D01*
X3598354Y24950000D01*
X4830105Y24950000D01*
X4861000Y24919105D01*
X4861000Y24896405D01*
X4884058Y24780486D01*
X4929287Y24671293D01*
X4994950Y24573022D01*
X5078522Y24489450D01*
X5176793Y24423787D01*
X5285986Y24378558D01*
X5401905Y24355500D01*
X5520095Y24355500D01*
X5636014Y24378558D01*
X5745207Y24423787D01*
X5843478Y24489450D01*
X5927050Y24573022D01*
X5992713Y24671293D01*
X6037942Y24780486D01*
X6061000Y24896405D01*
X6061000Y25014595D01*
X6037942Y25130514D01*
X5992713Y25239707D01*
X5927050Y25337978D01*
X5843478Y25421550D01*
X5745207Y25487213D01*
X5636014Y25532442D01*
X5520095Y25555500D01*
X5497395Y25555500D01*
X5350328Y25702567D01*
X5336237Y25719737D01*
X5267716Y25775971D01*
X5189541Y25817757D01*
X5104715Y25843489D01*
X5038605Y25850000D01*
X5038594Y25850000D01*
X5016500Y25852176D01*
X4994406Y25850000D01*
X3598354Y25850000D01*
X3559116Y25944729D01*
X3433263Y26133082D01*
X3273082Y26293263D01*
X3084729Y26419116D01*
X2875443Y26505806D01*
X2653265Y26550000D01*
X2426735Y26550000D01*
X2204557Y26505806D01*
X1995271Y26419116D01*
X1806918Y26293263D01*
X1646737Y26133082D01*
X1520884Y25944729D01*
X1434194Y25735443D01*
X1390000Y25513265D01*
X1390000Y25286735D01*
X1434194Y25064557D01*
X1452722Y25019828D01*
X756024Y24323129D01*
X736936Y24307464D01*
X674454Y24231329D01*
X628025Y24144466D01*
X610439Y24086492D01*
X599435Y24050217D01*
X589781Y23952200D01*
X592200Y23927640D01*
X592201Y13107370D01*
X589781Y13082800D01*
X599435Y12984783D01*
X609618Y12951216D01*
X628026Y12890533D01*
X674455Y12803671D01*
X736937Y12727536D01*
X756019Y12711876D01*
X1104075Y12363819D01*
X1119736Y12344736D01*
X1195871Y12282254D01*
X1282733Y12235825D01*
X1367868Y12210000D01*
X1376983Y12207235D01*
X1475000Y12197581D01*
X1499560Y12200000D01*
X1502356Y12200000D01*
X1520884Y12155271D01*
X1646737Y11966918D01*
X1806918Y11806737D01*
X1995271Y11680884D01*
X2204557Y11594194D01*
X2426735Y11550000D01*
X2653265Y11550000D01*
X2875443Y11594194D01*
X3084729Y11680884D01*
X3273082Y11806737D01*
X3433263Y11966918D01*
X3559116Y12155271D01*
X3580854Y12207751D01*
X5105676Y10682928D01*
X5119763Y10665763D01*
X5136928Y10651676D01*
X5136932Y10651672D01*
X5188283Y10609529D01*
X5230473Y10586978D01*
X5266459Y10567743D01*
X5351285Y10542011D01*
X5417395Y10535500D01*
X5417405Y10535500D01*
X5439499Y10533324D01*
X5461593Y10535500D01*
X8078105Y10535500D01*
X8948000Y9665604D01*
X8948000Y8724043D01*
X8920523Y8742403D01*
X8820429Y8783864D01*
X8714170Y8805000D01*
X8605830Y8805000D01*
X8499571Y8783864D01*
X8399477Y8742403D01*
X8309396Y8682213D01*
X8232787Y8605604D01*
X8172597Y8515523D01*
X8131136Y8415429D01*
X8110000Y8309170D01*
X8110000Y8200830D01*
X8131136Y8094571D01*
X8172597Y7994477D01*
X8232787Y7904396D01*
X8309396Y7827787D01*
X8399477Y7767597D01*
X8499571Y7726136D01*
X8605830Y7705000D01*
X8714170Y7705000D01*
X8820429Y7726136D01*
X8920523Y7767597D01*
X8948001Y7785957D01*
X8948001Y7107897D01*
X8531034Y6690929D01*
X8513864Y6676838D01*
X8499773Y6659668D01*
X8457630Y6608317D01*
X8424069Y6545529D01*
X8415844Y6530141D01*
X8390112Y6445315D01*
X8383601Y6379205D01*
X8383601Y6379195D01*
X8381425Y6357101D01*
X8383601Y6335006D01*
X8383601Y5961978D01*
X8361752Y5983827D01*
X8171171Y6111169D01*
X7959410Y6198883D01*
X7734605Y6243600D01*
X7505395Y6243600D01*
X7280590Y6198883D01*
X7068829Y6111169D01*
X6878248Y5983827D01*
X6716173Y5821752D01*
X6588831Y5631171D01*
X6501117Y5419410D01*
X6456400Y5194605D01*
X6456400Y4965395D01*
X6501117Y4740590D01*
X6543023Y4639419D01*
X6103828Y4200223D01*
X6086663Y4186136D01*
X6072576Y4168971D01*
X6072571Y4168966D01*
X6030428Y4117615D01*
X5988642Y4039439D01*
X5962911Y3954614D01*
X5954223Y3866399D01*
X5956400Y3844295D01*
X5956400Y3703790D01*
X5943600Y3705051D01*
X4341446Y3705051D01*
X4639419Y4003023D01*
X4740590Y3961117D01*
X4965395Y3916400D01*
X5194605Y3916400D01*
X5419410Y3961117D01*
X5631171Y4048831D01*
X5821752Y4176173D01*
X5983827Y4338248D01*
X6111169Y4528829D01*
X6198883Y4740590D01*
X6243600Y4965395D01*
X6243600Y5194605D01*
X6198883Y5419410D01*
X6111169Y5631171D01*
X5983827Y5821752D01*
X5821752Y5983827D01*
X5631171Y6111169D01*
X5419410Y6198883D01*
X5194605Y6243600D01*
X4965395Y6243600D01*
X4740590Y6198883D01*
X4528829Y6111169D01*
X4338248Y5983827D01*
X4176173Y5821752D01*
X4048831Y5631171D01*
X3961117Y5419410D01*
X3916400Y5194605D01*
X3916400Y4965395D01*
X3961117Y4740590D01*
X4003023Y4639419D01*
X3202634Y3839029D01*
X3185463Y3824937D01*
X3171372Y3807767D01*
X3129229Y3756416D01*
X3122301Y3743454D01*
X3087443Y3678240D01*
X3061711Y3593414D01*
X3055200Y3527304D01*
X3055200Y3527294D01*
X3053024Y3505200D01*
X3055200Y3483105D01*
X3055201Y1596904D01*
X3053024Y1574800D01*
X3061712Y1486585D01*
X3087443Y1401760D01*
X3129229Y1323584D01*
X3171372Y1272233D01*
X3171377Y1272228D01*
X3185464Y1255063D01*
X3202629Y1240976D01*
X4043604Y400000D01*
X400000Y400000D01*
X400000Y5823000D01*
X1924647Y5823000D01*
X1945035Y5825008D01*
X1958219Y5825008D01*
X1963774Y5825592D01*
X2160826Y5847695D01*
X2196287Y5855232D01*
X2231850Y5862274D01*
X2237185Y5863925D01*
X2426192Y5923882D01*
X2459520Y5938166D01*
X2493035Y5951980D01*
X2497948Y5954636D01*
X2671709Y6050163D01*
X2701623Y6070646D01*
X2731817Y6090707D01*
X2736117Y6094265D01*
X2736122Y6094268D01*
X2736126Y6094272D01*
X2888018Y6221723D01*
X2913399Y6247641D01*
X2939109Y6273172D01*
X2942639Y6277500D01*
X3066888Y6432034D01*
X3086750Y6462386D01*
X3107013Y6492427D01*
X3109635Y6497358D01*
X3201500Y6673082D01*
X3215084Y6706704D01*
X3229130Y6740117D01*
X3230745Y6745464D01*
X3286730Y6935685D01*
X3293531Y6971336D01*
X3300813Y7006810D01*
X3301358Y7012369D01*
X3319329Y7209841D01*
X3319076Y7246094D01*
X3319329Y7282347D01*
X3318784Y7287905D01*
X3298057Y7485107D01*
X3290765Y7520628D01*
X3283974Y7556230D01*
X3282360Y7561577D01*
X3223725Y7750998D01*
X3209663Y7784451D01*
X3196094Y7818035D01*
X3193472Y7822967D01*
X3099161Y7997390D01*
X3078888Y8027446D01*
X3059037Y8057781D01*
X3055511Y8062104D01*
X3055507Y8062110D01*
X3055502Y8062115D01*
X2929113Y8214894D01*
X2903404Y8240424D01*
X2878024Y8266341D01*
X2873720Y8269901D01*
X2825572Y8309170D01*
X3610000Y8309170D01*
X3610000Y8200830D01*
X3631136Y8094571D01*
X3672597Y7994477D01*
X3732787Y7904396D01*
X3809396Y7827787D01*
X3899477Y7767597D01*
X3999571Y7726136D01*
X4105830Y7705000D01*
X4214170Y7705000D01*
X4320429Y7726136D01*
X4420523Y7767597D01*
X4510604Y7827787D01*
X4587213Y7904396D01*
X4647403Y7994477D01*
X4688864Y8094571D01*
X4710000Y8200830D01*
X4710000Y8309170D01*
X5110000Y8309170D01*
X5110000Y8200830D01*
X5131136Y8094571D01*
X5172597Y7994477D01*
X5232787Y7904396D01*
X5309396Y7827787D01*
X5399477Y7767597D01*
X5499571Y7726136D01*
X5605830Y7705000D01*
X5714170Y7705000D01*
X5820429Y7726136D01*
X5920523Y7767597D01*
X6010604Y7827787D01*
X6087213Y7904396D01*
X6147403Y7994477D01*
X6188864Y8094571D01*
X6210000Y8200830D01*
X6210000Y8309170D01*
X6610000Y8309170D01*
X6610000Y8200830D01*
X6631136Y8094571D01*
X6672597Y7994477D01*
X6732787Y7904396D01*
X6809396Y7827787D01*
X6899477Y7767597D01*
X6999571Y7726136D01*
X7105830Y7705000D01*
X7214170Y7705000D01*
X7320429Y7726136D01*
X7420523Y7767597D01*
X7510604Y7827787D01*
X7587213Y7904396D01*
X7647403Y7994477D01*
X7688864Y8094571D01*
X7710000Y8200830D01*
X7710000Y8309170D01*
X7688864Y8415429D01*
X7647403Y8515523D01*
X7587213Y8605604D01*
X7510604Y8682213D01*
X7420523Y8742403D01*
X7320429Y8783864D01*
X7214170Y8805000D01*
X7105830Y8805000D01*
X6999571Y8783864D01*
X6899477Y8742403D01*
X6809396Y8682213D01*
X6732787Y8605604D01*
X6672597Y8515523D01*
X6631136Y8415429D01*
X6610000Y8309170D01*
X6210000Y8309170D01*
X6188864Y8415429D01*
X6147403Y8515523D01*
X6087213Y8605604D01*
X6010604Y8682213D01*
X5920523Y8742403D01*
X5820429Y8783864D01*
X5714170Y8805000D01*
X5605830Y8805000D01*
X5499571Y8783864D01*
X5399477Y8742403D01*
X5309396Y8682213D01*
X5232787Y8605604D01*
X5172597Y8515523D01*
X5131136Y8415429D01*
X5110000Y8309170D01*
X4710000Y8309170D01*
X4688864Y8415429D01*
X4647403Y8515523D01*
X4587213Y8605604D01*
X4510604Y8682213D01*
X4420523Y8742403D01*
X4320429Y8783864D01*
X4214170Y8805000D01*
X4105830Y8805000D01*
X3999571Y8783864D01*
X3899477Y8742403D01*
X3809396Y8682213D01*
X3732787Y8605604D01*
X3672597Y8515523D01*
X3631136Y8415429D01*
X3610000Y8309170D01*
X2825572Y8309170D01*
X2720058Y8395225D01*
X2689861Y8415288D01*
X2659948Y8435770D01*
X2655035Y8438427D01*
X2479957Y8531518D01*
X2446427Y8545338D01*
X2413115Y8559616D01*
X2407787Y8561265D01*
X2407781Y8561267D01*
X2407775Y8561268D01*
X2217953Y8618578D01*
X2182404Y8625617D01*
X2146930Y8633157D01*
X2141376Y8633741D01*
X1944034Y8653091D01*
X1944030Y8653091D01*
X1924647Y8655000D01*
X400000Y8655000D01*
X400000Y10273265D01*
X1390000Y10273265D01*
X1390000Y10046735D01*
X1434194Y9824557D01*
X1520884Y9615271D01*
X1646737Y9426918D01*
X1806918Y9266737D01*
X1995271Y9140884D01*
X2204557Y9054194D01*
X2426735Y9010000D01*
X2653265Y9010000D01*
X2875443Y9054194D01*
X3084729Y9140884D01*
X3273082Y9266737D01*
X3433263Y9426918D01*
X3559116Y9615271D01*
X3645806Y9824557D01*
X3648498Y9838095D01*
X5163500Y9838095D01*
X5163500Y9719905D01*
X5186558Y9603986D01*
X5231787Y9494793D01*
X5297450Y9396522D01*
X5381022Y9312950D01*
X5479293Y9247287D01*
X5588486Y9202058D01*
X5704405Y9179000D01*
X5822595Y9179000D01*
X5938514Y9202058D01*
X6047707Y9247287D01*
X6145978Y9312950D01*
X6162028Y9329000D01*
X6664972Y9329000D01*
X6681022Y9312950D01*
X6779293Y9247287D01*
X6888486Y9202058D01*
X7004405Y9179000D01*
X7122595Y9179000D01*
X7238514Y9202058D01*
X7347707Y9247287D01*
X7445978Y9312950D01*
X7529550Y9396522D01*
X7595213Y9494793D01*
X7640442Y9603986D01*
X7663500Y9719905D01*
X7663500Y9838095D01*
X7640442Y9954014D01*
X7595213Y10063207D01*
X7529550Y10161478D01*
X7445978Y10245050D01*
X7347707Y10310713D01*
X7238514Y10355942D01*
X7122595Y10379000D01*
X7004405Y10379000D01*
X6888486Y10355942D01*
X6779293Y10310713D01*
X6681022Y10245050D01*
X6664972Y10229000D01*
X6162028Y10229000D01*
X6145978Y10245050D01*
X6047707Y10310713D01*
X5938514Y10355942D01*
X5822595Y10379000D01*
X5704405Y10379000D01*
X5588486Y10355942D01*
X5479293Y10310713D01*
X5381022Y10245050D01*
X5297450Y10161478D01*
X5231787Y10063207D01*
X5186558Y9954014D01*
X5163500Y9838095D01*
X3648498Y9838095D01*
X3690000Y10046735D01*
X3690000Y10273265D01*
X3645806Y10495443D01*
X3559116Y10704729D01*
X3433263Y10893082D01*
X3273082Y11053263D01*
X3084729Y11179116D01*
X2875443Y11265806D01*
X2653265Y11310000D01*
X2426735Y11310000D01*
X2204557Y11265806D01*
X1995271Y11179116D01*
X1806918Y11053263D01*
X1646737Y10893082D01*
X1520884Y10704729D01*
X1434194Y10495443D01*
X1390000Y10273265D01*
X400000Y10273265D01*
X400000Y26789305D01*
X519990Y26669315D01*
X519990Y26575905D01*
X543048Y26459986D01*
X588277Y26350793D01*
X653940Y26252522D01*
X737512Y26168950D01*
X835783Y26103287D01*
X944976Y26058058D01*
X1060895Y26035000D01*
X1179085Y26035000D01*
X1295004Y26058058D01*
X1404197Y26103287D01*
X1502468Y26168950D01*
X1586040Y26252522D01*
X1651703Y26350793D01*
X1696932Y26459986D01*
X1719990Y26575905D01*
X1719990Y26694095D01*
X1715018Y26719095D01*
X3395000Y26719095D01*
X3395000Y26600905D01*
X3418058Y26484986D01*
X3463287Y26375793D01*
X3528950Y26277522D01*
X3612522Y26193950D01*
X3710793Y26128287D01*
X3819986Y26083058D01*
X3935905Y26060000D01*
X4054095Y26060000D01*
X4170014Y26083058D01*
X4247129Y26115000D01*
X6273065Y26115000D01*
X6275001Y26095344D01*
X6275000Y24274647D01*
X6273065Y24255000D01*
X6277217Y24212847D01*
X6280788Y24176587D01*
X6303660Y24101187D01*
X6340803Y24031698D01*
X6390789Y23970789D01*
X6406052Y23958263D01*
X6502490Y23861825D01*
X6502489Y19787157D01*
X6500554Y19767511D01*
X6504328Y19729197D01*
X6508277Y19689098D01*
X6531149Y19613698D01*
X6568292Y19544209D01*
X6618278Y19483300D01*
X6633541Y19470774D01*
X8540001Y17564314D01*
X8540000Y14638948D01*
X8538065Y14619301D01*
X8540000Y14599655D01*
X8545788Y14540888D01*
X8568660Y14465488D01*
X8605803Y14395999D01*
X8655789Y14335090D01*
X8671052Y14322564D01*
X10527578Y12466037D01*
X10540100Y12450779D01*
X10555358Y12438257D01*
X10555360Y12438255D01*
X10576543Y12420871D01*
X10601008Y12400793D01*
X10670497Y12363650D01*
X10745897Y12340778D01*
X10804664Y12334990D01*
X10804674Y12334990D01*
X10824310Y12333056D01*
X10843946Y12334990D01*
X13354325Y12334990D01*
X13445000Y12244315D01*
X13445000Y12150905D01*
X13468058Y12034986D01*
X13513287Y11925793D01*
X13578950Y11827522D01*
X13662522Y11743950D01*
X13760793Y11678287D01*
X13869986Y11633058D01*
X13985905Y11610000D01*
X14104095Y11610000D01*
X14220014Y11633058D01*
X14329207Y11678287D01*
X14427478Y11743950D01*
X14511050Y11827522D01*
X14576713Y11925793D01*
X14621942Y12034986D01*
X14645000Y12150905D01*
X14645000Y12269095D01*
X14621942Y12385014D01*
X14576713Y12494207D01*
X14511050Y12592478D01*
X14461775Y12641753D01*
X14502478Y12668950D01*
X14586050Y12752522D01*
X14651713Y12850793D01*
X14696942Y12959986D01*
X14720000Y13075905D01*
X14720000Y13194095D01*
X14696942Y13310014D01*
X14651713Y13419207D01*
X14586050Y13517478D01*
X14502478Y13601050D01*
X14404207Y13666713D01*
X14295014Y13711942D01*
X14179095Y13735000D01*
X14060905Y13735000D01*
X13944986Y13711942D01*
X13835793Y13666713D01*
X13737522Y13601050D01*
X13671472Y13535000D01*
X11155685Y13535000D01*
X9777500Y14913185D01*
X9777500Y17857865D01*
X9779434Y17877501D01*
X9777500Y17897137D01*
X9777500Y17897147D01*
X9771712Y17955914D01*
X9760131Y17994095D01*
X12170000Y17994095D01*
X12170000Y17875905D01*
X12193058Y17759986D01*
X12238287Y17650793D01*
X12303950Y17552522D01*
X12387522Y17468950D01*
X12485793Y17403287D01*
X12594986Y17358058D01*
X12710905Y17335000D01*
X12829095Y17335000D01*
X12945014Y17358058D01*
X13054207Y17403287D01*
X13152478Y17468950D01*
X13236050Y17552522D01*
X13301713Y17650793D01*
X13346942Y17759986D01*
X13370000Y17875905D01*
X13370000Y17994095D01*
X13346942Y18110014D01*
X13301713Y18219207D01*
X13236050Y18317478D01*
X13152478Y18401050D01*
X13054207Y18466713D01*
X12945014Y18511942D01*
X12829095Y18535000D01*
X12710905Y18535000D01*
X12594986Y18511942D01*
X12485793Y18466713D01*
X12387522Y18401050D01*
X12303950Y18317478D01*
X12238287Y18219207D01*
X12193058Y18110014D01*
X12170000Y17994095D01*
X9760131Y17994095D01*
X9748840Y18031314D01*
X9711697Y18100803D01*
X9686148Y18131935D01*
X9674235Y18146451D01*
X9674233Y18146453D01*
X9661711Y18161711D01*
X9646454Y18174232D01*
X7702500Y20118185D01*
X7702500Y24173554D01*
X7704435Y24193201D01*
X7696712Y24271614D01*
X7691624Y24288386D01*
X7673840Y24347014D01*
X7636697Y24416503D01*
X7586711Y24477411D01*
X7571449Y24489936D01*
X7475011Y24586374D01*
X7475011Y25749326D01*
X10713944Y28988259D01*
X10729207Y29000785D01*
X10779193Y29061693D01*
X10816336Y29131182D01*
X10839208Y29206582D01*
X10844996Y29265349D01*
X10844996Y29265359D01*
X10846930Y29284995D01*
X10844996Y29304631D01*
X10844996Y30536472D01*
X10911046Y30602522D01*
X10976709Y30700793D01*
X11021938Y30809986D01*
X11044996Y30925905D01*
X11044996Y31044095D01*
X11021938Y31160014D01*
X10976709Y31269207D01*
X10911046Y31367478D01*
X10827474Y31451050D01*
X10729203Y31516713D01*
X10620010Y31561942D01*
X10504091Y31585000D01*
X10385901Y31585000D01*
X10269982Y31561942D01*
X10160789Y31516713D01*
X10062518Y31451050D01*
X9978946Y31367478D01*
X9913283Y31269207D01*
X9884433Y31199556D01*
X9793413Y31217661D01*
X9675223Y31217661D01*
X9559304Y31194603D01*
X9450111Y31149374D01*
X9351840Y31083711D01*
X9268268Y31000139D01*
X9202605Y30901868D01*
X9157376Y30792675D01*
X9134318Y30676756D01*
X9134318Y30558566D01*
X9157376Y30442647D01*
X9202605Y30333454D01*
X9268268Y30235183D01*
X9351840Y30151611D01*
X9450111Y30085948D01*
X9559304Y30040719D01*
X9644987Y30023675D01*
X9644986Y29650672D01*
X6406048Y26411733D01*
X6390790Y26399211D01*
X6378268Y26383953D01*
X6378265Y26383950D01*
X6340803Y26338302D01*
X6303661Y26268814D01*
X6280788Y26193413D01*
X6273065Y26115000D01*
X4247129Y26115000D01*
X4279207Y26128287D01*
X4377478Y26193950D01*
X4443528Y26260000D01*
X5625354Y26260000D01*
X5645000Y26258065D01*
X5664646Y26260000D01*
X5664647Y26260000D01*
X5723414Y26265788D01*
X5798814Y26288660D01*
X5868303Y26325803D01*
X5929211Y26375789D01*
X5941737Y26391052D01*
X8538949Y28988264D01*
X8554211Y29000789D01*
X8604197Y29061697D01*
X8641340Y29131186D01*
X8664212Y29206586D01*
X8670000Y29265353D01*
X8670000Y29265354D01*
X8671935Y29285000D01*
X8670000Y29304647D01*
X8670000Y30661474D01*
X8736050Y30727524D01*
X8801713Y30825795D01*
X8846942Y30934988D01*
X8870000Y31050907D01*
X8870000Y31169097D01*
X8846942Y31285016D01*
X8801713Y31394209D01*
X8736050Y31492480D01*
X8652478Y31576052D01*
X8554207Y31641715D01*
X8445014Y31686944D01*
X8329095Y31710002D01*
X8210905Y31710002D01*
X8094986Y31686944D01*
X7985793Y31641715D01*
X7887522Y31576052D01*
X7803950Y31492480D01*
X7738287Y31394209D01*
X7693058Y31285016D01*
X7670000Y31169097D01*
X7670000Y31050907D01*
X7693058Y30934988D01*
X7738287Y30825795D01*
X7803950Y30727524D01*
X7870001Y30661473D01*
X7870000Y29450685D01*
X5479315Y27060000D01*
X4443528Y27060000D01*
X4377478Y27126050D01*
X4279207Y27191713D01*
X4170014Y27236942D01*
X4054095Y27260000D01*
X3935905Y27260000D01*
X3819986Y27236942D01*
X3710793Y27191713D01*
X3612522Y27126050D01*
X3528950Y27042478D01*
X3463287Y26944207D01*
X3418058Y26835014D01*
X3395000Y26719095D01*
X1715018Y26719095D01*
X1696932Y26810014D01*
X1651703Y26919207D01*
X1586040Y27017478D01*
X1502468Y27101050D01*
X1404197Y27166713D01*
X1295004Y27211942D01*
X1179085Y27235000D01*
X1085675Y27235000D01*
X882600Y27438075D01*
X882600Y32194095D01*
X920000Y32194095D01*
X920000Y32075905D01*
X943058Y31959986D01*
X988287Y31850793D01*
X1053950Y31752522D01*
X1137522Y31668950D01*
X1235793Y31603287D01*
X1344986Y31558058D01*
X1460905Y31535000D01*
X1555028Y31535000D01*
X1587870Y31508047D01*
X1596696Y31500804D01*
X1666185Y31463661D01*
X1741585Y31440789D01*
X1819999Y31433066D01*
X1839646Y31435001D01*
X1899316Y31435001D01*
X1806918Y31373263D01*
X1646737Y31213082D01*
X1520884Y31024729D01*
X1434194Y30815443D01*
X1390000Y30593265D01*
X1390000Y30366735D01*
X1434194Y30144557D01*
X1520884Y29935271D01*
X1646737Y29746918D01*
X1704196Y29689459D01*
X1656423Y29663923D01*
X1647183Y29656340D01*
X1610775Y29626461D01*
X1610773Y29626459D01*
X1595515Y29613937D01*
X1582993Y29598679D01*
X1572218Y29587904D01*
X1478809Y29587904D01*
X1362890Y29564846D01*
X1253697Y29519617D01*
X1155426Y29453954D01*
X1071854Y29370382D01*
X1006191Y29272111D01*
X960962Y29162918D01*
X937904Y29046999D01*
X937904Y28928809D01*
X960962Y28812890D01*
X1006191Y28703697D01*
X1071854Y28605426D01*
X1155426Y28521854D01*
X1253697Y28456191D01*
X1362890Y28410962D01*
X1478809Y28387904D01*
X1480777Y28387904D01*
X1434194Y28275443D01*
X1390000Y28053265D01*
X1390000Y27826735D01*
X1434194Y27604557D01*
X1520884Y27395271D01*
X1646737Y27206918D01*
X1806918Y27046737D01*
X1995271Y26920884D01*
X2204557Y26834194D01*
X2426735Y26790000D01*
X2653265Y26790000D01*
X2875443Y26834194D01*
X3084729Y26920884D01*
X3273082Y27046737D01*
X3433263Y27206918D01*
X3559116Y27395271D01*
X3645806Y27604557D01*
X3690000Y27826735D01*
X3690000Y28053265D01*
X3645806Y28275443D01*
X3559116Y28484729D01*
X3433263Y28673082D01*
X3273082Y28833263D01*
X3128714Y28929726D01*
X3559589Y28929726D01*
X4120000Y28369314D01*
X4120000Y28275905D01*
X4143058Y28159986D01*
X4188287Y28050793D01*
X4253950Y27952522D01*
X4337522Y27868950D01*
X4435793Y27803287D01*
X4544986Y27758058D01*
X4660905Y27735000D01*
X4779095Y27735000D01*
X4895014Y27758058D01*
X5004207Y27803287D01*
X5102478Y27868950D01*
X5186050Y27952522D01*
X5251713Y28050793D01*
X5296942Y28159986D01*
X5320000Y28275905D01*
X5320000Y28394095D01*
X5296942Y28510014D01*
X5251713Y28619207D01*
X5186050Y28717478D01*
X5102478Y28801050D01*
X5004207Y28866713D01*
X4895014Y28911942D01*
X4779095Y28935000D01*
X4685686Y28935000D01*
X4022011Y29598674D01*
X4009485Y29613937D01*
X3948577Y29663923D01*
X3879088Y29701066D01*
X3803688Y29723938D01*
X3744921Y29729726D01*
X3744920Y29729726D01*
X3725274Y29731661D01*
X3705628Y29729726D01*
X3416071Y29729726D01*
X3433263Y29746918D01*
X3559116Y29935271D01*
X3645806Y30144557D01*
X3690000Y30366735D01*
X3690000Y30466317D01*
X5340265Y28816052D01*
X5352791Y28800789D01*
X5377618Y28780414D01*
X5413699Y28750803D01*
X5483188Y28713660D01*
X5558588Y28690788D01*
X5637002Y28683065D01*
X5656649Y28685000D01*
X6425354Y28685000D01*
X6445000Y28683065D01*
X6464646Y28685000D01*
X6464647Y28685000D01*
X6523414Y28690788D01*
X6598814Y28713660D01*
X6668303Y28750803D01*
X6729211Y28800789D01*
X6741737Y28816052D01*
X7428806Y29503121D01*
X7429207Y29503287D01*
X7527478Y29568950D01*
X7611050Y29652522D01*
X7676713Y29750793D01*
X7721942Y29859986D01*
X7745000Y29975905D01*
X7745000Y30094095D01*
X7721942Y30210014D01*
X7676713Y30319207D01*
X7611050Y30417478D01*
X7527478Y30501050D01*
X7429207Y30566713D01*
X7320014Y30611942D01*
X7204095Y30635000D01*
X7085905Y30635000D01*
X6969986Y30611942D01*
X6860793Y30566713D01*
X6762522Y30501050D01*
X6678950Y30417478D01*
X6613287Y30319207D01*
X6568058Y30210014D01*
X6545000Y30094095D01*
X6545000Y29975905D01*
X6568058Y29859986D01*
X6593318Y29799003D01*
X6279315Y29485000D01*
X5802687Y29485000D01*
X3205864Y32081823D01*
X3273082Y32126737D01*
X3433263Y32286918D01*
X3559116Y32475271D01*
X3645806Y32684557D01*
X3690000Y32906735D01*
X3690000Y33133265D01*
X3645806Y33355443D01*
X3559116Y33564729D01*
X3433263Y33753082D01*
X3273082Y33913263D01*
X3084729Y34039116D01*
X2875443Y34125806D01*
X2653265Y34170000D01*
X2426735Y34170000D01*
X2204557Y34125806D01*
X1995271Y34039116D01*
X1806918Y33913263D01*
X1646737Y33753082D01*
X1520884Y33564729D01*
X1434194Y33355443D01*
X1390000Y33133265D01*
X1390000Y32906735D01*
X1425559Y32727969D01*
X1344986Y32711942D01*
X1235793Y32666713D01*
X1137522Y32601050D01*
X1053950Y32517478D01*
X988287Y32419207D01*
X943058Y32310014D01*
X920000Y32194095D01*
X882600Y32194095D01*
X882600Y35622915D01*
X1689686Y36430000D01*
X1783655Y36430000D01*
X1646737Y36293082D01*
X1520884Y36104729D01*
X1434194Y35895443D01*
X1390000Y35673265D01*
X1390000Y35446735D01*
X1434194Y35224557D01*
X1520884Y35015271D01*
X1646737Y34826918D01*
X1806918Y34666737D01*
X1995271Y34540884D01*
X2204557Y34454194D01*
X2426735Y34410000D01*
X2653265Y34410000D01*
X2875443Y34454194D01*
X3084729Y34540884D01*
X3273082Y34666737D01*
X3433263Y34826918D01*
X3559116Y35015271D01*
X3645806Y35224557D01*
X3690000Y35446735D01*
X3690000Y35673265D01*
X3645806Y35895443D01*
X3559116Y36104729D01*
X3433263Y36293082D01*
X3296345Y36430000D01*
X3510954Y36430000D01*
X3530600Y36428065D01*
X3550246Y36430000D01*
X3550247Y36430000D01*
X3609014Y36435788D01*
X3684414Y36458660D01*
X3753903Y36495803D01*
X3814811Y36545789D01*
X3827337Y36561052D01*
X4913949Y37647664D01*
X4929211Y37660189D01*
X4979197Y37721097D01*
X5016340Y37790586D01*
X5039212Y37865986D01*
X5045000Y37924753D01*
X5045000Y37924754D01*
X5046935Y37944400D01*
X5045000Y37964047D01*
X5045000Y38836472D01*
X5111050Y38902522D01*
X5176713Y39000793D01*
X5221942Y39109986D01*
X5245000Y39225905D01*
X5245000Y39344095D01*
X5221942Y39460014D01*
X5176713Y39569207D01*
X5111050Y39667478D01*
X5027478Y39751050D01*
X4929207Y39816713D01*
X4820014Y39861942D01*
X4704095Y39885000D01*
X4585905Y39885000D01*
X4469986Y39861942D01*
X4360793Y39816713D01*
X4262522Y39751050D01*
X4178950Y39667478D01*
X4113287Y39569207D01*
X4068058Y39460014D01*
X4045000Y39344095D01*
X4045000Y39225905D01*
X4068058Y39109986D01*
X4113287Y39000793D01*
X4178950Y38902522D01*
X4245001Y38836471D01*
X4245000Y38110085D01*
X3364915Y37230000D01*
X3296345Y37230000D01*
X3433263Y37366918D01*
X3559116Y37555271D01*
X3645806Y37764557D01*
X3690000Y37986735D01*
X3690000Y38213265D01*
X3645806Y38435443D01*
X3559116Y38644729D01*
X3433263Y38833082D01*
X3273082Y38993263D01*
X3084729Y39119116D01*
X2875443Y39205806D01*
X2653265Y39250000D01*
X2426735Y39250000D01*
X2204557Y39205806D01*
X1995271Y39119116D01*
X1806918Y38993263D01*
X1646737Y38833082D01*
X1520884Y38644729D01*
X1434194Y38435443D01*
X1390000Y38213265D01*
X1390000Y37986735D01*
X1434194Y37764557D01*
X1520884Y37555271D01*
X1646737Y37366918D01*
X1783655Y37230000D01*
X1543646Y37230000D01*
X1523999Y37231935D01*
X1504353Y37230000D01*
X1445586Y37224212D01*
X1370186Y37201340D01*
X1310051Y37169197D01*
X1300697Y37164197D01*
X1255049Y37126735D01*
X1255047Y37126733D01*
X1239789Y37114211D01*
X1227267Y37098953D01*
X400000Y36271685D01*
X400000Y48373265D01*
X1390000Y48373265D01*
X1390000Y48146735D01*
X1434194Y47924557D01*
X1520884Y47715271D01*
X1646737Y47526918D01*
X1806918Y47366737D01*
X1995271Y47240884D01*
X2204557Y47154194D01*
X2426735Y47110000D01*
X2653265Y47110000D01*
X2875443Y47154194D01*
X3020172Y47214143D01*
X4570001Y45664313D01*
X4570001Y45250685D01*
X3831737Y45988948D01*
X3819211Y46004211D01*
X3758303Y46054197D01*
X3688814Y46091340D01*
X3622619Y46111420D01*
X3559116Y46264729D01*
X3433263Y46453082D01*
X3273082Y46613263D01*
X3084729Y46739116D01*
X2875443Y46825806D01*
X2653265Y46870000D01*
X2426735Y46870000D01*
X2204557Y46825806D01*
X1995271Y46739116D01*
X1806918Y46613263D01*
X1646737Y46453082D01*
X1520884Y46264729D01*
X1434194Y46055443D01*
X1390000Y45833265D01*
X1390000Y45606735D01*
X1434194Y45384557D01*
X1520884Y45175271D01*
X1646737Y44986918D01*
X1806918Y44826737D01*
X1995271Y44700884D01*
X2204557Y44614194D01*
X2426735Y44570000D01*
X2653265Y44570000D01*
X2875443Y44614194D01*
X3084729Y44700884D01*
X3273082Y44826737D01*
X3433263Y44986918D01*
X3541063Y45148252D01*
X4169991Y44519323D01*
X4169990Y43580000D01*
X3619065Y43580000D01*
X3559116Y43724729D01*
X3433263Y43913082D01*
X3273082Y44073263D01*
X3084729Y44199116D01*
X2875443Y44285806D01*
X2653265Y44330000D01*
X2426735Y44330000D01*
X2204557Y44285806D01*
X1995271Y44199116D01*
X1806918Y44073263D01*
X1646737Y43913082D01*
X1520884Y43724729D01*
X1434194Y43515443D01*
X1390000Y43293265D01*
X1390000Y43066735D01*
X1434194Y42844557D01*
X1520884Y42635271D01*
X1646737Y42446918D01*
X1806918Y42286737D01*
X1995271Y42160884D01*
X2204557Y42074194D01*
X2426735Y42030000D01*
X2653265Y42030000D01*
X2875443Y42074194D01*
X3084729Y42160884D01*
X3273082Y42286737D01*
X3433263Y42446918D01*
X3559116Y42635271D01*
X3619065Y42780000D01*
X4177918Y42780000D01*
X5460718Y41497200D01*
X3309145Y41497200D01*
X3273082Y41533263D01*
X3084729Y41659116D01*
X2875443Y41745806D01*
X2653265Y41790000D01*
X2426735Y41790000D01*
X2204557Y41745806D01*
X1995271Y41659116D01*
X1806918Y41533263D01*
X1646737Y41373082D01*
X1520884Y41184729D01*
X1434194Y40975443D01*
X1390000Y40753265D01*
X1390000Y40526735D01*
X1434194Y40304557D01*
X1520884Y40095271D01*
X1646737Y39906918D01*
X1806918Y39746737D01*
X1995271Y39620884D01*
X2204557Y39534194D01*
X2426735Y39490000D01*
X2653265Y39490000D01*
X2875443Y39534194D01*
X3084729Y39620884D01*
X3273082Y39746737D01*
X3433263Y39906918D01*
X3559116Y40095271D01*
X3645806Y40304557D01*
X3690000Y40526735D01*
X3690000Y40697200D01*
X5695018Y40697200D01*
X6919969Y39472248D01*
X6919970Y34545060D01*
X5251053Y32876142D01*
X5235790Y32863616D01*
X5185804Y32802707D01*
X5148661Y32733218D01*
X5134031Y32684989D01*
X5125789Y32657818D01*
X5118066Y32579405D01*
X5120001Y32559758D01*
X5120002Y30954655D01*
X5118066Y30934999D01*
X5125789Y30856586D01*
X5148662Y30781185D01*
X5185804Y30711697D01*
X5223266Y30666049D01*
X5223269Y30666046D01*
X5235791Y30650788D01*
X5245000Y30643230D01*
X5245000Y30550905D01*
X5268058Y30434986D01*
X5313287Y30325793D01*
X5378950Y30227522D01*
X5462522Y30143950D01*
X5560793Y30078287D01*
X5669986Y30033058D01*
X5785905Y30010000D01*
X5904095Y30010000D01*
X6020014Y30033058D01*
X6129207Y30078287D01*
X6227478Y30143950D01*
X6311050Y30227522D01*
X6376713Y30325793D01*
X6421942Y30434986D01*
X6445000Y30550905D01*
X6445000Y30669095D01*
X6421942Y30785014D01*
X6398868Y30840720D01*
X6429207Y30853287D01*
X6527478Y30918950D01*
X6611050Y31002522D01*
X6676713Y31100793D01*
X6721942Y31209986D01*
X6742562Y31313649D01*
X6760905Y31310000D01*
X6879095Y31310000D01*
X6995014Y31333058D01*
X7104207Y31378287D01*
X7202478Y31443950D01*
X7286050Y31527522D01*
X7351713Y31625793D01*
X7396942Y31734986D01*
X7420000Y31850905D01*
X7420000Y31969095D01*
X7396942Y32085014D01*
X7351713Y32194207D01*
X7343437Y32206592D01*
X7385793Y32178291D01*
X7494986Y32133062D01*
X7610905Y32110004D01*
X7729095Y32110004D01*
X7845014Y32133062D01*
X7954207Y32178291D01*
X8052478Y32243954D01*
X8136050Y32327526D01*
X8201713Y32425797D01*
X8246942Y32534990D01*
X8270000Y32650909D01*
X8270000Y32744315D01*
X8788949Y33263264D01*
X8804211Y33275789D01*
X8854197Y33336697D01*
X8891340Y33406186D01*
X8914212Y33481586D01*
X8920000Y33540353D01*
X8920000Y33540354D01*
X8921935Y33560000D01*
X8920000Y33579647D01*
X8920000Y33743407D01*
X8944986Y33733058D01*
X9060905Y33710000D01*
X9179095Y33710000D01*
X9295014Y33733058D01*
X9404207Y33778287D01*
X9502478Y33843950D01*
X9586050Y33927522D01*
X9651713Y34025793D01*
X9696942Y34134986D01*
X9720000Y34250905D01*
X9720000Y34369095D01*
X9696942Y34485014D01*
X9651713Y34594207D01*
X9586050Y34692478D01*
X9502478Y34776050D01*
X9441600Y34816728D01*
X9441600Y37559095D01*
X10025000Y37559095D01*
X10025000Y37440905D01*
X10048058Y37324986D01*
X10093287Y37215793D01*
X10158950Y37117522D01*
X10242522Y37033950D01*
X10340793Y36968287D01*
X10449986Y36923058D01*
X10565905Y36900000D01*
X10684095Y36900000D01*
X10800014Y36923058D01*
X10909207Y36968287D01*
X11007478Y37033950D01*
X11091050Y37117522D01*
X11156713Y37215793D01*
X11201942Y37324986D01*
X11225000Y37440905D01*
X11225000Y37534315D01*
X13769125Y40078439D01*
X13784383Y40090961D01*
X13834369Y40151869D01*
X13871512Y40221358D01*
X13894384Y40296758D01*
X13900172Y40355525D01*
X13900172Y40355535D01*
X13902106Y40375171D01*
X13900172Y40394807D01*
X13900172Y41455886D01*
X13966222Y41521936D01*
X14031885Y41620207D01*
X14077114Y41729400D01*
X14100172Y41845319D01*
X14100172Y41963509D01*
X14077114Y42079428D01*
X14031885Y42188621D01*
X13966222Y42286892D01*
X13882650Y42370464D01*
X13784379Y42436127D01*
X13675186Y42481356D01*
X13559267Y42504414D01*
X13441077Y42504414D01*
X13325158Y42481356D01*
X13215965Y42436127D01*
X13117694Y42370464D01*
X13034122Y42286892D01*
X12968459Y42188621D01*
X12923230Y42079428D01*
X12900172Y41963509D01*
X12900172Y41845319D01*
X12923230Y41729400D01*
X12968459Y41620207D01*
X13034122Y41521936D01*
X13100172Y41455886D01*
X13100173Y40540859D01*
X10659315Y38100000D01*
X10565905Y38100000D01*
X10449986Y38076942D01*
X10340793Y38031713D01*
X10242522Y37966050D01*
X10158950Y37882478D01*
X10093287Y37784207D01*
X10048058Y37675014D01*
X10025000Y37559095D01*
X9441600Y37559095D01*
X9441600Y37853266D01*
X9502488Y37893950D01*
X9586060Y37977522D01*
X9651723Y38075793D01*
X9696952Y38184986D01*
X9720010Y38300905D01*
X9720010Y38419095D01*
X9696952Y38535014D01*
X9651723Y38644207D01*
X9586060Y38742478D01*
X9502488Y38826050D01*
X9404217Y38891713D01*
X9295024Y38936942D01*
X9179105Y38960000D01*
X9060915Y38960000D01*
X8944996Y38936942D01*
X8920000Y38926588D01*
X8920000Y40115365D01*
X8921934Y40135001D01*
X8920000Y40154637D01*
X8920000Y40154647D01*
X8914212Y40213414D01*
X8891340Y40288814D01*
X8854197Y40358303D01*
X8840354Y40375171D01*
X8816735Y40403951D01*
X8816733Y40403953D01*
X8804211Y40419211D01*
X8788953Y40431733D01*
X5370000Y43850685D01*
X5370000Y45810354D01*
X5371935Y45830000D01*
X5369888Y45850789D01*
X5364212Y45908414D01*
X5341340Y45983814D01*
X5304197Y46053303D01*
X5301502Y46056587D01*
X5266735Y46098951D01*
X5266733Y46098953D01*
X5254211Y46114211D01*
X5238953Y46126733D01*
X4571591Y46794095D01*
X9827000Y46794095D01*
X9827000Y46675905D01*
X9850058Y46559986D01*
X9895287Y46450793D01*
X9960950Y46352522D01*
X10044522Y46268950D01*
X10142793Y46203287D01*
X10251986Y46158058D01*
X10367905Y46135000D01*
X10486095Y46135000D01*
X10602014Y46158058D01*
X10711207Y46203287D01*
X10809478Y46268950D01*
X10877000Y46336472D01*
X10944522Y46268950D01*
X11042793Y46203287D01*
X11151986Y46158058D01*
X11253437Y46137878D01*
X11525263Y45866052D01*
X11537789Y45850789D01*
X11598697Y45800803D01*
X11668186Y45763660D01*
X11743586Y45740788D01*
X11822000Y45733065D01*
X11841647Y45735000D01*
X12442754Y45735000D01*
X12462400Y45733065D01*
X12540813Y45740788D01*
X12616214Y45763661D01*
X12685702Y45800803D01*
X12731350Y45838265D01*
X13032204Y46139119D01*
X13127414Y46158058D01*
X13236607Y46203287D01*
X13334878Y46268950D01*
X13418450Y46352522D01*
X13484113Y46450793D01*
X13529342Y46559986D01*
X13552400Y46675905D01*
X13552400Y46794095D01*
X13529342Y46910014D01*
X13484113Y47019207D01*
X13418450Y47117478D01*
X13334878Y47201050D01*
X13236607Y47266713D01*
X13127414Y47311942D01*
X13011495Y47335000D01*
X12893305Y47335000D01*
X12777386Y47311942D01*
X12668193Y47266713D01*
X12569922Y47201050D01*
X12552400Y47183528D01*
X12534878Y47201050D01*
X12436607Y47266713D01*
X12327414Y47311942D01*
X12211495Y47335000D01*
X12184085Y47335000D01*
X11915136Y47603949D01*
X11902610Y47619212D01*
X11841702Y47669198D01*
X11772213Y47706341D01*
X11696813Y47729213D01*
X11638046Y47735001D01*
X11638045Y47735001D01*
X11618399Y47736936D01*
X11598753Y47735001D01*
X11046648Y47735001D01*
X11027001Y47736936D01*
X11007354Y47735001D01*
X10948587Y47729213D01*
X10873187Y47706341D01*
X10803698Y47669198D01*
X10742790Y47619212D01*
X10730264Y47603949D01*
X10461315Y47335000D01*
X10367905Y47335000D01*
X10251986Y47311942D01*
X10142793Y47266713D01*
X10044522Y47201050D01*
X9960950Y47117478D01*
X9895287Y47019207D01*
X9850058Y46910014D01*
X9827000Y46794095D01*
X4571591Y46794095D01*
X3585857Y47779828D01*
X3645806Y47924557D01*
X3690000Y48146735D01*
X3690000Y48373265D01*
X3645806Y48595443D01*
X3559116Y48804729D01*
X3433263Y48993082D01*
X3273082Y49153263D01*
X3084729Y49279116D01*
X2875443Y49365806D01*
X2653265Y49410000D01*
X2426735Y49410000D01*
X2204557Y49365806D01*
X1995271Y49279116D01*
X1806918Y49153263D01*
X1646737Y48993082D01*
X1520884Y48804729D01*
X1434194Y48595443D01*
X1390000Y48373265D01*
X400000Y48373265D01*
X400000Y50453843D01*
X1338886Y50453843D01*
X1348990Y50420513D01*
X1445909Y50195450D01*
X1584873Y49993620D01*
X1760542Y49822778D01*
X1966166Y49689490D01*
X2193842Y49598879D01*
X2386000Y49659516D01*
X2386000Y50646000D01*
X2694000Y50646000D01*
X2694000Y49659516D01*
X2886158Y49598879D01*
X3113834Y49689490D01*
X3319458Y49822778D01*
X3495127Y49993620D01*
X3634091Y50195450D01*
X3731010Y50420513D01*
X3741114Y50453843D01*
X3679642Y50646000D01*
X2694000Y50646000D01*
X2386000Y50646000D01*
X1400358Y50646000D01*
X1338886Y50453843D01*
X400000Y50453843D01*
X400000Y51146157D01*
X1338886Y51146157D01*
X1400358Y50954000D01*
X2386000Y50954000D01*
X2386000Y51940484D01*
X2694000Y51940484D01*
X2694000Y50954000D01*
X3679642Y50954000D01*
X3741114Y51146157D01*
X3731010Y51179487D01*
X3634091Y51404550D01*
X3495127Y51606380D01*
X3319458Y51777222D01*
X3113834Y51910510D01*
X2886158Y52001121D01*
X2694000Y51940484D01*
X2386000Y51940484D01*
X2193842Y52001121D01*
X1966166Y51910510D01*
X1760542Y51777222D01*
X1584873Y51606380D01*
X1445909Y51404550D01*
X1348990Y51179487D01*
X1338886Y51146157D01*
X400000Y51146157D01*
X400000Y52993843D01*
X1338886Y52993843D01*
X1348990Y52960513D01*
X1445909Y52735450D01*
X1584873Y52533620D01*
X1760542Y52362778D01*
X1966166Y52229490D01*
X2193842Y52138879D01*
X2386000Y52199516D01*
X2386000Y53186000D01*
X2694000Y53186000D01*
X2694000Y52199516D01*
X2886158Y52138879D01*
X3113834Y52229490D01*
X3319458Y52362778D01*
X3495127Y52533620D01*
X3634091Y52735450D01*
X3731010Y52960513D01*
X3741114Y52993843D01*
X3679642Y53186000D01*
X2694000Y53186000D01*
X2386000Y53186000D01*
X1400358Y53186000D01*
X1338886Y52993843D01*
X400000Y52993843D01*
X400000Y53686157D01*
X1338886Y53686157D01*
X1400358Y53494000D01*
X2386000Y53494000D01*
X2386000Y54480484D01*
X2694000Y54480484D01*
X2694000Y53494000D01*
X3679642Y53494000D01*
X3741114Y53686157D01*
X3731010Y53719487D01*
X3634091Y53944550D01*
X3495127Y54146380D01*
X3319458Y54317222D01*
X3113834Y54450510D01*
X2886158Y54541121D01*
X2694000Y54480484D01*
X2386000Y54480484D01*
X2193842Y54541121D01*
X1966166Y54450510D01*
X1760542Y54317222D01*
X1584873Y54146380D01*
X1445909Y53944550D01*
X1348990Y53719487D01*
X1338886Y53686157D01*
X400000Y53686157D01*
X400000Y59290000D01*
X1390519Y59290000D01*
X1388549Y59270000D01*
G04 #@! TA.AperFunction,Conductor*
D22*
G36*
X1388549Y59270000D02*
G01*
X1388549Y57570000D01*
X1394341Y57511190D01*
X1411496Y57454640D01*
X1439353Y57402523D01*
X1476842Y57356842D01*
X1522523Y57319353D01*
X1574640Y57291496D01*
X1631190Y57274341D01*
X1690000Y57268549D01*
X1840000Y57268549D01*
X1840001Y56795368D01*
X1806918Y56773263D01*
X1646737Y56613082D01*
X1520884Y56424729D01*
X1434194Y56215443D01*
X1390000Y55993265D01*
X1390000Y55766735D01*
X1434194Y55544557D01*
X1520884Y55335271D01*
X1646737Y55146918D01*
X1806918Y54986737D01*
X1995271Y54860884D01*
X2204557Y54774194D01*
X2426735Y54730000D01*
X2653265Y54730000D01*
X2875443Y54774194D01*
X3084729Y54860884D01*
X3273082Y54986737D01*
X3433263Y55146918D01*
X3559116Y55335271D01*
X3645806Y55544557D01*
X3690000Y55766735D01*
X3690000Y55993265D01*
X3645806Y56215443D01*
X3559116Y56424729D01*
X3433263Y56613082D01*
X3273082Y56773263D01*
X3240000Y56795368D01*
X3240000Y57268549D01*
X3390000Y57268549D01*
X3448810Y57274341D01*
X3505360Y57291496D01*
X3557477Y57319353D01*
X3603158Y57356842D01*
X3640647Y57402523D01*
X3668504Y57454640D01*
X3685659Y57511190D01*
X3691451Y57570000D01*
X3691451Y59270000D01*
X3689481Y59290000D01*
X5038270Y59290000D01*
X4987337Y59188222D01*
X4940000Y59015600D01*
X4940000Y58615600D01*
X5686000Y58615600D01*
X5686000Y58635600D01*
X5994000Y58635600D01*
X5994000Y58615600D01*
X6740000Y58615600D01*
X6740000Y59015600D01*
X6692663Y59188222D01*
X6641730Y59290000D01*
X13678270Y59290000D01*
X13627337Y59188222D01*
X13580000Y59015600D01*
X13580000Y58615600D01*
X14326000Y58615600D01*
X14326000Y58635600D01*
X14634000Y58635600D01*
X14634000Y58615600D01*
X15380000Y58615600D01*
X15380000Y59015600D01*
X15332663Y59188222D01*
X15281730Y59290000D01*
X16630519Y59290000D01*
X16628549Y59270000D01*
X16628549Y58920000D01*
X16554560Y58920000D01*
X16530000Y58922419D01*
X16505440Y58920000D01*
X16431983Y58912765D01*
X16337733Y58884175D01*
X16250871Y58837746D01*
X16174736Y58775264D01*
X16159080Y58756187D01*
X15380000Y57977106D01*
X15380000Y58307600D01*
X14634000Y58307600D01*
X14634000Y58287600D01*
X14326000Y58287600D01*
X14326000Y58307600D01*
X13580000Y58307600D01*
X13580000Y57907600D01*
X13627337Y57734978D01*
X13707441Y57574908D01*
X13817234Y57433541D01*
X13952497Y57316310D01*
X14095251Y57235000D01*
X6224749Y57235000D01*
X6367503Y57316310D01*
X6502766Y57433541D01*
X6612559Y57574908D01*
X6692663Y57734978D01*
X6740000Y57907600D01*
X6740000Y58307600D01*
X5994000Y58307600D01*
X5994000Y58287600D01*
X5686000Y58287600D01*
X5686000Y58307600D01*
X4940000Y58307600D01*
X4940000Y57907600D01*
X4987337Y57734978D01*
X5067441Y57574908D01*
X5177234Y57433541D01*
X5312497Y57316310D01*
X5455251Y57235000D01*
X4883552Y57235000D01*
X4858992Y57237419D01*
X4834432Y57235000D01*
X4760975Y57227765D01*
X4666725Y57199175D01*
X4579863Y57152746D01*
X4503728Y57090264D01*
X4488071Y57071186D01*
X3983819Y56566932D01*
X3964737Y56551272D01*
X3902255Y56475137D01*
X3891958Y56455872D01*
X3855826Y56388275D01*
X3827235Y56294025D01*
X3817581Y56196008D01*
X3820001Y56171438D01*
X3820000Y54941669D01*
X3788287Y54894207D01*
X3743058Y54785014D01*
X3720000Y54669095D01*
X3720000Y54550905D01*
X3743058Y54434986D01*
X3788287Y54325793D01*
X3853950Y54227522D01*
X3937522Y54143950D01*
X4035793Y54078287D01*
X4144986Y54033058D01*
X4260905Y54010000D01*
X4379095Y54010000D01*
X4495014Y54033058D01*
X4604207Y54078287D01*
X4702478Y54143950D01*
X4716128Y54157600D01*
X4940000Y54157600D01*
X4940000Y53607600D01*
X4987337Y53434978D01*
X5067441Y53274908D01*
X5177234Y53133541D01*
X5312497Y53016310D01*
X5468032Y52927720D01*
X5549181Y52909881D01*
X5686000Y52976562D01*
X5686000Y54157600D01*
X5994000Y54157600D01*
X5994000Y52976562D01*
X6130819Y52909881D01*
X6211968Y52927720D01*
X6367503Y53016310D01*
X6502766Y53133541D01*
X6612559Y53274908D01*
X6692663Y53434978D01*
X6740000Y53607600D01*
X6740000Y54157600D01*
X5994000Y54157600D01*
X5686000Y54157600D01*
X4940000Y54157600D01*
X4716128Y54157600D01*
X4786050Y54227522D01*
X4851713Y54325793D01*
X4896942Y54434986D01*
X4920000Y54550905D01*
X4920000Y54669095D01*
X4896942Y54785014D01*
X4851713Y54894207D01*
X4820000Y54941669D01*
X4820000Y55522255D01*
X4885793Y55478293D01*
X4994986Y55433064D01*
X5110905Y55410006D01*
X5115371Y55410006D01*
X5067441Y55348292D01*
X4987337Y55188222D01*
X4940000Y55015600D01*
X4940000Y54465600D01*
X5686000Y54465600D01*
X5686000Y54485600D01*
X5994000Y54485600D01*
X5994000Y54465600D01*
X6740000Y54465600D01*
X6740000Y54479831D01*
X6784531Y54413186D01*
X6871586Y54326131D01*
X6973952Y54257732D01*
X7087694Y54210619D01*
X7208443Y54186600D01*
X7331557Y54186600D01*
X7452306Y54210619D01*
X7566048Y54257732D01*
X7668414Y54326131D01*
X7696744Y54354461D01*
X7700807Y54341067D01*
X7710243Y54309960D01*
X7752029Y54231784D01*
X7768643Y54211540D01*
X7808263Y54163263D01*
X7825433Y54149172D01*
X8238676Y53735928D01*
X8252763Y53718763D01*
X8269928Y53704676D01*
X8269932Y53704672D01*
X8321283Y53662529D01*
X8399459Y53620743D01*
X8484285Y53595011D01*
X8550395Y53588500D01*
X8550405Y53588500D01*
X8572500Y53586324D01*
X8594594Y53588500D01*
X11736450Y53588500D01*
X11758544Y53586324D01*
X11780638Y53588500D01*
X11780649Y53588500D01*
X11846759Y53595011D01*
X11931585Y53620743D01*
X12009760Y53662529D01*
X12078281Y53718763D01*
X12092372Y53735933D01*
X12514039Y54157600D01*
X13580000Y54157600D01*
X13580000Y53607600D01*
X13627337Y53434978D01*
X13707441Y53274908D01*
X13817234Y53133541D01*
X13952497Y53016310D01*
X14108032Y52927720D01*
X14189181Y52909881D01*
X14326000Y52976562D01*
X14326000Y54157600D01*
X14634000Y54157600D01*
X14634000Y52976562D01*
X14770819Y52909881D01*
X14851968Y52927720D01*
X15007503Y53016310D01*
X15142766Y53133541D01*
X15252559Y53274908D01*
X15332663Y53434978D01*
X15337677Y53453265D01*
X16630000Y53453265D01*
X16630000Y53226735D01*
X16674194Y53004557D01*
X16760884Y52795271D01*
X16886737Y52606918D01*
X17046918Y52446737D01*
X17235271Y52320884D01*
X17444557Y52234194D01*
X17666735Y52190000D01*
X17893265Y52190000D01*
X18115443Y52234194D01*
X18324729Y52320884D01*
X18513082Y52446737D01*
X18673263Y52606918D01*
X18799116Y52795271D01*
X18885806Y53004557D01*
X18930000Y53226735D01*
X18930000Y53453265D01*
X18885806Y53675443D01*
X18799116Y53884729D01*
X18673263Y54073082D01*
X18513082Y54233263D01*
X18324729Y54359116D01*
X18115443Y54445806D01*
X17893265Y54490000D01*
X17666735Y54490000D01*
X17444557Y54445806D01*
X17235271Y54359116D01*
X17046918Y54233263D01*
X16886737Y54073082D01*
X16760884Y53884729D01*
X16674194Y53675443D01*
X16630000Y53453265D01*
X15337677Y53453265D01*
X15380000Y53607600D01*
X15380000Y54157600D01*
X14634000Y54157600D01*
X14326000Y54157600D01*
X13580000Y54157600D01*
X12514039Y54157600D01*
X12559666Y54203226D01*
X12576831Y54217313D01*
X12590918Y54234478D01*
X12590922Y54234482D01*
X12633065Y54285833D01*
X12653810Y54324645D01*
X12753952Y54257732D01*
X12867694Y54210619D01*
X12988443Y54186600D01*
X13111557Y54186600D01*
X13232306Y54210619D01*
X13346048Y54257732D01*
X13448414Y54326131D01*
X13535469Y54413186D01*
X13580000Y54479831D01*
X13580000Y54465600D01*
X14326000Y54465600D01*
X14326000Y54485600D01*
X14634000Y54485600D01*
X14634000Y54465600D01*
X15380000Y54465600D01*
X15380000Y54949991D01*
X15780345Y54949991D01*
X15799991Y54948056D01*
X15819637Y54949991D01*
X15819638Y54949991D01*
X15878405Y54955779D01*
X15953805Y54978651D01*
X16023294Y55015794D01*
X16084202Y55065780D01*
X16096728Y55081043D01*
X16365685Y55350000D01*
X16459095Y55350000D01*
X16575014Y55373058D01*
X16633452Y55397264D01*
X16685909Y55275450D01*
X16824873Y55073620D01*
X17000542Y54902778D01*
X17206166Y54769490D01*
X17433842Y54678879D01*
X17626000Y54739516D01*
X17626000Y55726000D01*
X17606000Y55726000D01*
X17606000Y56034000D01*
X17626000Y56034000D01*
X17626000Y57020484D01*
X17433842Y57081121D01*
X17206166Y56990510D01*
X17000542Y56857222D01*
X16824873Y56686380D01*
X16685909Y56484550D01*
X16684580Y56481464D01*
X16684207Y56481713D01*
X16575014Y56526942D01*
X16459095Y56550000D01*
X16340905Y56550000D01*
X16224986Y56526942D01*
X16115793Y56481713D01*
X16017522Y56416050D01*
X15933950Y56332478D01*
X15900000Y56281669D01*
X15866050Y56332478D01*
X15782478Y56416050D01*
X15684207Y56481713D01*
X15575014Y56526942D01*
X15459095Y56550000D01*
X15367105Y56550000D01*
X16628549Y57811442D01*
X16628549Y57570000D01*
X16634341Y57511190D01*
X16651496Y57454640D01*
X16679353Y57402523D01*
X16716842Y57356842D01*
X16762523Y57319353D01*
X16814640Y57291496D01*
X16871190Y57274341D01*
X16930000Y57268549D01*
X18520766Y57268549D01*
X18980201Y56809114D01*
X18980201Y56229169D01*
X18971010Y56259487D01*
X18874091Y56484550D01*
X18735127Y56686380D01*
X18559458Y56857222D01*
X18353834Y56990510D01*
X18126158Y57081121D01*
X17934000Y57020484D01*
X17934000Y56034000D01*
X17954000Y56034000D01*
X17954000Y55726000D01*
X17934000Y55726000D01*
X17934000Y54739516D01*
X18126158Y54678879D01*
X18353834Y54769490D01*
X18559458Y54902778D01*
X18735127Y55073620D01*
X18874091Y55275450D01*
X18971010Y55500513D01*
X18980201Y55530831D01*
X18980200Y50863884D01*
X18930000Y50813684D01*
X18930000Y50913265D01*
X18885806Y51135443D01*
X18799116Y51344729D01*
X18673263Y51533082D01*
X18513082Y51693263D01*
X18324729Y51819116D01*
X18115443Y51905806D01*
X17893265Y51950000D01*
X17666735Y51950000D01*
X17444557Y51905806D01*
X17235271Y51819116D01*
X17046918Y51693263D01*
X16886737Y51533082D01*
X16760884Y51344729D01*
X16674194Y51135443D01*
X16630000Y50913265D01*
X16630000Y50686735D01*
X16674194Y50464557D01*
X16760884Y50255271D01*
X16886737Y50066918D01*
X17046918Y49906737D01*
X17114136Y49861824D01*
X16291848Y49039535D01*
X16276590Y49027013D01*
X16264068Y49011755D01*
X16264065Y49011752D01*
X16226603Y48966104D01*
X16189461Y48896616D01*
X16166588Y48821215D01*
X16158865Y48742802D01*
X16160801Y48723146D01*
X16160800Y47670047D01*
X16158865Y47650400D01*
X16160800Y47630754D01*
X16166588Y47571987D01*
X16189460Y47496587D01*
X16226603Y47427098D01*
X16276589Y47366189D01*
X16291852Y47353663D01*
X16904463Y46741052D01*
X16916989Y46725789D01*
X16977897Y46675803D01*
X17047386Y46638660D01*
X17073206Y46630828D01*
X17046918Y46613263D01*
X16886737Y46453082D01*
X16760884Y46264729D01*
X16674194Y46055443D01*
X16630000Y45833265D01*
X16630000Y45606735D01*
X16674194Y45384557D01*
X16760884Y45175271D01*
X16886737Y44986918D01*
X17046918Y44826737D01*
X17235271Y44700884D01*
X17444557Y44614194D01*
X17666735Y44570000D01*
X17893265Y44570000D01*
X18115443Y44614194D01*
X18324729Y44700884D01*
X18513082Y44826737D01*
X18580002Y44893657D01*
X18580002Y44006343D01*
X18513082Y44073263D01*
X18324729Y44199116D01*
X18115443Y44285806D01*
X17893265Y44330000D01*
X17666735Y44330000D01*
X17444557Y44285806D01*
X17235271Y44199116D01*
X17046918Y44073263D01*
X16886737Y43913082D01*
X16760884Y43724729D01*
X16674194Y43515443D01*
X16630000Y43293265D01*
X16630000Y43066735D01*
X16674194Y42844557D01*
X16760884Y42635271D01*
X16886737Y42446918D01*
X17046918Y42286737D01*
X17235271Y42160884D01*
X17444557Y42074194D01*
X17666735Y42030000D01*
X17893265Y42030000D01*
X18115443Y42074194D01*
X18324729Y42160884D01*
X18513082Y42286737D01*
X18580001Y42353656D01*
X18580001Y41466344D01*
X18513082Y41533263D01*
X18324729Y41659116D01*
X18115443Y41745806D01*
X17893265Y41790000D01*
X17666735Y41790000D01*
X17444557Y41745806D01*
X17235271Y41659116D01*
X17046918Y41533263D01*
X16886737Y41373082D01*
X16773738Y41203967D01*
X16796942Y41259986D01*
X16820000Y41375905D01*
X16820000Y41494095D01*
X16796942Y41610014D01*
X16751713Y41719207D01*
X16686050Y41817478D01*
X16602478Y41901050D01*
X16504207Y41966713D01*
X16395014Y42011942D01*
X16279095Y42035000D01*
X16160905Y42035000D01*
X16044986Y42011942D01*
X15935793Y41966713D01*
X15837522Y41901050D01*
X15753950Y41817478D01*
X15688287Y41719207D01*
X15643058Y41610014D01*
X15620000Y41494095D01*
X15620000Y41375905D01*
X15643058Y41259986D01*
X15688287Y41150793D01*
X15751101Y41056786D01*
X15304315Y40610000D01*
X15210905Y40610000D01*
X15094986Y40586942D01*
X14985793Y40541713D01*
X14887522Y40476050D01*
X14803950Y40392478D01*
X14738287Y40294207D01*
X14693058Y40185014D01*
X14670000Y40069095D01*
X14670000Y39950905D01*
X14693058Y39834986D01*
X14738287Y39725793D01*
X14803950Y39627522D01*
X14887522Y39543950D01*
X14985793Y39478287D01*
X15094986Y39433058D01*
X15210905Y39410000D01*
X15329095Y39410000D01*
X15445014Y39433058D01*
X15554207Y39478287D01*
X15652478Y39543950D01*
X15736050Y39627522D01*
X15801713Y39725793D01*
X15846942Y39834986D01*
X15870000Y39950905D01*
X15870000Y40044315D01*
X16488953Y40663267D01*
X16504211Y40675789D01*
X16554197Y40736697D01*
X16571668Y40769383D01*
X16591340Y40806185D01*
X16614212Y40881586D01*
X16621935Y40960000D01*
X16620000Y40979646D01*
X16620000Y40986472D01*
X16686050Y41052522D01*
X16738858Y41131555D01*
X16674194Y40975443D01*
X16630000Y40753265D01*
X16630000Y40526735D01*
X16674194Y40304557D01*
X16734143Y40159829D01*
X15759315Y39185000D01*
X13789647Y39185000D01*
X13770000Y39186935D01*
X13750353Y39185000D01*
X13691586Y39179212D01*
X13616186Y39156340D01*
X13546697Y39119197D01*
X13485789Y39069211D01*
X13473265Y39053950D01*
X10654315Y36235000D01*
X10560905Y36235000D01*
X10444986Y36211942D01*
X10335793Y36166713D01*
X10237522Y36101050D01*
X10153950Y36017478D01*
X10088287Y35919207D01*
X10043058Y35810014D01*
X10020000Y35694095D01*
X10020000Y35575905D01*
X10043058Y35459986D01*
X10088287Y35350793D01*
X10153950Y35252522D01*
X10237522Y35168950D01*
X10335793Y35103287D01*
X10444986Y35058058D01*
X10560905Y35035000D01*
X10679095Y35035000D01*
X10795014Y35058058D01*
X10904207Y35103287D01*
X11002478Y35168950D01*
X11086050Y35252522D01*
X11151713Y35350793D01*
X11196942Y35459986D01*
X11220000Y35575905D01*
X11220000Y35669315D01*
X13935685Y38385000D01*
X15723313Y38385000D01*
X14926049Y37587736D01*
X14910791Y37575214D01*
X14898269Y37559956D01*
X14898266Y37559953D01*
X14860804Y37514305D01*
X14823662Y37444817D01*
X14800789Y37369416D01*
X14793066Y37291003D01*
X14795002Y37271347D01*
X14795001Y36925687D01*
X14464988Y36595673D01*
X14464988Y37041484D01*
X14531038Y37107534D01*
X14596701Y37205805D01*
X14641930Y37314998D01*
X14664988Y37430917D01*
X14664988Y37549107D01*
X14641930Y37665026D01*
X14596701Y37774219D01*
X14531038Y37872490D01*
X14447466Y37956062D01*
X14349195Y38021725D01*
X14240002Y38066954D01*
X14124083Y38090012D01*
X14005893Y38090012D01*
X13889974Y38066954D01*
X13780781Y38021725D01*
X13682510Y37956062D01*
X13598938Y37872490D01*
X13533275Y37774219D01*
X13488046Y37665026D01*
X13464988Y37549107D01*
X13464988Y37430917D01*
X13488046Y37314998D01*
X13533275Y37205805D01*
X13598938Y37107534D01*
X13664988Y37041484D01*
X13664989Y36684274D01*
X13476051Y36495336D01*
X13460788Y36482810D01*
X13410802Y36421901D01*
X13373659Y36352412D01*
X13350787Y36277013D01*
X13350787Y36277012D01*
X13343064Y36198599D01*
X13344999Y36178952D01*
X13345000Y35641655D01*
X13343064Y35621999D01*
X13350787Y35543586D01*
X13373660Y35468185D01*
X13410802Y35398697D01*
X13448264Y35353049D01*
X13448267Y35353046D01*
X13460789Y35337788D01*
X13476046Y35325267D01*
X13764265Y35037047D01*
X13776787Y35021789D01*
X13792045Y35009267D01*
X13792047Y35009265D01*
X13805493Y34998231D01*
X13837695Y34971803D01*
X13907184Y34934660D01*
X13982584Y34911788D01*
X14041351Y34906000D01*
X14041353Y34906000D01*
X14060997Y34904065D01*
X14080641Y34906000D01*
X16153815Y34906000D01*
X16968764Y34091051D01*
X16981290Y34075788D01*
X17042198Y34025802D01*
X17111687Y33988659D01*
X17144748Y33978630D01*
X17046918Y33913263D01*
X16886737Y33753082D01*
X16760884Y33564729D01*
X16674194Y33355443D01*
X16630000Y33133265D01*
X16630000Y33033683D01*
X16341739Y33321944D01*
X16341735Y33321949D01*
X15909735Y33753948D01*
X15897209Y33769211D01*
X15836301Y33819197D01*
X15766812Y33856340D01*
X15691412Y33879212D01*
X15632645Y33885000D01*
X15632644Y33885000D01*
X15612998Y33886935D01*
X15593352Y33885000D01*
X14943528Y33885000D01*
X14877478Y33951050D01*
X14779207Y34016713D01*
X14670014Y34061942D01*
X14554095Y34085000D01*
X14435905Y34085000D01*
X14319986Y34061942D01*
X14210793Y34016713D01*
X14112522Y33951050D01*
X14028950Y33867478D01*
X13963287Y33769207D01*
X13918058Y33660014D01*
X13895000Y33544095D01*
X13895000Y33425905D01*
X13918058Y33309986D01*
X13963287Y33200793D01*
X13973840Y33185000D01*
X13618528Y33185000D01*
X13552478Y33251050D01*
X13454207Y33316713D01*
X13345014Y33361942D01*
X13229095Y33385000D01*
X13110905Y33385000D01*
X12994986Y33361942D01*
X12885793Y33316713D01*
X12787522Y33251050D01*
X12703950Y33167478D01*
X12638287Y33069207D01*
X12593058Y32960014D01*
X12570000Y32844095D01*
X12570000Y32725905D01*
X12593058Y32609986D01*
X12638287Y32500793D01*
X12703950Y32402522D01*
X12787522Y32318950D01*
X12885793Y32253287D01*
X12994986Y32208058D01*
X13110905Y32185000D01*
X13229095Y32185000D01*
X13345014Y32208058D01*
X13454207Y32253287D01*
X13552478Y32318950D01*
X13618528Y32385000D01*
X14073847Y32385000D01*
X14063287Y32369196D01*
X14018058Y32260003D01*
X13995000Y32144084D01*
X13995000Y32025894D01*
X14018058Y31909975D01*
X14063287Y31800782D01*
X14128950Y31702511D01*
X14212522Y31618939D01*
X14232116Y31605847D01*
X14187522Y31576050D01*
X14103950Y31492478D01*
X14038287Y31394207D01*
X13993058Y31285014D01*
X13970000Y31169095D01*
X13970000Y31050905D01*
X13993058Y30934986D01*
X14038287Y30825793D01*
X14103950Y30727522D01*
X14108972Y30722500D01*
X14067185Y30680713D01*
X14001522Y30582442D01*
X13991172Y30557454D01*
X11141075Y33407551D01*
X11186048Y33452524D01*
X11251711Y33550795D01*
X11296940Y33659988D01*
X11319998Y33775907D01*
X11319998Y33894097D01*
X11296940Y34010016D01*
X11251711Y34119209D01*
X11186048Y34217480D01*
X11102476Y34301052D01*
X11004205Y34366715D01*
X10895012Y34411944D01*
X10779093Y34435002D01*
X10660903Y34435002D01*
X10544984Y34411944D01*
X10435791Y34366715D01*
X10337520Y34301052D01*
X10253948Y34217480D01*
X10188285Y34119209D01*
X10143056Y34010016D01*
X10119998Y33894097D01*
X10119998Y33775907D01*
X10143056Y33659988D01*
X10188285Y33550795D01*
X10253948Y33452524D01*
X10319999Y33386473D01*
X10319999Y33282598D01*
X10318063Y33262942D01*
X10325786Y33184529D01*
X10348659Y33109128D01*
X10385801Y33039640D01*
X10423263Y32993992D01*
X10423266Y32993989D01*
X10435788Y32978731D01*
X10451046Y32966209D01*
X14936001Y28481253D01*
X14962287Y28417793D01*
X15027950Y28319522D01*
X15111522Y28235950D01*
X15209793Y28170287D01*
X15318986Y28125058D01*
X15434905Y28102000D01*
X15553095Y28102000D01*
X15669014Y28125058D01*
X15778207Y28170287D01*
X15820000Y28198212D01*
X15820001Y19562096D01*
X14301052Y18043147D01*
X14285789Y18030621D01*
X14235803Y17969712D01*
X14198660Y17900223D01*
X14188951Y17868215D01*
X14175788Y17824823D01*
X14168065Y17746410D01*
X14170000Y17726763D01*
X14170000Y17608528D01*
X14103950Y17542478D01*
X14038287Y17444207D01*
X13993058Y17335014D01*
X13970000Y17219095D01*
X13970000Y17100905D01*
X13993058Y16984986D01*
X14038287Y16875793D01*
X14103950Y16777522D01*
X14187522Y16693950D01*
X14285793Y16628287D01*
X14394986Y16583058D01*
X14510905Y16560000D01*
X14629095Y16560000D01*
X14745014Y16583058D01*
X14790001Y16601692D01*
X14790000Y11362396D01*
X13593105Y10165500D01*
X12849094Y10165500D01*
X12827000Y10167676D01*
X12804905Y10165500D01*
X12804895Y10165500D01*
X12738785Y10158989D01*
X12653959Y10133257D01*
X12575783Y10091471D01*
X12524432Y10049328D01*
X12524428Y10049324D01*
X12507263Y10035237D01*
X12493176Y10018072D01*
X12079929Y9604824D01*
X12062764Y9590737D01*
X12048677Y9573572D01*
X12048672Y9573567D01*
X12006529Y9522216D01*
X11964743Y9444040D01*
X11950329Y9396522D01*
X11939012Y9359215D01*
X11934456Y9312950D01*
X11930324Y9271000D01*
X11932501Y9248896D01*
X11932501Y8734400D01*
X11920523Y8742403D01*
X11820429Y8783864D01*
X11714170Y8805000D01*
X11605830Y8805000D01*
X11499571Y8783864D01*
X11399477Y8742403D01*
X11372000Y8724044D01*
X11372000Y11090409D01*
X11374176Y11112501D01*
X11372000Y11134593D01*
X11372000Y11134605D01*
X11365489Y11200715D01*
X11339757Y11285541D01*
X11305816Y11349040D01*
X11297971Y11363717D01*
X11255828Y11415068D01*
X11255824Y11415072D01*
X11241737Y11432237D01*
X11224573Y11446323D01*
X10120827Y12550068D01*
X10106737Y12567237D01*
X10038216Y12623471D01*
X9960041Y12665257D01*
X9875215Y12690989D01*
X9809105Y12697500D01*
X9809094Y12697500D01*
X9787000Y12699676D01*
X9764906Y12697500D01*
X8016028Y12697500D01*
X8091050Y12772522D01*
X8156713Y12870793D01*
X8201942Y12979986D01*
X8225000Y13095905D01*
X8225000Y13214095D01*
X8201942Y13330014D01*
X8156713Y13439207D01*
X8091050Y13537478D01*
X8075000Y13553528D01*
X8075000Y13956472D01*
X8091050Y13972522D01*
X8156713Y14070793D01*
X8201942Y14179986D01*
X8225000Y14295905D01*
X8225000Y14414095D01*
X8201942Y14530014D01*
X8156713Y14639207D01*
X8091050Y14737478D01*
X8007478Y14821050D01*
X7909207Y14886713D01*
X7800014Y14931942D01*
X7684095Y14955000D01*
X7565905Y14955000D01*
X7449986Y14931942D01*
X7340793Y14886713D01*
X7242522Y14821050D01*
X7158950Y14737478D01*
X7093287Y14639207D01*
X7048058Y14530014D01*
X7025000Y14414095D01*
X7025000Y14295905D01*
X7048058Y14179986D01*
X7093287Y14070793D01*
X7158950Y13972522D01*
X7175001Y13956471D01*
X7175000Y13553528D01*
X7158950Y13537478D01*
X7093287Y13439207D01*
X7048058Y13330014D01*
X7025000Y13214095D01*
X7025000Y13095905D01*
X7048058Y12979986D01*
X7093287Y12870793D01*
X7158950Y12772522D01*
X7233972Y12697500D01*
X6063896Y12697500D01*
X4387000Y14374395D01*
X4387000Y16159095D01*
X4424979Y16159095D01*
X4424979Y16040905D01*
X4448037Y15924986D01*
X4493266Y15815793D01*
X4558929Y15717522D01*
X4642501Y15633950D01*
X4740772Y15568287D01*
X4849965Y15523058D01*
X4965884Y15500000D01*
X5084074Y15500000D01*
X5199993Y15523058D01*
X5309186Y15568287D01*
X5407457Y15633950D01*
X5423507Y15650000D01*
X6451472Y15650000D01*
X6467522Y15633950D01*
X6565793Y15568287D01*
X6674986Y15523058D01*
X6790905Y15500000D01*
X6909095Y15500000D01*
X7025014Y15523058D01*
X7134207Y15568287D01*
X7232478Y15633950D01*
X7316050Y15717522D01*
X7381713Y15815793D01*
X7426942Y15924986D01*
X7450000Y16040905D01*
X7450000Y16159095D01*
X7426942Y16275014D01*
X7381713Y16384207D01*
X7316050Y16482478D01*
X7232478Y16566050D01*
X7134207Y16631713D01*
X7025014Y16676942D01*
X6909095Y16700000D01*
X6790905Y16700000D01*
X6674986Y16676942D01*
X6565793Y16631713D01*
X6467522Y16566050D01*
X6451472Y16550000D01*
X5423507Y16550000D01*
X5407457Y16566050D01*
X5309186Y16631713D01*
X5199993Y16676942D01*
X5084074Y16700000D01*
X4965884Y16700000D01*
X4849965Y16676942D01*
X4740772Y16631713D01*
X4642501Y16566050D01*
X4558929Y16482478D01*
X4493266Y16384207D01*
X4448037Y16275014D01*
X4424979Y16159095D01*
X4387000Y16159095D01*
X4387000Y16360909D01*
X4389176Y16383001D01*
X4387000Y16405093D01*
X4387000Y16405105D01*
X4380489Y16471215D01*
X4354757Y16556041D01*
X4340316Y16583058D01*
X4312971Y16634217D01*
X4270828Y16685568D01*
X4270824Y16685572D01*
X4256737Y16702737D01*
X4239573Y16716823D01*
X3606568Y17349828D01*
X3645806Y17444557D01*
X3690000Y17666735D01*
X3690000Y17893265D01*
X3645806Y18115443D01*
X3559116Y18324729D01*
X3433263Y18513082D01*
X3273082Y18673263D01*
X3084729Y18799116D01*
X2875443Y18885806D01*
X2653265Y18930000D01*
X2426735Y18930000D01*
X2204557Y18885806D01*
X1995271Y18799116D01*
X1806918Y18673263D01*
X1646737Y18513082D01*
X1592200Y18431461D01*
X1592200Y19668539D01*
X1646737Y19586918D01*
X1806918Y19426737D01*
X1995271Y19300884D01*
X2204557Y19214194D01*
X2426735Y19170000D01*
X2653265Y19170000D01*
X2875443Y19214194D01*
X3084729Y19300884D01*
X3273082Y19426737D01*
X3433263Y19586918D01*
X3559116Y19775271D01*
X3645806Y19984557D01*
X3690000Y20206735D01*
X3690000Y20433265D01*
X3645806Y20655443D01*
X3559116Y20864729D01*
X3433263Y21053082D01*
X3273082Y21213263D01*
X3084729Y21339116D01*
X2875443Y21425806D01*
X2653265Y21470000D01*
X2426735Y21470000D01*
X2204557Y21425806D01*
X1995271Y21339116D01*
X1806918Y21213263D01*
X1646737Y21053082D01*
X1592200Y20971461D01*
X1592200Y22208539D01*
X1646737Y22126918D01*
X1806918Y21966737D01*
X1995271Y21840884D01*
X2204557Y21754194D01*
X2426735Y21710000D01*
X2653265Y21710000D01*
X2875443Y21754194D01*
X3084729Y21840884D01*
X3273082Y21966737D01*
X3433263Y22126918D01*
X3559116Y22315271D01*
X3645806Y22524557D01*
X3690000Y22746735D01*
X3690000Y22973265D01*
X3645806Y23195443D01*
X3559116Y23404729D01*
X3433263Y23593082D01*
X3273082Y23753263D01*
X3084729Y23879116D01*
X2875443Y23965806D01*
X2653265Y24010000D01*
X2426735Y24010000D01*
X2204557Y23965806D01*
X1995271Y23879116D01*
X1806918Y23753263D01*
X1646737Y23593082D01*
X1592200Y23511461D01*
X1592200Y23745095D01*
X2159828Y24312722D01*
X2204557Y24294194D01*
X2426735Y24250000D01*
X2653265Y24250000D01*
X2875443Y24294194D01*
X3084729Y24380884D01*
X3273082Y24506737D01*
X3433263Y24666918D01*
X3559116Y24855271D01*
X3598354Y24950000D01*
X4830105Y24950000D01*
X4861000Y24919105D01*
X4861000Y24896405D01*
X4884058Y24780486D01*
X4929287Y24671293D01*
X4994950Y24573022D01*
X5078522Y24489450D01*
X5176793Y24423787D01*
X5285986Y24378558D01*
X5401905Y24355500D01*
X5520095Y24355500D01*
X5636014Y24378558D01*
X5745207Y24423787D01*
X5843478Y24489450D01*
X5927050Y24573022D01*
X5992713Y24671293D01*
X6037942Y24780486D01*
X6061000Y24896405D01*
X6061000Y25014595D01*
X6037942Y25130514D01*
X5992713Y25239707D01*
X5927050Y25337978D01*
X5843478Y25421550D01*
X5745207Y25487213D01*
X5636014Y25532442D01*
X5520095Y25555500D01*
X5497395Y25555500D01*
X5350328Y25702567D01*
X5336237Y25719737D01*
X5267716Y25775971D01*
X5189541Y25817757D01*
X5104715Y25843489D01*
X5038605Y25850000D01*
X5038594Y25850000D01*
X5016500Y25852176D01*
X4994406Y25850000D01*
X3598354Y25850000D01*
X3559116Y25944729D01*
X3433263Y26133082D01*
X3273082Y26293263D01*
X3084729Y26419116D01*
X2875443Y26505806D01*
X2653265Y26550000D01*
X2426735Y26550000D01*
X2204557Y26505806D01*
X1995271Y26419116D01*
X1806918Y26293263D01*
X1646737Y26133082D01*
X1520884Y25944729D01*
X1434194Y25735443D01*
X1390000Y25513265D01*
X1390000Y25286735D01*
X1434194Y25064557D01*
X1452722Y25019828D01*
X756024Y24323129D01*
X736936Y24307464D01*
X674454Y24231329D01*
X628025Y24144466D01*
X610439Y24086492D01*
X599435Y24050217D01*
X589781Y23952200D01*
X592200Y23927640D01*
X592201Y13107370D01*
X589781Y13082800D01*
X599435Y12984783D01*
X609618Y12951216D01*
X628026Y12890533D01*
X674455Y12803671D01*
X736937Y12727536D01*
X756019Y12711876D01*
X1104075Y12363819D01*
X1119736Y12344736D01*
X1195871Y12282254D01*
X1282733Y12235825D01*
X1367868Y12210000D01*
X1376983Y12207235D01*
X1475000Y12197581D01*
X1499560Y12200000D01*
X1502356Y12200000D01*
X1520884Y12155271D01*
X1646737Y11966918D01*
X1806918Y11806737D01*
X1995271Y11680884D01*
X2204557Y11594194D01*
X2426735Y11550000D01*
X2653265Y11550000D01*
X2875443Y11594194D01*
X3084729Y11680884D01*
X3273082Y11806737D01*
X3433263Y11966918D01*
X3559116Y12155271D01*
X3580854Y12207751D01*
X5105676Y10682928D01*
X5119763Y10665763D01*
X5136928Y10651676D01*
X5136932Y10651672D01*
X5188283Y10609529D01*
X5230473Y10586978D01*
X5266459Y10567743D01*
X5351285Y10542011D01*
X5417395Y10535500D01*
X5417405Y10535500D01*
X5439499Y10533324D01*
X5461593Y10535500D01*
X8078105Y10535500D01*
X8948000Y9665604D01*
X8948000Y8724043D01*
X8920523Y8742403D01*
X8820429Y8783864D01*
X8714170Y8805000D01*
X8605830Y8805000D01*
X8499571Y8783864D01*
X8399477Y8742403D01*
X8309396Y8682213D01*
X8232787Y8605604D01*
X8172597Y8515523D01*
X8131136Y8415429D01*
X8110000Y8309170D01*
X8110000Y8200830D01*
X8131136Y8094571D01*
X8172597Y7994477D01*
X8232787Y7904396D01*
X8309396Y7827787D01*
X8399477Y7767597D01*
X8499571Y7726136D01*
X8605830Y7705000D01*
X8714170Y7705000D01*
X8820429Y7726136D01*
X8920523Y7767597D01*
X8948001Y7785957D01*
X8948001Y7107897D01*
X8531034Y6690929D01*
X8513864Y6676838D01*
X8499773Y6659668D01*
X8457630Y6608317D01*
X8424069Y6545529D01*
X8415844Y6530141D01*
X8390112Y6445315D01*
X8383601Y6379205D01*
X8383601Y6379195D01*
X8381425Y6357101D01*
X8383601Y6335006D01*
X8383601Y5961978D01*
X8361752Y5983827D01*
X8171171Y6111169D01*
X7959410Y6198883D01*
X7734605Y6243600D01*
X7505395Y6243600D01*
X7280590Y6198883D01*
X7068829Y6111169D01*
X6878248Y5983827D01*
X6716173Y5821752D01*
X6588831Y5631171D01*
X6501117Y5419410D01*
X6456400Y5194605D01*
X6456400Y4965395D01*
X6501117Y4740590D01*
X6543023Y4639419D01*
X6103828Y4200223D01*
X6086663Y4186136D01*
X6072576Y4168971D01*
X6072571Y4168966D01*
X6030428Y4117615D01*
X5988642Y4039439D01*
X5962911Y3954614D01*
X5954223Y3866399D01*
X5956400Y3844295D01*
X5956400Y3703790D01*
X5943600Y3705051D01*
X4341446Y3705051D01*
X4639419Y4003023D01*
X4740590Y3961117D01*
X4965395Y3916400D01*
X5194605Y3916400D01*
X5419410Y3961117D01*
X5631171Y4048831D01*
X5821752Y4176173D01*
X5983827Y4338248D01*
X6111169Y4528829D01*
X6198883Y4740590D01*
X6243600Y4965395D01*
X6243600Y5194605D01*
X6198883Y5419410D01*
X6111169Y5631171D01*
X5983827Y5821752D01*
X5821752Y5983827D01*
X5631171Y6111169D01*
X5419410Y6198883D01*
X5194605Y6243600D01*
X4965395Y6243600D01*
X4740590Y6198883D01*
X4528829Y6111169D01*
X4338248Y5983827D01*
X4176173Y5821752D01*
X4048831Y5631171D01*
X3961117Y5419410D01*
X3916400Y5194605D01*
X3916400Y4965395D01*
X3961117Y4740590D01*
X4003023Y4639419D01*
X3202634Y3839029D01*
X3185463Y3824937D01*
X3171372Y3807767D01*
X3129229Y3756416D01*
X3122301Y3743454D01*
X3087443Y3678240D01*
X3061711Y3593414D01*
X3055200Y3527304D01*
X3055200Y3527294D01*
X3053024Y3505200D01*
X3055200Y3483105D01*
X3055201Y1596904D01*
X3053024Y1574800D01*
X3061712Y1486585D01*
X3087443Y1401760D01*
X3129229Y1323584D01*
X3171372Y1272233D01*
X3171377Y1272228D01*
X3185464Y1255063D01*
X3202629Y1240976D01*
X4043604Y400000D01*
X400000Y400000D01*
X400000Y5823000D01*
X1924647Y5823000D01*
X1945035Y5825008D01*
X1958219Y5825008D01*
X1963774Y5825592D01*
X2160826Y5847695D01*
X2196287Y5855232D01*
X2231850Y5862274D01*
X2237185Y5863925D01*
X2426192Y5923882D01*
X2459520Y5938166D01*
X2493035Y5951980D01*
X2497948Y5954636D01*
X2671709Y6050163D01*
X2701623Y6070646D01*
X2731817Y6090707D01*
X2736117Y6094265D01*
X2736122Y6094268D01*
X2736126Y6094272D01*
X2888018Y6221723D01*
X2913399Y6247641D01*
X2939109Y6273172D01*
X2942639Y6277500D01*
X3066888Y6432034D01*
X3086750Y6462386D01*
X3107013Y6492427D01*
X3109635Y6497358D01*
X3201500Y6673082D01*
X3215084Y6706704D01*
X3229130Y6740117D01*
X3230745Y6745464D01*
X3286730Y6935685D01*
X3293531Y6971336D01*
X3300813Y7006810D01*
X3301358Y7012369D01*
X3319329Y7209841D01*
X3319076Y7246094D01*
X3319329Y7282347D01*
X3318784Y7287905D01*
X3298057Y7485107D01*
X3290765Y7520628D01*
X3283974Y7556230D01*
X3282360Y7561577D01*
X3223725Y7750998D01*
X3209663Y7784451D01*
X3196094Y7818035D01*
X3193472Y7822967D01*
X3099161Y7997390D01*
X3078888Y8027446D01*
X3059037Y8057781D01*
X3055511Y8062104D01*
X3055507Y8062110D01*
X3055502Y8062115D01*
X2929113Y8214894D01*
X2903404Y8240424D01*
X2878024Y8266341D01*
X2873720Y8269901D01*
X2825572Y8309170D01*
X3610000Y8309170D01*
X3610000Y8200830D01*
X3631136Y8094571D01*
X3672597Y7994477D01*
X3732787Y7904396D01*
X3809396Y7827787D01*
X3899477Y7767597D01*
X3999571Y7726136D01*
X4105830Y7705000D01*
X4214170Y7705000D01*
X4320429Y7726136D01*
X4420523Y7767597D01*
X4510604Y7827787D01*
X4587213Y7904396D01*
X4647403Y7994477D01*
X4688864Y8094571D01*
X4710000Y8200830D01*
X4710000Y8309170D01*
X5110000Y8309170D01*
X5110000Y8200830D01*
X5131136Y8094571D01*
X5172597Y7994477D01*
X5232787Y7904396D01*
X5309396Y7827787D01*
X5399477Y7767597D01*
X5499571Y7726136D01*
X5605830Y7705000D01*
X5714170Y7705000D01*
X5820429Y7726136D01*
X5920523Y7767597D01*
X6010604Y7827787D01*
X6087213Y7904396D01*
X6147403Y7994477D01*
X6188864Y8094571D01*
X6210000Y8200830D01*
X6210000Y8309170D01*
X6610000Y8309170D01*
X6610000Y8200830D01*
X6631136Y8094571D01*
X6672597Y7994477D01*
X6732787Y7904396D01*
X6809396Y7827787D01*
X6899477Y7767597D01*
X6999571Y7726136D01*
X7105830Y7705000D01*
X7214170Y7705000D01*
X7320429Y7726136D01*
X7420523Y7767597D01*
X7510604Y7827787D01*
X7587213Y7904396D01*
X7647403Y7994477D01*
X7688864Y8094571D01*
X7710000Y8200830D01*
X7710000Y8309170D01*
X7688864Y8415429D01*
X7647403Y8515523D01*
X7587213Y8605604D01*
X7510604Y8682213D01*
X7420523Y8742403D01*
X7320429Y8783864D01*
X7214170Y8805000D01*
X7105830Y8805000D01*
X6999571Y8783864D01*
X6899477Y8742403D01*
X6809396Y8682213D01*
X6732787Y8605604D01*
X6672597Y8515523D01*
X6631136Y8415429D01*
X6610000Y8309170D01*
X6210000Y8309170D01*
X6188864Y8415429D01*
X6147403Y8515523D01*
X6087213Y8605604D01*
X6010604Y8682213D01*
X5920523Y8742403D01*
X5820429Y8783864D01*
X5714170Y8805000D01*
X5605830Y8805000D01*
X5499571Y8783864D01*
X5399477Y8742403D01*
X5309396Y8682213D01*
X5232787Y8605604D01*
X5172597Y8515523D01*
X5131136Y8415429D01*
X5110000Y8309170D01*
X4710000Y8309170D01*
X4688864Y8415429D01*
X4647403Y8515523D01*
X4587213Y8605604D01*
X4510604Y8682213D01*
X4420523Y8742403D01*
X4320429Y8783864D01*
X4214170Y8805000D01*
X4105830Y8805000D01*
X3999571Y8783864D01*
X3899477Y8742403D01*
X3809396Y8682213D01*
X3732787Y8605604D01*
X3672597Y8515523D01*
X3631136Y8415429D01*
X3610000Y8309170D01*
X2825572Y8309170D01*
X2720058Y8395225D01*
X2689861Y8415288D01*
X2659948Y8435770D01*
X2655035Y8438427D01*
X2479957Y8531518D01*
X2446427Y8545338D01*
X2413115Y8559616D01*
X2407787Y8561265D01*
X2407781Y8561267D01*
X2407775Y8561268D01*
X2217953Y8618578D01*
X2182404Y8625617D01*
X2146930Y8633157D01*
X2141376Y8633741D01*
X1944034Y8653091D01*
X1944030Y8653091D01*
X1924647Y8655000D01*
X400000Y8655000D01*
X400000Y10273265D01*
X1390000Y10273265D01*
X1390000Y10046735D01*
X1434194Y9824557D01*
X1520884Y9615271D01*
X1646737Y9426918D01*
X1806918Y9266737D01*
X1995271Y9140884D01*
X2204557Y9054194D01*
X2426735Y9010000D01*
X2653265Y9010000D01*
X2875443Y9054194D01*
X3084729Y9140884D01*
X3273082Y9266737D01*
X3433263Y9426918D01*
X3559116Y9615271D01*
X3645806Y9824557D01*
X3648498Y9838095D01*
X5163500Y9838095D01*
X5163500Y9719905D01*
X5186558Y9603986D01*
X5231787Y9494793D01*
X5297450Y9396522D01*
X5381022Y9312950D01*
X5479293Y9247287D01*
X5588486Y9202058D01*
X5704405Y9179000D01*
X5822595Y9179000D01*
X5938514Y9202058D01*
X6047707Y9247287D01*
X6145978Y9312950D01*
X6162028Y9329000D01*
X6664972Y9329000D01*
X6681022Y9312950D01*
X6779293Y9247287D01*
X6888486Y9202058D01*
X7004405Y9179000D01*
X7122595Y9179000D01*
X7238514Y9202058D01*
X7347707Y9247287D01*
X7445978Y9312950D01*
X7529550Y9396522D01*
X7595213Y9494793D01*
X7640442Y9603986D01*
X7663500Y9719905D01*
X7663500Y9838095D01*
X7640442Y9954014D01*
X7595213Y10063207D01*
X7529550Y10161478D01*
X7445978Y10245050D01*
X7347707Y10310713D01*
X7238514Y10355942D01*
X7122595Y10379000D01*
X7004405Y10379000D01*
X6888486Y10355942D01*
X6779293Y10310713D01*
X6681022Y10245050D01*
X6664972Y10229000D01*
X6162028Y10229000D01*
X6145978Y10245050D01*
X6047707Y10310713D01*
X5938514Y10355942D01*
X5822595Y10379000D01*
X5704405Y10379000D01*
X5588486Y10355942D01*
X5479293Y10310713D01*
X5381022Y10245050D01*
X5297450Y10161478D01*
X5231787Y10063207D01*
X5186558Y9954014D01*
X5163500Y9838095D01*
X3648498Y9838095D01*
X3690000Y10046735D01*
X3690000Y10273265D01*
X3645806Y10495443D01*
X3559116Y10704729D01*
X3433263Y10893082D01*
X3273082Y11053263D01*
X3084729Y11179116D01*
X2875443Y11265806D01*
X2653265Y11310000D01*
X2426735Y11310000D01*
X2204557Y11265806D01*
X1995271Y11179116D01*
X1806918Y11053263D01*
X1646737Y10893082D01*
X1520884Y10704729D01*
X1434194Y10495443D01*
X1390000Y10273265D01*
X400000Y10273265D01*
X400000Y26789305D01*
X519990Y26669315D01*
X519990Y26575905D01*
X543048Y26459986D01*
X588277Y26350793D01*
X653940Y26252522D01*
X737512Y26168950D01*
X835783Y26103287D01*
X944976Y26058058D01*
X1060895Y26035000D01*
X1179085Y26035000D01*
X1295004Y26058058D01*
X1404197Y26103287D01*
X1502468Y26168950D01*
X1586040Y26252522D01*
X1651703Y26350793D01*
X1696932Y26459986D01*
X1719990Y26575905D01*
X1719990Y26694095D01*
X1715018Y26719095D01*
X3395000Y26719095D01*
X3395000Y26600905D01*
X3418058Y26484986D01*
X3463287Y26375793D01*
X3528950Y26277522D01*
X3612522Y26193950D01*
X3710793Y26128287D01*
X3819986Y26083058D01*
X3935905Y26060000D01*
X4054095Y26060000D01*
X4170014Y26083058D01*
X4247129Y26115000D01*
X6273065Y26115000D01*
X6275001Y26095344D01*
X6275000Y24274647D01*
X6273065Y24255000D01*
X6277217Y24212847D01*
X6280788Y24176587D01*
X6303660Y24101187D01*
X6340803Y24031698D01*
X6390789Y23970789D01*
X6406052Y23958263D01*
X6502490Y23861825D01*
X6502489Y19787157D01*
X6500554Y19767511D01*
X6504328Y19729197D01*
X6508277Y19689098D01*
X6531149Y19613698D01*
X6568292Y19544209D01*
X6618278Y19483300D01*
X6633541Y19470774D01*
X8540001Y17564314D01*
X8540000Y14638948D01*
X8538065Y14619301D01*
X8540000Y14599655D01*
X8545788Y14540888D01*
X8568660Y14465488D01*
X8605803Y14395999D01*
X8655789Y14335090D01*
X8671052Y14322564D01*
X10527578Y12466037D01*
X10540100Y12450779D01*
X10555358Y12438257D01*
X10555360Y12438255D01*
X10576543Y12420871D01*
X10601008Y12400793D01*
X10670497Y12363650D01*
X10745897Y12340778D01*
X10804664Y12334990D01*
X10804674Y12334990D01*
X10824310Y12333056D01*
X10843946Y12334990D01*
X13354325Y12334990D01*
X13445000Y12244315D01*
X13445000Y12150905D01*
X13468058Y12034986D01*
X13513287Y11925793D01*
X13578950Y11827522D01*
X13662522Y11743950D01*
X13760793Y11678287D01*
X13869986Y11633058D01*
X13985905Y11610000D01*
X14104095Y11610000D01*
X14220014Y11633058D01*
X14329207Y11678287D01*
X14427478Y11743950D01*
X14511050Y11827522D01*
X14576713Y11925793D01*
X14621942Y12034986D01*
X14645000Y12150905D01*
X14645000Y12269095D01*
X14621942Y12385014D01*
X14576713Y12494207D01*
X14511050Y12592478D01*
X14461775Y12641753D01*
X14502478Y12668950D01*
X14586050Y12752522D01*
X14651713Y12850793D01*
X14696942Y12959986D01*
X14720000Y13075905D01*
X14720000Y13194095D01*
X14696942Y13310014D01*
X14651713Y13419207D01*
X14586050Y13517478D01*
X14502478Y13601050D01*
X14404207Y13666713D01*
X14295014Y13711942D01*
X14179095Y13735000D01*
X14060905Y13735000D01*
X13944986Y13711942D01*
X13835793Y13666713D01*
X13737522Y13601050D01*
X13671472Y13535000D01*
X11155685Y13535000D01*
X9777500Y14913185D01*
X9777500Y17857865D01*
X9779434Y17877501D01*
X9777500Y17897137D01*
X9777500Y17897147D01*
X9771712Y17955914D01*
X9760131Y17994095D01*
X12170000Y17994095D01*
X12170000Y17875905D01*
X12193058Y17759986D01*
X12238287Y17650793D01*
X12303950Y17552522D01*
X12387522Y17468950D01*
X12485793Y17403287D01*
X12594986Y17358058D01*
X12710905Y17335000D01*
X12829095Y17335000D01*
X12945014Y17358058D01*
X13054207Y17403287D01*
X13152478Y17468950D01*
X13236050Y17552522D01*
X13301713Y17650793D01*
X13346942Y17759986D01*
X13370000Y17875905D01*
X13370000Y17994095D01*
X13346942Y18110014D01*
X13301713Y18219207D01*
X13236050Y18317478D01*
X13152478Y18401050D01*
X13054207Y18466713D01*
X12945014Y18511942D01*
X12829095Y18535000D01*
X12710905Y18535000D01*
X12594986Y18511942D01*
X12485793Y18466713D01*
X12387522Y18401050D01*
X12303950Y18317478D01*
X12238287Y18219207D01*
X12193058Y18110014D01*
X12170000Y17994095D01*
X9760131Y17994095D01*
X9748840Y18031314D01*
X9711697Y18100803D01*
X9686148Y18131935D01*
X9674235Y18146451D01*
X9674233Y18146453D01*
X9661711Y18161711D01*
X9646454Y18174232D01*
X7702500Y20118185D01*
X7702500Y24173554D01*
X7704435Y24193201D01*
X7696712Y24271614D01*
X7691624Y24288386D01*
X7673840Y24347014D01*
X7636697Y24416503D01*
X7586711Y24477411D01*
X7571449Y24489936D01*
X7475011Y24586374D01*
X7475011Y25749326D01*
X10713944Y28988259D01*
X10729207Y29000785D01*
X10779193Y29061693D01*
X10816336Y29131182D01*
X10839208Y29206582D01*
X10844996Y29265349D01*
X10844996Y29265359D01*
X10846930Y29284995D01*
X10844996Y29304631D01*
X10844996Y30536472D01*
X10911046Y30602522D01*
X10976709Y30700793D01*
X11021938Y30809986D01*
X11044996Y30925905D01*
X11044996Y31044095D01*
X11021938Y31160014D01*
X10976709Y31269207D01*
X10911046Y31367478D01*
X10827474Y31451050D01*
X10729203Y31516713D01*
X10620010Y31561942D01*
X10504091Y31585000D01*
X10385901Y31585000D01*
X10269982Y31561942D01*
X10160789Y31516713D01*
X10062518Y31451050D01*
X9978946Y31367478D01*
X9913283Y31269207D01*
X9884433Y31199556D01*
X9793413Y31217661D01*
X9675223Y31217661D01*
X9559304Y31194603D01*
X9450111Y31149374D01*
X9351840Y31083711D01*
X9268268Y31000139D01*
X9202605Y30901868D01*
X9157376Y30792675D01*
X9134318Y30676756D01*
X9134318Y30558566D01*
X9157376Y30442647D01*
X9202605Y30333454D01*
X9268268Y30235183D01*
X9351840Y30151611D01*
X9450111Y30085948D01*
X9559304Y30040719D01*
X9644987Y30023675D01*
X9644986Y29650672D01*
X6406048Y26411733D01*
X6390790Y26399211D01*
X6378268Y26383953D01*
X6378265Y26383950D01*
X6340803Y26338302D01*
X6303661Y26268814D01*
X6280788Y26193413D01*
X6273065Y26115000D01*
X4247129Y26115000D01*
X4279207Y26128287D01*
X4377478Y26193950D01*
X4443528Y26260000D01*
X5625354Y26260000D01*
X5645000Y26258065D01*
X5664646Y26260000D01*
X5664647Y26260000D01*
X5723414Y26265788D01*
X5798814Y26288660D01*
X5868303Y26325803D01*
X5929211Y26375789D01*
X5941737Y26391052D01*
X8538949Y28988264D01*
X8554211Y29000789D01*
X8604197Y29061697D01*
X8641340Y29131186D01*
X8664212Y29206586D01*
X8670000Y29265353D01*
X8670000Y29265354D01*
X8671935Y29285000D01*
X8670000Y29304647D01*
X8670000Y30661474D01*
X8736050Y30727524D01*
X8801713Y30825795D01*
X8846942Y30934988D01*
X8870000Y31050907D01*
X8870000Y31169097D01*
X8846942Y31285016D01*
X8801713Y31394209D01*
X8736050Y31492480D01*
X8652478Y31576052D01*
X8554207Y31641715D01*
X8445014Y31686944D01*
X8329095Y31710002D01*
X8210905Y31710002D01*
X8094986Y31686944D01*
X7985793Y31641715D01*
X7887522Y31576052D01*
X7803950Y31492480D01*
X7738287Y31394209D01*
X7693058Y31285016D01*
X7670000Y31169097D01*
X7670000Y31050907D01*
X7693058Y30934988D01*
X7738287Y30825795D01*
X7803950Y30727524D01*
X7870001Y30661473D01*
X7870000Y29450685D01*
X5479315Y27060000D01*
X4443528Y27060000D01*
X4377478Y27126050D01*
X4279207Y27191713D01*
X4170014Y27236942D01*
X4054095Y27260000D01*
X3935905Y27260000D01*
X3819986Y27236942D01*
X3710793Y27191713D01*
X3612522Y27126050D01*
X3528950Y27042478D01*
X3463287Y26944207D01*
X3418058Y26835014D01*
X3395000Y26719095D01*
X1715018Y26719095D01*
X1696932Y26810014D01*
X1651703Y26919207D01*
X1586040Y27017478D01*
X1502468Y27101050D01*
X1404197Y27166713D01*
X1295004Y27211942D01*
X1179085Y27235000D01*
X1085675Y27235000D01*
X882600Y27438075D01*
X882600Y32194095D01*
X920000Y32194095D01*
X920000Y32075905D01*
X943058Y31959986D01*
X988287Y31850793D01*
X1053950Y31752522D01*
X1137522Y31668950D01*
X1235793Y31603287D01*
X1344986Y31558058D01*
X1460905Y31535000D01*
X1555028Y31535000D01*
X1587870Y31508047D01*
X1596696Y31500804D01*
X1666185Y31463661D01*
X1741585Y31440789D01*
X1819999Y31433066D01*
X1839646Y31435001D01*
X1899316Y31435001D01*
X1806918Y31373263D01*
X1646737Y31213082D01*
X1520884Y31024729D01*
X1434194Y30815443D01*
X1390000Y30593265D01*
X1390000Y30366735D01*
X1434194Y30144557D01*
X1520884Y29935271D01*
X1646737Y29746918D01*
X1704196Y29689459D01*
X1656423Y29663923D01*
X1647183Y29656340D01*
X1610775Y29626461D01*
X1610773Y29626459D01*
X1595515Y29613937D01*
X1582993Y29598679D01*
X1572218Y29587904D01*
X1478809Y29587904D01*
X1362890Y29564846D01*
X1253697Y29519617D01*
X1155426Y29453954D01*
X1071854Y29370382D01*
X1006191Y29272111D01*
X960962Y29162918D01*
X937904Y29046999D01*
X937904Y28928809D01*
X960962Y28812890D01*
X1006191Y28703697D01*
X1071854Y28605426D01*
X1155426Y28521854D01*
X1253697Y28456191D01*
X1362890Y28410962D01*
X1478809Y28387904D01*
X1480777Y28387904D01*
X1434194Y28275443D01*
X1390000Y28053265D01*
X1390000Y27826735D01*
X1434194Y27604557D01*
X1520884Y27395271D01*
X1646737Y27206918D01*
X1806918Y27046737D01*
X1995271Y26920884D01*
X2204557Y26834194D01*
X2426735Y26790000D01*
X2653265Y26790000D01*
X2875443Y26834194D01*
X3084729Y26920884D01*
X3273082Y27046737D01*
X3433263Y27206918D01*
X3559116Y27395271D01*
X3645806Y27604557D01*
X3690000Y27826735D01*
X3690000Y28053265D01*
X3645806Y28275443D01*
X3559116Y28484729D01*
X3433263Y28673082D01*
X3273082Y28833263D01*
X3128714Y28929726D01*
X3559589Y28929726D01*
X4120000Y28369314D01*
X4120000Y28275905D01*
X4143058Y28159986D01*
X4188287Y28050793D01*
X4253950Y27952522D01*
X4337522Y27868950D01*
X4435793Y27803287D01*
X4544986Y27758058D01*
X4660905Y27735000D01*
X4779095Y27735000D01*
X4895014Y27758058D01*
X5004207Y27803287D01*
X5102478Y27868950D01*
X5186050Y27952522D01*
X5251713Y28050793D01*
X5296942Y28159986D01*
X5320000Y28275905D01*
X5320000Y28394095D01*
X5296942Y28510014D01*
X5251713Y28619207D01*
X5186050Y28717478D01*
X5102478Y28801050D01*
X5004207Y28866713D01*
X4895014Y28911942D01*
X4779095Y28935000D01*
X4685686Y28935000D01*
X4022011Y29598674D01*
X4009485Y29613937D01*
X3948577Y29663923D01*
X3879088Y29701066D01*
X3803688Y29723938D01*
X3744921Y29729726D01*
X3744920Y29729726D01*
X3725274Y29731661D01*
X3705628Y29729726D01*
X3416071Y29729726D01*
X3433263Y29746918D01*
X3559116Y29935271D01*
X3645806Y30144557D01*
X3690000Y30366735D01*
X3690000Y30466317D01*
X5340265Y28816052D01*
X5352791Y28800789D01*
X5377618Y28780414D01*
X5413699Y28750803D01*
X5483188Y28713660D01*
X5558588Y28690788D01*
X5637002Y28683065D01*
X5656649Y28685000D01*
X6425354Y28685000D01*
X6445000Y28683065D01*
X6464646Y28685000D01*
X6464647Y28685000D01*
X6523414Y28690788D01*
X6598814Y28713660D01*
X6668303Y28750803D01*
X6729211Y28800789D01*
X6741737Y28816052D01*
X7428806Y29503121D01*
X7429207Y29503287D01*
X7527478Y29568950D01*
X7611050Y29652522D01*
X7676713Y29750793D01*
X7721942Y29859986D01*
X7745000Y29975905D01*
X7745000Y30094095D01*
X7721942Y30210014D01*
X7676713Y30319207D01*
X7611050Y30417478D01*
X7527478Y30501050D01*
X7429207Y30566713D01*
X7320014Y30611942D01*
X7204095Y30635000D01*
X7085905Y30635000D01*
X6969986Y30611942D01*
X6860793Y30566713D01*
X6762522Y30501050D01*
X6678950Y30417478D01*
X6613287Y30319207D01*
X6568058Y30210014D01*
X6545000Y30094095D01*
X6545000Y29975905D01*
X6568058Y29859986D01*
X6593318Y29799003D01*
X6279315Y29485000D01*
X5802687Y29485000D01*
X3205864Y32081823D01*
X3273082Y32126737D01*
X3433263Y32286918D01*
X3559116Y32475271D01*
X3645806Y32684557D01*
X3690000Y32906735D01*
X3690000Y33133265D01*
X3645806Y33355443D01*
X3559116Y33564729D01*
X3433263Y33753082D01*
X3273082Y33913263D01*
X3084729Y34039116D01*
X2875443Y34125806D01*
X2653265Y34170000D01*
X2426735Y34170000D01*
X2204557Y34125806D01*
X1995271Y34039116D01*
X1806918Y33913263D01*
X1646737Y33753082D01*
X1520884Y33564729D01*
X1434194Y33355443D01*
X1390000Y33133265D01*
X1390000Y32906735D01*
X1425559Y32727969D01*
X1344986Y32711942D01*
X1235793Y32666713D01*
X1137522Y32601050D01*
X1053950Y32517478D01*
X988287Y32419207D01*
X943058Y32310014D01*
X920000Y32194095D01*
X882600Y32194095D01*
X882600Y35622915D01*
X1689686Y36430000D01*
X1783655Y36430000D01*
X1646737Y36293082D01*
X1520884Y36104729D01*
X1434194Y35895443D01*
X1390000Y35673265D01*
X1390000Y35446735D01*
X1434194Y35224557D01*
X1520884Y35015271D01*
X1646737Y34826918D01*
X1806918Y34666737D01*
X1995271Y34540884D01*
X2204557Y34454194D01*
X2426735Y34410000D01*
X2653265Y34410000D01*
X2875443Y34454194D01*
X3084729Y34540884D01*
X3273082Y34666737D01*
X3433263Y34826918D01*
X3559116Y35015271D01*
X3645806Y35224557D01*
X3690000Y35446735D01*
X3690000Y35673265D01*
X3645806Y35895443D01*
X3559116Y36104729D01*
X3433263Y36293082D01*
X3296345Y36430000D01*
X3510954Y36430000D01*
X3530600Y36428065D01*
X3550246Y36430000D01*
X3550247Y36430000D01*
X3609014Y36435788D01*
X3684414Y36458660D01*
X3753903Y36495803D01*
X3814811Y36545789D01*
X3827337Y36561052D01*
X4913949Y37647664D01*
X4929211Y37660189D01*
X4979197Y37721097D01*
X5016340Y37790586D01*
X5039212Y37865986D01*
X5045000Y37924753D01*
X5045000Y37924754D01*
X5046935Y37944400D01*
X5045000Y37964047D01*
X5045000Y38836472D01*
X5111050Y38902522D01*
X5176713Y39000793D01*
X5221942Y39109986D01*
X5245000Y39225905D01*
X5245000Y39344095D01*
X5221942Y39460014D01*
X5176713Y39569207D01*
X5111050Y39667478D01*
X5027478Y39751050D01*
X4929207Y39816713D01*
X4820014Y39861942D01*
X4704095Y39885000D01*
X4585905Y39885000D01*
X4469986Y39861942D01*
X4360793Y39816713D01*
X4262522Y39751050D01*
X4178950Y39667478D01*
X4113287Y39569207D01*
X4068058Y39460014D01*
X4045000Y39344095D01*
X4045000Y39225905D01*
X4068058Y39109986D01*
X4113287Y39000793D01*
X4178950Y38902522D01*
X4245001Y38836471D01*
X4245000Y38110085D01*
X3364915Y37230000D01*
X3296345Y37230000D01*
X3433263Y37366918D01*
X3559116Y37555271D01*
X3645806Y37764557D01*
X3690000Y37986735D01*
X3690000Y38213265D01*
X3645806Y38435443D01*
X3559116Y38644729D01*
X3433263Y38833082D01*
X3273082Y38993263D01*
X3084729Y39119116D01*
X2875443Y39205806D01*
X2653265Y39250000D01*
X2426735Y39250000D01*
X2204557Y39205806D01*
X1995271Y39119116D01*
X1806918Y38993263D01*
X1646737Y38833082D01*
X1520884Y38644729D01*
X1434194Y38435443D01*
X1390000Y38213265D01*
X1390000Y37986735D01*
X1434194Y37764557D01*
X1520884Y37555271D01*
X1646737Y37366918D01*
X1783655Y37230000D01*
X1543646Y37230000D01*
X1523999Y37231935D01*
X1504353Y37230000D01*
X1445586Y37224212D01*
X1370186Y37201340D01*
X1310051Y37169197D01*
X1300697Y37164197D01*
X1255049Y37126735D01*
X1255047Y37126733D01*
X1239789Y37114211D01*
X1227267Y37098953D01*
X400000Y36271685D01*
X400000Y48373265D01*
X1390000Y48373265D01*
X1390000Y48146735D01*
X1434194Y47924557D01*
X1520884Y47715271D01*
X1646737Y47526918D01*
X1806918Y47366737D01*
X1995271Y47240884D01*
X2204557Y47154194D01*
X2426735Y47110000D01*
X2653265Y47110000D01*
X2875443Y47154194D01*
X3020172Y47214143D01*
X4570001Y45664313D01*
X4570001Y45250685D01*
X3831737Y45988948D01*
X3819211Y46004211D01*
X3758303Y46054197D01*
X3688814Y46091340D01*
X3622619Y46111420D01*
X3559116Y46264729D01*
X3433263Y46453082D01*
X3273082Y46613263D01*
X3084729Y46739116D01*
X2875443Y46825806D01*
X2653265Y46870000D01*
X2426735Y46870000D01*
X2204557Y46825806D01*
X1995271Y46739116D01*
X1806918Y46613263D01*
X1646737Y46453082D01*
X1520884Y46264729D01*
X1434194Y46055443D01*
X1390000Y45833265D01*
X1390000Y45606735D01*
X1434194Y45384557D01*
X1520884Y45175271D01*
X1646737Y44986918D01*
X1806918Y44826737D01*
X1995271Y44700884D01*
X2204557Y44614194D01*
X2426735Y44570000D01*
X2653265Y44570000D01*
X2875443Y44614194D01*
X3084729Y44700884D01*
X3273082Y44826737D01*
X3433263Y44986918D01*
X3541063Y45148252D01*
X4169991Y44519323D01*
X4169990Y43580000D01*
X3619065Y43580000D01*
X3559116Y43724729D01*
X3433263Y43913082D01*
X3273082Y44073263D01*
X3084729Y44199116D01*
X2875443Y44285806D01*
X2653265Y44330000D01*
X2426735Y44330000D01*
X2204557Y44285806D01*
X1995271Y44199116D01*
X1806918Y44073263D01*
X1646737Y43913082D01*
X1520884Y43724729D01*
X1434194Y43515443D01*
X1390000Y43293265D01*
X1390000Y43066735D01*
X1434194Y42844557D01*
X1520884Y42635271D01*
X1646737Y42446918D01*
X1806918Y42286737D01*
X1995271Y42160884D01*
X2204557Y42074194D01*
X2426735Y42030000D01*
X2653265Y42030000D01*
X2875443Y42074194D01*
X3084729Y42160884D01*
X3273082Y42286737D01*
X3433263Y42446918D01*
X3559116Y42635271D01*
X3619065Y42780000D01*
X4177918Y42780000D01*
X5460718Y41497200D01*
X3309145Y41497200D01*
X3273082Y41533263D01*
X3084729Y41659116D01*
X2875443Y41745806D01*
X2653265Y41790000D01*
X2426735Y41790000D01*
X2204557Y41745806D01*
X1995271Y41659116D01*
X1806918Y41533263D01*
X1646737Y41373082D01*
X1520884Y41184729D01*
X1434194Y40975443D01*
X1390000Y40753265D01*
X1390000Y40526735D01*
X1434194Y40304557D01*
X1520884Y40095271D01*
X1646737Y39906918D01*
X1806918Y39746737D01*
X1995271Y39620884D01*
X2204557Y39534194D01*
X2426735Y39490000D01*
X2653265Y39490000D01*
X2875443Y39534194D01*
X3084729Y39620884D01*
X3273082Y39746737D01*
X3433263Y39906918D01*
X3559116Y40095271D01*
X3645806Y40304557D01*
X3690000Y40526735D01*
X3690000Y40697200D01*
X5695018Y40697200D01*
X6919969Y39472248D01*
X6919970Y34545060D01*
X5251053Y32876142D01*
X5235790Y32863616D01*
X5185804Y32802707D01*
X5148661Y32733218D01*
X5134031Y32684989D01*
X5125789Y32657818D01*
X5118066Y32579405D01*
X5120001Y32559758D01*
X5120002Y30954655D01*
X5118066Y30934999D01*
X5125789Y30856586D01*
X5148662Y30781185D01*
X5185804Y30711697D01*
X5223266Y30666049D01*
X5223269Y30666046D01*
X5235791Y30650788D01*
X5245000Y30643230D01*
X5245000Y30550905D01*
X5268058Y30434986D01*
X5313287Y30325793D01*
X5378950Y30227522D01*
X5462522Y30143950D01*
X5560793Y30078287D01*
X5669986Y30033058D01*
X5785905Y30010000D01*
X5904095Y30010000D01*
X6020014Y30033058D01*
X6129207Y30078287D01*
X6227478Y30143950D01*
X6311050Y30227522D01*
X6376713Y30325793D01*
X6421942Y30434986D01*
X6445000Y30550905D01*
X6445000Y30669095D01*
X6421942Y30785014D01*
X6398868Y30840720D01*
X6429207Y30853287D01*
X6527478Y30918950D01*
X6611050Y31002522D01*
X6676713Y31100793D01*
X6721942Y31209986D01*
X6742562Y31313649D01*
X6760905Y31310000D01*
X6879095Y31310000D01*
X6995014Y31333058D01*
X7104207Y31378287D01*
X7202478Y31443950D01*
X7286050Y31527522D01*
X7351713Y31625793D01*
X7396942Y31734986D01*
X7420000Y31850905D01*
X7420000Y31969095D01*
X7396942Y32085014D01*
X7351713Y32194207D01*
X7343437Y32206592D01*
X7385793Y32178291D01*
X7494986Y32133062D01*
X7610905Y32110004D01*
X7729095Y32110004D01*
X7845014Y32133062D01*
X7954207Y32178291D01*
X8052478Y32243954D01*
X8136050Y32327526D01*
X8201713Y32425797D01*
X8246942Y32534990D01*
X8270000Y32650909D01*
X8270000Y32744315D01*
X8788949Y33263264D01*
X8804211Y33275789D01*
X8854197Y33336697D01*
X8891340Y33406186D01*
X8914212Y33481586D01*
X8920000Y33540353D01*
X8920000Y33540354D01*
X8921935Y33560000D01*
X8920000Y33579647D01*
X8920000Y33743407D01*
X8944986Y33733058D01*
X9060905Y33710000D01*
X9179095Y33710000D01*
X9295014Y33733058D01*
X9404207Y33778287D01*
X9502478Y33843950D01*
X9586050Y33927522D01*
X9651713Y34025793D01*
X9696942Y34134986D01*
X9720000Y34250905D01*
X9720000Y34369095D01*
X9696942Y34485014D01*
X9651713Y34594207D01*
X9586050Y34692478D01*
X9502478Y34776050D01*
X9441600Y34816728D01*
X9441600Y37559095D01*
X10025000Y37559095D01*
X10025000Y37440905D01*
X10048058Y37324986D01*
X10093287Y37215793D01*
X10158950Y37117522D01*
X10242522Y37033950D01*
X10340793Y36968287D01*
X10449986Y36923058D01*
X10565905Y36900000D01*
X10684095Y36900000D01*
X10800014Y36923058D01*
X10909207Y36968287D01*
X11007478Y37033950D01*
X11091050Y37117522D01*
X11156713Y37215793D01*
X11201942Y37324986D01*
X11225000Y37440905D01*
X11225000Y37534315D01*
X13769125Y40078439D01*
X13784383Y40090961D01*
X13834369Y40151869D01*
X13871512Y40221358D01*
X13894384Y40296758D01*
X13900172Y40355525D01*
X13900172Y40355535D01*
X13902106Y40375171D01*
X13900172Y40394807D01*
X13900172Y41455886D01*
X13966222Y41521936D01*
X14031885Y41620207D01*
X14077114Y41729400D01*
X14100172Y41845319D01*
X14100172Y41963509D01*
X14077114Y42079428D01*
X14031885Y42188621D01*
X13966222Y42286892D01*
X13882650Y42370464D01*
X13784379Y42436127D01*
X13675186Y42481356D01*
X13559267Y42504414D01*
X13441077Y42504414D01*
X13325158Y42481356D01*
X13215965Y42436127D01*
X13117694Y42370464D01*
X13034122Y42286892D01*
X12968459Y42188621D01*
X12923230Y42079428D01*
X12900172Y41963509D01*
X12900172Y41845319D01*
X12923230Y41729400D01*
X12968459Y41620207D01*
X13034122Y41521936D01*
X13100172Y41455886D01*
X13100173Y40540859D01*
X10659315Y38100000D01*
X10565905Y38100000D01*
X10449986Y38076942D01*
X10340793Y38031713D01*
X10242522Y37966050D01*
X10158950Y37882478D01*
X10093287Y37784207D01*
X10048058Y37675014D01*
X10025000Y37559095D01*
X9441600Y37559095D01*
X9441600Y37853266D01*
X9502488Y37893950D01*
X9586060Y37977522D01*
X9651723Y38075793D01*
X9696952Y38184986D01*
X9720010Y38300905D01*
X9720010Y38419095D01*
X9696952Y38535014D01*
X9651723Y38644207D01*
X9586060Y38742478D01*
X9502488Y38826050D01*
X9404217Y38891713D01*
X9295024Y38936942D01*
X9179105Y38960000D01*
X9060915Y38960000D01*
X8944996Y38936942D01*
X8920000Y38926588D01*
X8920000Y40115365D01*
X8921934Y40135001D01*
X8920000Y40154637D01*
X8920000Y40154647D01*
X8914212Y40213414D01*
X8891340Y40288814D01*
X8854197Y40358303D01*
X8840354Y40375171D01*
X8816735Y40403951D01*
X8816733Y40403953D01*
X8804211Y40419211D01*
X8788953Y40431733D01*
X5370000Y43850685D01*
X5370000Y45810354D01*
X5371935Y45830000D01*
X5369888Y45850789D01*
X5364212Y45908414D01*
X5341340Y45983814D01*
X5304197Y46053303D01*
X5301502Y46056587D01*
X5266735Y46098951D01*
X5266733Y46098953D01*
X5254211Y46114211D01*
X5238953Y46126733D01*
X4571591Y46794095D01*
X9827000Y46794095D01*
X9827000Y46675905D01*
X9850058Y46559986D01*
X9895287Y46450793D01*
X9960950Y46352522D01*
X10044522Y46268950D01*
X10142793Y46203287D01*
X10251986Y46158058D01*
X10367905Y46135000D01*
X10486095Y46135000D01*
X10602014Y46158058D01*
X10711207Y46203287D01*
X10809478Y46268950D01*
X10877000Y46336472D01*
X10944522Y46268950D01*
X11042793Y46203287D01*
X11151986Y46158058D01*
X11253437Y46137878D01*
X11525263Y45866052D01*
X11537789Y45850789D01*
X11598697Y45800803D01*
X11668186Y45763660D01*
X11743586Y45740788D01*
X11822000Y45733065D01*
X11841647Y45735000D01*
X12442754Y45735000D01*
X12462400Y45733065D01*
X12540813Y45740788D01*
X12616214Y45763661D01*
X12685702Y45800803D01*
X12731350Y45838265D01*
X13032204Y46139119D01*
X13127414Y46158058D01*
X13236607Y46203287D01*
X13334878Y46268950D01*
X13418450Y46352522D01*
X13484113Y46450793D01*
X13529342Y46559986D01*
X13552400Y46675905D01*
X13552400Y46794095D01*
X13529342Y46910014D01*
X13484113Y47019207D01*
X13418450Y47117478D01*
X13334878Y47201050D01*
X13236607Y47266713D01*
X13127414Y47311942D01*
X13011495Y47335000D01*
X12893305Y47335000D01*
X12777386Y47311942D01*
X12668193Y47266713D01*
X12569922Y47201050D01*
X12552400Y47183528D01*
X12534878Y47201050D01*
X12436607Y47266713D01*
X12327414Y47311942D01*
X12211495Y47335000D01*
X12184085Y47335000D01*
X11915136Y47603949D01*
X11902610Y47619212D01*
X11841702Y47669198D01*
X11772213Y47706341D01*
X11696813Y47729213D01*
X11638046Y47735001D01*
X11638045Y47735001D01*
X11618399Y47736936D01*
X11598753Y47735001D01*
X11046648Y47735001D01*
X11027001Y47736936D01*
X11007354Y47735001D01*
X10948587Y47729213D01*
X10873187Y47706341D01*
X10803698Y47669198D01*
X10742790Y47619212D01*
X10730264Y47603949D01*
X10461315Y47335000D01*
X10367905Y47335000D01*
X10251986Y47311942D01*
X10142793Y47266713D01*
X10044522Y47201050D01*
X9960950Y47117478D01*
X9895287Y47019207D01*
X9850058Y46910014D01*
X9827000Y46794095D01*
X4571591Y46794095D01*
X3585857Y47779828D01*
X3645806Y47924557D01*
X3690000Y48146735D01*
X3690000Y48373265D01*
X3645806Y48595443D01*
X3559116Y48804729D01*
X3433263Y48993082D01*
X3273082Y49153263D01*
X3084729Y49279116D01*
X2875443Y49365806D01*
X2653265Y49410000D01*
X2426735Y49410000D01*
X2204557Y49365806D01*
X1995271Y49279116D01*
X1806918Y49153263D01*
X1646737Y48993082D01*
X1520884Y48804729D01*
X1434194Y48595443D01*
X1390000Y48373265D01*
X400000Y48373265D01*
X400000Y50453843D01*
X1338886Y50453843D01*
X1348990Y50420513D01*
X1445909Y50195450D01*
X1584873Y49993620D01*
X1760542Y49822778D01*
X1966166Y49689490D01*
X2193842Y49598879D01*
X2386000Y49659516D01*
X2386000Y50646000D01*
X2694000Y50646000D01*
X2694000Y49659516D01*
X2886158Y49598879D01*
X3113834Y49689490D01*
X3319458Y49822778D01*
X3495127Y49993620D01*
X3634091Y50195450D01*
X3731010Y50420513D01*
X3741114Y50453843D01*
X3679642Y50646000D01*
X2694000Y50646000D01*
X2386000Y50646000D01*
X1400358Y50646000D01*
X1338886Y50453843D01*
X400000Y50453843D01*
X400000Y51146157D01*
X1338886Y51146157D01*
X1400358Y50954000D01*
X2386000Y50954000D01*
X2386000Y51940484D01*
X2694000Y51940484D01*
X2694000Y50954000D01*
X3679642Y50954000D01*
X3741114Y51146157D01*
X3731010Y51179487D01*
X3634091Y51404550D01*
X3495127Y51606380D01*
X3319458Y51777222D01*
X3113834Y51910510D01*
X2886158Y52001121D01*
X2694000Y51940484D01*
X2386000Y51940484D01*
X2193842Y52001121D01*
X1966166Y51910510D01*
X1760542Y51777222D01*
X1584873Y51606380D01*
X1445909Y51404550D01*
X1348990Y51179487D01*
X1338886Y51146157D01*
X400000Y51146157D01*
X400000Y52993843D01*
X1338886Y52993843D01*
X1348990Y52960513D01*
X1445909Y52735450D01*
X1584873Y52533620D01*
X1760542Y52362778D01*
X1966166Y52229490D01*
X2193842Y52138879D01*
X2386000Y52199516D01*
X2386000Y53186000D01*
X2694000Y53186000D01*
X2694000Y52199516D01*
X2886158Y52138879D01*
X3113834Y52229490D01*
X3319458Y52362778D01*
X3495127Y52533620D01*
X3634091Y52735450D01*
X3731010Y52960513D01*
X3741114Y52993843D01*
X3679642Y53186000D01*
X2694000Y53186000D01*
X2386000Y53186000D01*
X1400358Y53186000D01*
X1338886Y52993843D01*
X400000Y52993843D01*
X400000Y53686157D01*
X1338886Y53686157D01*
X1400358Y53494000D01*
X2386000Y53494000D01*
X2386000Y54480484D01*
X2694000Y54480484D01*
X2694000Y53494000D01*
X3679642Y53494000D01*
X3741114Y53686157D01*
X3731010Y53719487D01*
X3634091Y53944550D01*
X3495127Y54146380D01*
X3319458Y54317222D01*
X3113834Y54450510D01*
X2886158Y54541121D01*
X2694000Y54480484D01*
X2386000Y54480484D01*
X2193842Y54541121D01*
X1966166Y54450510D01*
X1760542Y54317222D01*
X1584873Y54146380D01*
X1445909Y53944550D01*
X1348990Y53719487D01*
X1338886Y53686157D01*
X400000Y53686157D01*
X400000Y59290000D01*
X1390519Y59290000D01*
X1388549Y59270000D01*
G37*
G04 #@! TD.AperFunction*
D17*
X17369990Y4816494D02*
X17369991Y1778507D01*
X16991505Y1400020D01*
X15473349Y1400020D01*
X15579410Y1421117D01*
X15791171Y1508831D01*
X15981752Y1636173D01*
X16143827Y1798248D01*
X16271169Y1988829D01*
X16358883Y2200590D01*
X16403600Y2425395D01*
X16403600Y2654605D01*
X16358883Y2879410D01*
X16271169Y3091171D01*
X16143827Y3281752D01*
X15981752Y3443827D01*
X15981110Y3444256D01*
X15995570Y3448642D01*
X16073745Y3490428D01*
X16142266Y3546662D01*
X16156358Y3563832D01*
X16972572Y4380046D01*
X16989737Y4394133D01*
X17003824Y4411298D01*
X17003828Y4411302D01*
X17045971Y4462653D01*
X17087757Y4540829D01*
X17093391Y4559402D01*
X17113489Y4625655D01*
X17120000Y4691765D01*
X17120000Y4691775D01*
X17122176Y4713870D01*
X17120000Y4735964D01*
X17120000Y5066484D01*
X17369990Y4816494D01*
G04 #@! TA.AperFunction,Conductor*
D22*
G36*
X17369990Y4816494D02*
G01*
X17369991Y1778507D01*
X16991505Y1400020D01*
X15473349Y1400020D01*
X15579410Y1421117D01*
X15791171Y1508831D01*
X15981752Y1636173D01*
X16143827Y1798248D01*
X16271169Y1988829D01*
X16358883Y2200590D01*
X16403600Y2425395D01*
X16403600Y2654605D01*
X16358883Y2879410D01*
X16271169Y3091171D01*
X16143827Y3281752D01*
X15981752Y3443827D01*
X15981110Y3444256D01*
X15995570Y3448642D01*
X16073745Y3490428D01*
X16142266Y3546662D01*
X16156358Y3563832D01*
X16972572Y4380046D01*
X16989737Y4394133D01*
X17003824Y4411298D01*
X17003828Y4411302D01*
X17045971Y4462653D01*
X17087757Y4540829D01*
X17093391Y4559402D01*
X17113489Y4625655D01*
X17120000Y4691765D01*
X17120000Y4691775D01*
X17122176Y4713870D01*
X17120000Y4735964D01*
X17120000Y5066484D01*
X17369990Y4816494D01*
G37*
G04 #@! TD.AperFunction*
D17*
X10472001Y7119902D02*
X10469824Y7097798D01*
X10472001Y7075693D01*
X10474881Y7046452D01*
X10478512Y7009583D01*
X10504243Y6924758D01*
X10546029Y6846582D01*
X10588172Y6795231D01*
X10588177Y6795226D01*
X10602264Y6778061D01*
X10619429Y6763974D01*
X11036399Y6347003D01*
X11036399Y5982612D01*
X10976442Y6044428D01*
X10772604Y6185177D01*
X10545224Y6283454D01*
X10508301Y6294649D01*
X10314000Y6233364D01*
X10314000Y5234000D01*
X10334000Y5234000D01*
X10334000Y4926000D01*
X10314000Y4926000D01*
X10314000Y3926636D01*
X10508301Y3865351D01*
X10545224Y3876546D01*
X10772604Y3974823D01*
X10976442Y4115572D01*
X11036400Y4177389D01*
X11036400Y3775705D01*
X11034223Y3753601D01*
X11036400Y3731496D01*
X11041645Y3678241D01*
X11042911Y3665386D01*
X11068642Y3580561D01*
X11110428Y3502385D01*
X11152571Y3451034D01*
X11152576Y3451029D01*
X11166663Y3433864D01*
X11183828Y3419777D01*
X11623023Y2980581D01*
X11581117Y2879410D01*
X11536400Y2654605D01*
X11536400Y2425395D01*
X11581117Y2200590D01*
X11668831Y1988829D01*
X11796173Y1798248D01*
X11958248Y1636173D01*
X12148829Y1508831D01*
X12360590Y1421117D01*
X12466651Y1400020D01*
X10692082Y1400020D01*
X10772604Y1434823D01*
X10976442Y1575572D01*
X11148905Y1753383D01*
X11283365Y1961423D01*
X11374655Y2191698D01*
X11314187Y2386000D01*
X10314000Y2386000D01*
X10314000Y2366000D01*
X10006000Y2366000D01*
X10006000Y2386000D01*
X9005813Y2386000D01*
X8945345Y2191698D01*
X9036635Y1961423D01*
X9171095Y1753383D01*
X9343558Y1575572D01*
X9547396Y1434823D01*
X9627918Y1400020D01*
X7853349Y1400020D01*
X7959410Y1421117D01*
X8171171Y1508831D01*
X8361752Y1636173D01*
X8523827Y1798248D01*
X8651169Y1988829D01*
X8738883Y2200590D01*
X8783600Y2425395D01*
X8783600Y2654605D01*
X8738883Y2879410D01*
X8735200Y2888302D01*
X8945345Y2888302D01*
X9005813Y2694000D01*
X10006000Y2694000D01*
X10006000Y3693364D01*
X10314000Y3693364D01*
X10314000Y2694000D01*
X11314187Y2694000D01*
X11374655Y2888302D01*
X11283365Y3118577D01*
X11148905Y3326617D01*
X10976442Y3504428D01*
X10772604Y3645177D01*
X10545224Y3743454D01*
X10508301Y3754649D01*
X10314000Y3693364D01*
X10006000Y3693364D01*
X9811699Y3754649D01*
X9774776Y3743454D01*
X9547396Y3645177D01*
X9343558Y3504428D01*
X9171095Y3326617D01*
X9036635Y3118577D01*
X8945345Y2888302D01*
X8735200Y2888302D01*
X8696977Y2980581D01*
X9136173Y3419777D01*
X9153338Y3433864D01*
X9167425Y3451029D01*
X9167429Y3451033D01*
X9209572Y3502384D01*
X9251358Y3580560D01*
X9255257Y3593414D01*
X9277090Y3665386D01*
X9283601Y3731496D01*
X9283601Y3731506D01*
X9285777Y3753601D01*
X9283601Y3775695D01*
X9283601Y4177388D01*
X9343558Y4115572D01*
X9547396Y3974823D01*
X9774776Y3876546D01*
X9811699Y3865351D01*
X10006000Y3926636D01*
X10006000Y4926000D01*
X9986000Y4926000D01*
X9986000Y5234000D01*
X10006000Y5234000D01*
X10006000Y6233364D01*
X9811699Y6294649D01*
X9774776Y6283454D01*
X9547396Y6185177D01*
X9343558Y6044428D01*
X9283601Y5982612D01*
X9283601Y6170706D01*
X9700572Y6587676D01*
X9717737Y6601763D01*
X9731824Y6618928D01*
X9731828Y6618932D01*
X9773971Y6670283D01*
X9815757Y6748459D01*
X9823765Y6774858D01*
X9841489Y6833285D01*
X9848000Y6899395D01*
X9848000Y6899406D01*
X9850176Y6921500D01*
X9848000Y6943594D01*
X9848000Y7801993D01*
X9899477Y7767597D01*
X9999571Y7726136D01*
X10105830Y7705000D01*
X10214170Y7705000D01*
X10320429Y7726136D01*
X10420523Y7767597D01*
X10472001Y7801993D01*
X10472001Y7119902D01*
G04 #@! TA.AperFunction,Conductor*
D22*
G36*
X10472001Y7119902D02*
G01*
X10469824Y7097798D01*
X10472001Y7075693D01*
X10474881Y7046452D01*
X10478512Y7009583D01*
X10504243Y6924758D01*
X10546029Y6846582D01*
X10588172Y6795231D01*
X10588177Y6795226D01*
X10602264Y6778061D01*
X10619429Y6763974D01*
X11036399Y6347003D01*
X11036399Y5982612D01*
X10976442Y6044428D01*
X10772604Y6185177D01*
X10545224Y6283454D01*
X10508301Y6294649D01*
X10314000Y6233364D01*
X10314000Y5234000D01*
X10334000Y5234000D01*
X10334000Y4926000D01*
X10314000Y4926000D01*
X10314000Y3926636D01*
X10508301Y3865351D01*
X10545224Y3876546D01*
X10772604Y3974823D01*
X10976442Y4115572D01*
X11036400Y4177389D01*
X11036400Y3775705D01*
X11034223Y3753601D01*
X11036400Y3731496D01*
X11041645Y3678241D01*
X11042911Y3665386D01*
X11068642Y3580561D01*
X11110428Y3502385D01*
X11152571Y3451034D01*
X11152576Y3451029D01*
X11166663Y3433864D01*
X11183828Y3419777D01*
X11623023Y2980581D01*
X11581117Y2879410D01*
X11536400Y2654605D01*
X11536400Y2425395D01*
X11581117Y2200590D01*
X11668831Y1988829D01*
X11796173Y1798248D01*
X11958248Y1636173D01*
X12148829Y1508831D01*
X12360590Y1421117D01*
X12466651Y1400020D01*
X10692082Y1400020D01*
X10772604Y1434823D01*
X10976442Y1575572D01*
X11148905Y1753383D01*
X11283365Y1961423D01*
X11374655Y2191698D01*
X11314187Y2386000D01*
X10314000Y2386000D01*
X10314000Y2366000D01*
X10006000Y2366000D01*
X10006000Y2386000D01*
X9005813Y2386000D01*
X8945345Y2191698D01*
X9036635Y1961423D01*
X9171095Y1753383D01*
X9343558Y1575572D01*
X9547396Y1434823D01*
X9627918Y1400020D01*
X7853349Y1400020D01*
X7959410Y1421117D01*
X8171171Y1508831D01*
X8361752Y1636173D01*
X8523827Y1798248D01*
X8651169Y1988829D01*
X8738883Y2200590D01*
X8783600Y2425395D01*
X8783600Y2654605D01*
X8738883Y2879410D01*
X8735200Y2888302D01*
X8945345Y2888302D01*
X9005813Y2694000D01*
X10006000Y2694000D01*
X10006000Y3693364D01*
X10314000Y3693364D01*
X10314000Y2694000D01*
X11314187Y2694000D01*
X11374655Y2888302D01*
X11283365Y3118577D01*
X11148905Y3326617D01*
X10976442Y3504428D01*
X10772604Y3645177D01*
X10545224Y3743454D01*
X10508301Y3754649D01*
X10314000Y3693364D01*
X10006000Y3693364D01*
X9811699Y3754649D01*
X9774776Y3743454D01*
X9547396Y3645177D01*
X9343558Y3504428D01*
X9171095Y3326617D01*
X9036635Y3118577D01*
X8945345Y2888302D01*
X8735200Y2888302D01*
X8696977Y2980581D01*
X9136173Y3419777D01*
X9153338Y3433864D01*
X9167425Y3451029D01*
X9167429Y3451033D01*
X9209572Y3502384D01*
X9251358Y3580560D01*
X9255257Y3593414D01*
X9277090Y3665386D01*
X9283601Y3731496D01*
X9283601Y3731506D01*
X9285777Y3753601D01*
X9283601Y3775695D01*
X9283601Y4177388D01*
X9343558Y4115572D01*
X9547396Y3974823D01*
X9774776Y3876546D01*
X9811699Y3865351D01*
X10006000Y3926636D01*
X10006000Y4926000D01*
X9986000Y4926000D01*
X9986000Y5234000D01*
X10006000Y5234000D01*
X10006000Y6233364D01*
X9811699Y6294649D01*
X9774776Y6283454D01*
X9547396Y6185177D01*
X9343558Y6044428D01*
X9283601Y5982612D01*
X9283601Y6170706D01*
X9700572Y6587676D01*
X9717737Y6601763D01*
X9731824Y6618928D01*
X9731828Y6618932D01*
X9773971Y6670283D01*
X9815757Y6748459D01*
X9823765Y6774858D01*
X9841489Y6833285D01*
X9848000Y6899395D01*
X9848000Y6899406D01*
X9850176Y6921500D01*
X9848000Y6943594D01*
X9848000Y7801993D01*
X9899477Y7767597D01*
X9999571Y7726136D01*
X10105830Y7705000D01*
X10214170Y7705000D01*
X10320429Y7726136D01*
X10420523Y7767597D01*
X10472001Y7801993D01*
X10472001Y7119902D01*
G37*
G04 #@! TD.AperFunction*
D17*
X19920001Y8655000D02*
X18395353Y8655000D01*
X18374965Y8652992D01*
X18361781Y8652992D01*
X18356227Y8652408D01*
X18226102Y8637812D01*
X18230000Y8677395D01*
X18230000Y8677405D01*
X18232176Y8699499D01*
X18230000Y8721594D01*
X18230000Y9101646D01*
X18324729Y9140884D01*
X18513082Y9266737D01*
X18673263Y9426918D01*
X18799116Y9615271D01*
X18885806Y9824557D01*
X18930000Y10046735D01*
X18930000Y10273265D01*
X18885806Y10495443D01*
X18799116Y10704729D01*
X18673263Y10893082D01*
X18513082Y11053263D01*
X18324729Y11179116D01*
X18115443Y11265806D01*
X17893265Y11310000D01*
X17666735Y11310000D01*
X17444557Y11265806D01*
X17235271Y11179116D01*
X17046918Y11053263D01*
X16886737Y10893082D01*
X16879991Y10882986D01*
X16879991Y11163596D01*
X17349828Y11633432D01*
X17444557Y11594194D01*
X17666735Y11550000D01*
X17893265Y11550000D01*
X18115443Y11594194D01*
X18324729Y11680884D01*
X18513082Y11806737D01*
X18673263Y11966918D01*
X18799116Y12155271D01*
X18885806Y12364557D01*
X18930000Y12586735D01*
X18930000Y12813265D01*
X18885806Y13035443D01*
X18799116Y13244729D01*
X18673263Y13433082D01*
X18513082Y13593263D01*
X18324729Y13719116D01*
X18115443Y13805806D01*
X17893265Y13850000D01*
X17666735Y13850000D01*
X17444557Y13805806D01*
X17235271Y13719116D01*
X17046918Y13593263D01*
X16886737Y13433082D01*
X16760884Y13244729D01*
X16674194Y13035443D01*
X16630000Y12813265D01*
X16630000Y12586735D01*
X16674194Y12364557D01*
X16713432Y12269828D01*
X16190010Y11746405D01*
X16190010Y14893843D01*
X16578886Y14893843D01*
X16588990Y14860513D01*
X16685909Y14635450D01*
X16824873Y14433620D01*
X17000542Y14262778D01*
X17206166Y14129490D01*
X17433842Y14038879D01*
X17626000Y14099516D01*
X17626000Y15086000D01*
X17934000Y15086000D01*
X17934000Y14099516D01*
X18126158Y14038879D01*
X18353834Y14129490D01*
X18559458Y14262778D01*
X18735127Y14433620D01*
X18874091Y14635450D01*
X18971010Y14860513D01*
X18981114Y14893843D01*
X18919642Y15086000D01*
X17934000Y15086000D01*
X17626000Y15086000D01*
X16640358Y15086000D01*
X16578886Y14893843D01*
X16190010Y14893843D01*
X16190010Y15553615D01*
X16222552Y15586157D01*
X16578886Y15586157D01*
X16640358Y15394000D01*
X17626000Y15394000D01*
X17626000Y16380484D01*
X17934000Y16380484D01*
X17934000Y15394000D01*
X18919642Y15394000D01*
X18981114Y15586157D01*
X18971010Y15619487D01*
X18874091Y15844550D01*
X18735127Y16046380D01*
X18559458Y16217222D01*
X18353834Y16350510D01*
X18126158Y16441121D01*
X17934000Y16380484D01*
X17626000Y16380484D01*
X17433842Y16441121D01*
X17206166Y16350510D01*
X17000542Y16217222D01*
X16824873Y16046380D01*
X16685909Y15844550D01*
X16588990Y15619487D01*
X16578886Y15586157D01*
X16222552Y15586157D01*
X17349828Y16713432D01*
X17444557Y16674194D01*
X17666735Y16630000D01*
X17893265Y16630000D01*
X18115443Y16674194D01*
X18324729Y16760884D01*
X18513082Y16886737D01*
X18673263Y17046918D01*
X18799116Y17235271D01*
X18885806Y17444557D01*
X18930000Y17666735D01*
X18930000Y17893265D01*
X18885806Y18115443D01*
X18799116Y18324729D01*
X18673263Y18513082D01*
X18513082Y18673263D01*
X18324729Y18799116D01*
X18115443Y18885806D01*
X17893265Y18930000D01*
X17666735Y18930000D01*
X17444557Y18885806D01*
X17235271Y18799116D01*
X17046918Y18673263D01*
X16886737Y18513082D01*
X16760884Y18324729D01*
X16674194Y18115443D01*
X16630000Y17893265D01*
X16630000Y17666735D01*
X16674194Y17444557D01*
X16713432Y17349828D01*
X15690000Y16326395D01*
X15690000Y17593605D01*
X17349828Y19253432D01*
X17444557Y19214194D01*
X17666735Y19170000D01*
X17893265Y19170000D01*
X18115443Y19214194D01*
X18324729Y19300884D01*
X18513082Y19426737D01*
X18673263Y19586918D01*
X18799116Y19775271D01*
X18885806Y19984557D01*
X18930000Y20206735D01*
X18930000Y20433265D01*
X18885806Y20655443D01*
X18799116Y20864729D01*
X18673263Y21053082D01*
X18513082Y21213263D01*
X18324729Y21339116D01*
X18115443Y21425806D01*
X17893265Y21470000D01*
X17666735Y21470000D01*
X17444557Y21425806D01*
X17299828Y21365857D01*
X17020011Y21645674D01*
X17020011Y21993644D01*
X17046918Y21966737D01*
X17235271Y21840884D01*
X17444557Y21754194D01*
X17666735Y21710000D01*
X17893265Y21710000D01*
X18115443Y21754194D01*
X18324729Y21840884D01*
X18513082Y21966737D01*
X18673263Y22126918D01*
X18799116Y22315271D01*
X18885806Y22524557D01*
X18919467Y22693782D01*
X19217354Y22991668D01*
X19232611Y23004189D01*
X19282597Y23065097D01*
X19319740Y23134586D01*
X19342612Y23209986D01*
X19348400Y23268753D01*
X19348400Y23268763D01*
X19350334Y23288399D01*
X19348400Y23308035D01*
X19348400Y28504565D01*
X19350334Y28524201D01*
X19348400Y28543837D01*
X19348400Y28543847D01*
X19342612Y28602614D01*
X19319740Y28678014D01*
X19282597Y28747503D01*
X19232611Y28808411D01*
X19217348Y28820937D01*
X18679336Y29358949D01*
X18666810Y29374212D01*
X18605902Y29424198D01*
X18536413Y29461341D01*
X18461013Y29484213D01*
X18402246Y29490001D01*
X18402245Y29490001D01*
X18382599Y29491936D01*
X18369231Y29490619D01*
X18513082Y29586737D01*
X18673263Y29746918D01*
X18799116Y29935271D01*
X18885806Y30144557D01*
X18930000Y30366735D01*
X18930000Y30593265D01*
X18885806Y30815443D01*
X18799116Y31024729D01*
X18673263Y31213082D01*
X18513082Y31373263D01*
X18362697Y31473747D01*
X18383413Y31475787D01*
X18458813Y31498659D01*
X18528302Y31535802D01*
X18589210Y31585788D01*
X18601736Y31601051D01*
X19535685Y32535000D01*
X19629095Y32535000D01*
X19745014Y32558058D01*
X19854207Y32603287D01*
X19920001Y32647249D01*
X19920001Y8655000D01*
G04 #@! TA.AperFunction,Conductor*
D22*
G36*
X19920001Y8655000D02*
G01*
X18395353Y8655000D01*
X18374965Y8652992D01*
X18361781Y8652992D01*
X18356227Y8652408D01*
X18226102Y8637812D01*
X18230000Y8677395D01*
X18230000Y8677405D01*
X18232176Y8699499D01*
X18230000Y8721594D01*
X18230000Y9101646D01*
X18324729Y9140884D01*
X18513082Y9266737D01*
X18673263Y9426918D01*
X18799116Y9615271D01*
X18885806Y9824557D01*
X18930000Y10046735D01*
X18930000Y10273265D01*
X18885806Y10495443D01*
X18799116Y10704729D01*
X18673263Y10893082D01*
X18513082Y11053263D01*
X18324729Y11179116D01*
X18115443Y11265806D01*
X17893265Y11310000D01*
X17666735Y11310000D01*
X17444557Y11265806D01*
X17235271Y11179116D01*
X17046918Y11053263D01*
X16886737Y10893082D01*
X16879991Y10882986D01*
X16879991Y11163596D01*
X17349828Y11633432D01*
X17444557Y11594194D01*
X17666735Y11550000D01*
X17893265Y11550000D01*
X18115443Y11594194D01*
X18324729Y11680884D01*
X18513082Y11806737D01*
X18673263Y11966918D01*
X18799116Y12155271D01*
X18885806Y12364557D01*
X18930000Y12586735D01*
X18930000Y12813265D01*
X18885806Y13035443D01*
X18799116Y13244729D01*
X18673263Y13433082D01*
X18513082Y13593263D01*
X18324729Y13719116D01*
X18115443Y13805806D01*
X17893265Y13850000D01*
X17666735Y13850000D01*
X17444557Y13805806D01*
X17235271Y13719116D01*
X17046918Y13593263D01*
X16886737Y13433082D01*
X16760884Y13244729D01*
X16674194Y13035443D01*
X16630000Y12813265D01*
X16630000Y12586735D01*
X16674194Y12364557D01*
X16713432Y12269828D01*
X16190010Y11746405D01*
X16190010Y14893843D01*
X16578886Y14893843D01*
X16588990Y14860513D01*
X16685909Y14635450D01*
X16824873Y14433620D01*
X17000542Y14262778D01*
X17206166Y14129490D01*
X17433842Y14038879D01*
X17626000Y14099516D01*
X17626000Y15086000D01*
X17934000Y15086000D01*
X17934000Y14099516D01*
X18126158Y14038879D01*
X18353834Y14129490D01*
X18559458Y14262778D01*
X18735127Y14433620D01*
X18874091Y14635450D01*
X18971010Y14860513D01*
X18981114Y14893843D01*
X18919642Y15086000D01*
X17934000Y15086000D01*
X17626000Y15086000D01*
X16640358Y15086000D01*
X16578886Y14893843D01*
X16190010Y14893843D01*
X16190010Y15553615D01*
X16222552Y15586157D01*
X16578886Y15586157D01*
X16640358Y15394000D01*
X17626000Y15394000D01*
X17626000Y16380484D01*
X17934000Y16380484D01*
X17934000Y15394000D01*
X18919642Y15394000D01*
X18981114Y15586157D01*
X18971010Y15619487D01*
X18874091Y15844550D01*
X18735127Y16046380D01*
X18559458Y16217222D01*
X18353834Y16350510D01*
X18126158Y16441121D01*
X17934000Y16380484D01*
X17626000Y16380484D01*
X17433842Y16441121D01*
X17206166Y16350510D01*
X17000542Y16217222D01*
X16824873Y16046380D01*
X16685909Y15844550D01*
X16588990Y15619487D01*
X16578886Y15586157D01*
X16222552Y15586157D01*
X17349828Y16713432D01*
X17444557Y16674194D01*
X17666735Y16630000D01*
X17893265Y16630000D01*
X18115443Y16674194D01*
X18324729Y16760884D01*
X18513082Y16886737D01*
X18673263Y17046918D01*
X18799116Y17235271D01*
X18885806Y17444557D01*
X18930000Y17666735D01*
X18930000Y17893265D01*
X18885806Y18115443D01*
X18799116Y18324729D01*
X18673263Y18513082D01*
X18513082Y18673263D01*
X18324729Y18799116D01*
X18115443Y18885806D01*
X17893265Y18930000D01*
X17666735Y18930000D01*
X17444557Y18885806D01*
X17235271Y18799116D01*
X17046918Y18673263D01*
X16886737Y18513082D01*
X16760884Y18324729D01*
X16674194Y18115443D01*
X16630000Y17893265D01*
X16630000Y17666735D01*
X16674194Y17444557D01*
X16713432Y17349828D01*
X15690000Y16326395D01*
X15690000Y17593605D01*
X17349828Y19253432D01*
X17444557Y19214194D01*
X17666735Y19170000D01*
X17893265Y19170000D01*
X18115443Y19214194D01*
X18324729Y19300884D01*
X18513082Y19426737D01*
X18673263Y19586918D01*
X18799116Y19775271D01*
X18885806Y19984557D01*
X18930000Y20206735D01*
X18930000Y20433265D01*
X18885806Y20655443D01*
X18799116Y20864729D01*
X18673263Y21053082D01*
X18513082Y21213263D01*
X18324729Y21339116D01*
X18115443Y21425806D01*
X17893265Y21470000D01*
X17666735Y21470000D01*
X17444557Y21425806D01*
X17299828Y21365857D01*
X17020011Y21645674D01*
X17020011Y21993644D01*
X17046918Y21966737D01*
X17235271Y21840884D01*
X17444557Y21754194D01*
X17666735Y21710000D01*
X17893265Y21710000D01*
X18115443Y21754194D01*
X18324729Y21840884D01*
X18513082Y21966737D01*
X18673263Y22126918D01*
X18799116Y22315271D01*
X18885806Y22524557D01*
X18919467Y22693782D01*
X19217354Y22991668D01*
X19232611Y23004189D01*
X19282597Y23065097D01*
X19319740Y23134586D01*
X19342612Y23209986D01*
X19348400Y23268753D01*
X19348400Y23268763D01*
X19350334Y23288399D01*
X19348400Y23308035D01*
X19348400Y28504565D01*
X19350334Y28524201D01*
X19348400Y28543837D01*
X19348400Y28543847D01*
X19342612Y28602614D01*
X19319740Y28678014D01*
X19282597Y28747503D01*
X19232611Y28808411D01*
X19217348Y28820937D01*
X18679336Y29358949D01*
X18666810Y29374212D01*
X18605902Y29424198D01*
X18536413Y29461341D01*
X18461013Y29484213D01*
X18402246Y29490001D01*
X18402245Y29490001D01*
X18382599Y29491936D01*
X18369231Y29490619D01*
X18513082Y29586737D01*
X18673263Y29746918D01*
X18799116Y29935271D01*
X18885806Y30144557D01*
X18930000Y30366735D01*
X18930000Y30593265D01*
X18885806Y30815443D01*
X18799116Y31024729D01*
X18673263Y31213082D01*
X18513082Y31373263D01*
X18362697Y31473747D01*
X18383413Y31475787D01*
X18458813Y31498659D01*
X18528302Y31535802D01*
X18589210Y31585788D01*
X18601736Y31601051D01*
X19535685Y32535000D01*
X19629095Y32535000D01*
X19745014Y32558058D01*
X19854207Y32603287D01*
X19920001Y32647249D01*
X19920001Y8655000D01*
G37*
G04 #@! TD.AperFunction*
D17*
X1646737Y17046918D02*
X1806918Y16886737D01*
X1995271Y16760884D01*
X2204557Y16674194D01*
X2426735Y16630000D01*
X2653265Y16630000D01*
X2875443Y16674194D01*
X2970172Y16713432D01*
X3487000Y16196604D01*
X3487000Y16054284D01*
X3319458Y16217222D01*
X3113834Y16350510D01*
X2886158Y16441121D01*
X2694000Y16380484D01*
X2694000Y15394000D01*
X2714000Y15394000D01*
X2714000Y15086000D01*
X2694000Y15086000D01*
X2694000Y14099516D01*
X2886158Y14038879D01*
X3113834Y14129490D01*
X3319458Y14262778D01*
X3487001Y14425717D01*
X3487001Y14210104D01*
X3484824Y14188000D01*
X3493512Y14099785D01*
X3519243Y14014960D01*
X3561029Y13936784D01*
X3603172Y13885433D01*
X3603177Y13885428D01*
X3617264Y13868263D01*
X3634429Y13854176D01*
X5543676Y11944928D01*
X5557763Y11927763D01*
X5574928Y11913676D01*
X5574932Y11913672D01*
X5626283Y11871529D01*
X5653514Y11856974D01*
X5704459Y11829743D01*
X5789285Y11804011D01*
X5855395Y11797500D01*
X5855407Y11797500D01*
X5877499Y11795324D01*
X5899591Y11797500D01*
X9600605Y11797500D01*
X10472000Y10926104D01*
X10472001Y8708007D01*
X10420523Y8742403D01*
X10320429Y8783864D01*
X10214170Y8805000D01*
X10105830Y8805000D01*
X9999571Y8783864D01*
X9899477Y8742403D01*
X9848000Y8708007D01*
X9848000Y9829906D01*
X9850176Y9852001D01*
X9848000Y9874095D01*
X9848000Y9874105D01*
X9841489Y9940215D01*
X9815757Y10025041D01*
X9802775Y10049328D01*
X9773971Y10103217D01*
X9731828Y10154568D01*
X9731824Y10154572D01*
X9717737Y10171737D01*
X9700573Y10185823D01*
X8598327Y11288068D01*
X8584237Y11305237D01*
X8515716Y11361471D01*
X8437541Y11403257D01*
X8352715Y11428989D01*
X8286605Y11435500D01*
X8286594Y11435500D01*
X8264500Y11437676D01*
X8242406Y11435500D01*
X5625896Y11435500D01*
X4058829Y13002566D01*
X4044737Y13019737D01*
X3976216Y13075971D01*
X3898041Y13117757D01*
X3813215Y13143489D01*
X3747105Y13150000D01*
X3747094Y13150000D01*
X3725000Y13152176D01*
X3702906Y13150000D01*
X3598354Y13150000D01*
X3559116Y13244729D01*
X3433263Y13433082D01*
X3273082Y13593263D01*
X3084729Y13719116D01*
X2875443Y13805806D01*
X2653265Y13850000D01*
X2426735Y13850000D01*
X2204557Y13805806D01*
X1995271Y13719116D01*
X1806918Y13593263D01*
X1646737Y13433082D01*
X1592200Y13351461D01*
X1592200Y14426494D01*
X1760542Y14262778D01*
X1966166Y14129490D01*
X2193842Y14038879D01*
X2386000Y14099516D01*
X2386000Y15086000D01*
X2366000Y15086000D01*
X2366000Y15394000D01*
X2386000Y15394000D01*
X2386000Y16380484D01*
X2193842Y16441121D01*
X1966166Y16350510D01*
X1760542Y16217222D01*
X1592200Y16053506D01*
X1592200Y17128539D01*
X1646737Y17046918D01*
G04 #@! TA.AperFunction,Conductor*
D22*
G36*
X1646737Y17046918D02*
G01*
X1806918Y16886737D01*
X1995271Y16760884D01*
X2204557Y16674194D01*
X2426735Y16630000D01*
X2653265Y16630000D01*
X2875443Y16674194D01*
X2970172Y16713432D01*
X3487000Y16196604D01*
X3487000Y16054284D01*
X3319458Y16217222D01*
X3113834Y16350510D01*
X2886158Y16441121D01*
X2694000Y16380484D01*
X2694000Y15394000D01*
X2714000Y15394000D01*
X2714000Y15086000D01*
X2694000Y15086000D01*
X2694000Y14099516D01*
X2886158Y14038879D01*
X3113834Y14129490D01*
X3319458Y14262778D01*
X3487001Y14425717D01*
X3487001Y14210104D01*
X3484824Y14188000D01*
X3493512Y14099785D01*
X3519243Y14014960D01*
X3561029Y13936784D01*
X3603172Y13885433D01*
X3603177Y13885428D01*
X3617264Y13868263D01*
X3634429Y13854176D01*
X5543676Y11944928D01*
X5557763Y11927763D01*
X5574928Y11913676D01*
X5574932Y11913672D01*
X5626283Y11871529D01*
X5653514Y11856974D01*
X5704459Y11829743D01*
X5789285Y11804011D01*
X5855395Y11797500D01*
X5855407Y11797500D01*
X5877499Y11795324D01*
X5899591Y11797500D01*
X9600605Y11797500D01*
X10472000Y10926104D01*
X10472001Y8708007D01*
X10420523Y8742403D01*
X10320429Y8783864D01*
X10214170Y8805000D01*
X10105830Y8805000D01*
X9999571Y8783864D01*
X9899477Y8742403D01*
X9848000Y8708007D01*
X9848000Y9829906D01*
X9850176Y9852001D01*
X9848000Y9874095D01*
X9848000Y9874105D01*
X9841489Y9940215D01*
X9815757Y10025041D01*
X9802775Y10049328D01*
X9773971Y10103217D01*
X9731828Y10154568D01*
X9731824Y10154572D01*
X9717737Y10171737D01*
X9700573Y10185823D01*
X8598327Y11288068D01*
X8584237Y11305237D01*
X8515716Y11361471D01*
X8437541Y11403257D01*
X8352715Y11428989D01*
X8286605Y11435500D01*
X8286594Y11435500D01*
X8264500Y11437676D01*
X8242406Y11435500D01*
X5625896Y11435500D01*
X4058829Y13002566D01*
X4044737Y13019737D01*
X3976216Y13075971D01*
X3898041Y13117757D01*
X3813215Y13143489D01*
X3747105Y13150000D01*
X3747094Y13150000D01*
X3725000Y13152176D01*
X3702906Y13150000D01*
X3598354Y13150000D01*
X3559116Y13244729D01*
X3433263Y13433082D01*
X3273082Y13593263D01*
X3084729Y13719116D01*
X2875443Y13805806D01*
X2653265Y13850000D01*
X2426735Y13850000D01*
X2204557Y13805806D01*
X1995271Y13719116D01*
X1806918Y13593263D01*
X1646737Y13433082D01*
X1592200Y13351461D01*
X1592200Y14426494D01*
X1760542Y14262778D01*
X1966166Y14129490D01*
X2193842Y14038879D01*
X2386000Y14099516D01*
X2386000Y15086000D01*
X2366000Y15086000D01*
X2366000Y15394000D01*
X2386000Y15394000D01*
X2386000Y16380484D01*
X2193842Y16441121D01*
X1966166Y16350510D01*
X1760542Y16217222D01*
X1592200Y16053506D01*
X1592200Y17128539D01*
X1646737Y17046918D01*
G37*
G04 #@! TD.AperFunction*
D17*
X19920001Y33622751D02*
X19854207Y33666713D01*
X19745014Y33711942D01*
X19629095Y33735000D01*
X19510905Y33735000D01*
X19394986Y33711942D01*
X19285793Y33666713D01*
X19187522Y33601050D01*
X19103950Y33517478D01*
X19038287Y33419207D01*
X18993058Y33310014D01*
X18970000Y33194095D01*
X18970000Y33100685D01*
X18930000Y33060685D01*
X18930000Y33133265D01*
X18885806Y33355443D01*
X18799116Y33564729D01*
X18673263Y33753082D01*
X18513082Y33913263D01*
X18434456Y33965799D01*
X18509815Y33988659D01*
X18579304Y34025802D01*
X18640212Y34075788D01*
X18652738Y34091051D01*
X19198950Y34637263D01*
X19214212Y34649788D01*
X19264198Y34710696D01*
X19301341Y34780185D01*
X19324213Y34855585D01*
X19330001Y34914352D01*
X19330001Y34914353D01*
X19331936Y34933999D01*
X19330001Y34953646D01*
X19330001Y36504536D01*
X19920000Y37094535D01*
X19920001Y33622751D01*
G04 #@! TA.AperFunction,Conductor*
D22*
G36*
X19920001Y33622751D02*
G01*
X19854207Y33666713D01*
X19745014Y33711942D01*
X19629095Y33735000D01*
X19510905Y33735000D01*
X19394986Y33711942D01*
X19285793Y33666713D01*
X19187522Y33601050D01*
X19103950Y33517478D01*
X19038287Y33419207D01*
X18993058Y33310014D01*
X18970000Y33194095D01*
X18970000Y33100685D01*
X18930000Y33060685D01*
X18930000Y33133265D01*
X18885806Y33355443D01*
X18799116Y33564729D01*
X18673263Y33753082D01*
X18513082Y33913263D01*
X18434456Y33965799D01*
X18509815Y33988659D01*
X18579304Y34025802D01*
X18640212Y34075788D01*
X18652738Y34091051D01*
X19198950Y34637263D01*
X19214212Y34649788D01*
X19264198Y34710696D01*
X19301341Y34780185D01*
X19324213Y34855585D01*
X19330001Y34914352D01*
X19330001Y34914353D01*
X19331936Y34933999D01*
X19330001Y34953646D01*
X19330001Y36504536D01*
X19920000Y37094535D01*
X19920001Y33622751D01*
G37*
G04 #@! TD.AperFunction*
D17*
X19920000Y46685686D02*
X18825857Y47779828D01*
X18885806Y47924557D01*
X18930000Y48146735D01*
X18930000Y48373265D01*
X18885806Y48595443D01*
X18799116Y48804729D01*
X18673263Y48993082D01*
X18513082Y49153263D01*
X18366166Y49251429D01*
X18410415Y49255787D01*
X18485815Y49278659D01*
X18555304Y49315802D01*
X18616212Y49365788D01*
X18628738Y49381051D01*
X19649154Y50401466D01*
X19664411Y50413987D01*
X19714397Y50474895D01*
X19751540Y50544384D01*
X19774412Y50619784D01*
X19780200Y50678551D01*
X19780200Y50678561D01*
X19782134Y50698197D01*
X19780200Y50717833D01*
X19780200Y56955165D01*
X19782134Y56974801D01*
X19780200Y56994437D01*
X19780200Y56994447D01*
X19774412Y57053214D01*
X19751540Y57128614D01*
X19714397Y57198103D01*
X19664411Y57259011D01*
X19649148Y57271537D01*
X18931451Y57989234D01*
X18931451Y59270000D01*
X18929481Y59290000D01*
X19920000Y59290000D01*
X19920000Y46685686D01*
G04 #@! TA.AperFunction,Conductor*
D22*
G36*
X19920000Y46685686D02*
G01*
X18825857Y47779828D01*
X18885806Y47924557D01*
X18930000Y48146735D01*
X18930000Y48373265D01*
X18885806Y48595443D01*
X18799116Y48804729D01*
X18673263Y48993082D01*
X18513082Y49153263D01*
X18366166Y49251429D01*
X18410415Y49255787D01*
X18485815Y49278659D01*
X18555304Y49315802D01*
X18616212Y49365788D01*
X18628738Y49381051D01*
X19649154Y50401466D01*
X19664411Y50413987D01*
X19714397Y50474895D01*
X19751540Y50544384D01*
X19774412Y50619784D01*
X19780200Y50678551D01*
X19780200Y50678561D01*
X19782134Y50698197D01*
X19780200Y50717833D01*
X19780200Y56955165D01*
X19782134Y56974801D01*
X19780200Y56994437D01*
X19780200Y56994447D01*
X19774412Y57053214D01*
X19751540Y57128614D01*
X19714397Y57198103D01*
X19664411Y57259011D01*
X19649148Y57271537D01*
X18931451Y57989234D01*
X18931451Y59270000D01*
X18929481Y59290000D01*
X19920000Y59290000D01*
X19920000Y46685686D01*
G37*
G04 #@! TD.AperFunction*
D17*
X11151047Y55630996D02*
X11135790Y55618475D01*
X11123268Y55603217D01*
X11123265Y55603214D01*
X11085803Y55557566D01*
X11048661Y55488078D01*
X11025788Y55412677D01*
X11020504Y55359032D01*
X10953950Y55292478D01*
X10888287Y55194207D01*
X10843058Y55085014D01*
X10820000Y54969095D01*
X10820000Y54850905D01*
X10843058Y54734986D01*
X10888287Y54625793D01*
X10953950Y54527522D01*
X10992972Y54488500D01*
X9016692Y54488500D01*
X9102226Y54505514D01*
X9211419Y54550743D01*
X9309690Y54616406D01*
X9393262Y54699978D01*
X9458925Y54798249D01*
X9504154Y54907442D01*
X9527212Y55023361D01*
X9527212Y55116771D01*
X10085442Y55675000D01*
X11195051Y55675000D01*
X11151047Y55630996D01*
G04 #@! TA.AperFunction,Conductor*
D22*
G36*
X11151047Y55630996D02*
G01*
X11135790Y55618475D01*
X11123268Y55603217D01*
X11123265Y55603214D01*
X11085803Y55557566D01*
X11048661Y55488078D01*
X11025788Y55412677D01*
X11020504Y55359032D01*
X10953950Y55292478D01*
X10888287Y55194207D01*
X10843058Y55085014D01*
X10820000Y54969095D01*
X10820000Y54850905D01*
X10843058Y54734986D01*
X10888287Y54625793D01*
X10953950Y54527522D01*
X10992972Y54488500D01*
X9016692Y54488500D01*
X9102226Y54505514D01*
X9211419Y54550743D01*
X9309690Y54616406D01*
X9393262Y54699978D01*
X9458925Y54798249D01*
X9504154Y54907442D01*
X9527212Y55023361D01*
X9527212Y55116771D01*
X10085442Y55675000D01*
X11195051Y55675000D01*
X11151047Y55630996D01*
G37*
G04 #@! TD.AperFunction*
M02*
