G04 #@! TF.GenerationSoftware,KiCad,Pcbnew,5.1.8-db9833491~88~ubuntu20.04.1*
G04 #@! TF.CreationDate,2021-01-17T16:25:24+01:00*
G04 #@! TF.ProjectId,Pic32MxRedFox,50696333-324d-4785-9265-64466f782e6b,Rev2*
G04 #@! TF.SameCoordinates,PX5faea10PY8eeaea0*
G04 #@! TF.FileFunction,Soldermask,Bot*
G04 #@! TF.FilePolarity,Negative*
%FSLAX46Y46*%
G04 Gerber Fmt 4.6, Leading zero omitted, Abs format (unit mm)*
G04 Created by KiCad (PCBNEW 5.1.8-db9833491~88~ubuntu20.04.1) date 2021-01-17 16:25:24*
%MOMM*%
%LPD*%
G01*
G04 APERTURE LIST*
%ADD10C,0.010000*%
%ADD11C,0.500000*%
%ADD12O,1.700000X1.700000*%
%ADD13R,1.700000X1.700000*%
%ADD14R,1.727200X1.727200*%
%ADD15O,1.727200X1.727200*%
%ADD16C,0.650000*%
%ADD17O,1.000000X1.800000*%
%ADD18O,1.000000X2.100000*%
G04 APERTURE END LIST*
D10*
G36*
X10644636Y52357781D02*
G01*
X10622371Y52329224D01*
X10595581Y52289180D01*
X10569179Y52245109D01*
X10562722Y52233427D01*
X10548423Y52207376D01*
X10524961Y52165072D01*
X10493559Y52108705D01*
X10455443Y52040465D01*
X10411836Y51962540D01*
X10363963Y51877122D01*
X10313048Y51786398D01*
X10260315Y51692560D01*
X10256825Y51686354D01*
X9996432Y51223333D01*
X9561568Y51223333D01*
X9301175Y51686354D01*
X9248366Y51780321D01*
X9197294Y51871315D01*
X9149184Y51957149D01*
X9105260Y52035631D01*
X9066746Y52104573D01*
X9034867Y52161785D01*
X9010847Y52205078D01*
X8995911Y52232261D01*
X8995278Y52233427D01*
X8969829Y52277305D01*
X8942659Y52319179D01*
X8918680Y52351591D01*
X8913365Y52357781D01*
X8876954Y52398083D01*
X8690748Y52398083D01*
X8659329Y52355361D01*
X8648515Y52337228D01*
X8629826Y52301995D01*
X8604298Y52251765D01*
X8572965Y52188637D01*
X8536861Y52114714D01*
X8497021Y52032097D01*
X8454479Y51942887D01*
X8413140Y51855298D01*
X8339923Y51699417D01*
X8274731Y51560790D01*
X8216591Y51437512D01*
X8164528Y51327676D01*
X8117570Y51229377D01*
X8074744Y51140711D01*
X8035077Y51059771D01*
X7997596Y50984653D01*
X7961327Y50913450D01*
X7925298Y50844258D01*
X7888535Y50775170D01*
X7850066Y50704282D01*
X7808917Y50629687D01*
X7764116Y50549482D01*
X7714688Y50461759D01*
X7659662Y50364614D01*
X7598064Y50256141D01*
X7582359Y50228500D01*
X7212542Y49577625D01*
X7209012Y49459648D01*
X7207932Y49404602D01*
X7209094Y49364002D01*
X7213313Y49331174D01*
X7221402Y49299445D01*
X7232567Y49266585D01*
X7278471Y49157811D01*
X7335356Y49058327D01*
X7406726Y48962573D01*
X7465984Y48896048D01*
X7482193Y48881020D01*
X7513892Y48853665D01*
X7560019Y48814849D01*
X7619512Y48765437D01*
X7691310Y48706296D01*
X7774350Y48638292D01*
X7867570Y48562289D01*
X7969908Y48479155D01*
X8080302Y48389754D01*
X8197691Y48294954D01*
X8321011Y48195618D01*
X8449201Y48092614D01*
X8581199Y47986807D01*
X8585660Y47983236D01*
X9641278Y47138167D01*
X9781577Y47138956D01*
X9921875Y47139745D01*
X10962629Y47973685D01*
X11093624Y48078728D01*
X11220778Y48180845D01*
X11343030Y48279174D01*
X11459316Y48372856D01*
X11568576Y48461029D01*
X11669748Y48542834D01*
X11761769Y48617410D01*
X11843578Y48683896D01*
X11914112Y48741432D01*
X11972311Y48789156D01*
X12017111Y48826209D01*
X12047451Y48851730D01*
X12061945Y48864542D01*
X12105400Y48910465D01*
X12152137Y48965961D01*
X12197757Y49025257D01*
X12237860Y49082583D01*
X12268044Y49132165D01*
X12272628Y49140889D01*
X12289872Y49178025D01*
X12309379Y49224631D01*
X12325525Y49266839D01*
X12337723Y49303143D01*
X12345335Y49334651D01*
X12349171Y49368031D01*
X12350042Y49409948D01*
X12349668Y49427601D01*
X12197070Y49427601D01*
X12185596Y49382350D01*
X12163206Y49327575D01*
X12131635Y49266277D01*
X12092617Y49201456D01*
X12047889Y49136114D01*
X11999184Y49073251D01*
X11948238Y49015869D01*
X11926066Y48993620D01*
X11911390Y48980728D01*
X11882584Y48956557D01*
X11841342Y48922472D01*
X11789358Y48879840D01*
X11728325Y48830026D01*
X11659937Y48774397D01*
X11585888Y48714319D01*
X11507872Y48651158D01*
X11427582Y48586280D01*
X11346711Y48521051D01*
X11266955Y48456837D01*
X11190005Y48395004D01*
X11117557Y48336919D01*
X11051304Y48283946D01*
X10992939Y48237454D01*
X10944156Y48198807D01*
X10906649Y48169371D01*
X10882111Y48150514D01*
X10872237Y48143600D01*
X10872176Y48143591D01*
X10874594Y48152985D01*
X10882751Y48178753D01*
X10895464Y48217270D01*
X10911547Y48264906D01*
X10916645Y48279829D01*
X10984490Y48462016D01*
X11065300Y48651960D01*
X11156489Y48844629D01*
X11255473Y49034988D01*
X11359666Y49218005D01*
X11466482Y49388644D01*
X11544654Y49502538D01*
X11586555Y49557097D01*
X11636955Y49616602D01*
X11692144Y49677201D01*
X11748411Y49735042D01*
X11802048Y49786271D01*
X11849344Y49827036D01*
X11876482Y49847142D01*
X11908890Y49868038D01*
X11934619Y49883253D01*
X11948543Y49889775D01*
X11949084Y49889833D01*
X11956365Y49881087D01*
X11972060Y49856936D01*
X11994366Y49820516D01*
X12021482Y49774963D01*
X12051605Y49723412D01*
X12082936Y49668997D01*
X12113671Y49614854D01*
X12142010Y49564119D01*
X12166151Y49519925D01*
X12184292Y49485409D01*
X12194633Y49463705D01*
X12195892Y49460326D01*
X12197070Y49427601D01*
X12349668Y49427601D01*
X12348988Y49459648D01*
X12345458Y49577625D01*
X12074547Y50054427D01*
X11860945Y50054427D01*
X11853268Y50044743D01*
X11830900Y50029911D01*
X11798622Y50013084D01*
X11797445Y50012532D01*
X11768010Y49996916D01*
X11737760Y49976439D01*
X11703535Y49948483D01*
X11662174Y49910429D01*
X11610517Y49859661D01*
X11599333Y49848418D01*
X11502522Y49743980D01*
X11409408Y49629114D01*
X11318519Y49501651D01*
X11228385Y49359420D01*
X11137533Y49200252D01*
X11061196Y49055042D01*
X10975841Y48882096D01*
X10902563Y48722123D01*
X10840026Y48571723D01*
X10786896Y48427493D01*
X10741835Y48286033D01*
X10703727Y48144825D01*
X10689911Y48089819D01*
X10677396Y48041743D01*
X10667239Y48004534D01*
X10660501Y47982130D01*
X10658827Y47977852D01*
X10648898Y47967871D01*
X10624885Y47946841D01*
X10589291Y47916862D01*
X10544621Y47880032D01*
X10493378Y47838449D01*
X10472208Y47821442D01*
X10408084Y47770642D01*
X10358260Y47732570D01*
X10321061Y47706072D01*
X10294809Y47689996D01*
X10277827Y47683188D01*
X10271125Y47683140D01*
X10250160Y47688804D01*
X10216411Y47697806D01*
X10181167Y47707145D01*
X10158674Y47712351D01*
X10133251Y47716475D01*
X10102291Y47719631D01*
X10063187Y47721933D01*
X10013333Y47723494D01*
X9950123Y47724427D01*
X9870948Y47724845D01*
X9773708Y47724863D01*
X9678817Y47724652D01*
X9602343Y47724198D01*
X9541535Y47723346D01*
X9493643Y47721943D01*
X9455919Y47719835D01*
X9425610Y47716866D01*
X9399969Y47712884D01*
X9376244Y47707733D01*
X9351685Y47701260D01*
X9351429Y47701189D01*
X9309309Y47690919D01*
X9276408Y47685642D01*
X9257701Y47686104D01*
X9256179Y47686890D01*
X9218706Y47716006D01*
X9174165Y47751228D01*
X9125370Y47790260D01*
X9075141Y47830803D01*
X9026292Y47870562D01*
X8981642Y47907241D01*
X8944007Y47938541D01*
X8916204Y47962168D01*
X8901050Y47975823D01*
X8899173Y47977957D01*
X8894389Y47992084D01*
X8885694Y48022853D01*
X8874147Y48066329D01*
X8860806Y48118579D01*
X8854273Y48144825D01*
X8852569Y48151136D01*
X8677014Y48151136D01*
X8675683Y48151298D01*
X8665249Y48159595D01*
X8639756Y48179941D01*
X8600673Y48211163D01*
X8549468Y48252085D01*
X8487609Y48301535D01*
X8416567Y48358338D01*
X8337809Y48421320D01*
X8252804Y48489306D01*
X8163021Y48561124D01*
X8159750Y48563741D01*
X8046130Y48654779D01*
X7947788Y48733978D01*
X7863346Y48802560D01*
X7791431Y48861754D01*
X7730667Y48912784D01*
X7679678Y48956876D01*
X7637090Y48995255D01*
X7601526Y49029147D01*
X7571611Y49059779D01*
X7545971Y49088374D01*
X7523230Y49116160D01*
X7502012Y49144362D01*
X7491134Y49159583D01*
X7452095Y49219480D01*
X7418018Y49280373D01*
X7390461Y49338634D01*
X7370978Y49390638D01*
X7361126Y49432758D01*
X7362108Y49460326D01*
X7369917Y49477841D01*
X7386036Y49509054D01*
X7408664Y49550831D01*
X7436000Y49600035D01*
X7466240Y49653533D01*
X7497585Y49708189D01*
X7528233Y49760867D01*
X7556381Y49808433D01*
X7580229Y49847751D01*
X7597974Y49875687D01*
X7607816Y49889105D01*
X7608917Y49889833D01*
X7621397Y49884334D01*
X7646187Y49869843D01*
X7678164Y49849375D01*
X7681519Y49847142D01*
X7722234Y49815903D01*
X7771865Y49771526D01*
X7826700Y49717865D01*
X7883031Y49658772D01*
X7937148Y49598098D01*
X7985342Y49539697D01*
X8013347Y49502538D01*
X8120904Y49343418D01*
X8227650Y49168232D01*
X8331004Y48982007D01*
X8428386Y48789770D01*
X8517213Y48596547D01*
X8594906Y48407366D01*
X8641798Y48278536D01*
X8657825Y48229849D01*
X8669612Y48190226D01*
X8676296Y48162908D01*
X8677014Y48151136D01*
X8852569Y48151136D01*
X8815910Y48286902D01*
X8770804Y48428368D01*
X8717619Y48572626D01*
X8655021Y48723075D01*
X8581673Y48883117D01*
X8496804Y49055042D01*
X8404258Y49229774D01*
X8313641Y49385784D01*
X8223480Y49525241D01*
X8132304Y49650315D01*
X8038643Y49763176D01*
X7958667Y49848418D01*
X7904708Y49901885D01*
X7861643Y49942142D01*
X7826310Y49971806D01*
X7795551Y49993497D01*
X7766205Y50009831D01*
X7760556Y50012532D01*
X7728032Y50029371D01*
X7705262Y50044320D01*
X7697025Y50054223D01*
X7697056Y50054427D01*
X7702637Y50065834D01*
X7717548Y50093564D01*
X7740639Y50135547D01*
X7770757Y50189715D01*
X7806754Y50254001D01*
X7847477Y50326337D01*
X7891777Y50404654D01*
X7900226Y50419552D01*
X7952169Y50511813D01*
X8000220Y50598850D01*
X8045964Y50683770D01*
X8090990Y50769683D01*
X8136885Y50859696D01*
X8185234Y50956917D01*
X8237625Y51064455D01*
X8295645Y51185417D01*
X8353832Y51308000D01*
X8402709Y51411444D01*
X8450320Y51512381D01*
X8495621Y51608588D01*
X8537571Y51697846D01*
X8575128Y51777933D01*
X8607250Y51846628D01*
X8632893Y51901710D01*
X8651017Y51940959D01*
X8656767Y51953583D01*
X8681969Y52008500D01*
X8709078Y52066134D01*
X8734093Y52118037D01*
X8746678Y52143399D01*
X8786408Y52222090D01*
X8805968Y52196316D01*
X8817303Y52178414D01*
X8836123Y52145416D01*
X8860345Y52101108D01*
X8887890Y52049276D01*
X8907391Y52011792D01*
X8935240Y51958351D01*
X8960396Y51911132D01*
X8981006Y51873529D01*
X8995221Y51848934D01*
X9000481Y51841159D01*
X9007917Y51829631D01*
X9024523Y51801607D01*
X9049160Y51759078D01*
X9080691Y51704034D01*
X9117977Y51638467D01*
X9159881Y51564367D01*
X9205263Y51483725D01*
X9228667Y51441996D01*
X9445625Y51054715D01*
X9505963Y51054358D01*
X9552737Y51057156D01*
X9603833Y51064674D01*
X9627249Y51069875D01*
X9687806Y51080402D01*
X9759677Y51084942D01*
X9833872Y51083497D01*
X9901402Y51076066D01*
X9930751Y51069875D01*
X9977766Y51060674D01*
X10028788Y51055127D01*
X10052037Y51054358D01*
X10112375Y51054715D01*
X10329333Y51441996D01*
X10376017Y51525139D01*
X10419786Y51602727D01*
X10459500Y51672767D01*
X10494022Y51733269D01*
X10522214Y51782243D01*
X10542938Y51817696D01*
X10555056Y51837639D01*
X10557519Y51841159D01*
X10565927Y51854176D01*
X10582075Y51882667D01*
X10604114Y51923238D01*
X10630190Y51972497D01*
X10650610Y52011792D01*
X10679223Y52066571D01*
X10705925Y52116392D01*
X10728633Y52157469D01*
X10745268Y52186015D01*
X10752032Y52196316D01*
X10771592Y52222090D01*
X10811322Y52143399D01*
X10833072Y52099194D01*
X10859372Y52044074D01*
X10886218Y51986489D01*
X10901233Y51953583D01*
X10915353Y51922775D01*
X10937496Y51875061D01*
X10966620Y51812661D01*
X11001682Y51737797D01*
X11041641Y51652690D01*
X11085455Y51559561D01*
X11132081Y51460631D01*
X11180476Y51358120D01*
X11204169Y51308000D01*
X11268593Y51172339D01*
X11325965Y51052892D01*
X11377870Y50946553D01*
X11425895Y50850211D01*
X11471628Y50760760D01*
X11516655Y50675092D01*
X11562563Y50590097D01*
X11610938Y50502669D01*
X11657774Y50419552D01*
X11702606Y50340359D01*
X11744074Y50266768D01*
X11781027Y50200846D01*
X11812313Y50144660D01*
X11836783Y50100280D01*
X11853286Y50069773D01*
X11860670Y50055206D01*
X11860945Y50054427D01*
X12074547Y50054427D01*
X11975641Y50228500D01*
X11912339Y50339944D01*
X11855840Y50439607D01*
X11805170Y50529396D01*
X11759358Y50611214D01*
X11717430Y50686969D01*
X11678412Y50758565D01*
X11641332Y50827908D01*
X11605217Y50896903D01*
X11569093Y50967456D01*
X11531988Y51041472D01*
X11492928Y51120856D01*
X11450941Y51207514D01*
X11405053Y51303352D01*
X11354291Y51410275D01*
X11297682Y51530188D01*
X11234253Y51664996D01*
X11163031Y51816606D01*
X11144861Y51855298D01*
X11100728Y51948775D01*
X11058328Y52037625D01*
X11018697Y52119747D01*
X10982868Y52193040D01*
X10951877Y52255402D01*
X10926757Y52304732D01*
X10908543Y52338929D01*
X10898671Y52355361D01*
X10867252Y52398083D01*
X10681047Y52398083D01*
X10644636Y52357781D01*
G37*
X10644636Y52357781D02*
X10622371Y52329224D01*
X10595581Y52289180D01*
X10569179Y52245109D01*
X10562722Y52233427D01*
X10548423Y52207376D01*
X10524961Y52165072D01*
X10493559Y52108705D01*
X10455443Y52040465D01*
X10411836Y51962540D01*
X10363963Y51877122D01*
X10313048Y51786398D01*
X10260315Y51692560D01*
X10256825Y51686354D01*
X9996432Y51223333D01*
X9561568Y51223333D01*
X9301175Y51686354D01*
X9248366Y51780321D01*
X9197294Y51871315D01*
X9149184Y51957149D01*
X9105260Y52035631D01*
X9066746Y52104573D01*
X9034867Y52161785D01*
X9010847Y52205078D01*
X8995911Y52232261D01*
X8995278Y52233427D01*
X8969829Y52277305D01*
X8942659Y52319179D01*
X8918680Y52351591D01*
X8913365Y52357781D01*
X8876954Y52398083D01*
X8690748Y52398083D01*
X8659329Y52355361D01*
X8648515Y52337228D01*
X8629826Y52301995D01*
X8604298Y52251765D01*
X8572965Y52188637D01*
X8536861Y52114714D01*
X8497021Y52032097D01*
X8454479Y51942887D01*
X8413140Y51855298D01*
X8339923Y51699417D01*
X8274731Y51560790D01*
X8216591Y51437512D01*
X8164528Y51327676D01*
X8117570Y51229377D01*
X8074744Y51140711D01*
X8035077Y51059771D01*
X7997596Y50984653D01*
X7961327Y50913450D01*
X7925298Y50844258D01*
X7888535Y50775170D01*
X7850066Y50704282D01*
X7808917Y50629687D01*
X7764116Y50549482D01*
X7714688Y50461759D01*
X7659662Y50364614D01*
X7598064Y50256141D01*
X7582359Y50228500D01*
X7212542Y49577625D01*
X7209012Y49459648D01*
X7207932Y49404602D01*
X7209094Y49364002D01*
X7213313Y49331174D01*
X7221402Y49299445D01*
X7232567Y49266585D01*
X7278471Y49157811D01*
X7335356Y49058327D01*
X7406726Y48962573D01*
X7465984Y48896048D01*
X7482193Y48881020D01*
X7513892Y48853665D01*
X7560019Y48814849D01*
X7619512Y48765437D01*
X7691310Y48706296D01*
X7774350Y48638292D01*
X7867570Y48562289D01*
X7969908Y48479155D01*
X8080302Y48389754D01*
X8197691Y48294954D01*
X8321011Y48195618D01*
X8449201Y48092614D01*
X8581199Y47986807D01*
X8585660Y47983236D01*
X9641278Y47138167D01*
X9781577Y47138956D01*
X9921875Y47139745D01*
X10962629Y47973685D01*
X11093624Y48078728D01*
X11220778Y48180845D01*
X11343030Y48279174D01*
X11459316Y48372856D01*
X11568576Y48461029D01*
X11669748Y48542834D01*
X11761769Y48617410D01*
X11843578Y48683896D01*
X11914112Y48741432D01*
X11972311Y48789156D01*
X12017111Y48826209D01*
X12047451Y48851730D01*
X12061945Y48864542D01*
X12105400Y48910465D01*
X12152137Y48965961D01*
X12197757Y49025257D01*
X12237860Y49082583D01*
X12268044Y49132165D01*
X12272628Y49140889D01*
X12289872Y49178025D01*
X12309379Y49224631D01*
X12325525Y49266839D01*
X12337723Y49303143D01*
X12345335Y49334651D01*
X12349171Y49368031D01*
X12350042Y49409948D01*
X12349668Y49427601D01*
X12197070Y49427601D01*
X12185596Y49382350D01*
X12163206Y49327575D01*
X12131635Y49266277D01*
X12092617Y49201456D01*
X12047889Y49136114D01*
X11999184Y49073251D01*
X11948238Y49015869D01*
X11926066Y48993620D01*
X11911390Y48980728D01*
X11882584Y48956557D01*
X11841342Y48922472D01*
X11789358Y48879840D01*
X11728325Y48830026D01*
X11659937Y48774397D01*
X11585888Y48714319D01*
X11507872Y48651158D01*
X11427582Y48586280D01*
X11346711Y48521051D01*
X11266955Y48456837D01*
X11190005Y48395004D01*
X11117557Y48336919D01*
X11051304Y48283946D01*
X10992939Y48237454D01*
X10944156Y48198807D01*
X10906649Y48169371D01*
X10882111Y48150514D01*
X10872237Y48143600D01*
X10872176Y48143591D01*
X10874594Y48152985D01*
X10882751Y48178753D01*
X10895464Y48217270D01*
X10911547Y48264906D01*
X10916645Y48279829D01*
X10984490Y48462016D01*
X11065300Y48651960D01*
X11156489Y48844629D01*
X11255473Y49034988D01*
X11359666Y49218005D01*
X11466482Y49388644D01*
X11544654Y49502538D01*
X11586555Y49557097D01*
X11636955Y49616602D01*
X11692144Y49677201D01*
X11748411Y49735042D01*
X11802048Y49786271D01*
X11849344Y49827036D01*
X11876482Y49847142D01*
X11908890Y49868038D01*
X11934619Y49883253D01*
X11948543Y49889775D01*
X11949084Y49889833D01*
X11956365Y49881087D01*
X11972060Y49856936D01*
X11994366Y49820516D01*
X12021482Y49774963D01*
X12051605Y49723412D01*
X12082936Y49668997D01*
X12113671Y49614854D01*
X12142010Y49564119D01*
X12166151Y49519925D01*
X12184292Y49485409D01*
X12194633Y49463705D01*
X12195892Y49460326D01*
X12197070Y49427601D01*
X12349668Y49427601D01*
X12348988Y49459648D01*
X12345458Y49577625D01*
X12074547Y50054427D01*
X11860945Y50054427D01*
X11853268Y50044743D01*
X11830900Y50029911D01*
X11798622Y50013084D01*
X11797445Y50012532D01*
X11768010Y49996916D01*
X11737760Y49976439D01*
X11703535Y49948483D01*
X11662174Y49910429D01*
X11610517Y49859661D01*
X11599333Y49848418D01*
X11502522Y49743980D01*
X11409408Y49629114D01*
X11318519Y49501651D01*
X11228385Y49359420D01*
X11137533Y49200252D01*
X11061196Y49055042D01*
X10975841Y48882096D01*
X10902563Y48722123D01*
X10840026Y48571723D01*
X10786896Y48427493D01*
X10741835Y48286033D01*
X10703727Y48144825D01*
X10689911Y48089819D01*
X10677396Y48041743D01*
X10667239Y48004534D01*
X10660501Y47982130D01*
X10658827Y47977852D01*
X10648898Y47967871D01*
X10624885Y47946841D01*
X10589291Y47916862D01*
X10544621Y47880032D01*
X10493378Y47838449D01*
X10472208Y47821442D01*
X10408084Y47770642D01*
X10358260Y47732570D01*
X10321061Y47706072D01*
X10294809Y47689996D01*
X10277827Y47683188D01*
X10271125Y47683140D01*
X10250160Y47688804D01*
X10216411Y47697806D01*
X10181167Y47707145D01*
X10158674Y47712351D01*
X10133251Y47716475D01*
X10102291Y47719631D01*
X10063187Y47721933D01*
X10013333Y47723494D01*
X9950123Y47724427D01*
X9870948Y47724845D01*
X9773708Y47724863D01*
X9678817Y47724652D01*
X9602343Y47724198D01*
X9541535Y47723346D01*
X9493643Y47721943D01*
X9455919Y47719835D01*
X9425610Y47716866D01*
X9399969Y47712884D01*
X9376244Y47707733D01*
X9351685Y47701260D01*
X9351429Y47701189D01*
X9309309Y47690919D01*
X9276408Y47685642D01*
X9257701Y47686104D01*
X9256179Y47686890D01*
X9218706Y47716006D01*
X9174165Y47751228D01*
X9125370Y47790260D01*
X9075141Y47830803D01*
X9026292Y47870562D01*
X8981642Y47907241D01*
X8944007Y47938541D01*
X8916204Y47962168D01*
X8901050Y47975823D01*
X8899173Y47977957D01*
X8894389Y47992084D01*
X8885694Y48022853D01*
X8874147Y48066329D01*
X8860806Y48118579D01*
X8854273Y48144825D01*
X8852569Y48151136D01*
X8677014Y48151136D01*
X8675683Y48151298D01*
X8665249Y48159595D01*
X8639756Y48179941D01*
X8600673Y48211163D01*
X8549468Y48252085D01*
X8487609Y48301535D01*
X8416567Y48358338D01*
X8337809Y48421320D01*
X8252804Y48489306D01*
X8163021Y48561124D01*
X8159750Y48563741D01*
X8046130Y48654779D01*
X7947788Y48733978D01*
X7863346Y48802560D01*
X7791431Y48861754D01*
X7730667Y48912784D01*
X7679678Y48956876D01*
X7637090Y48995255D01*
X7601526Y49029147D01*
X7571611Y49059779D01*
X7545971Y49088374D01*
X7523230Y49116160D01*
X7502012Y49144362D01*
X7491134Y49159583D01*
X7452095Y49219480D01*
X7418018Y49280373D01*
X7390461Y49338634D01*
X7370978Y49390638D01*
X7361126Y49432758D01*
X7362108Y49460326D01*
X7369917Y49477841D01*
X7386036Y49509054D01*
X7408664Y49550831D01*
X7436000Y49600035D01*
X7466240Y49653533D01*
X7497585Y49708189D01*
X7528233Y49760867D01*
X7556381Y49808433D01*
X7580229Y49847751D01*
X7597974Y49875687D01*
X7607816Y49889105D01*
X7608917Y49889833D01*
X7621397Y49884334D01*
X7646187Y49869843D01*
X7678164Y49849375D01*
X7681519Y49847142D01*
X7722234Y49815903D01*
X7771865Y49771526D01*
X7826700Y49717865D01*
X7883031Y49658772D01*
X7937148Y49598098D01*
X7985342Y49539697D01*
X8013347Y49502538D01*
X8120904Y49343418D01*
X8227650Y49168232D01*
X8331004Y48982007D01*
X8428386Y48789770D01*
X8517213Y48596547D01*
X8594906Y48407366D01*
X8641798Y48278536D01*
X8657825Y48229849D01*
X8669612Y48190226D01*
X8676296Y48162908D01*
X8677014Y48151136D01*
X8852569Y48151136D01*
X8815910Y48286902D01*
X8770804Y48428368D01*
X8717619Y48572626D01*
X8655021Y48723075D01*
X8581673Y48883117D01*
X8496804Y49055042D01*
X8404258Y49229774D01*
X8313641Y49385784D01*
X8223480Y49525241D01*
X8132304Y49650315D01*
X8038643Y49763176D01*
X7958667Y49848418D01*
X7904708Y49901885D01*
X7861643Y49942142D01*
X7826310Y49971806D01*
X7795551Y49993497D01*
X7766205Y50009831D01*
X7760556Y50012532D01*
X7728032Y50029371D01*
X7705262Y50044320D01*
X7697025Y50054223D01*
X7697056Y50054427D01*
X7702637Y50065834D01*
X7717548Y50093564D01*
X7740639Y50135547D01*
X7770757Y50189715D01*
X7806754Y50254001D01*
X7847477Y50326337D01*
X7891777Y50404654D01*
X7900226Y50419552D01*
X7952169Y50511813D01*
X8000220Y50598850D01*
X8045964Y50683770D01*
X8090990Y50769683D01*
X8136885Y50859696D01*
X8185234Y50956917D01*
X8237625Y51064455D01*
X8295645Y51185417D01*
X8353832Y51308000D01*
X8402709Y51411444D01*
X8450320Y51512381D01*
X8495621Y51608588D01*
X8537571Y51697846D01*
X8575128Y51777933D01*
X8607250Y51846628D01*
X8632893Y51901710D01*
X8651017Y51940959D01*
X8656767Y51953583D01*
X8681969Y52008500D01*
X8709078Y52066134D01*
X8734093Y52118037D01*
X8746678Y52143399D01*
X8786408Y52222090D01*
X8805968Y52196316D01*
X8817303Y52178414D01*
X8836123Y52145416D01*
X8860345Y52101108D01*
X8887890Y52049276D01*
X8907391Y52011792D01*
X8935240Y51958351D01*
X8960396Y51911132D01*
X8981006Y51873529D01*
X8995221Y51848934D01*
X9000481Y51841159D01*
X9007917Y51829631D01*
X9024523Y51801607D01*
X9049160Y51759078D01*
X9080691Y51704034D01*
X9117977Y51638467D01*
X9159881Y51564367D01*
X9205263Y51483725D01*
X9228667Y51441996D01*
X9445625Y51054715D01*
X9505963Y51054358D01*
X9552737Y51057156D01*
X9603833Y51064674D01*
X9627249Y51069875D01*
X9687806Y51080402D01*
X9759677Y51084942D01*
X9833872Y51083497D01*
X9901402Y51076066D01*
X9930751Y51069875D01*
X9977766Y51060674D01*
X10028788Y51055127D01*
X10052037Y51054358D01*
X10112375Y51054715D01*
X10329333Y51441996D01*
X10376017Y51525139D01*
X10419786Y51602727D01*
X10459500Y51672767D01*
X10494022Y51733269D01*
X10522214Y51782243D01*
X10542938Y51817696D01*
X10555056Y51837639D01*
X10557519Y51841159D01*
X10565927Y51854176D01*
X10582075Y51882667D01*
X10604114Y51923238D01*
X10630190Y51972497D01*
X10650610Y52011792D01*
X10679223Y52066571D01*
X10705925Y52116392D01*
X10728633Y52157469D01*
X10745268Y52186015D01*
X10752032Y52196316D01*
X10771592Y52222090D01*
X10811322Y52143399D01*
X10833072Y52099194D01*
X10859372Y52044074D01*
X10886218Y51986489D01*
X10901233Y51953583D01*
X10915353Y51922775D01*
X10937496Y51875061D01*
X10966620Y51812661D01*
X11001682Y51737797D01*
X11041641Y51652690D01*
X11085455Y51559561D01*
X11132081Y51460631D01*
X11180476Y51358120D01*
X11204169Y51308000D01*
X11268593Y51172339D01*
X11325965Y51052892D01*
X11377870Y50946553D01*
X11425895Y50850211D01*
X11471628Y50760760D01*
X11516655Y50675092D01*
X11562563Y50590097D01*
X11610938Y50502669D01*
X11657774Y50419552D01*
X11702606Y50340359D01*
X11744074Y50266768D01*
X11781027Y50200846D01*
X11812313Y50144660D01*
X11836783Y50100280D01*
X11853286Y50069773D01*
X11860670Y50055206D01*
X11860945Y50054427D01*
X12074547Y50054427D01*
X11975641Y50228500D01*
X11912339Y50339944D01*
X11855840Y50439607D01*
X11805170Y50529396D01*
X11759358Y50611214D01*
X11717430Y50686969D01*
X11678412Y50758565D01*
X11641332Y50827908D01*
X11605217Y50896903D01*
X11569093Y50967456D01*
X11531988Y51041472D01*
X11492928Y51120856D01*
X11450941Y51207514D01*
X11405053Y51303352D01*
X11354291Y51410275D01*
X11297682Y51530188D01*
X11234253Y51664996D01*
X11163031Y51816606D01*
X11144861Y51855298D01*
X11100728Y51948775D01*
X11058328Y52037625D01*
X11018697Y52119747D01*
X10982868Y52193040D01*
X10951877Y52255402D01*
X10926757Y52304732D01*
X10908543Y52338929D01*
X10898671Y52355361D01*
X10867252Y52398083D01*
X10681047Y52398083D01*
X10644636Y52357781D01*
D11*
X16160000Y8255000D03*
X14660000Y8255000D03*
X13160000Y8255000D03*
X10160000Y8255000D03*
X4160000Y8255000D03*
X11660000Y8255000D03*
X8660000Y8255000D03*
X5660000Y8255000D03*
X7160000Y8255000D03*
D12*
X17780000Y10160000D03*
X17780000Y12700000D03*
X17780000Y15240000D03*
X17780000Y17780000D03*
X17780000Y20320000D03*
X17780000Y22860000D03*
X17780000Y25400000D03*
X17780000Y27940000D03*
X17780000Y30480000D03*
X17780000Y33020000D03*
X17780000Y35560000D03*
X17780000Y38100000D03*
X17780000Y40640000D03*
X17780000Y43180000D03*
X17780000Y45720000D03*
X17780000Y48260000D03*
X17780000Y50800000D03*
X17780000Y53340000D03*
X17780000Y55880000D03*
D13*
X17780000Y58420000D03*
X2540000Y58420000D03*
D12*
X2540000Y55880000D03*
X2540000Y53340000D03*
X2540000Y50800000D03*
X2540000Y48260000D03*
X2540000Y45720000D03*
X2540000Y43180000D03*
X2540000Y40640000D03*
X2540000Y38100000D03*
X2540000Y35560000D03*
X2540000Y33020000D03*
X2540000Y30480000D03*
X2540000Y27940000D03*
X2540000Y25400000D03*
X2540000Y22860000D03*
X2540000Y20320000D03*
X2540000Y17780000D03*
X2540000Y15240000D03*
X2540000Y12700000D03*
X2540000Y10160000D03*
D14*
X5080000Y2540000D03*
D15*
X5080000Y5080000D03*
X7620000Y2540000D03*
X7620000Y5080000D03*
X10160000Y2540000D03*
X10160000Y5080000D03*
X12700000Y2540000D03*
X12700000Y5080000D03*
X15240000Y2540000D03*
X15240000Y5080000D03*
D16*
X13050000Y54811600D03*
X7270000Y54811600D03*
D17*
X5840000Y58461600D03*
X14480000Y58461600D03*
D18*
X5840000Y54311600D03*
X14480000Y54311600D03*
M02*
