G04 #@! TF.GenerationSoftware,KiCad,Pcbnew,5.1.8-db9833491~88~ubuntu20.04.1*
G04 #@! TF.CreationDate,2021-01-17T16:25:24+01:00*
G04 #@! TF.ProjectId,Pic32MxRedFox,50696333-324d-4785-9265-64466f782e6b,Rev2*
G04 #@! TF.SameCoordinates,PX5faea10PY8eeaea0*
G04 #@! TF.FileFunction,Legend,Bot*
G04 #@! TF.FilePolarity,Positive*
%FSLAX46Y46*%
G04 Gerber Fmt 4.6, Leading zero omitted, Abs format (unit mm)*
G04 Created by KiCad (PCBNEW 5.1.8-db9833491~88~ubuntu20.04.1) date 2021-01-17 16:25:24*
%MOMM*%
%LPD*%
G01*
G04 APERTURE LIST*
%ADD10C,0.200000*%
%ADD11C,0.150000*%
%ADD12C,0.120000*%
%ADD13C,0.010000*%
G04 APERTURE END LIST*
D10*
X9000357Y11347500D02*
X7628928Y11347500D01*
X8714642Y9680643D02*
X8714642Y10880643D01*
X8314642Y10023500D01*
X7914642Y10880643D01*
X7914642Y9680643D01*
X7628928Y11347500D02*
X6428928Y11347500D01*
X6657500Y9794929D02*
X6714642Y9737786D01*
X6886071Y9680643D01*
X7000357Y9680643D01*
X7171785Y9737786D01*
X7286071Y9852072D01*
X7343214Y9966358D01*
X7400357Y10194929D01*
X7400357Y10366358D01*
X7343214Y10594929D01*
X7286071Y10709215D01*
X7171785Y10823500D01*
X7000357Y10880643D01*
X6886071Y10880643D01*
X6714642Y10823500D01*
X6657500Y10766358D01*
X6428928Y11347500D02*
X5457500Y11347500D01*
X5571785Y9680643D02*
X6143214Y9680643D01*
X6143214Y10880643D01*
X5457500Y11347500D02*
X4257500Y11347500D01*
X4486071Y9680643D02*
X4886071Y10252072D01*
X5171785Y9680643D02*
X5171785Y10880643D01*
X4714642Y10880643D01*
X4600357Y10823500D01*
X4543214Y10766358D01*
X4486071Y10652072D01*
X4486071Y10480643D01*
X4543214Y10366358D01*
X4600357Y10309215D01*
X4714642Y10252072D01*
X5171785Y10252072D01*
X6257500Y13420643D02*
X5514642Y13420643D01*
X5914642Y12963500D01*
X5743214Y12963500D01*
X5628928Y12906358D01*
X5571785Y12849215D01*
X5514642Y12734929D01*
X5514642Y12449215D01*
X5571785Y12334929D01*
X5628928Y12277786D01*
X5743214Y12220643D01*
X6086071Y12220643D01*
X6200357Y12277786D01*
X6257500Y12334929D01*
X5171785Y13420643D02*
X4771785Y12220643D01*
X4371785Y13420643D01*
X7000357Y15903500D02*
X7114642Y15960643D01*
X7286071Y15960643D01*
X7457500Y15903500D01*
X7571785Y15789215D01*
X7628928Y15674929D01*
X7686071Y15446358D01*
X7686071Y15274929D01*
X7628928Y15046358D01*
X7571785Y14932072D01*
X7457500Y14817786D01*
X7286071Y14760643D01*
X7171785Y14760643D01*
X7000357Y14817786D01*
X6943214Y14874929D01*
X6943214Y15274929D01*
X7171785Y15274929D01*
X6428928Y14760643D02*
X6428928Y15960643D01*
X5743214Y14760643D01*
X5743214Y15960643D01*
X5171785Y14760643D02*
X5171785Y15960643D01*
X4886071Y15960643D01*
X4714642Y15903500D01*
X4600357Y15789215D01*
X4543214Y15674929D01*
X4486071Y15446358D01*
X4486071Y15274929D01*
X4543214Y15046358D01*
X4600357Y14932072D01*
X4714642Y14817786D01*
X4886071Y14760643D01*
X5171785Y14760643D01*
X9800357Y17300643D02*
X9800357Y18500643D01*
X9343214Y18500643D01*
X9228928Y18443500D01*
X9171785Y18386358D01*
X9114642Y18272072D01*
X9114642Y18100643D01*
X9171785Y17986358D01*
X9228928Y17929215D01*
X9343214Y17872072D01*
X9800357Y17872072D01*
X7971785Y18443500D02*
X8086071Y18500643D01*
X8257500Y18500643D01*
X8428928Y18443500D01*
X8543214Y18329215D01*
X8600357Y18214929D01*
X8657500Y17986358D01*
X8657500Y17814929D01*
X8600357Y17586358D01*
X8543214Y17472072D01*
X8428928Y17357786D01*
X8257500Y17300643D01*
X8143214Y17300643D01*
X7971785Y17357786D01*
X7914642Y17414929D01*
X7914642Y17814929D01*
X8143214Y17814929D01*
X7400357Y17929215D02*
X7000357Y17929215D01*
X6828928Y17300643D02*
X7400357Y17300643D01*
X7400357Y18500643D01*
X6828928Y18500643D01*
X6314642Y17300643D02*
X6314642Y18500643D01*
X6028928Y18500643D01*
X5857500Y18443500D01*
X5743214Y18329215D01*
X5686071Y18214929D01*
X5628928Y17986358D01*
X5628928Y17814929D01*
X5686071Y17586358D01*
X5743214Y17472072D01*
X5857500Y17357786D01*
X6028928Y17300643D01*
X6314642Y17300643D01*
X4600357Y18100643D02*
X4600357Y17300643D01*
X4886071Y18557786D02*
X5171785Y17700643D01*
X4428928Y17700643D01*
X9800357Y19840643D02*
X9800357Y21040643D01*
X9343214Y21040643D01*
X9228928Y20983500D01*
X9171785Y20926358D01*
X9114642Y20812072D01*
X9114642Y20640643D01*
X9171785Y20526358D01*
X9228928Y20469215D01*
X9343214Y20412072D01*
X9800357Y20412072D01*
X7971785Y20983500D02*
X8086071Y21040643D01*
X8257500Y21040643D01*
X8428928Y20983500D01*
X8543214Y20869215D01*
X8600357Y20754929D01*
X8657500Y20526358D01*
X8657500Y20354929D01*
X8600357Y20126358D01*
X8543214Y20012072D01*
X8428928Y19897786D01*
X8257500Y19840643D01*
X8143214Y19840643D01*
X7971785Y19897786D01*
X7914642Y19954929D01*
X7914642Y20354929D01*
X8143214Y20354929D01*
X7400357Y20469215D02*
X7000357Y20469215D01*
X6828928Y19840643D02*
X7400357Y19840643D01*
X7400357Y21040643D01*
X6828928Y21040643D01*
X5628928Y19954929D02*
X5686071Y19897786D01*
X5857500Y19840643D01*
X5971785Y19840643D01*
X6143214Y19897786D01*
X6257500Y20012072D01*
X6314642Y20126358D01*
X6371785Y20354929D01*
X6371785Y20526358D01*
X6314642Y20754929D01*
X6257500Y20869215D01*
X6143214Y20983500D01*
X5971785Y21040643D01*
X5857500Y21040643D01*
X5686071Y20983500D01*
X5628928Y20926358D01*
X4600357Y20640643D02*
X4600357Y19840643D01*
X4886071Y21097786D02*
X5171785Y20240643D01*
X4428928Y20240643D01*
X9114642Y23009215D02*
X8943214Y22952072D01*
X8886071Y22894929D01*
X8828928Y22780643D01*
X8828928Y22609215D01*
X8886071Y22494929D01*
X8943214Y22437786D01*
X9057500Y22380643D01*
X9514642Y22380643D01*
X9514642Y23580643D01*
X9114642Y23580643D01*
X9000357Y23523500D01*
X8943214Y23466358D01*
X8886071Y23352072D01*
X8886071Y23237786D01*
X8943214Y23123500D01*
X9000357Y23066358D01*
X9114642Y23009215D01*
X9514642Y23009215D01*
X8486071Y23580643D02*
X7800357Y23580643D01*
X8143214Y22380643D02*
X8143214Y23580643D01*
X7400357Y22380643D02*
X7400357Y23580643D01*
X6714642Y22380643D01*
X6714642Y23580643D01*
X6428928Y22266358D02*
X5514642Y22266358D01*
X5228928Y23580643D02*
X5228928Y22609215D01*
X5171785Y22494929D01*
X5114642Y22437786D01*
X5000357Y22380643D01*
X4771785Y22380643D01*
X4657500Y22437786D01*
X4600357Y22494929D01*
X4543214Y22609215D01*
X4543214Y23580643D01*
X6257500Y26120643D02*
X5514642Y26120643D01*
X5914642Y25663500D01*
X5743214Y25663500D01*
X5628928Y25606358D01*
X5571785Y25549215D01*
X5514642Y25434929D01*
X5514642Y25149215D01*
X5571785Y25034929D01*
X5628928Y24977786D01*
X5743214Y24920643D01*
X6086071Y24920643D01*
X6200357Y24977786D01*
X6257500Y25034929D01*
X5171785Y26120643D02*
X4771785Y24920643D01*
X4371785Y26120643D01*
X7457500Y27803500D02*
X6886071Y27803500D01*
X7571785Y27460643D02*
X7171785Y28660643D01*
X6771785Y27460643D01*
X6371785Y27460643D02*
X6371785Y28660643D01*
X5686071Y27460643D01*
X5686071Y28660643D01*
X4943214Y28146358D02*
X5057500Y28203500D01*
X5114642Y28260643D01*
X5171785Y28374929D01*
X5171785Y28432072D01*
X5114642Y28546358D01*
X5057500Y28603500D01*
X4943214Y28660643D01*
X4714642Y28660643D01*
X4600357Y28603500D01*
X4543214Y28546358D01*
X4486071Y28432072D01*
X4486071Y28374929D01*
X4543214Y28260643D01*
X4600357Y28203500D01*
X4714642Y28146358D01*
X4943214Y28146358D01*
X5057500Y28089215D01*
X5114642Y28032072D01*
X5171785Y27917786D01*
X5171785Y27689215D01*
X5114642Y27574929D01*
X5057500Y27517786D01*
X4943214Y27460643D01*
X4714642Y27460643D01*
X4600357Y27517786D01*
X4543214Y27574929D01*
X4486071Y27689215D01*
X4486071Y27917786D01*
X4543214Y28032072D01*
X4600357Y28089215D01*
X4714642Y28146358D01*
X7457500Y30343500D02*
X6886071Y30343500D01*
X7571785Y30000643D02*
X7171785Y31200643D01*
X6771785Y30000643D01*
X6371785Y30000643D02*
X6371785Y31200643D01*
X5686071Y30000643D01*
X5686071Y31200643D01*
X5228928Y31200643D02*
X4428928Y31200643D01*
X4943214Y30000643D01*
X7457500Y32883500D02*
X6886071Y32883500D01*
X7571785Y32540643D02*
X7171785Y33740643D01*
X6771785Y32540643D01*
X6371785Y32540643D02*
X6371785Y33740643D01*
X5686071Y32540643D01*
X5686071Y33740643D01*
X4600357Y33740643D02*
X4828928Y33740643D01*
X4943214Y33683500D01*
X5000357Y33626358D01*
X5114642Y33454929D01*
X5171785Y33226358D01*
X5171785Y32769215D01*
X5114642Y32654929D01*
X5057500Y32597786D01*
X4943214Y32540643D01*
X4714642Y32540643D01*
X4600357Y32597786D01*
X4543214Y32654929D01*
X4486071Y32769215D01*
X4486071Y33054929D01*
X4543214Y33169215D01*
X4600357Y33226358D01*
X4714642Y33283500D01*
X4943214Y33283500D01*
X5057500Y33226358D01*
X5114642Y33169215D01*
X5171785Y33054929D01*
X7457500Y35423500D02*
X6886071Y35423500D01*
X7571785Y35080643D02*
X7171785Y36280643D01*
X6771785Y35080643D01*
X6371785Y35080643D02*
X6371785Y36280643D01*
X5686071Y35080643D01*
X5686071Y36280643D01*
X4543214Y36280643D02*
X5114642Y36280643D01*
X5171785Y35709215D01*
X5114642Y35766358D01*
X5000357Y35823500D01*
X4714642Y35823500D01*
X4600357Y35766358D01*
X4543214Y35709215D01*
X4486071Y35594929D01*
X4486071Y35309215D01*
X4543214Y35194929D01*
X4600357Y35137786D01*
X4714642Y35080643D01*
X5000357Y35080643D01*
X5114642Y35137786D01*
X5171785Y35194929D01*
X7457500Y37963500D02*
X6886071Y37963500D01*
X7571785Y37620643D02*
X7171785Y38820643D01*
X6771785Y37620643D01*
X6371785Y37620643D02*
X6371785Y38820643D01*
X5686071Y37620643D01*
X5686071Y38820643D01*
X4600357Y38420643D02*
X4600357Y37620643D01*
X4886071Y38877786D02*
X5171785Y38020643D01*
X4428928Y38020643D01*
X7457500Y40503500D02*
X6886071Y40503500D01*
X7571785Y40160643D02*
X7171785Y41360643D01*
X6771785Y40160643D01*
X6371785Y40160643D02*
X6371785Y41360643D01*
X5686071Y40160643D01*
X5686071Y41360643D01*
X5228928Y41360643D02*
X4486071Y41360643D01*
X4886071Y40903500D01*
X4714642Y40903500D01*
X4600357Y40846358D01*
X4543214Y40789215D01*
X4486071Y40674929D01*
X4486071Y40389215D01*
X4543214Y40274929D01*
X4600357Y40217786D01*
X4714642Y40160643D01*
X5057500Y40160643D01*
X5171785Y40217786D01*
X5228928Y40274929D01*
X7457500Y43043500D02*
X6886071Y43043500D01*
X7571785Y42700643D02*
X7171785Y43900643D01*
X6771785Y42700643D01*
X6371785Y42700643D02*
X6371785Y43900643D01*
X5686071Y42700643D01*
X5686071Y43900643D01*
X5171785Y43786358D02*
X5114642Y43843500D01*
X5000357Y43900643D01*
X4714642Y43900643D01*
X4600357Y43843500D01*
X4543214Y43786358D01*
X4486071Y43672072D01*
X4486071Y43557786D01*
X4543214Y43386358D01*
X5228928Y42700643D01*
X4486071Y42700643D01*
X7457500Y45583500D02*
X6886071Y45583500D01*
X7571785Y45240643D02*
X7171785Y46440643D01*
X6771785Y45240643D01*
X6371785Y45240643D02*
X6371785Y46440643D01*
X5686071Y45240643D01*
X5686071Y46440643D01*
X4486071Y45240643D02*
X5171785Y45240643D01*
X4828928Y45240643D02*
X4828928Y46440643D01*
X4943214Y46269215D01*
X5057500Y46154929D01*
X5171785Y46097786D01*
X7000357Y51463500D02*
X7114642Y51520643D01*
X7286071Y51520643D01*
X7457500Y51463500D01*
X7571785Y51349215D01*
X7628928Y51234929D01*
X7686071Y51006358D01*
X7686071Y50834929D01*
X7628928Y50606358D01*
X7571785Y50492072D01*
X7457500Y50377786D01*
X7286071Y50320643D01*
X7171785Y50320643D01*
X7000357Y50377786D01*
X6943214Y50434929D01*
X6943214Y50834929D01*
X7171785Y50834929D01*
X6428928Y50320643D02*
X6428928Y51520643D01*
X5743214Y50320643D01*
X5743214Y51520643D01*
X5171785Y50320643D02*
X5171785Y51520643D01*
X4886071Y51520643D01*
X4714642Y51463500D01*
X4600357Y51349215D01*
X4543214Y51234929D01*
X4486071Y51006358D01*
X4486071Y50834929D01*
X4543214Y50606358D01*
X4600357Y50492072D01*
X4714642Y50377786D01*
X4886071Y50320643D01*
X5171785Y50320643D01*
X7457500Y48123500D02*
X6886071Y48123500D01*
X7571785Y47780643D02*
X7171785Y48980643D01*
X6771785Y47780643D01*
X6371785Y47780643D02*
X6371785Y48980643D01*
X5686071Y47780643D01*
X5686071Y48980643D01*
X4886071Y48980643D02*
X4771785Y48980643D01*
X4657500Y48923500D01*
X4600357Y48866358D01*
X4543214Y48752072D01*
X4486071Y48523500D01*
X4486071Y48237786D01*
X4543214Y48009215D01*
X4600357Y47894929D01*
X4657500Y47837786D01*
X4771785Y47780643D01*
X4886071Y47780643D01*
X5000357Y47837786D01*
X5057500Y47894929D01*
X5114642Y48009215D01*
X5171785Y48237786D01*
X5171785Y48523500D01*
X5114642Y48752072D01*
X5057500Y48866358D01*
X5000357Y48923500D01*
X4886071Y48980643D01*
X7000357Y54003500D02*
X7114642Y54060643D01*
X7286071Y54060643D01*
X7457500Y54003500D01*
X7571785Y53889215D01*
X7628928Y53774929D01*
X7686071Y53546358D01*
X7686071Y53374929D01*
X7628928Y53146358D01*
X7571785Y53032072D01*
X7457500Y52917786D01*
X7286071Y52860643D01*
X7171785Y52860643D01*
X7000357Y52917786D01*
X6943214Y52974929D01*
X6943214Y53374929D01*
X7171785Y53374929D01*
X6428928Y52860643D02*
X6428928Y54060643D01*
X5743214Y52860643D01*
X5743214Y54060643D01*
X5171785Y52860643D02*
X5171785Y54060643D01*
X4886071Y54060643D01*
X4714642Y54003500D01*
X4600357Y53889215D01*
X4543214Y53774929D01*
X4486071Y53546358D01*
X4486071Y53374929D01*
X4543214Y53146358D01*
X4600357Y53032072D01*
X4714642Y52917786D01*
X4886071Y52860643D01*
X5171785Y52860643D01*
X6257500Y56600643D02*
X5514642Y56600643D01*
X5914642Y56143500D01*
X5743214Y56143500D01*
X5628928Y56086358D01*
X5571785Y56029215D01*
X5514642Y55914929D01*
X5514642Y55629215D01*
X5571785Y55514929D01*
X5628928Y55457786D01*
X5743214Y55400643D01*
X6086071Y55400643D01*
X6200357Y55457786D01*
X6257500Y55514929D01*
X5171785Y56600643D02*
X4771785Y55400643D01*
X4371785Y56600643D01*
X6257500Y59140643D02*
X5514642Y59140643D01*
X5914642Y58683500D01*
X5743214Y58683500D01*
X5628928Y58626358D01*
X5571785Y58569215D01*
X5514642Y58454929D01*
X5514642Y58169215D01*
X5571785Y58054929D01*
X5628928Y57997786D01*
X5743214Y57940643D01*
X6086071Y57940643D01*
X6200357Y57997786D01*
X6257500Y58054929D01*
X5171785Y59140643D02*
X4771785Y57940643D01*
X4371785Y59140643D01*
X16094285Y10817143D02*
X16094285Y9845715D01*
X16037142Y9731429D01*
X15980000Y9674286D01*
X15865714Y9617143D01*
X15637142Y9617143D01*
X15522857Y9674286D01*
X15465714Y9731429D01*
X15408571Y9845715D01*
X15408571Y10817143D01*
X14894285Y9960000D02*
X14322857Y9960000D01*
X15008571Y9617143D02*
X14608571Y10817143D01*
X14208571Y9617143D01*
X13865714Y10702858D02*
X13808571Y10760000D01*
X13694285Y10817143D01*
X13408571Y10817143D01*
X13294285Y10760000D01*
X13237142Y10702858D01*
X13180000Y10588572D01*
X13180000Y10474286D01*
X13237142Y10302858D01*
X13922857Y9617143D01*
X13180000Y9617143D01*
X12951428Y9502858D02*
X12037142Y9502858D01*
X11922857Y10817143D02*
X11237142Y10817143D01*
X11580000Y9617143D02*
X11580000Y10817143D01*
X16094285Y13357143D02*
X16094285Y12385715D01*
X16037142Y12271429D01*
X15980000Y12214286D01*
X15865714Y12157143D01*
X15637142Y12157143D01*
X15522857Y12214286D01*
X15465714Y12271429D01*
X15408571Y12385715D01*
X15408571Y13357143D01*
X14894285Y12500000D02*
X14322857Y12500000D01*
X15008571Y12157143D02*
X14608571Y13357143D01*
X14208571Y12157143D01*
X13865714Y13242858D02*
X13808571Y13300000D01*
X13694285Y13357143D01*
X13408571Y13357143D01*
X13294285Y13300000D01*
X13237142Y13242858D01*
X13180000Y13128572D01*
X13180000Y13014286D01*
X13237142Y12842858D01*
X13922857Y12157143D01*
X13180000Y12157143D01*
X12951428Y12042858D02*
X12037142Y12042858D01*
X11065714Y12157143D02*
X11465714Y12728572D01*
X11751428Y12157143D02*
X11751428Y13357143D01*
X11294285Y13357143D01*
X11180000Y13300000D01*
X11122857Y13242858D01*
X11065714Y13128572D01*
X11065714Y12957143D01*
X11122857Y12842858D01*
X11180000Y12785715D01*
X11294285Y12728572D01*
X11751428Y12728572D01*
X15465714Y15840000D02*
X15580000Y15897143D01*
X15751428Y15897143D01*
X15922857Y15840000D01*
X16037142Y15725715D01*
X16094285Y15611429D01*
X16151428Y15382858D01*
X16151428Y15211429D01*
X16094285Y14982858D01*
X16037142Y14868572D01*
X15922857Y14754286D01*
X15751428Y14697143D01*
X15637142Y14697143D01*
X15465714Y14754286D01*
X15408571Y14811429D01*
X15408571Y15211429D01*
X15637142Y15211429D01*
X14894285Y14697143D02*
X14894285Y15897143D01*
X14208571Y14697143D01*
X14208571Y15897143D01*
X13637142Y14697143D02*
X13637142Y15897143D01*
X13351428Y15897143D01*
X13180000Y15840000D01*
X13065714Y15725715D01*
X13008571Y15611429D01*
X12951428Y15382858D01*
X12951428Y15211429D01*
X13008571Y14982858D01*
X13065714Y14868572D01*
X13180000Y14754286D01*
X13351428Y14697143D01*
X13637142Y14697143D01*
X16265714Y18437143D02*
X15580000Y18437143D01*
X15922857Y17237143D02*
X15922857Y18437143D01*
X15180000Y17237143D02*
X15180000Y18437143D01*
X14894285Y18437143D01*
X14722857Y18380000D01*
X14608571Y18265715D01*
X14551428Y18151429D01*
X14494285Y17922858D01*
X14494285Y17751429D01*
X14551428Y17522858D01*
X14608571Y17408572D01*
X14722857Y17294286D01*
X14894285Y17237143D01*
X15180000Y17237143D01*
X13751428Y18437143D02*
X13522857Y18437143D01*
X13408571Y18380000D01*
X13294285Y18265715D01*
X13237142Y18037143D01*
X13237142Y17637143D01*
X13294285Y17408572D01*
X13408571Y17294286D01*
X13522857Y17237143D01*
X13751428Y17237143D01*
X13865714Y17294286D01*
X13980000Y17408572D01*
X14037142Y17637143D01*
X14037142Y18037143D01*
X13980000Y18265715D01*
X13865714Y18380000D01*
X13751428Y18437143D01*
X16265714Y20977143D02*
X15580000Y20977143D01*
X15922857Y19777143D02*
X15922857Y20977143D01*
X15180000Y19777143D02*
X15180000Y20977143D01*
X14894285Y20977143D01*
X14722857Y20920000D01*
X14608571Y20805715D01*
X14551428Y20691429D01*
X14494285Y20462858D01*
X14494285Y20291429D01*
X14551428Y20062858D01*
X14608571Y19948572D01*
X14722857Y19834286D01*
X14894285Y19777143D01*
X15180000Y19777143D01*
X13980000Y19777143D02*
X13980000Y20977143D01*
X15522857Y22317143D02*
X16094285Y22317143D01*
X16094285Y23517143D01*
X15122857Y22945715D02*
X14722857Y22945715D01*
X14551428Y22317143D02*
X15122857Y22317143D01*
X15122857Y23517143D01*
X14551428Y23517143D01*
X14037142Y22317143D02*
X14037142Y23517143D01*
X13751428Y23517143D01*
X13580000Y23460000D01*
X13465714Y23345715D01*
X13408571Y23231429D01*
X13351428Y23002858D01*
X13351428Y22831429D01*
X13408571Y22602858D01*
X13465714Y22488572D01*
X13580000Y22374286D01*
X13751428Y22317143D01*
X14037142Y22317143D01*
X13122857Y22202858D02*
X12208571Y22202858D01*
X11922857Y23517143D02*
X11922857Y22545715D01*
X11865714Y22431429D01*
X11808571Y22374286D01*
X11694285Y22317143D01*
X11465714Y22317143D01*
X11351428Y22374286D01*
X11294285Y22431429D01*
X11237142Y22545715D01*
X11237142Y23517143D01*
X16151428Y25200000D02*
X15580000Y25200000D01*
X16265714Y24857143D02*
X15865714Y26057143D01*
X15465714Y24857143D01*
X15065714Y24857143D02*
X15065714Y26057143D01*
X14380000Y24857143D01*
X14380000Y26057143D01*
X13180000Y24857143D02*
X13865714Y24857143D01*
X13522857Y24857143D02*
X13522857Y26057143D01*
X13637142Y25885715D01*
X13751428Y25771429D01*
X13865714Y25714286D01*
X12722857Y25942858D02*
X12665714Y26000000D01*
X12551428Y26057143D01*
X12265714Y26057143D01*
X12151428Y26000000D01*
X12094285Y25942858D01*
X12037142Y25828572D01*
X12037142Y25714286D01*
X12094285Y25542858D01*
X12780000Y24857143D01*
X12037142Y24857143D01*
X16151428Y27740000D02*
X15580000Y27740000D01*
X16265714Y27397143D02*
X15865714Y28597143D01*
X15465714Y27397143D01*
X15065714Y27397143D02*
X15065714Y28597143D01*
X14380000Y27397143D01*
X14380000Y28597143D01*
X13751428Y27397143D02*
X13522857Y27397143D01*
X13408571Y27454286D01*
X13351428Y27511429D01*
X13237142Y27682858D01*
X13180000Y27911429D01*
X13180000Y28368572D01*
X13237142Y28482858D01*
X13294285Y28540000D01*
X13408571Y28597143D01*
X13637142Y28597143D01*
X13751428Y28540000D01*
X13808571Y28482858D01*
X13865714Y28368572D01*
X13865714Y28082858D01*
X13808571Y27968572D01*
X13751428Y27911429D01*
X13637142Y27854286D01*
X13408571Y27854286D01*
X13294285Y27911429D01*
X13237142Y27968572D01*
X13180000Y28082858D01*
X16151428Y29994286D02*
X15980000Y29937143D01*
X15694285Y29937143D01*
X15580000Y29994286D01*
X15522857Y30051429D01*
X15465714Y30165715D01*
X15465714Y30280000D01*
X15522857Y30394286D01*
X15580000Y30451429D01*
X15694285Y30508572D01*
X15922857Y30565715D01*
X16037142Y30622858D01*
X16094285Y30680000D01*
X16151428Y30794286D01*
X16151428Y30908572D01*
X16094285Y31022858D01*
X16037142Y31080000D01*
X15922857Y31137143D01*
X15637142Y31137143D01*
X15465714Y31080000D01*
X14265714Y30051429D02*
X14322857Y29994286D01*
X14494285Y29937143D01*
X14608571Y29937143D01*
X14780000Y29994286D01*
X14894285Y30108572D01*
X14951428Y30222858D01*
X15008571Y30451429D01*
X15008571Y30622858D01*
X14951428Y30851429D01*
X14894285Y30965715D01*
X14780000Y31080000D01*
X14608571Y31137143D01*
X14494285Y31137143D01*
X14322857Y31080000D01*
X14265714Y31022858D01*
X13180000Y29937143D02*
X13751428Y29937143D01*
X13751428Y31137143D01*
X12151428Y29937143D02*
X12837142Y29937143D01*
X12494285Y29937143D02*
X12494285Y31137143D01*
X12608571Y30965715D01*
X12722857Y30851429D01*
X12837142Y30794286D01*
X16151428Y32534286D02*
X15980000Y32477143D01*
X15694285Y32477143D01*
X15580000Y32534286D01*
X15522857Y32591429D01*
X15465714Y32705715D01*
X15465714Y32820000D01*
X15522857Y32934286D01*
X15580000Y32991429D01*
X15694285Y33048572D01*
X15922857Y33105715D01*
X16037142Y33162858D01*
X16094285Y33220000D01*
X16151428Y33334286D01*
X16151428Y33448572D01*
X16094285Y33562858D01*
X16037142Y33620000D01*
X15922857Y33677143D01*
X15637142Y33677143D01*
X15465714Y33620000D01*
X14951428Y32477143D02*
X14951428Y33677143D01*
X14665714Y33677143D01*
X14494285Y33620000D01*
X14380000Y33505715D01*
X14322857Y33391429D01*
X14265714Y33162858D01*
X14265714Y32991429D01*
X14322857Y32762858D01*
X14380000Y32648572D01*
X14494285Y32534286D01*
X14665714Y32477143D01*
X14951428Y32477143D01*
X13808571Y32820000D02*
X13237142Y32820000D01*
X13922857Y32477143D02*
X13522857Y33677143D01*
X13122857Y32477143D01*
X12094285Y32477143D02*
X12780000Y32477143D01*
X12437142Y32477143D02*
X12437142Y33677143D01*
X12551428Y33505715D01*
X12665714Y33391429D01*
X12780000Y33334286D01*
X16094285Y36217143D02*
X16094285Y35245715D01*
X16037142Y35131429D01*
X15980000Y35074286D01*
X15865714Y35017143D01*
X15637142Y35017143D01*
X15522857Y35074286D01*
X15465714Y35131429D01*
X15408571Y35245715D01*
X15408571Y36217143D01*
X14894285Y35360000D02*
X14322857Y35360000D01*
X15008571Y35017143D02*
X14608571Y36217143D01*
X14208571Y35017143D01*
X13180000Y35017143D02*
X13865714Y35017143D01*
X13522857Y35017143D02*
X13522857Y36217143D01*
X13637142Y36045715D01*
X13751428Y35931429D01*
X13865714Y35874286D01*
X12951428Y34902858D02*
X12037142Y34902858D01*
X11065714Y35017143D02*
X11465714Y35588572D01*
X11751428Y35017143D02*
X11751428Y36217143D01*
X11294285Y36217143D01*
X11180000Y36160000D01*
X11122857Y36102858D01*
X11065714Y35988572D01*
X11065714Y35817143D01*
X11122857Y35702858D01*
X11180000Y35645715D01*
X11294285Y35588572D01*
X11751428Y35588572D01*
X16094285Y38757143D02*
X16094285Y37785715D01*
X16037142Y37671429D01*
X15980000Y37614286D01*
X15865714Y37557143D01*
X15637142Y37557143D01*
X15522857Y37614286D01*
X15465714Y37671429D01*
X15408571Y37785715D01*
X15408571Y38757143D01*
X14894285Y37900000D02*
X14322857Y37900000D01*
X15008571Y37557143D02*
X14608571Y38757143D01*
X14208571Y37557143D01*
X13180000Y37557143D02*
X13865714Y37557143D01*
X13522857Y37557143D02*
X13522857Y38757143D01*
X13637142Y38585715D01*
X13751428Y38471429D01*
X13865714Y38414286D01*
X12951428Y37442858D02*
X12037142Y37442858D01*
X11922857Y38757143D02*
X11237142Y38757143D01*
X11580000Y37557143D02*
X11580000Y38757143D01*
X16151428Y40154286D02*
X15980000Y40097143D01*
X15694285Y40097143D01*
X15580000Y40154286D01*
X15522857Y40211429D01*
X15465714Y40325715D01*
X15465714Y40440000D01*
X15522857Y40554286D01*
X15580000Y40611429D01*
X15694285Y40668572D01*
X15922857Y40725715D01*
X16037142Y40782858D01*
X16094285Y40840000D01*
X16151428Y40954286D01*
X16151428Y41068572D01*
X16094285Y41182858D01*
X16037142Y41240000D01*
X15922857Y41297143D01*
X15637142Y41297143D01*
X15465714Y41240000D01*
X14265714Y40211429D02*
X14322857Y40154286D01*
X14494285Y40097143D01*
X14608571Y40097143D01*
X14780000Y40154286D01*
X14894285Y40268572D01*
X14951428Y40382858D01*
X15008571Y40611429D01*
X15008571Y40782858D01*
X14951428Y41011429D01*
X14894285Y41125715D01*
X14780000Y41240000D01*
X14608571Y41297143D01*
X14494285Y41297143D01*
X14322857Y41240000D01*
X14265714Y41182858D01*
X13751428Y40097143D02*
X13751428Y41297143D01*
X13065714Y40097143D02*
X13580000Y40782858D01*
X13065714Y41297143D02*
X13751428Y40611429D01*
X11922857Y40097143D02*
X12608571Y40097143D01*
X12265714Y40097143D02*
X12265714Y41297143D01*
X12380000Y41125715D01*
X12494285Y41011429D01*
X12608571Y40954286D01*
X16151428Y42694286D02*
X15980000Y42637143D01*
X15694285Y42637143D01*
X15580000Y42694286D01*
X15522857Y42751429D01*
X15465714Y42865715D01*
X15465714Y42980000D01*
X15522857Y43094286D01*
X15580000Y43151429D01*
X15694285Y43208572D01*
X15922857Y43265715D01*
X16037142Y43322858D01*
X16094285Y43380000D01*
X16151428Y43494286D01*
X16151428Y43608572D01*
X16094285Y43722858D01*
X16037142Y43780000D01*
X15922857Y43837143D01*
X15637142Y43837143D01*
X15465714Y43780000D01*
X14951428Y42637143D02*
X14951428Y43837143D01*
X14665714Y43837143D01*
X14494285Y43780000D01*
X14380000Y43665715D01*
X14322857Y43551429D01*
X14265714Y43322858D01*
X14265714Y43151429D01*
X14322857Y42922858D01*
X14380000Y42808572D01*
X14494285Y42694286D01*
X14665714Y42637143D01*
X14951428Y42637143D01*
X13522857Y43837143D02*
X13294285Y43837143D01*
X13180000Y43780000D01*
X13065714Y43665715D01*
X13008571Y43437143D01*
X13008571Y43037143D01*
X13065714Y42808572D01*
X13180000Y42694286D01*
X13294285Y42637143D01*
X13522857Y42637143D01*
X13637142Y42694286D01*
X13751428Y42808572D01*
X13808571Y43037143D01*
X13808571Y43437143D01*
X13751428Y43665715D01*
X13637142Y43780000D01*
X13522857Y43837143D01*
X11865714Y42637143D02*
X12551428Y42637143D01*
X12208571Y42637143D02*
X12208571Y43837143D01*
X12322857Y43665715D01*
X12437142Y43551429D01*
X12551428Y43494286D01*
X16176828Y45234286D02*
X16005400Y45177143D01*
X15719685Y45177143D01*
X15605400Y45234286D01*
X15548257Y45291429D01*
X15491114Y45405715D01*
X15491114Y45520000D01*
X15548257Y45634286D01*
X15605400Y45691429D01*
X15719685Y45748572D01*
X15948257Y45805715D01*
X16062542Y45862858D01*
X16119685Y45920000D01*
X16176828Y46034286D01*
X16176828Y46148572D01*
X16119685Y46262858D01*
X16062542Y46320000D01*
X15948257Y46377143D01*
X15662542Y46377143D01*
X15491114Y46320000D01*
X14976828Y45177143D02*
X14976828Y46377143D01*
X14691114Y46377143D01*
X14519685Y46320000D01*
X14405400Y46205715D01*
X14348257Y46091429D01*
X14291114Y45862858D01*
X14291114Y45691429D01*
X14348257Y45462858D01*
X14405400Y45348572D01*
X14519685Y45234286D01*
X14691114Y45177143D01*
X14976828Y45177143D01*
X13776828Y45177143D02*
X13776828Y46377143D01*
X12576828Y45177143D02*
X13262542Y45177143D01*
X12919685Y45177143D02*
X12919685Y46377143D01*
X13033971Y46205715D01*
X13148257Y46091429D01*
X13262542Y46034286D01*
X15408571Y47717143D02*
X15808571Y48288572D01*
X16094285Y47717143D02*
X16094285Y48917143D01*
X15637142Y48917143D01*
X15522857Y48860000D01*
X15465714Y48802858D01*
X15408571Y48688572D01*
X15408571Y48517143D01*
X15465714Y48402858D01*
X15522857Y48345715D01*
X15637142Y48288572D01*
X16094285Y48288572D01*
X14494285Y48345715D02*
X14322857Y48288572D01*
X14265714Y48231429D01*
X14208571Y48117143D01*
X14208571Y47945715D01*
X14265714Y47831429D01*
X14322857Y47774286D01*
X14437142Y47717143D01*
X14894285Y47717143D01*
X14894285Y48917143D01*
X14494285Y48917143D01*
X14380000Y48860000D01*
X14322857Y48802858D01*
X14265714Y48688572D01*
X14265714Y48574286D01*
X14322857Y48460000D01*
X14380000Y48402858D01*
X14494285Y48345715D01*
X14894285Y48345715D01*
X13808571Y48917143D02*
X13008571Y48917143D01*
X13522857Y47717143D01*
X15408571Y50257143D02*
X15808571Y50828572D01*
X16094285Y50257143D02*
X16094285Y51457143D01*
X15637142Y51457143D01*
X15522857Y51400000D01*
X15465714Y51342858D01*
X15408571Y51228572D01*
X15408571Y51057143D01*
X15465714Y50942858D01*
X15522857Y50885715D01*
X15637142Y50828572D01*
X16094285Y50828572D01*
X14494285Y50885715D02*
X14322857Y50828572D01*
X14265714Y50771429D01*
X14208571Y50657143D01*
X14208571Y50485715D01*
X14265714Y50371429D01*
X14322857Y50314286D01*
X14437142Y50257143D01*
X14894285Y50257143D01*
X14894285Y51457143D01*
X14494285Y51457143D01*
X14380000Y51400000D01*
X14322857Y51342858D01*
X14265714Y51228572D01*
X14265714Y51114286D01*
X14322857Y51000000D01*
X14380000Y50942858D01*
X14494285Y50885715D01*
X14894285Y50885715D01*
X13065714Y50257143D02*
X13751428Y50257143D01*
X13408571Y50257143D02*
X13408571Y51457143D01*
X13522857Y51285715D01*
X13637142Y51171429D01*
X13751428Y51114286D01*
X12322857Y51457143D02*
X12208571Y51457143D01*
X12094285Y51400000D01*
X12037142Y51342858D01*
X11980000Y51228572D01*
X11922857Y51000000D01*
X11922857Y50714286D01*
X11980000Y50485715D01*
X12037142Y50371429D01*
X12094285Y50314286D01*
X12208571Y50257143D01*
X12322857Y50257143D01*
X12437142Y50314286D01*
X12494285Y50371429D01*
X12551428Y50485715D01*
X12608571Y50714286D01*
X12608571Y51000000D01*
X12551428Y51228572D01*
X12494285Y51342858D01*
X12437142Y51400000D01*
X12322857Y51457143D01*
X15408571Y52797143D02*
X15808571Y53368572D01*
X16094285Y52797143D02*
X16094285Y53997143D01*
X15637142Y53997143D01*
X15522857Y53940000D01*
X15465714Y53882858D01*
X15408571Y53768572D01*
X15408571Y53597143D01*
X15465714Y53482858D01*
X15522857Y53425715D01*
X15637142Y53368572D01*
X16094285Y53368572D01*
X14494285Y53425715D02*
X14322857Y53368572D01*
X14265714Y53311429D01*
X14208571Y53197143D01*
X14208571Y53025715D01*
X14265714Y52911429D01*
X14322857Y52854286D01*
X14437142Y52797143D01*
X14894285Y52797143D01*
X14894285Y53997143D01*
X14494285Y53997143D01*
X14380000Y53940000D01*
X14322857Y53882858D01*
X14265714Y53768572D01*
X14265714Y53654286D01*
X14322857Y53540000D01*
X14380000Y53482858D01*
X14494285Y53425715D01*
X14894285Y53425715D01*
X13065714Y52797143D02*
X13751428Y52797143D01*
X13408571Y52797143D02*
X13408571Y53997143D01*
X13522857Y53825715D01*
X13637142Y53711429D01*
X13751428Y53654286D01*
X11922857Y52797143D02*
X12608571Y52797143D01*
X12265714Y52797143D02*
X12265714Y53997143D01*
X12380000Y53825715D01*
X12494285Y53711429D01*
X12608571Y53654286D01*
X15465714Y56480000D02*
X15580000Y56537143D01*
X15751428Y56537143D01*
X15922857Y56480000D01*
X16037142Y56365715D01*
X16094285Y56251429D01*
X16151428Y56022858D01*
X16151428Y55851429D01*
X16094285Y55622858D01*
X16037142Y55508572D01*
X15922857Y55394286D01*
X15751428Y55337143D01*
X15637142Y55337143D01*
X15465714Y55394286D01*
X15408571Y55451429D01*
X15408571Y55851429D01*
X15637142Y55851429D01*
X14894285Y55337143D02*
X14894285Y56537143D01*
X14208571Y55337143D01*
X14208571Y56537143D01*
X13637142Y55337143D02*
X13637142Y56537143D01*
X13351428Y56537143D01*
X13180000Y56480000D01*
X13065714Y56365715D01*
X13008571Y56251429D01*
X12951428Y56022858D01*
X12951428Y55851429D01*
X13008571Y55622858D01*
X13065714Y55508572D01*
X13180000Y55394286D01*
X13351428Y55337143D01*
X13637142Y55337143D01*
X15522857Y59077143D02*
X16094285Y59077143D01*
X16151428Y58505715D01*
X16094285Y58562858D01*
X15980000Y58620000D01*
X15694285Y58620000D01*
X15580000Y58562858D01*
X15522857Y58505715D01*
X15465714Y58391429D01*
X15465714Y58105715D01*
X15522857Y57991429D01*
X15580000Y57934286D01*
X15694285Y57877143D01*
X15980000Y57877143D01*
X16094285Y57934286D01*
X16151428Y57991429D01*
X15122857Y59077143D02*
X14722857Y57877143D01*
X14322857Y59077143D01*
D11*
X10731428Y58094120D02*
X11064761Y58570310D01*
X11302857Y58094120D02*
X11302857Y59094120D01*
X10921904Y59094120D01*
X10826666Y59046500D01*
X10779047Y58998881D01*
X10731428Y58903643D01*
X10731428Y58760786D01*
X10779047Y58665548D01*
X10826666Y58617929D01*
X10921904Y58570310D01*
X11302857Y58570310D01*
X9921904Y58141739D02*
X10017142Y58094120D01*
X10207619Y58094120D01*
X10302857Y58141739D01*
X10350476Y58236977D01*
X10350476Y58617929D01*
X10302857Y58713167D01*
X10207619Y58760786D01*
X10017142Y58760786D01*
X9921904Y58713167D01*
X9874285Y58617929D01*
X9874285Y58522691D01*
X10350476Y58427453D01*
X9017142Y58094120D02*
X9017142Y59094120D01*
X9017142Y58141739D02*
X9112380Y58094120D01*
X9302857Y58094120D01*
X9398095Y58141739D01*
X9445714Y58189358D01*
X9493333Y58284596D01*
X9493333Y58570310D01*
X9445714Y58665548D01*
X9398095Y58713167D01*
X9302857Y58760786D01*
X9112380Y58760786D01*
X9017142Y58713167D01*
X10874285Y56967929D02*
X11207619Y56967929D01*
X11207619Y56444120D02*
X11207619Y57444120D01*
X10731428Y57444120D01*
X10207619Y56444120D02*
X10302857Y56491739D01*
X10350476Y56539358D01*
X10398095Y56634596D01*
X10398095Y56920310D01*
X10350476Y57015548D01*
X10302857Y57063167D01*
X10207619Y57110786D01*
X10064761Y57110786D01*
X9969523Y57063167D01*
X9921904Y57015548D01*
X9874285Y56920310D01*
X9874285Y56634596D01*
X9921904Y56539358D01*
X9969523Y56491739D01*
X10064761Y56444120D01*
X10207619Y56444120D01*
X9540952Y56444120D02*
X9017142Y57110786D01*
X9540952Y57110786D02*
X9017142Y56444120D01*
D12*
X11136190Y53459120D02*
X11469523Y53935310D01*
X11707619Y53459120D02*
X11707619Y54459120D01*
X11326666Y54459120D01*
X11231428Y54411500D01*
X11183809Y54363881D01*
X11136190Y54268643D01*
X11136190Y54125786D01*
X11183809Y54030548D01*
X11231428Y53982929D01*
X11326666Y53935310D01*
X11707619Y53935310D01*
X10326666Y53506739D02*
X10421904Y53459120D01*
X10612380Y53459120D01*
X10707619Y53506739D01*
X10755238Y53601977D01*
X10755238Y53982929D01*
X10707619Y54078167D01*
X10612380Y54125786D01*
X10421904Y54125786D01*
X10326666Y54078167D01*
X10279047Y53982929D01*
X10279047Y53887691D01*
X10755238Y53792453D01*
X9945714Y54125786D02*
X9707619Y53459120D01*
X9469523Y54125786D01*
X9136190Y54363881D02*
X9088571Y54411500D01*
X8993333Y54459120D01*
X8755238Y54459120D01*
X8660000Y54411500D01*
X8612380Y54363881D01*
X8564761Y54268643D01*
X8564761Y54173405D01*
X8612380Y54030548D01*
X9183809Y53459120D01*
X8564761Y53459120D01*
D13*
G36*
X11433759Y27042316D02*
G01*
X11407247Y27029218D01*
X11374553Y27006394D01*
X11350725Y26981504D01*
X11334406Y26950251D01*
X11324240Y26908334D01*
X11318872Y26851456D01*
X11316944Y26775316D01*
X11316831Y26742583D01*
X11317161Y26670844D01*
X11318527Y26619573D01*
X11321500Y26584096D01*
X11326649Y26559737D01*
X11334543Y26541820D01*
X11342757Y26529598D01*
X11395187Y26477595D01*
X11456930Y26446316D01*
X11523536Y26436908D01*
X11590558Y26450520D01*
X11611792Y26460146D01*
X11662624Y26486641D01*
X11662624Y26071448D01*
X11625525Y26090632D01*
X11576643Y26105475D01*
X11516561Y26109278D01*
X11456564Y26102257D01*
X11411256Y26086487D01*
X11373675Y26056453D01*
X11341564Y26013476D01*
X11339150Y26009064D01*
X11328967Y25988279D01*
X11321530Y25967330D01*
X11316411Y25941952D01*
X11313181Y25907882D01*
X11311413Y25860859D01*
X11310677Y25796618D01*
X11310544Y25724324D01*
X11310544Y25493678D01*
X11448861Y25493678D01*
X11448861Y25918967D01*
X11487549Y25951521D01*
X11527738Y25977560D01*
X11565797Y25982295D01*
X11604066Y25970111D01*
X11624462Y25958180D01*
X11639642Y25941187D01*
X11650438Y25915505D01*
X11657683Y25877509D01*
X11662208Y25823574D01*
X11664844Y25750075D01*
X11665772Y25701153D01*
X11668911Y25499965D01*
X11734926Y25496164D01*
X11800940Y25492364D01*
X11800940Y26740850D01*
X11662624Y26740850D01*
X11659097Y26671246D01*
X11647215Y26622931D01*
X11625020Y26592869D01*
X11590559Y26578029D01*
X11555742Y26575064D01*
X11516329Y26578472D01*
X11490171Y26591883D01*
X11473814Y26609604D01*
X11460937Y26628665D01*
X11453272Y26649899D01*
X11449861Y26679651D01*
X11449749Y26724264D01*
X11450897Y26761620D01*
X11453532Y26817896D01*
X11457456Y26854842D01*
X11464063Y26878277D01*
X11474749Y26894020D01*
X11484833Y26903120D01*
X11526970Y26922963D01*
X11576840Y26926168D01*
X11605476Y26919332D01*
X11633828Y26895036D01*
X11652609Y26847772D01*
X11661712Y26777876D01*
X11662624Y26740850D01*
X11800940Y26740850D01*
X11800940Y27052886D01*
X11731782Y27052886D01*
X11690260Y27051244D01*
X11668838Y27045413D01*
X11662626Y27034039D01*
X11662624Y27033702D01*
X11659742Y27022562D01*
X11647030Y27023827D01*
X11621757Y27036067D01*
X11562869Y27054793D01*
X11496615Y27056761D01*
X11433759Y27042316D01*
G37*
X11433759Y27042316D02*
X11407247Y27029218D01*
X11374553Y27006394D01*
X11350725Y26981504D01*
X11334406Y26950251D01*
X11324240Y26908334D01*
X11318872Y26851456D01*
X11316944Y26775316D01*
X11316831Y26742583D01*
X11317161Y26670844D01*
X11318527Y26619573D01*
X11321500Y26584096D01*
X11326649Y26559737D01*
X11334543Y26541820D01*
X11342757Y26529598D01*
X11395187Y26477595D01*
X11456930Y26446316D01*
X11523536Y26436908D01*
X11590558Y26450520D01*
X11611792Y26460146D01*
X11662624Y26486641D01*
X11662624Y26071448D01*
X11625525Y26090632D01*
X11576643Y26105475D01*
X11516561Y26109278D01*
X11456564Y26102257D01*
X11411256Y26086487D01*
X11373675Y26056453D01*
X11341564Y26013476D01*
X11339150Y26009064D01*
X11328967Y25988279D01*
X11321530Y25967330D01*
X11316411Y25941952D01*
X11313181Y25907882D01*
X11311413Y25860859D01*
X11310677Y25796618D01*
X11310544Y25724324D01*
X11310544Y25493678D01*
X11448861Y25493678D01*
X11448861Y25918967D01*
X11487549Y25951521D01*
X11527738Y25977560D01*
X11565797Y25982295D01*
X11604066Y25970111D01*
X11624462Y25958180D01*
X11639642Y25941187D01*
X11650438Y25915505D01*
X11657683Y25877509D01*
X11662208Y25823574D01*
X11664844Y25750075D01*
X11665772Y25701153D01*
X11668911Y25499965D01*
X11734926Y25496164D01*
X11800940Y25492364D01*
X11800940Y26740850D01*
X11662624Y26740850D01*
X11659097Y26671246D01*
X11647215Y26622931D01*
X11625020Y26592869D01*
X11590559Y26578029D01*
X11555742Y26575064D01*
X11516329Y26578472D01*
X11490171Y26591883D01*
X11473814Y26609604D01*
X11460937Y26628665D01*
X11453272Y26649899D01*
X11449861Y26679651D01*
X11449749Y26724264D01*
X11450897Y26761620D01*
X11453532Y26817896D01*
X11457456Y26854842D01*
X11464063Y26878277D01*
X11474749Y26894020D01*
X11484833Y26903120D01*
X11526970Y26922963D01*
X11576840Y26926168D01*
X11605476Y26919332D01*
X11633828Y26895036D01*
X11652609Y26847772D01*
X11661712Y26777876D01*
X11662624Y26740850D01*
X11800940Y26740850D01*
X11800940Y27052886D01*
X11731782Y27052886D01*
X11690260Y27051244D01*
X11668838Y27045413D01*
X11662626Y27034039D01*
X11662624Y27033702D01*
X11659742Y27022562D01*
X11647030Y27023827D01*
X11621757Y27036067D01*
X11562869Y27054793D01*
X11496615Y27056761D01*
X11433759Y27042316D01*
G36*
X10909210Y26104945D02*
G01*
X10850055Y26089161D01*
X10805023Y26060552D01*
X10773246Y26023081D01*
X10763366Y26007089D01*
X10756073Y25990337D01*
X10750974Y25968908D01*
X10747679Y25938884D01*
X10745797Y25896346D01*
X10744937Y25837378D01*
X10744707Y25758060D01*
X10744703Y25737016D01*
X10744703Y25493678D01*
X10805059Y25493678D01*
X10843557Y25496374D01*
X10872023Y25503205D01*
X10879155Y25507417D01*
X10898652Y25514687D01*
X10918566Y25507417D01*
X10951353Y25498340D01*
X10998978Y25494687D01*
X11051764Y25496272D01*
X11100036Y25502911D01*
X11128218Y25511428D01*
X11182753Y25546437D01*
X11216835Y25595021D01*
X11232157Y25659618D01*
X11232299Y25661277D01*
X11230955Y25689934D01*
X11109356Y25689934D01*
X11098726Y25657339D01*
X11081410Y25638995D01*
X11046652Y25625121D01*
X11000773Y25619583D01*
X10953988Y25622309D01*
X10916514Y25633226D01*
X10906015Y25640231D01*
X10887668Y25672596D01*
X10883020Y25709389D01*
X10883020Y25757737D01*
X10952582Y25757737D01*
X11018667Y25752650D01*
X11068764Y25738237D01*
X11099929Y25715771D01*
X11109356Y25689934D01*
X11230955Y25689934D01*
X11228987Y25731853D01*
X11205710Y25787655D01*
X11161948Y25829853D01*
X11155899Y25833692D01*
X11129907Y25846191D01*
X11097735Y25853760D01*
X11052760Y25857439D01*
X10999331Y25858284D01*
X10883020Y25858331D01*
X10883020Y25907089D01*
X10887953Y25944919D01*
X10900543Y25970264D01*
X10902017Y25971613D01*
X10930034Y25982700D01*
X10972326Y25986997D01*
X11019064Y25984885D01*
X11060418Y25976744D01*
X11084957Y25964535D01*
X11098253Y25954754D01*
X11112294Y25952887D01*
X11131671Y25960900D01*
X11160976Y25980761D01*
X11204803Y26014437D01*
X11208825Y26017591D01*
X11206764Y26029264D01*
X11189568Y26048678D01*
X11163433Y26070252D01*
X11134552Y26088404D01*
X11125478Y26092691D01*
X11092380Y26101244D01*
X11043880Y26107345D01*
X10989695Y26109792D01*
X10987161Y26109797D01*
X10909210Y26104945D01*
G37*
X10909210Y26104945D02*
X10850055Y26089161D01*
X10805023Y26060552D01*
X10773246Y26023081D01*
X10763366Y26007089D01*
X10756073Y25990337D01*
X10750974Y25968908D01*
X10747679Y25938884D01*
X10745797Y25896346D01*
X10744937Y25837378D01*
X10744707Y25758060D01*
X10744703Y25737016D01*
X10744703Y25493678D01*
X10805059Y25493678D01*
X10843557Y25496374D01*
X10872023Y25503205D01*
X10879155Y25507417D01*
X10898652Y25514687D01*
X10918566Y25507417D01*
X10951353Y25498340D01*
X10998978Y25494687D01*
X11051764Y25496272D01*
X11100036Y25502911D01*
X11128218Y25511428D01*
X11182753Y25546437D01*
X11216835Y25595021D01*
X11232157Y25659618D01*
X11232299Y25661277D01*
X11230955Y25689934D01*
X11109356Y25689934D01*
X11098726Y25657339D01*
X11081410Y25638995D01*
X11046652Y25625121D01*
X11000773Y25619583D01*
X10953988Y25622309D01*
X10916514Y25633226D01*
X10906015Y25640231D01*
X10887668Y25672596D01*
X10883020Y25709389D01*
X10883020Y25757737D01*
X10952582Y25757737D01*
X11018667Y25752650D01*
X11068764Y25738237D01*
X11099929Y25715771D01*
X11109356Y25689934D01*
X11230955Y25689934D01*
X11228987Y25731853D01*
X11205710Y25787655D01*
X11161948Y25829853D01*
X11155899Y25833692D01*
X11129907Y25846191D01*
X11097735Y25853760D01*
X11052760Y25857439D01*
X10999331Y25858284D01*
X10883020Y25858331D01*
X10883020Y25907089D01*
X10887953Y25944919D01*
X10900543Y25970264D01*
X10902017Y25971613D01*
X10930034Y25982700D01*
X10972326Y25986997D01*
X11019064Y25984885D01*
X11060418Y25976744D01*
X11084957Y25964535D01*
X11098253Y25954754D01*
X11112294Y25952887D01*
X11131671Y25960900D01*
X11160976Y25980761D01*
X11204803Y26014437D01*
X11208825Y26017591D01*
X11206764Y26029264D01*
X11189568Y26048678D01*
X11163433Y26070252D01*
X11134552Y26088404D01*
X11125478Y26092691D01*
X11092380Y26101244D01*
X11043880Y26107345D01*
X10989695Y26109792D01*
X10987161Y26109797D01*
X10909210Y26104945D01*
G36*
X10518356Y26108480D02*
G01*
X10499539Y26102840D01*
X10493473Y26090447D01*
X10493218Y26084853D01*
X10492129Y26069270D01*
X10484632Y26066824D01*
X10464381Y26077507D01*
X10452351Y26084806D01*
X10414400Y26100437D01*
X10369072Y26108166D01*
X10321544Y26108760D01*
X10276995Y26102987D01*
X10240602Y26091616D01*
X10217543Y26075412D01*
X10212996Y26055145D01*
X10215291Y26049657D01*
X10232020Y26026874D01*
X10257963Y25998853D01*
X10262655Y25994323D01*
X10287383Y25973495D01*
X10308718Y25966765D01*
X10338555Y25971462D01*
X10350508Y25974583D01*
X10387705Y25982079D01*
X10413859Y25978708D01*
X10435946Y25966819D01*
X10456178Y25950865D01*
X10471079Y25930800D01*
X10481434Y25902798D01*
X10488029Y25863033D01*
X10491649Y25807677D01*
X10493078Y25732906D01*
X10493218Y25687760D01*
X10493218Y25493678D01*
X10618960Y25493678D01*
X10618960Y26109817D01*
X10556089Y26109817D01*
X10518356Y26108480D01*
G37*
X10518356Y26108480D02*
X10499539Y26102840D01*
X10493473Y26090447D01*
X10493218Y26084853D01*
X10492129Y26069270D01*
X10484632Y26066824D01*
X10464381Y26077507D01*
X10452351Y26084806D01*
X10414400Y26100437D01*
X10369072Y26108166D01*
X10321544Y26108760D01*
X10276995Y26102987D01*
X10240602Y26091616D01*
X10217543Y26075412D01*
X10212996Y26055145D01*
X10215291Y26049657D01*
X10232020Y26026874D01*
X10257963Y25998853D01*
X10262655Y25994323D01*
X10287383Y25973495D01*
X10308718Y25966765D01*
X10338555Y25971462D01*
X10350508Y25974583D01*
X10387705Y25982079D01*
X10413859Y25978708D01*
X10435946Y25966819D01*
X10456178Y25950865D01*
X10471079Y25930800D01*
X10481434Y25902798D01*
X10488029Y25863033D01*
X10491649Y25807677D01*
X10493078Y25732906D01*
X10493218Y25687760D01*
X10493218Y25493678D01*
X10618960Y25493678D01*
X10618960Y26109817D01*
X10556089Y26109817D01*
X10518356Y26108480D01*
G36*
X9726188Y25493678D02*
G01*
X9795346Y25493678D01*
X9835488Y25494855D01*
X9856394Y25499728D01*
X9863922Y25510314D01*
X9864505Y25517471D01*
X9865774Y25531824D01*
X9873779Y25534577D01*
X9894815Y25525729D01*
X9911173Y25517471D01*
X9973977Y25497903D01*
X10042248Y25496771D01*
X10097752Y25511365D01*
X10149438Y25546623D01*
X10188838Y25598665D01*
X10210413Y25660050D01*
X10210962Y25663482D01*
X10214167Y25700929D01*
X10215761Y25754687D01*
X10215633Y25795345D01*
X10078279Y25795345D01*
X10075097Y25741306D01*
X10067859Y25696765D01*
X10058060Y25671612D01*
X10020989Y25637240D01*
X9976974Y25624918D01*
X9931584Y25634882D01*
X9892797Y25664605D01*
X9878108Y25684595D01*
X9869519Y25708450D01*
X9865496Y25743270D01*
X9864505Y25795570D01*
X9866278Y25847361D01*
X9870963Y25892866D01*
X9877603Y25923319D01*
X9878710Y25926048D01*
X9905491Y25958500D01*
X9944579Y25976317D01*
X9988315Y25979194D01*
X10029038Y25966826D01*
X10059087Y25938907D01*
X10062204Y25933352D01*
X10071961Y25899478D01*
X10077277Y25850772D01*
X10078279Y25795345D01*
X10215633Y25795345D01*
X10215568Y25815960D01*
X10214664Y25848937D01*
X10208514Y25930519D01*
X10195733Y25991770D01*
X10174471Y26037051D01*
X10142878Y26070721D01*
X10112207Y26090486D01*
X10069354Y26104380D01*
X10016056Y26109146D01*
X9961480Y26105264D01*
X9914792Y26093218D01*
X9890124Y26078807D01*
X9864505Y26055622D01*
X9864505Y26348727D01*
X9726188Y26348727D01*
X9726188Y25493678D01*
G37*
X9726188Y25493678D02*
X9795346Y25493678D01*
X9835488Y25494855D01*
X9856394Y25499728D01*
X9863922Y25510314D01*
X9864505Y25517471D01*
X9865774Y25531824D01*
X9873779Y25534577D01*
X9894815Y25525729D01*
X9911173Y25517471D01*
X9973977Y25497903D01*
X10042248Y25496771D01*
X10097752Y25511365D01*
X10149438Y25546623D01*
X10188838Y25598665D01*
X10210413Y25660050D01*
X10210962Y25663482D01*
X10214167Y25700929D01*
X10215761Y25754687D01*
X10215633Y25795345D01*
X10078279Y25795345D01*
X10075097Y25741306D01*
X10067859Y25696765D01*
X10058060Y25671612D01*
X10020989Y25637240D01*
X9976974Y25624918D01*
X9931584Y25634882D01*
X9892797Y25664605D01*
X9878108Y25684595D01*
X9869519Y25708450D01*
X9865496Y25743270D01*
X9864505Y25795570D01*
X9866278Y25847361D01*
X9870963Y25892866D01*
X9877603Y25923319D01*
X9878710Y25926048D01*
X9905491Y25958500D01*
X9944579Y25976317D01*
X9988315Y25979194D01*
X10029038Y25966826D01*
X10059087Y25938907D01*
X10062204Y25933352D01*
X10071961Y25899478D01*
X10077277Y25850772D01*
X10078279Y25795345D01*
X10215633Y25795345D01*
X10215568Y25815960D01*
X10214664Y25848937D01*
X10208514Y25930519D01*
X10195733Y25991770D01*
X10174471Y26037051D01*
X10142878Y26070721D01*
X10112207Y26090486D01*
X10069354Y26104380D01*
X10016056Y26109146D01*
X9961480Y26105264D01*
X9914792Y26093218D01*
X9890124Y26078807D01*
X9864505Y26055622D01*
X9864505Y26348727D01*
X9726188Y26348727D01*
X9726188Y25493678D01*
G36*
X9243476Y26107263D02*
G01*
X9193745Y26103529D01*
X9063709Y25713727D01*
X9043322Y25782886D01*
X9031054Y25825626D01*
X9014915Y25883385D01*
X8997488Y25946875D01*
X8988274Y25980930D01*
X8953612Y26109817D01*
X8810609Y26109817D01*
X8853354Y25974643D01*
X8874404Y25908158D01*
X8899833Y25827961D01*
X8926390Y25744307D01*
X8950098Y25669718D01*
X9004098Y25499965D01*
X9062402Y25496172D01*
X9120705Y25492378D01*
X9152321Y25596766D01*
X9171818Y25661611D01*
X9193096Y25733100D01*
X9211692Y25796237D01*
X9212426Y25798750D01*
X9226316Y25841531D01*
X9238571Y25870721D01*
X9247154Y25881759D01*
X9248918Y25880482D01*
X9255109Y25863370D01*
X9266872Y25826713D01*
X9282775Y25775122D01*
X9301386Y25713206D01*
X9311457Y25679148D01*
X9365993Y25493678D01*
X9481736Y25493678D01*
X9574263Y25786029D01*
X9600256Y25868038D01*
X9623934Y25942513D01*
X9644180Y26005956D01*
X9659874Y26054868D01*
X9669898Y26085751D01*
X9672945Y26094774D01*
X9670533Y26104013D01*
X9651592Y26108059D01*
X9612177Y26107654D01*
X9606007Y26107348D01*
X9532914Y26103529D01*
X9485043Y25927490D01*
X9467447Y25863289D01*
X9451723Y25806851D01*
X9439254Y25763078D01*
X9431426Y25736870D01*
X9429980Y25732597D01*
X9423986Y25737510D01*
X9411899Y25762968D01*
X9395107Y25805503D01*
X9374997Y25861650D01*
X9357997Y25912370D01*
X9293206Y26110996D01*
X9243476Y26107263D01*
G37*
X9243476Y26107263D02*
X9193745Y26103529D01*
X9063709Y25713727D01*
X9043322Y25782886D01*
X9031054Y25825626D01*
X9014915Y25883385D01*
X8997488Y25946875D01*
X8988274Y25980930D01*
X8953612Y26109817D01*
X8810609Y26109817D01*
X8853354Y25974643D01*
X8874404Y25908158D01*
X8899833Y25827961D01*
X8926390Y25744307D01*
X8950098Y25669718D01*
X9004098Y25499965D01*
X9062402Y25496172D01*
X9120705Y25492378D01*
X9152321Y25596766D01*
X9171818Y25661611D01*
X9193096Y25733100D01*
X9211692Y25796237D01*
X9212426Y25798750D01*
X9226316Y25841531D01*
X9238571Y25870721D01*
X9247154Y25881759D01*
X9248918Y25880482D01*
X9255109Y25863370D01*
X9266872Y25826713D01*
X9282775Y25775122D01*
X9301386Y25713206D01*
X9311457Y25679148D01*
X9365993Y25493678D01*
X9481736Y25493678D01*
X9574263Y25786029D01*
X9600256Y25868038D01*
X9623934Y25942513D01*
X9644180Y26005956D01*
X9659874Y26054868D01*
X9669898Y26085751D01*
X9672945Y26094774D01*
X9670533Y26104013D01*
X9651592Y26108059D01*
X9612177Y26107654D01*
X9606007Y26107348D01*
X9532914Y26103529D01*
X9485043Y25927490D01*
X9467447Y25863289D01*
X9451723Y25806851D01*
X9439254Y25763078D01*
X9431426Y25736870D01*
X9429980Y25732597D01*
X9423986Y25737510D01*
X9411899Y25762968D01*
X9395107Y25805503D01*
X9374997Y25861650D01*
X9357997Y25912370D01*
X9293206Y26110996D01*
X9243476Y26107263D01*
G36*
X8486589Y26106083D02*
G01*
X8433589Y26093210D01*
X8418269Y26086390D01*
X8388572Y26068526D01*
X8365780Y26048407D01*
X8348917Y26022538D01*
X8337002Y25987427D01*
X8329058Y25939580D01*
X8324106Y25875504D01*
X8321169Y25791706D01*
X8320053Y25735732D01*
X8315948Y25493678D01*
X8386068Y25493678D01*
X8428607Y25495462D01*
X8450524Y25501558D01*
X8456188Y25511794D01*
X8459179Y25522863D01*
X8472549Y25520746D01*
X8490767Y25511871D01*
X8536376Y25498267D01*
X8594993Y25494601D01*
X8656646Y25500597D01*
X8711362Y25515979D01*
X8716270Y25518114D01*
X8766277Y25553245D01*
X8799244Y25602081D01*
X8814413Y25659167D01*
X8813254Y25679676D01*
X8689492Y25679676D01*
X8678587Y25652075D01*
X8646255Y25632296D01*
X8594090Y25621681D01*
X8566213Y25620272D01*
X8519753Y25623880D01*
X8488871Y25637903D01*
X8481336Y25644569D01*
X8460924Y25680834D01*
X8456188Y25713727D01*
X8456188Y25757737D01*
X8517487Y25757737D01*
X8588744Y25754105D01*
X8638724Y25742682D01*
X8670304Y25722676D01*
X8677374Y25713757D01*
X8689492Y25679676D01*
X8813254Y25679676D01*
X8811029Y25719044D01*
X8788337Y25776256D01*
X8757376Y25814920D01*
X8738624Y25831636D01*
X8720267Y25842622D01*
X8696381Y25849320D01*
X8661043Y25853174D01*
X8608331Y25855627D01*
X8587423Y25856332D01*
X8456188Y25860621D01*
X8456380Y25900342D01*
X8461463Y25942095D01*
X8479838Y25967342D01*
X8516961Y25983470D01*
X8517957Y25983758D01*
X8570590Y25990100D01*
X8622094Y25981816D01*
X8660370Y25961673D01*
X8675728Y25951727D01*
X8692270Y25953103D01*
X8717725Y25967513D01*
X8732672Y25977683D01*
X8761909Y25999412D01*
X8780020Y26015700D01*
X8782926Y26020363D01*
X8770960Y26044495D01*
X8735604Y26073315D01*
X8720247Y26083039D01*
X8676099Y26099786D01*
X8616602Y26109273D01*
X8550513Y26111405D01*
X8486589Y26106083D01*
G37*
X8486589Y26106083D02*
X8433589Y26093210D01*
X8418269Y26086390D01*
X8388572Y26068526D01*
X8365780Y26048407D01*
X8348917Y26022538D01*
X8337002Y25987427D01*
X8329058Y25939580D01*
X8324106Y25875504D01*
X8321169Y25791706D01*
X8320053Y25735732D01*
X8315948Y25493678D01*
X8386068Y25493678D01*
X8428607Y25495462D01*
X8450524Y25501558D01*
X8456188Y25511794D01*
X8459179Y25522863D01*
X8472549Y25520746D01*
X8490767Y25511871D01*
X8536376Y25498267D01*
X8594993Y25494601D01*
X8656646Y25500597D01*
X8711362Y25515979D01*
X8716270Y25518114D01*
X8766277Y25553245D01*
X8799244Y25602081D01*
X8814413Y25659167D01*
X8813254Y25679676D01*
X8689492Y25679676D01*
X8678587Y25652075D01*
X8646255Y25632296D01*
X8594090Y25621681D01*
X8566213Y25620272D01*
X8519753Y25623880D01*
X8488871Y25637903D01*
X8481336Y25644569D01*
X8460924Y25680834D01*
X8456188Y25713727D01*
X8456188Y25757737D01*
X8517487Y25757737D01*
X8588744Y25754105D01*
X8638724Y25742682D01*
X8670304Y25722676D01*
X8677374Y25713757D01*
X8689492Y25679676D01*
X8813254Y25679676D01*
X8811029Y25719044D01*
X8788337Y25776256D01*
X8757376Y25814920D01*
X8738624Y25831636D01*
X8720267Y25842622D01*
X8696381Y25849320D01*
X8661043Y25853174D01*
X8608331Y25855627D01*
X8587423Y25856332D01*
X8456188Y25860621D01*
X8456380Y25900342D01*
X8461463Y25942095D01*
X8479838Y25967342D01*
X8516961Y25983470D01*
X8517957Y25983758D01*
X8570590Y25990100D01*
X8622094Y25981816D01*
X8660370Y25961673D01*
X8675728Y25951727D01*
X8692270Y25953103D01*
X8717725Y25967513D01*
X8732672Y25977683D01*
X8761909Y25999412D01*
X8780020Y26015700D01*
X8782926Y26020363D01*
X8770960Y26044495D01*
X8735604Y26073315D01*
X8720247Y26083039D01*
X8676099Y26099786D01*
X8616602Y26109273D01*
X8550513Y26111405D01*
X8486589Y26106083D01*
G36*
X7889745Y26110014D02*
G01*
X7841405Y26100485D01*
X7813886Y26086375D01*
X7784936Y26062932D01*
X7826124Y26010929D01*
X7851518Y25979436D01*
X7868762Y25964072D01*
X7885898Y25961724D01*
X7910973Y25969283D01*
X7922743Y25973559D01*
X7970730Y25979869D01*
X8014676Y25966344D01*
X8046940Y25935790D01*
X8052181Y25926048D01*
X8057888Y25900242D01*
X8062294Y25852683D01*
X8065189Y25786742D01*
X8066369Y25705790D01*
X8066386Y25694274D01*
X8066386Y25493678D01*
X8204703Y25493678D01*
X8204703Y26109817D01*
X8135544Y26109817D01*
X8095667Y26108775D01*
X8074893Y26104142D01*
X8067211Y26093651D01*
X8066386Y26083755D01*
X8066386Y26057694D01*
X8033255Y26083755D01*
X7995265Y26101535D01*
X7944230Y26110326D01*
X7889745Y26110014D01*
G37*
X7889745Y26110014D02*
X7841405Y26100485D01*
X7813886Y26086375D01*
X7784936Y26062932D01*
X7826124Y26010929D01*
X7851518Y25979436D01*
X7868762Y25964072D01*
X7885898Y25961724D01*
X7910973Y25969283D01*
X7922743Y25973559D01*
X7970730Y25979869D01*
X8014676Y25966344D01*
X8046940Y25935790D01*
X8052181Y25926048D01*
X8057888Y25900242D01*
X8062294Y25852683D01*
X8065189Y25786742D01*
X8066369Y25705790D01*
X8066386Y25694274D01*
X8066386Y25493678D01*
X8204703Y25493678D01*
X8204703Y26109817D01*
X8135544Y26109817D01*
X8095667Y26108775D01*
X8074893Y26104142D01*
X8067211Y26093651D01*
X8066386Y26083755D01*
X8066386Y26057694D01*
X8033255Y26083755D01*
X7995265Y26101535D01*
X7944230Y26110326D01*
X7889745Y26110014D01*
G36*
X7492419Y26106530D02*
G01*
X7432315Y26090903D01*
X7381979Y26058652D01*
X7357607Y26034560D01*
X7317655Y25977605D01*
X7294758Y25911535D01*
X7286892Y25830318D01*
X7286852Y25823752D01*
X7286782Y25757737D01*
X7666736Y25757737D01*
X7658637Y25723158D01*
X7644013Y25691841D01*
X7618419Y25659209D01*
X7613065Y25654000D01*
X7567057Y25625806D01*
X7514590Y25621025D01*
X7454197Y25639574D01*
X7443960Y25644569D01*
X7412561Y25659755D01*
X7391530Y25668406D01*
X7387861Y25669207D01*
X7375052Y25661437D01*
X7350622Y25642428D01*
X7338221Y25632040D01*
X7312524Y25608179D01*
X7304085Y25592423D01*
X7309942Y25577929D01*
X7313072Y25573966D01*
X7334275Y25556621D01*
X7369262Y25535541D01*
X7393663Y25523235D01*
X7462928Y25501554D01*
X7539612Y25494529D01*
X7612235Y25502853D01*
X7632574Y25508814D01*
X7695524Y25542548D01*
X7742185Y25594455D01*
X7772827Y25665041D01*
X7787718Y25754808D01*
X7789353Y25801747D01*
X7784579Y25870087D01*
X7664010Y25870087D01*
X7652348Y25865035D01*
X7621002Y25861071D01*
X7575429Y25858732D01*
X7544554Y25858331D01*
X7489019Y25858717D01*
X7453967Y25860525D01*
X7434738Y25864727D01*
X7426670Y25872297D01*
X7425099Y25883282D01*
X7435879Y25917119D01*
X7463020Y25950560D01*
X7498723Y25976228D01*
X7534440Y25986728D01*
X7582952Y25977414D01*
X7624947Y25950487D01*
X7654064Y25911673D01*
X7664010Y25870087D01*
X7784579Y25870087D01*
X7782401Y25901264D01*
X7760945Y25980551D01*
X7724530Y26040237D01*
X7672703Y26080951D01*
X7605010Y26103321D01*
X7568338Y26107629D01*
X7492419Y26106530D01*
G37*
X7492419Y26106530D02*
X7432315Y26090903D01*
X7381979Y26058652D01*
X7357607Y26034560D01*
X7317655Y25977605D01*
X7294758Y25911535D01*
X7286892Y25830318D01*
X7286852Y25823752D01*
X7286782Y25757737D01*
X7666736Y25757737D01*
X7658637Y25723158D01*
X7644013Y25691841D01*
X7618419Y25659209D01*
X7613065Y25654000D01*
X7567057Y25625806D01*
X7514590Y25621025D01*
X7454197Y25639574D01*
X7443960Y25644569D01*
X7412561Y25659755D01*
X7391530Y25668406D01*
X7387861Y25669207D01*
X7375052Y25661437D01*
X7350622Y25642428D01*
X7338221Y25632040D01*
X7312524Y25608179D01*
X7304085Y25592423D01*
X7309942Y25577929D01*
X7313072Y25573966D01*
X7334275Y25556621D01*
X7369262Y25535541D01*
X7393663Y25523235D01*
X7462928Y25501554D01*
X7539612Y25494529D01*
X7612235Y25502853D01*
X7632574Y25508814D01*
X7695524Y25542548D01*
X7742185Y25594455D01*
X7772827Y25665041D01*
X7787718Y25754808D01*
X7789353Y25801747D01*
X7784579Y25870087D01*
X7664010Y25870087D01*
X7652348Y25865035D01*
X7621002Y25861071D01*
X7575429Y25858732D01*
X7544554Y25858331D01*
X7489019Y25858717D01*
X7453967Y25860525D01*
X7434738Y25864727D01*
X7426670Y25872297D01*
X7425099Y25883282D01*
X7435879Y25917119D01*
X7463020Y25950560D01*
X7498723Y25976228D01*
X7534440Y25986728D01*
X7582952Y25977414D01*
X7624947Y25950487D01*
X7654064Y25911673D01*
X7664010Y25870087D01*
X7784579Y25870087D01*
X7782401Y25901264D01*
X7760945Y25980551D01*
X7724530Y26040237D01*
X7672703Y26080951D01*
X7605010Y26103321D01*
X7568338Y26107629D01*
X7492419Y26106530D01*
G36*
X12063261Y27046352D02*
G01*
X11997479Y27017269D01*
X11947540Y26968707D01*
X11913374Y26900592D01*
X11894907Y26812849D01*
X11893583Y26799149D01*
X11892546Y26702561D01*
X11905993Y26617898D01*
X11933108Y26549279D01*
X11947627Y26527206D01*
X11998201Y26480489D01*
X12062609Y26450232D01*
X12134666Y26437676D01*
X12208185Y26444061D01*
X12264072Y26463728D01*
X12312132Y26496871D01*
X12351412Y26540325D01*
X12352092Y26541342D01*
X12368044Y26568162D01*
X12378410Y26595132D01*
X12384688Y26629168D01*
X12388373Y26677190D01*
X12389997Y26716569D01*
X12390672Y26752281D01*
X12264955Y26752281D01*
X12263726Y26716730D01*
X12259266Y26669406D01*
X12251397Y26639035D01*
X12237207Y26617428D01*
X12223917Y26604806D01*
X12176802Y26578378D01*
X12127505Y26574847D01*
X12081593Y26593861D01*
X12058638Y26615169D01*
X12042096Y26636641D01*
X12032421Y26657187D01*
X12028174Y26683926D01*
X12027920Y26723977D01*
X12029228Y26760862D01*
X12032043Y26813553D01*
X12036505Y26847728D01*
X12044548Y26870020D01*
X12058103Y26887058D01*
X12068845Y26896797D01*
X12113777Y26922377D01*
X12162249Y26923653D01*
X12202894Y26908501D01*
X12237567Y26876858D01*
X12258224Y26824880D01*
X12264955Y26752281D01*
X12390672Y26752281D01*
X12391479Y26794879D01*
X12388948Y26853444D01*
X12381362Y26897493D01*
X12367681Y26932252D01*
X12346865Y26962949D01*
X12339147Y26972064D01*
X12290889Y27017479D01*
X12239128Y27044007D01*
X12175828Y27055121D01*
X12144961Y27056029D01*
X12063261Y27046352D01*
G37*
X12063261Y27046352D02*
X11997479Y27017269D01*
X11947540Y26968707D01*
X11913374Y26900592D01*
X11894907Y26812849D01*
X11893583Y26799149D01*
X11892546Y26702561D01*
X11905993Y26617898D01*
X11933108Y26549279D01*
X11947627Y26527206D01*
X11998201Y26480489D01*
X12062609Y26450232D01*
X12134666Y26437676D01*
X12208185Y26444061D01*
X12264072Y26463728D01*
X12312132Y26496871D01*
X12351412Y26540325D01*
X12352092Y26541342D01*
X12368044Y26568162D01*
X12378410Y26595132D01*
X12384688Y26629168D01*
X12388373Y26677190D01*
X12389997Y26716569D01*
X12390672Y26752281D01*
X12264955Y26752281D01*
X12263726Y26716730D01*
X12259266Y26669406D01*
X12251397Y26639035D01*
X12237207Y26617428D01*
X12223917Y26604806D01*
X12176802Y26578378D01*
X12127505Y26574847D01*
X12081593Y26593861D01*
X12058638Y26615169D01*
X12042096Y26636641D01*
X12032421Y26657187D01*
X12028174Y26683926D01*
X12027920Y26723977D01*
X12029228Y26760862D01*
X12032043Y26813553D01*
X12036505Y26847728D01*
X12044548Y26870020D01*
X12058103Y26887058D01*
X12068845Y26896797D01*
X12113777Y26922377D01*
X12162249Y26923653D01*
X12202894Y26908501D01*
X12237567Y26876858D01*
X12258224Y26824880D01*
X12264955Y26752281D01*
X12390672Y26752281D01*
X12391479Y26794879D01*
X12388948Y26853444D01*
X12381362Y26897493D01*
X12367681Y26932252D01*
X12346865Y26962949D01*
X12339147Y26972064D01*
X12290889Y27017479D01*
X12239128Y27044007D01*
X12175828Y27055121D01*
X12144961Y27056029D01*
X12063261Y27046352D01*
G36*
X10881699Y27038886D02*
G01*
X10869168Y27032986D01*
X10825799Y27001217D01*
X10784790Y26954854D01*
X10754168Y26903804D01*
X10745459Y26880334D01*
X10737512Y26838409D01*
X10732774Y26787743D01*
X10732199Y26766821D01*
X10732129Y26700807D01*
X11112083Y26700807D01*
X11103983Y26666227D01*
X11084104Y26625330D01*
X11049347Y26589986D01*
X11007998Y26567218D01*
X10981649Y26562490D01*
X10945916Y26568227D01*
X10903282Y26582618D01*
X10888799Y26589238D01*
X10835240Y26615987D01*
X10789533Y26581124D01*
X10763158Y26557545D01*
X10749124Y26538083D01*
X10748414Y26532371D01*
X10760951Y26518527D01*
X10788428Y26497488D01*
X10813366Y26481075D01*
X10880664Y26451570D01*
X10956110Y26438216D01*
X11030888Y26441688D01*
X11090495Y26459837D01*
X11151941Y26498716D01*
X11195608Y26549905D01*
X11222926Y26616133D01*
X11235322Y26700129D01*
X11236421Y26738564D01*
X11232022Y26826639D01*
X11231482Y26829201D01*
X11105582Y26829201D01*
X11102115Y26820942D01*
X11087863Y26816387D01*
X11058470Y26814435D01*
X11009575Y26813983D01*
X10990748Y26813975D01*
X10933467Y26814657D01*
X10897141Y26817136D01*
X10877604Y26822057D01*
X10870690Y26830066D01*
X10870445Y26832638D01*
X10878336Y26853077D01*
X10898085Y26881711D01*
X10906575Y26891737D01*
X10938094Y26920092D01*
X10970949Y26931241D01*
X10988651Y26932173D01*
X11036539Y26920519D01*
X11076699Y26889215D01*
X11102173Y26843748D01*
X11102625Y26842267D01*
X11105582Y26829201D01*
X11231482Y26829201D01*
X11217392Y26895990D01*
X11191038Y26951475D01*
X11158807Y26990861D01*
X11099217Y27033569D01*
X11029168Y27056391D01*
X10954661Y27058454D01*
X10881699Y27038886D01*
G37*
X10881699Y27038886D02*
X10869168Y27032986D01*
X10825799Y27001217D01*
X10784790Y26954854D01*
X10754168Y26903804D01*
X10745459Y26880334D01*
X10737512Y26838409D01*
X10732774Y26787743D01*
X10732199Y26766821D01*
X10732129Y26700807D01*
X11112083Y26700807D01*
X11103983Y26666227D01*
X11084104Y26625330D01*
X11049347Y26589986D01*
X11007998Y26567218D01*
X10981649Y26562490D01*
X10945916Y26568227D01*
X10903282Y26582618D01*
X10888799Y26589238D01*
X10835240Y26615987D01*
X10789533Y26581124D01*
X10763158Y26557545D01*
X10749124Y26538083D01*
X10748414Y26532371D01*
X10760951Y26518527D01*
X10788428Y26497488D01*
X10813366Y26481075D01*
X10880664Y26451570D01*
X10956110Y26438216D01*
X11030888Y26441688D01*
X11090495Y26459837D01*
X11151941Y26498716D01*
X11195608Y26549905D01*
X11222926Y26616133D01*
X11235322Y26700129D01*
X11236421Y26738564D01*
X11232022Y26826639D01*
X11231482Y26829201D01*
X11105582Y26829201D01*
X11102115Y26820942D01*
X11087863Y26816387D01*
X11058470Y26814435D01*
X11009575Y26813983D01*
X10990748Y26813975D01*
X10933467Y26814657D01*
X10897141Y26817136D01*
X10877604Y26822057D01*
X10870690Y26830066D01*
X10870445Y26832638D01*
X10878336Y26853077D01*
X10898085Y26881711D01*
X10906575Y26891737D01*
X10938094Y26920092D01*
X10970949Y26931241D01*
X10988651Y26932173D01*
X11036539Y26920519D01*
X11076699Y26889215D01*
X11102173Y26843748D01*
X11102625Y26842267D01*
X11105582Y26829201D01*
X11231482Y26829201D01*
X11217392Y26895990D01*
X11191038Y26951475D01*
X11158807Y26990861D01*
X11099217Y27033569D01*
X11029168Y27056391D01*
X10954661Y27058454D01*
X10881699Y27038886D01*
G36*
X9510983Y27055048D02*
G01*
X9463366Y27046018D01*
X9413966Y27027130D01*
X9408688Y27024723D01*
X9371226Y27005024D01*
X9345283Y26986719D01*
X9336897Y26974992D01*
X9344883Y26955868D01*
X9364280Y26927650D01*
X9372890Y26917116D01*
X9408372Y26875653D01*
X9454115Y26902642D01*
X9497650Y26920622D01*
X9547950Y26930233D01*
X9596188Y26930840D01*
X9633533Y26921809D01*
X9642495Y26916173D01*
X9659563Y26890329D01*
X9661637Y26860559D01*
X9648866Y26837303D01*
X9641312Y26832792D01*
X9618675Y26827191D01*
X9578885Y26820608D01*
X9529834Y26814317D01*
X9520785Y26813330D01*
X9442004Y26799702D01*
X9384864Y26776554D01*
X9346970Y26741748D01*
X9325921Y26693146D01*
X9319365Y26633782D01*
X9328423Y26566302D01*
X9357836Y26513312D01*
X9407722Y26474717D01*
X9478200Y26450419D01*
X9556435Y26440833D01*
X9620234Y26440948D01*
X9671984Y26449655D01*
X9707327Y26461675D01*
X9751983Y26482620D01*
X9793253Y26506926D01*
X9807921Y26517624D01*
X9845643Y26548416D01*
X9800148Y26594451D01*
X9754653Y26640487D01*
X9702928Y26606257D01*
X9651048Y26580548D01*
X9595649Y26567101D01*
X9542395Y26565682D01*
X9496951Y26576057D01*
X9464984Y26597993D01*
X9454662Y26616502D01*
X9456211Y26646186D01*
X9481860Y26668885D01*
X9531540Y26684560D01*
X9585969Y26691805D01*
X9669736Y26705627D01*
X9731967Y26731704D01*
X9773493Y26770801D01*
X9795147Y26823680D01*
X9798147Y26886374D01*
X9783329Y26951858D01*
X9749546Y27001356D01*
X9696495Y27035092D01*
X9623874Y27053293D01*
X9570072Y27056861D01*
X9510983Y27055048D01*
G37*
X9510983Y27055048D02*
X9463366Y27046018D01*
X9413966Y27027130D01*
X9408688Y27024723D01*
X9371226Y27005024D01*
X9345283Y26986719D01*
X9336897Y26974992D01*
X9344883Y26955868D01*
X9364280Y26927650D01*
X9372890Y26917116D01*
X9408372Y26875653D01*
X9454115Y26902642D01*
X9497650Y26920622D01*
X9547950Y26930233D01*
X9596188Y26930840D01*
X9633533Y26921809D01*
X9642495Y26916173D01*
X9659563Y26890329D01*
X9661637Y26860559D01*
X9648866Y26837303D01*
X9641312Y26832792D01*
X9618675Y26827191D01*
X9578885Y26820608D01*
X9529834Y26814317D01*
X9520785Y26813330D01*
X9442004Y26799702D01*
X9384864Y26776554D01*
X9346970Y26741748D01*
X9325921Y26693146D01*
X9319365Y26633782D01*
X9328423Y26566302D01*
X9357836Y26513312D01*
X9407722Y26474717D01*
X9478200Y26450419D01*
X9556435Y26440833D01*
X9620234Y26440948D01*
X9671984Y26449655D01*
X9707327Y26461675D01*
X9751983Y26482620D01*
X9793253Y26506926D01*
X9807921Y26517624D01*
X9845643Y26548416D01*
X9800148Y26594451D01*
X9754653Y26640487D01*
X9702928Y26606257D01*
X9651048Y26580548D01*
X9595649Y26567101D01*
X9542395Y26565682D01*
X9496951Y26576057D01*
X9464984Y26597993D01*
X9454662Y26616502D01*
X9456211Y26646186D01*
X9481860Y26668885D01*
X9531540Y26684560D01*
X9585969Y26691805D01*
X9669736Y26705627D01*
X9731967Y26731704D01*
X9773493Y26770801D01*
X9795147Y26823680D01*
X9798147Y26886374D01*
X9783329Y26951858D01*
X9749546Y27001356D01*
X9696495Y27035092D01*
X9623874Y27053293D01*
X9570072Y27056861D01*
X9510983Y27055048D01*
G36*
X8914238Y27045445D02*
G01*
X8850637Y27010808D01*
X8800877Y26956128D01*
X8777432Y26911658D01*
X8767366Y26872379D01*
X8760844Y26816384D01*
X8758049Y26751879D01*
X8759164Y26687071D01*
X8764374Y26630166D01*
X8770459Y26599773D01*
X8790986Y26558194D01*
X8826537Y26514032D01*
X8869381Y26475413D01*
X8911789Y26450466D01*
X8912823Y26450070D01*
X8965447Y26439169D01*
X9027812Y26438899D01*
X9087076Y26448824D01*
X9109960Y26456778D01*
X9168898Y26490200D01*
X9211110Y26533989D01*
X9238844Y26591962D01*
X9254349Y26667935D01*
X9257857Y26707729D01*
X9257410Y26757734D01*
X9122624Y26757734D01*
X9118083Y26684768D01*
X9105014Y26629166D01*
X9084244Y26593639D01*
X9069448Y26583480D01*
X9031536Y26576396D01*
X8986473Y26578493D01*
X8947513Y26588688D01*
X8937296Y26594296D01*
X8910341Y26626962D01*
X8892549Y26676955D01*
X8884976Y26737795D01*
X8888675Y26803003D01*
X8896943Y26842247D01*
X8920680Y26887695D01*
X8958151Y26916104D01*
X9003280Y26925927D01*
X9049989Y26915613D01*
X9085868Y26890388D01*
X9104723Y26869575D01*
X9115728Y26849061D01*
X9120974Y26821297D01*
X9122551Y26778738D01*
X9122624Y26757734D01*
X9257410Y26757734D01*
X9256906Y26813920D01*
X9239612Y26900999D01*
X9205971Y26968970D01*
X9155982Y27017836D01*
X9089644Y27047601D01*
X9075399Y27051052D01*
X8989790Y27059155D01*
X8914238Y27045445D01*
G37*
X8914238Y27045445D02*
X8850637Y27010808D01*
X8800877Y26956128D01*
X8777432Y26911658D01*
X8767366Y26872379D01*
X8760844Y26816384D01*
X8758049Y26751879D01*
X8759164Y26687071D01*
X8764374Y26630166D01*
X8770459Y26599773D01*
X8790986Y26558194D01*
X8826537Y26514032D01*
X8869381Y26475413D01*
X8911789Y26450466D01*
X8912823Y26450070D01*
X8965447Y26439169D01*
X9027812Y26438899D01*
X9087076Y26448824D01*
X9109960Y26456778D01*
X9168898Y26490200D01*
X9211110Y26533989D01*
X9238844Y26591962D01*
X9254349Y26667935D01*
X9257857Y26707729D01*
X9257410Y26757734D01*
X9122624Y26757734D01*
X9118083Y26684768D01*
X9105014Y26629166D01*
X9084244Y26593639D01*
X9069448Y26583480D01*
X9031536Y26576396D01*
X8986473Y26578493D01*
X8947513Y26588688D01*
X8937296Y26594296D01*
X8910341Y26626962D01*
X8892549Y26676955D01*
X8884976Y26737795D01*
X8888675Y26803003D01*
X8896943Y26842247D01*
X8920680Y26887695D01*
X8958151Y26916104D01*
X9003280Y26925927D01*
X9049989Y26915613D01*
X9085868Y26890388D01*
X9104723Y26869575D01*
X9115728Y26849061D01*
X9120974Y26821297D01*
X9122551Y26778738D01*
X9122624Y26757734D01*
X9257410Y26757734D01*
X9256906Y26813920D01*
X9239612Y26900999D01*
X9205971Y26968970D01*
X9155982Y27017836D01*
X9089644Y27047601D01*
X9075399Y27051052D01*
X8989790Y27059155D01*
X8914238Y27045445D01*
G36*
X8531633Y26857158D02*
G01*
X8530445Y26764937D01*
X8526103Y26694890D01*
X8517442Y26644119D01*
X8503296Y26609728D01*
X8482500Y26588821D01*
X8453890Y26578500D01*
X8418465Y26575864D01*
X8381364Y26578818D01*
X8353182Y26589611D01*
X8332757Y26611140D01*
X8318921Y26646301D01*
X8310509Y26697990D01*
X8306357Y26769106D01*
X8305297Y26857158D01*
X8305297Y27052886D01*
X8166980Y27052886D01*
X8166980Y26449321D01*
X8236138Y26449321D01*
X8277830Y26451011D01*
X8299299Y26456944D01*
X8305297Y26468207D01*
X8308909Y26478239D01*
X8323286Y26476117D01*
X8352264Y26461920D01*
X8418681Y26440020D01*
X8489125Y26441572D01*
X8556623Y26465353D01*
X8588767Y26484138D01*
X8613285Y26504478D01*
X8631196Y26529927D01*
X8643521Y26564042D01*
X8651277Y26610379D01*
X8655484Y26672493D01*
X8657160Y26753939D01*
X8657376Y26816922D01*
X8657376Y27052886D01*
X8531633Y27052886D01*
X8531633Y26857158D01*
G37*
X8531633Y26857158D02*
X8530445Y26764937D01*
X8526103Y26694890D01*
X8517442Y26644119D01*
X8503296Y26609728D01*
X8482500Y26588821D01*
X8453890Y26578500D01*
X8418465Y26575864D01*
X8381364Y26578818D01*
X8353182Y26589611D01*
X8332757Y26611140D01*
X8318921Y26646301D01*
X8310509Y26697990D01*
X8306357Y26769106D01*
X8305297Y26857158D01*
X8305297Y27052886D01*
X8166980Y27052886D01*
X8166980Y26449321D01*
X8236138Y26449321D01*
X8277830Y26451011D01*
X8299299Y26456944D01*
X8305297Y26468207D01*
X8308909Y26478239D01*
X8323286Y26476117D01*
X8352264Y26461920D01*
X8418681Y26440020D01*
X8489125Y26441572D01*
X8556623Y26465353D01*
X8588767Y26484138D01*
X8613285Y26504478D01*
X8631196Y26529927D01*
X8643521Y26564042D01*
X8651277Y26610379D01*
X8655484Y26672493D01*
X8657160Y26753939D01*
X8657376Y26816922D01*
X8657376Y27052886D01*
X8531633Y27052886D01*
X8531633Y26857158D01*
G36*
X7307774Y27047620D02*
G01*
X7234920Y27016670D01*
X7211973Y27001605D01*
X7182646Y26978452D01*
X7164236Y26960247D01*
X7161039Y26954317D01*
X7170065Y26941160D01*
X7193163Y26918833D01*
X7211656Y26903250D01*
X7262272Y26862574D01*
X7302240Y26896205D01*
X7333126Y26917916D01*
X7363241Y26925410D01*
X7397708Y26923580D01*
X7452439Y26909972D01*
X7490114Y26881728D01*
X7513009Y26836067D01*
X7523403Y26770211D01*
X7523405Y26770169D01*
X7522506Y26696561D01*
X7508537Y26642554D01*
X7480672Y26605784D01*
X7461675Y26593332D01*
X7411224Y26577827D01*
X7357337Y26577817D01*
X7310454Y26592862D01*
X7299356Y26600213D01*
X7271524Y26618989D01*
X7249764Y26622066D01*
X7226296Y26608091D01*
X7200351Y26582990D01*
X7159284Y26540620D01*
X7204879Y26503036D01*
X7275326Y26460618D01*
X7354767Y26439715D01*
X7437785Y26441228D01*
X7492306Y26455089D01*
X7556030Y26489365D01*
X7606995Y26543288D01*
X7630149Y26581351D01*
X7648901Y26635964D01*
X7658285Y26705131D01*
X7658357Y26780093D01*
X7649176Y26852091D01*
X7630801Y26912363D01*
X7627907Y26918542D01*
X7585048Y26979149D01*
X7527021Y27023276D01*
X7458409Y27050007D01*
X7383799Y27058427D01*
X7307774Y27047620D01*
G37*
X7307774Y27047620D02*
X7234920Y27016670D01*
X7211973Y27001605D01*
X7182646Y26978452D01*
X7164236Y26960247D01*
X7161039Y26954317D01*
X7170065Y26941160D01*
X7193163Y26918833D01*
X7211656Y26903250D01*
X7262272Y26862574D01*
X7302240Y26896205D01*
X7333126Y26917916D01*
X7363241Y26925410D01*
X7397708Y26923580D01*
X7452439Y26909972D01*
X7490114Y26881728D01*
X7513009Y26836067D01*
X7523403Y26770211D01*
X7523405Y26770169D01*
X7522506Y26696561D01*
X7508537Y26642554D01*
X7480672Y26605784D01*
X7461675Y26593332D01*
X7411224Y26577827D01*
X7357337Y26577817D01*
X7310454Y26592862D01*
X7299356Y26600213D01*
X7271524Y26618989D01*
X7249764Y26622066D01*
X7226296Y26608091D01*
X7200351Y26582990D01*
X7159284Y26540620D01*
X7204879Y26503036D01*
X7275326Y26460618D01*
X7354767Y26439715D01*
X7437785Y26441228D01*
X7492306Y26455089D01*
X7556030Y26489365D01*
X7606995Y26543288D01*
X7630149Y26581351D01*
X7648901Y26635964D01*
X7658285Y26705131D01*
X7658357Y26780093D01*
X7649176Y26852091D01*
X7630801Y26912363D01*
X7627907Y26918542D01*
X7585048Y26979149D01*
X7527021Y27023276D01*
X7458409Y27050007D01*
X7383799Y27058427D01*
X7307774Y27047620D01*
G36*
X6847102Y27055043D02*
G01*
X6814904Y27047221D01*
X6753175Y27018579D01*
X6700390Y26974833D01*
X6663859Y26922383D01*
X6658840Y26910607D01*
X6651955Y26879760D01*
X6647136Y26834129D01*
X6645495Y26788008D01*
X6645495Y26700807D01*
X6827822Y26700807D01*
X6903021Y26700522D01*
X6955997Y26698796D01*
X6989675Y26694319D01*
X7006980Y26685780D01*
X7010837Y26671870D01*
X7004171Y26651278D01*
X6992230Y26627185D01*
X6958920Y26586975D01*
X6912632Y26566942D01*
X6856056Y26567595D01*
X6791969Y26589399D01*
X6736583Y26616307D01*
X6690625Y26579968D01*
X6644667Y26543628D01*
X6687904Y26503681D01*
X6745626Y26465937D01*
X6816614Y26443180D01*
X6892971Y26436812D01*
X6966801Y26448232D01*
X6978713Y26452107D01*
X7043601Y26485994D01*
X7091870Y26536514D01*
X7124535Y26605175D01*
X7142615Y26693486D01*
X7142825Y26695379D01*
X7144444Y26791622D01*
X7137900Y26825958D01*
X7010148Y26825958D01*
X6998416Y26820678D01*
X6966562Y26816633D01*
X6919603Y26814324D01*
X6889846Y26813975D01*
X6834352Y26814194D01*
X6799654Y26815584D01*
X6781399Y26819249D01*
X6775234Y26826290D01*
X6776805Y26837810D01*
X6778122Y26842267D01*
X6800618Y26884145D01*
X6835997Y26917896D01*
X6867220Y26932727D01*
X6908699Y26931832D01*
X6950731Y26913336D01*
X6985988Y26882714D01*
X7007146Y26845438D01*
X7010148Y26825958D01*
X7137900Y26825958D01*
X7128310Y26876271D01*
X7096302Y26947309D01*
X7050299Y27002721D01*
X6992179Y27040491D01*
X6923820Y27058604D01*
X6847102Y27055043D01*
G37*
X6847102Y27055043D02*
X6814904Y27047221D01*
X6753175Y27018579D01*
X6700390Y26974833D01*
X6663859Y26922383D01*
X6658840Y26910607D01*
X6651955Y26879760D01*
X6647136Y26834129D01*
X6645495Y26788008D01*
X6645495Y26700807D01*
X6827822Y26700807D01*
X6903021Y26700522D01*
X6955997Y26698796D01*
X6989675Y26694319D01*
X7006980Y26685780D01*
X7010837Y26671870D01*
X7004171Y26651278D01*
X6992230Y26627185D01*
X6958920Y26586975D01*
X6912632Y26566942D01*
X6856056Y26567595D01*
X6791969Y26589399D01*
X6736583Y26616307D01*
X6690625Y26579968D01*
X6644667Y26543628D01*
X6687904Y26503681D01*
X6745626Y26465937D01*
X6816614Y26443180D01*
X6892971Y26436812D01*
X6966801Y26448232D01*
X6978713Y26452107D01*
X7043601Y26485994D01*
X7091870Y26536514D01*
X7124535Y26605175D01*
X7142615Y26693486D01*
X7142825Y26695379D01*
X7144444Y26791622D01*
X7137900Y26825958D01*
X7010148Y26825958D01*
X6998416Y26820678D01*
X6966562Y26816633D01*
X6919603Y26814324D01*
X6889846Y26813975D01*
X6834352Y26814194D01*
X6799654Y26815584D01*
X6781399Y26819249D01*
X6775234Y26826290D01*
X6776805Y26837810D01*
X6778122Y26842267D01*
X6800618Y26884145D01*
X6835997Y26917896D01*
X6867220Y26932727D01*
X6908699Y26931832D01*
X6950731Y26913336D01*
X6985988Y26882714D01*
X7007146Y26845438D01*
X7010148Y26825958D01*
X7137900Y26825958D01*
X7128310Y26876271D01*
X7096302Y26947309D01*
X7050299Y27002721D01*
X6992179Y27040491D01*
X6923820Y27058604D01*
X6847102Y27055043D01*
G36*
X10279012Y27042498D02*
G01*
X10247717Y27027550D01*
X10217409Y27005959D01*
X10194318Y26981109D01*
X10177500Y26949413D01*
X10166006Y26907286D01*
X10158891Y26851142D01*
X10155207Y26777394D01*
X10154008Y26682456D01*
X10153989Y26672515D01*
X10153713Y26449321D01*
X10292030Y26449321D01*
X10292030Y26655082D01*
X10292128Y26731311D01*
X10292809Y26786561D01*
X10294651Y26824999D01*
X10298233Y26850794D01*
X10304132Y26868116D01*
X10312927Y26881132D01*
X10325180Y26893993D01*
X10368047Y26921627D01*
X10414843Y26926755D01*
X10459424Y26909283D01*
X10474928Y26896279D01*
X10486310Y26884053D01*
X10494481Y26870960D01*
X10499974Y26852885D01*
X10503320Y26825713D01*
X10505051Y26785330D01*
X10505697Y26727621D01*
X10505792Y26657368D01*
X10505792Y26449321D01*
X10644109Y26449321D01*
X10644109Y27052886D01*
X10574950Y27052886D01*
X10533428Y27051244D01*
X10512006Y27045413D01*
X10505795Y27034039D01*
X10505792Y27033702D01*
X10502910Y27022562D01*
X10490199Y27023826D01*
X10464926Y27036066D01*
X10407605Y27054076D01*
X10342037Y27056079D01*
X10279012Y27042498D01*
G37*
X10279012Y27042498D02*
X10247717Y27027550D01*
X10217409Y27005959D01*
X10194318Y26981109D01*
X10177500Y26949413D01*
X10166006Y26907286D01*
X10158891Y26851142D01*
X10155207Y26777394D01*
X10154008Y26682456D01*
X10153989Y26672515D01*
X10153713Y26449321D01*
X10292030Y26449321D01*
X10292030Y26655082D01*
X10292128Y26731311D01*
X10292809Y26786561D01*
X10294651Y26824999D01*
X10298233Y26850794D01*
X10304132Y26868116D01*
X10312927Y26881132D01*
X10325180Y26893993D01*
X10368047Y26921627D01*
X10414843Y26926755D01*
X10459424Y26909283D01*
X10474928Y26896279D01*
X10486310Y26884053D01*
X10494481Y26870960D01*
X10499974Y26852885D01*
X10503320Y26825713D01*
X10505051Y26785330D01*
X10505697Y26727621D01*
X10505792Y26657368D01*
X10505792Y26449321D01*
X10644109Y26449321D01*
X10644109Y27052886D01*
X10574950Y27052886D01*
X10533428Y27051244D01*
X10512006Y27045413D01*
X10505795Y27034039D01*
X10505792Y27033702D01*
X10502910Y27022562D01*
X10490199Y27023826D01*
X10464926Y27036066D01*
X10407605Y27054076D01*
X10342037Y27056079D01*
X10279012Y27042498D01*
G36*
X7725540Y27053470D02*
G01*
X7682289Y27040255D01*
X7654442Y27023559D01*
X7645371Y27010355D01*
X7647868Y26994703D01*
X7664069Y26970115D01*
X7677768Y26952700D01*
X7706008Y26921217D01*
X7727225Y26907971D01*
X7745312Y26908836D01*
X7798965Y26922490D01*
X7838370Y26921870D01*
X7870368Y26906396D01*
X7881110Y26897339D01*
X7915495Y26865473D01*
X7915495Y26449321D01*
X8053812Y26449321D01*
X8053812Y27052886D01*
X7984653Y27052886D01*
X7943131Y27051244D01*
X7921709Y27045413D01*
X7915498Y27034039D01*
X7915495Y27033702D01*
X7912561Y27021787D01*
X7899296Y27023341D01*
X7880916Y27031937D01*
X7842954Y27047932D01*
X7812128Y27057555D01*
X7772464Y27060022D01*
X7725540Y27053470D01*
G37*
X7725540Y27053470D02*
X7682289Y27040255D01*
X7654442Y27023559D01*
X7645371Y27010355D01*
X7647868Y26994703D01*
X7664069Y26970115D01*
X7677768Y26952700D01*
X7706008Y26921217D01*
X7727225Y26907971D01*
X7745312Y26908836D01*
X7798965Y26922490D01*
X7838370Y26921870D01*
X7870368Y26906396D01*
X7881110Y26897339D01*
X7915495Y26865473D01*
X7915495Y26449321D01*
X8053812Y26449321D01*
X8053812Y27052886D01*
X7984653Y27052886D01*
X7943131Y27051244D01*
X7921709Y27045413D01*
X7915498Y27034039D01*
X7915495Y27033702D01*
X7912561Y27021787D01*
X7899296Y27023341D01*
X7880916Y27031937D01*
X7842954Y27047932D01*
X7812128Y27057555D01*
X7772464Y27060022D01*
X7725540Y27053470D01*
G36*
X9148036Y31221482D02*
G01*
X9091188Y30919930D01*
X8671662Y30746988D01*
X8420016Y30918105D01*
X8349542Y30965750D01*
X8285837Y31008290D01*
X8231874Y31043785D01*
X8190627Y31070290D01*
X8165066Y31085864D01*
X8158105Y31089222D01*
X8145565Y31080586D01*
X8118769Y31056708D01*
X8080720Y31020641D01*
X8034421Y30975433D01*
X7982877Y30924136D01*
X7929091Y30869799D01*
X7876065Y30815472D01*
X7826805Y30764205D01*
X7784313Y30719049D01*
X7751593Y30683054D01*
X7731649Y30659270D01*
X7726881Y30651310D01*
X7733743Y30636635D01*
X7752980Y30604486D01*
X7782570Y30558008D01*
X7820490Y30500344D01*
X7864718Y30434640D01*
X7890346Y30397164D01*
X7937059Y30328732D01*
X7978568Y30266980D01*
X8012860Y30214981D01*
X8037920Y30175808D01*
X8051736Y30152535D01*
X8053812Y30147645D01*
X8049105Y30133745D01*
X8036277Y30101350D01*
X8017262Y30055015D01*
X7993997Y29999294D01*
X7968416Y29938742D01*
X7942455Y29877914D01*
X7918050Y29821364D01*
X7897137Y29773648D01*
X7881651Y29739319D01*
X7873528Y29722932D01*
X7873048Y29722288D01*
X7860293Y29719159D01*
X7826323Y29712179D01*
X7774660Y29702033D01*
X7708824Y29689408D01*
X7632336Y29674991D01*
X7587710Y29666677D01*
X7505979Y29651116D01*
X7432157Y29636308D01*
X7369979Y29623064D01*
X7323178Y29612195D01*
X7295491Y29604511D01*
X7289926Y29602073D01*
X7284474Y29585570D01*
X7280076Y29548300D01*
X7276728Y29494620D01*
X7274426Y29428888D01*
X7273168Y29355463D01*
X7272952Y29278704D01*
X7273773Y29202968D01*
X7275629Y29132614D01*
X7278518Y29072000D01*
X7282435Y29025484D01*
X7287378Y28997425D01*
X7290343Y28991584D01*
X7308066Y28984583D01*
X7345619Y28974573D01*
X7398036Y28962731D01*
X7460348Y28950233D01*
X7482100Y28946190D01*
X7586976Y28926980D01*
X7669820Y28911509D01*
X7733370Y28899163D01*
X7780363Y28889327D01*
X7813537Y28881386D01*
X7835629Y28874724D01*
X7849376Y28868727D01*
X7857516Y28862781D01*
X7858655Y28861606D01*
X7870023Y28842674D01*
X7887365Y28805831D01*
X7908950Y28755587D01*
X7933046Y28696454D01*
X7957921Y28632944D01*
X7981843Y28569568D01*
X8003081Y28510838D01*
X8019903Y28461265D01*
X8030578Y28425361D01*
X8033373Y28407638D01*
X8033140Y28407017D01*
X8023669Y28392530D01*
X8002182Y28360656D01*
X7970937Y28314711D01*
X7932193Y28258015D01*
X7888207Y28193883D01*
X7875681Y28175658D01*
X7831016Y28109586D01*
X7791712Y28049300D01*
X7759912Y27998265D01*
X7737755Y27959940D01*
X7727383Y27937789D01*
X7726881Y27935068D01*
X7735595Y27920764D01*
X7759675Y27892428D01*
X7796024Y27853104D01*
X7841547Y27805839D01*
X7893148Y27753677D01*
X7947733Y27699665D01*
X8002206Y27646847D01*
X8053471Y27598269D01*
X8098433Y27556977D01*
X8133996Y27526015D01*
X8157065Y27508430D01*
X8163446Y27505559D01*
X8178301Y27512322D01*
X8208714Y27530561D01*
X8249732Y27557203D01*
X8281291Y27578648D01*
X8338475Y27617997D01*
X8406194Y27664329D01*
X8474120Y27710587D01*
X8510639Y27735345D01*
X8634248Y27818953D01*
X8738009Y27762850D01*
X8785280Y27738272D01*
X8825477Y27719169D01*
X8852674Y27708273D01*
X8859598Y27706757D01*
X8867923Y27717951D01*
X8884346Y27749583D01*
X8907643Y27798735D01*
X8936586Y27862490D01*
X8969950Y27937929D01*
X9006509Y28022136D01*
X9045036Y28112192D01*
X9084306Y28205179D01*
X9123092Y28298180D01*
X9160170Y28388277D01*
X9194311Y28472552D01*
X9224292Y28548087D01*
X9248884Y28611966D01*
X9266864Y28661269D01*
X9277003Y28693079D01*
X9278634Y28704004D01*
X9265709Y28717939D01*
X9237411Y28740560D01*
X9199654Y28767167D01*
X9196485Y28769272D01*
X9098900Y28847386D01*
X9020214Y28938518D01*
X8961109Y29039755D01*
X8922268Y29148182D01*
X8904372Y29260886D01*
X8908103Y29374952D01*
X8934143Y29487466D01*
X8983175Y29595515D01*
X8997600Y29619155D01*
X9072631Y29714613D01*
X9161270Y29791268D01*
X9260451Y29848720D01*
X9367105Y29886571D01*
X9478164Y29904422D01*
X9590561Y29901875D01*
X9701227Y29878530D01*
X9807094Y29833990D01*
X9905095Y29767855D01*
X9935410Y29741013D01*
X10012562Y29656988D01*
X10068782Y29568534D01*
X10107347Y29469385D01*
X10128826Y29371197D01*
X10134128Y29260803D01*
X10116448Y29149860D01*
X10077581Y29042119D01*
X10019323Y28941331D01*
X9943469Y28851244D01*
X9851817Y28775608D01*
X9839772Y28767636D01*
X9801611Y28741526D01*
X9772601Y28718905D01*
X9758732Y28704461D01*
X9758531Y28704004D01*
X9761508Y28688379D01*
X9773311Y28652918D01*
X9792714Y28600538D01*
X9818488Y28534155D01*
X9849409Y28456686D01*
X9884249Y28371050D01*
X9921783Y28280163D01*
X9960783Y28186941D01*
X10000023Y28094303D01*
X10038276Y28005165D01*
X10074317Y27922445D01*
X10106917Y27849059D01*
X10134852Y27787925D01*
X10156895Y27741959D01*
X10171818Y27714079D01*
X10177828Y27706757D01*
X10196191Y27712459D01*
X10230552Y27727751D01*
X10274984Y27749901D01*
X10299417Y27762850D01*
X10403178Y27818953D01*
X10526787Y27735345D01*
X10589886Y27692513D01*
X10658970Y27645378D01*
X10723707Y27600997D01*
X10756134Y27578648D01*
X10801741Y27548023D01*
X10840360Y27523753D01*
X10866952Y27508913D01*
X10875590Y27505776D01*
X10888161Y27514239D01*
X10915984Y27537864D01*
X10956361Y27574198D01*
X11006595Y27620789D01*
X11063988Y27675183D01*
X11100286Y27710108D01*
X11163790Y27772504D01*
X11218673Y27828312D01*
X11262714Y27875146D01*
X11293695Y27910618D01*
X11309398Y27932339D01*
X11310905Y27936748D01*
X11303914Y27953515D01*
X11284594Y27987418D01*
X11255091Y28035024D01*
X11217545Y28092901D01*
X11174100Y28157616D01*
X11161745Y28175658D01*
X11116727Y28241233D01*
X11076340Y28300272D01*
X11042840Y28349458D01*
X11018486Y28385472D01*
X11005536Y28404998D01*
X11004285Y28407017D01*
X11006156Y28422578D01*
X11016087Y28456791D01*
X11032347Y28505145D01*
X11053205Y28563129D01*
X11076927Y28626230D01*
X11101784Y28689937D01*
X11126042Y28749739D01*
X11147971Y28801124D01*
X11165838Y28839581D01*
X11177913Y28860598D01*
X11178771Y28861606D01*
X11186154Y28867612D01*
X11198625Y28873552D01*
X11218920Y28880040D01*
X11249778Y28887691D01*
X11293934Y28897120D01*
X11354126Y28908941D01*
X11433093Y28923771D01*
X11533570Y28942223D01*
X11555325Y28946190D01*
X11619802Y28958647D01*
X11676011Y28970834D01*
X11718987Y28981574D01*
X11743760Y28989691D01*
X11747082Y28991584D01*
X11752556Y29008362D01*
X11757006Y29045855D01*
X11760428Y29099706D01*
X11762819Y29165556D01*
X11764177Y29239047D01*
X11764499Y29315820D01*
X11763781Y29391517D01*
X11762021Y29461780D01*
X11759216Y29522250D01*
X11755362Y29568570D01*
X11750457Y29596381D01*
X11747500Y29602073D01*
X11731037Y29607814D01*
X11693551Y29617155D01*
X11638775Y29629285D01*
X11570445Y29643393D01*
X11492294Y29658670D01*
X11449716Y29666677D01*
X11368929Y29681779D01*
X11296887Y29695460D01*
X11237111Y29707033D01*
X11193121Y29715813D01*
X11168439Y29721113D01*
X11164377Y29722288D01*
X11157511Y29735535D01*
X11142998Y29767443D01*
X11122771Y29813453D01*
X11098766Y29869008D01*
X11072918Y29929547D01*
X11047160Y29990514D01*
X11023427Y30047349D01*
X11003654Y30095494D01*
X10989776Y30130390D01*
X10983726Y30147479D01*
X10983614Y30148226D01*
X10990472Y30161707D01*
X11009698Y30192730D01*
X11039272Y30238211D01*
X11077173Y30295068D01*
X11121380Y30360217D01*
X11147079Y30397638D01*
X11193907Y30466253D01*
X11235499Y30528548D01*
X11269825Y30581371D01*
X11294857Y30621573D01*
X11308565Y30646000D01*
X11310544Y30651476D01*
X11302034Y30664222D01*
X11278507Y30691437D01*
X11242968Y30730072D01*
X11198423Y30777077D01*
X11147877Y30829405D01*
X11094336Y30884005D01*
X11040805Y30937830D01*
X10990289Y30987830D01*
X10945794Y31030957D01*
X10910325Y31064161D01*
X10886887Y31084394D01*
X10879046Y31089222D01*
X10866280Y31082433D01*
X10835744Y31063358D01*
X10790410Y31033939D01*
X10733244Y30996119D01*
X10667216Y30951839D01*
X10617410Y30918105D01*
X10365764Y30746988D01*
X10156001Y30833459D01*
X9946237Y30919930D01*
X9889389Y31221482D01*
X9832540Y31523034D01*
X9204885Y31523034D01*
X9148036Y31221482D01*
G37*
X9148036Y31221482D02*
X9091188Y30919930D01*
X8671662Y30746988D01*
X8420016Y30918105D01*
X8349542Y30965750D01*
X8285837Y31008290D01*
X8231874Y31043785D01*
X8190627Y31070290D01*
X8165066Y31085864D01*
X8158105Y31089222D01*
X8145565Y31080586D01*
X8118769Y31056708D01*
X8080720Y31020641D01*
X8034421Y30975433D01*
X7982877Y30924136D01*
X7929091Y30869799D01*
X7876065Y30815472D01*
X7826805Y30764205D01*
X7784313Y30719049D01*
X7751593Y30683054D01*
X7731649Y30659270D01*
X7726881Y30651310D01*
X7733743Y30636635D01*
X7752980Y30604486D01*
X7782570Y30558008D01*
X7820490Y30500344D01*
X7864718Y30434640D01*
X7890346Y30397164D01*
X7937059Y30328732D01*
X7978568Y30266980D01*
X8012860Y30214981D01*
X8037920Y30175808D01*
X8051736Y30152535D01*
X8053812Y30147645D01*
X8049105Y30133745D01*
X8036277Y30101350D01*
X8017262Y30055015D01*
X7993997Y29999294D01*
X7968416Y29938742D01*
X7942455Y29877914D01*
X7918050Y29821364D01*
X7897137Y29773648D01*
X7881651Y29739319D01*
X7873528Y29722932D01*
X7873048Y29722288D01*
X7860293Y29719159D01*
X7826323Y29712179D01*
X7774660Y29702033D01*
X7708824Y29689408D01*
X7632336Y29674991D01*
X7587710Y29666677D01*
X7505979Y29651116D01*
X7432157Y29636308D01*
X7369979Y29623064D01*
X7323178Y29612195D01*
X7295491Y29604511D01*
X7289926Y29602073D01*
X7284474Y29585570D01*
X7280076Y29548300D01*
X7276728Y29494620D01*
X7274426Y29428888D01*
X7273168Y29355463D01*
X7272952Y29278704D01*
X7273773Y29202968D01*
X7275629Y29132614D01*
X7278518Y29072000D01*
X7282435Y29025484D01*
X7287378Y28997425D01*
X7290343Y28991584D01*
X7308066Y28984583D01*
X7345619Y28974573D01*
X7398036Y28962731D01*
X7460348Y28950233D01*
X7482100Y28946190D01*
X7586976Y28926980D01*
X7669820Y28911509D01*
X7733370Y28899163D01*
X7780363Y28889327D01*
X7813537Y28881386D01*
X7835629Y28874724D01*
X7849376Y28868727D01*
X7857516Y28862781D01*
X7858655Y28861606D01*
X7870023Y28842674D01*
X7887365Y28805831D01*
X7908950Y28755587D01*
X7933046Y28696454D01*
X7957921Y28632944D01*
X7981843Y28569568D01*
X8003081Y28510838D01*
X8019903Y28461265D01*
X8030578Y28425361D01*
X8033373Y28407638D01*
X8033140Y28407017D01*
X8023669Y28392530D01*
X8002182Y28360656D01*
X7970937Y28314711D01*
X7932193Y28258015D01*
X7888207Y28193883D01*
X7875681Y28175658D01*
X7831016Y28109586D01*
X7791712Y28049300D01*
X7759912Y27998265D01*
X7737755Y27959940D01*
X7727383Y27937789D01*
X7726881Y27935068D01*
X7735595Y27920764D01*
X7759675Y27892428D01*
X7796024Y27853104D01*
X7841547Y27805839D01*
X7893148Y27753677D01*
X7947733Y27699665D01*
X8002206Y27646847D01*
X8053471Y27598269D01*
X8098433Y27556977D01*
X8133996Y27526015D01*
X8157065Y27508430D01*
X8163446Y27505559D01*
X8178301Y27512322D01*
X8208714Y27530561D01*
X8249732Y27557203D01*
X8281291Y27578648D01*
X8338475Y27617997D01*
X8406194Y27664329D01*
X8474120Y27710587D01*
X8510639Y27735345D01*
X8634248Y27818953D01*
X8738009Y27762850D01*
X8785280Y27738272D01*
X8825477Y27719169D01*
X8852674Y27708273D01*
X8859598Y27706757D01*
X8867923Y27717951D01*
X8884346Y27749583D01*
X8907643Y27798735D01*
X8936586Y27862490D01*
X8969950Y27937929D01*
X9006509Y28022136D01*
X9045036Y28112192D01*
X9084306Y28205179D01*
X9123092Y28298180D01*
X9160170Y28388277D01*
X9194311Y28472552D01*
X9224292Y28548087D01*
X9248884Y28611966D01*
X9266864Y28661269D01*
X9277003Y28693079D01*
X9278634Y28704004D01*
X9265709Y28717939D01*
X9237411Y28740560D01*
X9199654Y28767167D01*
X9196485Y28769272D01*
X9098900Y28847386D01*
X9020214Y28938518D01*
X8961109Y29039755D01*
X8922268Y29148182D01*
X8904372Y29260886D01*
X8908103Y29374952D01*
X8934143Y29487466D01*
X8983175Y29595515D01*
X8997600Y29619155D01*
X9072631Y29714613D01*
X9161270Y29791268D01*
X9260451Y29848720D01*
X9367105Y29886571D01*
X9478164Y29904422D01*
X9590561Y29901875D01*
X9701227Y29878530D01*
X9807094Y29833990D01*
X9905095Y29767855D01*
X9935410Y29741013D01*
X10012562Y29656988D01*
X10068782Y29568534D01*
X10107347Y29469385D01*
X10128826Y29371197D01*
X10134128Y29260803D01*
X10116448Y29149860D01*
X10077581Y29042119D01*
X10019323Y28941331D01*
X9943469Y28851244D01*
X9851817Y28775608D01*
X9839772Y28767636D01*
X9801611Y28741526D01*
X9772601Y28718905D01*
X9758732Y28704461D01*
X9758531Y28704004D01*
X9761508Y28688379D01*
X9773311Y28652918D01*
X9792714Y28600538D01*
X9818488Y28534155D01*
X9849409Y28456686D01*
X9884249Y28371050D01*
X9921783Y28280163D01*
X9960783Y28186941D01*
X10000023Y28094303D01*
X10038276Y28005165D01*
X10074317Y27922445D01*
X10106917Y27849059D01*
X10134852Y27787925D01*
X10156895Y27741959D01*
X10171818Y27714079D01*
X10177828Y27706757D01*
X10196191Y27712459D01*
X10230552Y27727751D01*
X10274984Y27749901D01*
X10299417Y27762850D01*
X10403178Y27818953D01*
X10526787Y27735345D01*
X10589886Y27692513D01*
X10658970Y27645378D01*
X10723707Y27600997D01*
X10756134Y27578648D01*
X10801741Y27548023D01*
X10840360Y27523753D01*
X10866952Y27508913D01*
X10875590Y27505776D01*
X10888161Y27514239D01*
X10915984Y27537864D01*
X10956361Y27574198D01*
X11006595Y27620789D01*
X11063988Y27675183D01*
X11100286Y27710108D01*
X11163790Y27772504D01*
X11218673Y27828312D01*
X11262714Y27875146D01*
X11293695Y27910618D01*
X11309398Y27932339D01*
X11310905Y27936748D01*
X11303914Y27953515D01*
X11284594Y27987418D01*
X11255091Y28035024D01*
X11217545Y28092901D01*
X11174100Y28157616D01*
X11161745Y28175658D01*
X11116727Y28241233D01*
X11076340Y28300272D01*
X11042840Y28349458D01*
X11018486Y28385472D01*
X11005536Y28404998D01*
X11004285Y28407017D01*
X11006156Y28422578D01*
X11016087Y28456791D01*
X11032347Y28505145D01*
X11053205Y28563129D01*
X11076927Y28626230D01*
X11101784Y28689937D01*
X11126042Y28749739D01*
X11147971Y28801124D01*
X11165838Y28839581D01*
X11177913Y28860598D01*
X11178771Y28861606D01*
X11186154Y28867612D01*
X11198625Y28873552D01*
X11218920Y28880040D01*
X11249778Y28887691D01*
X11293934Y28897120D01*
X11354126Y28908941D01*
X11433093Y28923771D01*
X11533570Y28942223D01*
X11555325Y28946190D01*
X11619802Y28958647D01*
X11676011Y28970834D01*
X11718987Y28981574D01*
X11743760Y28989691D01*
X11747082Y28991584D01*
X11752556Y29008362D01*
X11757006Y29045855D01*
X11760428Y29099706D01*
X11762819Y29165556D01*
X11764177Y29239047D01*
X11764499Y29315820D01*
X11763781Y29391517D01*
X11762021Y29461780D01*
X11759216Y29522250D01*
X11755362Y29568570D01*
X11750457Y29596381D01*
X11747500Y29602073D01*
X11731037Y29607814D01*
X11693551Y29617155D01*
X11638775Y29629285D01*
X11570445Y29643393D01*
X11492294Y29658670D01*
X11449716Y29666677D01*
X11368929Y29681779D01*
X11296887Y29695460D01*
X11237111Y29707033D01*
X11193121Y29715813D01*
X11168439Y29721113D01*
X11164377Y29722288D01*
X11157511Y29735535D01*
X11142998Y29767443D01*
X11122771Y29813453D01*
X11098766Y29869008D01*
X11072918Y29929547D01*
X11047160Y29990514D01*
X11023427Y30047349D01*
X11003654Y30095494D01*
X10989776Y30130390D01*
X10983726Y30147479D01*
X10983614Y30148226D01*
X10990472Y30161707D01*
X11009698Y30192730D01*
X11039272Y30238211D01*
X11077173Y30295068D01*
X11121380Y30360217D01*
X11147079Y30397638D01*
X11193907Y30466253D01*
X11235499Y30528548D01*
X11269825Y30581371D01*
X11294857Y30621573D01*
X11308565Y30646000D01*
X11310544Y30651476D01*
X11302034Y30664222D01*
X11278507Y30691437D01*
X11242968Y30730072D01*
X11198423Y30777077D01*
X11147877Y30829405D01*
X11094336Y30884005D01*
X11040805Y30937830D01*
X10990289Y30987830D01*
X10945794Y31030957D01*
X10910325Y31064161D01*
X10886887Y31084394D01*
X10879046Y31089222D01*
X10866280Y31082433D01*
X10835744Y31063358D01*
X10790410Y31033939D01*
X10733244Y30996119D01*
X10667216Y30951839D01*
X10617410Y30918105D01*
X10365764Y30746988D01*
X10156001Y30833459D01*
X9946237Y30919930D01*
X9889389Y31221482D01*
X9832540Y31523034D01*
X9204885Y31523034D01*
X9148036Y31221482D01*
D12*
X19110000Y8830000D02*
X16450000Y8830000D01*
X19110000Y57150000D02*
X19110000Y8830000D01*
X16450000Y57150000D02*
X16450000Y8830000D01*
X19110000Y57150000D02*
X16450000Y57150000D01*
X19110000Y58420000D02*
X19110000Y59750000D01*
X19110000Y59750000D02*
X17780000Y59750000D01*
X3870000Y59750000D02*
X2540000Y59750000D01*
X3870000Y58420000D02*
X3870000Y59750000D01*
X3870000Y57150000D02*
X1210000Y57150000D01*
X1210000Y57150000D02*
X1210000Y8830000D01*
X3870000Y57150000D02*
X3870000Y8830000D01*
X3870000Y8830000D02*
X1210000Y8830000D01*
X19119904Y58051667D02*
X19691333Y58051667D01*
X19805619Y58089762D01*
X19881809Y58165953D01*
X19919904Y58280239D01*
X19919904Y58356429D01*
X19386571Y57327858D02*
X19919904Y57327858D01*
X19081809Y57518334D02*
X19653238Y57708810D01*
X19653238Y57213572D01*
X577904Y58686667D02*
X1149333Y58686667D01*
X1263619Y58724762D01*
X1339809Y58800953D01*
X1377904Y58915239D01*
X1377904Y58991429D01*
X577904Y58381905D02*
X577904Y57886667D01*
X882666Y58153334D01*
X882666Y58039048D01*
X920761Y57962858D01*
X958857Y57924762D01*
X1035047Y57886667D01*
X1225523Y57886667D01*
X1301714Y57924762D01*
X1339809Y57962858D01*
X1377904Y58039048D01*
X1377904Y58267620D01*
X1339809Y58343810D01*
X1301714Y58381905D01*
M02*
